<?xml version="1.0" encoding="utf-8" standalone="no"?>
<!DOCTYPE svg PUBLIC "-//W3C//DTD SVG 1.1//EN"
  "http://www.w3.org/Graphics/SVG/1.1/DTD/svg11.dtd">
<!-- Created with matplotlib (http://matplotlib.org/) -->
<svg height="360pt" version="1.1" viewBox="0 0 1080 360" width="1080pt" xmlns="http://www.w3.org/2000/svg" xmlns:xlink="http://www.w3.org/1999/xlink">
 <defs>
  <style type="text/css">
*{stroke-linecap:butt;stroke-linejoin:round;}
  </style>
 </defs>
 <g id="figure_1">
  <g id="patch_1">
   <path d="M 0 360 
L 1080 360 
L 1080 0 
L 0 0 
z
" style="fill:#ffffff;"/>
  </g>
  <g id="axes_1">
   <g id="patch_2">
    <path d="M 65.62925 308.1295 
L 349.240291 308.1295 
L 349.240291 21.168 
L 65.62925 21.168 
z
" style="fill:#ffffff;"/>
   </g>
   <g id="matplotlib.axis_1">
    <g id="xtick_1">
     <g id="line2d_1">
      <defs>
       <path d="M 0 0 
L 0 6 
" id="m8907acc233" style="stroke:#1a1a1a;"/>
      </defs>
      <g>
       <use style="fill:#1a1a1a;stroke:#1a1a1a;" x="72.337799" xlink:href="#m8907acc233" y="308.1295"/>
      </g>
     </g>
     <g id="text_1">
      <!-- 1800 -->
      <defs>
       <path d="M 37.25 0 
L 28.46875 0 
L 28.46875 56 
Q 25.296875 52.984375 20.140625 49.953125 
Q 14.984375 46.921875 10.890625 45.40625 
L 10.890625 53.90625 
Q 18.265625 57.375 23.78125 62.296875 
Q 29.296875 67.234375 31.59375 71.875 
L 37.25 71.875 
z
" id="ArialMT-31"/>
       <path d="M 17.671875 38.8125 
Q 12.203125 40.828125 9.5625 44.53125 
Q 6.9375 48.25 6.9375 53.421875 
Q 6.9375 61.234375 12.546875 66.546875 
Q 18.171875 71.875 27.484375 71.875 
Q 36.859375 71.875 42.578125 66.421875 
Q 48.296875 60.984375 48.296875 53.171875 
Q 48.296875 48.1875 45.671875 44.5 
Q 43.0625 40.828125 37.75 38.8125 
Q 44.34375 36.671875 47.78125 31.875 
Q 51.21875 27.09375 51.21875 20.453125 
Q 51.21875 11.28125 44.71875 5.03125 
Q 38.234375 -1.21875 27.640625 -1.21875 
Q 17.046875 -1.21875 10.546875 5.046875 
Q 4.046875 11.328125 4.046875 20.703125 
Q 4.046875 27.6875 7.59375 32.390625 
Q 11.140625 37.109375 17.671875 38.8125 
M 15.921875 53.71875 
Q 15.921875 48.640625 19.1875 45.40625 
Q 22.46875 42.1875 27.6875 42.1875 
Q 32.765625 42.1875 36.015625 45.375 
Q 39.265625 48.578125 39.265625 53.21875 
Q 39.265625 58.0625 35.90625 61.359375 
Q 32.5625 64.65625 27.59375 64.65625 
Q 22.5625 64.65625 19.234375 61.421875 
Q 15.921875 58.203125 15.921875 53.71875 
M 13.09375 20.65625 
Q 13.09375 16.890625 14.875 13.375 
Q 16.65625 9.859375 20.171875 7.921875 
Q 23.6875 6 27.734375 6 
Q 34.03125 6 38.125 10.046875 
Q 42.234375 14.109375 42.234375 20.359375 
Q 42.234375 26.703125 38.015625 30.859375 
Q 33.796875 35.015625 27.4375 35.015625 
Q 21.234375 35.015625 17.15625 30.90625 
Q 13.09375 26.8125 13.09375 20.65625 
" id="ArialMT-38"/>
       <path d="M 4.15625 35.296875 
Q 4.15625 48 6.765625 55.734375 
Q 9.375 63.484375 14.515625 67.671875 
Q 19.671875 71.875 27.484375 71.875 
Q 33.25 71.875 37.59375 69.546875 
Q 41.9375 67.234375 44.765625 62.859375 
Q 47.609375 58.5 49.21875 52.21875 
Q 50.828125 45.953125 50.828125 35.296875 
Q 50.828125 22.703125 48.234375 14.96875 
Q 45.65625 7.234375 40.5 3 
Q 35.359375 -1.21875 27.484375 -1.21875 
Q 17.140625 -1.21875 11.234375 6.203125 
Q 4.15625 15.140625 4.15625 35.296875 
M 13.1875 35.296875 
Q 13.1875 17.671875 17.3125 11.828125 
Q 21.4375 6 27.484375 6 
Q 33.546875 6 37.671875 11.859375 
Q 41.796875 17.71875 41.796875 35.296875 
Q 41.796875 52.984375 37.671875 58.78125 
Q 33.546875 64.59375 27.390625 64.59375 
Q 21.34375 64.59375 17.71875 59.46875 
Q 13.1875 52.9375 13.1875 35.296875 
" id="ArialMT-30"/>
      </defs>
      <g style="fill:#1a1a1a;" transform="translate(57.879361 330.434656)scale(0.13 -0.13)">
       <use xlink:href="#ArialMT-31"/>
       <use x="55.615234" xlink:href="#ArialMT-38"/>
       <use x="111.230469" xlink:href="#ArialMT-30"/>
       <use x="166.845703" xlink:href="#ArialMT-30"/>
      </g>
     </g>
    </g>
    <g id="xtick_2">
     <g id="line2d_2">
      <g>
       <use style="fill:#1a1a1a;stroke:#1a1a1a;" x="123.267765" xlink:href="#m8907acc233" y="308.1295"/>
      </g>
     </g>
     <g id="text_2">
      <!-- 2000 -->
      <defs>
       <path d="M 50.34375 8.453125 
L 50.34375 0 
L 3.03125 0 
Q 2.9375 3.171875 4.046875 6.109375 
Q 5.859375 10.9375 9.828125 15.625 
Q 13.8125 20.3125 21.34375 26.46875 
Q 33.015625 36.03125 37.109375 41.625 
Q 41.21875 47.21875 41.21875 52.203125 
Q 41.21875 57.421875 37.46875 61 
Q 33.734375 64.59375 27.734375 64.59375 
Q 21.390625 64.59375 17.578125 60.78125 
Q 13.765625 56.984375 13.71875 50.25 
L 4.6875 51.171875 
Q 5.609375 61.28125 11.65625 66.578125 
Q 17.71875 71.875 27.9375 71.875 
Q 38.234375 71.875 44.234375 66.15625 
Q 50.25 60.453125 50.25 52 
Q 50.25 47.703125 48.484375 43.546875 
Q 46.734375 39.40625 42.65625 34.8125 
Q 38.578125 30.21875 29.109375 22.21875 
Q 21.1875 15.578125 18.9375 13.203125 
Q 16.703125 10.84375 15.234375 8.453125 
z
" id="ArialMT-32"/>
      </defs>
      <g style="fill:#1a1a1a;" transform="translate(108.809327 330.434656)scale(0.13 -0.13)">
       <use xlink:href="#ArialMT-32"/>
       <use x="55.615234" xlink:href="#ArialMT-30"/>
       <use x="111.230469" xlink:href="#ArialMT-30"/>
       <use x="166.845703" xlink:href="#ArialMT-30"/>
      </g>
     </g>
    </g>
    <g id="xtick_3">
     <g id="line2d_3">
      <g>
       <use style="fill:#1a1a1a;stroke:#1a1a1a;" x="174.197731" xlink:href="#m8907acc233" y="308.1295"/>
      </g>
     </g>
     <g id="text_3">
      <!-- 2200 -->
      <g style="fill:#1a1a1a;" transform="translate(159.739294 330.434656)scale(0.13 -0.13)">
       <use xlink:href="#ArialMT-32"/>
       <use x="55.615234" xlink:href="#ArialMT-32"/>
       <use x="111.230469" xlink:href="#ArialMT-30"/>
       <use x="166.845703" xlink:href="#ArialMT-30"/>
      </g>
     </g>
    </g>
    <g id="xtick_4">
     <g id="line2d_4">
      <g>
       <use style="fill:#1a1a1a;stroke:#1a1a1a;" x="225.127697" xlink:href="#m8907acc233" y="308.1295"/>
      </g>
     </g>
     <g id="text_4">
      <!-- 2400 -->
      <defs>
       <path d="M 32.328125 0 
L 32.328125 17.140625 
L 1.265625 17.140625 
L 1.265625 25.203125 
L 33.9375 71.578125 
L 41.109375 71.578125 
L 41.109375 25.203125 
L 50.78125 25.203125 
L 50.78125 17.140625 
L 41.109375 17.140625 
L 41.109375 0 
z
M 32.328125 25.203125 
L 32.328125 57.46875 
L 9.90625 25.203125 
z
" id="ArialMT-34"/>
      </defs>
      <g style="fill:#1a1a1a;" transform="translate(210.66926 330.434656)scale(0.13 -0.13)">
       <use xlink:href="#ArialMT-32"/>
       <use x="55.615234" xlink:href="#ArialMT-34"/>
       <use x="111.230469" xlink:href="#ArialMT-30"/>
       <use x="166.845703" xlink:href="#ArialMT-30"/>
      </g>
     </g>
    </g>
    <g id="xtick_5">
     <g id="line2d_5">
      <g>
       <use style="fill:#1a1a1a;stroke:#1a1a1a;" x="276.057664" xlink:href="#m8907acc233" y="308.1295"/>
      </g>
     </g>
     <g id="text_5">
      <!-- 2600 -->
      <defs>
       <path d="M 49.75 54.046875 
L 41.015625 53.375 
Q 39.84375 58.546875 37.703125 60.890625 
Q 34.125 64.65625 28.90625 64.65625 
Q 24.703125 64.65625 21.53125 62.3125 
Q 17.390625 59.28125 14.984375 53.46875 
Q 12.59375 47.65625 12.5 36.921875 
Q 15.671875 41.75 20.265625 44.09375 
Q 24.859375 46.4375 29.890625 46.4375 
Q 38.671875 46.4375 44.84375 39.96875 
Q 51.03125 33.5 51.03125 23.25 
Q 51.03125 16.5 48.125 10.71875 
Q 45.21875 4.9375 40.140625 1.859375 
Q 35.0625 -1.21875 28.609375 -1.21875 
Q 17.625 -1.21875 10.6875 6.859375 
Q 3.765625 14.9375 3.765625 33.5 
Q 3.765625 54.25 11.421875 63.671875 
Q 18.109375 71.875 29.4375 71.875 
Q 37.890625 71.875 43.28125 67.140625 
Q 48.6875 62.40625 49.75 54.046875 
M 13.875 23.1875 
Q 13.875 18.65625 15.796875 14.5 
Q 17.71875 10.359375 21.1875 8.171875 
Q 24.65625 6 28.46875 6 
Q 34.03125 6 38.03125 10.484375 
Q 42.046875 14.984375 42.046875 22.703125 
Q 42.046875 30.125 38.078125 34.390625 
Q 34.125 38.671875 28.125 38.671875 
Q 22.171875 38.671875 18.015625 34.390625 
Q 13.875 30.125 13.875 23.1875 
" id="ArialMT-36"/>
      </defs>
      <g style="fill:#1a1a1a;" transform="translate(261.599226 330.434656)scale(0.13 -0.13)">
       <use xlink:href="#ArialMT-32"/>
       <use x="55.615234" xlink:href="#ArialMT-36"/>
       <use x="111.230469" xlink:href="#ArialMT-30"/>
       <use x="166.845703" xlink:href="#ArialMT-30"/>
      </g>
     </g>
    </g>
    <g id="xtick_6">
     <g id="line2d_6">
      <g>
       <use style="fill:#1a1a1a;stroke:#1a1a1a;" x="326.98763" xlink:href="#m8907acc233" y="308.1295"/>
      </g>
     </g>
     <g id="text_6">
      <!-- 2800 -->
      <g style="fill:#1a1a1a;" transform="translate(312.529192 330.434656)scale(0.13 -0.13)">
       <use xlink:href="#ArialMT-32"/>
       <use x="55.615234" xlink:href="#ArialMT-38"/>
       <use x="111.230469" xlink:href="#ArialMT-30"/>
       <use x="166.845703" xlink:href="#ArialMT-30"/>
      </g>
     </g>
    </g>
    <g id="text_7">
     <!-- Temperature (K) -->
     <defs>
      <path d="M 25.921875 0 
L 25.921875 63.140625 
L 2.34375 63.140625 
L 2.34375 71.578125 
L 59.078125 71.578125 
L 59.078125 63.140625 
L 35.40625 63.140625 
L 35.40625 0 
z
" id="ArialMT-54"/>
      <path d="M 42.09375 16.703125 
L 51.171875 15.578125 
Q 49.03125 7.625 43.21875 3.21875 
Q 37.40625 -1.171875 28.375 -1.171875 
Q 17 -1.171875 10.328125 5.828125 
Q 3.65625 12.84375 3.65625 25.484375 
Q 3.65625 38.578125 10.390625 45.796875 
Q 17.140625 53.03125 27.875 53.03125 
Q 38.28125 53.03125 44.875 45.953125 
Q 51.46875 38.875 51.46875 26.03125 
Q 51.46875 25.25 51.421875 23.6875 
L 12.75 23.6875 
Q 13.234375 15.140625 17.578125 10.59375 
Q 21.921875 6.0625 28.421875 6.0625 
Q 33.25 6.0625 36.671875 8.59375 
Q 40.09375 11.140625 42.09375 16.703125 
M 13.234375 30.90625 
L 42.1875 30.90625 
Q 41.609375 37.453125 38.875 40.71875 
Q 34.671875 45.796875 27.984375 45.796875 
Q 21.921875 45.796875 17.796875 41.75 
Q 13.671875 37.703125 13.234375 30.90625 
" id="ArialMT-65"/>
      <path d="M 6.59375 0 
L 6.59375 51.859375 
L 14.453125 51.859375 
L 14.453125 44.578125 
Q 16.890625 48.390625 20.9375 50.703125 
Q 25 53.03125 30.171875 53.03125 
Q 35.9375 53.03125 39.625 50.640625 
Q 43.3125 48.25 44.828125 43.953125 
Q 50.984375 53.03125 60.84375 53.03125 
Q 68.5625 53.03125 72.703125 48.75 
Q 76.859375 44.484375 76.859375 35.59375 
L 76.859375 0 
L 68.109375 0 
L 68.109375 32.671875 
Q 68.109375 37.9375 67.25 40.25 
Q 66.40625 42.578125 64.15625 43.984375 
Q 61.921875 45.40625 58.890625 45.40625 
Q 53.421875 45.40625 49.796875 41.765625 
Q 46.1875 38.140625 46.1875 30.125 
L 46.1875 0 
L 37.40625 0 
L 37.40625 33.6875 
Q 37.40625 39.546875 35.25 42.46875 
Q 33.109375 45.40625 28.21875 45.40625 
Q 24.515625 45.40625 21.359375 43.453125 
Q 18.21875 41.5 16.796875 37.734375 
Q 15.375 33.984375 15.375 26.90625 
L 15.375 0 
z
" id="ArialMT-6d"/>
      <path d="M 6.59375 -19.875 
L 6.59375 51.859375 
L 14.59375 51.859375 
L 14.59375 45.125 
Q 17.4375 49.078125 21 51.046875 
Q 24.5625 53.03125 29.640625 53.03125 
Q 36.28125 53.03125 41.359375 49.609375 
Q 46.4375 46.1875 49.015625 39.953125 
Q 51.609375 33.734375 51.609375 26.3125 
Q 51.609375 18.359375 48.75 11.984375 
Q 45.90625 5.609375 40.453125 2.21875 
Q 35.015625 -1.171875 29 -1.171875 
Q 24.609375 -1.171875 21.109375 0.6875 
Q 17.625 2.546875 15.375 5.375 
L 15.375 -19.875 
z
M 14.546875 25.640625 
Q 14.546875 15.625 18.59375 10.84375 
Q 22.65625 6.0625 28.421875 6.0625 
Q 34.28125 6.0625 38.453125 11.015625 
Q 42.625 15.96875 42.625 26.375 
Q 42.625 36.28125 38.546875 41.203125 
Q 34.46875 46.140625 28.8125 46.140625 
Q 23.1875 46.140625 18.859375 40.890625 
Q 14.546875 35.640625 14.546875 25.640625 
" id="ArialMT-70"/>
      <path d="M 6.5 0 
L 6.5 51.859375 
L 14.40625 51.859375 
L 14.40625 44 
Q 17.4375 49.515625 20 51.265625 
Q 22.5625 53.03125 25.640625 53.03125 
Q 30.078125 53.03125 34.671875 50.203125 
L 31.640625 42.046875 
Q 28.421875 43.953125 25.203125 43.953125 
Q 22.3125 43.953125 20.015625 42.21875 
Q 17.71875 40.484375 16.75 37.40625 
Q 15.28125 32.71875 15.28125 27.15625 
L 15.28125 0 
z
" id="ArialMT-72"/>
      <path d="M 40.4375 6.390625 
Q 35.546875 2.25 31.03125 0.53125 
Q 26.515625 -1.171875 21.34375 -1.171875 
Q 12.796875 -1.171875 8.203125 3 
Q 3.609375 7.171875 3.609375 13.671875 
Q 3.609375 17.484375 5.34375 20.625 
Q 7.078125 23.78125 9.890625 25.6875 
Q 12.703125 27.59375 16.21875 28.5625 
Q 18.796875 29.25 24.03125 29.890625 
Q 34.671875 31.15625 39.703125 32.90625 
Q 39.75 34.71875 39.75 35.203125 
Q 39.75 40.578125 37.25 42.78125 
Q 33.890625 45.75 27.25 45.75 
Q 21.046875 45.75 18.09375 43.578125 
Q 15.140625 41.40625 13.71875 35.890625 
L 5.125 37.0625 
Q 6.296875 42.578125 8.984375 45.96875 
Q 11.671875 49.359375 16.75 51.1875 
Q 21.828125 53.03125 28.515625 53.03125 
Q 35.15625 53.03125 39.296875 51.46875 
Q 43.453125 49.90625 45.40625 47.53125 
Q 47.359375 45.171875 48.140625 41.546875 
Q 48.578125 39.3125 48.578125 33.453125 
L 48.578125 21.734375 
Q 48.578125 9.46875 49.140625 6.21875 
Q 49.703125 2.984375 51.375 0 
L 42.1875 0 
Q 40.828125 2.734375 40.4375 6.390625 
M 39.703125 26.03125 
Q 34.90625 24.078125 25.34375 22.703125 
Q 19.921875 21.921875 17.671875 20.9375 
Q 15.4375 19.96875 14.203125 18.09375 
Q 12.984375 16.21875 12.984375 13.921875 
Q 12.984375 10.40625 15.640625 8.0625 
Q 18.3125 5.71875 23.4375 5.71875 
Q 28.515625 5.71875 32.46875 7.9375 
Q 36.421875 10.15625 38.28125 14.015625 
Q 39.703125 17 39.703125 22.796875 
z
" id="ArialMT-61"/>
      <path d="M 25.78125 7.859375 
L 27.046875 0.09375 
Q 23.34375 -0.6875 20.40625 -0.6875 
Q 15.625 -0.6875 12.984375 0.828125 
Q 10.359375 2.34375 9.28125 4.8125 
Q 8.203125 7.28125 8.203125 15.1875 
L 8.203125 45.015625 
L 1.765625 45.015625 
L 1.765625 51.859375 
L 8.203125 51.859375 
L 8.203125 64.703125 
L 16.9375 69.96875 
L 16.9375 51.859375 
L 25.78125 51.859375 
L 25.78125 45.015625 
L 16.9375 45.015625 
L 16.9375 14.703125 
Q 16.9375 10.9375 17.40625 9.859375 
Q 17.875 8.796875 18.921875 8.15625 
Q 19.96875 7.515625 21.921875 7.515625 
Q 23.390625 7.515625 25.78125 7.859375 
" id="ArialMT-74"/>
      <path d="M 40.578125 0 
L 40.578125 7.625 
Q 34.515625 -1.171875 24.125 -1.171875 
Q 19.53125 -1.171875 15.546875 0.578125 
Q 11.578125 2.34375 9.640625 5 
Q 7.71875 7.671875 6.9375 11.53125 
Q 6.390625 14.109375 6.390625 19.734375 
L 6.390625 51.859375 
L 15.1875 51.859375 
L 15.1875 23.09375 
Q 15.1875 16.21875 15.71875 13.8125 
Q 16.546875 10.359375 19.234375 8.375 
Q 21.921875 6.390625 25.875 6.390625 
Q 29.828125 6.390625 33.296875 8.421875 
Q 36.765625 10.453125 38.203125 13.9375 
Q 39.65625 17.4375 39.65625 24.078125 
L 39.65625 51.859375 
L 48.4375 51.859375 
L 48.4375 0 
z
" id="ArialMT-75"/>
      <path id="ArialMT-20"/>
      <path d="M 23.390625 -21.046875 
Q 16.109375 -11.859375 11.078125 0.4375 
Q 6.0625 12.75 6.0625 25.921875 
Q 6.0625 37.546875 9.8125 48.1875 
Q 14.203125 60.546875 23.390625 72.796875 
L 29.6875 72.796875 
Q 23.78125 62.640625 21.875 58.296875 
Q 18.890625 51.5625 17.1875 44.234375 
Q 15.09375 35.109375 15.09375 25.875 
Q 15.09375 2.390625 29.6875 -21.046875 
z
" id="ArialMT-28"/>
      <path d="M 7.328125 0 
L 7.328125 71.578125 
L 16.796875 71.578125 
L 16.796875 36.078125 
L 52.34375 71.578125 
L 65.1875 71.578125 
L 35.15625 42.578125 
L 66.5 0 
L 54 0 
L 28.515625 36.234375 
L 16.796875 24.8125 
L 16.796875 0 
z
" id="ArialMT-4b"/>
      <path d="M 12.359375 -21.046875 
L 6.0625 -21.046875 
Q 20.65625 2.390625 20.65625 25.875 
Q 20.65625 35.0625 18.5625 44.09375 
Q 16.890625 51.421875 13.921875 58.15625 
Q 12.015625 62.546875 6.0625 72.796875 
L 12.359375 72.796875 
Q 21.53125 60.546875 25.921875 48.1875 
Q 29.6875 37.546875 29.6875 25.921875 
Q 29.6875 12.75 24.625 0.4375 
Q 19.578125 -11.859375 12.359375 -21.046875 
" id="ArialMT-29"/>
     </defs>
     <g style="fill:#1a1a1a;" transform="translate(155.002927 347.428359)scale(0.143 -0.143)">
      <use xlink:href="#ArialMT-54"/>
      <use x="60.912109" xlink:href="#ArialMT-65"/>
      <use x="116.527344" xlink:href="#ArialMT-6d"/>
      <use x="199.828125" xlink:href="#ArialMT-70"/>
      <use x="255.443359" xlink:href="#ArialMT-65"/>
      <use x="311.058594" xlink:href="#ArialMT-72"/>
      <use x="344.359375" xlink:href="#ArialMT-61"/>
      <use x="399.974609" xlink:href="#ArialMT-74"/>
      <use x="427.757812" xlink:href="#ArialMT-75"/>
      <use x="483.373047" xlink:href="#ArialMT-72"/>
      <use x="516.673828" xlink:href="#ArialMT-65"/>
      <use x="572.289062" xlink:href="#ArialMT-20"/>
      <use x="600.072266" xlink:href="#ArialMT-28"/>
      <use x="633.373047" xlink:href="#ArialMT-4b"/>
      <use x="700.072266" xlink:href="#ArialMT-29"/>
     </g>
    </g>
   </g>
   <g id="matplotlib.axis_2">
    <g id="ytick_1">
     <g id="line2d_7">
      <defs>
       <path d="M 0 0 
L -6 0 
" id="m17bd572ff6" style="stroke:#1a1a1a;"/>
      </defs>
      <g>
       <use style="fill:#1a1a1a;stroke:#1a1a1a;" x="65.62925" xlink:href="#m17bd572ff6" y="21.168"/>
      </g>
     </g>
     <g id="text_8">
      <!-- ${10^{-2}}$ -->
      <defs>
       <path d="M 12.40625 8.296875 
L 28.515625 8.296875 
L 28.515625 63.921875 
L 10.984375 60.40625 
L 10.984375 69.390625 
L 28.421875 72.90625 
L 38.28125 72.90625 
L 38.28125 8.296875 
L 54.390625 8.296875 
L 54.390625 0 
L 12.40625 0 
z
" id="DejaVuSans-31"/>
       <path d="M 31.78125 66.40625 
Q 24.171875 66.40625 20.328125 58.90625 
Q 16.5 51.421875 16.5 36.375 
Q 16.5 21.390625 20.328125 13.890625 
Q 24.171875 6.390625 31.78125 6.390625 
Q 39.453125 6.390625 43.28125 13.890625 
Q 47.125 21.390625 47.125 36.375 
Q 47.125 51.421875 43.28125 58.90625 
Q 39.453125 66.40625 31.78125 66.40625 
M 31.78125 74.21875 
Q 44.046875 74.21875 50.515625 64.515625 
Q 56.984375 54.828125 56.984375 36.375 
Q 56.984375 17.96875 50.515625 8.265625 
Q 44.046875 -1.421875 31.78125 -1.421875 
Q 19.53125 -1.421875 13.0625 8.265625 
Q 6.59375 17.96875 6.59375 36.375 
Q 6.59375 54.828125 13.0625 64.515625 
Q 19.53125 74.21875 31.78125 74.21875 
" id="DejaVuSans-30"/>
       <path d="M 10.59375 35.5 
L 73.1875 35.5 
L 73.1875 27.203125 
L 10.59375 27.203125 
z
" id="DejaVuSans-2212"/>
       <path d="M 19.1875 8.296875 
L 53.609375 8.296875 
L 53.609375 0 
L 7.328125 0 
L 7.328125 8.296875 
Q 12.9375 14.109375 22.625 23.890625 
Q 32.328125 33.6875 34.8125 36.53125 
Q 39.546875 41.84375 41.421875 45.53125 
Q 43.3125 49.21875 43.3125 52.78125 
Q 43.3125 58.59375 39.234375 62.25 
Q 35.15625 65.921875 28.609375 65.921875 
Q 23.96875 65.921875 18.8125 64.3125 
Q 13.671875 62.703125 7.8125 59.421875 
L 7.8125 69.390625 
Q 13.765625 71.78125 18.9375 73 
Q 24.125 74.21875 28.421875 74.21875 
Q 39.75 74.21875 46.484375 68.546875 
Q 53.21875 62.890625 53.21875 53.421875 
Q 53.21875 48.921875 51.53125 44.890625 
Q 49.859375 40.875 45.40625 35.40625 
Q 44.1875 33.984375 37.640625 27.21875 
Q 31.109375 20.453125 19.1875 8.296875 
" id="DejaVuSans-32"/>
      </defs>
      <g style="fill:#1a1a1a;" transform="translate(22.07925 25.921125)scale(0.13 -0.13)">
       <use transform="translate(0 0.765625)" xlink:href="#DejaVuSans-31"/>
       <use transform="translate(63.623047 0.765625)" xlink:href="#DejaVuSans-30"/>
       <use transform="translate(128.203125 39.046875)scale(0.7)" xlink:href="#DejaVuSans-2212"/>
       <use transform="translate(186.855469 39.046875)scale(0.7)" xlink:href="#DejaVuSans-32"/>
      </g>
     </g>
    </g>
    <g id="ytick_2">
     <g id="line2d_8">
      <g>
       <use style="fill:#1a1a1a;stroke:#1a1a1a;" x="65.62925" xlink:href="#m17bd572ff6" y="116.821833"/>
      </g>
     </g>
     <g id="text_9">
      <!-- ${10^{-1}}$ -->
      <g style="fill:#1a1a1a;" transform="translate(22.07925 121.509958)scale(0.13 -0.13)">
       <use transform="translate(0 0.684375)" xlink:href="#DejaVuSans-31"/>
       <use transform="translate(63.623047 0.684375)" xlink:href="#DejaVuSans-30"/>
       <use transform="translate(128.203125 38.965625)scale(0.7)" xlink:href="#DejaVuSans-2212"/>
       <use transform="translate(186.855469 38.965625)scale(0.7)" xlink:href="#DejaVuSans-31"/>
      </g>
     </g>
    </g>
    <g id="ytick_3">
     <g id="line2d_9">
      <g>
       <use style="fill:#1a1a1a;stroke:#1a1a1a;" x="65.62925" xlink:href="#m17bd572ff6" y="212.475667"/>
      </g>
     </g>
     <g id="text_10">
      <!-- ${10^{0}}$ -->
      <g style="fill:#1a1a1a;" transform="translate(29.74925 217.228792)scale(0.13 -0.13)">
       <use transform="translate(0 0.765625)" xlink:href="#DejaVuSans-31"/>
       <use transform="translate(63.623047 0.765625)" xlink:href="#DejaVuSans-30"/>
       <use transform="translate(128.203125 39.046875)scale(0.7)" xlink:href="#DejaVuSans-30"/>
      </g>
     </g>
    </g>
    <g id="ytick_4">
     <g id="line2d_10">
      <g>
       <use style="fill:#1a1a1a;stroke:#1a1a1a;" x="65.62925" xlink:href="#m17bd572ff6" y="308.1295"/>
      </g>
     </g>
     <g id="text_11">
      <!-- ${10^{1}}$ -->
      <g style="fill:#1a1a1a;" transform="translate(29.74925 312.817625)scale(0.13 -0.13)">
       <use transform="translate(0 0.684375)" xlink:href="#DejaVuSans-31"/>
       <use transform="translate(63.623047 0.684375)" xlink:href="#DejaVuSans-30"/>
       <use transform="translate(128.203125 38.965625)scale(0.7)" xlink:href="#DejaVuSans-31"/>
      </g>
     </g>
    </g>
    <g id="ytick_5">
     <g id="line2d_11">
      <defs>
       <path d="M 0 0 
L -3 0 
" id="mc3912b5813" style="stroke:#1a1a1a;stroke-width:0.5;"/>
      </defs>
      <g>
       <use style="fill:#1a1a1a;stroke:#1a1a1a;stroke-width:0.5;" x="65.62925" xlink:href="#mc3912b5813" y="49.962673"/>
      </g>
     </g>
    </g>
    <g id="ytick_6">
     <g id="line2d_12">
      <g>
       <use style="fill:#1a1a1a;stroke:#1a1a1a;stroke-width:0.5;" x="65.62925" xlink:href="#mc3912b5813" y="66.806477"/>
      </g>
     </g>
    </g>
    <g id="ytick_7">
     <g id="line2d_13">
      <g>
       <use style="fill:#1a1a1a;stroke:#1a1a1a;stroke-width:0.5;" x="65.62925" xlink:href="#mc3912b5813" y="78.757346"/>
      </g>
     </g>
    </g>
    <g id="ytick_8">
     <g id="line2d_14">
      <g>
       <use style="fill:#1a1a1a;stroke:#1a1a1a;stroke-width:0.5;" x="65.62925" xlink:href="#mc3912b5813" y="88.02716"/>
      </g>
     </g>
    </g>
    <g id="ytick_9">
     <g id="line2d_15">
      <g>
       <use style="fill:#1a1a1a;stroke:#1a1a1a;stroke-width:0.5;" x="65.62925" xlink:href="#mc3912b5813" y="95.60115"/>
      </g>
     </g>
    </g>
    <g id="ytick_10">
     <g id="line2d_16">
      <g>
       <use style="fill:#1a1a1a;stroke:#1a1a1a;stroke-width:0.5;" x="65.62925" xlink:href="#mc3912b5813" y="102.004867"/>
      </g>
     </g>
    </g>
    <g id="ytick_11">
     <g id="line2d_17">
      <g>
       <use style="fill:#1a1a1a;stroke:#1a1a1a;stroke-width:0.5;" x="65.62925" xlink:href="#mc3912b5813" y="107.552019"/>
      </g>
     </g>
    </g>
    <g id="ytick_12">
     <g id="line2d_18">
      <g>
       <use style="fill:#1a1a1a;stroke:#1a1a1a;stroke-width:0.5;" x="65.62925" xlink:href="#mc3912b5813" y="112.444954"/>
      </g>
     </g>
    </g>
    <g id="ytick_13">
     <g id="line2d_19">
      <g>
       <use style="fill:#1a1a1a;stroke:#1a1a1a;stroke-width:0.5;" x="65.62925" xlink:href="#mc3912b5813" y="145.616506"/>
      </g>
     </g>
    </g>
    <g id="ytick_14">
     <g id="line2d_20">
      <g>
       <use style="fill:#1a1a1a;stroke:#1a1a1a;stroke-width:0.5;" x="65.62925" xlink:href="#mc3912b5813" y="162.46031"/>
      </g>
     </g>
    </g>
    <g id="ytick_15">
     <g id="line2d_21">
      <g>
       <use style="fill:#1a1a1a;stroke:#1a1a1a;stroke-width:0.5;" x="65.62925" xlink:href="#mc3912b5813" y="174.411179"/>
      </g>
     </g>
    </g>
    <g id="ytick_16">
     <g id="line2d_22">
      <g>
       <use style="fill:#1a1a1a;stroke:#1a1a1a;stroke-width:0.5;" x="65.62925" xlink:href="#mc3912b5813" y="183.680994"/>
      </g>
     </g>
    </g>
    <g id="ytick_17">
     <g id="line2d_23">
      <g>
       <use style="fill:#1a1a1a;stroke:#1a1a1a;stroke-width:0.5;" x="65.62925" xlink:href="#mc3912b5813" y="191.254983"/>
      </g>
     </g>
    </g>
    <g id="ytick_18">
     <g id="line2d_24">
      <g>
       <use style="fill:#1a1a1a;stroke:#1a1a1a;stroke-width:0.5;" x="65.62925" xlink:href="#mc3912b5813" y="197.6587"/>
      </g>
     </g>
    </g>
    <g id="ytick_19">
     <g id="line2d_25">
      <g>
       <use style="fill:#1a1a1a;stroke:#1a1a1a;stroke-width:0.5;" x="65.62925" xlink:href="#mc3912b5813" y="203.205852"/>
      </g>
     </g>
    </g>
    <g id="ytick_20">
     <g id="line2d_26">
      <g>
       <use style="fill:#1a1a1a;stroke:#1a1a1a;stroke-width:0.5;" x="65.62925" xlink:href="#mc3912b5813" y="208.098787"/>
      </g>
     </g>
    </g>
    <g id="ytick_21">
     <g id="line2d_27">
      <g>
       <use style="fill:#1a1a1a;stroke:#1a1a1a;stroke-width:0.5;" x="65.62925" xlink:href="#mc3912b5813" y="241.27034"/>
      </g>
     </g>
    </g>
    <g id="ytick_22">
     <g id="line2d_28">
      <g>
       <use style="fill:#1a1a1a;stroke:#1a1a1a;stroke-width:0.5;" x="65.62925" xlink:href="#mc3912b5813" y="258.114144"/>
      </g>
     </g>
    </g>
    <g id="ytick_23">
     <g id="line2d_29">
      <g>
       <use style="fill:#1a1a1a;stroke:#1a1a1a;stroke-width:0.5;" x="65.62925" xlink:href="#mc3912b5813" y="270.065013"/>
      </g>
     </g>
    </g>
    <g id="ytick_24">
     <g id="line2d_30">
      <g>
       <use style="fill:#1a1a1a;stroke:#1a1a1a;stroke-width:0.5;" x="65.62925" xlink:href="#mc3912b5813" y="279.334827"/>
      </g>
     </g>
    </g>
    <g id="ytick_25">
     <g id="line2d_31">
      <g>
       <use style="fill:#1a1a1a;stroke:#1a1a1a;stroke-width:0.5;" x="65.62925" xlink:href="#mc3912b5813" y="286.908817"/>
      </g>
     </g>
    </g>
    <g id="ytick_26">
     <g id="line2d_32">
      <g>
       <use style="fill:#1a1a1a;stroke:#1a1a1a;stroke-width:0.5;" x="65.62925" xlink:href="#mc3912b5813" y="293.312534"/>
      </g>
     </g>
    </g>
    <g id="ytick_27">
     <g id="line2d_33">
      <g>
       <use style="fill:#1a1a1a;stroke:#1a1a1a;stroke-width:0.5;" x="65.62925" xlink:href="#mc3912b5813" y="298.859686"/>
      </g>
     </g>
    </g>
    <g id="ytick_28">
     <g id="line2d_34">
      <g>
       <use style="fill:#1a1a1a;stroke:#1a1a1a;stroke-width:0.5;" x="65.62925" xlink:href="#mc3912b5813" y="303.752621"/>
      </g>
     </g>
    </g>
    <g id="text_12">
     <!-- Pressure (bar) -->
     <defs>
      <path d="M 7.71875 0 
L 7.71875 71.578125 
L 34.71875 71.578125 
Q 41.84375 71.578125 45.609375 70.90625 
Q 50.875 70.015625 54.4375 67.546875 
Q 58.015625 65.09375 60.1875 60.640625 
Q 62.359375 56.203125 62.359375 50.875 
Q 62.359375 41.75 56.546875 35.421875 
Q 50.734375 29.109375 35.546875 29.109375 
L 17.1875 29.109375 
L 17.1875 0 
z
M 17.1875 37.546875 
L 35.6875 37.546875 
Q 44.875 37.546875 48.734375 40.96875 
Q 52.59375 44.390625 52.59375 50.59375 
Q 52.59375 55.078125 50.3125 58.265625 
Q 48.046875 61.46875 44.34375 62.5 
Q 41.9375 63.140625 35.5 63.140625 
L 17.1875 63.140625 
z
" id="ArialMT-50"/>
      <path d="M 3.078125 15.484375 
L 11.765625 16.84375 
Q 12.5 11.625 15.84375 8.84375 
Q 19.1875 6.0625 25.203125 6.0625 
Q 31.25 6.0625 34.171875 8.515625 
Q 37.109375 10.984375 37.109375 14.3125 
Q 37.109375 17.28125 34.515625 19 
Q 32.71875 20.171875 25.53125 21.96875 
Q 15.875 24.421875 12.140625 26.203125 
Q 8.40625 27.984375 6.46875 31.125 
Q 4.546875 34.28125 4.546875 38.09375 
Q 4.546875 41.546875 6.125 44.5 
Q 7.71875 47.46875 10.453125 49.421875 
Q 12.5 50.921875 16.03125 51.96875 
Q 19.578125 53.03125 23.640625 53.03125 
Q 29.734375 53.03125 34.34375 51.265625 
Q 38.96875 49.515625 41.15625 46.5 
Q 43.359375 43.5 44.1875 38.484375 
L 35.59375 37.3125 
Q 35.015625 41.3125 32.203125 43.546875 
Q 29.390625 45.796875 24.265625 45.796875 
Q 18.21875 45.796875 15.625 43.796875 
Q 13.03125 41.796875 13.03125 39.109375 
Q 13.03125 37.40625 14.109375 36.03125 
Q 15.1875 34.625 17.484375 33.6875 
Q 18.796875 33.203125 25.25 31.453125 
Q 34.578125 28.953125 38.25 27.359375 
Q 41.9375 25.78125 44.03125 22.75 
Q 46.140625 19.734375 46.140625 15.234375 
Q 46.140625 10.84375 43.578125 6.953125 
Q 41.015625 3.078125 36.171875 0.953125 
Q 31.34375 -1.171875 25.25 -1.171875 
Q 15.140625 -1.171875 9.84375 3.03125 
Q 4.546875 7.234375 3.078125 15.484375 
" id="ArialMT-73"/>
      <path d="M 14.703125 0 
L 6.546875 0 
L 6.546875 71.578125 
L 15.328125 71.578125 
L 15.328125 46.046875 
Q 20.90625 53.03125 29.546875 53.03125 
Q 34.328125 53.03125 38.59375 51.09375 
Q 42.875 49.171875 45.625 45.671875 
Q 48.390625 42.1875 49.953125 37.25 
Q 51.515625 32.328125 51.515625 26.703125 
Q 51.515625 13.375 44.921875 6.09375 
Q 38.328125 -1.171875 29.109375 -1.171875 
Q 19.921875 -1.171875 14.703125 6.5 
z
M 14.59375 26.3125 
Q 14.59375 17 17.140625 12.84375 
Q 21.296875 6.0625 28.375 6.0625 
Q 34.125 6.0625 38.328125 11.0625 
Q 42.53125 16.0625 42.53125 25.984375 
Q 42.53125 36.140625 38.5 40.96875 
Q 34.46875 45.796875 28.765625 45.796875 
Q 23 45.796875 18.796875 40.796875 
Q 14.59375 35.796875 14.59375 26.3125 
" id="ArialMT-62"/>
     </defs>
     <g style="fill:#1a1a1a;" transform="translate(15.069547 210.338367)rotate(-90)scale(0.143 -0.143)">
      <use xlink:href="#ArialMT-50"/>
      <use x="66.699219" xlink:href="#ArialMT-72"/>
      <use x="100" xlink:href="#ArialMT-65"/>
      <use x="155.615234" xlink:href="#ArialMT-73"/>
      <use x="205.615234" xlink:href="#ArialMT-73"/>
      <use x="255.615234" xlink:href="#ArialMT-75"/>
      <use x="311.230469" xlink:href="#ArialMT-72"/>
      <use x="344.53125" xlink:href="#ArialMT-65"/>
      <use x="400.146484" xlink:href="#ArialMT-20"/>
      <use x="427.929688" xlink:href="#ArialMT-28"/>
      <use x="461.230469" xlink:href="#ArialMT-62"/>
      <use x="516.845703" xlink:href="#ArialMT-61"/>
      <use x="572.460938" xlink:href="#ArialMT-72"/>
      <use x="605.761719" xlink:href="#ArialMT-29"/>
     </g>
    </g>
   </g>
   <g id="line2d_35">
    <path clip-path="url(#p01bbdf32ef)" d="M 78.803446 -1 
L 84.173381 4.995245 
L 84.854183 11.306204 
L 85.294464 17.617162 
L 85.807787 23.928121 
L 87.651888 30.23908 
L 87.5744 36.550039 
L 89.323278 42.860998 
L 88.451404 49.171957 
L 89.144007 55.482915 
L 89.711094 61.793874 
L 89.872888 68.104833 
L 90.362356 74.415792 
L 90.009528 80.726751 
L 91.660147 87.03771 
L 91.643596 93.348669 
L 112.833694 99.659627 
L 134.963803 105.970586 
L 147.992254 112.281545 
L 154.709503 118.592504 
L 159.587897 124.903463 
L 165.058885 131.214422 
L 170.204344 137.52538 
L 175.28842 143.836339 
L 180.639095 150.147298 
L 185.821085 156.458257 
L 191.397311 162.769216 
L 196.946445 169.080175 
L 202.477947 175.391134 
L 206.636019 181.702092 
L 209.636035 188.013051 
L 212.081155 194.32401 
L 214.728575 200.634969 
L 216.763759 206.945928 
L 219.284835 213.256887 
L 220.993798 219.567845 
L 223.637412 225.878804 
L 225.140193 232.189763 
L 228.444385 238.500722 
L 230.163839 244.811681 
L 235.549766 251.12264 
L 238.535559 257.433599 
L 248.462651 263.744557 
L 253.273208 270.055516 
L 269.36168 276.366475 
L 273.800218 282.677434 
L 296.139514 288.988393 
L 298.816144 295.299352 
L 329.196595 301.61031 
L 336.34888 307.921269 
" style="fill:none;stroke:#4c72b0;stroke-linecap:round;stroke-width:1.2;"/>
   </g>
   <g id="patch_3">
    <path d="M 65.62925 308.1295 
L 65.62925 21.168 
" style="fill:none;stroke:#1a1a1a;stroke-linecap:square;stroke-linejoin:miter;stroke-width:1.25;"/>
   </g>
   <g id="patch_4">
    <path d="M 349.240291 308.1295 
L 349.240291 21.168 
" style="fill:none;stroke:#1a1a1a;stroke-linecap:square;stroke-linejoin:miter;stroke-width:1.25;"/>
   </g>
   <g id="patch_5">
    <path d="M 65.62925 308.1295 
L 349.240291 308.1295 
" style="fill:none;stroke:#1a1a1a;stroke-linecap:square;stroke-linejoin:miter;stroke-width:1.25;"/>
   </g>
   <g id="patch_6">
    <path d="M 65.62925 21.168 
L 349.240291 21.168 
" style="fill:none;stroke:#1a1a1a;stroke-linecap:square;stroke-linejoin:miter;stroke-width:1.25;"/>
   </g>
  </g>
  <g id="axes_2">
   <g id="patch_7">
    <path d="M 419.189541 308.1295 
L 702.800582 308.1295 
L 702.800582 21.168 
L 419.189541 21.168 
z
" style="fill:#ffffff;"/>
   </g>
   <g id="matplotlib.axis_3">
    <g id="xtick_7">
     <g id="line2d_36">
      <g>
       <use style="fill:#1a1a1a;stroke:#1a1a1a;" x="462.002734" xlink:href="#m8907acc233" y="308.1295"/>
      </g>
     </g>
     <g id="text_13">
      <!-- −5000 -->
      <defs>
       <path d="M 52.828125 31.203125 
L 5.5625 31.203125 
L 5.5625 39.40625 
L 52.828125 39.40625 
z
" id="ArialMT-2212"/>
       <path d="M 4.15625 18.75 
L 13.375 19.53125 
Q 14.40625 12.796875 18.140625 9.390625 
Q 21.875 6 27.15625 6 
Q 33.5 6 37.890625 10.78125 
Q 42.28125 15.578125 42.28125 23.484375 
Q 42.28125 31 38.0625 35.34375 
Q 33.84375 39.703125 27 39.703125 
Q 22.75 39.703125 19.328125 37.765625 
Q 15.921875 35.84375 13.96875 32.765625 
L 5.71875 33.84375 
L 12.640625 70.609375 
L 48.25 70.609375 
L 48.25 62.203125 
L 19.671875 62.203125 
L 15.828125 42.96875 
Q 22.265625 47.46875 29.34375 47.46875 
Q 38.71875 47.46875 45.15625 40.96875 
Q 51.609375 34.46875 51.609375 24.265625 
Q 51.609375 14.546875 45.953125 7.46875 
Q 39.0625 -1.21875 27.15625 -1.21875 
Q 17.390625 -1.21875 11.203125 4.25 
Q 5.03125 9.71875 4.15625 18.75 
" id="ArialMT-35"/>
      </defs>
      <g style="fill:#1a1a1a;" transform="translate(443.74789 330.434656)scale(0.13 -0.13)">
       <use xlink:href="#ArialMT-2212"/>
       <use x="58.398438" xlink:href="#ArialMT-35"/>
       <use x="114.013672" xlink:href="#ArialMT-30"/>
       <use x="169.628906" xlink:href="#ArialMT-30"/>
       <use x="225.244141" xlink:href="#ArialMT-30"/>
      </g>
     </g>
    </g>
    <g id="xtick_8">
     <g id="line2d_37">
      <g>
       <use style="fill:#1a1a1a;stroke:#1a1a1a;" x="511.237669" xlink:href="#m8907acc233" y="308.1295"/>
      </g>
     </g>
     <g id="text_14">
      <!-- −2500 -->
      <g style="fill:#1a1a1a;" transform="translate(492.982825 330.434656)scale(0.13 -0.13)">
       <use xlink:href="#ArialMT-2212"/>
       <use x="58.398438" xlink:href="#ArialMT-32"/>
       <use x="114.013672" xlink:href="#ArialMT-35"/>
       <use x="169.628906" xlink:href="#ArialMT-30"/>
       <use x="225.244141" xlink:href="#ArialMT-30"/>
      </g>
     </g>
    </g>
    <g id="xtick_9">
     <g id="line2d_38">
      <g>
       <use style="fill:#1a1a1a;stroke:#1a1a1a;" x="560.472604" xlink:href="#m8907acc233" y="308.1295"/>
      </g>
     </g>
     <g id="text_15">
      <!-- 0 -->
      <g style="fill:#1a1a1a;" transform="translate(556.857994 330.434656)scale(0.13 -0.13)">
       <use xlink:href="#ArialMT-30"/>
      </g>
     </g>
    </g>
    <g id="xtick_10">
     <g id="line2d_39">
      <g>
       <use style="fill:#1a1a1a;stroke:#1a1a1a;" x="609.707539" xlink:href="#m8907acc233" y="308.1295"/>
      </g>
     </g>
     <g id="text_16">
      <!-- 2500 -->
      <g style="fill:#1a1a1a;" transform="translate(595.249101 330.434656)scale(0.13 -0.13)">
       <use xlink:href="#ArialMT-32"/>
       <use x="55.615234" xlink:href="#ArialMT-35"/>
       <use x="111.230469" xlink:href="#ArialMT-30"/>
       <use x="166.845703" xlink:href="#ArialMT-30"/>
      </g>
     </g>
    </g>
    <g id="xtick_11">
     <g id="line2d_40">
      <g>
       <use style="fill:#1a1a1a;stroke:#1a1a1a;" x="658.942474" xlink:href="#m8907acc233" y="308.1295"/>
      </g>
     </g>
     <g id="text_17">
      <!-- 5000 -->
      <g style="fill:#1a1a1a;" transform="translate(644.484036 330.434656)scale(0.13 -0.13)">
       <use xlink:href="#ArialMT-35"/>
       <use x="55.615234" xlink:href="#ArialMT-30"/>
       <use x="111.230469" xlink:href="#ArialMT-30"/>
       <use x="166.845703" xlink:href="#ArialMT-30"/>
      </g>
     </g>
    </g>
    <g id="text_18">
     <!-- Shortwave Heating Rate -->
     <defs>
      <path d="M 4.5 23 
L 13.421875 23.78125 
Q 14.0625 18.40625 16.375 14.96875 
Q 18.703125 11.53125 23.578125 9.40625 
Q 28.46875 7.28125 34.578125 7.28125 
Q 39.984375 7.28125 44.140625 8.890625 
Q 48.296875 10.5 50.3125 13.296875 
Q 52.34375 16.109375 52.34375 19.4375 
Q 52.34375 22.796875 50.390625 25.3125 
Q 48.4375 27.828125 43.953125 29.546875 
Q 41.0625 30.671875 31.203125 33.03125 
Q 21.34375 35.40625 17.390625 37.5 
Q 12.25 40.1875 9.734375 44.15625 
Q 7.234375 48.140625 7.234375 53.078125 
Q 7.234375 58.5 10.296875 63.203125 
Q 13.375 67.921875 19.28125 70.359375 
Q 25.203125 72.796875 32.421875 72.796875 
Q 40.375 72.796875 46.453125 70.234375 
Q 52.546875 67.671875 55.8125 62.6875 
Q 59.078125 57.71875 59.328125 51.421875 
L 50.25 50.734375 
Q 49.515625 57.515625 45.28125 60.984375 
Q 41.0625 64.453125 32.8125 64.453125 
Q 24.21875 64.453125 20.28125 61.296875 
Q 16.359375 58.15625 16.359375 53.71875 
Q 16.359375 49.859375 19.140625 47.359375 
Q 21.875 44.875 33.421875 42.265625 
Q 44.96875 39.65625 49.265625 37.703125 
Q 55.515625 34.8125 58.484375 30.390625 
Q 61.46875 25.984375 61.46875 20.21875 
Q 61.46875 14.5 58.203125 9.4375 
Q 54.9375 4.390625 48.796875 1.578125 
Q 42.671875 -1.21875 35.015625 -1.21875 
Q 25.296875 -1.21875 18.71875 1.609375 
Q 12.15625 4.4375 8.421875 10.125 
Q 4.6875 15.828125 4.5 23 
" id="ArialMT-53"/>
      <path d="M 6.59375 0 
L 6.59375 71.578125 
L 15.375 71.578125 
L 15.375 45.90625 
Q 21.53125 53.03125 30.90625 53.03125 
Q 36.671875 53.03125 40.921875 50.75 
Q 45.171875 48.484375 47 44.484375 
Q 48.828125 40.484375 48.828125 32.859375 
L 48.828125 0 
L 40.046875 0 
L 40.046875 32.859375 
Q 40.046875 39.453125 37.1875 42.453125 
Q 34.328125 45.453125 29.109375 45.453125 
Q 25.203125 45.453125 21.75 43.421875 
Q 18.3125 41.40625 16.84375 37.9375 
Q 15.375 34.46875 15.375 28.375 
L 15.375 0 
z
" id="ArialMT-68"/>
      <path d="M 3.328125 25.921875 
Q 3.328125 40.328125 11.328125 47.265625 
Q 18.015625 53.03125 27.640625 53.03125 
Q 38.328125 53.03125 45.109375 46.015625 
Q 51.90625 39.015625 51.90625 26.65625 
Q 51.90625 16.65625 48.90625 10.90625 
Q 45.90625 5.171875 40.15625 2 
Q 34.421875 -1.171875 27.640625 -1.171875 
Q 16.75 -1.171875 10.03125 5.8125 
Q 3.328125 12.796875 3.328125 25.921875 
M 12.359375 25.921875 
Q 12.359375 15.96875 16.703125 11.015625 
Q 21.046875 6.0625 27.640625 6.0625 
Q 34.1875 6.0625 38.53125 11.03125 
Q 42.875 16.015625 42.875 26.21875 
Q 42.875 35.84375 38.5 40.796875 
Q 34.125 45.75 27.640625 45.75 
Q 21.046875 45.75 16.703125 40.8125 
Q 12.359375 35.890625 12.359375 25.921875 
" id="ArialMT-6f"/>
      <path d="M 16.15625 0 
L 0.296875 51.859375 
L 9.375 51.859375 
L 17.625 21.921875 
L 20.703125 10.796875 
Q 20.90625 11.625 23.390625 21.484375 
L 31.640625 51.859375 
L 40.671875 51.859375 
L 48.4375 21.78125 
L 51.03125 11.859375 
L 54 21.875 
L 62.890625 51.859375 
L 71.4375 51.859375 
L 55.21875 0 
L 46.09375 0 
L 37.84375 31.0625 
L 35.84375 39.890625 
L 25.34375 0 
z
" id="ArialMT-77"/>
      <path d="M 21 0 
L 1.265625 51.859375 
L 10.546875 51.859375 
L 21.6875 20.796875 
Q 23.484375 15.765625 25 10.359375 
Q 26.171875 14.453125 28.265625 20.21875 
L 39.796875 51.859375 
L 48.828125 51.859375 
L 29.203125 0 
z
" id="ArialMT-76"/>
      <path d="M 8.015625 0 
L 8.015625 71.578125 
L 17.484375 71.578125 
L 17.484375 42.1875 
L 54.6875 42.1875 
L 54.6875 71.578125 
L 64.15625 71.578125 
L 64.15625 0 
L 54.6875 0 
L 54.6875 33.734375 
L 17.484375 33.734375 
L 17.484375 0 
z
" id="ArialMT-48"/>
      <path d="M 6.640625 61.46875 
L 6.640625 71.578125 
L 15.4375 71.578125 
L 15.4375 61.46875 
z
M 6.640625 0 
L 6.640625 51.859375 
L 15.4375 51.859375 
L 15.4375 0 
z
" id="ArialMT-69"/>
      <path d="M 6.59375 0 
L 6.59375 51.859375 
L 14.5 51.859375 
L 14.5 44.484375 
Q 20.21875 53.03125 31 53.03125 
Q 35.6875 53.03125 39.625 51.34375 
Q 43.5625 49.65625 45.515625 46.921875 
Q 47.46875 44.1875 48.25 40.4375 
Q 48.734375 37.984375 48.734375 31.890625 
L 48.734375 0 
L 39.9375 0 
L 39.9375 31.546875 
Q 39.9375 36.921875 38.90625 39.578125 
Q 37.890625 42.234375 35.28125 43.8125 
Q 32.671875 45.40625 29.15625 45.40625 
Q 23.53125 45.40625 19.453125 41.84375 
Q 15.375 38.28125 15.375 28.328125 
L 15.375 0 
z
" id="ArialMT-6e"/>
      <path d="M 4.984375 -4.296875 
L 13.53125 -5.5625 
Q 14.0625 -9.515625 16.5 -11.328125 
Q 19.78125 -13.765625 25.4375 -13.765625 
Q 31.546875 -13.765625 34.859375 -11.328125 
Q 38.1875 -8.890625 39.359375 -4.5 
Q 40.046875 -1.8125 39.984375 6.78125 
Q 34.234375 0 25.640625 0 
Q 14.9375 0 9.078125 7.71875 
Q 3.21875 15.4375 3.21875 26.21875 
Q 3.21875 33.640625 5.90625 39.90625 
Q 8.59375 46.1875 13.6875 49.609375 
Q 18.796875 53.03125 25.6875 53.03125 
Q 34.859375 53.03125 40.828125 45.609375 
L 40.828125 51.859375 
L 48.921875 51.859375 
L 48.921875 7.03125 
Q 48.921875 -5.078125 46.453125 -10.125 
Q 44 -15.1875 38.640625 -18.109375 
Q 33.296875 -21.046875 25.484375 -21.046875 
Q 16.21875 -21.046875 10.5 -16.875 
Q 4.78125 -12.703125 4.984375 -4.296875 
M 12.25 26.859375 
Q 12.25 16.65625 16.296875 11.96875 
Q 20.359375 7.28125 26.46875 7.28125 
Q 32.515625 7.28125 36.609375 11.9375 
Q 40.71875 16.609375 40.71875 26.5625 
Q 40.71875 36.078125 36.5 40.90625 
Q 32.28125 45.75 26.3125 45.75 
Q 20.453125 45.75 16.34375 40.984375 
Q 12.25 36.234375 12.25 26.859375 
" id="ArialMT-67"/>
      <path d="M 7.859375 0 
L 7.859375 71.578125 
L 39.59375 71.578125 
Q 49.171875 71.578125 54.140625 69.640625 
Q 59.125 67.71875 62.109375 62.828125 
Q 65.09375 57.953125 65.09375 52.046875 
Q 65.09375 44.4375 60.15625 39.203125 
Q 55.21875 33.984375 44.921875 32.5625 
Q 48.6875 30.765625 50.640625 29 
Q 54.78125 25.203125 58.5 19.484375 
L 70.953125 0 
L 59.03125 0 
L 49.5625 14.890625 
Q 45.40625 21.34375 42.71875 24.75 
Q 40.046875 28.171875 37.921875 29.53125 
Q 35.796875 30.90625 33.59375 31.453125 
Q 31.984375 31.78125 28.328125 31.78125 
L 17.328125 31.78125 
L 17.328125 0 
z
M 17.328125 39.984375 
L 37.703125 39.984375 
Q 44.1875 39.984375 47.84375 41.328125 
Q 51.515625 42.671875 53.421875 45.625 
Q 55.328125 48.578125 55.328125 52.046875 
Q 55.328125 57.125 51.640625 60.390625 
Q 47.953125 63.671875 39.984375 63.671875 
L 17.328125 63.671875 
z
" id="ArialMT-52"/>
     </defs>
     <g style="fill:#1a1a1a;" transform="translate(483.497999 347.428359)scale(0.143 -0.143)">
      <use xlink:href="#ArialMT-53"/>
      <use x="66.699219" xlink:href="#ArialMT-68"/>
      <use x="122.314453" xlink:href="#ArialMT-6f"/>
      <use x="177.929688" xlink:href="#ArialMT-72"/>
      <use x="211.230469" xlink:href="#ArialMT-74"/>
      <use x="239.013672" xlink:href="#ArialMT-77"/>
      <use x="311.230469" xlink:href="#ArialMT-61"/>
      <use x="366.845703" xlink:href="#ArialMT-76"/>
      <use x="416.845703" xlink:href="#ArialMT-65"/>
      <use x="472.460938" xlink:href="#ArialMT-20"/>
      <use x="500.244141" xlink:href="#ArialMT-48"/>
      <use x="572.460938" xlink:href="#ArialMT-65"/>
      <use x="628.076172" xlink:href="#ArialMT-61"/>
      <use x="683.691406" xlink:href="#ArialMT-74"/>
      <use x="711.474609" xlink:href="#ArialMT-69"/>
      <use x="733.691406" xlink:href="#ArialMT-6e"/>
      <use x="789.306641" xlink:href="#ArialMT-67"/>
      <use x="844.921875" xlink:href="#ArialMT-20"/>
      <use x="872.705078" xlink:href="#ArialMT-52"/>
      <use x="944.921875" xlink:href="#ArialMT-61"/>
      <use x="1000.537109" xlink:href="#ArialMT-74"/>
      <use x="1028.320312" xlink:href="#ArialMT-65"/>
     </g>
    </g>
   </g>
   <g id="matplotlib.axis_4">
    <g id="ytick_29">
     <g id="line2d_41">
      <g>
       <use style="fill:#1a1a1a;stroke:#1a1a1a;" x="419.189541" xlink:href="#m17bd572ff6" y="21.168"/>
      </g>
     </g>
     <g id="text_19">
      <!-- ${10^{-2}}$ -->
      <g style="fill:#1a1a1a;" transform="translate(375.639541 25.921125)scale(0.13 -0.13)">
       <use transform="translate(0 0.765625)" xlink:href="#DejaVuSans-31"/>
       <use transform="translate(63.623047 0.765625)" xlink:href="#DejaVuSans-30"/>
       <use transform="translate(128.203125 39.046875)scale(0.7)" xlink:href="#DejaVuSans-2212"/>
       <use transform="translate(186.855469 39.046875)scale(0.7)" xlink:href="#DejaVuSans-32"/>
      </g>
     </g>
    </g>
    <g id="ytick_30">
     <g id="line2d_42">
      <g>
       <use style="fill:#1a1a1a;stroke:#1a1a1a;" x="419.189541" xlink:href="#m17bd572ff6" y="116.821833"/>
      </g>
     </g>
     <g id="text_20">
      <!-- ${10^{-1}}$ -->
      <g style="fill:#1a1a1a;" transform="translate(375.639541 121.509958)scale(0.13 -0.13)">
       <use transform="translate(0 0.684375)" xlink:href="#DejaVuSans-31"/>
       <use transform="translate(63.623047 0.684375)" xlink:href="#DejaVuSans-30"/>
       <use transform="translate(128.203125 38.965625)scale(0.7)" xlink:href="#DejaVuSans-2212"/>
       <use transform="translate(186.855469 38.965625)scale(0.7)" xlink:href="#DejaVuSans-31"/>
      </g>
     </g>
    </g>
    <g id="ytick_31">
     <g id="line2d_43">
      <g>
       <use style="fill:#1a1a1a;stroke:#1a1a1a;" x="419.189541" xlink:href="#m17bd572ff6" y="212.475667"/>
      </g>
     </g>
     <g id="text_21">
      <!-- ${10^{0}}$ -->
      <g style="fill:#1a1a1a;" transform="translate(383.309541 217.228792)scale(0.13 -0.13)">
       <use transform="translate(0 0.765625)" xlink:href="#DejaVuSans-31"/>
       <use transform="translate(63.623047 0.765625)" xlink:href="#DejaVuSans-30"/>
       <use transform="translate(128.203125 39.046875)scale(0.7)" xlink:href="#DejaVuSans-30"/>
      </g>
     </g>
    </g>
    <g id="ytick_32">
     <g id="line2d_44">
      <g>
       <use style="fill:#1a1a1a;stroke:#1a1a1a;" x="419.189541" xlink:href="#m17bd572ff6" y="308.1295"/>
      </g>
     </g>
     <g id="text_22">
      <!-- ${10^{1}}$ -->
      <g style="fill:#1a1a1a;" transform="translate(383.309541 312.817625)scale(0.13 -0.13)">
       <use transform="translate(0 0.684375)" xlink:href="#DejaVuSans-31"/>
       <use transform="translate(63.623047 0.684375)" xlink:href="#DejaVuSans-30"/>
       <use transform="translate(128.203125 38.965625)scale(0.7)" xlink:href="#DejaVuSans-31"/>
      </g>
     </g>
    </g>
    <g id="ytick_33">
     <g id="line2d_45">
      <g>
       <use style="fill:#1a1a1a;stroke:#1a1a1a;stroke-width:0.5;" x="419.189541" xlink:href="#mc3912b5813" y="49.962673"/>
      </g>
     </g>
    </g>
    <g id="ytick_34">
     <g id="line2d_46">
      <g>
       <use style="fill:#1a1a1a;stroke:#1a1a1a;stroke-width:0.5;" x="419.189541" xlink:href="#mc3912b5813" y="66.806477"/>
      </g>
     </g>
    </g>
    <g id="ytick_35">
     <g id="line2d_47">
      <g>
       <use style="fill:#1a1a1a;stroke:#1a1a1a;stroke-width:0.5;" x="419.189541" xlink:href="#mc3912b5813" y="78.757346"/>
      </g>
     </g>
    </g>
    <g id="ytick_36">
     <g id="line2d_48">
      <g>
       <use style="fill:#1a1a1a;stroke:#1a1a1a;stroke-width:0.5;" x="419.189541" xlink:href="#mc3912b5813" y="88.02716"/>
      </g>
     </g>
    </g>
    <g id="ytick_37">
     <g id="line2d_49">
      <g>
       <use style="fill:#1a1a1a;stroke:#1a1a1a;stroke-width:0.5;" x="419.189541" xlink:href="#mc3912b5813" y="95.60115"/>
      </g>
     </g>
    </g>
    <g id="ytick_38">
     <g id="line2d_50">
      <g>
       <use style="fill:#1a1a1a;stroke:#1a1a1a;stroke-width:0.5;" x="419.189541" xlink:href="#mc3912b5813" y="102.004867"/>
      </g>
     </g>
    </g>
    <g id="ytick_39">
     <g id="line2d_51">
      <g>
       <use style="fill:#1a1a1a;stroke:#1a1a1a;stroke-width:0.5;" x="419.189541" xlink:href="#mc3912b5813" y="107.552019"/>
      </g>
     </g>
    </g>
    <g id="ytick_40">
     <g id="line2d_52">
      <g>
       <use style="fill:#1a1a1a;stroke:#1a1a1a;stroke-width:0.5;" x="419.189541" xlink:href="#mc3912b5813" y="112.444954"/>
      </g>
     </g>
    </g>
    <g id="ytick_41">
     <g id="line2d_53">
      <g>
       <use style="fill:#1a1a1a;stroke:#1a1a1a;stroke-width:0.5;" x="419.189541" xlink:href="#mc3912b5813" y="145.616506"/>
      </g>
     </g>
    </g>
    <g id="ytick_42">
     <g id="line2d_54">
      <g>
       <use style="fill:#1a1a1a;stroke:#1a1a1a;stroke-width:0.5;" x="419.189541" xlink:href="#mc3912b5813" y="162.46031"/>
      </g>
     </g>
    </g>
    <g id="ytick_43">
     <g id="line2d_55">
      <g>
       <use style="fill:#1a1a1a;stroke:#1a1a1a;stroke-width:0.5;" x="419.189541" xlink:href="#mc3912b5813" y="174.411179"/>
      </g>
     </g>
    </g>
    <g id="ytick_44">
     <g id="line2d_56">
      <g>
       <use style="fill:#1a1a1a;stroke:#1a1a1a;stroke-width:0.5;" x="419.189541" xlink:href="#mc3912b5813" y="183.680994"/>
      </g>
     </g>
    </g>
    <g id="ytick_45">
     <g id="line2d_57">
      <g>
       <use style="fill:#1a1a1a;stroke:#1a1a1a;stroke-width:0.5;" x="419.189541" xlink:href="#mc3912b5813" y="191.254983"/>
      </g>
     </g>
    </g>
    <g id="ytick_46">
     <g id="line2d_58">
      <g>
       <use style="fill:#1a1a1a;stroke:#1a1a1a;stroke-width:0.5;" x="419.189541" xlink:href="#mc3912b5813" y="197.6587"/>
      </g>
     </g>
    </g>
    <g id="ytick_47">
     <g id="line2d_59">
      <g>
       <use style="fill:#1a1a1a;stroke:#1a1a1a;stroke-width:0.5;" x="419.189541" xlink:href="#mc3912b5813" y="203.205852"/>
      </g>
     </g>
    </g>
    <g id="ytick_48">
     <g id="line2d_60">
      <g>
       <use style="fill:#1a1a1a;stroke:#1a1a1a;stroke-width:0.5;" x="419.189541" xlink:href="#mc3912b5813" y="208.098787"/>
      </g>
     </g>
    </g>
    <g id="ytick_49">
     <g id="line2d_61">
      <g>
       <use style="fill:#1a1a1a;stroke:#1a1a1a;stroke-width:0.5;" x="419.189541" xlink:href="#mc3912b5813" y="241.27034"/>
      </g>
     </g>
    </g>
    <g id="ytick_50">
     <g id="line2d_62">
      <g>
       <use style="fill:#1a1a1a;stroke:#1a1a1a;stroke-width:0.5;" x="419.189541" xlink:href="#mc3912b5813" y="258.114144"/>
      </g>
     </g>
    </g>
    <g id="ytick_51">
     <g id="line2d_63">
      <g>
       <use style="fill:#1a1a1a;stroke:#1a1a1a;stroke-width:0.5;" x="419.189541" xlink:href="#mc3912b5813" y="270.065013"/>
      </g>
     </g>
    </g>
    <g id="ytick_52">
     <g id="line2d_64">
      <g>
       <use style="fill:#1a1a1a;stroke:#1a1a1a;stroke-width:0.5;" x="419.189541" xlink:href="#mc3912b5813" y="279.334827"/>
      </g>
     </g>
    </g>
    <g id="ytick_53">
     <g id="line2d_65">
      <g>
       <use style="fill:#1a1a1a;stroke:#1a1a1a;stroke-width:0.5;" x="419.189541" xlink:href="#mc3912b5813" y="286.908817"/>
      </g>
     </g>
    </g>
    <g id="ytick_54">
     <g id="line2d_66">
      <g>
       <use style="fill:#1a1a1a;stroke:#1a1a1a;stroke-width:0.5;" x="419.189541" xlink:href="#mc3912b5813" y="293.312534"/>
      </g>
     </g>
    </g>
    <g id="ytick_55">
     <g id="line2d_67">
      <g>
       <use style="fill:#1a1a1a;stroke:#1a1a1a;stroke-width:0.5;" x="419.189541" xlink:href="#mc3912b5813" y="298.859686"/>
      </g>
     </g>
    </g>
    <g id="ytick_56">
     <g id="line2d_68">
      <g>
       <use style="fill:#1a1a1a;stroke:#1a1a1a;stroke-width:0.5;" x="419.189541" xlink:href="#mc3912b5813" y="303.752621"/>
      </g>
     </g>
    </g>
    <g id="text_23">
     <!-- Pressure (bar) -->
     <g style="fill:#1a1a1a;" transform="translate(368.629838 210.338367)rotate(-90)scale(0.143 -0.143)">
      <use xlink:href="#ArialMT-50"/>
      <use x="66.699219" xlink:href="#ArialMT-72"/>
      <use x="100" xlink:href="#ArialMT-65"/>
      <use x="155.615234" xlink:href="#ArialMT-73"/>
      <use x="205.615234" xlink:href="#ArialMT-73"/>
      <use x="255.615234" xlink:href="#ArialMT-75"/>
      <use x="311.230469" xlink:href="#ArialMT-72"/>
      <use x="344.53125" xlink:href="#ArialMT-65"/>
      <use x="400.146484" xlink:href="#ArialMT-20"/>
      <use x="427.929688" xlink:href="#ArialMT-28"/>
      <use x="461.230469" xlink:href="#ArialMT-62"/>
      <use x="516.845703" xlink:href="#ArialMT-61"/>
      <use x="572.460938" xlink:href="#ArialMT-72"/>
      <use x="605.761719" xlink:href="#ArialMT-29"/>
     </g>
    </g>
   </g>
   <g id="line2d_69">
    <path clip-path="url(#p9d1a9fdd77)" d="M 564.838074 -1 
L 565.131544 4.995245 
L 565.653575 11.306204 
L 565.973702 17.617162 
L 566.408417 23.928121 
L 568.296158 30.23908 
L 568.524643 36.550039 
L 568.406353 42.860998 
L 569.48813 49.171957 
L 570.591881 55.482915 
L 571.176958 61.793874 
L 572.515683 68.104833 
L 574.06587 74.415792 
L 576.036052 80.726751 
L 574.86574 87.03771 
L 580.788688 93.348669 
L 640.512996 99.659627 
L 679.746138 105.970586 
L 689.909171 112.281545 
L 686.478121 118.592504 
L 678.642756 124.903463 
L 670.379922 131.214422 
L 660.905428 137.52538 
L 650.988647 143.836339 
L 641.11411 150.147298 
L 631.307717 156.458257 
L 621.972307 162.769216 
L 613.067261 169.080175 
L 604.758356 175.391134 
L 597.137213 181.702092 
L 590.539309 188.013051 
L 585.120639 194.32401 
L 580.828328 200.634969 
L 577.479627 206.945928 
L 574.90629 213.256887 
L 572.925043 219.567845 
L 571.385558 225.878804 
L 570.172975 232.189763 
L 569.192498 238.500722 
L 568.399068 244.811681 
L 567.679378 251.12264 
L 567.023916 257.433599 
L 566.250832 263.744557 
L 565.5095 270.055516 
L 564.568867 276.366475 
L 563.907271 282.677434 
L 563.077 288.988393 
L 562.702351 295.299352 
L 562.052704 301.61031 
L 561.891793 307.921269 
" style="fill:none;stroke:#4c72b0;stroke-linecap:round;stroke-width:1.2;"/>
   </g>
   <g id="line2d_70">
    <path clip-path="url(#p9d1a9fdd77)" d="M 556.490616 -1 
L 555.820938 4.995245 
L 555.295374 11.306204 
L 554.975928 17.617162 
L 554.547334 23.928121 
L 552.531229 30.23908 
L 551.906898 36.550039 
L 555.153095 42.860998 
L 550.215589 49.171957 
L 550.198927 55.482915 
L 549.845989 61.793874 
L 548.38292 68.104833 
L 547.044111 74.415792 
L 540.4918 80.726751 
L 551.517136 87.03771 
L 538.964286 93.348669 
L 471.955566 99.659627 
L 450.506453 105.970586 
L 432.080952 112.281545 
L 434.756034 118.592504 
L 443.15988 124.903463 
L 451.126775 131.214422 
L 460.855848 137.52538 
L 470.702268 143.836339 
L 480.666428 150.147298 
L 490.601937 156.458257 
L 499.848027 162.769216 
L 508.97479 169.080175 
L 517.288791 175.391134 
L 524.380713 181.702092 
L 531.075624 188.013051 
L 536.426483 194.32401 
L 540.8524 200.634969 
L 544.102097 206.945928 
L 546.849374 213.256887 
L 548.673534 219.567845 
L 550.429667 225.878804 
L 551.380216 232.189763 
L 552.627803 238.500722 
L 552.992853 244.811681 
L 554.059875 251.12264 
L 554.06735 257.433599 
L 555.311158 263.744557 
L 555.193793 270.055516 
L 556.675327 276.366475 
L 556.46326 282.677434 
L 557.640409 288.988393 
L 557.352063 295.299352 
L 558.608647 301.61031 
L 548.788608 307.921269 
" style="fill:none;stroke:#55a868;stroke-linecap:round;stroke-width:1.2;"/>
   </g>
   <g id="patch_8">
    <path d="M 419.189541 308.1295 
L 419.189541 21.168 
" style="fill:none;stroke:#1a1a1a;stroke-linecap:square;stroke-linejoin:miter;stroke-width:1.25;"/>
   </g>
   <g id="patch_9">
    <path d="M 702.800582 308.1295 
L 702.800582 21.168 
" style="fill:none;stroke:#1a1a1a;stroke-linecap:square;stroke-linejoin:miter;stroke-width:1.25;"/>
   </g>
   <g id="patch_10">
    <path d="M 419.189541 308.1295 
L 702.800582 308.1295 
" style="fill:none;stroke:#1a1a1a;stroke-linecap:square;stroke-linejoin:miter;stroke-width:1.25;"/>
   </g>
   <g id="patch_11">
    <path d="M 419.189541 21.168 
L 702.800582 21.168 
" style="fill:none;stroke:#1a1a1a;stroke-linecap:square;stroke-linejoin:miter;stroke-width:1.25;"/>
   </g>
  </g>
  <g id="axes_3">
   <g id="patch_12">
    <path d="M 772.749832 308.1295 
L 1056.360873 308.1295 
L 1056.360873 21.168 
L 772.749832 21.168 
z
" style="fill:#ffffff;"/>
   </g>
   <g id="matplotlib.axis_5">
    <g id="xtick_12">
     <g id="line2d_71">
      <g>
       <use style="fill:#1a1a1a;stroke:#1a1a1a;" x="784.460489" xlink:href="#m8907acc233" y="308.1295"/>
      </g>
     </g>
     <g id="text_24">
      <!-- 0 -->
      <g style="fill:#1a1a1a;" transform="translate(780.845879 330.434656)scale(0.13 -0.13)">
       <use xlink:href="#ArialMT-30"/>
      </g>
     </g>
    </g>
    <g id="xtick_13">
     <g id="line2d_72">
      <g>
       <use style="fill:#1a1a1a;stroke:#1a1a1a;" x="828.738762" xlink:href="#m8907acc233" y="308.1295"/>
      </g>
     </g>
     <g id="text_25">
      <!-- 5000 -->
      <g style="fill:#1a1a1a;" transform="translate(814.280324 330.434656)scale(0.13 -0.13)">
       <use xlink:href="#ArialMT-35"/>
       <use x="55.615234" xlink:href="#ArialMT-30"/>
       <use x="111.230469" xlink:href="#ArialMT-30"/>
       <use x="166.845703" xlink:href="#ArialMT-30"/>
      </g>
     </g>
    </g>
    <g id="xtick_14">
     <g id="line2d_73">
      <g>
       <use style="fill:#1a1a1a;stroke:#1a1a1a;" x="873.017034" xlink:href="#m8907acc233" y="308.1295"/>
      </g>
     </g>
     <g id="text_26">
      <!-- 10000 -->
      <g style="fill:#1a1a1a;" transform="translate(854.943987 330.434656)scale(0.13 -0.13)">
       <use xlink:href="#ArialMT-31"/>
       <use x="55.615234" xlink:href="#ArialMT-30"/>
       <use x="111.230469" xlink:href="#ArialMT-30"/>
       <use x="166.845703" xlink:href="#ArialMT-30"/>
       <use x="222.460938" xlink:href="#ArialMT-30"/>
      </g>
     </g>
    </g>
    <g id="xtick_15">
     <g id="line2d_74">
      <g>
       <use style="fill:#1a1a1a;stroke:#1a1a1a;" x="917.295307" xlink:href="#m8907acc233" y="308.1295"/>
      </g>
     </g>
     <g id="text_27">
      <!-- 15000 -->
      <g style="fill:#1a1a1a;" transform="translate(899.22226 330.434656)scale(0.13 -0.13)">
       <use xlink:href="#ArialMT-31"/>
       <use x="55.615234" xlink:href="#ArialMT-35"/>
       <use x="111.230469" xlink:href="#ArialMT-30"/>
       <use x="166.845703" xlink:href="#ArialMT-30"/>
       <use x="222.460938" xlink:href="#ArialMT-30"/>
      </g>
     </g>
    </g>
    <g id="xtick_16">
     <g id="line2d_75">
      <g>
       <use style="fill:#1a1a1a;stroke:#1a1a1a;" x="961.57358" xlink:href="#m8907acc233" y="308.1295"/>
      </g>
     </g>
     <g id="text_28">
      <!-- 20000 -->
      <g style="fill:#1a1a1a;" transform="translate(943.500533 330.434656)scale(0.13 -0.13)">
       <use xlink:href="#ArialMT-32"/>
       <use x="55.615234" xlink:href="#ArialMT-30"/>
       <use x="111.230469" xlink:href="#ArialMT-30"/>
       <use x="166.845703" xlink:href="#ArialMT-30"/>
       <use x="222.460938" xlink:href="#ArialMT-30"/>
      </g>
     </g>
    </g>
    <g id="xtick_17">
     <g id="line2d_76">
      <g>
       <use style="fill:#1a1a1a;stroke:#1a1a1a;" x="1005.851852" xlink:href="#m8907acc233" y="308.1295"/>
      </g>
     </g>
     <g id="text_29">
      <!-- 25000 -->
      <g style="fill:#1a1a1a;" transform="translate(987.778805 330.434656)scale(0.13 -0.13)">
       <use xlink:href="#ArialMT-32"/>
       <use x="55.615234" xlink:href="#ArialMT-35"/>
       <use x="111.230469" xlink:href="#ArialMT-30"/>
       <use x="166.845703" xlink:href="#ArialMT-30"/>
       <use x="222.460938" xlink:href="#ArialMT-30"/>
      </g>
     </g>
    </g>
    <g id="xtick_18">
     <g id="line2d_77">
      <g>
       <use style="fill:#1a1a1a;stroke:#1a1a1a;" x="1050.130125" xlink:href="#m8907acc233" y="308.1295"/>
      </g>
     </g>
     <g id="text_30">
      <!-- 30000 -->
      <defs>
       <path d="M 4.203125 18.890625 
L 12.984375 20.0625 
Q 14.5 12.59375 18.140625 9.296875 
Q 21.78125 6 27 6 
Q 33.203125 6 37.46875 10.296875 
Q 41.75 14.59375 41.75 20.953125 
Q 41.75 27 37.796875 30.921875 
Q 33.84375 34.859375 27.734375 34.859375 
Q 25.25 34.859375 21.53125 33.890625 
L 22.515625 41.609375 
Q 23.390625 41.5 23.921875 41.5 
Q 29.546875 41.5 34.03125 44.421875 
Q 38.53125 47.359375 38.53125 53.46875 
Q 38.53125 58.296875 35.25 61.46875 
Q 31.984375 64.65625 26.8125 64.65625 
Q 21.6875 64.65625 18.265625 61.421875 
Q 14.84375 58.203125 13.875 51.765625 
L 5.078125 53.328125 
Q 6.6875 62.15625 12.390625 67.015625 
Q 18.109375 71.875 26.609375 71.875 
Q 32.46875 71.875 37.390625 69.359375 
Q 42.328125 66.84375 44.9375 62.5 
Q 47.5625 58.15625 47.5625 53.265625 
Q 47.5625 48.640625 45.0625 44.828125 
Q 42.578125 41.015625 37.703125 38.765625 
Q 44.046875 37.3125 47.5625 32.6875 
Q 51.078125 28.078125 51.078125 21.140625 
Q 51.078125 11.765625 44.234375 5.25 
Q 37.40625 -1.265625 26.953125 -1.265625 
Q 17.53125 -1.265625 11.296875 4.34375 
Q 5.078125 9.96875 4.203125 18.890625 
" id="ArialMT-33"/>
      </defs>
      <g style="fill:#1a1a1a;" transform="translate(1032.057078 330.434656)scale(0.13 -0.13)">
       <use xlink:href="#ArialMT-33"/>
       <use x="55.615234" xlink:href="#ArialMT-30"/>
       <use x="111.230469" xlink:href="#ArialMT-30"/>
       <use x="166.845703" xlink:href="#ArialMT-30"/>
       <use x="222.460938" xlink:href="#ArialMT-30"/>
      </g>
     </g>
    </g>
    <g id="text_31">
     <!-- Wavenumber -->
     <defs>
      <path d="M 20.21875 0 
L 1.21875 71.578125 
L 10.9375 71.578125 
L 21.828125 24.65625 
Q 23.578125 17.28125 24.859375 10.015625 
Q 27.59375 21.484375 28.078125 23.25 
L 41.703125 71.578125 
L 53.125 71.578125 
L 63.375 35.359375 
Q 67.234375 21.875 68.953125 10.015625 
Q 70.3125 16.796875 72.515625 25.59375 
L 83.734375 71.578125 
L 93.265625 71.578125 
L 73.640625 0 
L 64.5 0 
L 49.421875 54.546875 
Q 47.515625 61.375 47.171875 62.9375 
Q 46.046875 58.015625 45.0625 54.546875 
L 29.890625 0 
z
" id="ArialMT-57"/>
     </defs>
     <g style="fill:#1a1a1a;" transform="translate(872.041899 347.254078)scale(0.143 -0.143)">
      <use xlink:href="#ArialMT-57"/>
      <use x="94.337891" xlink:href="#ArialMT-61"/>
      <use x="149.953125" xlink:href="#ArialMT-76"/>
      <use x="199.953125" xlink:href="#ArialMT-65"/>
      <use x="255.568359" xlink:href="#ArialMT-6e"/>
      <use x="311.183594" xlink:href="#ArialMT-75"/>
      <use x="366.798828" xlink:href="#ArialMT-6d"/>
      <use x="450.099609" xlink:href="#ArialMT-62"/>
      <use x="505.714844" xlink:href="#ArialMT-65"/>
      <use x="561.330078" xlink:href="#ArialMT-72"/>
     </g>
    </g>
   </g>
   <g id="matplotlib.axis_6">
    <g id="ytick_57">
     <g id="line2d_78">
      <g>
       <use style="fill:#1a1a1a;stroke:#1a1a1a;" x="772.749832" xlink:href="#m17bd572ff6" y="295.085795"/>
      </g>
     </g>
     <g id="text_32">
      <!-- 0 -->
      <g style="fill:#1a1a1a;" transform="translate(752.520613 299.738374)scale(0.13 -0.13)">
       <use xlink:href="#ArialMT-30"/>
      </g>
     </g>
    </g>
    <g id="ytick_58">
     <g id="line2d_79">
      <g>
       <use style="fill:#1a1a1a;stroke:#1a1a1a;" x="772.749832" xlink:href="#m17bd572ff6" y="262.26849"/>
      </g>
     </g>
     <g id="text_33">
      <!-- 50 -->
      <g style="fill:#1a1a1a;" transform="translate(745.291394 266.921068)scale(0.13 -0.13)">
       <use xlink:href="#ArialMT-35"/>
       <use x="55.615234" xlink:href="#ArialMT-30"/>
      </g>
     </g>
    </g>
    <g id="ytick_59">
     <g id="line2d_80">
      <g>
       <use style="fill:#1a1a1a;stroke:#1a1a1a;" x="772.749832" xlink:href="#m17bd572ff6" y="229.451185"/>
      </g>
     </g>
     <g id="text_34">
      <!-- 100 -->
      <g style="fill:#1a1a1a;" transform="translate(738.062176 234.103763)scale(0.13 -0.13)">
       <use xlink:href="#ArialMT-31"/>
       <use x="55.615234" xlink:href="#ArialMT-30"/>
       <use x="111.230469" xlink:href="#ArialMT-30"/>
      </g>
     </g>
    </g>
    <g id="ytick_60">
     <g id="line2d_81">
      <g>
       <use style="fill:#1a1a1a;stroke:#1a1a1a;" x="772.749832" xlink:href="#m17bd572ff6" y="196.63388"/>
      </g>
     </g>
     <g id="text_35">
      <!-- 150 -->
      <g style="fill:#1a1a1a;" transform="translate(738.062176 201.286458)scale(0.13 -0.13)">
       <use xlink:href="#ArialMT-31"/>
       <use x="55.615234" xlink:href="#ArialMT-35"/>
       <use x="111.230469" xlink:href="#ArialMT-30"/>
      </g>
     </g>
    </g>
    <g id="ytick_61">
     <g id="line2d_82">
      <g>
       <use style="fill:#1a1a1a;stroke:#1a1a1a;" x="772.749832" xlink:href="#m17bd572ff6" y="163.816575"/>
      </g>
     </g>
     <g id="text_36">
      <!-- 200 -->
      <g style="fill:#1a1a1a;" transform="translate(738.062176 168.469153)scale(0.13 -0.13)">
       <use xlink:href="#ArialMT-32"/>
       <use x="55.615234" xlink:href="#ArialMT-30"/>
       <use x="111.230469" xlink:href="#ArialMT-30"/>
      </g>
     </g>
    </g>
    <g id="ytick_62">
     <g id="line2d_83">
      <g>
       <use style="fill:#1a1a1a;stroke:#1a1a1a;" x="772.749832" xlink:href="#m17bd572ff6" y="130.99927"/>
      </g>
     </g>
     <g id="text_37">
      <!-- 250 -->
      <g style="fill:#1a1a1a;" transform="translate(738.062176 135.651848)scale(0.13 -0.13)">
       <use xlink:href="#ArialMT-32"/>
       <use x="55.615234" xlink:href="#ArialMT-35"/>
       <use x="111.230469" xlink:href="#ArialMT-30"/>
      </g>
     </g>
    </g>
    <g id="ytick_63">
     <g id="line2d_84">
      <g>
       <use style="fill:#1a1a1a;stroke:#1a1a1a;" x="772.749832" xlink:href="#m17bd572ff6" y="98.181965"/>
      </g>
     </g>
     <g id="text_38">
      <!-- 300 -->
      <g style="fill:#1a1a1a;" transform="translate(738.062176 102.834543)scale(0.13 -0.13)">
       <use xlink:href="#ArialMT-33"/>
       <use x="55.615234" xlink:href="#ArialMT-30"/>
       <use x="111.230469" xlink:href="#ArialMT-30"/>
      </g>
     </g>
    </g>
    <g id="ytick_64">
     <g id="line2d_85">
      <g>
       <use style="fill:#1a1a1a;stroke:#1a1a1a;" x="772.749832" xlink:href="#m17bd572ff6" y="65.36466"/>
      </g>
     </g>
     <g id="text_39">
      <!-- 350 -->
      <g style="fill:#1a1a1a;" transform="translate(738.062176 70.017238)scale(0.13 -0.13)">
       <use xlink:href="#ArialMT-33"/>
       <use x="55.615234" xlink:href="#ArialMT-35"/>
       <use x="111.230469" xlink:href="#ArialMT-30"/>
      </g>
     </g>
    </g>
    <g id="ytick_65">
     <g id="line2d_86">
      <g>
       <use style="fill:#1a1a1a;stroke:#1a1a1a;" x="772.749832" xlink:href="#m17bd572ff6" y="32.547354"/>
      </g>
     </g>
     <g id="text_40">
      <!-- 400 -->
      <g style="fill:#1a1a1a;" transform="translate(738.062176 37.199933)scale(0.13 -0.13)">
       <use xlink:href="#ArialMT-34"/>
       <use x="55.615234" xlink:href="#ArialMT-30"/>
       <use x="111.230469" xlink:href="#ArialMT-30"/>
      </g>
     </g>
    </g>
    <g id="text_41">
     <!-- Flux -->
     <defs>
      <path d="M 8.203125 0 
L 8.203125 71.578125 
L 56.5 71.578125 
L 56.5 63.140625 
L 17.671875 63.140625 
L 17.671875 40.96875 
L 51.265625 40.96875 
L 51.265625 32.515625 
L 17.671875 32.515625 
L 17.671875 0 
z
" id="ArialMT-46"/>
      <path d="M 6.390625 0 
L 6.390625 71.578125 
L 15.1875 71.578125 
L 15.1875 0 
z
" id="ArialMT-6c"/>
      <path d="M 0.734375 0 
L 19.671875 26.953125 
L 2.15625 51.859375 
L 13.140625 51.859375 
L 21.09375 39.703125 
Q 23.34375 36.234375 24.703125 33.890625 
Q 26.859375 37.109375 28.65625 39.59375 
L 37.40625 51.859375 
L 47.90625 51.859375 
L 29.984375 27.4375 
L 49.265625 0 
L 38.484375 0 
L 27.828125 16.109375 
L 25 20.453125 
L 11.375 0 
z
" id="ArialMT-78"/>
     </defs>
     <g style="fill:#1a1a1a;" transform="translate(731.220051 178.155547)rotate(-90)scale(0.143 -0.143)">
      <use xlink:href="#ArialMT-46"/>
      <use x="61.083984" xlink:href="#ArialMT-6c"/>
      <use x="83.300781" xlink:href="#ArialMT-75"/>
      <use x="138.916016" xlink:href="#ArialMT-78"/>
     </g>
    </g>
   </g>
   <g id="line2d_87">
    <path clip-path="url(#pdd8bd76f19)" d="M 785.641243 294.9059 
L 789.882318 295.085795 
L 790.103798 293.419394 
L 790.989658 292.905336 
L 791.316479 295.085795 
L 793.089075 295.085795 
L 793.737841 290.879806 
L 795.512346 289.231095 
L 796.399223 288.312419 
L 797.28592 295.077584 
L 798.17247 286.313704 
L 800.831483 283.104227 
L 801.717662 295.014006 
L 802.281806 281.249928 
L 802.946005 280.374855 
L 803.167404 295.085795 
L 803.388803 279.758359 
L 804.052999 278.828002 
L 804.274397 295.085795 
L 804.60467 277.676161 
L 805.933169 274.890019 
L 806.375998 295.085795 
L 807.033726 272.952978 
L 808.805488 269.684621 
L 809.691336 267.903555 
L 810.577165 295.084717 
L 811.247014 264.881453 
L 812.575449 262.075455 
L 813.018259 295.085779 
L 813.461067 260.239525 
L 814.78949 257.317663 
L 815.232296 291.001272 
L 815.675101 255.434399 
L 817.003513 252.506714 
L 817.446316 289.455356 
L 817.889119 250.492904 
L 819.217523 247.741016 
L 819.660323 295.085795 
L 820.320423 245.119881 
L 822.091811 241.007274 
L 822.977497 238.842344 
L 823.863176 293.728683 
L 824.748851 234.386607 
L 827.405849 228.088248 
L 828.291506 292.023955 
L 829.17716 223.029871 
L 831.834102 216.259244 
L 834.797894 284.312861 
L 838.033539 295.085795 
L 841.576028 295.085602 
L 844.15416 292.985905 
L 848.587642 272.224386 
L 853.020395 280.934599 
L 857.45255 262.328574 
L 861.884211 184.716758 
L 866.315458 197.524706 
L 870.746354 183.653662 
L 875.17695 181.042091 
L 879.607289 180.874036 
L 884.037404 181.885824 
L 888.467325 184.339236 
L 892.897075 183.52792 
L 897.326674 184.759564 
L 906.185486 187.736534 
L 910.614725 188.909907 
L 915.043869 189.827694 
L 919.472927 192.913864 
L 923.901906 193.466415 
L 928.330815 196.114146 
L 932.759659 198.340452 
L 937.188444 200.973692 
L 941.617175 205.922705 
L 946.045857 209.413349 
L 950.474493 213.191574 
L 954.903087 219.808317 
L 959.331642 219.81445 
L 963.760161 222.774022 
L 977.045528 229.681199 
L 981.473927 233.704954 
L 985.902301 241.387783 
L 990.330651 250.704292 
L 994.75898 248.232057 
L 999.187288 249.685248 
L 1003.615576 253.626563 
L 1008.043846 268.287051 
L 1012.472099 270.357679 
L 1016.900336 271.449729 
L 1021.328557 271.96474 
L 1025.756764 270.61762 
L 1030.184957 275.738362 
L 1034.613137 274.173105 
L 1039.041305 275.35618 
L 1043.469462 279.358193 
L 1043.469462 279.358193 
" style="fill:none;stroke:#c44e52;stroke-linecap:round;stroke-width:1.2;"/>
   </g>
   <g id="line2d_88">
    <path clip-path="url(#pdd8bd76f19)" d="M 785.641243 294.086574 
L 786.585846 292.535223 
L 787.496713 290.966673 
L 789.439335 287.131213 
L 789.882318 285.949189 
L 790.103798 279.707667 
L 790.989658 275.035964 
L 791.316479 281.188088 
L 791.759695 279.605974 
L 792.645986 275.577694 
L 793.089075 274.032374 
L 793.737841 257.588374 
L 796.399223 237.957053 
L 797.28592 239.375959 
L 798.17247 223.826543 
L 800.831483 201.778877 
L 801.717662 210.739713 
L 802.281806 189.889039 
L 802.946005 184.314559 
L 803.167404 217.905487 
L 803.388803 180.607306 
L 804.052999 175.067437 
L 804.274397 217.260691 
L 804.60467 170.307338 
L 805.933169 159.400084 
L 806.375998 184.729838 
L 807.033726 150.381119 
L 809.691336 129.830653 
L 810.577165 158.450664 
L 811.247014 118.650887 
L 812.575449 109.429545 
L 813.018259 159.073705 
L 813.461067 103.536813 
L 814.78949 95.100958 
L 815.232296 145.313601 
L 815.675101 89.756173 
L 817.003513 82.172183 
L 817.446316 138.530072 
L 817.889119 77.411687 
L 819.217523 70.723059 
L 819.660323 133.949366 
L 820.320423 65.406604 
L 822.091811 57.954794 
L 822.977497 54.599173 
L 823.863176 119.626112 
L 824.748851 48.625193 
L 826.520187 43.623092 
L 827.405849 41.480456 
L 828.291506 113.869508 
L 829.17716 37.895934 
L 830.062811 36.446486 
L 830.948458 35.219939 
L 831.834102 34.211705 
L 834.797894 151.339863 
L 838.033539 195.421954 
L 838.919164 195.947184 
L 839.804787 196.294388 
L 840.690409 191.989417 
L 841.576028 172.122981 
L 844.15416 196.466061 
L 848.587642 141.215194 
L 853.020395 167.191763 
L 857.45255 159.596105 
L 861.884211 89.253689 
L 866.315458 118.499794 
L 870.746354 121.244921 
L 875.17695 135.450055 
L 879.607289 150.580443 
L 884.037404 165.13703 
L 888.467325 178.51722 
L 892.897075 191.266312 
L 897.326674 203.036198 
L 901.75614 213.770256 
L 906.185486 223.577041 
L 910.614725 232.436458 
L 915.043869 240.390157 
L 919.472927 247.490371 
L 923.901906 253.796034 
L 928.330815 259.369633 
L 932.759659 264.274776 
L 937.188444 268.574341 
L 941.617175 272.329107 
L 946.045857 275.596799 
L 950.474493 278.431467 
L 954.903087 280.883109 
L 959.331642 282.997523 
L 963.760161 284.816281 
L 968.188647 286.376842 
L 972.617102 287.712727 
L 977.045528 288.853757 
L 981.473927 289.826315 
L 985.902301 290.653637 
L 994.75898 291.95145 
L 1003.615576 292.880721 
L 1012.472099 293.541895 
L 1021.328557 294.009602 
L 1034.613137 294.464232 
L 1043.469462 294.656735 
L 1043.469462 294.656735 
" style="fill:none;stroke:#4c72b0;stroke-linecap:round;stroke-width:1.2;"/>
   </g>
   <g id="patch_13">
    <path d="M 772.749832 308.1295 
L 772.749832 21.168 
" style="fill:none;stroke:#1a1a1a;stroke-linecap:square;stroke-linejoin:miter;stroke-width:1.25;"/>
   </g>
   <g id="patch_14">
    <path d="M 1056.360873 308.1295 
L 1056.360873 21.168 
" style="fill:none;stroke:#1a1a1a;stroke-linecap:square;stroke-linejoin:miter;stroke-width:1.25;"/>
   </g>
   <g id="patch_15">
    <path d="M 772.749832 308.1295 
L 1056.360873 308.1295 
" style="fill:none;stroke:#1a1a1a;stroke-linecap:square;stroke-linejoin:miter;stroke-width:1.25;"/>
   </g>
   <g id="patch_16">
    <path d="M 772.749832 21.168 
L 1056.360873 21.168 
" style="fill:none;stroke:#1a1a1a;stroke-linecap:square;stroke-linejoin:miter;stroke-width:1.25;"/>
   </g>
  </g>
 </g>
 <defs>
  <clipPath id="p01bbdf32ef">
   <rect height="286.9615" width="283.611041" x="65.62925" y="21.168"/>
  </clipPath>
  <clipPath id="p9d1a9fdd77">
   <rect height="286.9615" width="283.611041" x="419.189541" y="21.168"/>
  </clipPath>
  <clipPath id="pdd8bd76f19">
   <rect height="286.9615" width="283.611041" x="772.749832" y="21.168"/>
  </clipPath>
 </defs>
</svg>
