<?xml version="1.0" encoding="utf-8" standalone="no"?>
<!DOCTYPE svg PUBLIC "-//W3C//DTD SVG 1.1//EN"
  "http://www.w3.org/Graphics/SVG/1.1/DTD/svg11.dtd">
<!-- Created with matplotlib (http://matplotlib.org/) -->
<svg height="360pt" version="1.1" viewBox="0 0 1080 360" width="1080pt" xmlns="http://www.w3.org/2000/svg" xmlns:xlink="http://www.w3.org/1999/xlink">
 <defs>
  <style type="text/css">
*{stroke-linecap:butt;stroke-linejoin:round;}
  </style>
 </defs>
 <g id="figure_1">
  <g id="patch_1">
   <path d="M 0 360 
L 1080 360 
L 1080 0 
L 0 0 
z
" style="fill:#ffffff;"/>
  </g>
  <g id="axes_1">
   <g id="patch_2">
    <path d="M 65.62925 307.57825 
L 347.7465 307.57825 
L 347.7465 21.168 
L 65.62925 21.168 
z
" style="fill:#ffffff;"/>
   </g>
   <g id="matplotlib.axis_1">
    <g id="xtick_1">
     <g id="line2d_1">
      <defs>
       <path d="M 0 0 
L 0 6 
" id="m18c74a2fa2" style="stroke:#262626;"/>
      </defs>
      <g>
       <use style="fill:#262626;stroke:#262626;" x="90.883533" xlink:href="#m18c74a2fa2" y="307.57825"/>
      </g>
     </g>
     <g id="text_1">
      <!-- 1800 -->
      <defs>
       <path d="M 37.25 0 
L 28.46875 0 
L 28.46875 56 
Q 25.296875 52.984375 20.140625 49.953125 
Q 14.984375 46.921875 10.890625 45.40625 
L 10.890625 53.90625 
Q 18.265625 57.375 23.78125 62.296875 
Q 29.296875 67.234375 31.59375 71.875 
L 37.25 71.875 
z
" id="ArialMT-31"/>
       <path d="M 17.671875 38.8125 
Q 12.203125 40.828125 9.5625 44.53125 
Q 6.9375 48.25 6.9375 53.421875 
Q 6.9375 61.234375 12.546875 66.546875 
Q 18.171875 71.875 27.484375 71.875 
Q 36.859375 71.875 42.578125 66.421875 
Q 48.296875 60.984375 48.296875 53.171875 
Q 48.296875 48.1875 45.671875 44.5 
Q 43.0625 40.828125 37.75 38.8125 
Q 44.34375 36.671875 47.78125 31.875 
Q 51.21875 27.09375 51.21875 20.453125 
Q 51.21875 11.28125 44.71875 5.03125 
Q 38.234375 -1.21875 27.640625 -1.21875 
Q 17.046875 -1.21875 10.546875 5.046875 
Q 4.046875 11.328125 4.046875 20.703125 
Q 4.046875 27.6875 7.59375 32.390625 
Q 11.140625 37.109375 17.671875 38.8125 
M 15.921875 53.71875 
Q 15.921875 48.640625 19.1875 45.40625 
Q 22.46875 42.1875 27.6875 42.1875 
Q 32.765625 42.1875 36.015625 45.375 
Q 39.265625 48.578125 39.265625 53.21875 
Q 39.265625 58.0625 35.90625 61.359375 
Q 32.5625 64.65625 27.59375 64.65625 
Q 22.5625 64.65625 19.234375 61.421875 
Q 15.921875 58.203125 15.921875 53.71875 
M 13.09375 20.65625 
Q 13.09375 16.890625 14.875 13.375 
Q 16.65625 9.859375 20.171875 7.921875 
Q 23.6875 6 27.734375 6 
Q 34.03125 6 38.125 10.046875 
Q 42.234375 14.109375 42.234375 20.359375 
Q 42.234375 26.703125 38.015625 30.859375 
Q 33.796875 35.015625 27.4375 35.015625 
Q 21.234375 35.015625 17.15625 30.90625 
Q 13.09375 26.8125 13.09375 20.65625 
" id="ArialMT-38"/>
       <path d="M 4.15625 35.296875 
Q 4.15625 48 6.765625 55.734375 
Q 9.375 63.484375 14.515625 67.671875 
Q 19.671875 71.875 27.484375 71.875 
Q 33.25 71.875 37.59375 69.546875 
Q 41.9375 67.234375 44.765625 62.859375 
Q 47.609375 58.5 49.21875 52.21875 
Q 50.828125 45.953125 50.828125 35.296875 
Q 50.828125 22.703125 48.234375 14.96875 
Q 45.65625 7.234375 40.5 3 
Q 35.359375 -1.21875 27.484375 -1.21875 
Q 17.140625 -1.21875 11.234375 6.203125 
Q 4.15625 15.140625 4.15625 35.296875 
M 13.1875 35.296875 
Q 13.1875 17.671875 17.3125 11.828125 
Q 21.4375 6 27.484375 6 
Q 33.546875 6 37.671875 11.859375 
Q 41.796875 17.71875 41.796875 35.296875 
Q 41.796875 52.984375 37.671875 58.78125 
Q 33.546875 64.59375 27.390625 64.59375 
Q 21.34375 64.59375 17.71875 59.46875 
Q 13.1875 52.9375 13.1875 35.296875 
" id="ArialMT-30"/>
      </defs>
      <g style="fill:#262626;" transform="translate(76.425096 329.883406)scale(0.13 -0.13)">
       <use xlink:href="#ArialMT-31"/>
       <use x="55.615234" xlink:href="#ArialMT-38"/>
       <use x="111.230469" xlink:href="#ArialMT-30"/>
       <use x="166.845703" xlink:href="#ArialMT-30"/>
      </g>
     </g>
    </g>
    <g id="xtick_2">
     <g id="line2d_2">
      <g>
       <use style="fill:#262626;stroke:#262626;" x="136.037064" xlink:href="#m18c74a2fa2" y="307.57825"/>
      </g>
     </g>
     <g id="text_2">
      <!-- 2000 -->
      <defs>
       <path d="M 50.34375 8.453125 
L 50.34375 0 
L 3.03125 0 
Q 2.9375 3.171875 4.046875 6.109375 
Q 5.859375 10.9375 9.828125 15.625 
Q 13.8125 20.3125 21.34375 26.46875 
Q 33.015625 36.03125 37.109375 41.625 
Q 41.21875 47.21875 41.21875 52.203125 
Q 41.21875 57.421875 37.46875 61 
Q 33.734375 64.59375 27.734375 64.59375 
Q 21.390625 64.59375 17.578125 60.78125 
Q 13.765625 56.984375 13.71875 50.25 
L 4.6875 51.171875 
Q 5.609375 61.28125 11.65625 66.578125 
Q 17.71875 71.875 27.9375 71.875 
Q 38.234375 71.875 44.234375 66.15625 
Q 50.25 60.453125 50.25 52 
Q 50.25 47.703125 48.484375 43.546875 
Q 46.734375 39.40625 42.65625 34.8125 
Q 38.578125 30.21875 29.109375 22.21875 
Q 21.1875 15.578125 18.9375 13.203125 
Q 16.703125 10.84375 15.234375 8.453125 
z
" id="ArialMT-32"/>
      </defs>
      <g style="fill:#262626;" transform="translate(121.578626 329.883406)scale(0.13 -0.13)">
       <use xlink:href="#ArialMT-32"/>
       <use x="55.615234" xlink:href="#ArialMT-30"/>
       <use x="111.230469" xlink:href="#ArialMT-30"/>
       <use x="166.845703" xlink:href="#ArialMT-30"/>
      </g>
     </g>
    </g>
    <g id="xtick_3">
     <g id="line2d_3">
      <g>
       <use style="fill:#262626;stroke:#262626;" x="181.190594" xlink:href="#m18c74a2fa2" y="307.57825"/>
      </g>
     </g>
     <g id="text_3">
      <!-- 2200 -->
      <g style="fill:#262626;" transform="translate(166.732157 329.883406)scale(0.13 -0.13)">
       <use xlink:href="#ArialMT-32"/>
       <use x="55.615234" xlink:href="#ArialMT-32"/>
       <use x="111.230469" xlink:href="#ArialMT-30"/>
       <use x="166.845703" xlink:href="#ArialMT-30"/>
      </g>
     </g>
    </g>
    <g id="xtick_4">
     <g id="line2d_4">
      <g>
       <use style="fill:#262626;stroke:#262626;" x="226.344125" xlink:href="#m18c74a2fa2" y="307.57825"/>
      </g>
     </g>
     <g id="text_4">
      <!-- 2400 -->
      <defs>
       <path d="M 32.328125 0 
L 32.328125 17.140625 
L 1.265625 17.140625 
L 1.265625 25.203125 
L 33.9375 71.578125 
L 41.109375 71.578125 
L 41.109375 25.203125 
L 50.78125 25.203125 
L 50.78125 17.140625 
L 41.109375 17.140625 
L 41.109375 0 
z
M 32.328125 25.203125 
L 32.328125 57.46875 
L 9.90625 25.203125 
z
" id="ArialMT-34"/>
      </defs>
      <g style="fill:#262626;" transform="translate(211.885687 329.883406)scale(0.13 -0.13)">
       <use xlink:href="#ArialMT-32"/>
       <use x="55.615234" xlink:href="#ArialMT-34"/>
       <use x="111.230469" xlink:href="#ArialMT-30"/>
       <use x="166.845703" xlink:href="#ArialMT-30"/>
      </g>
     </g>
    </g>
    <g id="xtick_5">
     <g id="line2d_5">
      <g>
       <use style="fill:#262626;stroke:#262626;" x="271.497655" xlink:href="#m18c74a2fa2" y="307.57825"/>
      </g>
     </g>
     <g id="text_5">
      <!-- 2600 -->
      <defs>
       <path d="M 49.75 54.046875 
L 41.015625 53.375 
Q 39.84375 58.546875 37.703125 60.890625 
Q 34.125 64.65625 28.90625 64.65625 
Q 24.703125 64.65625 21.53125 62.3125 
Q 17.390625 59.28125 14.984375 53.46875 
Q 12.59375 47.65625 12.5 36.921875 
Q 15.671875 41.75 20.265625 44.09375 
Q 24.859375 46.4375 29.890625 46.4375 
Q 38.671875 46.4375 44.84375 39.96875 
Q 51.03125 33.5 51.03125 23.25 
Q 51.03125 16.5 48.125 10.71875 
Q 45.21875 4.9375 40.140625 1.859375 
Q 35.0625 -1.21875 28.609375 -1.21875 
Q 17.625 -1.21875 10.6875 6.859375 
Q 3.765625 14.9375 3.765625 33.5 
Q 3.765625 54.25 11.421875 63.671875 
Q 18.109375 71.875 29.4375 71.875 
Q 37.890625 71.875 43.28125 67.140625 
Q 48.6875 62.40625 49.75 54.046875 
M 13.875 23.1875 
Q 13.875 18.65625 15.796875 14.5 
Q 17.71875 10.359375 21.1875 8.171875 
Q 24.65625 6 28.46875 6 
Q 34.03125 6 38.03125 10.484375 
Q 42.046875 14.984375 42.046875 22.703125 
Q 42.046875 30.125 38.078125 34.390625 
Q 34.125 38.671875 28.125 38.671875 
Q 22.171875 38.671875 18.015625 34.390625 
Q 13.875 30.125 13.875 23.1875 
" id="ArialMT-36"/>
      </defs>
      <g style="fill:#262626;" transform="translate(257.039218 329.883406)scale(0.13 -0.13)">
       <use xlink:href="#ArialMT-32"/>
       <use x="55.615234" xlink:href="#ArialMT-36"/>
       <use x="111.230469" xlink:href="#ArialMT-30"/>
       <use x="166.845703" xlink:href="#ArialMT-30"/>
      </g>
     </g>
    </g>
    <g id="xtick_6">
     <g id="line2d_6">
      <g>
       <use style="fill:#262626;stroke:#262626;" x="316.651186" xlink:href="#m18c74a2fa2" y="307.57825"/>
      </g>
     </g>
     <g id="text_6">
      <!-- 2800 -->
      <g style="fill:#262626;" transform="translate(302.192748 329.883406)scale(0.13 -0.13)">
       <use xlink:href="#ArialMT-32"/>
       <use x="55.615234" xlink:href="#ArialMT-38"/>
       <use x="111.230469" xlink:href="#ArialMT-30"/>
       <use x="166.845703" xlink:href="#ArialMT-30"/>
      </g>
     </g>
    </g>
    <g id="text_7">
     <!-- Temperature (K) -->
     <defs>
      <path d="M 25.921875 0 
L 25.921875 63.140625 
L 2.34375 63.140625 
L 2.34375 71.578125 
L 59.078125 71.578125 
L 59.078125 63.140625 
L 35.40625 63.140625 
L 35.40625 0 
z
" id="ArialMT-54"/>
      <path d="M 42.09375 16.703125 
L 51.171875 15.578125 
Q 49.03125 7.625 43.21875 3.21875 
Q 37.40625 -1.171875 28.375 -1.171875 
Q 17 -1.171875 10.328125 5.828125 
Q 3.65625 12.84375 3.65625 25.484375 
Q 3.65625 38.578125 10.390625 45.796875 
Q 17.140625 53.03125 27.875 53.03125 
Q 38.28125 53.03125 44.875 45.953125 
Q 51.46875 38.875 51.46875 26.03125 
Q 51.46875 25.25 51.421875 23.6875 
L 12.75 23.6875 
Q 13.234375 15.140625 17.578125 10.59375 
Q 21.921875 6.0625 28.421875 6.0625 
Q 33.25 6.0625 36.671875 8.59375 
Q 40.09375 11.140625 42.09375 16.703125 
M 13.234375 30.90625 
L 42.1875 30.90625 
Q 41.609375 37.453125 38.875 40.71875 
Q 34.671875 45.796875 27.984375 45.796875 
Q 21.921875 45.796875 17.796875 41.75 
Q 13.671875 37.703125 13.234375 30.90625 
" id="ArialMT-65"/>
      <path d="M 6.59375 0 
L 6.59375 51.859375 
L 14.453125 51.859375 
L 14.453125 44.578125 
Q 16.890625 48.390625 20.9375 50.703125 
Q 25 53.03125 30.171875 53.03125 
Q 35.9375 53.03125 39.625 50.640625 
Q 43.3125 48.25 44.828125 43.953125 
Q 50.984375 53.03125 60.84375 53.03125 
Q 68.5625 53.03125 72.703125 48.75 
Q 76.859375 44.484375 76.859375 35.59375 
L 76.859375 0 
L 68.109375 0 
L 68.109375 32.671875 
Q 68.109375 37.9375 67.25 40.25 
Q 66.40625 42.578125 64.15625 43.984375 
Q 61.921875 45.40625 58.890625 45.40625 
Q 53.421875 45.40625 49.796875 41.765625 
Q 46.1875 38.140625 46.1875 30.125 
L 46.1875 0 
L 37.40625 0 
L 37.40625 33.6875 
Q 37.40625 39.546875 35.25 42.46875 
Q 33.109375 45.40625 28.21875 45.40625 
Q 24.515625 45.40625 21.359375 43.453125 
Q 18.21875 41.5 16.796875 37.734375 
Q 15.375 33.984375 15.375 26.90625 
L 15.375 0 
z
" id="ArialMT-6d"/>
      <path d="M 6.59375 -19.875 
L 6.59375 51.859375 
L 14.59375 51.859375 
L 14.59375 45.125 
Q 17.4375 49.078125 21 51.046875 
Q 24.5625 53.03125 29.640625 53.03125 
Q 36.28125 53.03125 41.359375 49.609375 
Q 46.4375 46.1875 49.015625 39.953125 
Q 51.609375 33.734375 51.609375 26.3125 
Q 51.609375 18.359375 48.75 11.984375 
Q 45.90625 5.609375 40.453125 2.21875 
Q 35.015625 -1.171875 29 -1.171875 
Q 24.609375 -1.171875 21.109375 0.6875 
Q 17.625 2.546875 15.375 5.375 
L 15.375 -19.875 
z
M 14.546875 25.640625 
Q 14.546875 15.625 18.59375 10.84375 
Q 22.65625 6.0625 28.421875 6.0625 
Q 34.28125 6.0625 38.453125 11.015625 
Q 42.625 15.96875 42.625 26.375 
Q 42.625 36.28125 38.546875 41.203125 
Q 34.46875 46.140625 28.8125 46.140625 
Q 23.1875 46.140625 18.859375 40.890625 
Q 14.546875 35.640625 14.546875 25.640625 
" id="ArialMT-70"/>
      <path d="M 6.5 0 
L 6.5 51.859375 
L 14.40625 51.859375 
L 14.40625 44 
Q 17.4375 49.515625 20 51.265625 
Q 22.5625 53.03125 25.640625 53.03125 
Q 30.078125 53.03125 34.671875 50.203125 
L 31.640625 42.046875 
Q 28.421875 43.953125 25.203125 43.953125 
Q 22.3125 43.953125 20.015625 42.21875 
Q 17.71875 40.484375 16.75 37.40625 
Q 15.28125 32.71875 15.28125 27.15625 
L 15.28125 0 
z
" id="ArialMT-72"/>
      <path d="M 40.4375 6.390625 
Q 35.546875 2.25 31.03125 0.53125 
Q 26.515625 -1.171875 21.34375 -1.171875 
Q 12.796875 -1.171875 8.203125 3 
Q 3.609375 7.171875 3.609375 13.671875 
Q 3.609375 17.484375 5.34375 20.625 
Q 7.078125 23.78125 9.890625 25.6875 
Q 12.703125 27.59375 16.21875 28.5625 
Q 18.796875 29.25 24.03125 29.890625 
Q 34.671875 31.15625 39.703125 32.90625 
Q 39.75 34.71875 39.75 35.203125 
Q 39.75 40.578125 37.25 42.78125 
Q 33.890625 45.75 27.25 45.75 
Q 21.046875 45.75 18.09375 43.578125 
Q 15.140625 41.40625 13.71875 35.890625 
L 5.125 37.0625 
Q 6.296875 42.578125 8.984375 45.96875 
Q 11.671875 49.359375 16.75 51.1875 
Q 21.828125 53.03125 28.515625 53.03125 
Q 35.15625 53.03125 39.296875 51.46875 
Q 43.453125 49.90625 45.40625 47.53125 
Q 47.359375 45.171875 48.140625 41.546875 
Q 48.578125 39.3125 48.578125 33.453125 
L 48.578125 21.734375 
Q 48.578125 9.46875 49.140625 6.21875 
Q 49.703125 2.984375 51.375 0 
L 42.1875 0 
Q 40.828125 2.734375 40.4375 6.390625 
M 39.703125 26.03125 
Q 34.90625 24.078125 25.34375 22.703125 
Q 19.921875 21.921875 17.671875 20.9375 
Q 15.4375 19.96875 14.203125 18.09375 
Q 12.984375 16.21875 12.984375 13.921875 
Q 12.984375 10.40625 15.640625 8.0625 
Q 18.3125 5.71875 23.4375 5.71875 
Q 28.515625 5.71875 32.46875 7.9375 
Q 36.421875 10.15625 38.28125 14.015625 
Q 39.703125 17 39.703125 22.796875 
z
" id="ArialMT-61"/>
      <path d="M 25.78125 7.859375 
L 27.046875 0.09375 
Q 23.34375 -0.6875 20.40625 -0.6875 
Q 15.625 -0.6875 12.984375 0.828125 
Q 10.359375 2.34375 9.28125 4.8125 
Q 8.203125 7.28125 8.203125 15.1875 
L 8.203125 45.015625 
L 1.765625 45.015625 
L 1.765625 51.859375 
L 8.203125 51.859375 
L 8.203125 64.703125 
L 16.9375 69.96875 
L 16.9375 51.859375 
L 25.78125 51.859375 
L 25.78125 45.015625 
L 16.9375 45.015625 
L 16.9375 14.703125 
Q 16.9375 10.9375 17.40625 9.859375 
Q 17.875 8.796875 18.921875 8.15625 
Q 19.96875 7.515625 21.921875 7.515625 
Q 23.390625 7.515625 25.78125 7.859375 
" id="ArialMT-74"/>
      <path d="M 40.578125 0 
L 40.578125 7.625 
Q 34.515625 -1.171875 24.125 -1.171875 
Q 19.53125 -1.171875 15.546875 0.578125 
Q 11.578125 2.34375 9.640625 5 
Q 7.71875 7.671875 6.9375 11.53125 
Q 6.390625 14.109375 6.390625 19.734375 
L 6.390625 51.859375 
L 15.1875 51.859375 
L 15.1875 23.09375 
Q 15.1875 16.21875 15.71875 13.8125 
Q 16.546875 10.359375 19.234375 8.375 
Q 21.921875 6.390625 25.875 6.390625 
Q 29.828125 6.390625 33.296875 8.421875 
Q 36.765625 10.453125 38.203125 13.9375 
Q 39.65625 17.4375 39.65625 24.078125 
L 39.65625 51.859375 
L 48.4375 51.859375 
L 48.4375 0 
z
" id="ArialMT-75"/>
      <path id="ArialMT-20"/>
      <path d="M 23.390625 -21.046875 
Q 16.109375 -11.859375 11.078125 0.4375 
Q 6.0625 12.75 6.0625 25.921875 
Q 6.0625 37.546875 9.8125 48.1875 
Q 14.203125 60.546875 23.390625 72.796875 
L 29.6875 72.796875 
Q 23.78125 62.640625 21.875 58.296875 
Q 18.890625 51.5625 17.1875 44.234375 
Q 15.09375 35.109375 15.09375 25.875 
Q 15.09375 2.390625 29.6875 -21.046875 
z
" id="ArialMT-28"/>
      <path d="M 7.328125 0 
L 7.328125 71.578125 
L 16.796875 71.578125 
L 16.796875 36.078125 
L 52.34375 71.578125 
L 65.1875 71.578125 
L 35.15625 42.578125 
L 66.5 0 
L 54 0 
L 28.515625 36.234375 
L 16.796875 24.8125 
L 16.796875 0 
z
" id="ArialMT-4b"/>
      <path d="M 12.359375 -21.046875 
L 6.0625 -21.046875 
Q 20.65625 2.390625 20.65625 25.875 
Q 20.65625 35.0625 18.5625 44.09375 
Q 16.890625 51.421875 13.921875 58.15625 
Q 12.015625 62.546875 6.0625 72.796875 
L 12.359375 72.796875 
Q 21.53125 60.546875 25.921875 48.1875 
Q 29.6875 37.546875 29.6875 25.921875 
Q 29.6875 12.75 24.625 0.4375 
Q 19.578125 -11.859375 12.359375 -21.046875 
" id="ArialMT-29"/>
     </defs>
     <g style="fill:#262626;" transform="translate(154.256031 346.877109)scale(0.143 -0.143)">
      <use xlink:href="#ArialMT-54"/>
      <use x="60.912109" xlink:href="#ArialMT-65"/>
      <use x="116.527344" xlink:href="#ArialMT-6d"/>
      <use x="199.828125" xlink:href="#ArialMT-70"/>
      <use x="255.443359" xlink:href="#ArialMT-65"/>
      <use x="311.058594" xlink:href="#ArialMT-72"/>
      <use x="344.359375" xlink:href="#ArialMT-61"/>
      <use x="399.974609" xlink:href="#ArialMT-74"/>
      <use x="427.757812" xlink:href="#ArialMT-75"/>
      <use x="483.373047" xlink:href="#ArialMT-72"/>
      <use x="516.673828" xlink:href="#ArialMT-65"/>
      <use x="572.289062" xlink:href="#ArialMT-20"/>
      <use x="600.072266" xlink:href="#ArialMT-28"/>
      <use x="633.373047" xlink:href="#ArialMT-4b"/>
      <use x="700.072266" xlink:href="#ArialMT-29"/>
     </g>
    </g>
   </g>
   <g id="matplotlib.axis_2">
    <g id="ytick_1">
     <g id="line2d_7">
      <defs>
       <path d="M 0 0 
L -6 0 
" id="mf2265ff177" style="stroke:#262626;"/>
      </defs>
      <g>
       <use style="fill:#262626;stroke:#262626;" x="65.62925" xlink:href="#mf2265ff177" y="53.117602"/>
      </g>
     </g>
     <g id="text_8">
      <!-- ${10^{-2}}$ -->
      <defs>
       <path d="M 12.40625 8.296875 
L 28.515625 8.296875 
L 28.515625 63.921875 
L 10.984375 60.40625 
L 10.984375 69.390625 
L 28.421875 72.90625 
L 38.28125 72.90625 
L 38.28125 8.296875 
L 54.390625 8.296875 
L 54.390625 0 
L 12.40625 0 
z
" id="DejaVuSans-31"/>
       <path d="M 31.78125 66.40625 
Q 24.171875 66.40625 20.328125 58.90625 
Q 16.5 51.421875 16.5 36.375 
Q 16.5 21.390625 20.328125 13.890625 
Q 24.171875 6.390625 31.78125 6.390625 
Q 39.453125 6.390625 43.28125 13.890625 
Q 47.125 21.390625 47.125 36.375 
Q 47.125 51.421875 43.28125 58.90625 
Q 39.453125 66.40625 31.78125 66.40625 
M 31.78125 74.21875 
Q 44.046875 74.21875 50.515625 64.515625 
Q 56.984375 54.828125 56.984375 36.375 
Q 56.984375 17.96875 50.515625 8.265625 
Q 44.046875 -1.421875 31.78125 -1.421875 
Q 19.53125 -1.421875 13.0625 8.265625 
Q 6.59375 17.96875 6.59375 36.375 
Q 6.59375 54.828125 13.0625 64.515625 
Q 19.53125 74.21875 31.78125 74.21875 
" id="DejaVuSans-30"/>
       <path d="M 10.59375 35.5 
L 73.1875 35.5 
L 73.1875 27.203125 
L 10.59375 27.203125 
z
" id="DejaVuSans-2212"/>
       <path d="M 19.1875 8.296875 
L 53.609375 8.296875 
L 53.609375 0 
L 7.328125 0 
L 7.328125 8.296875 
Q 12.9375 14.109375 22.625 23.890625 
Q 32.328125 33.6875 34.8125 36.53125 
Q 39.546875 41.84375 41.421875 45.53125 
Q 43.3125 49.21875 43.3125 52.78125 
Q 43.3125 58.59375 39.234375 62.25 
Q 35.15625 65.921875 28.609375 65.921875 
Q 23.96875 65.921875 18.8125 64.3125 
Q 13.671875 62.703125 7.8125 59.421875 
L 7.8125 69.390625 
Q 13.765625 71.78125 18.9375 73 
Q 24.125 74.21875 28.421875 74.21875 
Q 39.75 74.21875 46.484375 68.546875 
Q 53.21875 62.890625 53.21875 53.421875 
Q 53.21875 48.921875 51.53125 44.890625 
Q 49.859375 40.875 45.40625 35.40625 
Q 44.1875 33.984375 37.640625 27.21875 
Q 31.109375 20.453125 19.1875 8.296875 
" id="DejaVuSans-32"/>
      </defs>
      <g style="fill:#262626;" transform="translate(22.07925 57.870727)scale(0.13 -0.13)">
       <use transform="translate(0 0.765625)" xlink:href="#DejaVuSans-31"/>
       <use transform="translate(63.623047 0.765625)" xlink:href="#DejaVuSans-30"/>
       <use transform="translate(128.203125 39.046875)scale(0.7)" xlink:href="#DejaVuSans-2212"/>
       <use transform="translate(186.855469 39.046875)scale(0.7)" xlink:href="#DejaVuSans-32"/>
      </g>
     </g>
    </g>
    <g id="ytick_2">
     <g id="line2d_8">
      <g>
       <use style="fill:#262626;stroke:#262626;" x="65.62925" xlink:href="#mf2265ff177" y="133.656711"/>
      </g>
     </g>
     <g id="text_9">
      <!-- ${10^{-1}}$ -->
      <g style="fill:#262626;" transform="translate(22.07925 138.344836)scale(0.13 -0.13)">
       <use transform="translate(0 0.684375)" xlink:href="#DejaVuSans-31"/>
       <use transform="translate(63.623047 0.684375)" xlink:href="#DejaVuSans-30"/>
       <use transform="translate(128.203125 38.965625)scale(0.7)" xlink:href="#DejaVuSans-2212"/>
       <use transform="translate(186.855469 38.965625)scale(0.7)" xlink:href="#DejaVuSans-31"/>
      </g>
     </g>
    </g>
    <g id="ytick_3">
     <g id="line2d_9">
      <g>
       <use style="fill:#262626;stroke:#262626;" x="65.62925" xlink:href="#mf2265ff177" y="214.19582"/>
      </g>
     </g>
     <g id="text_10">
      <!-- ${10^{0}}$ -->
      <g style="fill:#262626;" transform="translate(29.74925 218.948945)scale(0.13 -0.13)">
       <use transform="translate(0 0.765625)" xlink:href="#DejaVuSans-31"/>
       <use transform="translate(63.623047 0.765625)" xlink:href="#DejaVuSans-30"/>
       <use transform="translate(128.203125 39.046875)scale(0.7)" xlink:href="#DejaVuSans-30"/>
      </g>
     </g>
    </g>
    <g id="ytick_4">
     <g id="line2d_10">
      <g>
       <use style="fill:#262626;stroke:#262626;" x="65.62925" xlink:href="#mf2265ff177" y="294.734929"/>
      </g>
     </g>
     <g id="text_11">
      <!-- ${10^{1}}$ -->
      <g style="fill:#262626;" transform="translate(29.74925 299.423054)scale(0.13 -0.13)">
       <use transform="translate(0 0.684375)" xlink:href="#DejaVuSans-31"/>
       <use transform="translate(63.623047 0.684375)" xlink:href="#DejaVuSans-30"/>
       <use transform="translate(128.203125 38.965625)scale(0.7)" xlink:href="#DejaVuSans-31"/>
      </g>
     </g>
    </g>
    <g id="ytick_5">
     <g id="line2d_11">
      <defs>
       <path d="M 0 0 
L -3 0 
" id="m40b46a7367" style="stroke:#262626;stroke-width:0.5;"/>
      </defs>
      <g>
       <use style="fill:#262626;stroke:#262626;stroke-width:0.5;" x="65.62925" xlink:href="#m40b46a7367" y="21.067868"/>
      </g>
     </g>
    </g>
    <g id="ytick_6">
     <g id="line2d_12">
      <g>
       <use style="fill:#262626;stroke:#262626;stroke-width:0.5;" x="65.62925" xlink:href="#m40b46a7367" y="28.872914"/>
      </g>
     </g>
    </g>
    <g id="ytick_7">
     <g id="line2d_13">
      <g>
       <use style="fill:#262626;stroke:#262626;stroke-width:0.5;" x="65.62925" xlink:href="#m40b46a7367" y="35.250101"/>
      </g>
     </g>
    </g>
    <g id="ytick_8">
     <g id="line2d_14">
      <g>
       <use style="fill:#262626;stroke:#262626;stroke-width:0.5;" x="65.62925" xlink:href="#m40b46a7367" y="40.641936"/>
      </g>
     </g>
    </g>
    <g id="ytick_9">
     <g id="line2d_15">
      <g>
       <use style="fill:#262626;stroke:#262626;stroke-width:0.5;" x="65.62925" xlink:href="#m40b46a7367" y="45.312556"/>
      </g>
     </g>
    </g>
    <g id="ytick_10">
     <g id="line2d_16">
      <g>
       <use style="fill:#262626;stroke:#262626;stroke-width:0.5;" x="65.62925" xlink:href="#m40b46a7367" y="49.432334"/>
      </g>
     </g>
    </g>
    <g id="ytick_11">
     <g id="line2d_17">
      <g>
       <use style="fill:#262626;stroke:#262626;stroke-width:0.5;" x="65.62925" xlink:href="#m40b46a7367" y="77.362289"/>
      </g>
     </g>
    </g>
    <g id="ytick_12">
     <g id="line2d_18">
      <g>
       <use style="fill:#262626;stroke:#262626;stroke-width:0.5;" x="65.62925" xlink:href="#m40b46a7367" y="91.544523"/>
      </g>
     </g>
    </g>
    <g id="ytick_13">
     <g id="line2d_19">
      <g>
       <use style="fill:#262626;stroke:#262626;stroke-width:0.5;" x="65.62925" xlink:href="#m40b46a7367" y="101.606977"/>
      </g>
     </g>
    </g>
    <g id="ytick_14">
     <g id="line2d_20">
      <g>
       <use style="fill:#262626;stroke:#262626;stroke-width:0.5;" x="65.62925" xlink:href="#m40b46a7367" y="109.412023"/>
      </g>
     </g>
    </g>
    <g id="ytick_15">
     <g id="line2d_21">
      <g>
       <use style="fill:#262626;stroke:#262626;stroke-width:0.5;" x="65.62925" xlink:href="#m40b46a7367" y="115.78921"/>
      </g>
     </g>
    </g>
    <g id="ytick_16">
     <g id="line2d_22">
      <g>
       <use style="fill:#262626;stroke:#262626;stroke-width:0.5;" x="65.62925" xlink:href="#m40b46a7367" y="121.181045"/>
      </g>
     </g>
    </g>
    <g id="ytick_17">
     <g id="line2d_23">
      <g>
       <use style="fill:#262626;stroke:#262626;stroke-width:0.5;" x="65.62925" xlink:href="#m40b46a7367" y="125.851665"/>
      </g>
     </g>
    </g>
    <g id="ytick_18">
     <g id="line2d_24">
      <g>
       <use style="fill:#262626;stroke:#262626;stroke-width:0.5;" x="65.62925" xlink:href="#m40b46a7367" y="129.971443"/>
      </g>
     </g>
    </g>
    <g id="ytick_19">
     <g id="line2d_25">
      <g>
       <use style="fill:#262626;stroke:#262626;stroke-width:0.5;" x="65.62925" xlink:href="#m40b46a7367" y="157.901399"/>
      </g>
     </g>
    </g>
    <g id="ytick_20">
     <g id="line2d_26">
      <g>
       <use style="fill:#262626;stroke:#262626;stroke-width:0.5;" x="65.62925" xlink:href="#m40b46a7367" y="172.083632"/>
      </g>
     </g>
    </g>
    <g id="ytick_21">
     <g id="line2d_27">
      <g>
       <use style="fill:#262626;stroke:#262626;stroke-width:0.5;" x="65.62925" xlink:href="#m40b46a7367" y="182.146086"/>
      </g>
     </g>
    </g>
    <g id="ytick_22">
     <g id="line2d_28">
      <g>
       <use style="fill:#262626;stroke:#262626;stroke-width:0.5;" x="65.62925" xlink:href="#m40b46a7367" y="189.951132"/>
      </g>
     </g>
    </g>
    <g id="ytick_23">
     <g id="line2d_29">
      <g>
       <use style="fill:#262626;stroke:#262626;stroke-width:0.5;" x="65.62925" xlink:href="#m40b46a7367" y="196.328319"/>
      </g>
     </g>
    </g>
    <g id="ytick_24">
     <g id="line2d_30">
      <g>
       <use style="fill:#262626;stroke:#262626;stroke-width:0.5;" x="65.62925" xlink:href="#m40b46a7367" y="201.720154"/>
      </g>
     </g>
    </g>
    <g id="ytick_25">
     <g id="line2d_31">
      <g>
       <use style="fill:#262626;stroke:#262626;stroke-width:0.5;" x="65.62925" xlink:href="#m40b46a7367" y="206.390774"/>
      </g>
     </g>
    </g>
    <g id="ytick_26">
     <g id="line2d_32">
      <g>
       <use style="fill:#262626;stroke:#262626;stroke-width:0.5;" x="65.62925" xlink:href="#m40b46a7367" y="210.510553"/>
      </g>
     </g>
    </g>
    <g id="ytick_27">
     <g id="line2d_33">
      <g>
       <use style="fill:#262626;stroke:#262626;stroke-width:0.5;" x="65.62925" xlink:href="#m40b46a7367" y="238.440508"/>
      </g>
     </g>
    </g>
    <g id="ytick_28">
     <g id="line2d_34">
      <g>
       <use style="fill:#262626;stroke:#262626;stroke-width:0.5;" x="65.62925" xlink:href="#m40b46a7367" y="252.622741"/>
      </g>
     </g>
    </g>
    <g id="ytick_29">
     <g id="line2d_35">
      <g>
       <use style="fill:#262626;stroke:#262626;stroke-width:0.5;" x="65.62925" xlink:href="#m40b46a7367" y="262.685196"/>
      </g>
     </g>
    </g>
    <g id="ytick_30">
     <g id="line2d_36">
      <g>
       <use style="fill:#262626;stroke:#262626;stroke-width:0.5;" x="65.62925" xlink:href="#m40b46a7367" y="270.490242"/>
      </g>
     </g>
    </g>
    <g id="ytick_31">
     <g id="line2d_37">
      <g>
       <use style="fill:#262626;stroke:#262626;stroke-width:0.5;" x="65.62925" xlink:href="#m40b46a7367" y="276.867429"/>
      </g>
     </g>
    </g>
    <g id="ytick_32">
     <g id="line2d_38">
      <g>
       <use style="fill:#262626;stroke:#262626;stroke-width:0.5;" x="65.62925" xlink:href="#m40b46a7367" y="282.259264"/>
      </g>
     </g>
    </g>
    <g id="ytick_33">
     <g id="line2d_39">
      <g>
       <use style="fill:#262626;stroke:#262626;stroke-width:0.5;" x="65.62925" xlink:href="#m40b46a7367" y="286.929883"/>
      </g>
     </g>
    </g>
    <g id="ytick_34">
     <g id="line2d_40">
      <g>
       <use style="fill:#262626;stroke:#262626;stroke-width:0.5;" x="65.62925" xlink:href="#m40b46a7367" y="291.049662"/>
      </g>
     </g>
    </g>
    <g id="text_12">
     <!-- Pressure (bar) -->
     <defs>
      <path d="M 7.71875 0 
L 7.71875 71.578125 
L 34.71875 71.578125 
Q 41.84375 71.578125 45.609375 70.90625 
Q 50.875 70.015625 54.4375 67.546875 
Q 58.015625 65.09375 60.1875 60.640625 
Q 62.359375 56.203125 62.359375 50.875 
Q 62.359375 41.75 56.546875 35.421875 
Q 50.734375 29.109375 35.546875 29.109375 
L 17.1875 29.109375 
L 17.1875 0 
z
M 17.1875 37.546875 
L 35.6875 37.546875 
Q 44.875 37.546875 48.734375 40.96875 
Q 52.59375 44.390625 52.59375 50.59375 
Q 52.59375 55.078125 50.3125 58.265625 
Q 48.046875 61.46875 44.34375 62.5 
Q 41.9375 63.140625 35.5 63.140625 
L 17.1875 63.140625 
z
" id="ArialMT-50"/>
      <path d="M 3.078125 15.484375 
L 11.765625 16.84375 
Q 12.5 11.625 15.84375 8.84375 
Q 19.1875 6.0625 25.203125 6.0625 
Q 31.25 6.0625 34.171875 8.515625 
Q 37.109375 10.984375 37.109375 14.3125 
Q 37.109375 17.28125 34.515625 19 
Q 32.71875 20.171875 25.53125 21.96875 
Q 15.875 24.421875 12.140625 26.203125 
Q 8.40625 27.984375 6.46875 31.125 
Q 4.546875 34.28125 4.546875 38.09375 
Q 4.546875 41.546875 6.125 44.5 
Q 7.71875 47.46875 10.453125 49.421875 
Q 12.5 50.921875 16.03125 51.96875 
Q 19.578125 53.03125 23.640625 53.03125 
Q 29.734375 53.03125 34.34375 51.265625 
Q 38.96875 49.515625 41.15625 46.5 
Q 43.359375 43.5 44.1875 38.484375 
L 35.59375 37.3125 
Q 35.015625 41.3125 32.203125 43.546875 
Q 29.390625 45.796875 24.265625 45.796875 
Q 18.21875 45.796875 15.625 43.796875 
Q 13.03125 41.796875 13.03125 39.109375 
Q 13.03125 37.40625 14.109375 36.03125 
Q 15.1875 34.625 17.484375 33.6875 
Q 18.796875 33.203125 25.25 31.453125 
Q 34.578125 28.953125 38.25 27.359375 
Q 41.9375 25.78125 44.03125 22.75 
Q 46.140625 19.734375 46.140625 15.234375 
Q 46.140625 10.84375 43.578125 6.953125 
Q 41.015625 3.078125 36.171875 0.953125 
Q 31.34375 -1.171875 25.25 -1.171875 
Q 15.140625 -1.171875 9.84375 3.03125 
Q 4.546875 7.234375 3.078125 15.484375 
" id="ArialMT-73"/>
      <path d="M 14.703125 0 
L 6.546875 0 
L 6.546875 71.578125 
L 15.328125 71.578125 
L 15.328125 46.046875 
Q 20.90625 53.03125 29.546875 53.03125 
Q 34.328125 53.03125 38.59375 51.09375 
Q 42.875 49.171875 45.625 45.671875 
Q 48.390625 42.1875 49.953125 37.25 
Q 51.515625 32.328125 51.515625 26.703125 
Q 51.515625 13.375 44.921875 6.09375 
Q 38.328125 -1.171875 29.109375 -1.171875 
Q 19.921875 -1.171875 14.703125 6.5 
z
M 14.59375 26.3125 
Q 14.59375 17 17.140625 12.84375 
Q 21.296875 6.0625 28.375 6.0625 
Q 34.125 6.0625 38.328125 11.0625 
Q 42.53125 16.0625 42.53125 25.984375 
Q 42.53125 36.140625 38.5 40.96875 
Q 34.46875 45.796875 28.765625 45.796875 
Q 23 45.796875 18.796875 40.796875 
Q 14.59375 35.796875 14.59375 26.3125 
" id="ArialMT-62"/>
     </defs>
     <g style="fill:#262626;" transform="translate(15.069547 210.062742)rotate(-90)scale(0.143 -0.143)">
      <use xlink:href="#ArialMT-50"/>
      <use x="66.699219" xlink:href="#ArialMT-72"/>
      <use x="100" xlink:href="#ArialMT-65"/>
      <use x="155.615234" xlink:href="#ArialMT-73"/>
      <use x="205.615234" xlink:href="#ArialMT-73"/>
      <use x="255.615234" xlink:href="#ArialMT-75"/>
      <use x="311.230469" xlink:href="#ArialMT-72"/>
      <use x="344.53125" xlink:href="#ArialMT-65"/>
      <use x="400.146484" xlink:href="#ArialMT-20"/>
      <use x="427.929688" xlink:href="#ArialMT-28"/>
      <use x="461.230469" xlink:href="#ArialMT-62"/>
      <use x="516.845703" xlink:href="#ArialMT-61"/>
      <use x="572.460938" xlink:href="#ArialMT-72"/>
      <use x="605.761719" xlink:href="#ArialMT-29"/>
     </g>
    </g>
   </g>
   <g id="line2d_41">
    <path clip-path="url(#pd7e8ba5c24)" d="M 79.305506 34.186648 
L 79.673649 39.500381 
L 79.324233 44.814115 
L 79.06081 50.127849 
L 78.712083 55.441583 
L 78.647598 60.755317 
L 78.452761 66.06905 
L 78.470779 71.382784 
L 78.577327 76.696518 
L 78.805033 82.010252 
L 79.20968 87.323985 
L 79.686289 92.637719 
L 80.227814 97.951453 
L 80.754841 103.265187 
L 81.224641 108.57892 
L 81.668074 113.892654 
L 82.142058 119.206388 
L 82.65389 124.520122 
L 83.254361 129.833856 
L 84.010827 135.147589 
L 84.938127 140.461323 
L 86.206076 145.775057 
L 87.912039 151.088791 
L 90.508551 156.402524 
L 93.18867 161.716258 
L 95.762085 167.029992 
L 99.548536 172.343726 
L 106.442079 177.657459 
L 118.979592 182.971193 
L 132.572217 188.284927 
L 146.351674 193.598661 
L 161.06327 198.912394 
L 174.719597 204.226128 
L 191.426484 209.539862 
L 202.08877 214.853596 
L 223.787975 220.16733 
L 238.637624 225.481063 
L 254.427308 230.794797 
L 268.412455 236.108531 
L 285.0849 241.422265 
L 305.63623 246.735998 
L 321.709733 252.049732 
L 329.012711 257.363466 
L 333.137356 262.6772 
L 334.922989 267.990933 
L 334.146869 273.304667 
L 334.391991 278.618401 
L 333.493625 283.932135 
L 333.021687 289.245869 
L 333.021687 294.559602 
" style="fill:none;stroke:#4c72b0;stroke-linecap:round;stroke-width:1.2;"/>
   </g>
   <g id="patch_3">
    <path d="M 65.62925 307.57825 
L 65.62925 21.168 
" style="fill:none;stroke:#262626;stroke-linecap:square;stroke-linejoin:miter;stroke-width:1.25;"/>
   </g>
   <g id="patch_4">
    <path d="M 347.7465 307.57825 
L 347.7465 21.168 
" style="fill:none;stroke:#262626;stroke-linecap:square;stroke-linejoin:miter;stroke-width:1.25;"/>
   </g>
   <g id="patch_5">
    <path d="M 65.62925 307.57825 
L 347.7465 307.57825 
" style="fill:none;stroke:#262626;stroke-linecap:square;stroke-linejoin:miter;stroke-width:1.25;"/>
   </g>
   <g id="patch_6">
    <path d="M 65.62925 21.168 
L 347.7465 21.168 
" style="fill:none;stroke:#262626;stroke-linecap:square;stroke-linejoin:miter;stroke-width:1.25;"/>
   </g>
  </g>
  <g id="axes_2">
   <g id="patch_7">
    <path d="M 421.172 307.57825 
L 703.28925 307.57825 
L 703.28925 21.168 
L 421.172 21.168 
z
" style="fill:#ffffff;"/>
   </g>
   <g id="matplotlib.axis_3">
    <g id="xtick_7">
     <g id="line2d_42">
      <g>
       <use style="fill:#262626;stroke:#262626;" x="421.172" xlink:href="#m18c74a2fa2" y="307.57825"/>
      </g>
     </g>
     <g id="text_13">
      <!-- 0 -->
      <g style="fill:#262626;" transform="translate(417.557391 329.883406)scale(0.13 -0.13)">
       <use xlink:href="#ArialMT-30"/>
      </g>
     </g>
    </g>
    <g id="xtick_8">
     <g id="line2d_43">
      <g>
       <use style="fill:#262626;stroke:#262626;" x="499.296685" xlink:href="#m18c74a2fa2" y="307.57825"/>
      </g>
     </g>
     <g id="text_14">
      <!-- 500 -->
      <defs>
       <path d="M 4.15625 18.75 
L 13.375 19.53125 
Q 14.40625 12.796875 18.140625 9.390625 
Q 21.875 6 27.15625 6 
Q 33.5 6 37.890625 10.78125 
Q 42.28125 15.578125 42.28125 23.484375 
Q 42.28125 31 38.0625 35.34375 
Q 33.84375 39.703125 27 39.703125 
Q 22.75 39.703125 19.328125 37.765625 
Q 15.921875 35.84375 13.96875 32.765625 
L 5.71875 33.84375 
L 12.640625 70.609375 
L 48.25 70.609375 
L 48.25 62.203125 
L 19.671875 62.203125 
L 15.828125 42.96875 
Q 22.265625 47.46875 29.34375 47.46875 
Q 38.71875 47.46875 45.15625 40.96875 
Q 51.609375 34.46875 51.609375 24.265625 
Q 51.609375 14.546875 45.953125 7.46875 
Q 39.0625 -1.21875 27.15625 -1.21875 
Q 17.390625 -1.21875 11.203125 4.25 
Q 5.03125 9.71875 4.15625 18.75 
" id="ArialMT-35"/>
      </defs>
      <g style="fill:#262626;" transform="translate(488.452857 329.883406)scale(0.13 -0.13)">
       <use xlink:href="#ArialMT-35"/>
       <use x="55.615234" xlink:href="#ArialMT-30"/>
       <use x="111.230469" xlink:href="#ArialMT-30"/>
      </g>
     </g>
    </g>
    <g id="xtick_9">
     <g id="line2d_44">
      <g>
       <use style="fill:#262626;stroke:#262626;" x="577.42137" xlink:href="#m18c74a2fa2" y="307.57825"/>
      </g>
     </g>
     <g id="text_15">
      <!-- 1000 -->
      <g style="fill:#262626;" transform="translate(562.962932 329.883406)scale(0.13 -0.13)">
       <use xlink:href="#ArialMT-31"/>
       <use x="55.615234" xlink:href="#ArialMT-30"/>
       <use x="111.230469" xlink:href="#ArialMT-30"/>
       <use x="166.845703" xlink:href="#ArialMT-30"/>
      </g>
     </g>
    </g>
    <g id="xtick_10">
     <g id="line2d_45">
      <g>
       <use style="fill:#262626;stroke:#262626;" x="655.546055" xlink:href="#m18c74a2fa2" y="307.57825"/>
      </g>
     </g>
     <g id="text_16">
      <!-- 1500 -->
      <g style="fill:#262626;" transform="translate(641.087617 329.883406)scale(0.13 -0.13)">
       <use xlink:href="#ArialMT-31"/>
       <use x="55.615234" xlink:href="#ArialMT-35"/>
       <use x="111.230469" xlink:href="#ArialMT-30"/>
       <use x="166.845703" xlink:href="#ArialMT-30"/>
      </g>
     </g>
    </g>
    <g id="text_17">
     <!-- Shortwave Heating Rate -->
     <defs>
      <path d="M 4.5 23 
L 13.421875 23.78125 
Q 14.0625 18.40625 16.375 14.96875 
Q 18.703125 11.53125 23.578125 9.40625 
Q 28.46875 7.28125 34.578125 7.28125 
Q 39.984375 7.28125 44.140625 8.890625 
Q 48.296875 10.5 50.3125 13.296875 
Q 52.34375 16.109375 52.34375 19.4375 
Q 52.34375 22.796875 50.390625 25.3125 
Q 48.4375 27.828125 43.953125 29.546875 
Q 41.0625 30.671875 31.203125 33.03125 
Q 21.34375 35.40625 17.390625 37.5 
Q 12.25 40.1875 9.734375 44.15625 
Q 7.234375 48.140625 7.234375 53.078125 
Q 7.234375 58.5 10.296875 63.203125 
Q 13.375 67.921875 19.28125 70.359375 
Q 25.203125 72.796875 32.421875 72.796875 
Q 40.375 72.796875 46.453125 70.234375 
Q 52.546875 67.671875 55.8125 62.6875 
Q 59.078125 57.71875 59.328125 51.421875 
L 50.25 50.734375 
Q 49.515625 57.515625 45.28125 60.984375 
Q 41.0625 64.453125 32.8125 64.453125 
Q 24.21875 64.453125 20.28125 61.296875 
Q 16.359375 58.15625 16.359375 53.71875 
Q 16.359375 49.859375 19.140625 47.359375 
Q 21.875 44.875 33.421875 42.265625 
Q 44.96875 39.65625 49.265625 37.703125 
Q 55.515625 34.8125 58.484375 30.390625 
Q 61.46875 25.984375 61.46875 20.21875 
Q 61.46875 14.5 58.203125 9.4375 
Q 54.9375 4.390625 48.796875 1.578125 
Q 42.671875 -1.21875 35.015625 -1.21875 
Q 25.296875 -1.21875 18.71875 1.609375 
Q 12.15625 4.4375 8.421875 10.125 
Q 4.6875 15.828125 4.5 23 
" id="ArialMT-53"/>
      <path d="M 6.59375 0 
L 6.59375 71.578125 
L 15.375 71.578125 
L 15.375 45.90625 
Q 21.53125 53.03125 30.90625 53.03125 
Q 36.671875 53.03125 40.921875 50.75 
Q 45.171875 48.484375 47 44.484375 
Q 48.828125 40.484375 48.828125 32.859375 
L 48.828125 0 
L 40.046875 0 
L 40.046875 32.859375 
Q 40.046875 39.453125 37.1875 42.453125 
Q 34.328125 45.453125 29.109375 45.453125 
Q 25.203125 45.453125 21.75 43.421875 
Q 18.3125 41.40625 16.84375 37.9375 
Q 15.375 34.46875 15.375 28.375 
L 15.375 0 
z
" id="ArialMT-68"/>
      <path d="M 3.328125 25.921875 
Q 3.328125 40.328125 11.328125 47.265625 
Q 18.015625 53.03125 27.640625 53.03125 
Q 38.328125 53.03125 45.109375 46.015625 
Q 51.90625 39.015625 51.90625 26.65625 
Q 51.90625 16.65625 48.90625 10.90625 
Q 45.90625 5.171875 40.15625 2 
Q 34.421875 -1.171875 27.640625 -1.171875 
Q 16.75 -1.171875 10.03125 5.8125 
Q 3.328125 12.796875 3.328125 25.921875 
M 12.359375 25.921875 
Q 12.359375 15.96875 16.703125 11.015625 
Q 21.046875 6.0625 27.640625 6.0625 
Q 34.1875 6.0625 38.53125 11.03125 
Q 42.875 16.015625 42.875 26.21875 
Q 42.875 35.84375 38.5 40.796875 
Q 34.125 45.75 27.640625 45.75 
Q 21.046875 45.75 16.703125 40.8125 
Q 12.359375 35.890625 12.359375 25.921875 
" id="ArialMT-6f"/>
      <path d="M 16.15625 0 
L 0.296875 51.859375 
L 9.375 51.859375 
L 17.625 21.921875 
L 20.703125 10.796875 
Q 20.90625 11.625 23.390625 21.484375 
L 31.640625 51.859375 
L 40.671875 51.859375 
L 48.4375 21.78125 
L 51.03125 11.859375 
L 54 21.875 
L 62.890625 51.859375 
L 71.4375 51.859375 
L 55.21875 0 
L 46.09375 0 
L 37.84375 31.0625 
L 35.84375 39.890625 
L 25.34375 0 
z
" id="ArialMT-77"/>
      <path d="M 21 0 
L 1.265625 51.859375 
L 10.546875 51.859375 
L 21.6875 20.796875 
Q 23.484375 15.765625 25 10.359375 
Q 26.171875 14.453125 28.265625 20.21875 
L 39.796875 51.859375 
L 48.828125 51.859375 
L 29.203125 0 
z
" id="ArialMT-76"/>
      <path d="M 8.015625 0 
L 8.015625 71.578125 
L 17.484375 71.578125 
L 17.484375 42.1875 
L 54.6875 42.1875 
L 54.6875 71.578125 
L 64.15625 71.578125 
L 64.15625 0 
L 54.6875 0 
L 54.6875 33.734375 
L 17.484375 33.734375 
L 17.484375 0 
z
" id="ArialMT-48"/>
      <path d="M 6.640625 61.46875 
L 6.640625 71.578125 
L 15.4375 71.578125 
L 15.4375 61.46875 
z
M 6.640625 0 
L 6.640625 51.859375 
L 15.4375 51.859375 
L 15.4375 0 
z
" id="ArialMT-69"/>
      <path d="M 6.59375 0 
L 6.59375 51.859375 
L 14.5 51.859375 
L 14.5 44.484375 
Q 20.21875 53.03125 31 53.03125 
Q 35.6875 53.03125 39.625 51.34375 
Q 43.5625 49.65625 45.515625 46.921875 
Q 47.46875 44.1875 48.25 40.4375 
Q 48.734375 37.984375 48.734375 31.890625 
L 48.734375 0 
L 39.9375 0 
L 39.9375 31.546875 
Q 39.9375 36.921875 38.90625 39.578125 
Q 37.890625 42.234375 35.28125 43.8125 
Q 32.671875 45.40625 29.15625 45.40625 
Q 23.53125 45.40625 19.453125 41.84375 
Q 15.375 38.28125 15.375 28.328125 
L 15.375 0 
z
" id="ArialMT-6e"/>
      <path d="M 4.984375 -4.296875 
L 13.53125 -5.5625 
Q 14.0625 -9.515625 16.5 -11.328125 
Q 19.78125 -13.765625 25.4375 -13.765625 
Q 31.546875 -13.765625 34.859375 -11.328125 
Q 38.1875 -8.890625 39.359375 -4.5 
Q 40.046875 -1.8125 39.984375 6.78125 
Q 34.234375 0 25.640625 0 
Q 14.9375 0 9.078125 7.71875 
Q 3.21875 15.4375 3.21875 26.21875 
Q 3.21875 33.640625 5.90625 39.90625 
Q 8.59375 46.1875 13.6875 49.609375 
Q 18.796875 53.03125 25.6875 53.03125 
Q 34.859375 53.03125 40.828125 45.609375 
L 40.828125 51.859375 
L 48.921875 51.859375 
L 48.921875 7.03125 
Q 48.921875 -5.078125 46.453125 -10.125 
Q 44 -15.1875 38.640625 -18.109375 
Q 33.296875 -21.046875 25.484375 -21.046875 
Q 16.21875 -21.046875 10.5 -16.875 
Q 4.78125 -12.703125 4.984375 -4.296875 
M 12.25 26.859375 
Q 12.25 16.65625 16.296875 11.96875 
Q 20.359375 7.28125 26.46875 7.28125 
Q 32.515625 7.28125 36.609375 11.9375 
Q 40.71875 16.609375 40.71875 26.5625 
Q 40.71875 36.078125 36.5 40.90625 
Q 32.28125 45.75 26.3125 45.75 
Q 20.453125 45.75 16.34375 40.984375 
Q 12.25 36.234375 12.25 26.859375 
" id="ArialMT-67"/>
      <path d="M 7.859375 0 
L 7.859375 71.578125 
L 39.59375 71.578125 
Q 49.171875 71.578125 54.140625 69.640625 
Q 59.125 67.71875 62.109375 62.828125 
Q 65.09375 57.953125 65.09375 52.046875 
Q 65.09375 44.4375 60.15625 39.203125 
Q 55.21875 33.984375 44.921875 32.5625 
Q 48.6875 30.765625 50.640625 29 
Q 54.78125 25.203125 58.5 19.484375 
L 70.953125 0 
L 59.03125 0 
L 49.5625 14.890625 
Q 45.40625 21.34375 42.71875 24.75 
Q 40.046875 28.171875 37.921875 29.53125 
Q 35.796875 30.90625 33.59375 31.453125 
Q 31.984375 31.78125 28.328125 31.78125 
L 17.328125 31.78125 
L 17.328125 0 
z
M 17.328125 39.984375 
L 37.703125 39.984375 
Q 44.1875 39.984375 47.84375 41.328125 
Q 51.515625 42.671875 53.421875 45.625 
Q 55.328125 48.578125 55.328125 52.046875 
Q 55.328125 57.125 51.640625 60.390625 
Q 47.953125 63.671875 39.984375 63.671875 
L 17.328125 63.671875 
z
" id="ArialMT-52"/>
     </defs>
     <g style="fill:#262626;" transform="translate(484.733563 346.877109)scale(0.143 -0.143)">
      <use xlink:href="#ArialMT-53"/>
      <use x="66.699219" xlink:href="#ArialMT-68"/>
      <use x="122.314453" xlink:href="#ArialMT-6f"/>
      <use x="177.929688" xlink:href="#ArialMT-72"/>
      <use x="211.230469" xlink:href="#ArialMT-74"/>
      <use x="239.013672" xlink:href="#ArialMT-77"/>
      <use x="311.230469" xlink:href="#ArialMT-61"/>
      <use x="366.845703" xlink:href="#ArialMT-76"/>
      <use x="416.845703" xlink:href="#ArialMT-65"/>
      <use x="472.460938" xlink:href="#ArialMT-20"/>
      <use x="500.244141" xlink:href="#ArialMT-48"/>
      <use x="572.460938" xlink:href="#ArialMT-65"/>
      <use x="628.076172" xlink:href="#ArialMT-61"/>
      <use x="683.691406" xlink:href="#ArialMT-74"/>
      <use x="711.474609" xlink:href="#ArialMT-69"/>
      <use x="733.691406" xlink:href="#ArialMT-6e"/>
      <use x="789.306641" xlink:href="#ArialMT-67"/>
      <use x="844.921875" xlink:href="#ArialMT-20"/>
      <use x="872.705078" xlink:href="#ArialMT-52"/>
      <use x="944.921875" xlink:href="#ArialMT-61"/>
      <use x="1000.537109" xlink:href="#ArialMT-74"/>
      <use x="1028.320312" xlink:href="#ArialMT-65"/>
     </g>
    </g>
   </g>
   <g id="matplotlib.axis_4">
    <g id="ytick_35">
     <g id="line2d_46">
      <g>
       <use style="fill:#262626;stroke:#262626;" x="421.172" xlink:href="#mf2265ff177" y="53.117602"/>
      </g>
     </g>
     <g id="text_18">
      <!-- ${10^{-2}}$ -->
      <g style="fill:#262626;" transform="translate(377.622 57.870727)scale(0.13 -0.13)">
       <use transform="translate(0 0.765625)" xlink:href="#DejaVuSans-31"/>
       <use transform="translate(63.623047 0.765625)" xlink:href="#DejaVuSans-30"/>
       <use transform="translate(128.203125 39.046875)scale(0.7)" xlink:href="#DejaVuSans-2212"/>
       <use transform="translate(186.855469 39.046875)scale(0.7)" xlink:href="#DejaVuSans-32"/>
      </g>
     </g>
    </g>
    <g id="ytick_36">
     <g id="line2d_47">
      <g>
       <use style="fill:#262626;stroke:#262626;" x="421.172" xlink:href="#mf2265ff177" y="133.656711"/>
      </g>
     </g>
     <g id="text_19">
      <!-- ${10^{-1}}$ -->
      <g style="fill:#262626;" transform="translate(377.622 138.344836)scale(0.13 -0.13)">
       <use transform="translate(0 0.684375)" xlink:href="#DejaVuSans-31"/>
       <use transform="translate(63.623047 0.684375)" xlink:href="#DejaVuSans-30"/>
       <use transform="translate(128.203125 38.965625)scale(0.7)" xlink:href="#DejaVuSans-2212"/>
       <use transform="translate(186.855469 38.965625)scale(0.7)" xlink:href="#DejaVuSans-31"/>
      </g>
     </g>
    </g>
    <g id="ytick_37">
     <g id="line2d_48">
      <g>
       <use style="fill:#262626;stroke:#262626;" x="421.172" xlink:href="#mf2265ff177" y="214.19582"/>
      </g>
     </g>
     <g id="text_20">
      <!-- ${10^{0}}$ -->
      <g style="fill:#262626;" transform="translate(385.292 218.948945)scale(0.13 -0.13)">
       <use transform="translate(0 0.765625)" xlink:href="#DejaVuSans-31"/>
       <use transform="translate(63.623047 0.765625)" xlink:href="#DejaVuSans-30"/>
       <use transform="translate(128.203125 39.046875)scale(0.7)" xlink:href="#DejaVuSans-30"/>
      </g>
     </g>
    </g>
    <g id="ytick_38">
     <g id="line2d_49">
      <g>
       <use style="fill:#262626;stroke:#262626;" x="421.172" xlink:href="#mf2265ff177" y="294.734929"/>
      </g>
     </g>
     <g id="text_21">
      <!-- ${10^{1}}$ -->
      <g style="fill:#262626;" transform="translate(385.292 299.423054)scale(0.13 -0.13)">
       <use transform="translate(0 0.684375)" xlink:href="#DejaVuSans-31"/>
       <use transform="translate(63.623047 0.684375)" xlink:href="#DejaVuSans-30"/>
       <use transform="translate(128.203125 38.965625)scale(0.7)" xlink:href="#DejaVuSans-31"/>
      </g>
     </g>
    </g>
    <g id="ytick_39">
     <g id="line2d_50">
      <g>
       <use style="fill:#262626;stroke:#262626;stroke-width:0.5;" x="421.172" xlink:href="#m40b46a7367" y="21.067868"/>
      </g>
     </g>
    </g>
    <g id="ytick_40">
     <g id="line2d_51">
      <g>
       <use style="fill:#262626;stroke:#262626;stroke-width:0.5;" x="421.172" xlink:href="#m40b46a7367" y="28.872914"/>
      </g>
     </g>
    </g>
    <g id="ytick_41">
     <g id="line2d_52">
      <g>
       <use style="fill:#262626;stroke:#262626;stroke-width:0.5;" x="421.172" xlink:href="#m40b46a7367" y="35.250101"/>
      </g>
     </g>
    </g>
    <g id="ytick_42">
     <g id="line2d_53">
      <g>
       <use style="fill:#262626;stroke:#262626;stroke-width:0.5;" x="421.172" xlink:href="#m40b46a7367" y="40.641936"/>
      </g>
     </g>
    </g>
    <g id="ytick_43">
     <g id="line2d_54">
      <g>
       <use style="fill:#262626;stroke:#262626;stroke-width:0.5;" x="421.172" xlink:href="#m40b46a7367" y="45.312556"/>
      </g>
     </g>
    </g>
    <g id="ytick_44">
     <g id="line2d_55">
      <g>
       <use style="fill:#262626;stroke:#262626;stroke-width:0.5;" x="421.172" xlink:href="#m40b46a7367" y="49.432334"/>
      </g>
     </g>
    </g>
    <g id="ytick_45">
     <g id="line2d_56">
      <g>
       <use style="fill:#262626;stroke:#262626;stroke-width:0.5;" x="421.172" xlink:href="#m40b46a7367" y="77.362289"/>
      </g>
     </g>
    </g>
    <g id="ytick_46">
     <g id="line2d_57">
      <g>
       <use style="fill:#262626;stroke:#262626;stroke-width:0.5;" x="421.172" xlink:href="#m40b46a7367" y="91.544523"/>
      </g>
     </g>
    </g>
    <g id="ytick_47">
     <g id="line2d_58">
      <g>
       <use style="fill:#262626;stroke:#262626;stroke-width:0.5;" x="421.172" xlink:href="#m40b46a7367" y="101.606977"/>
      </g>
     </g>
    </g>
    <g id="ytick_48">
     <g id="line2d_59">
      <g>
       <use style="fill:#262626;stroke:#262626;stroke-width:0.5;" x="421.172" xlink:href="#m40b46a7367" y="109.412023"/>
      </g>
     </g>
    </g>
    <g id="ytick_49">
     <g id="line2d_60">
      <g>
       <use style="fill:#262626;stroke:#262626;stroke-width:0.5;" x="421.172" xlink:href="#m40b46a7367" y="115.78921"/>
      </g>
     </g>
    </g>
    <g id="ytick_50">
     <g id="line2d_61">
      <g>
       <use style="fill:#262626;stroke:#262626;stroke-width:0.5;" x="421.172" xlink:href="#m40b46a7367" y="121.181045"/>
      </g>
     </g>
    </g>
    <g id="ytick_51">
     <g id="line2d_62">
      <g>
       <use style="fill:#262626;stroke:#262626;stroke-width:0.5;" x="421.172" xlink:href="#m40b46a7367" y="125.851665"/>
      </g>
     </g>
    </g>
    <g id="ytick_52">
     <g id="line2d_63">
      <g>
       <use style="fill:#262626;stroke:#262626;stroke-width:0.5;" x="421.172" xlink:href="#m40b46a7367" y="129.971443"/>
      </g>
     </g>
    </g>
    <g id="ytick_53">
     <g id="line2d_64">
      <g>
       <use style="fill:#262626;stroke:#262626;stroke-width:0.5;" x="421.172" xlink:href="#m40b46a7367" y="157.901399"/>
      </g>
     </g>
    </g>
    <g id="ytick_54">
     <g id="line2d_65">
      <g>
       <use style="fill:#262626;stroke:#262626;stroke-width:0.5;" x="421.172" xlink:href="#m40b46a7367" y="172.083632"/>
      </g>
     </g>
    </g>
    <g id="ytick_55">
     <g id="line2d_66">
      <g>
       <use style="fill:#262626;stroke:#262626;stroke-width:0.5;" x="421.172" xlink:href="#m40b46a7367" y="182.146086"/>
      </g>
     </g>
    </g>
    <g id="ytick_56">
     <g id="line2d_67">
      <g>
       <use style="fill:#262626;stroke:#262626;stroke-width:0.5;" x="421.172" xlink:href="#m40b46a7367" y="189.951132"/>
      </g>
     </g>
    </g>
    <g id="ytick_57">
     <g id="line2d_68">
      <g>
       <use style="fill:#262626;stroke:#262626;stroke-width:0.5;" x="421.172" xlink:href="#m40b46a7367" y="196.328319"/>
      </g>
     </g>
    </g>
    <g id="ytick_58">
     <g id="line2d_69">
      <g>
       <use style="fill:#262626;stroke:#262626;stroke-width:0.5;" x="421.172" xlink:href="#m40b46a7367" y="201.720154"/>
      </g>
     </g>
    </g>
    <g id="ytick_59">
     <g id="line2d_70">
      <g>
       <use style="fill:#262626;stroke:#262626;stroke-width:0.5;" x="421.172" xlink:href="#m40b46a7367" y="206.390774"/>
      </g>
     </g>
    </g>
    <g id="ytick_60">
     <g id="line2d_71">
      <g>
       <use style="fill:#262626;stroke:#262626;stroke-width:0.5;" x="421.172" xlink:href="#m40b46a7367" y="210.510553"/>
      </g>
     </g>
    </g>
    <g id="ytick_61">
     <g id="line2d_72">
      <g>
       <use style="fill:#262626;stroke:#262626;stroke-width:0.5;" x="421.172" xlink:href="#m40b46a7367" y="238.440508"/>
      </g>
     </g>
    </g>
    <g id="ytick_62">
     <g id="line2d_73">
      <g>
       <use style="fill:#262626;stroke:#262626;stroke-width:0.5;" x="421.172" xlink:href="#m40b46a7367" y="252.622741"/>
      </g>
     </g>
    </g>
    <g id="ytick_63">
     <g id="line2d_74">
      <g>
       <use style="fill:#262626;stroke:#262626;stroke-width:0.5;" x="421.172" xlink:href="#m40b46a7367" y="262.685196"/>
      </g>
     </g>
    </g>
    <g id="ytick_64">
     <g id="line2d_75">
      <g>
       <use style="fill:#262626;stroke:#262626;stroke-width:0.5;" x="421.172" xlink:href="#m40b46a7367" y="270.490242"/>
      </g>
     </g>
    </g>
    <g id="ytick_65">
     <g id="line2d_76">
      <g>
       <use style="fill:#262626;stroke:#262626;stroke-width:0.5;" x="421.172" xlink:href="#m40b46a7367" y="276.867429"/>
      </g>
     </g>
    </g>
    <g id="ytick_66">
     <g id="line2d_77">
      <g>
       <use style="fill:#262626;stroke:#262626;stroke-width:0.5;" x="421.172" xlink:href="#m40b46a7367" y="282.259264"/>
      </g>
     </g>
    </g>
    <g id="ytick_67">
     <g id="line2d_78">
      <g>
       <use style="fill:#262626;stroke:#262626;stroke-width:0.5;" x="421.172" xlink:href="#m40b46a7367" y="286.929883"/>
      </g>
     </g>
    </g>
    <g id="ytick_68">
     <g id="line2d_79">
      <g>
       <use style="fill:#262626;stroke:#262626;stroke-width:0.5;" x="421.172" xlink:href="#m40b46a7367" y="291.049662"/>
      </g>
     </g>
    </g>
    <g id="text_22">
     <!-- Pressure (bar) -->
     <g style="fill:#262626;" transform="translate(370.612297 210.062742)rotate(-90)scale(0.143 -0.143)">
      <use xlink:href="#ArialMT-50"/>
      <use x="66.699219" xlink:href="#ArialMT-72"/>
      <use x="100" xlink:href="#ArialMT-65"/>
      <use x="155.615234" xlink:href="#ArialMT-73"/>
      <use x="205.615234" xlink:href="#ArialMT-73"/>
      <use x="255.615234" xlink:href="#ArialMT-75"/>
      <use x="311.230469" xlink:href="#ArialMT-72"/>
      <use x="344.53125" xlink:href="#ArialMT-65"/>
      <use x="400.146484" xlink:href="#ArialMT-20"/>
      <use x="427.929688" xlink:href="#ArialMT-28"/>
      <use x="461.230469" xlink:href="#ArialMT-62"/>
      <use x="516.845703" xlink:href="#ArialMT-61"/>
      <use x="572.460938" xlink:href="#ArialMT-72"/>
      <use x="605.761719" xlink:href="#ArialMT-29"/>
     </g>
    </g>
   </g>
   <g id="line2d_80">
    <path clip-path="url(#pe9bb8cfedc)" d="M 431.952543 34.186648 
L 433.58108 39.500381 
L 434.796867 44.814115 
L 436.195363 50.127849 
L 437.618833 55.441583 
L 439.478603 60.755317 
L 441.318451 66.06905 
L 443.570494 71.382784 
L 446.081064 76.696518 
L 448.876509 82.010252 
L 451.992608 87.323985 
L 455.154328 92.637719 
L 458.235182 97.951453 
L 461.04532 103.265187 
L 463.612892 108.57892 
L 466.231552 113.892654 
L 469.253118 119.206388 
L 472.825205 124.520122 
L 478.899133 129.833856 
L 484.624794 135.147589 
L 489.482495 140.461323 
L 496.273268 145.775057 
L 507.077539 151.088791 
L 515.484898 156.402524 
L 524.631532 161.716258 
L 536.565335 167.029992 
L 562.515758 172.343726 
L 612.035679 177.657459 
L 608.352317 182.971193 
L 580.086583 188.284927 
L 554.680144 193.598661 
L 528.59862 198.912394 
L 504.143543 204.226128 
L 485.008355 209.539862 
L 470.469201 214.853596 
L 533.762879 220.16733 
L 552.148635 225.481063 
L 577.047683 230.794797 
L 606.459358 236.108531 
L 637.860121 241.422265 
L 666.74783 246.735998 
L 686.209593 252.049732 
L 690.368454 257.363466 
L 677.871347 262.6772 
L 650.614739 267.990933 
L 613.705193 273.304667 
L 593.679735 278.618401 
L 570.481576 283.932135 
L 544.733704 289.245869 
L 527.897758 294.559602 
" style="fill:none;stroke:#4c72b0;stroke-linecap:round;stroke-width:1.2;"/>
   </g>
   <g id="line2d_81">
    <path clip-path="url(#pe9bb8cfedc)" d="M 421.172 140.461323 
L 703.28925 140.461323 
" style="fill:none;stroke:#c44e52;stroke-linecap:round;stroke-width:1.2;"/>
   </g>
   <g id="line2d_82">
    <path clip-path="url(#pe9bb8cfedc)" d="M 421.172 220.16733 
L 703.28925 220.16733 
" style="fill:none;stroke:#55a868;stroke-linecap:round;stroke-width:1.2;"/>
   </g>
   <g id="line2d_83">
    <path clip-path="url(#pe9bb8cfedc)" d="M 421.172 294.559602 
L 703.28925 294.559602 
" style="fill:none;stroke:#8172b2;stroke-linecap:round;stroke-width:1.2;"/>
   </g>
   <g id="patch_8">
    <path d="M 421.172 307.57825 
L 421.172 21.168 
" style="fill:none;stroke:#262626;stroke-linecap:square;stroke-linejoin:miter;stroke-width:1.25;"/>
   </g>
   <g id="patch_9">
    <path d="M 703.28925 307.57825 
L 703.28925 21.168 
" style="fill:none;stroke:#262626;stroke-linecap:square;stroke-linejoin:miter;stroke-width:1.25;"/>
   </g>
   <g id="patch_10">
    <path d="M 421.172 307.57825 
L 703.28925 307.57825 
" style="fill:none;stroke:#262626;stroke-linecap:square;stroke-linejoin:miter;stroke-width:1.25;"/>
   </g>
   <g id="patch_11">
    <path d="M 421.172 21.168 
L 703.28925 21.168 
" style="fill:none;stroke:#262626;stroke-linecap:square;stroke-linejoin:miter;stroke-width:1.25;"/>
   </g>
  </g>
  <g id="axes_3">
   <g id="patch_12">
    <path d="M 776.71475 307.57825 
L 1058.832 307.57825 
L 1058.832 21.168 
L 776.71475 21.168 
z
" style="fill:#ffffff;"/>
   </g>
   <g id="matplotlib.axis_5">
    <g id="xtick_11">
     <g id="line2d_84">
      <g>
       <use style="fill:#262626;stroke:#262626;" x="776.71475" xlink:href="#m18c74a2fa2" y="307.57825"/>
      </g>
     </g>
     <g id="text_23">
      <!-- ${10^{3}}$ -->
      <defs>
       <path d="M 40.578125 39.3125 
Q 47.65625 37.796875 51.625 33 
Q 55.609375 28.21875 55.609375 21.1875 
Q 55.609375 10.40625 48.1875 4.484375 
Q 40.765625 -1.421875 27.09375 -1.421875 
Q 22.515625 -1.421875 17.65625 -0.515625 
Q 12.796875 0.390625 7.625 2.203125 
L 7.625 11.71875 
Q 11.71875 9.328125 16.59375 8.109375 
Q 21.484375 6.890625 26.8125 6.890625 
Q 36.078125 6.890625 40.9375 10.546875 
Q 45.796875 14.203125 45.796875 21.1875 
Q 45.796875 27.640625 41.28125 31.265625 
Q 36.765625 34.90625 28.71875 34.90625 
L 20.21875 34.90625 
L 20.21875 43.015625 
L 29.109375 43.015625 
Q 36.375 43.015625 40.234375 45.921875 
Q 44.09375 48.828125 44.09375 54.296875 
Q 44.09375 59.90625 40.109375 62.90625 
Q 36.140625 65.921875 28.71875 65.921875 
Q 24.65625 65.921875 20.015625 65.03125 
Q 15.375 64.15625 9.8125 62.3125 
L 9.8125 71.09375 
Q 15.4375 72.65625 20.34375 73.4375 
Q 25.25 74.21875 29.59375 74.21875 
Q 40.828125 74.21875 47.359375 69.109375 
Q 53.90625 64.015625 53.90625 55.328125 
Q 53.90625 49.265625 50.4375 45.09375 
Q 46.96875 40.921875 40.578125 39.3125 
" id="DejaVuSans-33"/>
      </defs>
      <g style="fill:#262626;" transform="translate(765.27475 330.0845)scale(0.13 -0.13)">
       <use transform="translate(0 0.765625)" xlink:href="#DejaVuSans-31"/>
       <use transform="translate(63.623047 0.765625)" xlink:href="#DejaVuSans-30"/>
       <use transform="translate(128.203125 39.046875)scale(0.7)" xlink:href="#DejaVuSans-33"/>
      </g>
     </g>
    </g>
    <g id="xtick_12">
     <g id="line2d_85">
      <g>
       <use style="fill:#262626;stroke:#262626;" x="967.70601" xlink:href="#m18c74a2fa2" y="307.57825"/>
      </g>
     </g>
     <g id="text_24">
      <!-- ${10^{4}}$ -->
      <defs>
       <path d="M 37.796875 64.3125 
L 12.890625 25.390625 
L 37.796875 25.390625 
z
M 35.203125 72.90625 
L 47.609375 72.90625 
L 47.609375 25.390625 
L 58.015625 25.390625 
L 58.015625 17.1875 
L 47.609375 17.1875 
L 47.609375 0 
L 37.796875 0 
L 37.796875 17.1875 
L 4.890625 17.1875 
L 4.890625 26.703125 
z
" id="DejaVuSans-34"/>
      </defs>
      <g style="fill:#262626;" transform="translate(956.26601 329.9545)scale(0.13 -0.13)">
       <use transform="translate(0 0.684375)" xlink:href="#DejaVuSans-31"/>
       <use transform="translate(63.623047 0.684375)" xlink:href="#DejaVuSans-30"/>
       <use transform="translate(128.203125 38.965625)scale(0.7)" xlink:href="#DejaVuSans-34"/>
      </g>
     </g>
    </g>
    <g id="xtick_13">
     <g id="line2d_86">
      <defs>
       <path d="M 0 0 
L 0 3 
" id="m54f0e55de9" style="stroke:#262626;stroke-width:0.5;"/>
      </defs>
      <g>
       <use style="fill:#262626;stroke:#262626;stroke-width:0.5;" x="834.208848" xlink:href="#m54f0e55de9" y="307.57825"/>
      </g>
     </g>
    </g>
    <g id="xtick_14">
     <g id="line2d_87">
      <g>
       <use style="fill:#262626;stroke:#262626;stroke-width:0.5;" x="867.84074" xlink:href="#m54f0e55de9" y="307.57825"/>
      </g>
     </g>
    </g>
    <g id="xtick_15">
     <g id="line2d_88">
      <g>
       <use style="fill:#262626;stroke:#262626;stroke-width:0.5;" x="891.702946" xlink:href="#m54f0e55de9" y="307.57825"/>
      </g>
     </g>
    </g>
    <g id="xtick_16">
     <g id="line2d_89">
      <g>
       <use style="fill:#262626;stroke:#262626;stroke-width:0.5;" x="910.211912" xlink:href="#m54f0e55de9" y="307.57825"/>
      </g>
     </g>
    </g>
    <g id="xtick_17">
     <g id="line2d_90">
      <g>
       <use style="fill:#262626;stroke:#262626;stroke-width:0.5;" x="925.334838" xlink:href="#m54f0e55de9" y="307.57825"/>
      </g>
     </g>
    </g>
    <g id="xtick_18">
     <g id="line2d_91">
      <g>
       <use style="fill:#262626;stroke:#262626;stroke-width:0.5;" x="938.12109" xlink:href="#m54f0e55de9" y="307.57825"/>
      </g>
     </g>
    </g>
    <g id="xtick_19">
     <g id="line2d_92">
      <g>
       <use style="fill:#262626;stroke:#262626;stroke-width:0.5;" x="949.197045" xlink:href="#m54f0e55de9" y="307.57825"/>
      </g>
     </g>
    </g>
    <g id="xtick_20">
     <g id="line2d_93">
      <g>
       <use style="fill:#262626;stroke:#262626;stroke-width:0.5;" x="958.966729" xlink:href="#m54f0e55de9" y="307.57825"/>
      </g>
     </g>
    </g>
    <g id="xtick_21">
     <g id="line2d_94">
      <g>
       <use style="fill:#262626;stroke:#262626;stroke-width:0.5;" x="1025.200109" xlink:href="#m54f0e55de9" y="307.57825"/>
      </g>
     </g>
    </g>
    <g id="xtick_22">
     <g id="line2d_95">
      <g>
       <use style="fill:#262626;stroke:#262626;stroke-width:0.5;" x="1058.832" xlink:href="#m54f0e55de9" y="307.57825"/>
      </g>
     </g>
    </g>
    <g id="text_25">
     <!-- Wavenumber -->
     <defs>
      <path d="M 20.21875 0 
L 1.21875 71.578125 
L 10.9375 71.578125 
L 21.828125 24.65625 
Q 23.578125 17.28125 24.859375 10.015625 
Q 27.59375 21.484375 28.078125 23.25 
L 41.703125 71.578125 
L 53.125 71.578125 
L 63.375 35.359375 
Q 67.234375 21.875 68.953125 10.015625 
Q 70.3125 16.796875 72.515625 25.59375 
L 83.734375 71.578125 
L 93.265625 71.578125 
L 73.640625 0 
L 64.5 0 
L 49.421875 54.546875 
Q 47.515625 61.375 47.171875 62.9375 
Q 46.046875 58.015625 45.0625 54.546875 
L 29.890625 0 
z
" id="ArialMT-57"/>
     </defs>
     <g style="fill:#262626;" transform="translate(875.259922 346.903922)scale(0.143 -0.143)">
      <use xlink:href="#ArialMT-57"/>
      <use x="94.337891" xlink:href="#ArialMT-61"/>
      <use x="149.953125" xlink:href="#ArialMT-76"/>
      <use x="199.953125" xlink:href="#ArialMT-65"/>
      <use x="255.568359" xlink:href="#ArialMT-6e"/>
      <use x="311.183594" xlink:href="#ArialMT-75"/>
      <use x="366.798828" xlink:href="#ArialMT-6d"/>
      <use x="450.099609" xlink:href="#ArialMT-62"/>
      <use x="505.714844" xlink:href="#ArialMT-65"/>
      <use x="561.330078" xlink:href="#ArialMT-72"/>
     </g>
    </g>
   </g>
   <g id="matplotlib.axis_6">
    <g id="ytick_69">
     <g id="line2d_96">
      <g>
       <use style="fill:#262626;stroke:#262626;" x="776.71475" xlink:href="#mf2265ff177" y="294.559602"/>
      </g>
     </g>
     <g id="text_26">
      <!-- 0 -->
      <g style="fill:#262626;" transform="translate(756.485531 299.21218)scale(0.13 -0.13)">
       <use xlink:href="#ArialMT-30"/>
      </g>
     </g>
    </g>
    <g id="ytick_70">
     <g id="line2d_97">
      <g>
       <use style="fill:#262626;stroke:#262626;" x="776.71475" xlink:href="#mf2265ff177" y="255.253732"/>
      </g>
     </g>
     <g id="text_27">
      <!-- 2500 -->
      <g style="fill:#262626;" transform="translate(734.797875 259.90631)scale(0.13 -0.13)">
       <use xlink:href="#ArialMT-32"/>
       <use x="55.615234" xlink:href="#ArialMT-35"/>
       <use x="111.230469" xlink:href="#ArialMT-30"/>
       <use x="166.845703" xlink:href="#ArialMT-30"/>
      </g>
     </g>
    </g>
    <g id="ytick_71">
     <g id="line2d_98">
      <g>
       <use style="fill:#262626;stroke:#262626;" x="776.71475" xlink:href="#mf2265ff177" y="215.947862"/>
      </g>
     </g>
     <g id="text_28">
      <!-- 5000 -->
      <g style="fill:#262626;" transform="translate(734.797875 220.60044)scale(0.13 -0.13)">
       <use xlink:href="#ArialMT-35"/>
       <use x="55.615234" xlink:href="#ArialMT-30"/>
       <use x="111.230469" xlink:href="#ArialMT-30"/>
       <use x="166.845703" xlink:href="#ArialMT-30"/>
      </g>
     </g>
    </g>
    <g id="ytick_72">
     <g id="line2d_99">
      <g>
       <use style="fill:#262626;stroke:#262626;" x="776.71475" xlink:href="#mf2265ff177" y="176.641992"/>
      </g>
     </g>
     <g id="text_29">
      <!-- 7500 -->
      <defs>
       <path d="M 4.734375 62.203125 
L 4.734375 70.65625 
L 51.078125 70.65625 
L 51.078125 63.8125 
Q 44.234375 56.546875 37.515625 44.484375 
Q 30.8125 32.421875 27.15625 19.671875 
Q 24.515625 10.6875 23.78125 0 
L 14.75 0 
Q 14.890625 8.453125 18.0625 20.40625 
Q 21.234375 32.375 27.171875 43.484375 
Q 33.109375 54.59375 39.796875 62.203125 
z
" id="ArialMT-37"/>
      </defs>
      <g style="fill:#262626;" transform="translate(734.797875 181.29457)scale(0.13 -0.13)">
       <use xlink:href="#ArialMT-37"/>
       <use x="55.615234" xlink:href="#ArialMT-35"/>
       <use x="111.230469" xlink:href="#ArialMT-30"/>
       <use x="166.845703" xlink:href="#ArialMT-30"/>
      </g>
     </g>
    </g>
    <g id="ytick_73">
     <g id="line2d_100">
      <g>
       <use style="fill:#262626;stroke:#262626;" x="776.71475" xlink:href="#mf2265ff177" y="137.336122"/>
      </g>
     </g>
     <g id="text_30">
      <!-- 10000 -->
      <g style="fill:#262626;" transform="translate(727.568656 141.9887)scale(0.13 -0.13)">
       <use xlink:href="#ArialMT-31"/>
       <use x="55.615234" xlink:href="#ArialMT-30"/>
       <use x="111.230469" xlink:href="#ArialMT-30"/>
       <use x="166.845703" xlink:href="#ArialMT-30"/>
       <use x="222.460938" xlink:href="#ArialMT-30"/>
      </g>
     </g>
    </g>
    <g id="ytick_74">
     <g id="line2d_101">
      <g>
       <use style="fill:#262626;stroke:#262626;" x="776.71475" xlink:href="#mf2265ff177" y="98.030251"/>
      </g>
     </g>
     <g id="text_31">
      <!-- 12500 -->
      <g style="fill:#262626;" transform="translate(727.568656 102.68283)scale(0.13 -0.13)">
       <use xlink:href="#ArialMT-31"/>
       <use x="55.615234" xlink:href="#ArialMT-32"/>
       <use x="111.230469" xlink:href="#ArialMT-35"/>
       <use x="166.845703" xlink:href="#ArialMT-30"/>
       <use x="222.460938" xlink:href="#ArialMT-30"/>
      </g>
     </g>
    </g>
    <g id="ytick_75">
     <g id="line2d_102">
      <g>
       <use style="fill:#262626;stroke:#262626;" x="776.71475" xlink:href="#mf2265ff177" y="58.724381"/>
      </g>
     </g>
     <g id="text_32">
      <!-- 15000 -->
      <g style="fill:#262626;" transform="translate(727.568656 63.376959)scale(0.13 -0.13)">
       <use xlink:href="#ArialMT-31"/>
       <use x="55.615234" xlink:href="#ArialMT-35"/>
       <use x="111.230469" xlink:href="#ArialMT-30"/>
       <use x="166.845703" xlink:href="#ArialMT-30"/>
       <use x="222.460938" xlink:href="#ArialMT-30"/>
      </g>
     </g>
    </g>
    <g id="text_33">
     <!-- Flux -->
     <defs>
      <path d="M 8.203125 0 
L 8.203125 71.578125 
L 56.5 71.578125 
L 56.5 63.140625 
L 17.671875 63.140625 
L 17.671875 40.96875 
L 51.265625 40.96875 
L 51.265625 32.515625 
L 17.671875 32.515625 
L 17.671875 0 
z
" id="ArialMT-46"/>
      <path d="M 6.390625 0 
L 6.390625 71.578125 
L 15.1875 71.578125 
L 15.1875 0 
z
" id="ArialMT-6c"/>
      <path d="M 0.734375 0 
L 19.671875 26.953125 
L 2.15625 51.859375 
L 13.140625 51.859375 
L 21.09375 39.703125 
Q 23.34375 36.234375 24.703125 33.890625 
Q 26.859375 37.109375 28.65625 39.59375 
L 37.40625 51.859375 
L 47.90625 51.859375 
L 29.984375 27.4375 
L 49.265625 0 
L 38.484375 0 
L 27.828125 16.109375 
L 25 20.453125 
L 11.375 0 
z
" id="ArialMT-78"/>
     </defs>
     <g style="fill:#262626;" transform="translate(720.726531 177.879922)rotate(-90)scale(0.143 -0.143)">
      <use xlink:href="#ArialMT-46"/>
      <use x="61.083984" xlink:href="#ArialMT-6c"/>
      <use x="83.300781" xlink:href="#ArialMT-75"/>
      <use x="138.916016" xlink:href="#ArialMT-78"/>
     </g>
    </g>
   </g>
   <g id="line2d_103">
    <path clip-path="url(#p3838694464)" d="M 445.009043 294.524755 
L 616.185067 294.042548 
L 661.854065 293.616999 
L 690.356724 293.101608 
L 711.318617 292.340857 
L 727.95697 291.415501 
L 741.7718 290.295895 
L 753.591395 288.991766 
L 763.923676 287.515095 
L 773.103398 285.82512 
L 781.363188 283.973219 
L 788.871412 282.029652 
L 795.753928 280.027737 
L 802.107325 277.660322 
L 808.00737 274.021652 
L 813.514607 271.0045 
L 818.678184 268.321986 
L 823.538553 265.34661 
L 828.129406 262.941565 
L 832.479109 260.899986 
L 836.611766 273.150664 
L 840.548036 271.058519 
L 844.305758 249.30285 
L 847.900443 244.073373 
L 851.345665 244.924007 
L 857.834117 237.63719 
L 860.897305 233.619816 
L 863.851318 229.492235 
L 866.703677 225.28947 
L 869.461148 220.835447 
L 872.129847 216.153542 
L 874.715312 210.886095 
L 877.222582 204.092743 
L 879.65625 196.08342 
L 882.020516 187.835843 
L 886.555932 177.388542 
L 888.73388 173.046364 
L 890.856082 167.939135 
L 892.925323 165.420458 
L 894.944182 163.966463 
L 896.915055 160.161946 
L 898.840171 147.082596 
L 900.721608 155.248206 
L 906.122603 141.440192 
L 907.847497 135.814616 
L 909.537242 129.237976 
L 911.193245 124.378926 
L 915.971634 106.780337 
L 917.505146 99.237725 
L 919.010815 90.329326 
L 923.370445 57.767053 
L 924.774172 48.870661 
L 926.154536 44.305576 
L 928.848194 37.942585 
L 930.16291 34.186648 
L 931.457111 54.040903 
L 932.731425 70.549921 
L 933.986456 70.470756 
L 935.222777 70.902553 
L 936.44094 72.166482 
L 937.64147 72.581512 
L 938.824869 72.786072 
L 939.991621 73.359139 
L 942.277008 75.58683 
L 943.396512 75.622236 
L 945.591183 73.306091 
L 946.667118 72.637723 
L 947.729274 71.563966 
L 948.777999 71.123633 
L 949.81363 71.393538 
L 950.836488 70.75709 
L 951.846885 71.90823 
L 952.845122 72.250253 
L 953.831487 70.63799 
L 954.806259 74.293007 
L 955.769709 74.327921 
L 956.722095 74.969021 
L 957.663669 75.951868 
L 958.594674 76.254339 
L 959.515344 77.906675 
L 960.425907 77.977748 
L 961.326582 77.734742 
L 962.217581 79.215038 
L 963.099111 78.901635 
L 965.688841 75.733336 
L 966.534422 75.139449 
L 967.371469 73.358202 
L 968.200153 72.687976 
L 969.020639 72.519774 
L 969.833089 71.905344 
L 970.637657 71.496409 
L 971.434496 71.308555 
L 972.223752 71.892047 
L 973.005569 70.56724 
L 973.780085 71.249473 
L 974.547435 70.298885 
L 975.307752 70.107515 
L 976.061162 71.145835 
L 976.80779 70.027107 
L 977.547757 70.394325 
L 978.281181 71.60837 
L 979.008176 76.82475 
L 979.728855 75.352361 
L 980.443325 78.423255 
L 981.151694 78.830301 
L 981.854064 74.673782 
L 982.550537 74.288093 
L 983.241209 73.520324 
L 983.926178 74.541324 
L 984.605537 73.99399 
L 985.279377 74.073247 
L 985.947786 74.406533 
L 986.610852 75.760682 
L 987.268659 75.075378 
L 987.92129 74.653776 
L 989.211347 78.100548 
L 989.848928 78.122304 
L 990.481645 77.585856 
L 991.109573 77.950003 
L 991.732782 78.094329 
L 992.351344 80.713037 
L 992.965327 80.235593 
L 993.574799 79.946419 
L 994.179824 79.897901 
L 995.376795 82.860074 
L 995.968864 81.983569 
L 996.556737 82.292411 
L 997.140473 83.178636 
L 997.720129 83.232359 
L 998.295763 82.783919 
L 998.867429 83.589367 
L 999.435182 83.697412 
L 999.999075 83.074567 
L 1000.55916 83.338838 
L 1001.115489 83.746851 
L 1001.668111 83.56021 
L 1002.217076 93.05746 
L 1002.762431 91.437598 
L 1003.304225 86.736508 
L 1003.842502 87.626417 
L 1004.377308 87.560427 
L 1004.908688 87.034143 
L 1005.436686 88.515114 
L 1005.961343 88.04005 
L 1006.482703 91.32143 
L 1007.000806 90.942083 
L 1007.515694 92.080233 
L 1008.027404 95.096544 
L 1008.535977 93.897439 
L 1009.041451 91.278455 
L 1010.04325 95.735449 
L 1010.539649 95.32372 
L 1011.033094 96.695249 
L 1011.523621 101.759841 
L 1012.011264 100.940053 
L 1012.496058 97.986063 
L 1012.978034 100.381218 
L 1013.457225 101.879632 
L 1014.407382 106.052272 
L 1014.87841 109.32163 
L 1015.346778 110.351997 
L 1015.812517 113.77365 
L 1016.275654 113.722982 
L 1016.73622 113.140242 
L 1017.194243 115.66698 
L 1017.649751 116.558087 
L 1018.10277 118.173266 
L 1018.553329 123.466646 
L 1019.44717 121.943513 
L 1019.890504 122.908457 
L 1020.331482 123.086976 
L 1020.770127 131.546014 
L 1021.206464 131.921938 
L 1021.640519 131.016966 
L 1022.072313 146.070485 
L 1022.501872 143.3636 
L 1022.929217 133.973597 
L 1023.354372 132.045137 
L 1024.1982 136.463101 
L 1024.616916 139.96722 
L 1025.033529 141.711602 
L 1025.44806 141.725129 
L 1025.86053 138.676083 
L 1026.270958 140.860906 
L 1027.085773 147.583484 
L 1027.490198 154.529876 
L 1028.29318 142.088923 
L 1028.691775 142.499331 
L 1029.088464 144.043622 
L 1029.483264 147.945866 
L 1029.876194 149.241639 
L 1030.267271 149.938198 
L 1030.656514 151.772308 
L 1031.043938 152.1258 
L 1031.429561 153.862029 
L 1031.813399 153.444972 
L 1032.195469 154.162842 
L 1032.575788 153.303333 
L 1032.954371 155.458431 
L 1033.331233 159.816039 
L 1033.706391 155.86365 
L 1034.07986 156.867869 
L 1034.451655 166.877216 
L 1034.821791 169.189491 
L 1035.190282 168.977792 
L 1035.557143 173.90063 
L 1035.92239 182.639361 
L 1036.286034 178.830292 
L 1036.648092 184.350948 
L 1037.008576 185.672393 
L 1037.3675 201.679463 
L 1037.724878 207.614641 
L 1038.080722 197.089742 
L 1038.435046 192.145033 
L 1038.787864 189.911976 
L 1039.139186 189.652227 
L 1039.489027 192.081514 
L 1039.837399 191.906841 
L 1040.184314 189.143715 
L 1040.529784 190.620334 
L 1040.87382 192.648363 
L 1041.216436 189.438202 
L 1041.897451 198.784485 
L 1042.235873 202.852413 
L 1042.57292 204.967115 
L 1043.242933 197.827464 
L 1043.575921 199.359833 
L 1043.907577 206.270933 
L 1044.237912 237.655776 
L 1044.566937 237.584895 
L 1044.894662 246.919076 
L 1045.221098 242.837434 
L 1045.546253 226.228942 
L 1045.870139 230.785371 
L 1046.192765 242.128838 
L 1046.514141 245.878273 
L 1046.834277 245.985865 
L 1047.153182 253.425322 
L 1047.470865 247.715377 
L 1048.102605 230.114519 
L 1048.41668 228.551957 
L 1048.72957 233.212424 
L 1049.041284 245.060476 
L 1049.351831 248.056344 
L 1049.66122 239.887716 
L 1049.969459 237.182267 
L 1050.276557 237.004742 
L 1050.582522 235.332592 
L 1050.887362 231.154969 
L 1051.493703 244.337175 
L 1051.795219 243.100353 
L 1052.095643 245.158188 
L 1052.394983 241.990392 
L 1052.693246 253.359734 
L 1052.990441 260.298921 
L 1053.581655 239.267893 
L 1053.87569 241.514665 
L 1054.168685 246.218652 
L 1054.460649 244.584353 
L 1054.75159 246.733912 
L 1055.041513 243.399442 
L 1055.330426 246.83124 
L 1055.618337 247.980196 
L 1055.905252 250.070363 
L 1056.191177 254.93013 
L 1056.476121 256.143254 
L 1056.760088 258.560803 
L 1057.043087 255.495912 
L 1057.325124 256.157568 
L 1057.886337 262.790575 
L 1058.165526 260.874276 
L 1058.443778 254.688269 
L 1058.7211 253.714305 
L 1058.7211 253.714305 
" style="fill:none;stroke:#c44e52;stroke-linecap:round;stroke-width:1.2;"/>
   </g>
   <g id="line2d_104">
    <path clip-path="url(#p3838694464)" d="M 445.009043 294.552498 
L 616.185067 294.445543 
L 661.854065 293.809481 
L 690.356724 293.104943 
L 711.318617 292.342926 
L 727.95697 291.417427 
L 741.7718 290.298587 
L 753.591395 288.995861 
L 763.923676 287.520983 
L 773.103398 285.835413 
L 781.363188 283.988547 
L 788.871412 282.045459 
L 795.753928 280.039796 
L 802.107325 277.679871 
L 808.00737 274.177495 
L 813.514607 274.844686 
L 818.678184 286.068118 
L 823.538553 293.849797 
L 828.129406 294.559601 
L 844.305758 294.559602 
L 847.900443 255.400822 
L 851.345665 244.945084 
L 857.834117 237.661453 
L 860.897305 233.646915 
L 863.851318 229.523411 
L 866.703677 225.327379 
L 869.461148 220.873072 
L 872.129847 216.196433 
L 874.715312 210.9604 
L 877.222582 204.302032 
L 879.65625 196.873568 
L 882.020516 192.434607 
L 884.319231 204.490976 
L 886.555932 232.047984 
L 888.73388 267.994241 
L 890.856082 288.527446 
L 892.925323 294.033053 
L 894.944182 294.472644 
L 896.915055 294.533525 
L 898.840171 230.058316 
L 900.721608 155.337212 
L 906.122603 141.541681 
L 907.847497 135.921494 
L 909.537242 129.352025 
L 911.193245 124.503231 
L 915.971634 107.062909 
L 917.505146 99.764746 
L 919.010815 91.494269 
L 920.489636 82.275261 
L 921.942548 75.104765 
L 923.370445 73.481663 
L 924.774172 86.748177 
L 926.154536 109.676043 
L 927.5123 118.951783 
L 928.848194 124.353086 
L 930.16291 122.935495 
L 931.457111 71.338449 
L 932.731425 70.846956 
L 933.986456 70.778954 
L 935.222777 71.221468 
L 936.44094 72.495162 
L 937.64147 72.921401 
L 938.824869 73.137706 
L 939.991621 73.72215 
L 942.277008 75.971214 
L 943.396512 76.019425 
L 945.591183 73.734049 
L 946.667118 73.080037 
L 947.729274 72.021419 
L 948.777999 71.595134 
L 949.81363 71.879565 
L 950.836488 71.269095 
L 951.846885 72.47924 
L 952.845122 72.907459 
L 953.831487 72.353692 
L 954.806259 74.838529 
L 955.769709 74.887231 
L 956.722095 75.540584 
L 957.663669 76.534838 
L 958.594674 76.850514 
L 959.515344 78.512292 
L 960.425907 78.597306 
L 961.326582 78.369117 
L 962.217581 79.859194 
L 963.099111 79.559087 
L 965.688841 76.42403 
L 966.534422 75.839815 
L 967.371469 74.07208 
L 968.200153 73.411833 
L 969.020639 73.25203 
L 969.833089 72.647457 
L 970.637657 72.247719 
L 971.434496 72.068325 
L 972.223752 72.657621 
L 973.005569 71.345204 
L 973.780085 72.032796 
L 974.547435 71.093386 
L 975.307752 70.91046 
L 976.061162 71.952818 
L 976.80779 70.845912 
L 977.547757 71.219472 
L 978.281181 72.436741 
L 979.008176 77.641176 
L 979.728855 76.181945 
L 980.443325 79.248248 
L 981.151694 79.660484 
L 981.854064 75.526673 
L 982.550537 75.149199 
L 983.241209 74.39121 
L 983.926178 75.414867 
L 984.605537 74.876468 
L 985.279377 74.962097 
L 985.947786 75.300757 
L 986.610852 76.656026 
L 987.268659 75.980226 
L 987.92129 75.566993 
L 989.211347 79.012567 
L 989.848928 79.040787 
L 990.481645 78.513167 
L 991.109573 78.882274 
L 991.732782 79.032527 
L 992.351344 81.646275 
L 992.965327 81.17743 
L 993.574799 80.895947 
L 994.179824 80.854108 
L 995.376795 83.815775 
L 995.968864 82.949602 
L 996.556737 83.263374 
L 997.140473 84.151886 
L 997.720129 84.211689 
L 998.295763 83.771955 
L 998.867429 84.580504 
L 999.435182 84.694937 
L 999.999075 84.081903 
L 1000.55916 84.351763 
L 1001.115489 84.764658 
L 1001.668111 84.585755 
L 1002.217076 94.043254 
L 1002.762431 92.438086 
L 1003.304225 87.766752 
L 1003.842502 88.658949 
L 1004.377308 88.599959 
L 1004.908688 88.08301 
L 1005.436686 89.563107 
L 1005.961343 89.095336 
L 1006.482703 92.363589 
L 1007.000806 91.989922 
L 1007.515694 93.125861 
L 1008.027404 96.130258 
L 1008.535977 94.941056 
L 1009.041451 92.339437 
L 1010.04325 96.780524 
L 1010.539649 96.374676 
L 1011.033094 97.742658 
L 1011.523621 102.784081 
L 1012.011264 101.972369 
L 1012.496058 99.037848 
L 1012.978034 101.423914 
L 1013.457225 102.918013 
L 1014.407382 107.07553 
L 1014.87841 110.330778 
L 1015.346778 111.35924 
L 1015.812517 114.76577 
L 1016.275654 114.719094 
L 1016.73622 114.143232 
L 1017.194243 116.659622 
L 1017.649751 117.548103 
L 1018.10277 119.156128 
L 1018.553329 124.421809 
L 1019.44717 122.910898 
L 1019.890504 123.87231 
L 1020.331482 124.05172 
L 1020.770127 132.464973 
L 1021.206464 132.840682 
L 1021.640519 131.942665 
L 1022.072313 146.91269 
L 1022.501872 144.223063 
L 1022.929217 134.888917 
L 1023.354372 132.974813 
L 1024.1982 137.374122 
L 1024.616916 140.861275 
L 1025.033529 142.59884 
L 1025.44806 142.615529 
L 1025.86053 139.587626 
L 1026.270958 141.762945 
L 1027.085773 148.452436 
L 1027.490198 155.359122 
L 1028.29318 142.99285 
L 1028.691775 143.401294 
L 1029.088464 144.936879 
L 1029.483264 148.816399 
L 1029.876194 150.104895 
L 1030.267271 150.797722 
L 1030.656514 152.621315 
L 1031.043938 152.973072 
L 1031.429561 154.699336 
L 1031.813399 154.285105 
L 1032.195469 154.999028 
L 1032.575788 154.144955 
L 1032.954371 156.287508 
L 1033.331233 160.61943 
L 1033.706391 156.690869 
L 1034.07986 157.689361 
L 1034.451655 167.63922 
L 1034.821791 169.937915 
L 1035.190282 169.727682 
L 1035.557143 174.621309 
L 1035.92239 183.308006 
L 1036.286034 179.521861 
L 1036.648092 185.009666 
L 1037.008576 186.32335 
L 1037.3675 202.234819 
L 1037.724878 208.134607 
L 1038.080722 197.672743 
L 1038.435046 192.757698 
L 1038.787864 190.538083 
L 1039.139186 190.279954 
L 1039.489027 192.69477 
L 1039.837399 192.521195 
L 1040.184314 189.774651 
L 1040.529784 191.242472 
L 1040.87382 193.258395 
L 1041.216436 190.067464 
L 1041.897451 199.357814 
L 1042.235873 203.401382 
L 1042.57292 205.503417 
L 1043.242933 198.40645 
L 1043.575921 199.929607 
L 1043.907577 206.798883 
L 1044.237912 237.995607 
L 1044.566937 237.924496 
L 1044.894662 247.202731 
L 1045.221098 243.144783 
L 1045.546253 226.634452 
L 1045.870139 231.163306 
L 1046.192765 242.439078 
L 1046.514141 246.165869 
L 1046.834277 246.272395 
L 1047.153182 253.66761 
L 1047.470865 247.990817 
L 1048.102605 230.492327 
L 1048.41668 228.938352 
L 1048.72957 233.57099 
L 1049.041284 245.349363 
L 1049.351831 248.327282 
L 1049.66122 240.205752 
L 1049.969459 237.515542 
L 1050.276557 237.338516 
L 1050.582522 235.675524 
L 1050.887362 231.521512 
L 1051.493703 244.626607 
L 1051.795219 243.396433 
L 1052.095643 245.441989 
L 1052.394983 242.291888 
L 1052.693246 253.595708 
L 1052.990441 260.494778 
L 1053.581655 239.582973 
L 1053.87569 241.816479 
L 1054.168685 246.493244 
L 1054.460649 244.867751 
L 1054.75159 247.0047 
L 1055.041513 243.688598 
L 1055.330426 247.100601 
L 1055.618337 248.242601 
L 1055.905252 250.320604 
L 1056.191177 255.152658 
L 1056.476121 256.358607 
L 1056.760088 258.762268 
L 1057.043087 255.71414 
L 1057.325124 256.371765 
L 1057.886337 262.967183 
L 1058.165526 261.061378 
L 1058.443778 254.90961 
L 1058.7211 253.940924 
L 1058.7211 253.940924 
" style="fill:none;stroke:#55a868;stroke-linecap:round;stroke-width:1.2;"/>
   </g>
   <g id="line2d_105">
    <path clip-path="url(#p3838694464)" d="M 445.009043 294.555844 
L 616.185067 294.559602 
L 661.854065 294.545466 
L 690.356724 293.270515 
L 711.318617 292.555712 
L 727.95697 291.617187 
L 741.7718 290.577778 
L 753.591395 289.419341 
L 773.103398 286.885976 
L 781.363188 285.539205 
L 788.871412 283.654925 
L 795.753928 281.299705 
L 802.107325 279.744567 
L 808.00737 284.464062 
L 813.514607 294.559579 
L 844.305758 294.559602 
L 847.900443 287.268687 
L 851.345665 247.13112 
L 857.834117 240.174741 
L 866.703677 229.253498 
L 869.461148 224.796857 
L 872.129847 220.724654 
L 874.715312 218.519947 
L 877.222582 221.480539 
L 879.65625 234.566815 
L 882.020516 277.064678 
L 884.319231 294.549212 
L 896.915055 294.559602 
L 898.840171 283.524496 
L 900.721608 164.722625 
L 906.122603 152.465488 
L 907.847497 147.506485 
L 909.537242 141.786268 
L 911.193245 138.141523 
L 912.816826 134.296841 
L 914.409231 132.462946 
L 915.971634 132.422074 
L 917.505146 135.937431 
L 919.010815 146.556665 
L 920.489636 170.421469 
L 921.942548 202.935815 
L 923.370445 255.237238 
L 924.774172 292.967093 
L 926.154536 294.181763 
L 927.5123 294.067646 
L 928.848194 293.518945 
L 930.16291 291.578182 
L 931.457111 162.773161 
L 932.731425 108.613403 
L 933.986456 110.037949 
L 935.222777 111.889762 
L 936.44094 114.423701 
L 939.991621 119.929747 
L 942.277008 124.72081 
L 943.396512 126.274974 
L 945.591183 127.587452 
L 946.667118 128.692454 
L 947.729274 129.537392 
L 948.777999 130.855658 
L 949.81363 132.698244 
L 950.836488 133.899514 
L 951.846885 136.477488 
L 952.845122 138.385819 
L 953.831487 143.713299 
L 954.806259 142.839711 
L 955.769709 144.457301 
L 958.594674 150.456544 
L 959.515344 153.078814 
L 961.326582 156.015392 
L 962.217581 158.459096 
L 963.099111 159.580772 
L 965.688841 160.27515 
L 966.534422 160.790349 
L 967.371469 160.586956 
L 968.200153 161.057168 
L 969.020639 161.831417 
L 970.637657 162.960693 
L 971.434496 163.713324 
L 972.223752 164.911032 
L 973.005569 164.998902 
L 973.780085 166.237551 
L 974.547435 166.543761 
L 975.307752 167.272401 
L 976.061162 168.696847 
L 976.80779 168.901015 
L 977.547757 169.929685 
L 978.281181 171.421996 
L 979.008176 175.091122 
L 979.728855 175.088443 
L 980.443325 177.47206 
L 981.151694 178.305045 
L 981.854064 176.670765 
L 982.550537 177.067309 
L 983.241209 177.262671 
L 983.926178 178.398143 
L 984.605537 178.706333 
L 985.947786 180.09489 
L 986.610852 181.374073 
L 987.268659 181.597725 
L 987.92129 181.95005 
L 989.211347 184.82998 
L 989.848928 185.393797 
L 990.481645 185.672055 
L 991.732782 187.011671 
L 992.351344 188.840814 
L 993.574799 189.516729 
L 994.179824 190.016359 
L 995.376795 192.476868 
L 995.968864 192.560908 
L 996.556737 193.209593 
L 997.140473 194.129834 
L 997.720129 194.648809 
L 998.295763 194.950474 
L 998.867429 195.856144 
L 999.435182 196.429319 
L 999.999075 196.655036 
L 1001.668111 198.384471 
L 1002.217076 203.173293 
L 1002.762431 202.918066 
L 1003.304225 201.25826 
L 1003.842502 202.11942 
L 1004.377308 202.545504 
L 1004.908688 202.761687 
L 1005.436686 203.854697 
L 1005.961343 203.931274 
L 1006.482703 205.550699 
L 1007.000806 205.564172 
L 1007.515694 206.231512 
L 1008.027404 207.713474 
L 1008.535977 207.353987 
L 1009.041451 206.375217 
L 1010.04325 208.607752 
L 1010.539649 208.573029 
L 1011.033094 209.302452 
L 1011.523621 211.61442 
L 1012.011264 211.38987 
L 1012.496058 210.243882 
L 1012.978034 211.388343 
L 1013.933664 213.094778 
L 1014.407382 214.134311 
L 1014.87841 215.623688 
L 1015.346778 216.153227 
L 1015.812517 217.692659 
L 1016.275654 217.751487 
L 1016.73622 217.578326 
L 1017.194243 218.716914 
L 1017.649751 219.102051 
L 1018.10277 219.770642 
L 1018.553329 221.996076 
L 1019.44717 221.301106 
L 1019.890504 221.680915 
L 1020.331482 221.723691 
L 1020.770127 225.282438 
L 1021.206464 225.402743 
L 1021.640519 224.976727 
L 1022.072313 231.341043 
L 1022.501872 230.140229 
L 1022.929217 226.151666 
L 1023.354372 225.421337 
L 1025.033529 229.848675 
L 1025.44806 229.925398 
L 1025.86053 228.705895 
L 1026.270958 229.693063 
L 1027.085773 232.647226 
L 1027.490198 235.646958 
L 1028.29318 230.597348 
L 1028.691775 230.859995 
L 1029.088464 231.595237 
L 1029.483264 233.31305 
L 1029.876194 233.939203 
L 1030.267271 234.312374 
L 1030.656514 235.157696 
L 1031.043938 235.385298 
L 1031.429561 236.184815 
L 1031.813399 236.090631 
L 1032.195469 236.464436 
L 1032.575788 236.186335 
L 1032.954371 237.150742 
L 1033.331233 239.021651 
L 1033.706391 237.467231 
L 1034.07986 237.950816 
L 1034.451655 242.131982 
L 1034.821791 243.147724 
L 1035.190282 243.124205 
L 1035.557143 245.200968 
L 1035.92239 248.83169 
L 1036.286034 247.335173 
L 1036.648092 249.639 
L 1037.008576 250.233332 
L 1037.3675 256.790265 
L 1037.724878 259.250176 
L 1038.080722 255.02129 
L 1038.435046 253.062848 
L 1038.787864 252.206637 
L 1039.139186 252.149486 
L 1039.489027 253.178125 
L 1039.837399 253.154611 
L 1040.184314 252.087226 
L 1040.87382 253.588975 
L 1041.216436 252.344537 
L 1041.897451 256.179666 
L 1042.235873 257.847659 
L 1042.57292 258.732666 
L 1043.242933 255.957169 
L 1043.575921 256.607174 
L 1043.907577 259.427041 
L 1044.237912 271.966174 
L 1044.566937 272.011139 
L 1044.894662 275.739775 
L 1045.221098 274.193937 
L 1045.546253 267.712284 
L 1045.870139 269.560965 
L 1046.192765 274.058086 
L 1046.514141 275.573495 
L 1046.834277 275.661035 
L 1047.153182 278.592877 
L 1047.470865 276.426877 
L 1048.102605 269.730383 
L 1048.41668 269.186531 
L 1048.72957 271.03349 
L 1049.041284 275.620201 
L 1049.351831 276.812891 
L 1049.66122 273.744839 
L 1049.969459 272.763551 
L 1050.276557 272.747787 
L 1050.582522 272.166204 
L 1050.887362 270.642406 
L 1051.493703 275.700617 
L 1051.795219 275.281134 
L 1052.095643 276.092497 
L 1052.394983 274.954968 
L 1052.693246 279.223805 
L 1052.990441 281.840445 
L 1053.581655 274.122365 
L 1053.87569 274.993737 
L 1054.168685 276.7688 
L 1054.460649 276.208601 
L 1054.75159 277.034345 
L 1055.041513 275.855687 
L 1055.330426 277.144217 
L 1055.618337 277.60296 
L 1055.905252 278.395837 
L 1056.191177 280.192861 
L 1056.476121 280.662328 
L 1056.760088 281.56381 
L 1057.043087 280.488611 
L 1057.325124 280.753374 
L 1057.886337 283.184784 
L 1058.165526 282.514581 
L 1058.443778 280.316715 
L 1058.7211 279.98297 
L 1058.7211 279.98297 
" style="fill:none;stroke:#8172b2;stroke-linecap:round;stroke-width:1.2;"/>
   </g>
   <g id="patch_13">
    <path d="M 776.71475 307.57825 
L 776.71475 21.168 
" style="fill:none;stroke:#262626;stroke-linecap:square;stroke-linejoin:miter;stroke-width:1.25;"/>
   </g>
   <g id="patch_14">
    <path d="M 1058.832 307.57825 
L 1058.832 21.168 
" style="fill:none;stroke:#262626;stroke-linecap:square;stroke-linejoin:miter;stroke-width:1.25;"/>
   </g>
   <g id="patch_15">
    <path d="M 776.71475 307.57825 
L 1058.832 307.57825 
" style="fill:none;stroke:#262626;stroke-linecap:square;stroke-linejoin:miter;stroke-width:1.25;"/>
   </g>
   <g id="patch_16">
    <path d="M 776.71475 21.168 
L 1058.832 21.168 
" style="fill:none;stroke:#262626;stroke-linecap:square;stroke-linejoin:miter;stroke-width:1.25;"/>
   </g>
  </g>
 </g>
 <defs>
  <clipPath id="pd7e8ba5c24">
   <rect height="286.41025" width="282.11725" x="65.62925" y="21.168"/>
  </clipPath>
  <clipPath id="pe9bb8cfedc">
   <rect height="286.41025" width="282.11725" x="421.172" y="21.168"/>
  </clipPath>
  <clipPath id="p3838694464">
   <rect height="286.41025" width="282.11725" x="776.71475" y="21.168"/>
  </clipPath>
 </defs>
</svg>
