<?xml version="1.0" encoding="utf-8" standalone="no"?>
<!DOCTYPE svg PUBLIC "-//W3C//DTD SVG 1.1//EN"
  "http://www.w3.org/Graphics/SVG/1.1/DTD/svg11.dtd">
<!-- Created with matplotlib (http://matplotlib.org/) -->
<svg height="360pt" version="1.1" viewBox="0 0 1080 360" width="1080pt" xmlns="http://www.w3.org/2000/svg" xmlns:xlink="http://www.w3.org/1999/xlink">
 <defs>
  <style type="text/css">
*{stroke-linecap:butt;stroke-linejoin:round;}
  </style>
 </defs>
 <g id="figure_1">
  <g id="patch_1">
   <path d="M 0 360 
L 1080 360 
L 1080 0 
L 0 0 
z
" style="fill:#ffffff;"/>
  </g>
  <g id="axes_1">
   <g id="patch_2">
    <path d="M 65.62925 307.57825 
L 347.7465 307.57825 
L 347.7465 21.168 
L 65.62925 21.168 
z
" style="fill:#ffffff;"/>
   </g>
   <g id="matplotlib.axis_1">
    <g id="xtick_1">
     <g id="line2d_1">
      <defs>
       <path d="M 0 0 
L 0 6 
" id="mffaface130" style="stroke:#262626;"/>
      </defs>
      <g>
       <use style="fill:#262626;stroke:#262626;" x="124.330916" xlink:href="#mffaface130" y="307.57825"/>
      </g>
     </g>
     <g id="text_1">
      <!-- 2000 -->
      <defs>
       <path d="M 50.34375 8.453125 
L 50.34375 0 
L 3.03125 0 
Q 2.9375 3.171875 4.046875 6.109375 
Q 5.859375 10.9375 9.828125 15.625 
Q 13.8125 20.3125 21.34375 26.46875 
Q 33.015625 36.03125 37.109375 41.625 
Q 41.21875 47.21875 41.21875 52.203125 
Q 41.21875 57.421875 37.46875 61 
Q 33.734375 64.59375 27.734375 64.59375 
Q 21.390625 64.59375 17.578125 60.78125 
Q 13.765625 56.984375 13.71875 50.25 
L 4.6875 51.171875 
Q 5.609375 61.28125 11.65625 66.578125 
Q 17.71875 71.875 27.9375 71.875 
Q 38.234375 71.875 44.234375 66.15625 
Q 50.25 60.453125 50.25 52 
Q 50.25 47.703125 48.484375 43.546875 
Q 46.734375 39.40625 42.65625 34.8125 
Q 38.578125 30.21875 29.109375 22.21875 
Q 21.1875 15.578125 18.9375 13.203125 
Q 16.703125 10.84375 15.234375 8.453125 
z
" id="ArialMT-32"/>
       <path d="M 4.15625 35.296875 
Q 4.15625 48 6.765625 55.734375 
Q 9.375 63.484375 14.515625 67.671875 
Q 19.671875 71.875 27.484375 71.875 
Q 33.25 71.875 37.59375 69.546875 
Q 41.9375 67.234375 44.765625 62.859375 
Q 47.609375 58.5 49.21875 52.21875 
Q 50.828125 45.953125 50.828125 35.296875 
Q 50.828125 22.703125 48.234375 14.96875 
Q 45.65625 7.234375 40.5 3 
Q 35.359375 -1.21875 27.484375 -1.21875 
Q 17.140625 -1.21875 11.234375 6.203125 
Q 4.15625 15.140625 4.15625 35.296875 
M 13.1875 35.296875 
Q 13.1875 17.671875 17.3125 11.828125 
Q 21.4375 6 27.484375 6 
Q 33.546875 6 37.671875 11.859375 
Q 41.796875 17.71875 41.796875 35.296875 
Q 41.796875 52.984375 37.671875 58.78125 
Q 33.546875 64.59375 27.390625 64.59375 
Q 21.34375 64.59375 17.71875 59.46875 
Q 13.1875 52.9375 13.1875 35.296875 
" id="ArialMT-30"/>
      </defs>
      <g style="fill:#262626;" transform="translate(109.872479 329.883406)scale(0.13 -0.13)">
       <use xlink:href="#ArialMT-32"/>
       <use x="55.615234" xlink:href="#ArialMT-30"/>
       <use x="111.230469" xlink:href="#ArialMT-30"/>
       <use x="166.845703" xlink:href="#ArialMT-30"/>
      </g>
     </g>
    </g>
    <g id="xtick_2">
     <g id="line2d_2">
      <g>
       <use style="fill:#262626;stroke:#262626;" x="203.072141" xlink:href="#mffaface130" y="307.57825"/>
      </g>
     </g>
     <g id="text_2">
      <!-- 2500 -->
      <defs>
       <path d="M 4.15625 18.75 
L 13.375 19.53125 
Q 14.40625 12.796875 18.140625 9.390625 
Q 21.875 6 27.15625 6 
Q 33.5 6 37.890625 10.78125 
Q 42.28125 15.578125 42.28125 23.484375 
Q 42.28125 31 38.0625 35.34375 
Q 33.84375 39.703125 27 39.703125 
Q 22.75 39.703125 19.328125 37.765625 
Q 15.921875 35.84375 13.96875 32.765625 
L 5.71875 33.84375 
L 12.640625 70.609375 
L 48.25 70.609375 
L 48.25 62.203125 
L 19.671875 62.203125 
L 15.828125 42.96875 
Q 22.265625 47.46875 29.34375 47.46875 
Q 38.71875 47.46875 45.15625 40.96875 
Q 51.609375 34.46875 51.609375 24.265625 
Q 51.609375 14.546875 45.953125 7.46875 
Q 39.0625 -1.21875 27.15625 -1.21875 
Q 17.390625 -1.21875 11.203125 4.25 
Q 5.03125 9.71875 4.15625 18.75 
" id="ArialMT-35"/>
      </defs>
      <g style="fill:#262626;" transform="translate(188.613704 329.883406)scale(0.13 -0.13)">
       <use xlink:href="#ArialMT-32"/>
       <use x="55.615234" xlink:href="#ArialMT-35"/>
       <use x="111.230469" xlink:href="#ArialMT-30"/>
       <use x="166.845703" xlink:href="#ArialMT-30"/>
      </g>
     </g>
    </g>
    <g id="xtick_3">
     <g id="line2d_3">
      <g>
       <use style="fill:#262626;stroke:#262626;" x="281.813366" xlink:href="#mffaface130" y="307.57825"/>
      </g>
     </g>
     <g id="text_3">
      <!-- 3000 -->
      <defs>
       <path d="M 4.203125 18.890625 
L 12.984375 20.0625 
Q 14.5 12.59375 18.140625 9.296875 
Q 21.78125 6 27 6 
Q 33.203125 6 37.46875 10.296875 
Q 41.75 14.59375 41.75 20.953125 
Q 41.75 27 37.796875 30.921875 
Q 33.84375 34.859375 27.734375 34.859375 
Q 25.25 34.859375 21.53125 33.890625 
L 22.515625 41.609375 
Q 23.390625 41.5 23.921875 41.5 
Q 29.546875 41.5 34.03125 44.421875 
Q 38.53125 47.359375 38.53125 53.46875 
Q 38.53125 58.296875 35.25 61.46875 
Q 31.984375 64.65625 26.8125 64.65625 
Q 21.6875 64.65625 18.265625 61.421875 
Q 14.84375 58.203125 13.875 51.765625 
L 5.078125 53.328125 
Q 6.6875 62.15625 12.390625 67.015625 
Q 18.109375 71.875 26.609375 71.875 
Q 32.46875 71.875 37.390625 69.359375 
Q 42.328125 66.84375 44.9375 62.5 
Q 47.5625 58.15625 47.5625 53.265625 
Q 47.5625 48.640625 45.0625 44.828125 
Q 42.578125 41.015625 37.703125 38.765625 
Q 44.046875 37.3125 47.5625 32.6875 
Q 51.078125 28.078125 51.078125 21.140625 
Q 51.078125 11.765625 44.234375 5.25 
Q 37.40625 -1.265625 26.953125 -1.265625 
Q 17.53125 -1.265625 11.296875 4.34375 
Q 5.078125 9.96875 4.203125 18.890625 
" id="ArialMT-33"/>
      </defs>
      <g style="fill:#262626;" transform="translate(267.354928 329.883406)scale(0.13 -0.13)">
       <use xlink:href="#ArialMT-33"/>
       <use x="55.615234" xlink:href="#ArialMT-30"/>
       <use x="111.230469" xlink:href="#ArialMT-30"/>
       <use x="166.845703" xlink:href="#ArialMT-30"/>
      </g>
     </g>
    </g>
    <g id="text_4">
     <!-- Temperature (K) -->
     <defs>
      <path d="M 25.921875 0 
L 25.921875 63.140625 
L 2.34375 63.140625 
L 2.34375 71.578125 
L 59.078125 71.578125 
L 59.078125 63.140625 
L 35.40625 63.140625 
L 35.40625 0 
z
" id="ArialMT-54"/>
      <path d="M 42.09375 16.703125 
L 51.171875 15.578125 
Q 49.03125 7.625 43.21875 3.21875 
Q 37.40625 -1.171875 28.375 -1.171875 
Q 17 -1.171875 10.328125 5.828125 
Q 3.65625 12.84375 3.65625 25.484375 
Q 3.65625 38.578125 10.390625 45.796875 
Q 17.140625 53.03125 27.875 53.03125 
Q 38.28125 53.03125 44.875 45.953125 
Q 51.46875 38.875 51.46875 26.03125 
Q 51.46875 25.25 51.421875 23.6875 
L 12.75 23.6875 
Q 13.234375 15.140625 17.578125 10.59375 
Q 21.921875 6.0625 28.421875 6.0625 
Q 33.25 6.0625 36.671875 8.59375 
Q 40.09375 11.140625 42.09375 16.703125 
M 13.234375 30.90625 
L 42.1875 30.90625 
Q 41.609375 37.453125 38.875 40.71875 
Q 34.671875 45.796875 27.984375 45.796875 
Q 21.921875 45.796875 17.796875 41.75 
Q 13.671875 37.703125 13.234375 30.90625 
" id="ArialMT-65"/>
      <path d="M 6.59375 0 
L 6.59375 51.859375 
L 14.453125 51.859375 
L 14.453125 44.578125 
Q 16.890625 48.390625 20.9375 50.703125 
Q 25 53.03125 30.171875 53.03125 
Q 35.9375 53.03125 39.625 50.640625 
Q 43.3125 48.25 44.828125 43.953125 
Q 50.984375 53.03125 60.84375 53.03125 
Q 68.5625 53.03125 72.703125 48.75 
Q 76.859375 44.484375 76.859375 35.59375 
L 76.859375 0 
L 68.109375 0 
L 68.109375 32.671875 
Q 68.109375 37.9375 67.25 40.25 
Q 66.40625 42.578125 64.15625 43.984375 
Q 61.921875 45.40625 58.890625 45.40625 
Q 53.421875 45.40625 49.796875 41.765625 
Q 46.1875 38.140625 46.1875 30.125 
L 46.1875 0 
L 37.40625 0 
L 37.40625 33.6875 
Q 37.40625 39.546875 35.25 42.46875 
Q 33.109375 45.40625 28.21875 45.40625 
Q 24.515625 45.40625 21.359375 43.453125 
Q 18.21875 41.5 16.796875 37.734375 
Q 15.375 33.984375 15.375 26.90625 
L 15.375 0 
z
" id="ArialMT-6d"/>
      <path d="M 6.59375 -19.875 
L 6.59375 51.859375 
L 14.59375 51.859375 
L 14.59375 45.125 
Q 17.4375 49.078125 21 51.046875 
Q 24.5625 53.03125 29.640625 53.03125 
Q 36.28125 53.03125 41.359375 49.609375 
Q 46.4375 46.1875 49.015625 39.953125 
Q 51.609375 33.734375 51.609375 26.3125 
Q 51.609375 18.359375 48.75 11.984375 
Q 45.90625 5.609375 40.453125 2.21875 
Q 35.015625 -1.171875 29 -1.171875 
Q 24.609375 -1.171875 21.109375 0.6875 
Q 17.625 2.546875 15.375 5.375 
L 15.375 -19.875 
z
M 14.546875 25.640625 
Q 14.546875 15.625 18.59375 10.84375 
Q 22.65625 6.0625 28.421875 6.0625 
Q 34.28125 6.0625 38.453125 11.015625 
Q 42.625 15.96875 42.625 26.375 
Q 42.625 36.28125 38.546875 41.203125 
Q 34.46875 46.140625 28.8125 46.140625 
Q 23.1875 46.140625 18.859375 40.890625 
Q 14.546875 35.640625 14.546875 25.640625 
" id="ArialMT-70"/>
      <path d="M 6.5 0 
L 6.5 51.859375 
L 14.40625 51.859375 
L 14.40625 44 
Q 17.4375 49.515625 20 51.265625 
Q 22.5625 53.03125 25.640625 53.03125 
Q 30.078125 53.03125 34.671875 50.203125 
L 31.640625 42.046875 
Q 28.421875 43.953125 25.203125 43.953125 
Q 22.3125 43.953125 20.015625 42.21875 
Q 17.71875 40.484375 16.75 37.40625 
Q 15.28125 32.71875 15.28125 27.15625 
L 15.28125 0 
z
" id="ArialMT-72"/>
      <path d="M 40.4375 6.390625 
Q 35.546875 2.25 31.03125 0.53125 
Q 26.515625 -1.171875 21.34375 -1.171875 
Q 12.796875 -1.171875 8.203125 3 
Q 3.609375 7.171875 3.609375 13.671875 
Q 3.609375 17.484375 5.34375 20.625 
Q 7.078125 23.78125 9.890625 25.6875 
Q 12.703125 27.59375 16.21875 28.5625 
Q 18.796875 29.25 24.03125 29.890625 
Q 34.671875 31.15625 39.703125 32.90625 
Q 39.75 34.71875 39.75 35.203125 
Q 39.75 40.578125 37.25 42.78125 
Q 33.890625 45.75 27.25 45.75 
Q 21.046875 45.75 18.09375 43.578125 
Q 15.140625 41.40625 13.71875 35.890625 
L 5.125 37.0625 
Q 6.296875 42.578125 8.984375 45.96875 
Q 11.671875 49.359375 16.75 51.1875 
Q 21.828125 53.03125 28.515625 53.03125 
Q 35.15625 53.03125 39.296875 51.46875 
Q 43.453125 49.90625 45.40625 47.53125 
Q 47.359375 45.171875 48.140625 41.546875 
Q 48.578125 39.3125 48.578125 33.453125 
L 48.578125 21.734375 
Q 48.578125 9.46875 49.140625 6.21875 
Q 49.703125 2.984375 51.375 0 
L 42.1875 0 
Q 40.828125 2.734375 40.4375 6.390625 
M 39.703125 26.03125 
Q 34.90625 24.078125 25.34375 22.703125 
Q 19.921875 21.921875 17.671875 20.9375 
Q 15.4375 19.96875 14.203125 18.09375 
Q 12.984375 16.21875 12.984375 13.921875 
Q 12.984375 10.40625 15.640625 8.0625 
Q 18.3125 5.71875 23.4375 5.71875 
Q 28.515625 5.71875 32.46875 7.9375 
Q 36.421875 10.15625 38.28125 14.015625 
Q 39.703125 17 39.703125 22.796875 
z
" id="ArialMT-61"/>
      <path d="M 25.78125 7.859375 
L 27.046875 0.09375 
Q 23.34375 -0.6875 20.40625 -0.6875 
Q 15.625 -0.6875 12.984375 0.828125 
Q 10.359375 2.34375 9.28125 4.8125 
Q 8.203125 7.28125 8.203125 15.1875 
L 8.203125 45.015625 
L 1.765625 45.015625 
L 1.765625 51.859375 
L 8.203125 51.859375 
L 8.203125 64.703125 
L 16.9375 69.96875 
L 16.9375 51.859375 
L 25.78125 51.859375 
L 25.78125 45.015625 
L 16.9375 45.015625 
L 16.9375 14.703125 
Q 16.9375 10.9375 17.40625 9.859375 
Q 17.875 8.796875 18.921875 8.15625 
Q 19.96875 7.515625 21.921875 7.515625 
Q 23.390625 7.515625 25.78125 7.859375 
" id="ArialMT-74"/>
      <path d="M 40.578125 0 
L 40.578125 7.625 
Q 34.515625 -1.171875 24.125 -1.171875 
Q 19.53125 -1.171875 15.546875 0.578125 
Q 11.578125 2.34375 9.640625 5 
Q 7.71875 7.671875 6.9375 11.53125 
Q 6.390625 14.109375 6.390625 19.734375 
L 6.390625 51.859375 
L 15.1875 51.859375 
L 15.1875 23.09375 
Q 15.1875 16.21875 15.71875 13.8125 
Q 16.546875 10.359375 19.234375 8.375 
Q 21.921875 6.390625 25.875 6.390625 
Q 29.828125 6.390625 33.296875 8.421875 
Q 36.765625 10.453125 38.203125 13.9375 
Q 39.65625 17.4375 39.65625 24.078125 
L 39.65625 51.859375 
L 48.4375 51.859375 
L 48.4375 0 
z
" id="ArialMT-75"/>
      <path id="ArialMT-20"/>
      <path d="M 23.390625 -21.046875 
Q 16.109375 -11.859375 11.078125 0.4375 
Q 6.0625 12.75 6.0625 25.921875 
Q 6.0625 37.546875 9.8125 48.1875 
Q 14.203125 60.546875 23.390625 72.796875 
L 29.6875 72.796875 
Q 23.78125 62.640625 21.875 58.296875 
Q 18.890625 51.5625 17.1875 44.234375 
Q 15.09375 35.109375 15.09375 25.875 
Q 15.09375 2.390625 29.6875 -21.046875 
z
" id="ArialMT-28"/>
      <path d="M 7.328125 0 
L 7.328125 71.578125 
L 16.796875 71.578125 
L 16.796875 36.078125 
L 52.34375 71.578125 
L 65.1875 71.578125 
L 35.15625 42.578125 
L 66.5 0 
L 54 0 
L 28.515625 36.234375 
L 16.796875 24.8125 
L 16.796875 0 
z
" id="ArialMT-4b"/>
      <path d="M 12.359375 -21.046875 
L 6.0625 -21.046875 
Q 20.65625 2.390625 20.65625 25.875 
Q 20.65625 35.0625 18.5625 44.09375 
Q 16.890625 51.421875 13.921875 58.15625 
Q 12.015625 62.546875 6.0625 72.796875 
L 12.359375 72.796875 
Q 21.53125 60.546875 25.921875 48.1875 
Q 29.6875 37.546875 29.6875 25.921875 
Q 29.6875 12.75 24.625 0.4375 
Q 19.578125 -11.859375 12.359375 -21.046875 
" id="ArialMT-29"/>
     </defs>
     <g style="fill:#262626;" transform="translate(154.256031 346.877109)scale(0.143 -0.143)">
      <use xlink:href="#ArialMT-54"/>
      <use x="60.912109" xlink:href="#ArialMT-65"/>
      <use x="116.527344" xlink:href="#ArialMT-6d"/>
      <use x="199.828125" xlink:href="#ArialMT-70"/>
      <use x="255.443359" xlink:href="#ArialMT-65"/>
      <use x="311.058594" xlink:href="#ArialMT-72"/>
      <use x="344.359375" xlink:href="#ArialMT-61"/>
      <use x="399.974609" xlink:href="#ArialMT-74"/>
      <use x="427.757812" xlink:href="#ArialMT-75"/>
      <use x="483.373047" xlink:href="#ArialMT-72"/>
      <use x="516.673828" xlink:href="#ArialMT-65"/>
      <use x="572.289062" xlink:href="#ArialMT-20"/>
      <use x="600.072266" xlink:href="#ArialMT-28"/>
      <use x="633.373047" xlink:href="#ArialMT-4b"/>
      <use x="700.072266" xlink:href="#ArialMT-29"/>
     </g>
    </g>
   </g>
   <g id="matplotlib.axis_2">
    <g id="ytick_1">
     <g id="line2d_4">
      <defs>
       <path d="M 0 0 
L -6 0 
" id="m81f8fde3d0" style="stroke:#262626;"/>
      </defs>
      <g>
       <use style="fill:#262626;stroke:#262626;" x="65.62925" xlink:href="#m81f8fde3d0" y="53.117602"/>
      </g>
     </g>
     <g id="text_5">
      <!-- ${10^{-2}}$ -->
      <defs>
       <path d="M 12.40625 8.296875 
L 28.515625 8.296875 
L 28.515625 63.921875 
L 10.984375 60.40625 
L 10.984375 69.390625 
L 28.421875 72.90625 
L 38.28125 72.90625 
L 38.28125 8.296875 
L 54.390625 8.296875 
L 54.390625 0 
L 12.40625 0 
z
" id="DejaVuSans-31"/>
       <path d="M 31.78125 66.40625 
Q 24.171875 66.40625 20.328125 58.90625 
Q 16.5 51.421875 16.5 36.375 
Q 16.5 21.390625 20.328125 13.890625 
Q 24.171875 6.390625 31.78125 6.390625 
Q 39.453125 6.390625 43.28125 13.890625 
Q 47.125 21.390625 47.125 36.375 
Q 47.125 51.421875 43.28125 58.90625 
Q 39.453125 66.40625 31.78125 66.40625 
M 31.78125 74.21875 
Q 44.046875 74.21875 50.515625 64.515625 
Q 56.984375 54.828125 56.984375 36.375 
Q 56.984375 17.96875 50.515625 8.265625 
Q 44.046875 -1.421875 31.78125 -1.421875 
Q 19.53125 -1.421875 13.0625 8.265625 
Q 6.59375 17.96875 6.59375 36.375 
Q 6.59375 54.828125 13.0625 64.515625 
Q 19.53125 74.21875 31.78125 74.21875 
" id="DejaVuSans-30"/>
       <path d="M 10.59375 35.5 
L 73.1875 35.5 
L 73.1875 27.203125 
L 10.59375 27.203125 
z
" id="DejaVuSans-2212"/>
       <path d="M 19.1875 8.296875 
L 53.609375 8.296875 
L 53.609375 0 
L 7.328125 0 
L 7.328125 8.296875 
Q 12.9375 14.109375 22.625 23.890625 
Q 32.328125 33.6875 34.8125 36.53125 
Q 39.546875 41.84375 41.421875 45.53125 
Q 43.3125 49.21875 43.3125 52.78125 
Q 43.3125 58.59375 39.234375 62.25 
Q 35.15625 65.921875 28.609375 65.921875 
Q 23.96875 65.921875 18.8125 64.3125 
Q 13.671875 62.703125 7.8125 59.421875 
L 7.8125 69.390625 
Q 13.765625 71.78125 18.9375 73 
Q 24.125 74.21875 28.421875 74.21875 
Q 39.75 74.21875 46.484375 68.546875 
Q 53.21875 62.890625 53.21875 53.421875 
Q 53.21875 48.921875 51.53125 44.890625 
Q 49.859375 40.875 45.40625 35.40625 
Q 44.1875 33.984375 37.640625 27.21875 
Q 31.109375 20.453125 19.1875 8.296875 
" id="DejaVuSans-32"/>
      </defs>
      <g style="fill:#262626;" transform="translate(22.07925 57.870727)scale(0.13 -0.13)">
       <use transform="translate(0 0.765625)" xlink:href="#DejaVuSans-31"/>
       <use transform="translate(63.623047 0.765625)" xlink:href="#DejaVuSans-30"/>
       <use transform="translate(128.203125 39.046875)scale(0.7)" xlink:href="#DejaVuSans-2212"/>
       <use transform="translate(186.855469 39.046875)scale(0.7)" xlink:href="#DejaVuSans-32"/>
      </g>
     </g>
    </g>
    <g id="ytick_2">
     <g id="line2d_5">
      <g>
       <use style="fill:#262626;stroke:#262626;" x="65.62925" xlink:href="#m81f8fde3d0" y="133.656711"/>
      </g>
     </g>
     <g id="text_6">
      <!-- ${10^{-1}}$ -->
      <g style="fill:#262626;" transform="translate(22.07925 138.344836)scale(0.13 -0.13)">
       <use transform="translate(0 0.684375)" xlink:href="#DejaVuSans-31"/>
       <use transform="translate(63.623047 0.684375)" xlink:href="#DejaVuSans-30"/>
       <use transform="translate(128.203125 38.965625)scale(0.7)" xlink:href="#DejaVuSans-2212"/>
       <use transform="translate(186.855469 38.965625)scale(0.7)" xlink:href="#DejaVuSans-31"/>
      </g>
     </g>
    </g>
    <g id="ytick_3">
     <g id="line2d_6">
      <g>
       <use style="fill:#262626;stroke:#262626;" x="65.62925" xlink:href="#m81f8fde3d0" y="214.19582"/>
      </g>
     </g>
     <g id="text_7">
      <!-- ${10^{0}}$ -->
      <g style="fill:#262626;" transform="translate(29.74925 218.948945)scale(0.13 -0.13)">
       <use transform="translate(0 0.765625)" xlink:href="#DejaVuSans-31"/>
       <use transform="translate(63.623047 0.765625)" xlink:href="#DejaVuSans-30"/>
       <use transform="translate(128.203125 39.046875)scale(0.7)" xlink:href="#DejaVuSans-30"/>
      </g>
     </g>
    </g>
    <g id="ytick_4">
     <g id="line2d_7">
      <g>
       <use style="fill:#262626;stroke:#262626;" x="65.62925" xlink:href="#m81f8fde3d0" y="294.734929"/>
      </g>
     </g>
     <g id="text_8">
      <!-- ${10^{1}}$ -->
      <g style="fill:#262626;" transform="translate(29.74925 299.423054)scale(0.13 -0.13)">
       <use transform="translate(0 0.684375)" xlink:href="#DejaVuSans-31"/>
       <use transform="translate(63.623047 0.684375)" xlink:href="#DejaVuSans-30"/>
       <use transform="translate(128.203125 38.965625)scale(0.7)" xlink:href="#DejaVuSans-31"/>
      </g>
     </g>
    </g>
    <g id="ytick_5">
     <g id="line2d_8">
      <defs>
       <path d="M 0 0 
L -3 0 
" id="m06d7425ef7" style="stroke:#262626;stroke-width:0.5;"/>
      </defs>
      <g>
       <use style="fill:#262626;stroke:#262626;stroke-width:0.5;" x="65.62925" xlink:href="#m06d7425ef7" y="21.067868"/>
      </g>
     </g>
    </g>
    <g id="ytick_6">
     <g id="line2d_9">
      <g>
       <use style="fill:#262626;stroke:#262626;stroke-width:0.5;" x="65.62925" xlink:href="#m06d7425ef7" y="28.872914"/>
      </g>
     </g>
    </g>
    <g id="ytick_7">
     <g id="line2d_10">
      <g>
       <use style="fill:#262626;stroke:#262626;stroke-width:0.5;" x="65.62925" xlink:href="#m06d7425ef7" y="35.250101"/>
      </g>
     </g>
    </g>
    <g id="ytick_8">
     <g id="line2d_11">
      <g>
       <use style="fill:#262626;stroke:#262626;stroke-width:0.5;" x="65.62925" xlink:href="#m06d7425ef7" y="40.641936"/>
      </g>
     </g>
    </g>
    <g id="ytick_9">
     <g id="line2d_12">
      <g>
       <use style="fill:#262626;stroke:#262626;stroke-width:0.5;" x="65.62925" xlink:href="#m06d7425ef7" y="45.312556"/>
      </g>
     </g>
    </g>
    <g id="ytick_10">
     <g id="line2d_13">
      <g>
       <use style="fill:#262626;stroke:#262626;stroke-width:0.5;" x="65.62925" xlink:href="#m06d7425ef7" y="49.432334"/>
      </g>
     </g>
    </g>
    <g id="ytick_11">
     <g id="line2d_14">
      <g>
       <use style="fill:#262626;stroke:#262626;stroke-width:0.5;" x="65.62925" xlink:href="#m06d7425ef7" y="77.362289"/>
      </g>
     </g>
    </g>
    <g id="ytick_12">
     <g id="line2d_15">
      <g>
       <use style="fill:#262626;stroke:#262626;stroke-width:0.5;" x="65.62925" xlink:href="#m06d7425ef7" y="91.544523"/>
      </g>
     </g>
    </g>
    <g id="ytick_13">
     <g id="line2d_16">
      <g>
       <use style="fill:#262626;stroke:#262626;stroke-width:0.5;" x="65.62925" xlink:href="#m06d7425ef7" y="101.606977"/>
      </g>
     </g>
    </g>
    <g id="ytick_14">
     <g id="line2d_17">
      <g>
       <use style="fill:#262626;stroke:#262626;stroke-width:0.5;" x="65.62925" xlink:href="#m06d7425ef7" y="109.412023"/>
      </g>
     </g>
    </g>
    <g id="ytick_15">
     <g id="line2d_18">
      <g>
       <use style="fill:#262626;stroke:#262626;stroke-width:0.5;" x="65.62925" xlink:href="#m06d7425ef7" y="115.78921"/>
      </g>
     </g>
    </g>
    <g id="ytick_16">
     <g id="line2d_19">
      <g>
       <use style="fill:#262626;stroke:#262626;stroke-width:0.5;" x="65.62925" xlink:href="#m06d7425ef7" y="121.181045"/>
      </g>
     </g>
    </g>
    <g id="ytick_17">
     <g id="line2d_20">
      <g>
       <use style="fill:#262626;stroke:#262626;stroke-width:0.5;" x="65.62925" xlink:href="#m06d7425ef7" y="125.851665"/>
      </g>
     </g>
    </g>
    <g id="ytick_18">
     <g id="line2d_21">
      <g>
       <use style="fill:#262626;stroke:#262626;stroke-width:0.5;" x="65.62925" xlink:href="#m06d7425ef7" y="129.971443"/>
      </g>
     </g>
    </g>
    <g id="ytick_19">
     <g id="line2d_22">
      <g>
       <use style="fill:#262626;stroke:#262626;stroke-width:0.5;" x="65.62925" xlink:href="#m06d7425ef7" y="157.901399"/>
      </g>
     </g>
    </g>
    <g id="ytick_20">
     <g id="line2d_23">
      <g>
       <use style="fill:#262626;stroke:#262626;stroke-width:0.5;" x="65.62925" xlink:href="#m06d7425ef7" y="172.083632"/>
      </g>
     </g>
    </g>
    <g id="ytick_21">
     <g id="line2d_24">
      <g>
       <use style="fill:#262626;stroke:#262626;stroke-width:0.5;" x="65.62925" xlink:href="#m06d7425ef7" y="182.146086"/>
      </g>
     </g>
    </g>
    <g id="ytick_22">
     <g id="line2d_25">
      <g>
       <use style="fill:#262626;stroke:#262626;stroke-width:0.5;" x="65.62925" xlink:href="#m06d7425ef7" y="189.951132"/>
      </g>
     </g>
    </g>
    <g id="ytick_23">
     <g id="line2d_26">
      <g>
       <use style="fill:#262626;stroke:#262626;stroke-width:0.5;" x="65.62925" xlink:href="#m06d7425ef7" y="196.328319"/>
      </g>
     </g>
    </g>
    <g id="ytick_24">
     <g id="line2d_27">
      <g>
       <use style="fill:#262626;stroke:#262626;stroke-width:0.5;" x="65.62925" xlink:href="#m06d7425ef7" y="201.720154"/>
      </g>
     </g>
    </g>
    <g id="ytick_25">
     <g id="line2d_28">
      <g>
       <use style="fill:#262626;stroke:#262626;stroke-width:0.5;" x="65.62925" xlink:href="#m06d7425ef7" y="206.390774"/>
      </g>
     </g>
    </g>
    <g id="ytick_26">
     <g id="line2d_29">
      <g>
       <use style="fill:#262626;stroke:#262626;stroke-width:0.5;" x="65.62925" xlink:href="#m06d7425ef7" y="210.510553"/>
      </g>
     </g>
    </g>
    <g id="ytick_27">
     <g id="line2d_30">
      <g>
       <use style="fill:#262626;stroke:#262626;stroke-width:0.5;" x="65.62925" xlink:href="#m06d7425ef7" y="238.440508"/>
      </g>
     </g>
    </g>
    <g id="ytick_28">
     <g id="line2d_31">
      <g>
       <use style="fill:#262626;stroke:#262626;stroke-width:0.5;" x="65.62925" xlink:href="#m06d7425ef7" y="252.622741"/>
      </g>
     </g>
    </g>
    <g id="ytick_29">
     <g id="line2d_32">
      <g>
       <use style="fill:#262626;stroke:#262626;stroke-width:0.5;" x="65.62925" xlink:href="#m06d7425ef7" y="262.685196"/>
      </g>
     </g>
    </g>
    <g id="ytick_30">
     <g id="line2d_33">
      <g>
       <use style="fill:#262626;stroke:#262626;stroke-width:0.5;" x="65.62925" xlink:href="#m06d7425ef7" y="270.490242"/>
      </g>
     </g>
    </g>
    <g id="ytick_31">
     <g id="line2d_34">
      <g>
       <use style="fill:#262626;stroke:#262626;stroke-width:0.5;" x="65.62925" xlink:href="#m06d7425ef7" y="276.867429"/>
      </g>
     </g>
    </g>
    <g id="ytick_32">
     <g id="line2d_35">
      <g>
       <use style="fill:#262626;stroke:#262626;stroke-width:0.5;" x="65.62925" xlink:href="#m06d7425ef7" y="282.259264"/>
      </g>
     </g>
    </g>
    <g id="ytick_33">
     <g id="line2d_36">
      <g>
       <use style="fill:#262626;stroke:#262626;stroke-width:0.5;" x="65.62925" xlink:href="#m06d7425ef7" y="286.929883"/>
      </g>
     </g>
    </g>
    <g id="ytick_34">
     <g id="line2d_37">
      <g>
       <use style="fill:#262626;stroke:#262626;stroke-width:0.5;" x="65.62925" xlink:href="#m06d7425ef7" y="291.049662"/>
      </g>
     </g>
    </g>
    <g id="text_9">
     <!-- Pressure (bar) -->
     <defs>
      <path d="M 7.71875 0 
L 7.71875 71.578125 
L 34.71875 71.578125 
Q 41.84375 71.578125 45.609375 70.90625 
Q 50.875 70.015625 54.4375 67.546875 
Q 58.015625 65.09375 60.1875 60.640625 
Q 62.359375 56.203125 62.359375 50.875 
Q 62.359375 41.75 56.546875 35.421875 
Q 50.734375 29.109375 35.546875 29.109375 
L 17.1875 29.109375 
L 17.1875 0 
z
M 17.1875 37.546875 
L 35.6875 37.546875 
Q 44.875 37.546875 48.734375 40.96875 
Q 52.59375 44.390625 52.59375 50.59375 
Q 52.59375 55.078125 50.3125 58.265625 
Q 48.046875 61.46875 44.34375 62.5 
Q 41.9375 63.140625 35.5 63.140625 
L 17.1875 63.140625 
z
" id="ArialMT-50"/>
      <path d="M 3.078125 15.484375 
L 11.765625 16.84375 
Q 12.5 11.625 15.84375 8.84375 
Q 19.1875 6.0625 25.203125 6.0625 
Q 31.25 6.0625 34.171875 8.515625 
Q 37.109375 10.984375 37.109375 14.3125 
Q 37.109375 17.28125 34.515625 19 
Q 32.71875 20.171875 25.53125 21.96875 
Q 15.875 24.421875 12.140625 26.203125 
Q 8.40625 27.984375 6.46875 31.125 
Q 4.546875 34.28125 4.546875 38.09375 
Q 4.546875 41.546875 6.125 44.5 
Q 7.71875 47.46875 10.453125 49.421875 
Q 12.5 50.921875 16.03125 51.96875 
Q 19.578125 53.03125 23.640625 53.03125 
Q 29.734375 53.03125 34.34375 51.265625 
Q 38.96875 49.515625 41.15625 46.5 
Q 43.359375 43.5 44.1875 38.484375 
L 35.59375 37.3125 
Q 35.015625 41.3125 32.203125 43.546875 
Q 29.390625 45.796875 24.265625 45.796875 
Q 18.21875 45.796875 15.625 43.796875 
Q 13.03125 41.796875 13.03125 39.109375 
Q 13.03125 37.40625 14.109375 36.03125 
Q 15.1875 34.625 17.484375 33.6875 
Q 18.796875 33.203125 25.25 31.453125 
Q 34.578125 28.953125 38.25 27.359375 
Q 41.9375 25.78125 44.03125 22.75 
Q 46.140625 19.734375 46.140625 15.234375 
Q 46.140625 10.84375 43.578125 6.953125 
Q 41.015625 3.078125 36.171875 0.953125 
Q 31.34375 -1.171875 25.25 -1.171875 
Q 15.140625 -1.171875 9.84375 3.03125 
Q 4.546875 7.234375 3.078125 15.484375 
" id="ArialMT-73"/>
      <path d="M 14.703125 0 
L 6.546875 0 
L 6.546875 71.578125 
L 15.328125 71.578125 
L 15.328125 46.046875 
Q 20.90625 53.03125 29.546875 53.03125 
Q 34.328125 53.03125 38.59375 51.09375 
Q 42.875 49.171875 45.625 45.671875 
Q 48.390625 42.1875 49.953125 37.25 
Q 51.515625 32.328125 51.515625 26.703125 
Q 51.515625 13.375 44.921875 6.09375 
Q 38.328125 -1.171875 29.109375 -1.171875 
Q 19.921875 -1.171875 14.703125 6.5 
z
M 14.59375 26.3125 
Q 14.59375 17 17.140625 12.84375 
Q 21.296875 6.0625 28.375 6.0625 
Q 34.125 6.0625 38.328125 11.0625 
Q 42.53125 16.0625 42.53125 25.984375 
Q 42.53125 36.140625 38.5 40.96875 
Q 34.46875 45.796875 28.765625 45.796875 
Q 23 45.796875 18.796875 40.796875 
Q 14.59375 35.796875 14.59375 26.3125 
" id="ArialMT-62"/>
     </defs>
     <g style="fill:#262626;" transform="translate(15.069547 210.062742)rotate(-90)scale(0.143 -0.143)">
      <use xlink:href="#ArialMT-50"/>
      <use x="66.699219" xlink:href="#ArialMT-72"/>
      <use x="100" xlink:href="#ArialMT-65"/>
      <use x="155.615234" xlink:href="#ArialMT-73"/>
      <use x="205.615234" xlink:href="#ArialMT-73"/>
      <use x="255.615234" xlink:href="#ArialMT-75"/>
      <use x="311.230469" xlink:href="#ArialMT-72"/>
      <use x="344.53125" xlink:href="#ArialMT-65"/>
      <use x="400.146484" xlink:href="#ArialMT-20"/>
      <use x="427.929688" xlink:href="#ArialMT-28"/>
      <use x="461.230469" xlink:href="#ArialMT-62"/>
      <use x="516.845703" xlink:href="#ArialMT-61"/>
      <use x="572.460938" xlink:href="#ArialMT-72"/>
      <use x="605.761719" xlink:href="#ArialMT-29"/>
     </g>
    </g>
   </g>
   <g id="line2d_38">
    <path clip-path="url(#p9a330f2be2)" d="M 80.725447 34.186648 
L 80.532351 39.500381 
L 80.181487 44.814115 
L 79.87344 50.127849 
L 79.572399 55.441583 
L 79.341308 60.755317 
L 79.11297 66.06905 
L 78.93244 71.382784 
L 78.779888 76.696518 
L 78.651531 82.010252 
L 78.55312 87.323985 
L 78.484988 92.637719 
L 78.452761 97.951453 
L 78.464798 103.265187 
L 78.536219 108.57892 
L 78.6843 113.892654 
L 78.936464 119.206388 
L 79.384367 124.520122 
L 80.196735 129.833856 
L 81.48825 135.147589 
L 83.04734 140.461323 
L 84.683351 145.775057 
L 86.506059 151.088791 
L 88.190743 156.402524 
L 90.631486 161.716258 
L 94.023593 167.029992 
L 96.421949 172.343726 
L 99.477193 177.657459 
L 104.372915 182.971193 
L 114.461618 188.284927 
L 127.995923 193.598661 
L 142.157839 198.912394 
L 156.960597 204.226128 
L 172.430375 209.539862 
L 188.59366 214.853596 
L 205.477444 220.16733 
L 223.109493 225.481063 
L 241.518679 230.794797 
L 260.735351 236.108531 
L 280.791701 241.422265 
L 301.722109 246.735998 
L 322.193819 252.049732 
L 331.877697 257.363466 
L 334.922989 262.6772 
L 331.201991 267.990933 
L 321.355469 273.304667 
L 307.223942 278.618401 
L 291.654839 283.932135 
L 272.991229 289.245869 
L 272.991229 294.559602 
" style="fill:none;stroke:#4c72b0;stroke-linecap:round;stroke-width:1.2;"/>
   </g>
   <g id="patch_3">
    <path d="M 65.62925 307.57825 
L 65.62925 21.168 
" style="fill:none;stroke:#262626;stroke-linecap:square;stroke-linejoin:miter;stroke-width:1.25;"/>
   </g>
   <g id="patch_4">
    <path d="M 347.7465 307.57825 
L 347.7465 21.168 
" style="fill:none;stroke:#262626;stroke-linecap:square;stroke-linejoin:miter;stroke-width:1.25;"/>
   </g>
   <g id="patch_5">
    <path d="M 65.62925 307.57825 
L 347.7465 307.57825 
" style="fill:none;stroke:#262626;stroke-linecap:square;stroke-linejoin:miter;stroke-width:1.25;"/>
   </g>
   <g id="patch_6">
    <path d="M 65.62925 21.168 
L 347.7465 21.168 
" style="fill:none;stroke:#262626;stroke-linecap:square;stroke-linejoin:miter;stroke-width:1.25;"/>
   </g>
  </g>
  <g id="axes_2">
   <g id="patch_7">
    <path d="M 421.172 307.57825 
L 703.28925 307.57825 
L 703.28925 21.168 
L 421.172 21.168 
z
" style="fill:#ffffff;"/>
   </g>
   <g id="matplotlib.axis_3">
    <g id="xtick_4">
     <g id="line2d_39">
      <g>
       <use style="fill:#262626;stroke:#262626;" x="421.172" xlink:href="#mffaface130" y="307.57825"/>
      </g>
     </g>
     <g id="text_10">
      <!-- 0 -->
      <g style="fill:#262626;" transform="translate(417.557391 329.883406)scale(0.13 -0.13)">
       <use xlink:href="#ArialMT-30"/>
      </g>
     </g>
    </g>
    <g id="xtick_5">
     <g id="line2d_40">
      <g>
       <use style="fill:#262626;stroke:#262626;" x="479.014553" xlink:href="#mffaface130" y="307.57825"/>
      </g>
     </g>
     <g id="text_11">
      <!-- 500 -->
      <g style="fill:#262626;" transform="translate(468.170724 329.883406)scale(0.13 -0.13)">
       <use xlink:href="#ArialMT-35"/>
       <use x="55.615234" xlink:href="#ArialMT-30"/>
       <use x="111.230469" xlink:href="#ArialMT-30"/>
      </g>
     </g>
    </g>
    <g id="xtick_6">
     <g id="line2d_41">
      <g>
       <use style="fill:#262626;stroke:#262626;" x="536.857105" xlink:href="#mffaface130" y="307.57825"/>
      </g>
     </g>
     <g id="text_12">
      <!-- 1000 -->
      <defs>
       <path d="M 37.25 0 
L 28.46875 0 
L 28.46875 56 
Q 25.296875 52.984375 20.140625 49.953125 
Q 14.984375 46.921875 10.890625 45.40625 
L 10.890625 53.90625 
Q 18.265625 57.375 23.78125 62.296875 
Q 29.296875 67.234375 31.59375 71.875 
L 37.25 71.875 
z
" id="ArialMT-31"/>
      </defs>
      <g style="fill:#262626;" transform="translate(522.398668 329.883406)scale(0.13 -0.13)">
       <use xlink:href="#ArialMT-31"/>
       <use x="55.615234" xlink:href="#ArialMT-30"/>
       <use x="111.230469" xlink:href="#ArialMT-30"/>
       <use x="166.845703" xlink:href="#ArialMT-30"/>
      </g>
     </g>
    </g>
    <g id="xtick_7">
     <g id="line2d_42">
      <g>
       <use style="fill:#262626;stroke:#262626;" x="594.699658" xlink:href="#mffaface130" y="307.57825"/>
      </g>
     </g>
     <g id="text_13">
      <!-- 1500 -->
      <g style="fill:#262626;" transform="translate(580.24122 329.883406)scale(0.13 -0.13)">
       <use xlink:href="#ArialMT-31"/>
       <use x="55.615234" xlink:href="#ArialMT-35"/>
       <use x="111.230469" xlink:href="#ArialMT-30"/>
       <use x="166.845703" xlink:href="#ArialMT-30"/>
      </g>
     </g>
    </g>
    <g id="xtick_8">
     <g id="line2d_43">
      <g>
       <use style="fill:#262626;stroke:#262626;" x="652.54221" xlink:href="#mffaface130" y="307.57825"/>
      </g>
     </g>
     <g id="text_14">
      <!-- 2000 -->
      <g style="fill:#262626;" transform="translate(638.083773 329.883406)scale(0.13 -0.13)">
       <use xlink:href="#ArialMT-32"/>
       <use x="55.615234" xlink:href="#ArialMT-30"/>
       <use x="111.230469" xlink:href="#ArialMT-30"/>
       <use x="166.845703" xlink:href="#ArialMT-30"/>
      </g>
     </g>
    </g>
    <g id="text_15">
     <!-- Shortwave Heating Rate -->
     <defs>
      <path d="M 4.5 23 
L 13.421875 23.78125 
Q 14.0625 18.40625 16.375 14.96875 
Q 18.703125 11.53125 23.578125 9.40625 
Q 28.46875 7.28125 34.578125 7.28125 
Q 39.984375 7.28125 44.140625 8.890625 
Q 48.296875 10.5 50.3125 13.296875 
Q 52.34375 16.109375 52.34375 19.4375 
Q 52.34375 22.796875 50.390625 25.3125 
Q 48.4375 27.828125 43.953125 29.546875 
Q 41.0625 30.671875 31.203125 33.03125 
Q 21.34375 35.40625 17.390625 37.5 
Q 12.25 40.1875 9.734375 44.15625 
Q 7.234375 48.140625 7.234375 53.078125 
Q 7.234375 58.5 10.296875 63.203125 
Q 13.375 67.921875 19.28125 70.359375 
Q 25.203125 72.796875 32.421875 72.796875 
Q 40.375 72.796875 46.453125 70.234375 
Q 52.546875 67.671875 55.8125 62.6875 
Q 59.078125 57.71875 59.328125 51.421875 
L 50.25 50.734375 
Q 49.515625 57.515625 45.28125 60.984375 
Q 41.0625 64.453125 32.8125 64.453125 
Q 24.21875 64.453125 20.28125 61.296875 
Q 16.359375 58.15625 16.359375 53.71875 
Q 16.359375 49.859375 19.140625 47.359375 
Q 21.875 44.875 33.421875 42.265625 
Q 44.96875 39.65625 49.265625 37.703125 
Q 55.515625 34.8125 58.484375 30.390625 
Q 61.46875 25.984375 61.46875 20.21875 
Q 61.46875 14.5 58.203125 9.4375 
Q 54.9375 4.390625 48.796875 1.578125 
Q 42.671875 -1.21875 35.015625 -1.21875 
Q 25.296875 -1.21875 18.71875 1.609375 
Q 12.15625 4.4375 8.421875 10.125 
Q 4.6875 15.828125 4.5 23 
" id="ArialMT-53"/>
      <path d="M 6.59375 0 
L 6.59375 71.578125 
L 15.375 71.578125 
L 15.375 45.90625 
Q 21.53125 53.03125 30.90625 53.03125 
Q 36.671875 53.03125 40.921875 50.75 
Q 45.171875 48.484375 47 44.484375 
Q 48.828125 40.484375 48.828125 32.859375 
L 48.828125 0 
L 40.046875 0 
L 40.046875 32.859375 
Q 40.046875 39.453125 37.1875 42.453125 
Q 34.328125 45.453125 29.109375 45.453125 
Q 25.203125 45.453125 21.75 43.421875 
Q 18.3125 41.40625 16.84375 37.9375 
Q 15.375 34.46875 15.375 28.375 
L 15.375 0 
z
" id="ArialMT-68"/>
      <path d="M 3.328125 25.921875 
Q 3.328125 40.328125 11.328125 47.265625 
Q 18.015625 53.03125 27.640625 53.03125 
Q 38.328125 53.03125 45.109375 46.015625 
Q 51.90625 39.015625 51.90625 26.65625 
Q 51.90625 16.65625 48.90625 10.90625 
Q 45.90625 5.171875 40.15625 2 
Q 34.421875 -1.171875 27.640625 -1.171875 
Q 16.75 -1.171875 10.03125 5.8125 
Q 3.328125 12.796875 3.328125 25.921875 
M 12.359375 25.921875 
Q 12.359375 15.96875 16.703125 11.015625 
Q 21.046875 6.0625 27.640625 6.0625 
Q 34.1875 6.0625 38.53125 11.03125 
Q 42.875 16.015625 42.875 26.21875 
Q 42.875 35.84375 38.5 40.796875 
Q 34.125 45.75 27.640625 45.75 
Q 21.046875 45.75 16.703125 40.8125 
Q 12.359375 35.890625 12.359375 25.921875 
" id="ArialMT-6f"/>
      <path d="M 16.15625 0 
L 0.296875 51.859375 
L 9.375 51.859375 
L 17.625 21.921875 
L 20.703125 10.796875 
Q 20.90625 11.625 23.390625 21.484375 
L 31.640625 51.859375 
L 40.671875 51.859375 
L 48.4375 21.78125 
L 51.03125 11.859375 
L 54 21.875 
L 62.890625 51.859375 
L 71.4375 51.859375 
L 55.21875 0 
L 46.09375 0 
L 37.84375 31.0625 
L 35.84375 39.890625 
L 25.34375 0 
z
" id="ArialMT-77"/>
      <path d="M 21 0 
L 1.265625 51.859375 
L 10.546875 51.859375 
L 21.6875 20.796875 
Q 23.484375 15.765625 25 10.359375 
Q 26.171875 14.453125 28.265625 20.21875 
L 39.796875 51.859375 
L 48.828125 51.859375 
L 29.203125 0 
z
" id="ArialMT-76"/>
      <path d="M 8.015625 0 
L 8.015625 71.578125 
L 17.484375 71.578125 
L 17.484375 42.1875 
L 54.6875 42.1875 
L 54.6875 71.578125 
L 64.15625 71.578125 
L 64.15625 0 
L 54.6875 0 
L 54.6875 33.734375 
L 17.484375 33.734375 
L 17.484375 0 
z
" id="ArialMT-48"/>
      <path d="M 6.640625 61.46875 
L 6.640625 71.578125 
L 15.4375 71.578125 
L 15.4375 61.46875 
z
M 6.640625 0 
L 6.640625 51.859375 
L 15.4375 51.859375 
L 15.4375 0 
z
" id="ArialMT-69"/>
      <path d="M 6.59375 0 
L 6.59375 51.859375 
L 14.5 51.859375 
L 14.5 44.484375 
Q 20.21875 53.03125 31 53.03125 
Q 35.6875 53.03125 39.625 51.34375 
Q 43.5625 49.65625 45.515625 46.921875 
Q 47.46875 44.1875 48.25 40.4375 
Q 48.734375 37.984375 48.734375 31.890625 
L 48.734375 0 
L 39.9375 0 
L 39.9375 31.546875 
Q 39.9375 36.921875 38.90625 39.578125 
Q 37.890625 42.234375 35.28125 43.8125 
Q 32.671875 45.40625 29.15625 45.40625 
Q 23.53125 45.40625 19.453125 41.84375 
Q 15.375 38.28125 15.375 28.328125 
L 15.375 0 
z
" id="ArialMT-6e"/>
      <path d="M 4.984375 -4.296875 
L 13.53125 -5.5625 
Q 14.0625 -9.515625 16.5 -11.328125 
Q 19.78125 -13.765625 25.4375 -13.765625 
Q 31.546875 -13.765625 34.859375 -11.328125 
Q 38.1875 -8.890625 39.359375 -4.5 
Q 40.046875 -1.8125 39.984375 6.78125 
Q 34.234375 0 25.640625 0 
Q 14.9375 0 9.078125 7.71875 
Q 3.21875 15.4375 3.21875 26.21875 
Q 3.21875 33.640625 5.90625 39.90625 
Q 8.59375 46.1875 13.6875 49.609375 
Q 18.796875 53.03125 25.6875 53.03125 
Q 34.859375 53.03125 40.828125 45.609375 
L 40.828125 51.859375 
L 48.921875 51.859375 
L 48.921875 7.03125 
Q 48.921875 -5.078125 46.453125 -10.125 
Q 44 -15.1875 38.640625 -18.109375 
Q 33.296875 -21.046875 25.484375 -21.046875 
Q 16.21875 -21.046875 10.5 -16.875 
Q 4.78125 -12.703125 4.984375 -4.296875 
M 12.25 26.859375 
Q 12.25 16.65625 16.296875 11.96875 
Q 20.359375 7.28125 26.46875 7.28125 
Q 32.515625 7.28125 36.609375 11.9375 
Q 40.71875 16.609375 40.71875 26.5625 
Q 40.71875 36.078125 36.5 40.90625 
Q 32.28125 45.75 26.3125 45.75 
Q 20.453125 45.75 16.34375 40.984375 
Q 12.25 36.234375 12.25 26.859375 
" id="ArialMT-67"/>
      <path d="M 7.859375 0 
L 7.859375 71.578125 
L 39.59375 71.578125 
Q 49.171875 71.578125 54.140625 69.640625 
Q 59.125 67.71875 62.109375 62.828125 
Q 65.09375 57.953125 65.09375 52.046875 
Q 65.09375 44.4375 60.15625 39.203125 
Q 55.21875 33.984375 44.921875 32.5625 
Q 48.6875 30.765625 50.640625 29 
Q 54.78125 25.203125 58.5 19.484375 
L 70.953125 0 
L 59.03125 0 
L 49.5625 14.890625 
Q 45.40625 21.34375 42.71875 24.75 
Q 40.046875 28.171875 37.921875 29.53125 
Q 35.796875 30.90625 33.59375 31.453125 
Q 31.984375 31.78125 28.328125 31.78125 
L 17.328125 31.78125 
L 17.328125 0 
z
M 17.328125 39.984375 
L 37.703125 39.984375 
Q 44.1875 39.984375 47.84375 41.328125 
Q 51.515625 42.671875 53.421875 45.625 
Q 55.328125 48.578125 55.328125 52.046875 
Q 55.328125 57.125 51.640625 60.390625 
Q 47.953125 63.671875 39.984375 63.671875 
L 17.328125 63.671875 
z
" id="ArialMT-52"/>
     </defs>
     <g style="fill:#262626;" transform="translate(484.733563 346.877109)scale(0.143 -0.143)">
      <use xlink:href="#ArialMT-53"/>
      <use x="66.699219" xlink:href="#ArialMT-68"/>
      <use x="122.314453" xlink:href="#ArialMT-6f"/>
      <use x="177.929688" xlink:href="#ArialMT-72"/>
      <use x="211.230469" xlink:href="#ArialMT-74"/>
      <use x="239.013672" xlink:href="#ArialMT-77"/>
      <use x="311.230469" xlink:href="#ArialMT-61"/>
      <use x="366.845703" xlink:href="#ArialMT-76"/>
      <use x="416.845703" xlink:href="#ArialMT-65"/>
      <use x="472.460938" xlink:href="#ArialMT-20"/>
      <use x="500.244141" xlink:href="#ArialMT-48"/>
      <use x="572.460938" xlink:href="#ArialMT-65"/>
      <use x="628.076172" xlink:href="#ArialMT-61"/>
      <use x="683.691406" xlink:href="#ArialMT-74"/>
      <use x="711.474609" xlink:href="#ArialMT-69"/>
      <use x="733.691406" xlink:href="#ArialMT-6e"/>
      <use x="789.306641" xlink:href="#ArialMT-67"/>
      <use x="844.921875" xlink:href="#ArialMT-20"/>
      <use x="872.705078" xlink:href="#ArialMT-52"/>
      <use x="944.921875" xlink:href="#ArialMT-61"/>
      <use x="1000.537109" xlink:href="#ArialMT-74"/>
      <use x="1028.320312" xlink:href="#ArialMT-65"/>
     </g>
    </g>
   </g>
   <g id="matplotlib.axis_4">
    <g id="ytick_35">
     <g id="line2d_44">
      <g>
       <use style="fill:#262626;stroke:#262626;" x="421.172" xlink:href="#m81f8fde3d0" y="53.117602"/>
      </g>
     </g>
     <g id="text_16">
      <!-- ${10^{-2}}$ -->
      <g style="fill:#262626;" transform="translate(377.622 57.870727)scale(0.13 -0.13)">
       <use transform="translate(0 0.765625)" xlink:href="#DejaVuSans-31"/>
       <use transform="translate(63.623047 0.765625)" xlink:href="#DejaVuSans-30"/>
       <use transform="translate(128.203125 39.046875)scale(0.7)" xlink:href="#DejaVuSans-2212"/>
       <use transform="translate(186.855469 39.046875)scale(0.7)" xlink:href="#DejaVuSans-32"/>
      </g>
     </g>
    </g>
    <g id="ytick_36">
     <g id="line2d_45">
      <g>
       <use style="fill:#262626;stroke:#262626;" x="421.172" xlink:href="#m81f8fde3d0" y="133.656711"/>
      </g>
     </g>
     <g id="text_17">
      <!-- ${10^{-1}}$ -->
      <g style="fill:#262626;" transform="translate(377.622 138.344836)scale(0.13 -0.13)">
       <use transform="translate(0 0.684375)" xlink:href="#DejaVuSans-31"/>
       <use transform="translate(63.623047 0.684375)" xlink:href="#DejaVuSans-30"/>
       <use transform="translate(128.203125 38.965625)scale(0.7)" xlink:href="#DejaVuSans-2212"/>
       <use transform="translate(186.855469 38.965625)scale(0.7)" xlink:href="#DejaVuSans-31"/>
      </g>
     </g>
    </g>
    <g id="ytick_37">
     <g id="line2d_46">
      <g>
       <use style="fill:#262626;stroke:#262626;" x="421.172" xlink:href="#m81f8fde3d0" y="214.19582"/>
      </g>
     </g>
     <g id="text_18">
      <!-- ${10^{0}}$ -->
      <g style="fill:#262626;" transform="translate(385.292 218.948945)scale(0.13 -0.13)">
       <use transform="translate(0 0.765625)" xlink:href="#DejaVuSans-31"/>
       <use transform="translate(63.623047 0.765625)" xlink:href="#DejaVuSans-30"/>
       <use transform="translate(128.203125 39.046875)scale(0.7)" xlink:href="#DejaVuSans-30"/>
      </g>
     </g>
    </g>
    <g id="ytick_38">
     <g id="line2d_47">
      <g>
       <use style="fill:#262626;stroke:#262626;" x="421.172" xlink:href="#m81f8fde3d0" y="294.734929"/>
      </g>
     </g>
     <g id="text_19">
      <!-- ${10^{1}}$ -->
      <g style="fill:#262626;" transform="translate(385.292 299.423054)scale(0.13 -0.13)">
       <use transform="translate(0 0.684375)" xlink:href="#DejaVuSans-31"/>
       <use transform="translate(63.623047 0.684375)" xlink:href="#DejaVuSans-30"/>
       <use transform="translate(128.203125 38.965625)scale(0.7)" xlink:href="#DejaVuSans-31"/>
      </g>
     </g>
    </g>
    <g id="ytick_39">
     <g id="line2d_48">
      <g>
       <use style="fill:#262626;stroke:#262626;stroke-width:0.5;" x="421.172" xlink:href="#m06d7425ef7" y="21.067868"/>
      </g>
     </g>
    </g>
    <g id="ytick_40">
     <g id="line2d_49">
      <g>
       <use style="fill:#262626;stroke:#262626;stroke-width:0.5;" x="421.172" xlink:href="#m06d7425ef7" y="28.872914"/>
      </g>
     </g>
    </g>
    <g id="ytick_41">
     <g id="line2d_50">
      <g>
       <use style="fill:#262626;stroke:#262626;stroke-width:0.5;" x="421.172" xlink:href="#m06d7425ef7" y="35.250101"/>
      </g>
     </g>
    </g>
    <g id="ytick_42">
     <g id="line2d_51">
      <g>
       <use style="fill:#262626;stroke:#262626;stroke-width:0.5;" x="421.172" xlink:href="#m06d7425ef7" y="40.641936"/>
      </g>
     </g>
    </g>
    <g id="ytick_43">
     <g id="line2d_52">
      <g>
       <use style="fill:#262626;stroke:#262626;stroke-width:0.5;" x="421.172" xlink:href="#m06d7425ef7" y="45.312556"/>
      </g>
     </g>
    </g>
    <g id="ytick_44">
     <g id="line2d_53">
      <g>
       <use style="fill:#262626;stroke:#262626;stroke-width:0.5;" x="421.172" xlink:href="#m06d7425ef7" y="49.432334"/>
      </g>
     </g>
    </g>
    <g id="ytick_45">
     <g id="line2d_54">
      <g>
       <use style="fill:#262626;stroke:#262626;stroke-width:0.5;" x="421.172" xlink:href="#m06d7425ef7" y="77.362289"/>
      </g>
     </g>
    </g>
    <g id="ytick_46">
     <g id="line2d_55">
      <g>
       <use style="fill:#262626;stroke:#262626;stroke-width:0.5;" x="421.172" xlink:href="#m06d7425ef7" y="91.544523"/>
      </g>
     </g>
    </g>
    <g id="ytick_47">
     <g id="line2d_56">
      <g>
       <use style="fill:#262626;stroke:#262626;stroke-width:0.5;" x="421.172" xlink:href="#m06d7425ef7" y="101.606977"/>
      </g>
     </g>
    </g>
    <g id="ytick_48">
     <g id="line2d_57">
      <g>
       <use style="fill:#262626;stroke:#262626;stroke-width:0.5;" x="421.172" xlink:href="#m06d7425ef7" y="109.412023"/>
      </g>
     </g>
    </g>
    <g id="ytick_49">
     <g id="line2d_58">
      <g>
       <use style="fill:#262626;stroke:#262626;stroke-width:0.5;" x="421.172" xlink:href="#m06d7425ef7" y="115.78921"/>
      </g>
     </g>
    </g>
    <g id="ytick_50">
     <g id="line2d_59">
      <g>
       <use style="fill:#262626;stroke:#262626;stroke-width:0.5;" x="421.172" xlink:href="#m06d7425ef7" y="121.181045"/>
      </g>
     </g>
    </g>
    <g id="ytick_51">
     <g id="line2d_60">
      <g>
       <use style="fill:#262626;stroke:#262626;stroke-width:0.5;" x="421.172" xlink:href="#m06d7425ef7" y="125.851665"/>
      </g>
     </g>
    </g>
    <g id="ytick_52">
     <g id="line2d_61">
      <g>
       <use style="fill:#262626;stroke:#262626;stroke-width:0.5;" x="421.172" xlink:href="#m06d7425ef7" y="129.971443"/>
      </g>
     </g>
    </g>
    <g id="ytick_53">
     <g id="line2d_62">
      <g>
       <use style="fill:#262626;stroke:#262626;stroke-width:0.5;" x="421.172" xlink:href="#m06d7425ef7" y="157.901399"/>
      </g>
     </g>
    </g>
    <g id="ytick_54">
     <g id="line2d_63">
      <g>
       <use style="fill:#262626;stroke:#262626;stroke-width:0.5;" x="421.172" xlink:href="#m06d7425ef7" y="172.083632"/>
      </g>
     </g>
    </g>
    <g id="ytick_55">
     <g id="line2d_64">
      <g>
       <use style="fill:#262626;stroke:#262626;stroke-width:0.5;" x="421.172" xlink:href="#m06d7425ef7" y="182.146086"/>
      </g>
     </g>
    </g>
    <g id="ytick_56">
     <g id="line2d_65">
      <g>
       <use style="fill:#262626;stroke:#262626;stroke-width:0.5;" x="421.172" xlink:href="#m06d7425ef7" y="189.951132"/>
      </g>
     </g>
    </g>
    <g id="ytick_57">
     <g id="line2d_66">
      <g>
       <use style="fill:#262626;stroke:#262626;stroke-width:0.5;" x="421.172" xlink:href="#m06d7425ef7" y="196.328319"/>
      </g>
     </g>
    </g>
    <g id="ytick_58">
     <g id="line2d_67">
      <g>
       <use style="fill:#262626;stroke:#262626;stroke-width:0.5;" x="421.172" xlink:href="#m06d7425ef7" y="201.720154"/>
      </g>
     </g>
    </g>
    <g id="ytick_59">
     <g id="line2d_68">
      <g>
       <use style="fill:#262626;stroke:#262626;stroke-width:0.5;" x="421.172" xlink:href="#m06d7425ef7" y="206.390774"/>
      </g>
     </g>
    </g>
    <g id="ytick_60">
     <g id="line2d_69">
      <g>
       <use style="fill:#262626;stroke:#262626;stroke-width:0.5;" x="421.172" xlink:href="#m06d7425ef7" y="210.510553"/>
      </g>
     </g>
    </g>
    <g id="ytick_61">
     <g id="line2d_70">
      <g>
       <use style="fill:#262626;stroke:#262626;stroke-width:0.5;" x="421.172" xlink:href="#m06d7425ef7" y="238.440508"/>
      </g>
     </g>
    </g>
    <g id="ytick_62">
     <g id="line2d_71">
      <g>
       <use style="fill:#262626;stroke:#262626;stroke-width:0.5;" x="421.172" xlink:href="#m06d7425ef7" y="252.622741"/>
      </g>
     </g>
    </g>
    <g id="ytick_63">
     <g id="line2d_72">
      <g>
       <use style="fill:#262626;stroke:#262626;stroke-width:0.5;" x="421.172" xlink:href="#m06d7425ef7" y="262.685196"/>
      </g>
     </g>
    </g>
    <g id="ytick_64">
     <g id="line2d_73">
      <g>
       <use style="fill:#262626;stroke:#262626;stroke-width:0.5;" x="421.172" xlink:href="#m06d7425ef7" y="270.490242"/>
      </g>
     </g>
    </g>
    <g id="ytick_65">
     <g id="line2d_74">
      <g>
       <use style="fill:#262626;stroke:#262626;stroke-width:0.5;" x="421.172" xlink:href="#m06d7425ef7" y="276.867429"/>
      </g>
     </g>
    </g>
    <g id="ytick_66">
     <g id="line2d_75">
      <g>
       <use style="fill:#262626;stroke:#262626;stroke-width:0.5;" x="421.172" xlink:href="#m06d7425ef7" y="282.259264"/>
      </g>
     </g>
    </g>
    <g id="ytick_67">
     <g id="line2d_76">
      <g>
       <use style="fill:#262626;stroke:#262626;stroke-width:0.5;" x="421.172" xlink:href="#m06d7425ef7" y="286.929883"/>
      </g>
     </g>
    </g>
    <g id="ytick_68">
     <g id="line2d_77">
      <g>
       <use style="fill:#262626;stroke:#262626;stroke-width:0.5;" x="421.172" xlink:href="#m06d7425ef7" y="291.049662"/>
      </g>
     </g>
    </g>
    <g id="text_20">
     <!-- Pressure (bar) -->
     <g style="fill:#262626;" transform="translate(370.612297 210.062742)rotate(-90)scale(0.143 -0.143)">
      <use xlink:href="#ArialMT-50"/>
      <use x="66.699219" xlink:href="#ArialMT-72"/>
      <use x="100" xlink:href="#ArialMT-65"/>
      <use x="155.615234" xlink:href="#ArialMT-73"/>
      <use x="205.615234" xlink:href="#ArialMT-73"/>
      <use x="255.615234" xlink:href="#ArialMT-75"/>
      <use x="311.230469" xlink:href="#ArialMT-72"/>
      <use x="344.53125" xlink:href="#ArialMT-65"/>
      <use x="400.146484" xlink:href="#ArialMT-20"/>
      <use x="427.929688" xlink:href="#ArialMT-28"/>
      <use x="461.230469" xlink:href="#ArialMT-62"/>
      <use x="516.845703" xlink:href="#ArialMT-61"/>
      <use x="572.460938" xlink:href="#ArialMT-72"/>
      <use x="605.761719" xlink:href="#ArialMT-29"/>
     </g>
    </g>
   </g>
   <g id="line2d_78">
    <path clip-path="url(#p162fe07d7d)" d="M 426.129729 34.186648 
L 426.618766 39.500381 
L 427.008762 44.814115 
L 427.462182 50.127849 
L 427.952333 55.441583 
L 428.567216 60.755317 
L 429.240747 66.06905 
L 430.055066 71.382784 
L 431.021544 76.696518 
L 432.217303 82.010252 
L 433.609219 87.323985 
L 435.230641 92.637719 
L 437.128017 97.951453 
L 439.35818 103.265187 
L 441.99513 108.57892 
L 445.110492 113.892654 
L 448.991669 119.206388 
L 454.042273 124.520122 
L 460.175007 129.833856 
L 466.016525 135.147589 
L 469.916478 140.461323 
L 473.660081 145.775057 
L 478.711864 151.088791 
L 486.097399 156.402524 
L 494.24565 161.716258 
L 504.127032 167.029992 
L 512.271026 172.343726 
L 531.384255 177.657459 
L 558.162455 182.971193 
L 551.939593 188.284927 
L 532.459758 193.598661 
L 509.883376 198.912394 
L 488.131724 204.226128 
L 470.861111 209.539862 
L 458.912013 214.853596 
L 524.23599 220.16733 
L 545.787001 225.481063 
L 574.379651 230.794797 
L 608.161509 236.108531 
L 643.280849 241.422265 
L 673.288255 246.735998 
L 690.091178 252.049732 
L 685.606968 257.363466 
L 661.828228 262.6772 
L 625.030677 267.990933 
L 583.197449 273.304667 
L 542.762793 278.618401 
L 507.789471 283.932135 
L 479.984598 289.245869 
L 462.55985 294.559602 
" style="fill:none;stroke:#4c72b0;stroke-linecap:round;stroke-width:1.2;"/>
   </g>
   <g id="line2d_79">
    <path clip-path="url(#p162fe07d7d)" d="M 421.172 140.461323 
L 703.28925 140.461323 
" style="fill:none;stroke:#c44e52;stroke-linecap:round;stroke-width:1.2;"/>
   </g>
   <g id="line2d_80">
    <path clip-path="url(#p162fe07d7d)" d="M 421.172 220.16733 
L 703.28925 220.16733 
" style="fill:none;stroke:#55a868;stroke-linecap:round;stroke-width:1.2;"/>
   </g>
   <g id="line2d_81">
    <path clip-path="url(#p162fe07d7d)" d="M 421.172 294.559602 
L 703.28925 294.559602 
" style="fill:none;stroke:#8172b2;stroke-linecap:round;stroke-width:1.2;"/>
   </g>
   <g id="patch_8">
    <path d="M 421.172 307.57825 
L 421.172 21.168 
" style="fill:none;stroke:#262626;stroke-linecap:square;stroke-linejoin:miter;stroke-width:1.25;"/>
   </g>
   <g id="patch_9">
    <path d="M 703.28925 307.57825 
L 703.28925 21.168 
" style="fill:none;stroke:#262626;stroke-linecap:square;stroke-linejoin:miter;stroke-width:1.25;"/>
   </g>
   <g id="patch_10">
    <path d="M 421.172 307.57825 
L 703.28925 307.57825 
" style="fill:none;stroke:#262626;stroke-linecap:square;stroke-linejoin:miter;stroke-width:1.25;"/>
   </g>
   <g id="patch_11">
    <path d="M 421.172 21.168 
L 703.28925 21.168 
" style="fill:none;stroke:#262626;stroke-linecap:square;stroke-linejoin:miter;stroke-width:1.25;"/>
   </g>
  </g>
  <g id="axes_3">
   <g id="patch_12">
    <path d="M 776.71475 307.57825 
L 1058.832 307.57825 
L 1058.832 21.168 
L 776.71475 21.168 
z
" style="fill:#ffffff;"/>
   </g>
   <g id="matplotlib.axis_5">
    <g id="xtick_9">
     <g id="line2d_82">
      <g>
       <use style="fill:#262626;stroke:#262626;" x="776.71475" xlink:href="#mffaface130" y="307.57825"/>
      </g>
     </g>
     <g id="text_21">
      <!-- ${10^{3}}$ -->
      <defs>
       <path d="M 40.578125 39.3125 
Q 47.65625 37.796875 51.625 33 
Q 55.609375 28.21875 55.609375 21.1875 
Q 55.609375 10.40625 48.1875 4.484375 
Q 40.765625 -1.421875 27.09375 -1.421875 
Q 22.515625 -1.421875 17.65625 -0.515625 
Q 12.796875 0.390625 7.625 2.203125 
L 7.625 11.71875 
Q 11.71875 9.328125 16.59375 8.109375 
Q 21.484375 6.890625 26.8125 6.890625 
Q 36.078125 6.890625 40.9375 10.546875 
Q 45.796875 14.203125 45.796875 21.1875 
Q 45.796875 27.640625 41.28125 31.265625 
Q 36.765625 34.90625 28.71875 34.90625 
L 20.21875 34.90625 
L 20.21875 43.015625 
L 29.109375 43.015625 
Q 36.375 43.015625 40.234375 45.921875 
Q 44.09375 48.828125 44.09375 54.296875 
Q 44.09375 59.90625 40.109375 62.90625 
Q 36.140625 65.921875 28.71875 65.921875 
Q 24.65625 65.921875 20.015625 65.03125 
Q 15.375 64.15625 9.8125 62.3125 
L 9.8125 71.09375 
Q 15.4375 72.65625 20.34375 73.4375 
Q 25.25 74.21875 29.59375 74.21875 
Q 40.828125 74.21875 47.359375 69.109375 
Q 53.90625 64.015625 53.90625 55.328125 
Q 53.90625 49.265625 50.4375 45.09375 
Q 46.96875 40.921875 40.578125 39.3125 
" id="DejaVuSans-33"/>
      </defs>
      <g style="fill:#262626;" transform="translate(765.27475 330.0845)scale(0.13 -0.13)">
       <use transform="translate(0 0.765625)" xlink:href="#DejaVuSans-31"/>
       <use transform="translate(63.623047 0.765625)" xlink:href="#DejaVuSans-30"/>
       <use transform="translate(128.203125 39.046875)scale(0.7)" xlink:href="#DejaVuSans-33"/>
      </g>
     </g>
    </g>
    <g id="xtick_10">
     <g id="line2d_83">
      <g>
       <use style="fill:#262626;stroke:#262626;" x="967.70601" xlink:href="#mffaface130" y="307.57825"/>
      </g>
     </g>
     <g id="text_22">
      <!-- ${10^{4}}$ -->
      <defs>
       <path d="M 37.796875 64.3125 
L 12.890625 25.390625 
L 37.796875 25.390625 
z
M 35.203125 72.90625 
L 47.609375 72.90625 
L 47.609375 25.390625 
L 58.015625 25.390625 
L 58.015625 17.1875 
L 47.609375 17.1875 
L 47.609375 0 
L 37.796875 0 
L 37.796875 17.1875 
L 4.890625 17.1875 
L 4.890625 26.703125 
z
" id="DejaVuSans-34"/>
      </defs>
      <g style="fill:#262626;" transform="translate(956.26601 329.9545)scale(0.13 -0.13)">
       <use transform="translate(0 0.684375)" xlink:href="#DejaVuSans-31"/>
       <use transform="translate(63.623047 0.684375)" xlink:href="#DejaVuSans-30"/>
       <use transform="translate(128.203125 38.965625)scale(0.7)" xlink:href="#DejaVuSans-34"/>
      </g>
     </g>
    </g>
    <g id="xtick_11">
     <g id="line2d_84">
      <defs>
       <path d="M 0 0 
L 0 3 
" id="m3db7e47be3" style="stroke:#262626;stroke-width:0.5;"/>
      </defs>
      <g>
       <use style="fill:#262626;stroke:#262626;stroke-width:0.5;" x="834.208848" xlink:href="#m3db7e47be3" y="307.57825"/>
      </g>
     </g>
    </g>
    <g id="xtick_12">
     <g id="line2d_85">
      <g>
       <use style="fill:#262626;stroke:#262626;stroke-width:0.5;" x="867.84074" xlink:href="#m3db7e47be3" y="307.57825"/>
      </g>
     </g>
    </g>
    <g id="xtick_13">
     <g id="line2d_86">
      <g>
       <use style="fill:#262626;stroke:#262626;stroke-width:0.5;" x="891.702946" xlink:href="#m3db7e47be3" y="307.57825"/>
      </g>
     </g>
    </g>
    <g id="xtick_14">
     <g id="line2d_87">
      <g>
       <use style="fill:#262626;stroke:#262626;stroke-width:0.5;" x="910.211912" xlink:href="#m3db7e47be3" y="307.57825"/>
      </g>
     </g>
    </g>
    <g id="xtick_15">
     <g id="line2d_88">
      <g>
       <use style="fill:#262626;stroke:#262626;stroke-width:0.5;" x="925.334838" xlink:href="#m3db7e47be3" y="307.57825"/>
      </g>
     </g>
    </g>
    <g id="xtick_16">
     <g id="line2d_89">
      <g>
       <use style="fill:#262626;stroke:#262626;stroke-width:0.5;" x="938.12109" xlink:href="#m3db7e47be3" y="307.57825"/>
      </g>
     </g>
    </g>
    <g id="xtick_17">
     <g id="line2d_90">
      <g>
       <use style="fill:#262626;stroke:#262626;stroke-width:0.5;" x="949.197045" xlink:href="#m3db7e47be3" y="307.57825"/>
      </g>
     </g>
    </g>
    <g id="xtick_18">
     <g id="line2d_91">
      <g>
       <use style="fill:#262626;stroke:#262626;stroke-width:0.5;" x="958.966729" xlink:href="#m3db7e47be3" y="307.57825"/>
      </g>
     </g>
    </g>
    <g id="xtick_19">
     <g id="line2d_92">
      <g>
       <use style="fill:#262626;stroke:#262626;stroke-width:0.5;" x="1025.200109" xlink:href="#m3db7e47be3" y="307.57825"/>
      </g>
     </g>
    </g>
    <g id="xtick_20">
     <g id="line2d_93">
      <g>
       <use style="fill:#262626;stroke:#262626;stroke-width:0.5;" x="1058.832" xlink:href="#m3db7e47be3" y="307.57825"/>
      </g>
     </g>
    </g>
    <g id="text_23">
     <!-- Wavenumber -->
     <defs>
      <path d="M 20.21875 0 
L 1.21875 71.578125 
L 10.9375 71.578125 
L 21.828125 24.65625 
Q 23.578125 17.28125 24.859375 10.015625 
Q 27.59375 21.484375 28.078125 23.25 
L 41.703125 71.578125 
L 53.125 71.578125 
L 63.375 35.359375 
Q 67.234375 21.875 68.953125 10.015625 
Q 70.3125 16.796875 72.515625 25.59375 
L 83.734375 71.578125 
L 93.265625 71.578125 
L 73.640625 0 
L 64.5 0 
L 49.421875 54.546875 
Q 47.515625 61.375 47.171875 62.9375 
Q 46.046875 58.015625 45.0625 54.546875 
L 29.890625 0 
z
" id="ArialMT-57"/>
     </defs>
     <g style="fill:#262626;" transform="translate(875.259922 346.903922)scale(0.143 -0.143)">
      <use xlink:href="#ArialMT-57"/>
      <use x="94.337891" xlink:href="#ArialMT-61"/>
      <use x="149.953125" xlink:href="#ArialMT-76"/>
      <use x="199.953125" xlink:href="#ArialMT-65"/>
      <use x="255.568359" xlink:href="#ArialMT-6e"/>
      <use x="311.183594" xlink:href="#ArialMT-75"/>
      <use x="366.798828" xlink:href="#ArialMT-6d"/>
      <use x="450.099609" xlink:href="#ArialMT-62"/>
      <use x="505.714844" xlink:href="#ArialMT-65"/>
      <use x="561.330078" xlink:href="#ArialMT-72"/>
     </g>
    </g>
   </g>
   <g id="matplotlib.axis_6">
    <g id="ytick_69">
     <g id="line2d_94">
      <g>
       <use style="fill:#262626;stroke:#262626;" x="776.71475" xlink:href="#m81f8fde3d0" y="294.559602"/>
      </g>
     </g>
     <g id="text_24">
      <!-- 0 -->
      <g style="fill:#262626;" transform="translate(756.485531 299.21218)scale(0.13 -0.13)">
       <use xlink:href="#ArialMT-30"/>
      </g>
     </g>
    </g>
    <g id="ytick_70">
     <g id="line2d_95">
      <g>
       <use style="fill:#262626;stroke:#262626;" x="776.71475" xlink:href="#m81f8fde3d0" y="255.237774"/>
      </g>
     </g>
     <g id="text_25">
      <!-- 2500 -->
      <g style="fill:#262626;" transform="translate(734.797875 259.890353)scale(0.13 -0.13)">
       <use xlink:href="#ArialMT-32"/>
       <use x="55.615234" xlink:href="#ArialMT-35"/>
       <use x="111.230469" xlink:href="#ArialMT-30"/>
       <use x="166.845703" xlink:href="#ArialMT-30"/>
      </g>
     </g>
    </g>
    <g id="ytick_71">
     <g id="line2d_96">
      <g>
       <use style="fill:#262626;stroke:#262626;" x="776.71475" xlink:href="#m81f8fde3d0" y="215.915947"/>
      </g>
     </g>
     <g id="text_26">
      <!-- 5000 -->
      <g style="fill:#262626;" transform="translate(734.797875 220.568525)scale(0.13 -0.13)">
       <use xlink:href="#ArialMT-35"/>
       <use x="55.615234" xlink:href="#ArialMT-30"/>
       <use x="111.230469" xlink:href="#ArialMT-30"/>
       <use x="166.845703" xlink:href="#ArialMT-30"/>
      </g>
     </g>
    </g>
    <g id="ytick_72">
     <g id="line2d_97">
      <g>
       <use style="fill:#262626;stroke:#262626;" x="776.71475" xlink:href="#m81f8fde3d0" y="176.594119"/>
      </g>
     </g>
     <g id="text_27">
      <!-- 7500 -->
      <defs>
       <path d="M 4.734375 62.203125 
L 4.734375 70.65625 
L 51.078125 70.65625 
L 51.078125 63.8125 
Q 44.234375 56.546875 37.515625 44.484375 
Q 30.8125 32.421875 27.15625 19.671875 
Q 24.515625 10.6875 23.78125 0 
L 14.75 0 
Q 14.890625 8.453125 18.0625 20.40625 
Q 21.234375 32.375 27.171875 43.484375 
Q 33.109375 54.59375 39.796875 62.203125 
z
" id="ArialMT-37"/>
      </defs>
      <g style="fill:#262626;" transform="translate(734.797875 181.246697)scale(0.13 -0.13)">
       <use xlink:href="#ArialMT-37"/>
       <use x="55.615234" xlink:href="#ArialMT-35"/>
       <use x="111.230469" xlink:href="#ArialMT-30"/>
       <use x="166.845703" xlink:href="#ArialMT-30"/>
      </g>
     </g>
    </g>
    <g id="ytick_73">
     <g id="line2d_98">
      <g>
       <use style="fill:#262626;stroke:#262626;" x="776.71475" xlink:href="#m81f8fde3d0" y="137.272291"/>
      </g>
     </g>
     <g id="text_28">
      <!-- 10000 -->
      <g style="fill:#262626;" transform="translate(727.568656 141.924869)scale(0.13 -0.13)">
       <use xlink:href="#ArialMT-31"/>
       <use x="55.615234" xlink:href="#ArialMT-30"/>
       <use x="111.230469" xlink:href="#ArialMT-30"/>
       <use x="166.845703" xlink:href="#ArialMT-30"/>
       <use x="222.460938" xlink:href="#ArialMT-30"/>
      </g>
     </g>
    </g>
    <g id="ytick_74">
     <g id="line2d_99">
      <g>
       <use style="fill:#262626;stroke:#262626;" x="776.71475" xlink:href="#m81f8fde3d0" y="97.950463"/>
      </g>
     </g>
     <g id="text_29">
      <!-- 12500 -->
      <g style="fill:#262626;" transform="translate(727.568656 102.603041)scale(0.13 -0.13)">
       <use xlink:href="#ArialMT-31"/>
       <use x="55.615234" xlink:href="#ArialMT-32"/>
       <use x="111.230469" xlink:href="#ArialMT-35"/>
       <use x="166.845703" xlink:href="#ArialMT-30"/>
       <use x="222.460938" xlink:href="#ArialMT-30"/>
      </g>
     </g>
    </g>
    <g id="ytick_75">
     <g id="line2d_100">
      <g>
       <use style="fill:#262626;stroke:#262626;" x="776.71475" xlink:href="#m81f8fde3d0" y="58.628635"/>
      </g>
     </g>
     <g id="text_30">
      <!-- 15000 -->
      <g style="fill:#262626;" transform="translate(727.568656 63.281213)scale(0.13 -0.13)">
       <use xlink:href="#ArialMT-31"/>
       <use x="55.615234" xlink:href="#ArialMT-35"/>
       <use x="111.230469" xlink:href="#ArialMT-30"/>
       <use x="166.845703" xlink:href="#ArialMT-30"/>
       <use x="222.460938" xlink:href="#ArialMT-30"/>
      </g>
     </g>
    </g>
    <g id="text_31">
     <!-- Flux -->
     <defs>
      <path d="M 8.203125 0 
L 8.203125 71.578125 
L 56.5 71.578125 
L 56.5 63.140625 
L 17.671875 63.140625 
L 17.671875 40.96875 
L 51.265625 40.96875 
L 51.265625 32.515625 
L 17.671875 32.515625 
L 17.671875 0 
z
" id="ArialMT-46"/>
      <path d="M 6.390625 0 
L 6.390625 71.578125 
L 15.1875 71.578125 
L 15.1875 0 
z
" id="ArialMT-6c"/>
      <path d="M 0.734375 0 
L 19.671875 26.953125 
L 2.15625 51.859375 
L 13.140625 51.859375 
L 21.09375 39.703125 
Q 23.34375 36.234375 24.703125 33.890625 
Q 26.859375 37.109375 28.65625 39.59375 
L 37.40625 51.859375 
L 47.90625 51.859375 
L 29.984375 27.4375 
L 49.265625 0 
L 38.484375 0 
L 27.828125 16.109375 
L 25 20.453125 
L 11.375 0 
z
" id="ArialMT-78"/>
     </defs>
     <g style="fill:#262626;" transform="translate(720.726531 177.879922)rotate(-90)scale(0.143 -0.143)">
      <use xlink:href="#ArialMT-46"/>
      <use x="61.083984" xlink:href="#ArialMT-6c"/>
      <use x="83.300781" xlink:href="#ArialMT-75"/>
      <use x="138.916016" xlink:href="#ArialMT-78"/>
     </g>
    </g>
   </g>
   <g id="line2d_101">
    <path clip-path="url(#p32050d20d3)" d="M 445.009043 294.524774 
L 616.185067 294.0424 
L 661.854065 293.616665 
L 690.356724 293.09703 
L 711.318617 292.333339 
L 727.95697 291.407607 
L 741.7718 290.285016 
L 753.591395 288.975993 
L 763.923676 287.493693 
L 773.103398 285.79243 
L 781.363188 283.929398 
L 788.871412 281.980074 
L 795.753928 279.97984 
L 802.107325 277.510846 
L 808.00737 273.779564 
L 818.678184 268.314337 
L 828.129406 262.577411 
L 832.479109 259.673526 
L 836.611766 268.285022 
L 840.548036 266.655977 
L 844.305758 248.922236 
L 847.900443 244.045596 
L 851.345665 244.902792 
L 857.834117 237.645093 
L 860.897305 233.645625 
L 863.851318 229.529478 
L 866.703677 225.300592 
L 869.461148 220.82361 
L 872.129847 216.027422 
L 874.715312 210.308063 
L 877.222582 202.545964 
L 879.65625 194.511002 
L 882.020516 187.674587 
L 886.555932 177.352969 
L 888.73388 172.990519 
L 890.856082 167.453967 
L 892.925323 164.760337 
L 894.944182 163.144164 
L 896.915055 159.45593 
L 898.840171 146.880134 
L 900.721608 155.433676 
L 906.122603 141.747437 
L 907.847497 136.165335 
L 909.537242 129.619925 
L 911.193245 124.770254 
L 914.409231 112.954382 
L 915.971634 106.244466 
L 917.505146 97.871282 
L 919.010815 88.307921 
L 920.489636 77.763358 
L 921.942548 68.413319 
L 923.370445 57.606744 
L 924.774172 48.76692 
L 926.154536 44.213821 
L 928.848194 37.934617 
L 930.16291 34.186648 
L 931.457111 58.298485 
L 932.731425 74.192337 
L 933.986456 74.333481 
L 935.222777 74.963475 
L 936.44094 76.396633 
L 937.64147 76.983143 
L 938.824869 77.349742 
L 939.991621 78.064278 
L 942.277008 80.511877 
L 943.396512 80.662867 
L 945.591183 78.600852 
L 946.667118 78.001256 
L 947.729274 76.982375 
L 948.777999 76.574948 
L 949.81363 76.854594 
L 950.836488 76.247748 
L 951.846885 77.407465 
L 952.845122 77.742469 
L 953.831487 77.362675 
L 954.806259 79.678239 
L 955.769709 79.697117 
L 956.722095 80.303456 
L 957.663669 81.239577 
L 958.594674 81.508455 
L 959.515344 83.091819 
L 960.425907 83.128837 
L 961.326582 82.856718 
L 962.217581 84.264839 
L 963.099111 83.91552 
L 965.688841 80.66299 
L 966.534422 80.030339 
L 967.371469 78.236572 
L 968.200153 77.529409 
L 969.020639 77.313308 
L 969.833089 76.660903 
L 970.637657 76.209808 
L 971.434496 75.975398 
L 972.223752 76.49675 
L 973.005569 75.149286 
L 973.780085 75.768528 
L 974.547435 74.787771 
L 975.307752 74.55181 
L 976.061162 75.521385 
L 976.80779 74.376597 
L 977.547757 74.689467 
L 978.281181 75.833517 
L 979.008176 80.906094 
L 979.728855 79.415505 
L 980.443325 82.387022 
L 981.151694 82.745496 
L 981.854064 78.623754 
L 982.550537 78.204654 
L 983.241209 77.410245 
L 983.926178 78.373891 
L 984.605537 77.796598 
L 985.279377 77.835858 
L 985.947786 78.124996 
L 986.610852 79.418685 
L 987.268659 78.70719 
L 987.92129 78.255619 
L 989.211347 81.574012 
L 989.848928 81.559958 
L 990.481645 80.996964 
L 991.109573 81.320755 
L 991.732782 81.428537 
L 992.351344 83.973535 
L 992.965327 83.469862 
L 993.574799 83.152323 
L 994.179824 83.071836 
L 995.376795 85.926954 
L 995.968864 85.03186 
L 996.556737 85.305469 
L 997.140473 86.148631 
L 997.720129 86.171456 
L 998.295763 85.693557 
L 998.867429 86.447384 
L 999.435182 86.513848 
L 999.999075 85.859861 
L 1000.55916 86.08183 
L 1001.115489 86.446325 
L 1001.668111 86.224479 
L 1002.217076 95.566915 
L 1002.762431 93.930943 
L 1003.304225 89.25272 
L 1003.842502 90.097065 
L 1004.377308 89.997577 
L 1004.908688 89.443662 
L 1005.436686 90.874515 
L 1005.961343 90.378185 
L 1006.482703 93.600501 
L 1007.000806 93.203136 
L 1007.515694 94.307265 
L 1008.027404 97.26912 
L 1008.535977 96.061894 
L 1009.041451 93.449988 
L 1010.04325 97.818474 
L 1010.539649 97.390818 
L 1011.033094 98.728236 
L 1011.523621 103.721586 
L 1012.011264 102.890636 
L 1012.496058 99.947182 
L 1012.978034 102.29958 
L 1013.457225 103.764395 
L 1014.407382 107.860117 
L 1014.87841 111.08062 
L 1015.346778 112.083772 
L 1015.812517 115.45651 
L 1016.275654 115.38931 
L 1016.73622 114.795381 
L 1017.194243 117.282794 
L 1017.649751 118.151392 
L 1018.10277 119.738534 
L 1018.553329 124.971793 
L 1019.44717 123.435477 
L 1019.890504 124.378879 
L 1020.331482 124.542801 
L 1020.770127 132.917782 
L 1021.206464 133.277808 
L 1021.640519 132.368229 
L 1022.072313 147.286362 
L 1022.501872 144.589515 
L 1022.929217 135.2625 
L 1023.354372 133.33424 
L 1024.1982 137.687812 
L 1024.616916 141.150729 
L 1025.033529 142.867741 
L 1025.44806 142.867434 
L 1025.86053 139.827181 
L 1026.270958 141.982554 
L 1027.085773 148.630462 
L 1027.490198 155.516528 
L 1028.29318 143.140889 
L 1028.691775 143.537456 
L 1029.088464 145.060424 
L 1029.483264 148.925852 
L 1029.876194 150.202552 
L 1030.267271 150.88434 
L 1030.656514 152.696401 
L 1031.043938 153.03761 
L 1031.429561 154.753009 
L 1031.813399 154.328748 
L 1032.195469 155.032547 
L 1032.575788 154.168619 
L 1032.954371 156.301199 
L 1033.331233 160.62322 
L 1033.706391 156.685016 
L 1034.07986 157.674329 
L 1034.451655 167.616592 
L 1034.821791 169.90695 
L 1035.190282 169.688284 
L 1035.557143 174.575427 
L 1035.92239 183.258009 
L 1036.286034 179.462178 
L 1036.648092 184.945983 
L 1037.008576 186.252942 
L 1037.3675 202.169274 
L 1037.724878 208.066979 
L 1038.080722 197.590754 
L 1038.435046 192.665103 
L 1038.787864 190.436831 
L 1039.139186 190.171869 
L 1039.489027 192.582773 
L 1039.837399 192.402515 
L 1040.184314 189.646239 
L 1040.529784 191.109533 
L 1040.87382 193.121736 
L 1041.216436 189.920033 
L 1041.897451 199.211942 
L 1042.235873 203.256322 
L 1042.57292 205.356216 
L 1043.242933 198.236092 
L 1043.575921 199.756442 
L 1043.907577 206.634375 
L 1044.237912 237.887786 
L 1044.566937 237.813935 
L 1044.894662 247.10905 
L 1045.221098 243.040708 
L 1045.546253 226.494885 
L 1045.870139 231.030962 
L 1046.192765 242.328468 
L 1046.514141 246.061408 
L 1046.834277 246.166536 
L 1047.153182 253.576631 
L 1047.470865 247.885407 
L 1048.102605 230.343137 
L 1048.41668 228.783454 
L 1048.72957 233.425043 
L 1049.041284 245.230054 
L 1049.351831 248.213529 
L 1049.66122 240.070243 
L 1049.969459 237.371572 
L 1050.276557 237.192239 
L 1050.582522 235.523112 
L 1050.887362 231.356334 
L 1051.493703 244.492666 
L 1051.795219 243.257562 
L 1052.095643 245.307204 
L 1052.394983 242.146758 
L 1052.693246 253.480914 
L 1052.990441 260.398088 
L 1053.581655 239.423649 
L 1053.87569 241.662128 
L 1054.168685 246.35111 
L 1054.460649 244.719293 
L 1054.75159 246.86128 
L 1055.041513 243.533586 
L 1055.330426 246.954727 
L 1055.618337 248.098774 
L 1055.905252 250.182043 
L 1056.191177 255.028063 
L 1056.476121 256.236714 
L 1056.760088 258.647038 
L 1057.043087 255.587931 
L 1057.325124 256.246702 
L 1057.886337 262.861935 
L 1058.165526 260.948848 
L 1058.443778 254.775432 
L 1058.7211 253.802482 
L 1058.7211 253.802482 
" style="fill:none;stroke:#c44e52;stroke-linecap:round;stroke-width:1.2;"/>
   </g>
   <g id="line2d_102">
    <path clip-path="url(#p32050d20d3)" d="M 445.009043 294.552039 
L 616.185067 294.436024 
L 661.854065 293.806671 
L 690.356724 293.100802 
L 711.318617 292.336084 
L 727.95697 291.410167 
L 741.7718 290.288596 
L 753.591395 288.981435 
L 763.923676 287.501513 
L 773.103398 285.806085 
L 781.363188 283.949717 
L 788.871412 282.001034 
L 795.753928 279.995911 
L 802.107325 277.537536 
L 808.00737 273.987449 
L 813.514607 275.615475 
L 818.678184 287.21438 
L 823.538553 294.000108 
L 828.129406 294.559602 
L 844.305758 294.559602 
L 847.900443 255.405242 
L 851.345665 244.930905 
L 857.834117 237.677479 
L 860.897305 233.681817 
L 863.851318 229.571119 
L 866.703677 225.351242 
L 869.461148 220.874014 
L 872.129847 216.085637 
L 874.715312 210.411098 
L 879.65625 195.479724 
L 882.020516 192.976353 
L 884.319231 206.660955 
L 886.555932 234.809747 
L 888.73388 269.505584 
L 890.856082 288.676949 
L 892.925323 293.985758 
L 894.944182 294.453827 
L 896.915055 294.522969 
L 898.840171 229.829392 
L 900.721608 155.552717 
L 906.122603 141.883343 
L 907.847497 136.30863 
L 909.537242 129.773142 
L 911.193245 124.937679 
L 914.409231 113.208377 
L 915.971634 106.621402 
L 917.505146 98.541181 
L 920.489636 80.939533 
L 921.942548 75.127291 
L 923.370445 73.970292 
L 924.774172 87.728047 
L 926.154536 110.055181 
L 927.5123 118.268297 
L 928.848194 122.531075 
L 930.16291 120.378727 
L 931.457111 75.651039 
L 932.731425 74.597675 
L 933.986456 74.754455 
L 935.222777 75.399487 
L 936.44094 76.846346 
L 937.64147 77.448523 
L 938.824869 77.831496 
L 939.991621 78.561883 
L 942.277008 81.039235 
L 943.396512 81.207981 
L 945.591183 79.188452 
L 946.667118 78.60864 
L 947.729274 77.610618 
L 948.777999 77.22253 
L 949.81363 77.521207 
L 950.836488 76.945495 
L 951.846885 78.167667 
L 952.845122 78.591098 
L 953.831487 79.277525 
L 954.806259 80.427366 
L 955.769709 80.465106 
L 956.722095 81.088188 
L 957.663669 82.039868 
L 958.594674 82.326779 
L 959.515344 83.923 
L 960.425907 83.979003 
L 961.326582 83.727097 
L 962.217581 85.148505 
L 963.099111 84.817295 
L 965.688841 81.609939 
L 966.534422 80.990406 
L 967.371469 79.215056 
L 968.200153 78.521425 
L 969.020639 78.31669 
L 969.833089 77.677665 
L 970.637657 77.239026 
L 971.434496 77.016075 
L 972.223752 77.545214 
L 973.005569 76.214601 
L 973.780085 76.841047 
L 974.547435 75.875465 
L 975.307752 75.650901 
L 976.061162 76.625867 
L 976.80779 75.497116 
L 977.547757 75.818572 
L 978.281181 76.966861 
L 979.008176 82.022972 
L 979.728855 80.550247 
L 980.443325 83.515343 
L 981.151694 83.880683 
L 981.854064 79.789784 
L 982.550537 79.381713 
L 983.241209 78.600468 
L 983.926178 79.567539 
L 984.605537 79.002242 
L 985.279377 79.049996 
L 985.947786 79.346262 
L 986.610852 80.641271 
L 987.268659 79.942556 
L 987.92129 79.502213 
L 989.211347 82.818548 
L 989.848928 82.813111 
L 990.481645 82.261945 
L 991.109573 82.592309 
L 991.732782 82.70794 
L 992.351344 85.245995 
L 992.965327 84.753843 
L 993.574799 84.446564 
L 994.179824 84.374971 
L 995.376795 87.229013 
L 995.968864 86.34779 
L 996.556737 86.627912 
L 997.140473 87.473976 
L 997.720129 87.504881 
L 998.295763 87.038579 
L 998.867429 87.796369 
L 999.435182 87.871234 
L 999.999075 87.230319 
L 1000.55916 87.459614 
L 1001.115489 87.830468 
L 1001.668111 87.618837 
L 1002.217076 96.906991 
L 1002.762431 95.29071 
L 1003.304225 90.652654 
L 1003.842502 91.499825 
L 1004.377308 91.409569 
L 1004.908688 90.868049 
L 1005.436686 92.297428 
L 1005.961343 91.810759 
L 1006.482703 95.015027 
L 1007.000806 94.625142 
L 1007.515694 95.726046 
L 1008.027404 98.671496 
L 1008.535977 97.47748 
L 1009.041451 94.888905 
L 1010.04325 99.235365 
L 1010.539649 98.815451 
L 1011.033094 100.147847 
L 1011.523621 105.109539 
L 1012.011264 104.289311 
L 1012.496058 101.372015 
L 1012.978034 103.711848 
L 1013.457225 105.170611 
L 1014.407382 109.245397 
L 1014.87841 112.446593 
L 1015.346778 113.446903 
L 1015.812517 116.798982 
L 1016.275654 116.736958 
L 1016.73622 116.152122 
L 1017.194243 118.625296 
L 1017.649751 119.490162 
L 1018.10277 121.067458 
L 1018.553329 126.263101 
L 1019.44717 124.742943 
L 1019.890504 125.681414 
L 1020.331482 125.846366 
L 1020.770127 134.159323 
L 1021.206464 134.518872 
L 1021.640519 133.618525 
L 1022.072313 148.423731 
L 1022.501872 145.750031 
L 1022.929217 136.498281 
L 1023.354372 134.589221 
L 1024.1982 138.917233 
L 1024.616916 142.357095 
L 1025.033529 144.064737 
L 1025.44806 144.068547 
L 1025.86053 141.056633 
L 1026.270958 143.199012 
L 1027.085773 149.801976 
L 1027.490198 156.63442 
L 1028.29318 144.359328 
L 1028.691775 144.753192 
L 1029.088464 146.264363 
L 1029.483264 150.099102 
L 1029.876194 151.365941 
L 1030.267271 152.042629 
L 1030.656514 153.840451 
L 1031.043938 154.179279 
L 1031.429561 155.881177 
L 1031.813399 155.460648 
L 1032.195469 156.159087 
L 1032.575788 155.302409 
L 1032.954371 157.418046 
L 1033.331233 161.7054 
L 1033.706391 157.799253 
L 1034.07986 158.780778 
L 1034.451655 168.642869 
L 1034.821791 170.914887 
L 1035.190282 170.698141 
L 1035.557143 175.545892 
L 1035.92239 184.158356 
L 1036.286034 180.393345 
L 1036.648092 185.832867 
L 1037.008576 187.129327 
L 1037.3675 202.916918 
L 1037.724878 208.766939 
L 1038.080722 198.375531 
L 1038.435046 193.489763 
L 1038.787864 191.279531 
L 1039.139186 191.01672 
L 1039.489027 193.408102 
L 1039.837399 193.229279 
L 1040.184314 190.495276 
L 1040.529784 191.946681 
L 1040.87382 193.942541 
L 1041.216436 190.766681 
L 1041.897451 199.983249 
L 1042.235873 203.994828 
L 1042.57292 206.077633 
L 1043.242933 199.014849 
L 1043.575921 200.522764 
L 1043.907577 207.344433 
L 1044.237912 238.344845 
L 1044.566937 238.27069 
L 1044.894662 247.49056 
L 1045.221098 243.454098 
L 1045.546253 227.040322 
L 1045.870139 231.539307 
L 1046.192765 242.745767 
L 1046.514141 246.448251 
L 1046.834277 246.551955 
L 1047.153182 253.902549 
L 1047.470865 248.255923 
L 1048.102605 230.851371 
L 1048.41668 229.303255 
L 1048.72957 233.907415 
L 1049.041284 245.618699 
L 1049.351831 248.578028 
L 1049.66122 240.49811 
L 1049.969459 237.819952 
L 1050.276557 237.641299 
L 1050.582522 235.984506 
L 1050.887362 231.849497 
L 1051.493703 244.882095 
L 1051.795219 243.655945 
L 1052.095643 245.689075 
L 1052.394983 242.552445 
L 1052.693246 253.798442 
L 1052.990441 260.661641 
L 1053.581655 239.847649 
L 1053.87569 242.06828 
L 1054.168685 246.72064 
L 1054.460649 245.10068 
L 1054.75159 247.225702 
L 1055.041513 243.922738 
L 1055.330426 247.317245 
L 1055.618337 248.451937 
L 1055.905252 250.518848 
L 1056.191177 255.327569 
L 1056.476121 256.52657 
L 1056.760088 258.918209 
L 1057.043087 255.881669 
L 1057.325124 256.535022 
L 1057.886337 263.099667 
L 1058.165526 261.200699 
L 1058.443778 255.073368 
L 1058.7211 254.107525 
L 1058.7211 254.107525 
" style="fill:none;stroke:#55a868;stroke-linecap:round;stroke-width:1.2;"/>
   </g>
   <g id="line2d_103">
    <path clip-path="url(#p32050d20d3)" d="M 445.009043 294.555114 
L 616.185067 294.559602 
L 661.854065 294.554504 
L 690.356724 293.284681 
L 711.318617 292.578592 
L 727.95697 291.638505 
L 741.7718 290.607675 
L 753.591395 289.464963 
L 773.103398 287.000924 
L 781.363188 285.7092 
L 788.871412 283.830037 
L 795.753928 281.445952 
L 802.107325 280.305408 
L 808.00737 287.917298 
L 813.514607 294.559602 
L 844.305758 294.559602 
L 847.900443 289.355308 
L 851.345665 247.43799 
L 857.834117 240.561801 
L 866.703677 229.864904 
L 869.461148 225.453264 
L 872.129847 221.691901 
L 874.715312 220.982211 
L 877.222582 228.777103 
L 879.65625 247.419324 
L 882.020516 286.937677 
L 884.319231 294.559522 
L 896.915055 294.559602 
L 898.840171 287.360002 
L 900.721608 166.361389 
L 906.122603 154.520964 
L 907.847497 149.764805 
L 909.537242 144.336334 
L 912.816826 138.121842 
L 914.409231 137.997732 
L 915.971634 140.779122 
L 917.505146 148.568407 
L 919.010815 163.993193 
L 920.489636 190.057605 
L 921.942548 219.138624 
L 923.370445 269.911782 
L 924.774172 294.305047 
L 926.154536 294.532468 
L 928.848194 294.477282 
L 930.16291 294.18477 
L 931.457111 169.521957 
L 932.731425 118.647138 
L 933.986456 120.517967 
L 935.222777 122.774149 
L 936.44094 125.652844 
L 939.991621 132.211572 
L 942.277008 137.531984 
L 943.396512 139.387467 
L 945.591183 141.404354 
L 946.667118 142.78667 
L 947.729274 143.910952 
L 948.777999 145.456868 
L 949.81363 147.469362 
L 950.836488 148.885102 
L 951.846885 151.487178 
L 952.845122 153.545368 
L 953.831487 156.86049 
L 954.806259 158.193055 
L 955.769709 159.934904 
L 958.594674 166.125281 
L 959.515344 168.721528 
L 961.326582 171.83531 
L 962.217581 174.242812 
L 963.099111 175.439247 
L 965.688841 176.407724 
L 966.534422 176.977691 
L 967.371469 176.915659 
L 968.200153 177.444192 
L 969.020639 178.238654 
L 970.637657 179.455949 
L 971.434496 180.227118 
L 972.223752 181.385268 
L 973.005569 181.573775 
L 973.780085 182.763545 
L 974.547435 183.140758 
L 975.307752 183.883249 
L 976.061162 185.229599 
L 976.80779 185.51436 
L 977.547757 186.512781 
L 978.281181 187.911317 
L 979.008176 191.189943 
L 979.728855 191.290444 
L 980.443325 193.442385 
L 981.151694 194.243061 
L 981.854064 192.91333 
L 982.550537 193.335464 
L 983.241209 193.584236 
L 983.926178 194.640718 
L 984.605537 194.985314 
L 985.947786 196.334475 
L 986.610852 197.508838 
L 987.92129 198.155506 
L 989.211347 200.769424 
L 989.848928 201.325168 
L 990.481645 201.63614 
L 991.732782 202.923961 
L 992.351344 204.553098 
L 993.574799 205.26937 
L 994.179824 205.764149 
L 995.376795 207.990041 
L 995.968864 208.129219 
L 996.556737 208.746003 
L 997.140473 209.591845 
L 997.720129 210.097122 
L 998.295763 210.41927 
L 998.867429 211.251602 
L 999.435182 211.802246 
L 999.999075 212.058683 
L 1001.668111 213.708502 
L 1002.217076 217.793625 
L 1002.762431 217.641169 
L 1003.304225 216.30769 
L 1003.842502 217.089757 
L 1004.377308 217.505954 
L 1004.908688 217.745471 
L 1005.436686 218.717035 
L 1005.961343 218.81789 
L 1006.482703 220.194046 
L 1007.000806 220.228046 
L 1007.515694 220.806891 
L 1008.027404 222.065258 
L 1008.535977 221.78562 
L 1009.041451 220.988793 
L 1010.04325 222.888536 
L 1010.539649 222.877246 
L 1011.033094 223.502164 
L 1011.523621 225.444808 
L 1012.011264 225.273098 
L 1012.496058 224.332991 
L 1012.978034 225.299924 
L 1013.933664 226.745792 
L 1014.407382 227.622324 
L 1014.87841 228.872074 
L 1015.346778 229.322148 
L 1015.812517 230.611328 
L 1016.275654 230.667941 
L 1016.73622 230.53058 
L 1017.194243 231.48289 
L 1017.649751 231.798567 
L 1018.10277 232.346088 
L 1018.553329 234.188289 
L 1019.44717 233.589511 
L 1019.890504 233.894193 
L 1020.331482 233.917694 
L 1020.770127 236.868521 
L 1021.206464 236.955233 
L 1021.640519 236.586694 
L 1022.072313 241.875952 
L 1022.501872 240.859859 
L 1022.929217 237.528452 
L 1023.354372 236.924178 
L 1025.033529 240.626451 
L 1025.44806 240.691743 
L 1025.86053 239.676111 
L 1026.270958 240.498901 
L 1027.085773 242.959269 
L 1027.490198 245.461531 
L 1028.29318 241.261856 
L 1028.691775 241.484881 
L 1029.088464 242.101485 
L 1029.483264 243.53647 
L 1029.876194 244.061824 
L 1030.267271 244.376237 
L 1030.656514 245.083792 
L 1031.043938 245.276699 
L 1031.429561 245.94575 
L 1031.813399 245.870459 
L 1032.195469 246.184722 
L 1032.575788 245.956114 
L 1032.954371 246.76187 
L 1033.331233 248.322205 
L 1033.706391 247.030752 
L 1034.07986 247.435775 
L 1034.451655 250.918613 
L 1034.821791 251.766302 
L 1035.190282 251.748757 
L 1035.557143 253.479175 
L 1035.92239 256.502659 
L 1036.286034 255.258925 
L 1036.648092 257.177638 
L 1037.008576 257.67375 
L 1037.3675 263.131134 
L 1037.724878 265.179233 
L 1038.080722 261.661548 
L 1038.435046 260.033114 
L 1038.787864 259.321792 
L 1039.139186 259.275247 
L 1039.489027 260.131983 
L 1039.837399 260.113301 
L 1040.184314 259.226137 
L 1040.87382 260.476897 
L 1041.216436 259.442322 
L 1041.897451 262.633646 
L 1042.235873 264.021545 
L 1042.57292 264.758077 
L 1043.242933 262.449943 
L 1043.575921 262.990879 
L 1043.907577 265.34225 
L 1044.237912 275.775936 
L 1044.566937 275.821607 
L 1044.894662 278.924024 
L 1045.221098 277.647163 
L 1045.546253 272.270957 
L 1045.870139 273.812152 
L 1046.192765 277.550024 
L 1046.514141 278.812645 
L 1046.834277 278.890132 
L 1047.153182 281.324998 
L 1047.470865 279.534934 
L 1048.102605 273.998361 
L 1048.41668 273.553962 
L 1048.72957 275.088656 
L 1049.041284 278.889111 
L 1049.351831 279.880583 
L 1049.66122 277.347757 
L 1049.969459 276.54111 
L 1050.276557 276.533107 
L 1050.582522 276.05748 
L 1050.887362 274.803796 
L 1051.493703 278.989982 
L 1051.795219 278.64784 
L 1052.095643 279.321229 
L 1052.394983 278.38683 
L 1052.693246 281.910998 
L 1052.990441 284.07215 
L 1053.581655 277.716159 
L 1053.87569 278.437851 
L 1054.168685 279.903884 
L 1054.460649 279.445906 
L 1054.75159 280.129041 
L 1055.041513 279.162108 
L 1055.330426 280.225642 
L 1055.618337 280.60643 
L 1055.905252 281.261441 
L 1056.191177 282.742376 
L 1056.476121 283.130866 
L 1056.760088 283.874315 
L 1057.043087 282.992677 
L 1057.325124 283.212333 
L 1057.886337 285.214174 
L 1058.165526 284.664571 
L 1058.443778 282.859856 
L 1058.7211 282.586544 
L 1058.7211 282.586544 
" style="fill:none;stroke:#8172b2;stroke-linecap:round;stroke-width:1.2;"/>
   </g>
   <g id="patch_13">
    <path d="M 776.71475 307.57825 
L 776.71475 21.168 
" style="fill:none;stroke:#262626;stroke-linecap:square;stroke-linejoin:miter;stroke-width:1.25;"/>
   </g>
   <g id="patch_14">
    <path d="M 1058.832 307.57825 
L 1058.832 21.168 
" style="fill:none;stroke:#262626;stroke-linecap:square;stroke-linejoin:miter;stroke-width:1.25;"/>
   </g>
   <g id="patch_15">
    <path d="M 776.71475 307.57825 
L 1058.832 307.57825 
" style="fill:none;stroke:#262626;stroke-linecap:square;stroke-linejoin:miter;stroke-width:1.25;"/>
   </g>
   <g id="patch_16">
    <path d="M 776.71475 21.168 
L 1058.832 21.168 
" style="fill:none;stroke:#262626;stroke-linecap:square;stroke-linejoin:miter;stroke-width:1.25;"/>
   </g>
  </g>
 </g>
 <defs>
  <clipPath id="p9a330f2be2">
   <rect height="286.41025" width="282.11725" x="65.62925" y="21.168"/>
  </clipPath>
  <clipPath id="p162fe07d7d">
   <rect height="286.41025" width="282.11725" x="421.172" y="21.168"/>
  </clipPath>
  <clipPath id="p32050d20d3">
   <rect height="286.41025" width="282.11725" x="776.71475" y="21.168"/>
  </clipPath>
 </defs>
</svg>
