<?xml version="1.0" encoding="utf-8" standalone="no"?>
<!DOCTYPE svg PUBLIC "-//W3C//DTD SVG 1.1//EN"
  "http://www.w3.org/Graphics/SVG/1.1/DTD/svg11.dtd">
<!-- Created with matplotlib (http://matplotlib.org/) -->
<svg height="360pt" version="1.1" viewBox="0 0 1080 360" width="1080pt" xmlns="http://www.w3.org/2000/svg" xmlns:xlink="http://www.w3.org/1999/xlink">
 <defs>
  <style type="text/css">
*{stroke-linecap:butt;stroke-linejoin:round;}
  </style>
 </defs>
 <g id="figure_1">
  <g id="patch_1">
   <path d="M 0 360 
L 1080 360 
L 1080 0 
L 0 0 
z
" style="fill:#ffffff;"/>
  </g>
  <g id="axes_1">
   <g id="patch_2">
    <path d="M 65.62925 307.57825 
L 347.7465 307.57825 
L 347.7465 21.168 
L 65.62925 21.168 
z
" style="fill:#ffffff;"/>
   </g>
   <g id="matplotlib.axis_1">
    <g id="xtick_1">
     <g id="line2d_1">
      <defs>
       <path d="M 0 0 
L 0 6 
" id="mced65a79e6" style="stroke:#262626;"/>
      </defs>
      <g>
       <use style="fill:#262626;stroke:#262626;" x="72.071047" xlink:href="#mced65a79e6" y="307.57825"/>
      </g>
     </g>
     <g id="text_1">
      <!-- 1600 -->
      <defs>
       <path d="M 37.25 0 
L 28.46875 0 
L 28.46875 56 
Q 25.296875 52.984375 20.140625 49.953125 
Q 14.984375 46.921875 10.890625 45.40625 
L 10.890625 53.90625 
Q 18.265625 57.375 23.78125 62.296875 
Q 29.296875 67.234375 31.59375 71.875 
L 37.25 71.875 
z
" id="ArialMT-31"/>
       <path d="M 49.75 54.046875 
L 41.015625 53.375 
Q 39.84375 58.546875 37.703125 60.890625 
Q 34.125 64.65625 28.90625 64.65625 
Q 24.703125 64.65625 21.53125 62.3125 
Q 17.390625 59.28125 14.984375 53.46875 
Q 12.59375 47.65625 12.5 36.921875 
Q 15.671875 41.75 20.265625 44.09375 
Q 24.859375 46.4375 29.890625 46.4375 
Q 38.671875 46.4375 44.84375 39.96875 
Q 51.03125 33.5 51.03125 23.25 
Q 51.03125 16.5 48.125 10.71875 
Q 45.21875 4.9375 40.140625 1.859375 
Q 35.0625 -1.21875 28.609375 -1.21875 
Q 17.625 -1.21875 10.6875 6.859375 
Q 3.765625 14.9375 3.765625 33.5 
Q 3.765625 54.25 11.421875 63.671875 
Q 18.109375 71.875 29.4375 71.875 
Q 37.890625 71.875 43.28125 67.140625 
Q 48.6875 62.40625 49.75 54.046875 
M 13.875 23.1875 
Q 13.875 18.65625 15.796875 14.5 
Q 17.71875 10.359375 21.1875 8.171875 
Q 24.65625 6 28.46875 6 
Q 34.03125 6 38.03125 10.484375 
Q 42.046875 14.984375 42.046875 22.703125 
Q 42.046875 30.125 38.078125 34.390625 
Q 34.125 38.671875 28.125 38.671875 
Q 22.171875 38.671875 18.015625 34.390625 
Q 13.875 30.125 13.875 23.1875 
" id="ArialMT-36"/>
       <path d="M 4.15625 35.296875 
Q 4.15625 48 6.765625 55.734375 
Q 9.375 63.484375 14.515625 67.671875 
Q 19.671875 71.875 27.484375 71.875 
Q 33.25 71.875 37.59375 69.546875 
Q 41.9375 67.234375 44.765625 62.859375 
Q 47.609375 58.5 49.21875 52.21875 
Q 50.828125 45.953125 50.828125 35.296875 
Q 50.828125 22.703125 48.234375 14.96875 
Q 45.65625 7.234375 40.5 3 
Q 35.359375 -1.21875 27.484375 -1.21875 
Q 17.140625 -1.21875 11.234375 6.203125 
Q 4.15625 15.140625 4.15625 35.296875 
M 13.1875 35.296875 
Q 13.1875 17.671875 17.3125 11.828125 
Q 21.4375 6 27.484375 6 
Q 33.546875 6 37.671875 11.859375 
Q 41.796875 17.71875 41.796875 35.296875 
Q 41.796875 52.984375 37.671875 58.78125 
Q 33.546875 64.59375 27.390625 64.59375 
Q 21.34375 64.59375 17.71875 59.46875 
Q 13.1875 52.9375 13.1875 35.296875 
" id="ArialMT-30"/>
      </defs>
      <g style="fill:#262626;" transform="translate(57.61261 329.883406)scale(0.13 -0.13)">
       <use xlink:href="#ArialMT-31"/>
       <use x="55.615234" xlink:href="#ArialMT-36"/>
       <use x="111.230469" xlink:href="#ArialMT-30"/>
       <use x="166.845703" xlink:href="#ArialMT-30"/>
      </g>
     </g>
    </g>
    <g id="xtick_2">
     <g id="line2d_2">
      <g>
       <use style="fill:#262626;stroke:#262626;" x="112.836416" xlink:href="#mced65a79e6" y="307.57825"/>
      </g>
     </g>
     <g id="text_2">
      <!-- 1800 -->
      <defs>
       <path d="M 17.671875 38.8125 
Q 12.203125 40.828125 9.5625 44.53125 
Q 6.9375 48.25 6.9375 53.421875 
Q 6.9375 61.234375 12.546875 66.546875 
Q 18.171875 71.875 27.484375 71.875 
Q 36.859375 71.875 42.578125 66.421875 
Q 48.296875 60.984375 48.296875 53.171875 
Q 48.296875 48.1875 45.671875 44.5 
Q 43.0625 40.828125 37.75 38.8125 
Q 44.34375 36.671875 47.78125 31.875 
Q 51.21875 27.09375 51.21875 20.453125 
Q 51.21875 11.28125 44.71875 5.03125 
Q 38.234375 -1.21875 27.640625 -1.21875 
Q 17.046875 -1.21875 10.546875 5.046875 
Q 4.046875 11.328125 4.046875 20.703125 
Q 4.046875 27.6875 7.59375 32.390625 
Q 11.140625 37.109375 17.671875 38.8125 
M 15.921875 53.71875 
Q 15.921875 48.640625 19.1875 45.40625 
Q 22.46875 42.1875 27.6875 42.1875 
Q 32.765625 42.1875 36.015625 45.375 
Q 39.265625 48.578125 39.265625 53.21875 
Q 39.265625 58.0625 35.90625 61.359375 
Q 32.5625 64.65625 27.59375 64.65625 
Q 22.5625 64.65625 19.234375 61.421875 
Q 15.921875 58.203125 15.921875 53.71875 
M 13.09375 20.65625 
Q 13.09375 16.890625 14.875 13.375 
Q 16.65625 9.859375 20.171875 7.921875 
Q 23.6875 6 27.734375 6 
Q 34.03125 6 38.125 10.046875 
Q 42.234375 14.109375 42.234375 20.359375 
Q 42.234375 26.703125 38.015625 30.859375 
Q 33.796875 35.015625 27.4375 35.015625 
Q 21.234375 35.015625 17.15625 30.90625 
Q 13.09375 26.8125 13.09375 20.65625 
" id="ArialMT-38"/>
      </defs>
      <g style="fill:#262626;" transform="translate(98.377979 329.883406)scale(0.13 -0.13)">
       <use xlink:href="#ArialMT-31"/>
       <use x="55.615234" xlink:href="#ArialMT-38"/>
       <use x="111.230469" xlink:href="#ArialMT-30"/>
       <use x="166.845703" xlink:href="#ArialMT-30"/>
      </g>
     </g>
    </g>
    <g id="xtick_3">
     <g id="line2d_3">
      <g>
       <use style="fill:#262626;stroke:#262626;" x="153.601785" xlink:href="#mced65a79e6" y="307.57825"/>
      </g>
     </g>
     <g id="text_3">
      <!-- 2000 -->
      <defs>
       <path d="M 50.34375 8.453125 
L 50.34375 0 
L 3.03125 0 
Q 2.9375 3.171875 4.046875 6.109375 
Q 5.859375 10.9375 9.828125 15.625 
Q 13.8125 20.3125 21.34375 26.46875 
Q 33.015625 36.03125 37.109375 41.625 
Q 41.21875 47.21875 41.21875 52.203125 
Q 41.21875 57.421875 37.46875 61 
Q 33.734375 64.59375 27.734375 64.59375 
Q 21.390625 64.59375 17.578125 60.78125 
Q 13.765625 56.984375 13.71875 50.25 
L 4.6875 51.171875 
Q 5.609375 61.28125 11.65625 66.578125 
Q 17.71875 71.875 27.9375 71.875 
Q 38.234375 71.875 44.234375 66.15625 
Q 50.25 60.453125 50.25 52 
Q 50.25 47.703125 48.484375 43.546875 
Q 46.734375 39.40625 42.65625 34.8125 
Q 38.578125 30.21875 29.109375 22.21875 
Q 21.1875 15.578125 18.9375 13.203125 
Q 16.703125 10.84375 15.234375 8.453125 
z
" id="ArialMT-32"/>
      </defs>
      <g style="fill:#262626;" transform="translate(139.143348 329.883406)scale(0.13 -0.13)">
       <use xlink:href="#ArialMT-32"/>
       <use x="55.615234" xlink:href="#ArialMT-30"/>
       <use x="111.230469" xlink:href="#ArialMT-30"/>
       <use x="166.845703" xlink:href="#ArialMT-30"/>
      </g>
     </g>
    </g>
    <g id="xtick_4">
     <g id="line2d_4">
      <g>
       <use style="fill:#262626;stroke:#262626;" x="194.367154" xlink:href="#mced65a79e6" y="307.57825"/>
      </g>
     </g>
     <g id="text_4">
      <!-- 2200 -->
      <g style="fill:#262626;" transform="translate(179.908716 329.883406)scale(0.13 -0.13)">
       <use xlink:href="#ArialMT-32"/>
       <use x="55.615234" xlink:href="#ArialMT-32"/>
       <use x="111.230469" xlink:href="#ArialMT-30"/>
       <use x="166.845703" xlink:href="#ArialMT-30"/>
      </g>
     </g>
    </g>
    <g id="xtick_5">
     <g id="line2d_5">
      <g>
       <use style="fill:#262626;stroke:#262626;" x="235.132523" xlink:href="#mced65a79e6" y="307.57825"/>
      </g>
     </g>
     <g id="text_5">
      <!-- 2400 -->
      <defs>
       <path d="M 32.328125 0 
L 32.328125 17.140625 
L 1.265625 17.140625 
L 1.265625 25.203125 
L 33.9375 71.578125 
L 41.109375 71.578125 
L 41.109375 25.203125 
L 50.78125 25.203125 
L 50.78125 17.140625 
L 41.109375 17.140625 
L 41.109375 0 
z
M 32.328125 25.203125 
L 32.328125 57.46875 
L 9.90625 25.203125 
z
" id="ArialMT-34"/>
      </defs>
      <g style="fill:#262626;" transform="translate(220.674085 329.883406)scale(0.13 -0.13)">
       <use xlink:href="#ArialMT-32"/>
       <use x="55.615234" xlink:href="#ArialMT-34"/>
       <use x="111.230469" xlink:href="#ArialMT-30"/>
       <use x="166.845703" xlink:href="#ArialMT-30"/>
      </g>
     </g>
    </g>
    <g id="xtick_6">
     <g id="line2d_6">
      <g>
       <use style="fill:#262626;stroke:#262626;" x="275.897891" xlink:href="#mced65a79e6" y="307.57825"/>
      </g>
     </g>
     <g id="text_6">
      <!-- 2600 -->
      <g style="fill:#262626;" transform="translate(261.439454 329.883406)scale(0.13 -0.13)">
       <use xlink:href="#ArialMT-32"/>
       <use x="55.615234" xlink:href="#ArialMT-36"/>
       <use x="111.230469" xlink:href="#ArialMT-30"/>
       <use x="166.845703" xlink:href="#ArialMT-30"/>
      </g>
     </g>
    </g>
    <g id="xtick_7">
     <g id="line2d_7">
      <g>
       <use style="fill:#262626;stroke:#262626;" x="316.66326" xlink:href="#mced65a79e6" y="307.57825"/>
      </g>
     </g>
     <g id="text_7">
      <!-- 2800 -->
      <g style="fill:#262626;" transform="translate(302.204823 329.883406)scale(0.13 -0.13)">
       <use xlink:href="#ArialMT-32"/>
       <use x="55.615234" xlink:href="#ArialMT-38"/>
       <use x="111.230469" xlink:href="#ArialMT-30"/>
       <use x="166.845703" xlink:href="#ArialMT-30"/>
      </g>
     </g>
    </g>
    <g id="text_8">
     <!-- Temperature (K) -->
     <defs>
      <path d="M 25.921875 0 
L 25.921875 63.140625 
L 2.34375 63.140625 
L 2.34375 71.578125 
L 59.078125 71.578125 
L 59.078125 63.140625 
L 35.40625 63.140625 
L 35.40625 0 
z
" id="ArialMT-54"/>
      <path d="M 42.09375 16.703125 
L 51.171875 15.578125 
Q 49.03125 7.625 43.21875 3.21875 
Q 37.40625 -1.171875 28.375 -1.171875 
Q 17 -1.171875 10.328125 5.828125 
Q 3.65625 12.84375 3.65625 25.484375 
Q 3.65625 38.578125 10.390625 45.796875 
Q 17.140625 53.03125 27.875 53.03125 
Q 38.28125 53.03125 44.875 45.953125 
Q 51.46875 38.875 51.46875 26.03125 
Q 51.46875 25.25 51.421875 23.6875 
L 12.75 23.6875 
Q 13.234375 15.140625 17.578125 10.59375 
Q 21.921875 6.0625 28.421875 6.0625 
Q 33.25 6.0625 36.671875 8.59375 
Q 40.09375 11.140625 42.09375 16.703125 
M 13.234375 30.90625 
L 42.1875 30.90625 
Q 41.609375 37.453125 38.875 40.71875 
Q 34.671875 45.796875 27.984375 45.796875 
Q 21.921875 45.796875 17.796875 41.75 
Q 13.671875 37.703125 13.234375 30.90625 
" id="ArialMT-65"/>
      <path d="M 6.59375 0 
L 6.59375 51.859375 
L 14.453125 51.859375 
L 14.453125 44.578125 
Q 16.890625 48.390625 20.9375 50.703125 
Q 25 53.03125 30.171875 53.03125 
Q 35.9375 53.03125 39.625 50.640625 
Q 43.3125 48.25 44.828125 43.953125 
Q 50.984375 53.03125 60.84375 53.03125 
Q 68.5625 53.03125 72.703125 48.75 
Q 76.859375 44.484375 76.859375 35.59375 
L 76.859375 0 
L 68.109375 0 
L 68.109375 32.671875 
Q 68.109375 37.9375 67.25 40.25 
Q 66.40625 42.578125 64.15625 43.984375 
Q 61.921875 45.40625 58.890625 45.40625 
Q 53.421875 45.40625 49.796875 41.765625 
Q 46.1875 38.140625 46.1875 30.125 
L 46.1875 0 
L 37.40625 0 
L 37.40625 33.6875 
Q 37.40625 39.546875 35.25 42.46875 
Q 33.109375 45.40625 28.21875 45.40625 
Q 24.515625 45.40625 21.359375 43.453125 
Q 18.21875 41.5 16.796875 37.734375 
Q 15.375 33.984375 15.375 26.90625 
L 15.375 0 
z
" id="ArialMT-6d"/>
      <path d="M 6.59375 -19.875 
L 6.59375 51.859375 
L 14.59375 51.859375 
L 14.59375 45.125 
Q 17.4375 49.078125 21 51.046875 
Q 24.5625 53.03125 29.640625 53.03125 
Q 36.28125 53.03125 41.359375 49.609375 
Q 46.4375 46.1875 49.015625 39.953125 
Q 51.609375 33.734375 51.609375 26.3125 
Q 51.609375 18.359375 48.75 11.984375 
Q 45.90625 5.609375 40.453125 2.21875 
Q 35.015625 -1.171875 29 -1.171875 
Q 24.609375 -1.171875 21.109375 0.6875 
Q 17.625 2.546875 15.375 5.375 
L 15.375 -19.875 
z
M 14.546875 25.640625 
Q 14.546875 15.625 18.59375 10.84375 
Q 22.65625 6.0625 28.421875 6.0625 
Q 34.28125 6.0625 38.453125 11.015625 
Q 42.625 15.96875 42.625 26.375 
Q 42.625 36.28125 38.546875 41.203125 
Q 34.46875 46.140625 28.8125 46.140625 
Q 23.1875 46.140625 18.859375 40.890625 
Q 14.546875 35.640625 14.546875 25.640625 
" id="ArialMT-70"/>
      <path d="M 6.5 0 
L 6.5 51.859375 
L 14.40625 51.859375 
L 14.40625 44 
Q 17.4375 49.515625 20 51.265625 
Q 22.5625 53.03125 25.640625 53.03125 
Q 30.078125 53.03125 34.671875 50.203125 
L 31.640625 42.046875 
Q 28.421875 43.953125 25.203125 43.953125 
Q 22.3125 43.953125 20.015625 42.21875 
Q 17.71875 40.484375 16.75 37.40625 
Q 15.28125 32.71875 15.28125 27.15625 
L 15.28125 0 
z
" id="ArialMT-72"/>
      <path d="M 40.4375 6.390625 
Q 35.546875 2.25 31.03125 0.53125 
Q 26.515625 -1.171875 21.34375 -1.171875 
Q 12.796875 -1.171875 8.203125 3 
Q 3.609375 7.171875 3.609375 13.671875 
Q 3.609375 17.484375 5.34375 20.625 
Q 7.078125 23.78125 9.890625 25.6875 
Q 12.703125 27.59375 16.21875 28.5625 
Q 18.796875 29.25 24.03125 29.890625 
Q 34.671875 31.15625 39.703125 32.90625 
Q 39.75 34.71875 39.75 35.203125 
Q 39.75 40.578125 37.25 42.78125 
Q 33.890625 45.75 27.25 45.75 
Q 21.046875 45.75 18.09375 43.578125 
Q 15.140625 41.40625 13.71875 35.890625 
L 5.125 37.0625 
Q 6.296875 42.578125 8.984375 45.96875 
Q 11.671875 49.359375 16.75 51.1875 
Q 21.828125 53.03125 28.515625 53.03125 
Q 35.15625 53.03125 39.296875 51.46875 
Q 43.453125 49.90625 45.40625 47.53125 
Q 47.359375 45.171875 48.140625 41.546875 
Q 48.578125 39.3125 48.578125 33.453125 
L 48.578125 21.734375 
Q 48.578125 9.46875 49.140625 6.21875 
Q 49.703125 2.984375 51.375 0 
L 42.1875 0 
Q 40.828125 2.734375 40.4375 6.390625 
M 39.703125 26.03125 
Q 34.90625 24.078125 25.34375 22.703125 
Q 19.921875 21.921875 17.671875 20.9375 
Q 15.4375 19.96875 14.203125 18.09375 
Q 12.984375 16.21875 12.984375 13.921875 
Q 12.984375 10.40625 15.640625 8.0625 
Q 18.3125 5.71875 23.4375 5.71875 
Q 28.515625 5.71875 32.46875 7.9375 
Q 36.421875 10.15625 38.28125 14.015625 
Q 39.703125 17 39.703125 22.796875 
z
" id="ArialMT-61"/>
      <path d="M 25.78125 7.859375 
L 27.046875 0.09375 
Q 23.34375 -0.6875 20.40625 -0.6875 
Q 15.625 -0.6875 12.984375 0.828125 
Q 10.359375 2.34375 9.28125 4.8125 
Q 8.203125 7.28125 8.203125 15.1875 
L 8.203125 45.015625 
L 1.765625 45.015625 
L 1.765625 51.859375 
L 8.203125 51.859375 
L 8.203125 64.703125 
L 16.9375 69.96875 
L 16.9375 51.859375 
L 25.78125 51.859375 
L 25.78125 45.015625 
L 16.9375 45.015625 
L 16.9375 14.703125 
Q 16.9375 10.9375 17.40625 9.859375 
Q 17.875 8.796875 18.921875 8.15625 
Q 19.96875 7.515625 21.921875 7.515625 
Q 23.390625 7.515625 25.78125 7.859375 
" id="ArialMT-74"/>
      <path d="M 40.578125 0 
L 40.578125 7.625 
Q 34.515625 -1.171875 24.125 -1.171875 
Q 19.53125 -1.171875 15.546875 0.578125 
Q 11.578125 2.34375 9.640625 5 
Q 7.71875 7.671875 6.9375 11.53125 
Q 6.390625 14.109375 6.390625 19.734375 
L 6.390625 51.859375 
L 15.1875 51.859375 
L 15.1875 23.09375 
Q 15.1875 16.21875 15.71875 13.8125 
Q 16.546875 10.359375 19.234375 8.375 
Q 21.921875 6.390625 25.875 6.390625 
Q 29.828125 6.390625 33.296875 8.421875 
Q 36.765625 10.453125 38.203125 13.9375 
Q 39.65625 17.4375 39.65625 24.078125 
L 39.65625 51.859375 
L 48.4375 51.859375 
L 48.4375 0 
z
" id="ArialMT-75"/>
      <path id="ArialMT-20"/>
      <path d="M 23.390625 -21.046875 
Q 16.109375 -11.859375 11.078125 0.4375 
Q 6.0625 12.75 6.0625 25.921875 
Q 6.0625 37.546875 9.8125 48.1875 
Q 14.203125 60.546875 23.390625 72.796875 
L 29.6875 72.796875 
Q 23.78125 62.640625 21.875 58.296875 
Q 18.890625 51.5625 17.1875 44.234375 
Q 15.09375 35.109375 15.09375 25.875 
Q 15.09375 2.390625 29.6875 -21.046875 
z
" id="ArialMT-28"/>
      <path d="M 7.328125 0 
L 7.328125 71.578125 
L 16.796875 71.578125 
L 16.796875 36.078125 
L 52.34375 71.578125 
L 65.1875 71.578125 
L 35.15625 42.578125 
L 66.5 0 
L 54 0 
L 28.515625 36.234375 
L 16.796875 24.8125 
L 16.796875 0 
z
" id="ArialMT-4b"/>
      <path d="M 12.359375 -21.046875 
L 6.0625 -21.046875 
Q 20.65625 2.390625 20.65625 25.875 
Q 20.65625 35.0625 18.5625 44.09375 
Q 16.890625 51.421875 13.921875 58.15625 
Q 12.015625 62.546875 6.0625 72.796875 
L 12.359375 72.796875 
Q 21.53125 60.546875 25.921875 48.1875 
Q 29.6875 37.546875 29.6875 25.921875 
Q 29.6875 12.75 24.625 0.4375 
Q 19.578125 -11.859375 12.359375 -21.046875 
" id="ArialMT-29"/>
     </defs>
     <g style="fill:#262626;" transform="translate(154.256031 346.877109)scale(0.143 -0.143)">
      <use xlink:href="#ArialMT-54"/>
      <use x="60.912109" xlink:href="#ArialMT-65"/>
      <use x="116.527344" xlink:href="#ArialMT-6d"/>
      <use x="199.828125" xlink:href="#ArialMT-70"/>
      <use x="255.443359" xlink:href="#ArialMT-65"/>
      <use x="311.058594" xlink:href="#ArialMT-72"/>
      <use x="344.359375" xlink:href="#ArialMT-61"/>
      <use x="399.974609" xlink:href="#ArialMT-74"/>
      <use x="427.757812" xlink:href="#ArialMT-75"/>
      <use x="483.373047" xlink:href="#ArialMT-72"/>
      <use x="516.673828" xlink:href="#ArialMT-65"/>
      <use x="572.289062" xlink:href="#ArialMT-20"/>
      <use x="600.072266" xlink:href="#ArialMT-28"/>
      <use x="633.373047" xlink:href="#ArialMT-4b"/>
      <use x="700.072266" xlink:href="#ArialMT-29"/>
     </g>
    </g>
   </g>
   <g id="matplotlib.axis_2">
    <g id="ytick_1">
     <g id="line2d_8">
      <defs>
       <path d="M 0 0 
L -6 0 
" id="m9c6d632f90" style="stroke:#262626;"/>
      </defs>
      <g>
       <use style="fill:#262626;stroke:#262626;" x="65.62925" xlink:href="#m9c6d632f90" y="53.117602"/>
      </g>
     </g>
     <g id="text_9">
      <!-- ${10^{-2}}$ -->
      <defs>
       <path d="M 12.40625 8.296875 
L 28.515625 8.296875 
L 28.515625 63.921875 
L 10.984375 60.40625 
L 10.984375 69.390625 
L 28.421875 72.90625 
L 38.28125 72.90625 
L 38.28125 8.296875 
L 54.390625 8.296875 
L 54.390625 0 
L 12.40625 0 
z
" id="DejaVuSans-31"/>
       <path d="M 31.78125 66.40625 
Q 24.171875 66.40625 20.328125 58.90625 
Q 16.5 51.421875 16.5 36.375 
Q 16.5 21.390625 20.328125 13.890625 
Q 24.171875 6.390625 31.78125 6.390625 
Q 39.453125 6.390625 43.28125 13.890625 
Q 47.125 21.390625 47.125 36.375 
Q 47.125 51.421875 43.28125 58.90625 
Q 39.453125 66.40625 31.78125 66.40625 
M 31.78125 74.21875 
Q 44.046875 74.21875 50.515625 64.515625 
Q 56.984375 54.828125 56.984375 36.375 
Q 56.984375 17.96875 50.515625 8.265625 
Q 44.046875 -1.421875 31.78125 -1.421875 
Q 19.53125 -1.421875 13.0625 8.265625 
Q 6.59375 17.96875 6.59375 36.375 
Q 6.59375 54.828125 13.0625 64.515625 
Q 19.53125 74.21875 31.78125 74.21875 
" id="DejaVuSans-30"/>
       <path d="M 10.59375 35.5 
L 73.1875 35.5 
L 73.1875 27.203125 
L 10.59375 27.203125 
z
" id="DejaVuSans-2212"/>
       <path d="M 19.1875 8.296875 
L 53.609375 8.296875 
L 53.609375 0 
L 7.328125 0 
L 7.328125 8.296875 
Q 12.9375 14.109375 22.625 23.890625 
Q 32.328125 33.6875 34.8125 36.53125 
Q 39.546875 41.84375 41.421875 45.53125 
Q 43.3125 49.21875 43.3125 52.78125 
Q 43.3125 58.59375 39.234375 62.25 
Q 35.15625 65.921875 28.609375 65.921875 
Q 23.96875 65.921875 18.8125 64.3125 
Q 13.671875 62.703125 7.8125 59.421875 
L 7.8125 69.390625 
Q 13.765625 71.78125 18.9375 73 
Q 24.125 74.21875 28.421875 74.21875 
Q 39.75 74.21875 46.484375 68.546875 
Q 53.21875 62.890625 53.21875 53.421875 
Q 53.21875 48.921875 51.53125 44.890625 
Q 49.859375 40.875 45.40625 35.40625 
Q 44.1875 33.984375 37.640625 27.21875 
Q 31.109375 20.453125 19.1875 8.296875 
" id="DejaVuSans-32"/>
      </defs>
      <g style="fill:#262626;" transform="translate(22.07925 57.870727)scale(0.13 -0.13)">
       <use transform="translate(0 0.765625)" xlink:href="#DejaVuSans-31"/>
       <use transform="translate(63.623047 0.765625)" xlink:href="#DejaVuSans-30"/>
       <use transform="translate(128.203125 39.046875)scale(0.7)" xlink:href="#DejaVuSans-2212"/>
       <use transform="translate(186.855469 39.046875)scale(0.7)" xlink:href="#DejaVuSans-32"/>
      </g>
     </g>
    </g>
    <g id="ytick_2">
     <g id="line2d_9">
      <g>
       <use style="fill:#262626;stroke:#262626;" x="65.62925" xlink:href="#m9c6d632f90" y="133.656711"/>
      </g>
     </g>
     <g id="text_10">
      <!-- ${10^{-1}}$ -->
      <g style="fill:#262626;" transform="translate(22.07925 138.344836)scale(0.13 -0.13)">
       <use transform="translate(0 0.684375)" xlink:href="#DejaVuSans-31"/>
       <use transform="translate(63.623047 0.684375)" xlink:href="#DejaVuSans-30"/>
       <use transform="translate(128.203125 38.965625)scale(0.7)" xlink:href="#DejaVuSans-2212"/>
       <use transform="translate(186.855469 38.965625)scale(0.7)" xlink:href="#DejaVuSans-31"/>
      </g>
     </g>
    </g>
    <g id="ytick_3">
     <g id="line2d_10">
      <g>
       <use style="fill:#262626;stroke:#262626;" x="65.62925" xlink:href="#m9c6d632f90" y="214.19582"/>
      </g>
     </g>
     <g id="text_11">
      <!-- ${10^{0}}$ -->
      <g style="fill:#262626;" transform="translate(29.74925 218.948945)scale(0.13 -0.13)">
       <use transform="translate(0 0.765625)" xlink:href="#DejaVuSans-31"/>
       <use transform="translate(63.623047 0.765625)" xlink:href="#DejaVuSans-30"/>
       <use transform="translate(128.203125 39.046875)scale(0.7)" xlink:href="#DejaVuSans-30"/>
      </g>
     </g>
    </g>
    <g id="ytick_4">
     <g id="line2d_11">
      <g>
       <use style="fill:#262626;stroke:#262626;" x="65.62925" xlink:href="#m9c6d632f90" y="294.734929"/>
      </g>
     </g>
     <g id="text_12">
      <!-- ${10^{1}}$ -->
      <g style="fill:#262626;" transform="translate(29.74925 299.423054)scale(0.13 -0.13)">
       <use transform="translate(0 0.684375)" xlink:href="#DejaVuSans-31"/>
       <use transform="translate(63.623047 0.684375)" xlink:href="#DejaVuSans-30"/>
       <use transform="translate(128.203125 38.965625)scale(0.7)" xlink:href="#DejaVuSans-31"/>
      </g>
     </g>
    </g>
    <g id="ytick_5">
     <g id="line2d_12">
      <defs>
       <path d="M 0 0 
L -3 0 
" id="m2bc25f8af9" style="stroke:#262626;stroke-width:0.5;"/>
      </defs>
      <g>
       <use style="fill:#262626;stroke:#262626;stroke-width:0.5;" x="65.62925" xlink:href="#m2bc25f8af9" y="21.067868"/>
      </g>
     </g>
    </g>
    <g id="ytick_6">
     <g id="line2d_13">
      <g>
       <use style="fill:#262626;stroke:#262626;stroke-width:0.5;" x="65.62925" xlink:href="#m2bc25f8af9" y="28.872914"/>
      </g>
     </g>
    </g>
    <g id="ytick_7">
     <g id="line2d_14">
      <g>
       <use style="fill:#262626;stroke:#262626;stroke-width:0.5;" x="65.62925" xlink:href="#m2bc25f8af9" y="35.250101"/>
      </g>
     </g>
    </g>
    <g id="ytick_8">
     <g id="line2d_15">
      <g>
       <use style="fill:#262626;stroke:#262626;stroke-width:0.5;" x="65.62925" xlink:href="#m2bc25f8af9" y="40.641936"/>
      </g>
     </g>
    </g>
    <g id="ytick_9">
     <g id="line2d_16">
      <g>
       <use style="fill:#262626;stroke:#262626;stroke-width:0.5;" x="65.62925" xlink:href="#m2bc25f8af9" y="45.312556"/>
      </g>
     </g>
    </g>
    <g id="ytick_10">
     <g id="line2d_17">
      <g>
       <use style="fill:#262626;stroke:#262626;stroke-width:0.5;" x="65.62925" xlink:href="#m2bc25f8af9" y="49.432334"/>
      </g>
     </g>
    </g>
    <g id="ytick_11">
     <g id="line2d_18">
      <g>
       <use style="fill:#262626;stroke:#262626;stroke-width:0.5;" x="65.62925" xlink:href="#m2bc25f8af9" y="77.362289"/>
      </g>
     </g>
    </g>
    <g id="ytick_12">
     <g id="line2d_19">
      <g>
       <use style="fill:#262626;stroke:#262626;stroke-width:0.5;" x="65.62925" xlink:href="#m2bc25f8af9" y="91.544523"/>
      </g>
     </g>
    </g>
    <g id="ytick_13">
     <g id="line2d_20">
      <g>
       <use style="fill:#262626;stroke:#262626;stroke-width:0.5;" x="65.62925" xlink:href="#m2bc25f8af9" y="101.606977"/>
      </g>
     </g>
    </g>
    <g id="ytick_14">
     <g id="line2d_21">
      <g>
       <use style="fill:#262626;stroke:#262626;stroke-width:0.5;" x="65.62925" xlink:href="#m2bc25f8af9" y="109.412023"/>
      </g>
     </g>
    </g>
    <g id="ytick_15">
     <g id="line2d_22">
      <g>
       <use style="fill:#262626;stroke:#262626;stroke-width:0.5;" x="65.62925" xlink:href="#m2bc25f8af9" y="115.78921"/>
      </g>
     </g>
    </g>
    <g id="ytick_16">
     <g id="line2d_23">
      <g>
       <use style="fill:#262626;stroke:#262626;stroke-width:0.5;" x="65.62925" xlink:href="#m2bc25f8af9" y="121.181045"/>
      </g>
     </g>
    </g>
    <g id="ytick_17">
     <g id="line2d_24">
      <g>
       <use style="fill:#262626;stroke:#262626;stroke-width:0.5;" x="65.62925" xlink:href="#m2bc25f8af9" y="125.851665"/>
      </g>
     </g>
    </g>
    <g id="ytick_18">
     <g id="line2d_25">
      <g>
       <use style="fill:#262626;stroke:#262626;stroke-width:0.5;" x="65.62925" xlink:href="#m2bc25f8af9" y="129.971443"/>
      </g>
     </g>
    </g>
    <g id="ytick_19">
     <g id="line2d_26">
      <g>
       <use style="fill:#262626;stroke:#262626;stroke-width:0.5;" x="65.62925" xlink:href="#m2bc25f8af9" y="157.901399"/>
      </g>
     </g>
    </g>
    <g id="ytick_20">
     <g id="line2d_27">
      <g>
       <use style="fill:#262626;stroke:#262626;stroke-width:0.5;" x="65.62925" xlink:href="#m2bc25f8af9" y="172.083632"/>
      </g>
     </g>
    </g>
    <g id="ytick_21">
     <g id="line2d_28">
      <g>
       <use style="fill:#262626;stroke:#262626;stroke-width:0.5;" x="65.62925" xlink:href="#m2bc25f8af9" y="182.146086"/>
      </g>
     </g>
    </g>
    <g id="ytick_22">
     <g id="line2d_29">
      <g>
       <use style="fill:#262626;stroke:#262626;stroke-width:0.5;" x="65.62925" xlink:href="#m2bc25f8af9" y="189.951132"/>
      </g>
     </g>
    </g>
    <g id="ytick_23">
     <g id="line2d_30">
      <g>
       <use style="fill:#262626;stroke:#262626;stroke-width:0.5;" x="65.62925" xlink:href="#m2bc25f8af9" y="196.328319"/>
      </g>
     </g>
    </g>
    <g id="ytick_24">
     <g id="line2d_31">
      <g>
       <use style="fill:#262626;stroke:#262626;stroke-width:0.5;" x="65.62925" xlink:href="#m2bc25f8af9" y="201.720154"/>
      </g>
     </g>
    </g>
    <g id="ytick_25">
     <g id="line2d_32">
      <g>
       <use style="fill:#262626;stroke:#262626;stroke-width:0.5;" x="65.62925" xlink:href="#m2bc25f8af9" y="206.390774"/>
      </g>
     </g>
    </g>
    <g id="ytick_26">
     <g id="line2d_33">
      <g>
       <use style="fill:#262626;stroke:#262626;stroke-width:0.5;" x="65.62925" xlink:href="#m2bc25f8af9" y="210.510553"/>
      </g>
     </g>
    </g>
    <g id="ytick_27">
     <g id="line2d_34">
      <g>
       <use style="fill:#262626;stroke:#262626;stroke-width:0.5;" x="65.62925" xlink:href="#m2bc25f8af9" y="238.440508"/>
      </g>
     </g>
    </g>
    <g id="ytick_28">
     <g id="line2d_35">
      <g>
       <use style="fill:#262626;stroke:#262626;stroke-width:0.5;" x="65.62925" xlink:href="#m2bc25f8af9" y="252.622741"/>
      </g>
     </g>
    </g>
    <g id="ytick_29">
     <g id="line2d_36">
      <g>
       <use style="fill:#262626;stroke:#262626;stroke-width:0.5;" x="65.62925" xlink:href="#m2bc25f8af9" y="262.685196"/>
      </g>
     </g>
    </g>
    <g id="ytick_30">
     <g id="line2d_37">
      <g>
       <use style="fill:#262626;stroke:#262626;stroke-width:0.5;" x="65.62925" xlink:href="#m2bc25f8af9" y="270.490242"/>
      </g>
     </g>
    </g>
    <g id="ytick_31">
     <g id="line2d_38">
      <g>
       <use style="fill:#262626;stroke:#262626;stroke-width:0.5;" x="65.62925" xlink:href="#m2bc25f8af9" y="276.867429"/>
      </g>
     </g>
    </g>
    <g id="ytick_32">
     <g id="line2d_39">
      <g>
       <use style="fill:#262626;stroke:#262626;stroke-width:0.5;" x="65.62925" xlink:href="#m2bc25f8af9" y="282.259264"/>
      </g>
     </g>
    </g>
    <g id="ytick_33">
     <g id="line2d_40">
      <g>
       <use style="fill:#262626;stroke:#262626;stroke-width:0.5;" x="65.62925" xlink:href="#m2bc25f8af9" y="286.929883"/>
      </g>
     </g>
    </g>
    <g id="ytick_34">
     <g id="line2d_41">
      <g>
       <use style="fill:#262626;stroke:#262626;stroke-width:0.5;" x="65.62925" xlink:href="#m2bc25f8af9" y="291.049662"/>
      </g>
     </g>
    </g>
    <g id="text_13">
     <!-- Pressure (bar) -->
     <defs>
      <path d="M 7.71875 0 
L 7.71875 71.578125 
L 34.71875 71.578125 
Q 41.84375 71.578125 45.609375 70.90625 
Q 50.875 70.015625 54.4375 67.546875 
Q 58.015625 65.09375 60.1875 60.640625 
Q 62.359375 56.203125 62.359375 50.875 
Q 62.359375 41.75 56.546875 35.421875 
Q 50.734375 29.109375 35.546875 29.109375 
L 17.1875 29.109375 
L 17.1875 0 
z
M 17.1875 37.546875 
L 35.6875 37.546875 
Q 44.875 37.546875 48.734375 40.96875 
Q 52.59375 44.390625 52.59375 50.59375 
Q 52.59375 55.078125 50.3125 58.265625 
Q 48.046875 61.46875 44.34375 62.5 
Q 41.9375 63.140625 35.5 63.140625 
L 17.1875 63.140625 
z
" id="ArialMT-50"/>
      <path d="M 3.078125 15.484375 
L 11.765625 16.84375 
Q 12.5 11.625 15.84375 8.84375 
Q 19.1875 6.0625 25.203125 6.0625 
Q 31.25 6.0625 34.171875 8.515625 
Q 37.109375 10.984375 37.109375 14.3125 
Q 37.109375 17.28125 34.515625 19 
Q 32.71875 20.171875 25.53125 21.96875 
Q 15.875 24.421875 12.140625 26.203125 
Q 8.40625 27.984375 6.46875 31.125 
Q 4.546875 34.28125 4.546875 38.09375 
Q 4.546875 41.546875 6.125 44.5 
Q 7.71875 47.46875 10.453125 49.421875 
Q 12.5 50.921875 16.03125 51.96875 
Q 19.578125 53.03125 23.640625 53.03125 
Q 29.734375 53.03125 34.34375 51.265625 
Q 38.96875 49.515625 41.15625 46.5 
Q 43.359375 43.5 44.1875 38.484375 
L 35.59375 37.3125 
Q 35.015625 41.3125 32.203125 43.546875 
Q 29.390625 45.796875 24.265625 45.796875 
Q 18.21875 45.796875 15.625 43.796875 
Q 13.03125 41.796875 13.03125 39.109375 
Q 13.03125 37.40625 14.109375 36.03125 
Q 15.1875 34.625 17.484375 33.6875 
Q 18.796875 33.203125 25.25 31.453125 
Q 34.578125 28.953125 38.25 27.359375 
Q 41.9375 25.78125 44.03125 22.75 
Q 46.140625 19.734375 46.140625 15.234375 
Q 46.140625 10.84375 43.578125 6.953125 
Q 41.015625 3.078125 36.171875 0.953125 
Q 31.34375 -1.171875 25.25 -1.171875 
Q 15.140625 -1.171875 9.84375 3.03125 
Q 4.546875 7.234375 3.078125 15.484375 
" id="ArialMT-73"/>
      <path d="M 14.703125 0 
L 6.546875 0 
L 6.546875 71.578125 
L 15.328125 71.578125 
L 15.328125 46.046875 
Q 20.90625 53.03125 29.546875 53.03125 
Q 34.328125 53.03125 38.59375 51.09375 
Q 42.875 49.171875 45.625 45.671875 
Q 48.390625 42.1875 49.953125 37.25 
Q 51.515625 32.328125 51.515625 26.703125 
Q 51.515625 13.375 44.921875 6.09375 
Q 38.328125 -1.171875 29.109375 -1.171875 
Q 19.921875 -1.171875 14.703125 6.5 
z
M 14.59375 26.3125 
Q 14.59375 17 17.140625 12.84375 
Q 21.296875 6.0625 28.375 6.0625 
Q 34.125 6.0625 38.328125 11.0625 
Q 42.53125 16.0625 42.53125 25.984375 
Q 42.53125 36.140625 38.5 40.96875 
Q 34.46875 45.796875 28.765625 45.796875 
Q 23 45.796875 18.796875 40.796875 
Q 14.59375 35.796875 14.59375 26.3125 
" id="ArialMT-62"/>
     </defs>
     <g style="fill:#262626;" transform="translate(15.069547 210.062742)rotate(-90)scale(0.143 -0.143)">
      <use xlink:href="#ArialMT-50"/>
      <use x="66.699219" xlink:href="#ArialMT-72"/>
      <use x="100" xlink:href="#ArialMT-65"/>
      <use x="155.615234" xlink:href="#ArialMT-73"/>
      <use x="205.615234" xlink:href="#ArialMT-73"/>
      <use x="255.615234" xlink:href="#ArialMT-75"/>
      <use x="311.230469" xlink:href="#ArialMT-72"/>
      <use x="344.53125" xlink:href="#ArialMT-65"/>
      <use x="400.146484" xlink:href="#ArialMT-20"/>
      <use x="427.929688" xlink:href="#ArialMT-28"/>
      <use x="461.230469" xlink:href="#ArialMT-62"/>
      <use x="516.845703" xlink:href="#ArialMT-61"/>
      <use x="572.460938" xlink:href="#ArialMT-72"/>
      <use x="605.761719" xlink:href="#ArialMT-29"/>
     </g>
    </g>
   </g>
   <g id="line2d_42">
    <path clip-path="url(#pb3db7d256f)" d="M 82.401479 34.186648 
L 82.173255 39.500381 
L 81.911926 44.814115 
L 81.616698 50.127849 
L 81.288153 55.441583 
L 80.928802 60.755317 
L 80.543743 66.06905 
L 80.141389 71.382784 
L 79.734259 76.696518 
L 79.339782 82.010252 
L 78.98107 87.323985 
L 78.687696 92.637719 
L 78.496519 97.951453 
L 78.452761 103.265187 
L 78.611797 108.57892 
L 79.042145 113.892654 
L 79.830402 119.206388 
L 81.084994 124.520122 
L 82.954579 129.833856 
L 85.467792 135.147589 
L 88.689136 140.461323 
L 90.875965 145.775057 
L 92.303948 151.088791 
L 93.986588 156.402524 
L 96.028118 161.716258 
L 97.641861 167.029992 
L 98.748978 172.343726 
L 99.950541 177.657459 
L 101.416866 182.971193 
L 102.835842 188.284927 
L 104.355493 193.598661 
L 107.081455 198.912394 
L 109.912824 204.226128 
L 114.914905 209.539862 
L 122.160814 214.853596 
L 136.904715 220.16733 
L 154.247888 225.481063 
L 170.943885 230.794797 
L 186.86136 236.108531 
L 200.261971 241.422265 
L 211.389593 246.735998 
L 222.163354 252.049732 
L 232.89847 257.363466 
L 243.741977 262.6772 
L 254.775228 267.990933 
L 266.034731 273.304667 
L 277.838626 278.618401 
L 289.68066 283.932135 
L 309.905357 289.245869 
L 334.922989 294.559602 
" style="fill:none;stroke:#4c72b0;stroke-linecap:round;stroke-width:1.2;"/>
   </g>
   <g id="patch_3">
    <path d="M 65.62925 307.57825 
L 65.62925 21.168 
" style="fill:none;stroke:#262626;stroke-linecap:square;stroke-linejoin:miter;stroke-width:1.25;"/>
   </g>
   <g id="patch_4">
    <path d="M 347.7465 307.57825 
L 347.7465 21.168 
" style="fill:none;stroke:#262626;stroke-linecap:square;stroke-linejoin:miter;stroke-width:1.25;"/>
   </g>
   <g id="patch_5">
    <path d="M 65.62925 307.57825 
L 347.7465 307.57825 
" style="fill:none;stroke:#262626;stroke-linecap:square;stroke-linejoin:miter;stroke-width:1.25;"/>
   </g>
   <g id="patch_6">
    <path d="M 65.62925 21.168 
L 347.7465 21.168 
" style="fill:none;stroke:#262626;stroke-linecap:square;stroke-linejoin:miter;stroke-width:1.25;"/>
   </g>
  </g>
  <g id="axes_2">
   <g id="patch_7">
    <path d="M 421.172 307.57825 
L 703.28925 307.57825 
L 703.28925 21.168 
L 421.172 21.168 
z
" style="fill:#ffffff;"/>
   </g>
   <g id="matplotlib.axis_3">
    <g id="xtick_8">
     <g id="line2d_43">
      <g>
       <use style="fill:#262626;stroke:#262626;" x="430.473655" xlink:href="#mced65a79e6" y="307.57825"/>
      </g>
     </g>
     <g id="text_14">
      <!-- −200 -->
      <defs>
       <path d="M 52.828125 31.203125 
L 5.5625 31.203125 
L 5.5625 39.40625 
L 52.828125 39.40625 
z
" id="ArialMT-2212"/>
      </defs>
      <g style="fill:#262626;" transform="translate(415.83342 329.883406)scale(0.13 -0.13)">
       <use xlink:href="#ArialMT-2212"/>
       <use x="58.398438" xlink:href="#ArialMT-32"/>
       <use x="114.013672" xlink:href="#ArialMT-30"/>
       <use x="169.628906" xlink:href="#ArialMT-30"/>
      </g>
     </g>
    </g>
    <g id="xtick_9">
     <g id="line2d_44">
      <g>
       <use style="fill:#262626;stroke:#262626;" x="495.834122" xlink:href="#mced65a79e6" y="307.57825"/>
      </g>
     </g>
     <g id="text_15">
      <!-- 0 -->
      <g style="fill:#262626;" transform="translate(492.219513 329.883406)scale(0.13 -0.13)">
       <use xlink:href="#ArialMT-30"/>
      </g>
     </g>
    </g>
    <g id="xtick_10">
     <g id="line2d_45">
      <g>
       <use style="fill:#262626;stroke:#262626;" x="561.19459" xlink:href="#mced65a79e6" y="307.57825"/>
      </g>
     </g>
     <g id="text_16">
      <!-- 200 -->
      <g style="fill:#262626;" transform="translate(550.350762 329.883406)scale(0.13 -0.13)">
       <use xlink:href="#ArialMT-32"/>
       <use x="55.615234" xlink:href="#ArialMT-30"/>
       <use x="111.230469" xlink:href="#ArialMT-30"/>
      </g>
     </g>
    </g>
    <g id="xtick_11">
     <g id="line2d_46">
      <g>
       <use style="fill:#262626;stroke:#262626;" x="626.555057" xlink:href="#mced65a79e6" y="307.57825"/>
      </g>
     </g>
     <g id="text_17">
      <!-- 400 -->
      <g style="fill:#262626;" transform="translate(615.711229 329.883406)scale(0.13 -0.13)">
       <use xlink:href="#ArialMT-34"/>
       <use x="55.615234" xlink:href="#ArialMT-30"/>
       <use x="111.230469" xlink:href="#ArialMT-30"/>
      </g>
     </g>
    </g>
    <g id="xtick_12">
     <g id="line2d_47">
      <g>
       <use style="fill:#262626;stroke:#262626;" x="691.915525" xlink:href="#mced65a79e6" y="307.57825"/>
      </g>
     </g>
     <g id="text_18">
      <!-- 600 -->
      <g style="fill:#262626;" transform="translate(681.071697 329.883406)scale(0.13 -0.13)">
       <use xlink:href="#ArialMT-36"/>
       <use x="55.615234" xlink:href="#ArialMT-30"/>
       <use x="111.230469" xlink:href="#ArialMT-30"/>
      </g>
     </g>
    </g>
    <g id="text_19">
     <!-- Heating Rate -->
     <defs>
      <path d="M 8.015625 0 
L 8.015625 71.578125 
L 17.484375 71.578125 
L 17.484375 42.1875 
L 54.6875 42.1875 
L 54.6875 71.578125 
L 64.15625 71.578125 
L 64.15625 0 
L 54.6875 0 
L 54.6875 33.734375 
L 17.484375 33.734375 
L 17.484375 0 
z
" id="ArialMT-48"/>
      <path d="M 6.640625 61.46875 
L 6.640625 71.578125 
L 15.4375 71.578125 
L 15.4375 61.46875 
z
M 6.640625 0 
L 6.640625 51.859375 
L 15.4375 51.859375 
L 15.4375 0 
z
" id="ArialMT-69"/>
      <path d="M 6.59375 0 
L 6.59375 51.859375 
L 14.5 51.859375 
L 14.5 44.484375 
Q 20.21875 53.03125 31 53.03125 
Q 35.6875 53.03125 39.625 51.34375 
Q 43.5625 49.65625 45.515625 46.921875 
Q 47.46875 44.1875 48.25 40.4375 
Q 48.734375 37.984375 48.734375 31.890625 
L 48.734375 0 
L 39.9375 0 
L 39.9375 31.546875 
Q 39.9375 36.921875 38.90625 39.578125 
Q 37.890625 42.234375 35.28125 43.8125 
Q 32.671875 45.40625 29.15625 45.40625 
Q 23.53125 45.40625 19.453125 41.84375 
Q 15.375 38.28125 15.375 28.328125 
L 15.375 0 
z
" id="ArialMT-6e"/>
      <path d="M 4.984375 -4.296875 
L 13.53125 -5.5625 
Q 14.0625 -9.515625 16.5 -11.328125 
Q 19.78125 -13.765625 25.4375 -13.765625 
Q 31.546875 -13.765625 34.859375 -11.328125 
Q 38.1875 -8.890625 39.359375 -4.5 
Q 40.046875 -1.8125 39.984375 6.78125 
Q 34.234375 0 25.640625 0 
Q 14.9375 0 9.078125 7.71875 
Q 3.21875 15.4375 3.21875 26.21875 
Q 3.21875 33.640625 5.90625 39.90625 
Q 8.59375 46.1875 13.6875 49.609375 
Q 18.796875 53.03125 25.6875 53.03125 
Q 34.859375 53.03125 40.828125 45.609375 
L 40.828125 51.859375 
L 48.921875 51.859375 
L 48.921875 7.03125 
Q 48.921875 -5.078125 46.453125 -10.125 
Q 44 -15.1875 38.640625 -18.109375 
Q 33.296875 -21.046875 25.484375 -21.046875 
Q 16.21875 -21.046875 10.5 -16.875 
Q 4.78125 -12.703125 4.984375 -4.296875 
M 12.25 26.859375 
Q 12.25 16.65625 16.296875 11.96875 
Q 20.359375 7.28125 26.46875 7.28125 
Q 32.515625 7.28125 36.609375 11.9375 
Q 40.71875 16.609375 40.71875 26.5625 
Q 40.71875 36.078125 36.5 40.90625 
Q 32.28125 45.75 26.3125 45.75 
Q 20.453125 45.75 16.34375 40.984375 
Q 12.25 36.234375 12.25 26.859375 
" id="ArialMT-67"/>
      <path d="M 7.859375 0 
L 7.859375 71.578125 
L 39.59375 71.578125 
Q 49.171875 71.578125 54.140625 69.640625 
Q 59.125 67.71875 62.109375 62.828125 
Q 65.09375 57.953125 65.09375 52.046875 
Q 65.09375 44.4375 60.15625 39.203125 
Q 55.21875 33.984375 44.921875 32.5625 
Q 48.6875 30.765625 50.640625 29 
Q 54.78125 25.203125 58.5 19.484375 
L 70.953125 0 
L 59.03125 0 
L 49.5625 14.890625 
Q 45.40625 21.34375 42.71875 24.75 
Q 40.046875 28.171875 37.921875 29.53125 
Q 35.796875 30.90625 33.59375 31.453125 
Q 31.984375 31.78125 28.328125 31.78125 
L 17.328125 31.78125 
L 17.328125 0 
z
M 17.328125 39.984375 
L 37.703125 39.984375 
Q 44.1875 39.984375 47.84375 41.328125 
Q 51.515625 42.671875 53.421875 45.625 
Q 55.328125 48.578125 55.328125 52.046875 
Q 55.328125 57.125 51.640625 60.390625 
Q 47.953125 63.671875 39.984375 63.671875 
L 17.328125 63.671875 
z
" id="ArialMT-52"/>
     </defs>
     <g style="fill:#262626;" transform="translate(520.499203 346.702828)scale(0.143 -0.143)">
      <use xlink:href="#ArialMT-48"/>
      <use x="72.216797" xlink:href="#ArialMT-65"/>
      <use x="127.832031" xlink:href="#ArialMT-61"/>
      <use x="183.447266" xlink:href="#ArialMT-74"/>
      <use x="211.230469" xlink:href="#ArialMT-69"/>
      <use x="233.447266" xlink:href="#ArialMT-6e"/>
      <use x="289.0625" xlink:href="#ArialMT-67"/>
      <use x="344.677734" xlink:href="#ArialMT-20"/>
      <use x="372.460938" xlink:href="#ArialMT-52"/>
      <use x="444.677734" xlink:href="#ArialMT-61"/>
      <use x="500.292969" xlink:href="#ArialMT-74"/>
      <use x="528.076172" xlink:href="#ArialMT-65"/>
     </g>
    </g>
   </g>
   <g id="matplotlib.axis_4">
    <g id="ytick_35">
     <g id="line2d_48">
      <g>
       <use style="fill:#262626;stroke:#262626;" x="421.172" xlink:href="#m9c6d632f90" y="53.117602"/>
      </g>
     </g>
     <g id="text_20">
      <!-- ${10^{-2}}$ -->
      <g style="fill:#262626;" transform="translate(377.622 57.870727)scale(0.13 -0.13)">
       <use transform="translate(0 0.765625)" xlink:href="#DejaVuSans-31"/>
       <use transform="translate(63.623047 0.765625)" xlink:href="#DejaVuSans-30"/>
       <use transform="translate(128.203125 39.046875)scale(0.7)" xlink:href="#DejaVuSans-2212"/>
       <use transform="translate(186.855469 39.046875)scale(0.7)" xlink:href="#DejaVuSans-32"/>
      </g>
     </g>
    </g>
    <g id="ytick_36">
     <g id="line2d_49">
      <g>
       <use style="fill:#262626;stroke:#262626;" x="421.172" xlink:href="#m9c6d632f90" y="133.656711"/>
      </g>
     </g>
     <g id="text_21">
      <!-- ${10^{-1}}$ -->
      <g style="fill:#262626;" transform="translate(377.622 138.344836)scale(0.13 -0.13)">
       <use transform="translate(0 0.684375)" xlink:href="#DejaVuSans-31"/>
       <use transform="translate(63.623047 0.684375)" xlink:href="#DejaVuSans-30"/>
       <use transform="translate(128.203125 38.965625)scale(0.7)" xlink:href="#DejaVuSans-2212"/>
       <use transform="translate(186.855469 38.965625)scale(0.7)" xlink:href="#DejaVuSans-31"/>
      </g>
     </g>
    </g>
    <g id="ytick_37">
     <g id="line2d_50">
      <g>
       <use style="fill:#262626;stroke:#262626;" x="421.172" xlink:href="#m9c6d632f90" y="214.19582"/>
      </g>
     </g>
     <g id="text_22">
      <!-- ${10^{0}}$ -->
      <g style="fill:#262626;" transform="translate(385.292 218.948945)scale(0.13 -0.13)">
       <use transform="translate(0 0.765625)" xlink:href="#DejaVuSans-31"/>
       <use transform="translate(63.623047 0.765625)" xlink:href="#DejaVuSans-30"/>
       <use transform="translate(128.203125 39.046875)scale(0.7)" xlink:href="#DejaVuSans-30"/>
      </g>
     </g>
    </g>
    <g id="ytick_38">
     <g id="line2d_51">
      <g>
       <use style="fill:#262626;stroke:#262626;" x="421.172" xlink:href="#m9c6d632f90" y="294.734929"/>
      </g>
     </g>
     <g id="text_23">
      <!-- ${10^{1}}$ -->
      <g style="fill:#262626;" transform="translate(385.292 299.423054)scale(0.13 -0.13)">
       <use transform="translate(0 0.684375)" xlink:href="#DejaVuSans-31"/>
       <use transform="translate(63.623047 0.684375)" xlink:href="#DejaVuSans-30"/>
       <use transform="translate(128.203125 38.965625)scale(0.7)" xlink:href="#DejaVuSans-31"/>
      </g>
     </g>
    </g>
    <g id="ytick_39">
     <g id="line2d_52">
      <g>
       <use style="fill:#262626;stroke:#262626;stroke-width:0.5;" x="421.172" xlink:href="#m2bc25f8af9" y="21.067868"/>
      </g>
     </g>
    </g>
    <g id="ytick_40">
     <g id="line2d_53">
      <g>
       <use style="fill:#262626;stroke:#262626;stroke-width:0.5;" x="421.172" xlink:href="#m2bc25f8af9" y="28.872914"/>
      </g>
     </g>
    </g>
    <g id="ytick_41">
     <g id="line2d_54">
      <g>
       <use style="fill:#262626;stroke:#262626;stroke-width:0.5;" x="421.172" xlink:href="#m2bc25f8af9" y="35.250101"/>
      </g>
     </g>
    </g>
    <g id="ytick_42">
     <g id="line2d_55">
      <g>
       <use style="fill:#262626;stroke:#262626;stroke-width:0.5;" x="421.172" xlink:href="#m2bc25f8af9" y="40.641936"/>
      </g>
     </g>
    </g>
    <g id="ytick_43">
     <g id="line2d_56">
      <g>
       <use style="fill:#262626;stroke:#262626;stroke-width:0.5;" x="421.172" xlink:href="#m2bc25f8af9" y="45.312556"/>
      </g>
     </g>
    </g>
    <g id="ytick_44">
     <g id="line2d_57">
      <g>
       <use style="fill:#262626;stroke:#262626;stroke-width:0.5;" x="421.172" xlink:href="#m2bc25f8af9" y="49.432334"/>
      </g>
     </g>
    </g>
    <g id="ytick_45">
     <g id="line2d_58">
      <g>
       <use style="fill:#262626;stroke:#262626;stroke-width:0.5;" x="421.172" xlink:href="#m2bc25f8af9" y="77.362289"/>
      </g>
     </g>
    </g>
    <g id="ytick_46">
     <g id="line2d_59">
      <g>
       <use style="fill:#262626;stroke:#262626;stroke-width:0.5;" x="421.172" xlink:href="#m2bc25f8af9" y="91.544523"/>
      </g>
     </g>
    </g>
    <g id="ytick_47">
     <g id="line2d_60">
      <g>
       <use style="fill:#262626;stroke:#262626;stroke-width:0.5;" x="421.172" xlink:href="#m2bc25f8af9" y="101.606977"/>
      </g>
     </g>
    </g>
    <g id="ytick_48">
     <g id="line2d_61">
      <g>
       <use style="fill:#262626;stroke:#262626;stroke-width:0.5;" x="421.172" xlink:href="#m2bc25f8af9" y="109.412023"/>
      </g>
     </g>
    </g>
    <g id="ytick_49">
     <g id="line2d_62">
      <g>
       <use style="fill:#262626;stroke:#262626;stroke-width:0.5;" x="421.172" xlink:href="#m2bc25f8af9" y="115.78921"/>
      </g>
     </g>
    </g>
    <g id="ytick_50">
     <g id="line2d_63">
      <g>
       <use style="fill:#262626;stroke:#262626;stroke-width:0.5;" x="421.172" xlink:href="#m2bc25f8af9" y="121.181045"/>
      </g>
     </g>
    </g>
    <g id="ytick_51">
     <g id="line2d_64">
      <g>
       <use style="fill:#262626;stroke:#262626;stroke-width:0.5;" x="421.172" xlink:href="#m2bc25f8af9" y="125.851665"/>
      </g>
     </g>
    </g>
    <g id="ytick_52">
     <g id="line2d_65">
      <g>
       <use style="fill:#262626;stroke:#262626;stroke-width:0.5;" x="421.172" xlink:href="#m2bc25f8af9" y="129.971443"/>
      </g>
     </g>
    </g>
    <g id="ytick_53">
     <g id="line2d_66">
      <g>
       <use style="fill:#262626;stroke:#262626;stroke-width:0.5;" x="421.172" xlink:href="#m2bc25f8af9" y="157.901399"/>
      </g>
     </g>
    </g>
    <g id="ytick_54">
     <g id="line2d_67">
      <g>
       <use style="fill:#262626;stroke:#262626;stroke-width:0.5;" x="421.172" xlink:href="#m2bc25f8af9" y="172.083632"/>
      </g>
     </g>
    </g>
    <g id="ytick_55">
     <g id="line2d_68">
      <g>
       <use style="fill:#262626;stroke:#262626;stroke-width:0.5;" x="421.172" xlink:href="#m2bc25f8af9" y="182.146086"/>
      </g>
     </g>
    </g>
    <g id="ytick_56">
     <g id="line2d_69">
      <g>
       <use style="fill:#262626;stroke:#262626;stroke-width:0.5;" x="421.172" xlink:href="#m2bc25f8af9" y="189.951132"/>
      </g>
     </g>
    </g>
    <g id="ytick_57">
     <g id="line2d_70">
      <g>
       <use style="fill:#262626;stroke:#262626;stroke-width:0.5;" x="421.172" xlink:href="#m2bc25f8af9" y="196.328319"/>
      </g>
     </g>
    </g>
    <g id="ytick_58">
     <g id="line2d_71">
      <g>
       <use style="fill:#262626;stroke:#262626;stroke-width:0.5;" x="421.172" xlink:href="#m2bc25f8af9" y="201.720154"/>
      </g>
     </g>
    </g>
    <g id="ytick_59">
     <g id="line2d_72">
      <g>
       <use style="fill:#262626;stroke:#262626;stroke-width:0.5;" x="421.172" xlink:href="#m2bc25f8af9" y="206.390774"/>
      </g>
     </g>
    </g>
    <g id="ytick_60">
     <g id="line2d_73">
      <g>
       <use style="fill:#262626;stroke:#262626;stroke-width:0.5;" x="421.172" xlink:href="#m2bc25f8af9" y="210.510553"/>
      </g>
     </g>
    </g>
    <g id="ytick_61">
     <g id="line2d_74">
      <g>
       <use style="fill:#262626;stroke:#262626;stroke-width:0.5;" x="421.172" xlink:href="#m2bc25f8af9" y="238.440508"/>
      </g>
     </g>
    </g>
    <g id="ytick_62">
     <g id="line2d_75">
      <g>
       <use style="fill:#262626;stroke:#262626;stroke-width:0.5;" x="421.172" xlink:href="#m2bc25f8af9" y="252.622741"/>
      </g>
     </g>
    </g>
    <g id="ytick_63">
     <g id="line2d_76">
      <g>
       <use style="fill:#262626;stroke:#262626;stroke-width:0.5;" x="421.172" xlink:href="#m2bc25f8af9" y="262.685196"/>
      </g>
     </g>
    </g>
    <g id="ytick_64">
     <g id="line2d_77">
      <g>
       <use style="fill:#262626;stroke:#262626;stroke-width:0.5;" x="421.172" xlink:href="#m2bc25f8af9" y="270.490242"/>
      </g>
     </g>
    </g>
    <g id="ytick_65">
     <g id="line2d_78">
      <g>
       <use style="fill:#262626;stroke:#262626;stroke-width:0.5;" x="421.172" xlink:href="#m2bc25f8af9" y="276.867429"/>
      </g>
     </g>
    </g>
    <g id="ytick_66">
     <g id="line2d_79">
      <g>
       <use style="fill:#262626;stroke:#262626;stroke-width:0.5;" x="421.172" xlink:href="#m2bc25f8af9" y="282.259264"/>
      </g>
     </g>
    </g>
    <g id="ytick_67">
     <g id="line2d_80">
      <g>
       <use style="fill:#262626;stroke:#262626;stroke-width:0.5;" x="421.172" xlink:href="#m2bc25f8af9" y="286.929883"/>
      </g>
     </g>
    </g>
    <g id="ytick_68">
     <g id="line2d_81">
      <g>
       <use style="fill:#262626;stroke:#262626;stroke-width:0.5;" x="421.172" xlink:href="#m2bc25f8af9" y="291.049662"/>
      </g>
     </g>
    </g>
    <g id="text_24">
     <!-- Pressure (bar) -->
     <g style="fill:#262626;" transform="translate(370.612297 210.062742)rotate(-90)scale(0.143 -0.143)">
      <use xlink:href="#ArialMT-50"/>
      <use x="66.699219" xlink:href="#ArialMT-72"/>
      <use x="100" xlink:href="#ArialMT-65"/>
      <use x="155.615234" xlink:href="#ArialMT-73"/>
      <use x="205.615234" xlink:href="#ArialMT-73"/>
      <use x="255.615234" xlink:href="#ArialMT-75"/>
      <use x="311.230469" xlink:href="#ArialMT-72"/>
      <use x="344.53125" xlink:href="#ArialMT-65"/>
      <use x="400.146484" xlink:href="#ArialMT-20"/>
      <use x="427.929688" xlink:href="#ArialMT-28"/>
      <use x="461.230469" xlink:href="#ArialMT-62"/>
      <use x="516.845703" xlink:href="#ArialMT-61"/>
      <use x="572.460938" xlink:href="#ArialMT-72"/>
      <use x="605.761719" xlink:href="#ArialMT-29"/>
     </g>
    </g>
   </g>
   <g id="line2d_82">
    <path clip-path="url(#p7a8051fa9d)" d="M 499.250393 34.186648 
L 497.625581 39.500381 
L 495.860257 44.814115 
L 493.9917 50.127849 
L 492.075477 55.441583 
L 490.187347 60.755317 
L 488.423395 66.06905 
L 486.898071 71.382784 
L 485.737657 76.696518 
L 485.071028 82.010252 
L 485.014519 87.323985 
L 485.656635 92.637719 
L 487.04375 97.951453 
L 489.174188 103.265187 
L 492.007599 108.57892 
L 495.503211 113.892654 
L 499.700977 119.206388 
L 504.707572 124.520122 
L 511.719381 129.833856 
L 521.104336 135.147589 
L 511.460835 140.461323 
L 536.544111 145.775057 
L 517.997999 151.088791 
L 533.636759 156.402524 
L 555.94425 161.716258 
L 576.437015 167.029992 
L 592.296822 172.343726 
L 614.706638 177.657459 
L 626.084441 182.971193 
L 625.618971 188.284927 
L 646.26299 193.598661 
L 687.32254 198.912394 
L 690.465739 204.226128 
L 595.729563 209.539862 
L 585.131216 214.853596 
L 490.193431 220.16733 
L 532.222492 225.481063 
L 483.9402 230.794797 
L 455.502397 236.108531 
L 452.304256 241.422265 
L 458.999346 246.735998 
L 462.945164 252.049732 
L 464.985315 257.363466 
L 465.990199 262.6772 
L 466.856437 267.990933 
L 467.340512 273.304667 
L 473.507829 278.618401 
L 469.575687 283.932135 
L 433.995511 289.245869 
L 624.437405 294.559602 
" style="fill:none;stroke:#4c72b0;stroke-linecap:round;stroke-width:1.2;"/>
   </g>
   <g id="line2d_83">
    <path clip-path="url(#p7a8051fa9d)" d="M 421.172 156.402524 
L 703.28925 156.402524 
" style="fill:none;stroke:#c44e52;stroke-linecap:round;stroke-width:1.2;"/>
   </g>
   <g id="line2d_84">
    <path clip-path="url(#p7a8051fa9d)" d="M 421.172 230.794797 
L 703.28925 230.794797 
" style="fill:none;stroke:#55a868;stroke-linecap:round;stroke-width:1.2;"/>
   </g>
   <g id="line2d_85">
    <path clip-path="url(#p7a8051fa9d)" d="M 495.834122 307.57825 
L 495.834122 21.168 
" style="fill:none;stroke:#000000;stroke-dasharray:5.6,2.4;stroke-dashoffset:0;stroke-width:1.2;"/>
   </g>
   <g id="patch_8">
    <path d="M 421.172 307.57825 
L 421.172 21.168 
" style="fill:none;stroke:#262626;stroke-linecap:square;stroke-linejoin:miter;stroke-width:1.25;"/>
   </g>
   <g id="patch_9">
    <path d="M 703.28925 307.57825 
L 703.28925 21.168 
" style="fill:none;stroke:#262626;stroke-linecap:square;stroke-linejoin:miter;stroke-width:1.25;"/>
   </g>
   <g id="patch_10">
    <path d="M 421.172 307.57825 
L 703.28925 307.57825 
" style="fill:none;stroke:#262626;stroke-linecap:square;stroke-linejoin:miter;stroke-width:1.25;"/>
   </g>
   <g id="patch_11">
    <path d="M 421.172 21.168 
L 703.28925 21.168 
" style="fill:none;stroke:#262626;stroke-linecap:square;stroke-linejoin:miter;stroke-width:1.25;"/>
   </g>
  </g>
  <g id="axes_3">
   <g id="patch_12">
    <path d="M 776.71475 307.57825 
L 1058.832 307.57825 
L 1058.832 21.168 
L 776.71475 21.168 
z
" style="fill:#ffffff;"/>
   </g>
   <g id="matplotlib.axis_5">
    <g id="xtick_13">
     <g id="line2d_86">
      <g>
       <use style="fill:#262626;stroke:#262626;" x="776.71475" xlink:href="#mced65a79e6" y="307.57825"/>
      </g>
     </g>
     <g id="text_25">
      <!-- ${10^{3}}$ -->
      <defs>
       <path d="M 40.578125 39.3125 
Q 47.65625 37.796875 51.625 33 
Q 55.609375 28.21875 55.609375 21.1875 
Q 55.609375 10.40625 48.1875 4.484375 
Q 40.765625 -1.421875 27.09375 -1.421875 
Q 22.515625 -1.421875 17.65625 -0.515625 
Q 12.796875 0.390625 7.625 2.203125 
L 7.625 11.71875 
Q 11.71875 9.328125 16.59375 8.109375 
Q 21.484375 6.890625 26.8125 6.890625 
Q 36.078125 6.890625 40.9375 10.546875 
Q 45.796875 14.203125 45.796875 21.1875 
Q 45.796875 27.640625 41.28125 31.265625 
Q 36.765625 34.90625 28.71875 34.90625 
L 20.21875 34.90625 
L 20.21875 43.015625 
L 29.109375 43.015625 
Q 36.375 43.015625 40.234375 45.921875 
Q 44.09375 48.828125 44.09375 54.296875 
Q 44.09375 59.90625 40.109375 62.90625 
Q 36.140625 65.921875 28.71875 65.921875 
Q 24.65625 65.921875 20.015625 65.03125 
Q 15.375 64.15625 9.8125 62.3125 
L 9.8125 71.09375 
Q 15.4375 72.65625 20.34375 73.4375 
Q 25.25 74.21875 29.59375 74.21875 
Q 40.828125 74.21875 47.359375 69.109375 
Q 53.90625 64.015625 53.90625 55.328125 
Q 53.90625 49.265625 50.4375 45.09375 
Q 46.96875 40.921875 40.578125 39.3125 
" id="DejaVuSans-33"/>
      </defs>
      <g style="fill:#262626;" transform="translate(765.27475 330.0845)scale(0.13 -0.13)">
       <use transform="translate(0 0.765625)" xlink:href="#DejaVuSans-31"/>
       <use transform="translate(63.623047 0.765625)" xlink:href="#DejaVuSans-30"/>
       <use transform="translate(128.203125 39.046875)scale(0.7)" xlink:href="#DejaVuSans-33"/>
      </g>
     </g>
    </g>
    <g id="xtick_14">
     <g id="line2d_87">
      <g>
       <use style="fill:#262626;stroke:#262626;" x="967.70601" xlink:href="#mced65a79e6" y="307.57825"/>
      </g>
     </g>
     <g id="text_26">
      <!-- ${10^{4}}$ -->
      <defs>
       <path d="M 37.796875 64.3125 
L 12.890625 25.390625 
L 37.796875 25.390625 
z
M 35.203125 72.90625 
L 47.609375 72.90625 
L 47.609375 25.390625 
L 58.015625 25.390625 
L 58.015625 17.1875 
L 47.609375 17.1875 
L 47.609375 0 
L 37.796875 0 
L 37.796875 17.1875 
L 4.890625 17.1875 
L 4.890625 26.703125 
z
" id="DejaVuSans-34"/>
      </defs>
      <g style="fill:#262626;" transform="translate(956.26601 329.9545)scale(0.13 -0.13)">
       <use transform="translate(0 0.684375)" xlink:href="#DejaVuSans-31"/>
       <use transform="translate(63.623047 0.684375)" xlink:href="#DejaVuSans-30"/>
       <use transform="translate(128.203125 38.965625)scale(0.7)" xlink:href="#DejaVuSans-34"/>
      </g>
     </g>
    </g>
    <g id="xtick_15">
     <g id="line2d_88">
      <defs>
       <path d="M 0 0 
L 0 3 
" id="mdb812e9c68" style="stroke:#262626;stroke-width:0.5;"/>
      </defs>
      <g>
       <use style="fill:#262626;stroke:#262626;stroke-width:0.5;" x="834.208848" xlink:href="#mdb812e9c68" y="307.57825"/>
      </g>
     </g>
    </g>
    <g id="xtick_16">
     <g id="line2d_89">
      <g>
       <use style="fill:#262626;stroke:#262626;stroke-width:0.5;" x="867.84074" xlink:href="#mdb812e9c68" y="307.57825"/>
      </g>
     </g>
    </g>
    <g id="xtick_17">
     <g id="line2d_90">
      <g>
       <use style="fill:#262626;stroke:#262626;stroke-width:0.5;" x="891.702946" xlink:href="#mdb812e9c68" y="307.57825"/>
      </g>
     </g>
    </g>
    <g id="xtick_18">
     <g id="line2d_91">
      <g>
       <use style="fill:#262626;stroke:#262626;stroke-width:0.5;" x="910.211912" xlink:href="#mdb812e9c68" y="307.57825"/>
      </g>
     </g>
    </g>
    <g id="xtick_19">
     <g id="line2d_92">
      <g>
       <use style="fill:#262626;stroke:#262626;stroke-width:0.5;" x="925.334838" xlink:href="#mdb812e9c68" y="307.57825"/>
      </g>
     </g>
    </g>
    <g id="xtick_20">
     <g id="line2d_93">
      <g>
       <use style="fill:#262626;stroke:#262626;stroke-width:0.5;" x="938.12109" xlink:href="#mdb812e9c68" y="307.57825"/>
      </g>
     </g>
    </g>
    <g id="xtick_21">
     <g id="line2d_94">
      <g>
       <use style="fill:#262626;stroke:#262626;stroke-width:0.5;" x="949.197045" xlink:href="#mdb812e9c68" y="307.57825"/>
      </g>
     </g>
    </g>
    <g id="xtick_22">
     <g id="line2d_95">
      <g>
       <use style="fill:#262626;stroke:#262626;stroke-width:0.5;" x="958.966729" xlink:href="#mdb812e9c68" y="307.57825"/>
      </g>
     </g>
    </g>
    <g id="xtick_23">
     <g id="line2d_96">
      <g>
       <use style="fill:#262626;stroke:#262626;stroke-width:0.5;" x="1025.200109" xlink:href="#mdb812e9c68" y="307.57825"/>
      </g>
     </g>
    </g>
    <g id="xtick_24">
     <g id="line2d_97">
      <g>
       <use style="fill:#262626;stroke:#262626;stroke-width:0.5;" x="1058.832" xlink:href="#mdb812e9c68" y="307.57825"/>
      </g>
     </g>
    </g>
    <g id="text_27">
     <!-- Wavenumber -->
     <defs>
      <path d="M 20.21875 0 
L 1.21875 71.578125 
L 10.9375 71.578125 
L 21.828125 24.65625 
Q 23.578125 17.28125 24.859375 10.015625 
Q 27.59375 21.484375 28.078125 23.25 
L 41.703125 71.578125 
L 53.125 71.578125 
L 63.375 35.359375 
Q 67.234375 21.875 68.953125 10.015625 
Q 70.3125 16.796875 72.515625 25.59375 
L 83.734375 71.578125 
L 93.265625 71.578125 
L 73.640625 0 
L 64.5 0 
L 49.421875 54.546875 
Q 47.515625 61.375 47.171875 62.9375 
Q 46.046875 58.015625 45.0625 54.546875 
L 29.890625 0 
z
" id="ArialMT-57"/>
      <path d="M 21 0 
L 1.265625 51.859375 
L 10.546875 51.859375 
L 21.6875 20.796875 
Q 23.484375 15.765625 25 10.359375 
Q 26.171875 14.453125 28.265625 20.21875 
L 39.796875 51.859375 
L 48.828125 51.859375 
L 29.203125 0 
z
" id="ArialMT-76"/>
     </defs>
     <g style="fill:#262626;" transform="translate(875.259922 346.903922)scale(0.143 -0.143)">
      <use xlink:href="#ArialMT-57"/>
      <use x="94.337891" xlink:href="#ArialMT-61"/>
      <use x="149.953125" xlink:href="#ArialMT-76"/>
      <use x="199.953125" xlink:href="#ArialMT-65"/>
      <use x="255.568359" xlink:href="#ArialMT-6e"/>
      <use x="311.183594" xlink:href="#ArialMT-75"/>
      <use x="366.798828" xlink:href="#ArialMT-6d"/>
      <use x="450.099609" xlink:href="#ArialMT-62"/>
      <use x="505.714844" xlink:href="#ArialMT-65"/>
      <use x="561.330078" xlink:href="#ArialMT-72"/>
     </g>
    </g>
   </g>
   <g id="matplotlib.axis_6">
    <g id="ytick_69">
     <g id="line2d_98">
      <g>
       <use style="fill:#262626;stroke:#262626;" x="776.71475" xlink:href="#m9c6d632f90" y="294.559602"/>
      </g>
     </g>
     <g id="text_28">
      <!-- 0 -->
      <g style="fill:#262626;" transform="translate(756.485531 299.21218)scale(0.13 -0.13)">
       <use xlink:href="#ArialMT-30"/>
      </g>
     </g>
    </g>
    <g id="ytick_70">
     <g id="line2d_99">
      <g>
       <use style="fill:#262626;stroke:#262626;" x="776.71475" xlink:href="#m9c6d632f90" y="257.767981"/>
      </g>
     </g>
     <g id="text_29">
      <!-- 2500 -->
      <defs>
       <path d="M 4.15625 18.75 
L 13.375 19.53125 
Q 14.40625 12.796875 18.140625 9.390625 
Q 21.875 6 27.15625 6 
Q 33.5 6 37.890625 10.78125 
Q 42.28125 15.578125 42.28125 23.484375 
Q 42.28125 31 38.0625 35.34375 
Q 33.84375 39.703125 27 39.703125 
Q 22.75 39.703125 19.328125 37.765625 
Q 15.921875 35.84375 13.96875 32.765625 
L 5.71875 33.84375 
L 12.640625 70.609375 
L 48.25 70.609375 
L 48.25 62.203125 
L 19.671875 62.203125 
L 15.828125 42.96875 
Q 22.265625 47.46875 29.34375 47.46875 
Q 38.71875 47.46875 45.15625 40.96875 
Q 51.609375 34.46875 51.609375 24.265625 
Q 51.609375 14.546875 45.953125 7.46875 
Q 39.0625 -1.21875 27.15625 -1.21875 
Q 17.390625 -1.21875 11.203125 4.25 
Q 5.03125 9.71875 4.15625 18.75 
" id="ArialMT-35"/>
      </defs>
      <g style="fill:#262626;" transform="translate(734.797875 262.420559)scale(0.13 -0.13)">
       <use xlink:href="#ArialMT-32"/>
       <use x="55.615234" xlink:href="#ArialMT-35"/>
       <use x="111.230469" xlink:href="#ArialMT-30"/>
       <use x="166.845703" xlink:href="#ArialMT-30"/>
      </g>
     </g>
    </g>
    <g id="ytick_71">
     <g id="line2d_100">
      <g>
       <use style="fill:#262626;stroke:#262626;" x="776.71475" xlink:href="#m9c6d632f90" y="220.976359"/>
      </g>
     </g>
     <g id="text_30">
      <!-- 5000 -->
      <g style="fill:#262626;" transform="translate(734.797875 225.628937)scale(0.13 -0.13)">
       <use xlink:href="#ArialMT-35"/>
       <use x="55.615234" xlink:href="#ArialMT-30"/>
       <use x="111.230469" xlink:href="#ArialMT-30"/>
       <use x="166.845703" xlink:href="#ArialMT-30"/>
      </g>
     </g>
    </g>
    <g id="ytick_72">
     <g id="line2d_101">
      <g>
       <use style="fill:#262626;stroke:#262626;" x="776.71475" xlink:href="#m9c6d632f90" y="184.184738"/>
      </g>
     </g>
     <g id="text_31">
      <!-- 7500 -->
      <defs>
       <path d="M 4.734375 62.203125 
L 4.734375 70.65625 
L 51.078125 70.65625 
L 51.078125 63.8125 
Q 44.234375 56.546875 37.515625 44.484375 
Q 30.8125 32.421875 27.15625 19.671875 
Q 24.515625 10.6875 23.78125 0 
L 14.75 0 
Q 14.890625 8.453125 18.0625 20.40625 
Q 21.234375 32.375 27.171875 43.484375 
Q 33.109375 54.59375 39.796875 62.203125 
z
" id="ArialMT-37"/>
      </defs>
      <g style="fill:#262626;" transform="translate(734.797875 188.837316)scale(0.13 -0.13)">
       <use xlink:href="#ArialMT-37"/>
       <use x="55.615234" xlink:href="#ArialMT-35"/>
       <use x="111.230469" xlink:href="#ArialMT-30"/>
       <use x="166.845703" xlink:href="#ArialMT-30"/>
      </g>
     </g>
    </g>
    <g id="ytick_73">
     <g id="line2d_102">
      <g>
       <use style="fill:#262626;stroke:#262626;" x="776.71475" xlink:href="#m9c6d632f90" y="147.393116"/>
      </g>
     </g>
     <g id="text_32">
      <!-- 10000 -->
      <g style="fill:#262626;" transform="translate(727.568656 152.045694)scale(0.13 -0.13)">
       <use xlink:href="#ArialMT-31"/>
       <use x="55.615234" xlink:href="#ArialMT-30"/>
       <use x="111.230469" xlink:href="#ArialMT-30"/>
       <use x="166.845703" xlink:href="#ArialMT-30"/>
       <use x="222.460938" xlink:href="#ArialMT-30"/>
      </g>
     </g>
    </g>
    <g id="ytick_74">
     <g id="line2d_103">
      <g>
       <use style="fill:#262626;stroke:#262626;" x="776.71475" xlink:href="#m9c6d632f90" y="110.601495"/>
      </g>
     </g>
     <g id="text_33">
      <!-- 12500 -->
      <g style="fill:#262626;" transform="translate(727.568656 115.254073)scale(0.13 -0.13)">
       <use xlink:href="#ArialMT-31"/>
       <use x="55.615234" xlink:href="#ArialMT-32"/>
       <use x="111.230469" xlink:href="#ArialMT-35"/>
       <use x="166.845703" xlink:href="#ArialMT-30"/>
       <use x="222.460938" xlink:href="#ArialMT-30"/>
      </g>
     </g>
    </g>
    <g id="ytick_75">
     <g id="line2d_104">
      <g>
       <use style="fill:#262626;stroke:#262626;" x="776.71475" xlink:href="#m9c6d632f90" y="73.809873"/>
      </g>
     </g>
     <g id="text_34">
      <!-- 15000 -->
      <g style="fill:#262626;" transform="translate(727.568656 78.462451)scale(0.13 -0.13)">
       <use xlink:href="#ArialMT-31"/>
       <use x="55.615234" xlink:href="#ArialMT-35"/>
       <use x="111.230469" xlink:href="#ArialMT-30"/>
       <use x="166.845703" xlink:href="#ArialMT-30"/>
       <use x="222.460938" xlink:href="#ArialMT-30"/>
      </g>
     </g>
    </g>
    <g id="ytick_76">
     <g id="line2d_105">
      <g>
       <use style="fill:#262626;stroke:#262626;" x="776.71475" xlink:href="#m9c6d632f90" y="37.018252"/>
      </g>
     </g>
     <g id="text_35">
      <!-- 17500 -->
      <g style="fill:#262626;" transform="translate(727.568656 41.67083)scale(0.13 -0.13)">
       <use xlink:href="#ArialMT-31"/>
       <use x="55.615234" xlink:href="#ArialMT-37"/>
       <use x="111.230469" xlink:href="#ArialMT-35"/>
       <use x="166.845703" xlink:href="#ArialMT-30"/>
       <use x="222.460938" xlink:href="#ArialMT-30"/>
      </g>
     </g>
    </g>
    <g id="text_36">
     <!-- Flux -->
     <defs>
      <path d="M 8.203125 0 
L 8.203125 71.578125 
L 56.5 71.578125 
L 56.5 63.140625 
L 17.671875 63.140625 
L 17.671875 40.96875 
L 51.265625 40.96875 
L 51.265625 32.515625 
L 17.671875 32.515625 
L 17.671875 0 
z
" id="ArialMT-46"/>
      <path d="M 6.390625 0 
L 6.390625 71.578125 
L 15.1875 71.578125 
L 15.1875 0 
z
" id="ArialMT-6c"/>
      <path d="M 0.734375 0 
L 19.671875 26.953125 
L 2.15625 51.859375 
L 13.140625 51.859375 
L 21.09375 39.703125 
Q 23.34375 36.234375 24.703125 33.890625 
Q 26.859375 37.109375 28.65625 39.59375 
L 37.40625 51.859375 
L 47.90625 51.859375 
L 29.984375 27.4375 
L 49.265625 0 
L 38.484375 0 
L 27.828125 16.109375 
L 25 20.453125 
L 11.375 0 
z
" id="ArialMT-78"/>
     </defs>
     <g style="fill:#262626;" transform="translate(720.726531 177.879922)rotate(-90)scale(0.143 -0.143)">
      <use xlink:href="#ArialMT-46"/>
      <use x="61.083984" xlink:href="#ArialMT-6c"/>
      <use x="83.300781" xlink:href="#ArialMT-75"/>
      <use x="138.916016" xlink:href="#ArialMT-78"/>
     </g>
    </g>
   </g>
   <g id="line2d_106">
    <path clip-path="url(#p7b30f5c3cf)" d="M 445.009043 294.559602 
L 616.185067 294.559602 
L 661.854065 294.50218 
L 690.356724 293.190497 
L 711.318617 292.52996 
L 727.95697 291.661511 
L 741.7718 290.630872 
L 753.591395 289.441347 
L 763.923676 288.096003 
L 773.103398 286.600421 
L 781.363188 284.957993 
L 788.871412 283.166002 
L 795.753928 281.200217 
L 802.107325 278.671663 
L 808.00737 276.782006 
L 813.514607 288.058335 
L 818.678184 294.498498 
L 828.129406 294.559602 
L 844.305758 294.559602 
L 847.900443 275.900665 
L 851.345665 248.108182 
L 857.834117 241.075306 
L 860.897305 237.184631 
L 866.703677 229.425016 
L 869.461148 225.215422 
L 872.129847 220.640169 
L 874.715312 214.869913 
L 877.222582 207.650592 
L 879.65625 204.823098 
L 882.020516 223.67897 
L 884.319231 275.896449 
L 886.555932 293.879045 
L 888.73388 294.559537 
L 896.915055 294.559602 
L 898.840171 285.463621 
L 900.721608 162.696721 
L 906.122603 149.156915 
L 907.847497 143.596178 
L 909.537242 137.045659 
L 911.193245 132.162161 
L 914.409231 119.375894 
L 915.971634 111.374852 
L 917.505146 101.67819 
L 919.010815 94.260769 
L 920.489636 97.578928 
L 921.942548 124.278751 
L 923.370445 185.175582 
L 924.774172 266.550263 
L 926.154536 288.396996 
L 927.5123 292.500434 
L 928.848194 293.674379 
L 930.16291 293.147605 
L 931.457111 117.055521 
L 932.731425 68.811056 
L 933.986456 67.173311 
L 935.222777 66.026491 
L 936.44094 65.712066 
L 937.64147 64.511653 
L 938.824869 63.084785 
L 939.991621 62.035304 
L 942.277008 61.094042 
L 943.396512 59.484222 
L 945.591183 53.69368 
L 947.729274 49.801644 
L 948.777999 48.454007 
L 949.81363 47.878793 
L 950.836488 46.242831 
L 951.846885 46.759236 
L 952.845122 46.488156 
L 953.831487 47.583397 
L 955.769709 46.117107 
L 956.722095 46.036194 
L 957.663669 46.355275 
L 958.594674 45.917513 
L 959.515344 47.036811 
L 960.425907 46.3618 
L 961.326582 45.342988 
L 962.217581 46.319432 
L 963.099111 45.495214 
L 964.834551 43.200308 
L 965.688841 42.305668 
L 966.534422 41.785555 
L 967.371469 39.899007 
L 968.200153 39.292089 
L 969.020639 39.263575 
L 969.833089 38.72179 
L 970.637657 38.416362 
L 971.434496 38.36471 
L 972.223752 39.197322 
L 973.005569 37.842125 
L 973.780085 38.785687 
L 974.547435 37.860636 
L 975.307752 37.802977 
L 976.061162 39.152137 
L 976.80779 38.034821 
L 977.547757 38.614203 
L 978.281181 40.159566 
L 979.008176 46.265682 
L 979.728855 44.744348 
L 980.443325 48.392094 
L 981.151694 49.001743 
L 981.854064 44.41492 
L 982.550537 44.119523 
L 983.241209 43.389842 
L 983.926178 44.69011 
L 984.605537 44.208887 
L 985.279377 44.436247 
L 985.947786 44.951129 
L 986.610852 46.620146 
L 987.268659 45.9775 
L 987.92129 45.631314 
L 989.211347 49.78871 
L 989.848928 49.939325 
L 990.481645 49.457671 
L 991.109573 49.992041 
L 991.732782 50.276802 
L 992.351344 53.350455 
L 992.965327 52.9308 
L 993.574799 52.720829 
L 994.179824 52.782024 
L 995.376795 56.342232 
L 995.968864 55.46662 
L 996.556737 55.922822 
L 997.140473 57.026743 
L 997.720129 57.193426 
L 998.295763 56.901953 
L 998.867429 58.11576 
L 999.435182 58.54319 
L 999.999075 58.147134 
L 1001.115489 59.48448 
L 1001.668111 59.56193 
L 1002.217076 70.403702 
L 1002.762431 68.876117 
L 1003.304225 63.915614 
L 1003.842502 65.165121 
L 1004.377308 65.349166 
L 1004.908688 65.01932 
L 1005.436686 66.903195 
L 1005.961343 66.617269 
L 1006.482703 70.463718 
L 1007.000806 70.271568 
L 1007.515694 71.740402 
L 1008.027404 75.271392 
L 1008.535977 74.161607 
L 1009.041451 71.490794 
L 1010.04325 76.771872 
L 1010.539649 76.510005 
L 1011.033094 78.194069 
L 1011.523621 83.906414 
L 1012.011264 83.18445 
L 1012.496058 80.1279 
L 1012.978034 82.902779 
L 1013.457225 84.694358 
L 1014.407382 89.533707 
L 1014.87841 93.227399 
L 1015.346778 94.481332 
L 1015.812517 98.322952 
L 1016.275654 98.391462 
L 1016.73622 97.875991 
L 1017.194243 100.729958 
L 1017.649751 101.858225 
L 1018.10277 103.782685 
L 1018.553329 109.675366 
L 1019.44717 108.358629 
L 1019.890504 109.558107 
L 1020.331482 109.904107 
L 1020.770127 119.154296 
L 1021.206464 119.701931 
L 1021.640519 118.862191 
L 1022.072313 135.152271 
L 1022.501872 132.372434 
L 1022.929217 122.425718 
L 1023.354372 120.494949 
L 1024.1982 125.483246 
L 1024.616916 129.350706 
L 1025.033529 131.332654 
L 1025.44806 131.46039 
L 1025.86053 128.320081 
L 1026.270958 130.756103 
L 1027.085773 138.121398 
L 1027.490198 145.70543 
L 1028.29318 133.010423 
L 1028.691775 133.707222 
L 1029.088464 135.597866 
L 1029.483264 139.968984 
L 1029.876194 141.584898 
L 1030.267271 142.562448 
L 1030.656514 144.731731 
L 1031.043938 145.343478 
L 1031.429561 147.397471 
L 1031.813399 147.19963 
L 1032.195469 148.18142 
L 1032.575788 147.522404 
L 1032.954371 149.99266 
L 1033.331233 154.745562 
L 1033.706391 150.876593 
L 1034.07986 152.136519 
L 1034.451655 162.697583 
L 1034.821791 165.295316 
L 1035.190282 165.278515 
L 1035.557143 170.540004 
L 1035.92239 179.702232 
L 1036.286034 175.986896 
L 1036.648092 181.80968 
L 1037.008576 183.344344 
L 1037.3675 199.827968 
L 1037.724878 206.03549 
L 1038.080722 195.471186 
L 1038.435046 190.60364 
L 1038.787864 188.501387 
L 1039.139186 188.40151 
L 1039.489027 191.019371 
L 1039.837399 191.005078 
L 1040.184314 188.381304 
L 1040.529784 190.027247 
L 1040.87382 192.225906 
L 1041.216436 189.165784 
L 1041.897451 198.82901 
L 1042.235873 203.031864 
L 1042.57292 205.282383 
L 1043.242933 198.460462 
L 1043.575921 200.124995 
L 1043.907577 207.129617 
L 1044.237912 238.303905 
L 1044.566937 238.371891 
L 1044.894662 247.642413 
L 1045.221098 243.748821 
L 1045.546253 227.542938 
L 1045.870139 232.122791 
L 1046.192765 243.324715 
L 1046.514141 247.082598 
L 1046.834277 247.27455 
L 1047.153182 254.58811 
L 1047.470865 249.136099 
L 1048.102605 232.292973 
L 1048.41668 230.895287 
L 1048.72957 235.497416 
L 1049.041284 246.987482 
L 1049.351831 249.956642 
L 1049.66122 242.21752 
L 1049.969459 239.72219 
L 1050.276557 239.65327 
L 1050.582522 238.159908 
L 1050.887362 234.290859 
L 1051.493703 246.98943 
L 1051.795219 245.906545 
L 1052.095643 247.932032 
L 1052.394983 245.034487 
L 1052.693246 255.802773 
L 1052.990441 262.397481 
L 1053.581655 242.833651 
L 1053.87569 245.017535 
L 1054.168685 249.491224 
L 1054.460649 248.050713 
L 1054.75159 250.124751 
L 1055.041513 247.114245 
L 1055.330426 250.365661 
L 1055.618337 251.50997 
L 1055.905252 253.507037 
L 1056.191177 258.055642 
L 1056.476121 259.234012 
L 1056.760088 261.512488 
L 1057.043087 258.763413 
L 1057.325124 259.424448 
L 1057.886337 265.590577 
L 1058.165526 263.87996 
L 1058.443778 258.280186 
L 1058.7211 257.428485 
L 1058.7211 257.428485 
" style="fill:none;stroke:#55a868;stroke-linecap:round;stroke-width:1.2;"/>
   </g>
   <g id="line2d_107">
    <path clip-path="url(#p7b30f5c3cf)" d="M 445.009043 294.549779 
L 616.185067 294.346459 
L 661.854065 293.754667 
L 690.356724 293.170884 
L 711.318617 292.52996 
L 727.95697 291.661511 
L 741.7718 290.630872 
L 753.591395 289.441347 
L 763.923676 288.096003 
L 773.103398 286.600421 
L 781.363188 284.957993 
L 788.871412 283.165962 
L 795.753928 281.200217 
L 802.107325 278.56336 
L 808.00737 275.250944 
L 813.514607 274.242769 
L 818.678184 273.708474 
L 823.538553 268.248006 
L 832.479109 261.941947 
L 836.611766 289.263207 
L 840.548036 286.646523 
L 844.305758 251.858822 
L 847.900443 247.91281 
L 851.345665 248.108182 
L 857.834117 241.075302 
L 860.897305 237.184596 
L 866.703677 229.425016 
L 869.461148 225.199599 
L 872.129847 220.548671 
L 874.715312 214.390903 
L 877.222582 205.774873 
L 879.65625 199.598372 
L 882.020516 196.096004 
L 884.319231 195.073965 
L 886.555932 198.09095 
L 888.73388 202.707365 
L 890.856082 191.385936 
L 892.925323 214.18053 
L 894.944182 237.798462 
L 896.915055 245.116553 
L 898.840171 185.205619 
L 900.721608 162.696634 
L 906.122603 149.15279 
L 907.847497 143.58297 
L 909.537242 137.007229 
L 911.193245 132.076592 
L 912.816826 125.70138 
L 914.409231 118.790045 
L 915.971634 110.091298 
L 919.010815 88.14764 
L 920.489636 80.77858 
L 921.942548 77.409402 
L 923.370445 77.017154 
L 924.774172 77.863864 
L 926.154536 85.594632 
L 927.5123 95.114967 
L 928.848194 95.563034 
L 930.16291 88.758898 
L 931.457111 51.927999 
L 932.731425 68.811056 
L 933.986456 67.173311 
L 935.222777 66.026491 
L 936.44094 65.712066 
L 937.64147 64.511653 
L 938.824869 63.084785 
L 939.991621 62.035304 
L 942.277008 61.094042 
L 943.396512 59.484222 
L 945.591183 53.69368 
L 947.729274 49.801644 
L 948.777999 48.454007 
L 949.81363 47.871981 
L 950.836488 46.163585 
L 951.846885 46.07839 
L 952.845122 44.884013 
L 953.831487 34.186648 
L 954.806259 46.896658 
L 955.769709 46.117107 
L 956.722095 46.036194 
L 957.663669 46.355275 
L 958.594674 45.917513 
L 959.515344 47.036811 
L 960.425907 46.3618 
L 961.326582 45.342988 
L 962.217581 46.319432 
L 963.099111 45.495214 
L 964.834551 43.200308 
L 965.688841 42.305668 
L 966.534422 41.785555 
L 967.371469 39.899007 
L 968.200153 39.292089 
L 969.020639 39.263575 
L 969.833089 38.72179 
L 970.637657 38.416362 
L 971.434496 38.36471 
L 972.223752 39.197322 
L 973.005569 37.842125 
L 973.780085 38.785687 
L 974.547435 37.860636 
L 975.307752 37.802977 
L 976.061162 39.152137 
L 976.80779 38.034821 
L 977.547757 38.614203 
L 978.281181 40.159566 
L 979.008176 46.265682 
L 979.728855 44.744348 
L 980.443325 48.392094 
L 981.151694 49.001743 
L 981.854064 44.41492 
L 982.550537 44.119523 
L 983.241209 43.389842 
L 983.926178 44.69011 
L 984.605537 44.208887 
L 985.279377 44.436247 
L 985.947786 44.951129 
L 986.610852 46.620146 
L 987.268659 45.9775 
L 987.92129 45.631314 
L 989.211347 49.78871 
L 989.848928 49.939325 
L 990.481645 49.457671 
L 991.109573 49.992041 
L 991.732782 50.276802 
L 992.351344 53.350455 
L 992.965327 52.9308 
L 993.574799 52.720829 
L 994.179824 52.782024 
L 995.376795 56.342232 
L 995.968864 55.46662 
L 996.556737 55.922822 
L 997.140473 57.026743 
L 997.720129 57.193426 
L 998.295763 56.901953 
L 998.867429 58.11576 
L 999.435182 58.54319 
L 999.999075 58.147134 
L 1001.115489 59.48448 
L 1001.668111 59.56193 
L 1002.217076 70.403702 
L 1002.762431 68.876117 
L 1003.304225 63.915614 
L 1003.842502 65.165121 
L 1004.377308 65.349166 
L 1004.908688 65.01932 
L 1005.436686 66.903195 
L 1005.961343 66.617269 
L 1006.482703 70.463718 
L 1007.000806 70.271568 
L 1007.515694 71.740402 
L 1008.027404 75.271392 
L 1008.535977 74.161607 
L 1009.041451 71.490794 
L 1010.04325 76.771872 
L 1010.539649 76.510005 
L 1011.033094 78.194069 
L 1011.523621 83.906414 
L 1012.011264 83.18445 
L 1012.496058 80.1279 
L 1012.978034 82.902779 
L 1013.457225 84.694358 
L 1014.407382 89.533707 
L 1014.87841 93.227399 
L 1015.346778 94.481332 
L 1015.812517 98.322952 
L 1016.275654 98.391462 
L 1016.73622 97.875991 
L 1017.194243 100.729958 
L 1017.649751 101.858225 
L 1018.10277 103.782685 
L 1018.553329 109.675366 
L 1019.44717 108.358629 
L 1019.890504 109.558107 
L 1020.331482 109.904107 
L 1020.770127 119.154296 
L 1021.206464 119.701931 
L 1021.640519 118.862191 
L 1022.072313 135.152271 
L 1022.501872 132.372434 
L 1022.929217 122.425718 
L 1023.354372 120.494949 
L 1024.1982 125.483246 
L 1024.616916 129.350706 
L 1025.033529 131.332654 
L 1025.44806 131.46039 
L 1025.86053 128.320081 
L 1026.270958 130.756103 
L 1027.085773 138.121398 
L 1027.490198 145.70543 
L 1028.29318 133.010423 
L 1028.691775 133.707222 
L 1029.088464 135.597866 
L 1029.483264 139.968984 
L 1029.876194 141.584898 
L 1030.267271 142.562448 
L 1030.656514 144.731731 
L 1031.043938 145.343478 
L 1031.429561 147.397471 
L 1031.813399 147.19963 
L 1032.195469 148.18142 
L 1032.575788 147.522404 
L 1032.954371 149.99266 
L 1033.331233 154.745562 
L 1033.706391 150.876593 
L 1034.07986 152.136519 
L 1034.451655 162.697583 
L 1034.821791 165.295316 
L 1035.190282 165.278515 
L 1035.557143 170.540004 
L 1035.92239 179.702232 
L 1036.286034 175.986896 
L 1036.648092 181.80968 
L 1037.008576 183.344344 
L 1037.3675 199.827968 
L 1037.724878 206.03549 
L 1038.080722 195.471186 
L 1038.435046 190.60364 
L 1038.787864 188.501387 
L 1039.139186 188.40151 
L 1039.489027 191.019371 
L 1039.837399 191.005078 
L 1040.184314 188.381304 
L 1040.529784 190.027247 
L 1040.87382 192.225906 
L 1041.216436 189.165784 
L 1041.897451 198.82901 
L 1042.235873 203.031864 
L 1042.57292 205.282383 
L 1043.242933 198.460462 
L 1043.575921 200.124995 
L 1043.907577 207.129617 
L 1044.237912 238.303905 
L 1044.566937 238.371891 
L 1044.894662 247.642413 
L 1045.221098 243.748821 
L 1045.546253 227.542938 
L 1045.870139 232.122791 
L 1046.192765 243.324715 
L 1046.514141 247.082598 
L 1046.834277 247.27455 
L 1047.153182 254.58811 
L 1047.470865 249.136099 
L 1048.102605 232.292973 
L 1048.41668 230.895287 
L 1048.72957 235.497416 
L 1049.041284 246.987482 
L 1049.351831 249.956642 
L 1049.66122 242.21752 
L 1049.969459 239.72219 
L 1050.276557 239.65327 
L 1050.582522 238.159908 
L 1050.887362 234.290859 
L 1051.493703 246.98943 
L 1051.795219 245.906545 
L 1052.095643 247.932032 
L 1052.394983 245.034487 
L 1052.693246 255.802773 
L 1052.990441 262.397481 
L 1053.581655 242.833651 
L 1053.87569 245.017535 
L 1054.168685 249.491224 
L 1054.460649 248.050713 
L 1054.75159 250.124751 
L 1055.041513 247.114245 
L 1055.330426 250.365661 
L 1055.618337 251.50997 
L 1055.905252 253.507037 
L 1056.191177 258.055642 
L 1056.476121 259.234012 
L 1056.760088 261.512488 
L 1057.043087 258.763413 
L 1057.325124 259.424448 
L 1057.886337 265.590577 
L 1058.165526 263.87996 
L 1058.443778 258.280186 
L 1058.7211 257.428485 
L 1058.7211 257.428485 
" style="fill:none;stroke:#c44e52;stroke-linecap:round;stroke-width:1.2;"/>
   </g>
   <g id="patch_13">
    <path d="M 776.71475 307.57825 
L 776.71475 21.168 
" style="fill:none;stroke:#262626;stroke-linecap:square;stroke-linejoin:miter;stroke-width:1.25;"/>
   </g>
   <g id="patch_14">
    <path d="M 1058.832 307.57825 
L 1058.832 21.168 
" style="fill:none;stroke:#262626;stroke-linecap:square;stroke-linejoin:miter;stroke-width:1.25;"/>
   </g>
   <g id="patch_15">
    <path d="M 776.71475 307.57825 
L 1058.832 307.57825 
" style="fill:none;stroke:#262626;stroke-linecap:square;stroke-linejoin:miter;stroke-width:1.25;"/>
   </g>
   <g id="patch_16">
    <path d="M 776.71475 21.168 
L 1058.832 21.168 
" style="fill:none;stroke:#262626;stroke-linecap:square;stroke-linejoin:miter;stroke-width:1.25;"/>
   </g>
  </g>
 </g>
 <defs>
  <clipPath id="pb3db7d256f">
   <rect height="286.41025" width="282.11725" x="65.62925" y="21.168"/>
  </clipPath>
  <clipPath id="p7a8051fa9d">
   <rect height="286.41025" width="282.11725" x="421.172" y="21.168"/>
  </clipPath>
  <clipPath id="p7b30f5c3cf">
   <rect height="286.41025" width="282.11725" x="776.71475" y="21.168"/>
  </clipPath>
 </defs>
</svg>
