<?xml version="1.0" encoding="utf-8" standalone="no"?>
<!DOCTYPE svg PUBLIC "-//W3C//DTD SVG 1.1//EN"
  "http://www.w3.org/Graphics/SVG/1.1/DTD/svg11.dtd">
<!-- Created with matplotlib (http://matplotlib.org/) -->
<svg height="288pt" version="1.1" viewBox="0 0 504 288" width="504pt" xmlns="http://www.w3.org/2000/svg" xmlns:xlink="http://www.w3.org/1999/xlink">
 <defs>
  <style type="text/css">
*{stroke-linecap:butt;stroke-linejoin:round;}
  </style>
 </defs>
 <g id="figure_1">
  <g id="patch_1">
   <path d="M 0 288 
L 504 288 
L 504 0 
L 0 0 
z
" style="fill:#ffffff;"/>
  </g>
  <g id="axes_1">
   <g id="patch_2">
    <path d="M 85.68 244.8 
L 488.88 244.8 
L 488.88 14.4 
L 85.68 14.4 
z
" style="fill:#ffffff;"/>
   </g>
   <g id="matplotlib.axis_1">
    <g id="xtick_1">
     <g id="line2d_1">
      <path clip-path="url(#p0eca595e58)" d="M 85.68 244.8 
L 85.68 14.4 
" style="fill:none;stroke:#cccccc;stroke-linecap:round;"/>
     </g>
     <g id="line2d_2"/>
     <g id="text_1">
      <!-- -180 -->
      <defs>
       <path d="M 3.171875 21.484375 
L 3.171875 30.328125 
L 30.171875 30.328125 
L 30.171875 21.484375 
z
" id="ArialMT-2d"/>
       <path d="M 37.25 0 
L 28.46875 0 
L 28.46875 56 
Q 25.296875 52.984375 20.140625 49.953125 
Q 14.984375 46.921875 10.890625 45.40625 
L 10.890625 53.90625 
Q 18.265625 57.375 23.78125 62.296875 
Q 29.296875 67.234375 31.59375 71.875 
L 37.25 71.875 
z
" id="ArialMT-31"/>
       <path d="M 17.671875 38.8125 
Q 12.203125 40.828125 9.5625 44.53125 
Q 6.9375 48.25 6.9375 53.421875 
Q 6.9375 61.234375 12.546875 66.546875 
Q 18.171875 71.875 27.484375 71.875 
Q 36.859375 71.875 42.578125 66.421875 
Q 48.296875 60.984375 48.296875 53.171875 
Q 48.296875 48.1875 45.671875 44.5 
Q 43.0625 40.828125 37.75 38.8125 
Q 44.34375 36.671875 47.78125 31.875 
Q 51.21875 27.09375 51.21875 20.453125 
Q 51.21875 11.28125 44.71875 5.03125 
Q 38.234375 -1.21875 27.640625 -1.21875 
Q 17.046875 -1.21875 10.546875 5.046875 
Q 4.046875 11.328125 4.046875 20.703125 
Q 4.046875 27.6875 7.59375 32.390625 
Q 11.140625 37.109375 17.671875 38.8125 
M 15.921875 53.71875 
Q 15.921875 48.640625 19.1875 45.40625 
Q 22.46875 42.1875 27.6875 42.1875 
Q 32.765625 42.1875 36.015625 45.375 
Q 39.265625 48.578125 39.265625 53.21875 
Q 39.265625 58.0625 35.90625 61.359375 
Q 32.5625 64.65625 27.59375 64.65625 
Q 22.5625 64.65625 19.234375 61.421875 
Q 15.921875 58.203125 15.921875 53.71875 
M 13.09375 20.65625 
Q 13.09375 16.890625 14.875 13.375 
Q 16.65625 9.859375 20.171875 7.921875 
Q 23.6875 6 27.734375 6 
Q 34.03125 6 38.125 10.046875 
Q 42.234375 14.109375 42.234375 20.359375 
Q 42.234375 26.703125 38.015625 30.859375 
Q 33.796875 35.015625 27.4375 35.015625 
Q 21.234375 35.015625 17.15625 30.90625 
Q 13.09375 26.8125 13.09375 20.65625 
" id="ArialMT-38"/>
       <path d="M 4.15625 35.296875 
Q 4.15625 48 6.765625 55.734375 
Q 9.375 63.484375 14.515625 67.671875 
Q 19.671875 71.875 27.484375 71.875 
Q 33.25 71.875 37.59375 69.546875 
Q 41.9375 67.234375 44.765625 62.859375 
Q 47.609375 58.5 49.21875 52.21875 
Q 50.828125 45.953125 50.828125 35.296875 
Q 50.828125 22.703125 48.234375 14.96875 
Q 45.65625 7.234375 40.5 3 
Q 35.359375 -1.21875 27.484375 -1.21875 
Q 17.140625 -1.21875 11.234375 6.203125 
Q 4.15625 15.140625 4.15625 35.296875 
M 13.1875 35.296875 
Q 13.1875 17.671875 17.3125 11.828125 
Q 21.4375 6 27.484375 6 
Q 33.546875 6 37.671875 11.859375 
Q 41.796875 17.71875 41.796875 35.296875 
Q 41.796875 52.984375 37.671875 58.78125 
Q 33.546875 64.59375 27.390625 64.59375 
Q 21.34375 64.59375 17.71875 59.46875 
Q 13.1875 52.9375 13.1875 35.296875 
" id="ArialMT-30"/>
      </defs>
      <g style="fill:#262626;" transform="translate(70.670625 262.536719)scale(0.15 -0.15)">
       <use xlink:href="#ArialMT-2d"/>
       <use x="33.300781" xlink:href="#ArialMT-31"/>
       <use x="88.916016" xlink:href="#ArialMT-38"/>
       <use x="144.53125" xlink:href="#ArialMT-30"/>
      </g>
     </g>
    </g>
    <g id="xtick_2">
     <g id="line2d_3">
      <path clip-path="url(#p0eca595e58)" d="M 186.48 244.8 
L 186.48 14.4 
" style="fill:none;stroke:#cccccc;stroke-linecap:round;"/>
     </g>
     <g id="line2d_4"/>
     <g id="text_2">
      <!-- 90 -->
      <defs>
       <path d="M 5.46875 16.546875 
L 13.921875 17.328125 
Q 14.984375 11.375 18.015625 8.6875 
Q 21.046875 6 25.78125 6 
Q 29.828125 6 32.875 7.859375 
Q 35.9375 9.71875 37.890625 12.8125 
Q 39.84375 15.921875 41.15625 21.1875 
Q 42.484375 26.46875 42.484375 31.9375 
Q 42.484375 32.515625 42.4375 33.6875 
Q 39.796875 29.5 35.234375 26.875 
Q 30.671875 24.265625 25.34375 24.265625 
Q 16.453125 24.265625 10.296875 30.703125 
Q 4.15625 37.15625 4.15625 47.703125 
Q 4.15625 58.59375 10.578125 65.234375 
Q 17 71.875 26.65625 71.875 
Q 33.640625 71.875 39.421875 68.109375 
Q 45.21875 64.359375 48.21875 57.390625 
Q 51.21875 50.4375 51.21875 37.25 
Q 51.21875 23.53125 48.234375 15.40625 
Q 45.265625 7.28125 39.375 3.03125 
Q 33.5 -1.21875 25.59375 -1.21875 
Q 17.1875 -1.21875 11.859375 3.4375 
Q 6.546875 8.109375 5.46875 16.546875 
M 41.453125 48.140625 
Q 41.453125 55.71875 37.421875 60.15625 
Q 33.40625 64.59375 27.734375 64.59375 
Q 21.875 64.59375 17.53125 59.8125 
Q 13.1875 55.03125 13.1875 47.40625 
Q 13.1875 40.578125 17.3125 36.296875 
Q 21.4375 32.03125 27.484375 32.03125 
Q 33.59375 32.03125 37.515625 36.296875 
Q 41.453125 40.578125 41.453125 48.140625 
" id="ArialMT-39"/>
      </defs>
      <g style="fill:#262626;" transform="translate(178.138594 262.536719)scale(0.15 -0.15)">
       <use xlink:href="#ArialMT-39"/>
       <use x="55.615234" xlink:href="#ArialMT-30"/>
      </g>
     </g>
    </g>
    <g id="xtick_3">
     <g id="line2d_5">
      <path clip-path="url(#p0eca595e58)" d="M 287.28 244.8 
L 287.28 14.4 
" style="fill:none;stroke:#cccccc;stroke-linecap:round;"/>
     </g>
     <g id="line2d_6"/>
     <g id="text_3">
      <!-- 0 -->
      <g style="fill:#262626;" transform="translate(283.109297 262.536719)scale(0.15 -0.15)">
       <use xlink:href="#ArialMT-30"/>
      </g>
     </g>
    </g>
    <g id="xtick_4">
     <g id="line2d_7">
      <path clip-path="url(#p0eca595e58)" d="M 388.08 244.8 
L 388.08 14.4 
" style="fill:none;stroke:#cccccc;stroke-linecap:round;"/>
     </g>
     <g id="line2d_8"/>
     <g id="text_4">
      <!-- 90 -->
      <g style="fill:#262626;" transform="translate(379.738594 262.536719)scale(0.15 -0.15)">
       <use xlink:href="#ArialMT-39"/>
       <use x="55.615234" xlink:href="#ArialMT-30"/>
      </g>
     </g>
    </g>
    <g id="xtick_5">
     <g id="line2d_9">
      <path clip-path="url(#p0eca595e58)" d="M 488.88 244.8 
L 488.88 14.4 
" style="fill:none;stroke:#cccccc;stroke-linecap:round;"/>
     </g>
     <g id="line2d_10"/>
     <g id="text_5">
      <!-- 180 -->
      <g style="fill:#262626;" transform="translate(476.367891 262.536719)scale(0.15 -0.15)">
       <use xlink:href="#ArialMT-31"/>
       <use x="55.615234" xlink:href="#ArialMT-38"/>
       <use x="111.230469" xlink:href="#ArialMT-30"/>
      </g>
     </g>
    </g>
    <g id="text_6">
     <!-- Phase -->
     <defs>
      <path d="M 7.71875 0 
L 7.71875 71.578125 
L 34.71875 71.578125 
Q 41.84375 71.578125 45.609375 70.90625 
Q 50.875 70.015625 54.4375 67.546875 
Q 58.015625 65.09375 60.1875 60.640625 
Q 62.359375 56.203125 62.359375 50.875 
Q 62.359375 41.75 56.546875 35.421875 
Q 50.734375 29.109375 35.546875 29.109375 
L 17.1875 29.109375 
L 17.1875 0 
z
M 17.1875 37.546875 
L 35.6875 37.546875 
Q 44.875 37.546875 48.734375 40.96875 
Q 52.59375 44.390625 52.59375 50.59375 
Q 52.59375 55.078125 50.3125 58.265625 
Q 48.046875 61.46875 44.34375 62.5 
Q 41.9375 63.140625 35.5 63.140625 
L 17.1875 63.140625 
z
" id="ArialMT-50"/>
      <path d="M 6.59375 0 
L 6.59375 71.578125 
L 15.375 71.578125 
L 15.375 45.90625 
Q 21.53125 53.03125 30.90625 53.03125 
Q 36.671875 53.03125 40.921875 50.75 
Q 45.171875 48.484375 47 44.484375 
Q 48.828125 40.484375 48.828125 32.859375 
L 48.828125 0 
L 40.046875 0 
L 40.046875 32.859375 
Q 40.046875 39.453125 37.1875 42.453125 
Q 34.328125 45.453125 29.109375 45.453125 
Q 25.203125 45.453125 21.75 43.421875 
Q 18.3125 41.40625 16.84375 37.9375 
Q 15.375 34.46875 15.375 28.375 
L 15.375 0 
z
" id="ArialMT-68"/>
      <path d="M 40.4375 6.390625 
Q 35.546875 2.25 31.03125 0.53125 
Q 26.515625 -1.171875 21.34375 -1.171875 
Q 12.796875 -1.171875 8.203125 3 
Q 3.609375 7.171875 3.609375 13.671875 
Q 3.609375 17.484375 5.34375 20.625 
Q 7.078125 23.78125 9.890625 25.6875 
Q 12.703125 27.59375 16.21875 28.5625 
Q 18.796875 29.25 24.03125 29.890625 
Q 34.671875 31.15625 39.703125 32.90625 
Q 39.75 34.71875 39.75 35.203125 
Q 39.75 40.578125 37.25 42.78125 
Q 33.890625 45.75 27.25 45.75 
Q 21.046875 45.75 18.09375 43.578125 
Q 15.140625 41.40625 13.71875 35.890625 
L 5.125 37.0625 
Q 6.296875 42.578125 8.984375 45.96875 
Q 11.671875 49.359375 16.75 51.1875 
Q 21.828125 53.03125 28.515625 53.03125 
Q 35.15625 53.03125 39.296875 51.46875 
Q 43.453125 49.90625 45.40625 47.53125 
Q 47.359375 45.171875 48.140625 41.546875 
Q 48.578125 39.3125 48.578125 33.453125 
L 48.578125 21.734375 
Q 48.578125 9.46875 49.140625 6.21875 
Q 49.703125 2.984375 51.375 0 
L 42.1875 0 
Q 40.828125 2.734375 40.4375 6.390625 
M 39.703125 26.03125 
Q 34.90625 24.078125 25.34375 22.703125 
Q 19.921875 21.921875 17.671875 20.9375 
Q 15.4375 19.96875 14.203125 18.09375 
Q 12.984375 16.21875 12.984375 13.921875 
Q 12.984375 10.40625 15.640625 8.0625 
Q 18.3125 5.71875 23.4375 5.71875 
Q 28.515625 5.71875 32.46875 7.9375 
Q 36.421875 10.15625 38.28125 14.015625 
Q 39.703125 17 39.703125 22.796875 
z
" id="ArialMT-61"/>
      <path d="M 3.078125 15.484375 
L 11.765625 16.84375 
Q 12.5 11.625 15.84375 8.84375 
Q 19.1875 6.0625 25.203125 6.0625 
Q 31.25 6.0625 34.171875 8.515625 
Q 37.109375 10.984375 37.109375 14.3125 
Q 37.109375 17.28125 34.515625 19 
Q 32.71875 20.171875 25.53125 21.96875 
Q 15.875 24.421875 12.140625 26.203125 
Q 8.40625 27.984375 6.46875 31.125 
Q 4.546875 34.28125 4.546875 38.09375 
Q 4.546875 41.546875 6.125 44.5 
Q 7.71875 47.46875 10.453125 49.421875 
Q 12.5 50.921875 16.03125 51.96875 
Q 19.578125 53.03125 23.640625 53.03125 
Q 29.734375 53.03125 34.34375 51.265625 
Q 38.96875 49.515625 41.15625 46.5 
Q 43.359375 43.5 44.1875 38.484375 
L 35.59375 37.3125 
Q 35.015625 41.3125 32.203125 43.546875 
Q 29.390625 45.796875 24.265625 45.796875 
Q 18.21875 45.796875 15.625 43.796875 
Q 13.03125 41.796875 13.03125 39.109375 
Q 13.03125 37.40625 14.109375 36.03125 
Q 15.1875 34.625 17.484375 33.6875 
Q 18.796875 33.203125 25.25 31.453125 
Q 34.578125 28.953125 38.25 27.359375 
Q 41.9375 25.78125 44.03125 22.75 
Q 46.140625 19.734375 46.140625 15.234375 
Q 46.140625 10.84375 43.578125 6.953125 
Q 41.015625 3.078125 36.171875 0.953125 
Q 31.34375 -1.171875 25.25 -1.171875 
Q 15.140625 -1.171875 9.84375 3.03125 
Q 4.546875 7.234375 3.078125 15.484375 
" id="ArialMT-73"/>
      <path d="M 42.09375 16.703125 
L 51.171875 15.578125 
Q 49.03125 7.625 43.21875 3.21875 
Q 37.40625 -1.171875 28.375 -1.171875 
Q 17 -1.171875 10.328125 5.828125 
Q 3.65625 12.84375 3.65625 25.484375 
Q 3.65625 38.578125 10.390625 45.796875 
Q 17.140625 53.03125 27.875 53.03125 
Q 38.28125 53.03125 44.875 45.953125 
Q 51.46875 38.875 51.46875 26.03125 
Q 51.46875 25.25 51.421875 23.6875 
L 12.75 23.6875 
Q 13.234375 15.140625 17.578125 10.59375 
Q 21.921875 6.0625 28.421875 6.0625 
Q 33.25 6.0625 36.671875 8.59375 
Q 40.09375 11.140625 42.09375 16.703125 
M 13.234375 30.90625 
L 42.1875 30.90625 
Q 41.609375 37.453125 38.875 40.71875 
Q 34.671875 45.796875 27.984375 45.796875 
Q 21.921875 45.796875 17.796875 41.75 
Q 13.671875 37.703125 13.234375 30.90625 
" id="ArialMT-65"/>
     </defs>
     <g style="fill:#262626;" transform="translate(263.888672 281.328359)scale(0.165 -0.165)">
      <use xlink:href="#ArialMT-50"/>
      <use x="66.699219" xlink:href="#ArialMT-68"/>
      <use x="122.314453" xlink:href="#ArialMT-61"/>
      <use x="177.929688" xlink:href="#ArialMT-73"/>
      <use x="227.929688" xlink:href="#ArialMT-65"/>
     </g>
    </g>
   </g>
   <g id="matplotlib.axis_2">
    <g id="ytick_1">
     <g id="line2d_11">
      <path clip-path="url(#p0eca595e58)" d="M 85.68 224.127288 
L 488.88 224.127288 
" style="fill:none;stroke:#cccccc;stroke-linecap:round;"/>
     </g>
     <g id="line2d_12"/>
     <g id="text_7">
      <!-- 5000 -->
      <defs>
       <path d="M 4.15625 18.75 
L 13.375 19.53125 
Q 14.40625 12.796875 18.140625 9.390625 
Q 21.875 6 27.15625 6 
Q 33.5 6 37.890625 10.78125 
Q 42.28125 15.578125 42.28125 23.484375 
Q 42.28125 31 38.0625 35.34375 
Q 33.84375 39.703125 27 39.703125 
Q 22.75 39.703125 19.328125 37.765625 
Q 15.921875 35.84375 13.96875 32.765625 
L 5.71875 33.84375 
L 12.640625 70.609375 
L 48.25 70.609375 
L 48.25 62.203125 
L 19.671875 62.203125 
L 15.828125 42.96875 
Q 22.265625 47.46875 29.34375 47.46875 
Q 38.71875 47.46875 45.15625 40.96875 
Q 51.609375 34.46875 51.609375 24.265625 
Q 51.609375 14.546875 45.953125 7.46875 
Q 39.0625 -1.21875 27.15625 -1.21875 
Q 17.390625 -1.21875 11.203125 4.25 
Q 5.03125 9.71875 4.15625 18.75 
" id="ArialMT-35"/>
      </defs>
      <g style="fill:#262626;" transform="translate(45.314375 229.495647)scale(0.15 -0.15)">
       <use xlink:href="#ArialMT-35"/>
       <use x="55.615234" xlink:href="#ArialMT-30"/>
       <use x="111.230469" xlink:href="#ArialMT-30"/>
       <use x="166.845703" xlink:href="#ArialMT-30"/>
      </g>
     </g>
    </g>
    <g id="ytick_2">
     <g id="line2d_13">
      <path clip-path="url(#p0eca595e58)" d="M 85.68 175.930131 
L 488.88 175.930131 
" style="fill:none;stroke:#cccccc;stroke-linecap:round;"/>
     </g>
     <g id="line2d_14"/>
     <g id="text_8">
      <!-- 10000 -->
      <g style="fill:#262626;" transform="translate(36.972969 181.298491)scale(0.15 -0.15)">
       <use xlink:href="#ArialMT-31"/>
       <use x="55.615234" xlink:href="#ArialMT-30"/>
       <use x="111.230469" xlink:href="#ArialMT-30"/>
       <use x="166.845703" xlink:href="#ArialMT-30"/>
       <use x="222.460938" xlink:href="#ArialMT-30"/>
      </g>
     </g>
    </g>
    <g id="ytick_3">
     <g id="line2d_15">
      <path clip-path="url(#p0eca595e58)" d="M 85.68 127.732975 
L 488.88 127.732975 
" style="fill:none;stroke:#cccccc;stroke-linecap:round;"/>
     </g>
     <g id="line2d_16"/>
     <g id="text_9">
      <!-- 15000 -->
      <g style="fill:#262626;" transform="translate(36.972969 133.101334)scale(0.15 -0.15)">
       <use xlink:href="#ArialMT-31"/>
       <use x="55.615234" xlink:href="#ArialMT-35"/>
       <use x="111.230469" xlink:href="#ArialMT-30"/>
       <use x="166.845703" xlink:href="#ArialMT-30"/>
       <use x="222.460938" xlink:href="#ArialMT-30"/>
      </g>
     </g>
    </g>
    <g id="ytick_4">
     <g id="line2d_17">
      <path clip-path="url(#p0eca595e58)" d="M 85.68 79.535819 
L 488.88 79.535819 
" style="fill:none;stroke:#cccccc;stroke-linecap:round;"/>
     </g>
     <g id="line2d_18"/>
     <g id="text_10">
      <!-- 20000 -->
      <defs>
       <path d="M 50.34375 8.453125 
L 50.34375 0 
L 3.03125 0 
Q 2.9375 3.171875 4.046875 6.109375 
Q 5.859375 10.9375 9.828125 15.625 
Q 13.8125 20.3125 21.34375 26.46875 
Q 33.015625 36.03125 37.109375 41.625 
Q 41.21875 47.21875 41.21875 52.203125 
Q 41.21875 57.421875 37.46875 61 
Q 33.734375 64.59375 27.734375 64.59375 
Q 21.390625 64.59375 17.578125 60.78125 
Q 13.765625 56.984375 13.71875 50.25 
L 4.6875 51.171875 
Q 5.609375 61.28125 11.65625 66.578125 
Q 17.71875 71.875 27.9375 71.875 
Q 38.234375 71.875 44.234375 66.15625 
Q 50.25 60.453125 50.25 52 
Q 50.25 47.703125 48.484375 43.546875 
Q 46.734375 39.40625 42.65625 34.8125 
Q 38.578125 30.21875 29.109375 22.21875 
Q 21.1875 15.578125 18.9375 13.203125 
Q 16.703125 10.84375 15.234375 8.453125 
z
" id="ArialMT-32"/>
      </defs>
      <g style="fill:#262626;" transform="translate(36.972969 84.904178)scale(0.15 -0.15)">
       <use xlink:href="#ArialMT-32"/>
       <use x="55.615234" xlink:href="#ArialMT-30"/>
       <use x="111.230469" xlink:href="#ArialMT-30"/>
       <use x="166.845703" xlink:href="#ArialMT-30"/>
       <use x="222.460938" xlink:href="#ArialMT-30"/>
      </g>
     </g>
    </g>
    <g id="ytick_5">
     <g id="line2d_19">
      <path clip-path="url(#p0eca595e58)" d="M 85.68 31.338663 
L 488.88 31.338663 
" style="fill:none;stroke:#cccccc;stroke-linecap:round;"/>
     </g>
     <g id="line2d_20"/>
     <g id="text_11">
      <!-- 25000 -->
      <g style="fill:#262626;" transform="translate(36.972969 36.707022)scale(0.15 -0.15)">
       <use xlink:href="#ArialMT-32"/>
       <use x="55.615234" xlink:href="#ArialMT-35"/>
       <use x="111.230469" xlink:href="#ArialMT-30"/>
       <use x="166.845703" xlink:href="#ArialMT-30"/>
       <use x="222.460938" xlink:href="#ArialMT-30"/>
      </g>
     </g>
    </g>
    <g id="text_12">
     <!-- Flux -->
     <defs>
      <path d="M 8.203125 0 
L 8.203125 71.578125 
L 56.5 71.578125 
L 56.5 63.140625 
L 17.671875 63.140625 
L 17.671875 40.96875 
L 51.265625 40.96875 
L 51.265625 32.515625 
L 17.671875 32.515625 
L 17.671875 0 
z
" id="ArialMT-46"/>
      <path d="M 6.390625 0 
L 6.390625 71.578125 
L 15.1875 71.578125 
L 15.1875 0 
z
" id="ArialMT-6c"/>
      <path d="M 40.578125 0 
L 40.578125 7.625 
Q 34.515625 -1.171875 24.125 -1.171875 
Q 19.53125 -1.171875 15.546875 0.578125 
Q 11.578125 2.34375 9.640625 5 
Q 7.71875 7.671875 6.9375 11.53125 
Q 6.390625 14.109375 6.390625 19.734375 
L 6.390625 51.859375 
L 15.1875 51.859375 
L 15.1875 23.09375 
Q 15.1875 16.21875 15.71875 13.8125 
Q 16.546875 10.359375 19.234375 8.375 
Q 21.921875 6.390625 25.875 6.390625 
Q 29.828125 6.390625 33.296875 8.421875 
Q 36.765625 10.453125 38.203125 13.9375 
Q 39.65625 17.4375 39.65625 24.078125 
L 39.65625 51.859375 
L 48.4375 51.859375 
L 48.4375 0 
z
" id="ArialMT-75"/>
      <path d="M 0.734375 0 
L 19.671875 26.953125 
L 2.15625 51.859375 
L 13.140625 51.859375 
L 21.09375 39.703125 
Q 23.34375 36.234375 24.703125 33.890625 
Q 26.859375 37.109375 28.65625 39.59375 
L 37.40625 51.859375 
L 47.90625 51.859375 
L 29.984375 27.4375 
L 49.265625 0 
L 38.484375 0 
L 27.828125 16.109375 
L 25 20.453125 
L 11.375 0 
z
" id="ArialMT-78"/>
     </defs>
     <g style="fill:#262626;" transform="translate(29.693594 145.184766)rotate(-90)scale(0.165 -0.165)">
      <use xlink:href="#ArialMT-46"/>
      <use x="61.083984" xlink:href="#ArialMT-6c"/>
      <use x="83.300781" xlink:href="#ArialMT-75"/>
      <use x="138.916016" xlink:href="#ArialMT-78"/>
     </g>
    </g>
   </g>
   <g id="line2d_21">
    <path clip-path="url(#p0eca595e58)" d="M 85.68 233.817528 
L 102.48 234.226224 
L 116.48 234.326781 
L 127.68 234.210535 
L 138.88 233.896776 
L 150.08 233.371151 
L 161.28 232.627172 
L 172.48 231.665247 
L 183.68 230.493432 
L 197.68 228.762869 
L 211.68 226.789636 
L 256.48 220.170734 
L 267.68 218.887244 
L 276.08 218.131042 
L 284.48 217.583653 
L 292.88 217.263064 
L 301.28 217.167019 
L 309.68 217.286218 
L 318.08 217.607735 
L 326.48 218.115632 
L 337.68 219.049853 
L 348.88 220.229188 
L 362.88 221.95818 
L 385.28 225.015158 
L 404.88 227.628422 
L 418.88 229.277135 
L 432.88 230.662633 
L 446.88 231.774665 
L 460.88 232.641426 
L 477.68 233.420491 
L 486.08 233.726262 
L 486.08 233.726262 
" style="fill:none;stroke:#4c72b0;stroke-linecap:round;stroke-width:1.5;"/>
   </g>
   <g id="line2d_22">
    <path clip-path="url(#p0eca595e58)" d="M 85.68 227.877086 
L 99.68 228.304923 
L 110.88 228.470792 
L 122.08 228.441134 
L 133.28 228.188048 
L 144.48 227.690384 
L 155.68 226.935487 
L 166.88 225.920194 
L 178.08 224.648767 
L 189.28 223.136815 
L 200.48 221.412617 
L 214.48 219.016402 
L 253.68 212.062598 
L 262.08 210.825638 
L 270.48 209.777517 
L 278.88 208.956497 
L 287.28 208.393306 
L 295.68 208.101665 
L 304.08 208.074084 
L 312.48 208.298238 
L 320.88 208.757381 
L 329.28 209.431519 
L 337.68 210.296962 
L 348.88 211.701585 
L 360.08 213.328192 
L 376.88 216.017482 
L 402.08 220.088791 
L 416.08 222.106928 
L 427.28 223.50509 
L 438.48 224.691934 
L 449.68 225.675915 
L 463.68 226.654415 
L 477.68 227.405102 
L 486.08 227.768597 
L 486.08 227.768597 
" style="fill:none;stroke:#55a868;stroke-linecap:round;stroke-width:1.5;"/>
   </g>
   <g id="line2d_23">
    <path clip-path="url(#p0eca595e58)" d="M 85.68 221.796475 
L 99.68 222.297172 
L 110.88 222.491245 
L 122.08 222.456415 
L 133.28 222.159961 
L 144.48 221.577049 
L 152.88 220.942458 
L 161.28 220.136178 
L 169.68 219.158627 
L 180.88 217.596138 
L 192.08 215.758543 
L 203.28 213.681825 
L 217.28 210.822786 
L 250.88 203.783238 
L 259.28 202.269925 
L 267.68 200.961668 
L 276.08 199.905537 
L 284.48 199.140944 
L 292.88 198.693025 
L 301.28 198.558705 
L 309.68 198.725062 
L 318.08 199.174073 
L 326.48 199.883488 
L 334.88 200.827098 
L 343.28 201.974358 
L 354.48 203.762573 
L 368.48 206.292215 
L 407.68 213.655578 
L 418.88 215.470053 
L 430.08 217.047134 
L 441.28 218.376493 
L 452.48 219.473207 
L 463.68 220.365267 
L 477.68 221.244053 
L 486.08 221.669502 
L 486.08 221.669502 
" style="fill:none;stroke:#c44e52;stroke-linecap:round;stroke-width:1.5;"/>
   </g>
   <g id="line2d_24">
    <path clip-path="url(#p0eca595e58)" d="M 85.68 215.623987 
L 99.68 216.20224 
L 110.88 216.426326 
L 122.08 216.385965 
L 130.48 216.159057 
L 138.88 215.749126 
L 147.28 215.146994 
L 155.68 214.347285 
L 164.08 213.348953 
L 172.48 212.153422 
L 180.88 210.766803 
L 189.28 209.200672 
L 200.48 206.863348 
L 211.68 204.287235 
L 228.48 200.150488 
L 245.28 196.055465 
L 256.48 193.594325 
L 264.88 191.994627 
L 273.28 190.669313 
L 278.88 189.962845 
L 284.48 189.412194 
L 290.08 189.025486 
L 295.68 188.802015 
L 301.28 188.737954 
L 306.88 188.828726 
L 315.28 189.241975 
L 323.68 189.965719 
L 332.08 190.97135 
L 340.48 192.224927 
L 348.88 193.688807 
L 360.08 195.897189 
L 374.08 198.924109 
L 402.08 205.073223 
L 413.28 207.293429 
L 424.48 209.258947 
L 435.68 210.93882 
L 446.88 212.337852 
L 458.08 213.482518 
L 469.28 214.409462 
L 483.28 215.32227 
L 486.08 215.477338 
L 486.08 215.477338 
" style="fill:none;stroke:#8172b2;stroke-linecap:round;stroke-width:1.5;"/>
   </g>
   <g id="line2d_25">
    <path clip-path="url(#p0eca595e58)" d="M 85.68 209.399704 
L 96.88 209.955615 
L 108.08 210.279144 
L 116.48 210.334688 
L 124.88 210.207034 
L 133.28 209.879716 
L 141.68 209.339256 
L 150.08 208.576465 
L 158.48 207.586997 
L 166.88 206.370478 
L 175.28 204.930035 
L 183.68 203.274595 
L 192.08 201.419515 
L 203.28 198.672319 
L 214.48 195.669095 
L 250.88 185.566767 
L 259.28 183.561919 
L 267.68 181.828397 
L 273.28 180.854642 
L 278.88 180.045583 
L 284.48 179.414772 
L 290.08 178.971515 
L 295.68 178.715046 
L 301.28 178.641013 
L 306.88 178.744196 
L 312.48 179.017865 
L 318.08 179.453997 
L 326.48 180.39297 
L 334.88 181.642408 
L 343.28 183.161851 
L 351.68 184.906865 
L 362.88 187.50239 
L 376.88 191.008381 
L 399.28 196.659449 
L 410.48 199.262069 
L 418.88 201.036406 
L 427.28 202.632539 
L 435.68 204.042728 
L 444.08 205.271539 
L 455.28 206.649604 
L 466.48 207.767344 
L 477.68 208.670412 
L 486.08 209.232099 
L 486.08 209.232099 
" style="fill:none;stroke:#ccb974;stroke-linecap:round;stroke-width:1.5;"/>
   </g>
   <g id="line2d_26">
    <path clip-path="url(#p0eca595e58)" d="M 85.68 202.83735 
L 96.88 203.500586 
L 108.08 203.896522 
L 116.48 203.979927 
L 124.88 203.855292 
L 133.28 203.504547 
L 141.68 202.913608 
L 150.08 202.072576 
L 158.48 200.977153 
L 166.88 199.627429 
L 175.28 198.027816 
L 183.68 196.188707 
L 192.08 194.1281 
L 200.48 191.870834 
L 211.68 188.602094 
L 225.68 184.244029 
L 242.48 178.998913 
L 250.88 176.54871 
L 259.28 174.318803 
L 267.68 172.384226 
L 273.28 171.29311 
L 278.88 170.381757 
L 284.48 169.664827 
L 290.08 169.152688 
L 295.68 168.845364 
L 301.28 168.738076 
L 306.88 168.825127 
L 312.48 169.099421 
L 318.08 169.552859 
L 323.68 170.17572 
L 329.28 170.95737 
L 337.68 172.401023 
L 346.08 174.130012 
L 354.48 176.094921 
L 365.68 178.991569 
L 382.48 183.658346 
L 402.08 189.06321 
L 413.28 191.895575 
L 421.68 193.823169 
L 430.08 195.557744 
L 438.48 197.0939 
L 446.88 198.43812 
L 455.28 199.603354 
L 466.48 200.908548 
L 477.68 201.972983 
L 486.08 202.638562 
L 486.08 202.638562 
" style="fill:none;stroke:#64b5cd;stroke-linecap:round;stroke-width:1.5;"/>
   </g>
   <g id="line2d_27">
    <path clip-path="url(#p0eca595e58)" d="M 85.68 195.044905 
L 96.88 195.855203 
L 108.08 196.406048 
L 116.48 196.613853 
L 124.88 196.626116 
L 133.28 196.436453 
L 141.68 196.026268 
L 150.08 195.397526 
L 158.48 194.55018 
L 166.88 193.477704 
L 175.28 192.19996 
L 183.68 190.71727 
L 194.88 188.459428 
L 206.08 185.936062 
L 220.08 182.501838 
L 248.08 175.477627 
L 259.28 172.968218 
L 267.68 171.330488 
L 276.08 169.953038 
L 284.48 168.88258 
L 290.08 168.356108 
L 295.68 167.979469 
L 304.08 167.692834 
L 312.48 167.733364 
L 320.88 168.07879 
L 329.28 168.715459 
L 337.68 169.621423 
L 346.08 170.762046 
L 354.48 172.116044 
L 365.68 174.177948 
L 376.88 176.460601 
L 424.48 186.454952 
L 435.68 188.451595 
L 446.88 190.236682 
L 458.08 191.794801 
L 469.28 193.147191 
L 480.48 194.300774 
L 486.08 194.808081 
L 486.08 194.808081 
" style="fill:none;stroke:#4c72b0;stroke-linecap:round;stroke-width:1.5;"/>
   </g>
   <g id="line2d_28">
    <path clip-path="url(#p0eca595e58)" d="M 85.68 190.352369 
L 99.68 191.236141 
L 110.88 191.756 
L 122.08 192.059744 
L 133.28 192.160776 
L 144.48 192.031111 
L 155.68 191.701919 
L 166.88 191.145648 
L 178.08 190.400075 
L 189.28 189.440824 
L 203.28 188.010292 
L 220.08 185.984047 
L 242.48 182.999171 
L 262.08 180.447768 
L 276.08 178.869389 
L 287.28 177.836074 
L 298.48 177.038842 
L 309.68 176.504856 
L 320.88 176.22565 
L 332.08 176.219081 
L 343.28 176.471749 
L 354.48 176.992237 
L 365.68 177.74157 
L 376.88 178.704905 
L 393.68 180.424541 
L 418.88 183.352178 
L 441.28 185.92727 
L 458.08 187.687166 
L 474.88 189.246091 
L 486.08 190.143481 
L 486.08 190.143481 
" style="fill:none;stroke:#55a868;stroke-linecap:round;stroke-width:1.5;"/>
   </g>
   <g id="line2d_29">
    <path clip-path="url(#p0eca595e58)" d="M 85.68 191.864746 
L 102.48 192.73895 
L 116.48 193.275596 
L 130.48 193.595677 
L 144.48 193.694608 
L 161.28 193.561108 
L 178.08 193.168909 
L 194.88 192.525308 
L 208.88 191.817416 
L 228.48 190.603415 
L 292.88 186.251517 
L 309.68 185.422302 
L 326.48 184.816332 
L 340.48 184.53207 
L 354.48 184.47231 
L 368.48 184.651456 
L 382.48 185.086485 
L 396.48 185.721849 
L 418.88 187.063068 
L 486.08 191.692618 
L 486.08 191.692618 
" style="fill:none;stroke:#c44e52;stroke-linecap:round;stroke-width:1.5;"/>
   </g>
   <g id="line2d_30">
    <path clip-path="url(#p0eca595e58)" d="M 85.68 192.775095 
L 105.28 193.64064 
L 119.28 194.091557 
L 136.08 194.411413 
L 152.88 194.471809 
L 169.68 194.290613 
L 189.28 193.847072 
L 208.88 193.192819 
L 234.08 192.096504 
L 292.88 189.392177 
L 315.28 188.609833 
L 334.88 188.112056 
L 351.68 187.865125 
L 371.28 187.845526 
L 388.08 188.09954 
L 404.88 188.594578 
L 424.48 189.401192 
L 449.68 190.671893 
L 486.08 192.630286 
L 486.08 192.630286 
" style="fill:none;stroke:#8172b2;stroke-linecap:round;stroke-width:1.5;"/>
   </g>
   <g id="line2d_31">
    <path clip-path="url(#p0eca595e58)" d="M 85.68 195.751243 
L 108.08 196.30769 
L 127.68 196.603404 
L 144.48 196.693726 
L 164.08 196.595211 
L 192.08 196.151933 
L 239.68 195.386775 
L 354.48 194.19775 
L 393.68 193.786345 
L 413.28 193.822261 
L 432.88 194.097387 
L 452.48 194.595877 
L 486.08 195.663973 
L 486.08 195.663973 
" style="fill:none;stroke:#ccb974;stroke-linecap:round;stroke-width:1.5;"/>
   </g>
   <g id="line2d_32">
    <path clip-path="url(#p0eca595e58)" d="M 85.68 192.286569 
L 108.08 192.854672 
L 127.68 193.156778 
L 144.48 193.251107 
L 164.08 193.153562 
L 189.28 192.752968 
L 239.68 191.889225 
L 402.08 190.198255 
L 421.68 190.367684 
L 441.28 190.774372 
L 472.08 191.741694 
L 486.08 192.197347 
L 486.08 192.197347 
" style="fill:none;stroke:#64b5cd;stroke-linecap:round;stroke-width:1.5;"/>
   </g>
   <g id="line2d_33">
    <path clip-path="url(#p0eca595e58)" d="M 85.68 179.371558 
L 102.48 180.183062 
L 119.28 180.78794 
L 136.08 181.143264 
L 152.88 181.228769 
L 169.68 181.072121 
L 186.48 180.726367 
L 206.08 180.087802 
L 228.48 179.072875 
L 306.88 175.060329 
L 329.28 174.294841 
L 348.88 173.906597 
L 365.68 173.838807 
L 379.68 174.009701 
L 396.48 174.461054 
L 416.08 175.273395 
L 441.28 176.603637 
L 486.08 179.215627 
L 486.08 179.215627 
" style="fill:none;stroke:#4c72b0;stroke-linecap:round;stroke-width:1.5;"/>
   </g>
   <g id="line2d_34">
    <path clip-path="url(#p0eca595e58)" d="M 85.68 157.966788 
L 94.08 158.911911 
L 102.48 159.609247 
L 110.88 160.012694 
L 116.48 160.092386 
L 122.08 160.00828 
L 127.68 159.752367 
L 133.28 159.315834 
L 138.88 158.688383 
L 144.48 157.866606 
L 150.08 156.847956 
L 155.68 155.630205 
L 161.28 154.209221 
L 166.88 152.586742 
L 172.48 150.766471 
L 178.08 148.751892 
L 183.68 146.545368 
L 189.28 144.15789 
L 197.68 140.267145 
L 206.08 136.036794 
L 214.48 131.525774 
L 225.68 125.230077 
L 242.48 115.750985 
L 250.88 111.302436 
L 256.48 108.54274 
L 262.08 105.998309 
L 267.68 103.708051 
L 273.28 101.705045 
L 278.88 100.023447 
L 284.48 98.691867 
L 290.08 97.728885 
L 295.68 97.131375 
L 301.28 96.893809 
L 306.88 97.008521 
L 312.48 97.463046 
L 318.08 98.239476 
L 323.68 99.322846 
L 329.28 100.696261 
L 334.88 102.33851 
L 340.48 104.223473 
L 346.08 106.32862 
L 351.68 108.629128 
L 360.08 112.384361 
L 368.48 116.412444 
L 382.48 123.458278 
L 396.48 130.497742 
L 404.88 134.535659 
L 413.28 138.318693 
L 421.68 141.78909 
L 427.28 143.906735 
L 432.88 145.86191 
L 441.28 148.498369 
L 449.68 150.796489 
L 458.08 152.780719 
L 466.48 154.491794 
L 474.88 155.961562 
L 483.28 157.224876 
L 486.08 157.605422 
L 486.08 157.605422 
" style="fill:none;stroke:#55a868;stroke-linecap:round;stroke-width:1.5;"/>
   </g>
   <g id="line2d_35">
    <path clip-path="url(#p0eca595e58)" d="M 85.68 152.135638 
L 94.08 153.221861 
L 102.48 154.002696 
L 108.08 154.322415 
L 113.68 154.460719 
L 119.28 154.401671 
L 124.88 154.131598 
L 130.48 153.638224 
L 136.08 152.910257 
L 141.68 151.938876 
L 147.28 150.717099 
L 152.88 149.240284 
L 158.48 147.506791 
L 164.08 145.515855 
L 169.68 143.268318 
L 175.28 140.767877 
L 180.88 138.021275 
L 186.48 135.038539 
L 192.08 131.833243 
L 197.68 128.421662 
L 203.28 124.820173 
L 211.68 119.10756 
L 220.08 113.112738 
L 242.48 96.862476 
L 248.08 93.027252 
L 253.68 89.395135 
L 259.28 86.020694 
L 264.88 82.956153 
L 270.48 80.250509 
L 276.08 77.948273 
L 281.68 76.088001 
L 284.48 75.333567 
L 287.28 74.700364 
L 290.08 74.188896 
L 292.88 73.797645 
L 295.68 73.525381 
L 298.48 73.370831 
L 301.28 73.332493 
L 304.08 73.408637 
L 309.68 73.896098 
L 315.28 74.814236 
L 320.88 76.141181 
L 326.48 77.852709 
L 332.08 79.921465 
L 337.68 82.316658 
L 343.28 85.005696 
L 348.88 87.95374 
L 354.48 91.124413 
L 362.88 96.216238 
L 371.28 101.590675 
L 399.28 119.809298 
L 407.68 124.876961 
L 413.28 128.046638 
L 418.88 131.022138 
L 424.48 133.788649 
L 430.08 136.339016 
L 435.68 138.673323 
L 441.28 140.797367 
L 446.88 142.720746 
L 452.48 144.455536 
L 458.08 146.015522 
L 466.48 148.060548 
L 474.88 149.798078 
L 483.28 151.276396 
L 486.08 151.718102 
L 486.08 151.718102 
" style="fill:none;stroke:#c44e52;stroke-linecap:round;stroke-width:1.5;"/>
   </g>
   <g id="line2d_36">
    <path clip-path="url(#p0eca595e58)" d="M 85.68 147.43889 
L 94.08 148.595853 
L 99.68 149.190602 
L 105.28 149.620624 
L 110.88 149.866615 
L 116.48 149.910489 
L 122.08 149.736389 
L 127.68 149.330676 
L 133.28 148.680529 
L 138.88 147.775052 
L 144.48 146.605963 
L 150.08 145.166635 
L 155.68 143.453818 
L 161.28 141.466508 
L 166.88 139.204105 
L 172.48 136.669076 
L 178.08 133.866806 
L 183.68 130.806129 
L 189.28 127.499482 
L 194.88 123.963042 
L 200.48 120.214357 
L 208.88 114.235611 
L 217.28 107.914293 
L 234.08 94.80421 
L 242.48 88.376134 
L 248.08 84.27425 
L 253.68 80.389372 
L 259.28 76.779923 
L 264.88 73.501804 
L 270.48 70.607452 
L 276.08 68.144494 
L 278.88 67.08796 
L 281.68 66.154174 
L 284.48 65.346913 
L 287.28 64.669301 
L 290.08 64.121885 
L 292.88 63.703057 
L 295.68 63.411515 
L 298.48 63.245909 
L 301.28 63.204639 
L 304.08 63.285863 
L 306.88 63.487442 
L 309.68 63.806969 
L 312.48 64.24174 
L 318.08 65.445577 
L 323.68 67.074269 
L 329.28 69.100457 
L 334.88 71.492812 
L 340.48 74.217281 
L 346.08 77.237958 
L 351.68 80.516328 
L 357.28 84.013236 
L 365.68 89.578469 
L 376.88 97.366445 
L 393.68 109.13864 
L 402.08 114.770979 
L 410.48 120.062221 
L 416.08 123.348588 
L 421.68 126.417675 
L 427.28 129.257871 
L 432.88 131.865571 
L 438.48 134.244258 
L 444.08 136.402549 
L 449.68 138.352244 
L 455.28 140.10738 
L 460.88 141.683454 
L 469.28 143.747884 
L 477.68 145.502074 
L 486.08 146.994125 
L 486.08 146.994125 
" style="fill:none;stroke:#8172b2;stroke-linecap:round;stroke-width:1.5;"/>
   </g>
   <g id="line2d_37">
    <path clip-path="url(#p0eca595e58)" d="M 85.68 142.993223 
L 94.08 144.221 
L 99.68 144.85208 
L 105.28 145.308293 
L 110.88 145.569128 
L 116.48 145.61534 
L 122.08 145.43004 
L 127.68 144.998682 
L 133.28 144.307575 
L 138.88 143.345064 
L 144.48 142.102269 
L 150.08 140.572054 
L 155.68 138.750876 
L 161.28 136.637574 
L 166.88 134.2314 
L 172.48 131.534867 
L 178.08 128.553589 
L 183.68 125.296853 
L 189.28 121.77779 
L 194.88 118.013527 
L 200.48 114.022663 
L 206.08 109.824857 
L 214.48 103.2007 
L 225.68 93.963911 
L 239.68 82.35794 
L 248.08 75.733834 
L 253.68 71.593218 
L 259.28 67.745964 
L 264.88 64.251702 
L 270.48 61.166354 
L 276.08 58.540701 
L 278.88 57.414302 
L 281.68 56.41871 
L 284.48 55.557948 
L 287.28 54.835349 
L 290.08 54.251503 
L 292.88 53.804718 
L 295.68 53.493617 
L 298.48 53.316774 
L 301.28 53.272493 
L 304.08 53.35882 
L 306.88 53.57348 
L 309.68 53.913913 
L 312.48 54.377244 
L 315.28 54.960493 
L 320.88 56.473656 
L 326.48 58.42578 
L 332.08 60.78565 
L 337.68 63.518106 
L 343.28 66.585918 
L 348.88 69.949274 
L 354.48 73.566585 
L 360.08 77.395537 
L 368.48 83.436424 
L 382.48 93.9084 
L 393.68 102.241546 
L 402.08 108.243175 
L 407.68 112.049048 
L 413.28 115.657608 
L 418.88 119.043467 
L 424.48 122.189823 
L 430.08 125.088667 
L 435.68 127.740294 
L 441.28 130.151553 
L 446.88 132.33363 
L 452.48 134.300524 
L 458.08 136.068164 
L 463.68 137.653737 
L 472.08 139.729769 
L 480.48 141.494262 
L 486.08 142.521194 
L 486.08 142.521194 
" style="fill:none;stroke:#ccb974;stroke-linecap:round;stroke-width:1.5;"/>
   </g>
   <g id="line2d_38">
    <path clip-path="url(#p0eca595e58)" d="M 85.68 138.80726 
L 94.08 140.105693 
L 99.68 140.773012 
L 105.28 141.25534 
L 110.88 141.530953 
L 116.48 141.579446 
L 122.08 141.382891 
L 127.68 140.925821 
L 133.28 140.193668 
L 138.88 139.174005 
L 144.48 137.857337 
L 150.08 136.236009 
L 155.68 134.306165 
L 161.28 132.066475 
L 166.88 129.516023 
L 172.48 126.657351 
L 178.08 123.496283 
L 183.68 120.042546 
L 189.28 116.30995 
L 194.88 112.316566 
L 200.48 108.082032 
L 206.08 103.627121 
L 214.48 96.595716 
L 225.68 86.788381 
L 239.68 74.462161 
L 248.08 67.425765 
L 253.68 63.027085 
L 259.28 58.939835 
L 264.88 55.227414 
L 270.48 51.949267 
L 273.28 50.490164 
L 276.08 49.159357 
L 278.88 47.962411 
L 281.68 46.904399 
L 284.48 45.989597 
L 287.28 45.221542 
L 290.08 44.600876 
L 292.88 44.12582 
L 295.68 43.794925 
L 298.48 43.606689 
L 301.28 43.559322 
L 304.08 43.650756 
L 306.88 43.878584 
L 309.68 44.24009 
L 312.48 44.732225 
L 315.28 45.351827 
L 318.08 46.095445 
L 320.88 46.959529 
L 326.48 49.033849 
L 332.08 51.541608 
L 337.68 54.445426 
L 343.28 57.705711 
L 348.88 61.280114 
L 354.48 65.124392 
L 360.08 69.193521 
L 368.48 75.613067 
L 382.48 86.740114 
L 393.68 95.59257 
L 402.08 101.96661 
L 407.68 106.007701 
L 413.28 109.838423 
L 418.88 113.431815 
L 424.48 116.770072 
L 430.08 119.844769 
L 435.68 122.656337 
L 441.28 125.212183 
L 446.88 127.524329 
L 452.48 129.607779 
L 458.08 131.479574 
L 463.68 133.158076 
L 469.28 134.662345 
L 477.68 136.632825 
L 486.08 138.308023 
L 486.08 138.308023 
" style="fill:none;stroke:#64b5cd;stroke-linecap:round;stroke-width:1.5;"/>
   </g>
   <g id="line2d_39">
    <path clip-path="url(#p0eca595e58)" d="M 85.68 134.88773 
L 88.48 135.381585 
L 91.28 135.838935 
L 96.88 136.631045 
L 102.48 137.239757 
L 108.08 137.641872 
L 113.68 137.814909 
L 119.28 137.738529 
L 124.88 137.395193 
L 130.48 136.769079 
L 136.08 135.845553 
L 141.68 134.613081 
L 147.28 133.062422 
L 152.88 131.187275 
L 158.48 128.985148 
L 164.08 126.454603 
L 169.68 123.596203 
L 175.28 120.414131 
L 180.88 116.916451 
L 186.48 113.115441 
L 192.08 109.027958 
L 197.68 104.674381 
L 203.28 100.075225 
L 208.88 95.255685 
L 217.28 87.691898 
L 231.28 74.609023 
L 239.68 66.819055 
L 248.08 59.367766 
L 253.68 54.709345 
L 259.28 50.38051 
L 264.88 46.448459 
L 270.48 42.976186 
L 273.28 41.430603 
L 276.08 40.020865 
L 278.88 38.752864 
L 281.68 37.631973 
L 284.48 36.662722 
L 287.28 35.848856 
L 290.08 35.191067 
L 292.88 34.687491 
L 295.68 34.336613 
L 298.48 34.136854 
L 301.28 34.086331 
L 304.08 34.182862 
L 306.88 34.423907 
L 309.68 34.806598 
L 312.48 35.327709 
L 315.28 35.983894 
L 318.08 36.7715 
L 320.88 37.686769 
L 323.68 38.725704 
L 329.28 41.157476 
L 334.88 44.029176 
L 340.48 47.299856 
L 346.08 50.926308 
L 351.68 54.862157 
L 357.28 59.060239 
L 365.68 65.740724 
L 376.88 75.086991 
L 393.68 89.205298 
L 402.08 95.95392 
L 407.68 100.231459 
L 413.28 104.285378 
L 418.88 108.08713 
L 424.48 111.617912 
L 430.08 114.868891 
L 435.68 117.84065 
L 441.28 120.541181 
L 446.88 122.98337 
L 452.48 125.183248 
L 458.08 127.158994 
L 463.68 128.930172 
L 469.28 130.517059 
L 477.68 132.595175 
L 486.08 134.361425 
L 486.08 134.361425 
" style="fill:none;stroke:#4c72b0;stroke-linecap:round;stroke-width:1.5;"/>
   </g>
   <g id="line2d_40">
    <path clip-path="url(#p0eca595e58)" d="M 85.68 131.239603 
L 88.48 131.758618 
L 91.28 132.239248 
L 96.88 133.071621 
L 102.48 133.711193 
L 108.08 134.133566 
L 113.68 134.315063 
L 119.28 134.234238 
L 124.88 133.87257 
L 130.48 133.21333 
L 136.08 132.241021 
L 141.68 130.943404 
L 147.28 129.310638 
L 152.88 127.335969 
L 158.48 125.016657 
L 164.08 122.351051 
L 169.68 119.339597 
L 175.28 115.98655 
L 180.88 112.300259 
L 186.48 108.293522 
L 192.08 103.98398 
L 197.68 99.393009 
L 203.28 94.542132 
L 208.88 89.457833 
L 217.28 81.476712 
L 231.28 67.66768 
L 239.68 59.443365 
L 245.28 54.142505 
L 250.88 49.077109 
L 256.48 44.322692 
L 262.08 39.952047 
L 267.68 36.034133 
L 270.48 34.265127 
L 273.28 32.632675 
L 276.08 31.143641 
L 278.88 29.804249 
L 281.68 28.620173 
L 284.48 27.596195 
L 287.28 26.73627 
L 290.08 26.041142 
L 292.88 25.508867 
L 295.68 25.137861 
L 298.48 24.926474 
L 301.28 24.872727 
L 304.08 24.97433 
L 306.88 25.228608 
L 309.68 25.632539 
L 312.48 26.182724 
L 315.28 26.875632 
L 318.08 27.707407 
L 320.88 28.674081 
L 323.68 29.771432 
L 326.48 30.995064 
L 332.08 33.801434 
L 337.68 37.051321 
L 343.28 40.70035 
L 348.88 44.701034 
L 354.48 49.003747 
L 360.08 53.55797 
L 368.48 60.742203 
L 382.48 73.191559 
L 393.68 83.09141 
L 402.08 90.215849 
L 407.68 94.730468 
L 413.28 99.008045 
L 418.88 103.018443 
L 424.48 106.741861 
L 430.08 110.169075 
L 435.68 113.300837 
L 441.28 116.145747 
L 446.88 118.71758 
L 452.48 121.033422 
L 458.08 123.112613 
L 463.68 124.975936 
L 469.28 126.644907 
L 474.88 128.140731 
L 483.28 130.101123 
L 486.08 130.686455 
L 486.08 130.686455 
" style="fill:none;stroke:#55a868;stroke-linecap:round;stroke-width:1.5;"/>
   </g>
   <g id="patch_3">
    <path d="M 85.68 244.8 
L 85.68 14.4 
" style="fill:none;stroke:#cccccc;stroke-linecap:square;stroke-linejoin:miter;"/>
   </g>
   <g id="patch_4">
    <path d="M 488.88 244.8 
L 488.88 14.4 
" style="fill:none;stroke:#cccccc;stroke-linecap:square;stroke-linejoin:miter;"/>
   </g>
   <g id="patch_5">
    <path d="M 85.68 244.8 
L 488.88 244.8 
" style="fill:none;stroke:#cccccc;stroke-linecap:square;stroke-linejoin:miter;"/>
   </g>
   <g id="patch_6">
    <path d="M 85.68 14.4 
L 488.88 14.4 
" style="fill:none;stroke:#cccccc;stroke-linecap:square;stroke-linejoin:miter;"/>
   </g>
  </g>
 </g>
 <defs>
  <clipPath id="p0eca595e58">
   <rect height="230.4" width="403.2" x="85.68" y="14.4"/>
  </clipPath>
 </defs>
</svg>
