<?xml version="1.0" encoding="utf-8" standalone="no"?>
<!DOCTYPE svg PUBLIC "-//W3C//DTD SVG 1.1//EN"
  "http://www.w3.org/Graphics/SVG/1.1/DTD/svg11.dtd">
<!-- Created with matplotlib (http://matplotlib.org/) -->
<svg height="360pt" version="1.1" viewBox="0 0 360 360" width="360pt" xmlns="http://www.w3.org/2000/svg" xmlns:xlink="http://www.w3.org/1999/xlink">
 <defs>
  <style type="text/css">
*{stroke-linecap:butt;stroke-linejoin:round;}
  </style>
 </defs>
 <g id="figure_1">
  <g id="patch_1">
   <path d="M 0 360 
L 360 360 
L 360 0 
L 0 0 
z
" style="fill:#ffffff;"/>
  </g>
  <g id="axes_1">
   <g id="patch_2">
    <path d="M 143.470588 320.4 
L 225.529412 320.4 
L 225.529412 43.2 
L 143.470588 43.2 
z
" style="fill:#ffffff;"/>
   </g>
   <g id="matplotlib.axis_1">
    <g id="xtick_1">
     <g id="line2d_1">
      <defs>
       <path d="M 0 0 
L 0 3.5 
" id="m7ccc46a31a" style="stroke:#000000;stroke-width:0.8;"/>
      </defs>
      <g>
       <use style="stroke:#000000;stroke-width:0.8;" x="158.662683" xlink:href="#m7ccc46a31a" y="320.4"/>
      </g>
     </g>
     <g id="text_1">
      <!-- −2500 -->
      <defs>
       <path d="M 10.59375 35.5 
L 73.1875 35.5 
L 73.1875 27.203125 
L 10.59375 27.203125 
z
" id="DejaVuSans-2212"/>
       <path d="M 19.1875 8.296875 
L 53.609375 8.296875 
L 53.609375 0 
L 7.328125 0 
L 7.328125 8.296875 
Q 12.9375 14.109375 22.625 23.890625 
Q 32.328125 33.6875 34.8125 36.53125 
Q 39.546875 41.84375 41.421875 45.53125 
Q 43.3125 49.21875 43.3125 52.78125 
Q 43.3125 58.59375 39.234375 62.25 
Q 35.15625 65.921875 28.609375 65.921875 
Q 23.96875 65.921875 18.8125 64.3125 
Q 13.671875 62.703125 7.8125 59.421875 
L 7.8125 69.390625 
Q 13.765625 71.78125 18.9375 73 
Q 24.125 74.21875 28.421875 74.21875 
Q 39.75 74.21875 46.484375 68.546875 
Q 53.21875 62.890625 53.21875 53.421875 
Q 53.21875 48.921875 51.53125 44.890625 
Q 49.859375 40.875 45.40625 35.40625 
Q 44.1875 33.984375 37.640625 27.21875 
Q 31.109375 20.453125 19.1875 8.296875 
" id="DejaVuSans-32"/>
       <path d="M 10.796875 72.90625 
L 49.515625 72.90625 
L 49.515625 64.59375 
L 19.828125 64.59375 
L 19.828125 46.734375 
Q 21.96875 47.46875 24.109375 47.828125 
Q 26.265625 48.1875 28.421875 48.1875 
Q 40.625 48.1875 47.75 41.5 
Q 54.890625 34.8125 54.890625 23.390625 
Q 54.890625 11.625 47.5625 5.09375 
Q 40.234375 -1.421875 26.90625 -1.421875 
Q 22.3125 -1.421875 17.546875 -0.640625 
Q 12.796875 0.140625 7.71875 1.703125 
L 7.71875 11.625 
Q 12.109375 9.234375 16.796875 8.0625 
Q 21.484375 6.890625 26.703125 6.890625 
Q 35.15625 6.890625 40.078125 11.328125 
Q 45.015625 15.765625 45.015625 23.390625 
Q 45.015625 31 40.078125 35.4375 
Q 35.15625 39.890625 26.703125 39.890625 
Q 22.75 39.890625 18.8125 39.015625 
Q 14.890625 38.140625 10.796875 36.28125 
z
" id="DejaVuSans-35"/>
       <path d="M 31.78125 66.40625 
Q 24.171875 66.40625 20.328125 58.90625 
Q 16.5 51.421875 16.5 36.375 
Q 16.5 21.390625 20.328125 13.890625 
Q 24.171875 6.390625 31.78125 6.390625 
Q 39.453125 6.390625 43.28125 13.890625 
Q 47.125 21.390625 47.125 36.375 
Q 47.125 51.421875 43.28125 58.90625 
Q 39.453125 66.40625 31.78125 66.40625 
M 31.78125 74.21875 
Q 44.046875 74.21875 50.515625 64.515625 
Q 56.984375 54.828125 56.984375 36.375 
Q 56.984375 17.96875 50.515625 8.265625 
Q 44.046875 -1.421875 31.78125 -1.421875 
Q 19.53125 -1.421875 13.0625 8.265625 
Q 6.59375 17.96875 6.59375 36.375 
Q 6.59375 54.828125 13.0625 64.515625 
Q 19.53125 74.21875 31.78125 74.21875 
" id="DejaVuSans-30"/>
      </defs>
      <g transform="translate(141.747839 334.998438)scale(0.1 -0.1)">
       <use xlink:href="#DejaVuSans-2212"/>
       <use x="83.789062" xlink:href="#DejaVuSans-32"/>
       <use x="147.412109" xlink:href="#DejaVuSans-35"/>
       <use x="211.035156" xlink:href="#DejaVuSans-30"/>
       <use x="274.658203" xlink:href="#DejaVuSans-30"/>
      </g>
     </g>
    </g>
    <g id="xtick_2">
     <g id="line2d_2">
      <g>
       <use style="stroke:#000000;stroke-width:0.8;" x="185.042794" xlink:href="#m7ccc46a31a" y="320.4"/>
      </g>
     </g>
     <g id="text_2">
      <!-- 0 -->
      <g transform="translate(181.861544 334.998438)scale(0.1 -0.1)">
       <use xlink:href="#DejaVuSans-30"/>
      </g>
     </g>
    </g>
    <g id="xtick_3">
     <g id="line2d_3">
      <g>
       <use style="stroke:#000000;stroke-width:0.8;" x="211.422905" xlink:href="#m7ccc46a31a" y="320.4"/>
      </g>
     </g>
     <g id="text_3">
      <!-- 2500 -->
      <g transform="translate(198.697905 334.998438)scale(0.1 -0.1)">
       <use xlink:href="#DejaVuSans-32"/>
       <use x="63.623047" xlink:href="#DejaVuSans-35"/>
       <use x="127.246094" xlink:href="#DejaVuSans-30"/>
       <use x="190.869141" xlink:href="#DejaVuSans-30"/>
      </g>
     </g>
    </g>
   </g>
   <g id="matplotlib.axis_2">
    <g id="ytick_1">
     <g id="line2d_4">
      <defs>
       <path d="M 0 0 
L -3.5 0 
" id="m1d5e3ef25c" style="stroke:#000000;stroke-width:0.8;"/>
      </defs>
      <g>
       <use style="stroke:#000000;stroke-width:0.8;" x="143.470588" xlink:href="#m1d5e3ef25c" y="289.477819"/>
      </g>
     </g>
     <g id="text_4">
      <!-- ${10^{-2}}$ -->
      <defs>
       <path d="M 12.40625 8.296875 
L 28.515625 8.296875 
L 28.515625 63.921875 
L 10.984375 60.40625 
L 10.984375 69.390625 
L 28.421875 72.90625 
L 38.28125 72.90625 
L 38.28125 8.296875 
L 54.390625 8.296875 
L 54.390625 0 
L 12.40625 0 
z
" id="DejaVuSans-31"/>
      </defs>
      <g transform="translate(112.970588 293.277038)scale(0.1 -0.1)">
       <use transform="translate(0 0.765625)" xlink:href="#DejaVuSans-31"/>
       <use transform="translate(63.623047 0.765625)" xlink:href="#DejaVuSans-30"/>
       <use transform="translate(128.203125 39.046875)scale(0.7)" xlink:href="#DejaVuSans-2212"/>
       <use transform="translate(186.855469 39.046875)scale(0.7)" xlink:href="#DejaVuSans-32"/>
      </g>
     </g>
    </g>
    <g id="ytick_2">
     <g id="line2d_5">
      <g>
       <use style="stroke:#000000;stroke-width:0.8;" x="143.470588" xlink:href="#m1d5e3ef25c" y="211.52865"/>
      </g>
     </g>
     <g id="text_5">
      <!-- ${10^{-1}}$ -->
      <g transform="translate(112.970588 215.327868)scale(0.1 -0.1)">
       <use transform="translate(0 0.684375)" xlink:href="#DejaVuSans-31"/>
       <use transform="translate(63.623047 0.684375)" xlink:href="#DejaVuSans-30"/>
       <use transform="translate(128.203125 38.965625)scale(0.7)" xlink:href="#DejaVuSans-2212"/>
       <use transform="translate(186.855469 38.965625)scale(0.7)" xlink:href="#DejaVuSans-31"/>
      </g>
     </g>
    </g>
    <g id="ytick_3">
     <g id="line2d_6">
      <g>
       <use style="stroke:#000000;stroke-width:0.8;" x="143.470588" xlink:href="#m1d5e3ef25c" y="133.57948"/>
      </g>
     </g>
     <g id="text_6">
      <!-- ${10^{0}}$ -->
      <g transform="translate(118.870588 137.378699)scale(0.1 -0.1)">
       <use transform="translate(0 0.765625)" xlink:href="#DejaVuSans-31"/>
       <use transform="translate(63.623047 0.765625)" xlink:href="#DejaVuSans-30"/>
       <use transform="translate(128.203125 39.046875)scale(0.7)" xlink:href="#DejaVuSans-30"/>
      </g>
     </g>
    </g>
    <g id="ytick_4">
     <g id="line2d_7">
      <g>
       <use style="stroke:#000000;stroke-width:0.8;" x="143.470588" xlink:href="#m1d5e3ef25c" y="55.630311"/>
      </g>
     </g>
     <g id="text_7">
      <!-- ${10^{1}}$ -->
      <g transform="translate(118.870588 59.42953)scale(0.1 -0.1)">
       <use transform="translate(0 0.684375)" xlink:href="#DejaVuSans-31"/>
       <use transform="translate(63.623047 0.684375)" xlink:href="#DejaVuSans-30"/>
       <use transform="translate(128.203125 38.965625)scale(0.7)" xlink:href="#DejaVuSans-31"/>
      </g>
     </g>
    </g>
    <g id="ytick_5">
     <g id="line2d_8">
      <defs>
       <path d="M 0 0 
L -2 0 
" id="mcb401b4ad0" style="stroke:#000000;stroke-width:0.6;"/>
      </defs>
      <g>
       <use style="stroke:#000000;stroke-width:0.6;" x="143.470588" xlink:href="#mcb401b4ad0" y="320.496912"/>
      </g>
     </g>
    </g>
    <g id="ytick_6">
     <g id="line2d_9">
      <g>
       <use style="stroke:#000000;stroke-width:0.6;" x="143.470588" xlink:href="#mcb401b4ad0" y="312.942857"/>
      </g>
     </g>
    </g>
    <g id="ytick_7">
     <g id="line2d_10">
      <g>
       <use style="stroke:#000000;stroke-width:0.6;" x="143.470588" xlink:href="#mcb401b4ad0" y="306.770745"/>
      </g>
     </g>
    </g>
    <g id="ytick_8">
     <g id="line2d_11">
      <g>
       <use style="stroke:#000000;stroke-width:0.6;" x="143.470588" xlink:href="#mcb401b4ad0" y="301.552298"/>
      </g>
     </g>
    </g>
    <g id="ytick_9">
     <g id="line2d_12">
      <g>
       <use style="stroke:#000000;stroke-width:0.6;" x="143.470588" xlink:href="#mcb401b4ad0" y="297.031874"/>
      </g>
     </g>
    </g>
    <g id="ytick_10">
     <g id="line2d_13">
      <g>
       <use style="stroke:#000000;stroke-width:0.6;" x="143.470588" xlink:href="#mcb401b4ad0" y="293.044577"/>
      </g>
     </g>
    </g>
    <g id="ytick_11">
     <g id="line2d_14">
      <g>
       <use style="stroke:#000000;stroke-width:0.6;" x="143.470588" xlink:href="#mcb401b4ad0" y="266.012781"/>
      </g>
     </g>
    </g>
    <g id="ytick_12">
     <g id="line2d_15">
      <g>
       <use style="stroke:#000000;stroke-width:0.6;" x="143.470588" xlink:href="#mcb401b4ad0" y="252.286614"/>
      </g>
     </g>
    </g>
    <g id="ytick_13">
     <g id="line2d_16">
      <g>
       <use style="stroke:#000000;stroke-width:0.6;" x="143.470588" xlink:href="#mcb401b4ad0" y="242.547743"/>
      </g>
     </g>
    </g>
    <g id="ytick_14">
     <g id="line2d_17">
      <g>
       <use style="stroke:#000000;stroke-width:0.6;" x="143.470588" xlink:href="#mcb401b4ad0" y="234.993688"/>
      </g>
     </g>
    </g>
    <g id="ytick_15">
     <g id="line2d_18">
      <g>
       <use style="stroke:#000000;stroke-width:0.6;" x="143.470588" xlink:href="#mcb401b4ad0" y="228.821575"/>
      </g>
     </g>
    </g>
    <g id="ytick_16">
     <g id="line2d_19">
      <g>
       <use style="stroke:#000000;stroke-width:0.6;" x="143.470588" xlink:href="#mcb401b4ad0" y="223.603129"/>
      </g>
     </g>
    </g>
    <g id="ytick_17">
     <g id="line2d_20">
      <g>
       <use style="stroke:#000000;stroke-width:0.6;" x="143.470588" xlink:href="#mcb401b4ad0" y="219.082705"/>
      </g>
     </g>
    </g>
    <g id="ytick_18">
     <g id="line2d_21">
      <g>
       <use style="stroke:#000000;stroke-width:0.6;" x="143.470588" xlink:href="#mcb401b4ad0" y="215.095408"/>
      </g>
     </g>
    </g>
    <g id="ytick_19">
     <g id="line2d_22">
      <g>
       <use style="stroke:#000000;stroke-width:0.6;" x="143.470588" xlink:href="#mcb401b4ad0" y="188.063612"/>
      </g>
     </g>
    </g>
    <g id="ytick_20">
     <g id="line2d_23">
      <g>
       <use style="stroke:#000000;stroke-width:0.6;" x="143.470588" xlink:href="#mcb401b4ad0" y="174.337444"/>
      </g>
     </g>
    </g>
    <g id="ytick_21">
     <g id="line2d_24">
      <g>
       <use style="stroke:#000000;stroke-width:0.6;" x="143.470588" xlink:href="#mcb401b4ad0" y="164.598573"/>
      </g>
     </g>
    </g>
    <g id="ytick_22">
     <g id="line2d_25">
      <g>
       <use style="stroke:#000000;stroke-width:0.6;" x="143.470588" xlink:href="#mcb401b4ad0" y="157.044518"/>
      </g>
     </g>
    </g>
    <g id="ytick_23">
     <g id="line2d_26">
      <g>
       <use style="stroke:#000000;stroke-width:0.6;" x="143.470588" xlink:href="#mcb401b4ad0" y="150.872406"/>
      </g>
     </g>
    </g>
    <g id="ytick_24">
     <g id="line2d_27">
      <g>
       <use style="stroke:#000000;stroke-width:0.6;" x="143.470588" xlink:href="#mcb401b4ad0" y="145.653959"/>
      </g>
     </g>
    </g>
    <g id="ytick_25">
     <g id="line2d_28">
      <g>
       <use style="stroke:#000000;stroke-width:0.6;" x="143.470588" xlink:href="#mcb401b4ad0" y="141.133535"/>
      </g>
     </g>
    </g>
    <g id="ytick_26">
     <g id="line2d_29">
      <g>
       <use style="stroke:#000000;stroke-width:0.6;" x="143.470588" xlink:href="#mcb401b4ad0" y="137.146239"/>
      </g>
     </g>
    </g>
    <g id="ytick_27">
     <g id="line2d_30">
      <g>
       <use style="stroke:#000000;stroke-width:0.6;" x="143.470588" xlink:href="#mcb401b4ad0" y="110.114442"/>
      </g>
     </g>
    </g>
    <g id="ytick_28">
     <g id="line2d_31">
      <g>
       <use style="stroke:#000000;stroke-width:0.6;" x="143.470588" xlink:href="#mcb401b4ad0" y="96.388275"/>
      </g>
     </g>
    </g>
    <g id="ytick_29">
     <g id="line2d_32">
      <g>
       <use style="stroke:#000000;stroke-width:0.6;" x="143.470588" xlink:href="#mcb401b4ad0" y="86.649404"/>
      </g>
     </g>
    </g>
    <g id="ytick_30">
     <g id="line2d_33">
      <g>
       <use style="stroke:#000000;stroke-width:0.6;" x="143.470588" xlink:href="#mcb401b4ad0" y="79.095349"/>
      </g>
     </g>
    </g>
    <g id="ytick_31">
     <g id="line2d_34">
      <g>
       <use style="stroke:#000000;stroke-width:0.6;" x="143.470588" xlink:href="#mcb401b4ad0" y="72.923237"/>
      </g>
     </g>
    </g>
    <g id="ytick_32">
     <g id="line2d_35">
      <g>
       <use style="stroke:#000000;stroke-width:0.6;" x="143.470588" xlink:href="#mcb401b4ad0" y="67.70479"/>
      </g>
     </g>
    </g>
    <g id="ytick_33">
     <g id="line2d_36">
      <g>
       <use style="stroke:#000000;stroke-width:0.6;" x="143.470588" xlink:href="#mcb401b4ad0" y="63.184366"/>
      </g>
     </g>
    </g>
    <g id="ytick_34">
     <g id="line2d_37">
      <g>
       <use style="stroke:#000000;stroke-width:0.6;" x="143.470588" xlink:href="#mcb401b4ad0" y="59.197069"/>
      </g>
     </g>
    </g>
   </g>
   <g id="line2d_38">
    <path clip-path="url(#pbd95d0af30)" d="M 188.422632 307.8 
L 188.715688 302.657143 
L 189.048305 297.514286 
L 189.428552 292.371429 
L 189.861967 287.228571 
L 190.354106 282.085714 
L 190.913698 276.942857 
L 191.549645 271.8 
L 192.265941 266.657143 
L 193.071237 261.514286 
L 193.975773 256.371429 
L 194.99196 251.228571 
L 196.140393 246.085714 
L 197.449765 240.942857 
L 198.925794 235.8 
L 200.614958 230.657143 
L 202.448758 225.514286 
L 204.549912 220.371429 
L 206.388732 215.228571 
L 208.129933 210.085714 
L 209.649142 204.942857 
L 210.709094 199.8 
L 211.073513 194.657143 
L 210.627988 189.514286 
L 212.487809 184.371429 
L 216.351833 179.228571 
L 212.819521 174.085714 
L 220.898968 168.942857 
L 221.799465 163.8 
L 217.66836 158.657143 
L 212.693489 153.514286 
L 208.103234 148.371429 
L 204.040283 143.228571 
L 200.553385 138.085714 
L 197.637807 132.942857 
L 195.220389 127.8 
L 193.25111 122.657143 
L 191.672801 117.514286 
L 190.463462 112.371429 
L 189.565475 107.228571 
L 188.900937 102.085714 
L 188.39956 96.942857 
L 188.002641 91.8 
L 187.661532 86.657143 
L 187.324059 81.514286 
L 187.002275 76.371429 
L 186.656287 71.228571 
L 186.423747 66.085714 
L 186.100389 60.942857 
L 186.008044 55.8 
" style="fill:none;stroke:#1f77b4;stroke-linecap:square;stroke-width:1.5;"/>
   </g>
   <g id="line2d_39">
    <path clip-path="url(#pbd95d0af30)" d="M 181.587748 307.8 
L 181.291064 302.657143 
L 180.956878 297.514286 
L 180.570719 292.371429 
L 180.129557 287.228571 
L 179.632068 282.085714 
L 179.065229 276.942857 
L 178.414528 271.8 
L 177.687608 266.657143 
L 176.873898 261.514286 
L 175.962649 256.371429 
L 174.948133 251.228571 
L 173.795697 246.085714 
L 172.461771 240.942857 
L 170.970334 235.8 
L 169.205239 230.657143 
L 167.429288 225.514286 
L 165.253638 220.371429 
L 163.485735 215.228571 
L 161.756936 210.085714 
L 159.956359 204.942857 
L 159.086926 199.8 
L 158.794375 194.657143 
L 159.151163 189.514286 
L 157.240146 184.371429 
L 153.554038 179.228571 
L 156.932158 174.085714 
L 147.765904 168.942857 
L 147.200535 163.8 
L 152.026181 158.657143 
L 157.546083 153.514286 
L 162.536641 148.371429 
L 167.025179 143.228571 
L 170.829962 138.085714 
L 173.99231 132.942857 
L 176.736949 127.8 
L 178.460382 122.657143 
L 179.492676 117.514286 
L 180.527037 112.371429 
L 181.193431 107.228571 
L 181.698036 102.085714 
L 181.874857 96.942857 
L 182.139992 91.8 
L 181.984881 86.657143 
L 182.413961 81.514286 
L 182.064117 76.371429 
L 182.98774 71.228571 
L 182.463143 66.085714 
L 183.813187 60.942857 
L 186.975181 55.8 
" style="fill:none;stroke:#ff7f0e;stroke-linecap:square;stroke-width:1.5;"/>
   </g>
   <g id="patch_3">
    <path d="M 143.470588 320.4 
L 143.470588 43.2 
" style="fill:none;stroke:#000000;stroke-linecap:square;stroke-linejoin:miter;stroke-width:0.8;"/>
   </g>
   <g id="patch_4">
    <path d="M 225.529412 320.4 
L 225.529412 43.2 
" style="fill:none;stroke:#000000;stroke-linecap:square;stroke-linejoin:miter;stroke-width:0.8;"/>
   </g>
   <g id="patch_5">
    <path d="M 143.470588 320.4 
L 225.529412 320.4 
" style="fill:none;stroke:#000000;stroke-linecap:square;stroke-linejoin:miter;stroke-width:0.8;"/>
   </g>
   <g id="patch_6">
    <path d="M 143.470588 43.2 
L 225.529412 43.2 
" style="fill:none;stroke:#000000;stroke-linecap:square;stroke-linejoin:miter;stroke-width:0.8;"/>
   </g>
  </g>
 </g>
 <defs>
  <clipPath id="pbd95d0af30">
   <rect height="277.2" width="82.058824" x="143.470588" y="43.2"/>
  </clipPath>
 </defs>
</svg>
