<?xml version="1.0" encoding="utf-8" standalone="no"?>
<!DOCTYPE svg PUBLIC "-//W3C//DTD SVG 1.1//EN"
  "http://www.w3.org/Graphics/SVG/1.1/DTD/svg11.dtd">
<!-- Created with matplotlib (http://matplotlib.org/) -->
<svg height="288pt" version="1.1" viewBox="0 0 1152 288" width="1152pt" xmlns="http://www.w3.org/2000/svg" xmlns:xlink="http://www.w3.org/1999/xlink">
 <defs>
  <style type="text/css">
*{stroke-linecap:butt;stroke-linejoin:round;stroke-miterlimit:100000;}
  </style>
 </defs>
 <g id="figure_1">
  <g id="patch_1">
   <path d="M 0 288 
L 1152 288 
L 1152 0 
L 0 0 
z
" style="fill:#ffffff;"/>
  </g>
  <g id="axes_1">
   <g id="patch_2">
    <path d="M 144 252 
L 406.588235 252 
L 406.588235 28.8 
L 144 28.8 
z
" style="fill:#ffffff;"/>
   </g>
   <g id="matplotlib.axis_1">
    <g id="xtick_1">
     <g id="line2d_1">
      <path clip-path="url(#p6ee3ed3d56)" d="M 144 252 
L 144 28.8 
" style="fill:none;stroke:#cccccc;stroke-linecap:round;"/>
     </g>
     <g id="line2d_2"/>
     <g id="line2d_3"/>
     <g id="text_1">
      <!-- 0 -->
      <defs>
       <path d="M 4.15625 35.296875 
Q 4.15625 48 6.765625 55.734375 
Q 9.375 63.484375 14.515625 67.671875 
Q 19.671875 71.875 27.484375 71.875 
Q 33.25 71.875 37.59375 69.546875 
Q 41.9375 67.234375 44.765625 62.859375 
Q 47.609375 58.5 49.21875 52.21875 
Q 50.828125 45.953125 50.828125 35.296875 
Q 50.828125 22.703125 48.234375 14.96875 
Q 45.65625 7.234375 40.5 3 
Q 35.359375 -1.21875 27.484375 -1.21875 
Q 17.140625 -1.21875 11.234375 6.203125 
Q 4.15625 15.140625 4.15625 35.296875 
M 13.1875 35.296875 
Q 13.1875 17.671875 17.3125 11.828125 
Q 21.4375 6 27.484375 6 
Q 33.546875 6 37.671875 11.859375 
Q 41.796875 17.71875 41.796875 35.296875 
Q 41.796875 52.984375 37.671875 58.78125 
Q 33.546875 64.59375 27.390625 64.59375 
Q 21.34375 64.59375 17.71875 59.46875 
Q 13.1875 52.9375 13.1875 35.296875 
" id="ArialMT-30"/>
      </defs>
      <g style="fill:#262626;" transform="translate(140.6634375 267.589375)scale(0.12 -0.12)">
       <use xlink:href="#ArialMT-30"/>
      </g>
     </g>
    </g>
    <g id="xtick_2">
     <g id="line2d_4">
      <path clip-path="url(#p6ee3ed3d56)" d="M 176.823529 252 
L 176.823529 28.8 
" style="fill:none;stroke:#cccccc;stroke-linecap:round;"/>
     </g>
     <g id="line2d_5"/>
     <g id="line2d_6"/>
     <g id="text_2">
      <!-- 500 -->
      <defs>
       <path d="M 4.15625 18.75 
L 13.375 19.53125 
Q 14.40625 12.796875 18.140625 9.390625 
Q 21.875 6 27.15625 6 
Q 33.5 6 37.890625 10.78125 
Q 42.28125 15.578125 42.28125 23.484375 
Q 42.28125 31 38.0625 35.34375 
Q 33.84375 39.703125 27 39.703125 
Q 22.75 39.703125 19.328125 37.765625 
Q 15.921875 35.84375 13.96875 32.765625 
L 5.71875 33.84375 
L 12.640625 70.609375 
L 48.25 70.609375 
L 48.25 62.203125 
L 19.671875 62.203125 
L 15.828125 42.96875 
Q 22.265625 47.46875 29.34375 47.46875 
Q 38.71875 47.46875 45.15625 40.96875 
Q 51.609375 34.46875 51.609375 24.265625 
Q 51.609375 14.546875 45.953125 7.46875 
Q 39.0625 -1.21875 27.15625 -1.21875 
Q 17.390625 -1.21875 11.203125 4.25 
Q 5.03125 9.71875 4.15625 18.75 
" id="ArialMT-35"/>
      </defs>
      <g style="fill:#262626;" transform="translate(166.813841912 267.589375)scale(0.12 -0.12)">
       <use xlink:href="#ArialMT-35"/>
       <use x="55.615234375" xlink:href="#ArialMT-30"/>
       <use x="111.23046875" xlink:href="#ArialMT-30"/>
      </g>
     </g>
    </g>
    <g id="xtick_3">
     <g id="line2d_7">
      <path clip-path="url(#p6ee3ed3d56)" d="M 209.647059 252 
L 209.647059 28.8 
" style="fill:none;stroke:#cccccc;stroke-linecap:round;"/>
     </g>
     <g id="line2d_8"/>
     <g id="line2d_9"/>
     <g id="text_3">
      <!-- 1000 -->
      <defs>
       <path d="M 37.25 0 
L 28.46875 0 
L 28.46875 56 
Q 25.296875 52.984375 20.140625 49.953125 
Q 14.984375 46.921875 10.890625 45.40625 
L 10.890625 53.90625 
Q 18.265625 57.375 23.78125 62.296875 
Q 29.296875 67.234375 31.59375 71.875 
L 37.25 71.875 
z
" id="ArialMT-31"/>
      </defs>
      <g style="fill:#262626;" transform="translate(196.300808824 267.589375)scale(0.12 -0.12)">
       <use xlink:href="#ArialMT-31"/>
       <use x="55.615234375" xlink:href="#ArialMT-30"/>
       <use x="111.23046875" xlink:href="#ArialMT-30"/>
       <use x="166.845703125" xlink:href="#ArialMT-30"/>
      </g>
     </g>
    </g>
    <g id="xtick_4">
     <g id="line2d_10">
      <path clip-path="url(#p6ee3ed3d56)" d="M 242.470588 252 
L 242.470588 28.8 
" style="fill:none;stroke:#cccccc;stroke-linecap:round;"/>
     </g>
     <g id="line2d_11"/>
     <g id="line2d_12"/>
     <g id="text_4">
      <!-- 1500 -->
      <g style="fill:#262626;" transform="translate(229.124338235 267.589375)scale(0.12 -0.12)">
       <use xlink:href="#ArialMT-31"/>
       <use x="55.615234375" xlink:href="#ArialMT-35"/>
       <use x="111.23046875" xlink:href="#ArialMT-30"/>
       <use x="166.845703125" xlink:href="#ArialMT-30"/>
      </g>
     </g>
    </g>
    <g id="xtick_5">
     <g id="line2d_13">
      <path clip-path="url(#p6ee3ed3d56)" d="M 275.294118 252 
L 275.294118 28.8 
" style="fill:none;stroke:#cccccc;stroke-linecap:round;"/>
     </g>
     <g id="line2d_14"/>
     <g id="line2d_15"/>
     <g id="text_5">
      <!-- 2000 -->
      <defs>
       <path d="M 50.34375 8.453125 
L 50.34375 0 
L 3.03125 0 
Q 2.9375 3.171875 4.046875 6.109375 
Q 5.859375 10.9375 9.828125 15.625 
Q 13.8125 20.3125 21.34375 26.46875 
Q 33.015625 36.03125 37.109375 41.625 
Q 41.21875 47.21875 41.21875 52.203125 
Q 41.21875 57.421875 37.46875 61 
Q 33.734375 64.59375 27.734375 64.59375 
Q 21.390625 64.59375 17.578125 60.78125 
Q 13.765625 56.984375 13.71875 50.25 
L 4.6875 51.171875 
Q 5.609375 61.28125 11.65625 66.578125 
Q 17.71875 71.875 27.9375 71.875 
Q 38.234375 71.875 44.234375 66.15625 
Q 50.25 60.453125 50.25 52 
Q 50.25 47.703125 48.484375 43.546875 
Q 46.734375 39.40625 42.65625 34.8125 
Q 38.578125 30.21875 29.109375 22.21875 
Q 21.1875 15.578125 18.9375 13.203125 
Q 16.703125 10.84375 15.234375 8.453125 
z
" id="ArialMT-32"/>
      </defs>
      <g style="fill:#262626;" transform="translate(261.947867647 267.589375)scale(0.12 -0.12)">
       <use xlink:href="#ArialMT-32"/>
       <use x="55.615234375" xlink:href="#ArialMT-30"/>
       <use x="111.23046875" xlink:href="#ArialMT-30"/>
       <use x="166.845703125" xlink:href="#ArialMT-30"/>
      </g>
     </g>
    </g>
    <g id="xtick_6">
     <g id="line2d_16">
      <path clip-path="url(#p6ee3ed3d56)" d="M 308.117647 252 
L 308.117647 28.8 
" style="fill:none;stroke:#cccccc;stroke-linecap:round;"/>
     </g>
     <g id="line2d_17"/>
     <g id="line2d_18"/>
     <g id="text_6">
      <!-- 2500 -->
      <g style="fill:#262626;" transform="translate(294.771397059 267.589375)scale(0.12 -0.12)">
       <use xlink:href="#ArialMT-32"/>
       <use x="55.615234375" xlink:href="#ArialMT-35"/>
       <use x="111.23046875" xlink:href="#ArialMT-30"/>
       <use x="166.845703125" xlink:href="#ArialMT-30"/>
      </g>
     </g>
    </g>
    <g id="xtick_7">
     <g id="line2d_19">
      <path clip-path="url(#p6ee3ed3d56)" d="M 340.941176 252 
L 340.941176 28.8 
" style="fill:none;stroke:#cccccc;stroke-linecap:round;"/>
     </g>
     <g id="line2d_20"/>
     <g id="line2d_21"/>
     <g id="text_7">
      <!-- 3000 -->
      <defs>
       <path d="M 4.203125 18.890625 
L 12.984375 20.0625 
Q 14.5 12.59375 18.140625 9.296875 
Q 21.78125 6 27 6 
Q 33.203125 6 37.46875 10.296875 
Q 41.75 14.59375 41.75 20.953125 
Q 41.75 27 37.796875 30.921875 
Q 33.84375 34.859375 27.734375 34.859375 
Q 25.25 34.859375 21.53125 33.890625 
L 22.515625 41.609375 
Q 23.390625 41.5 23.921875 41.5 
Q 29.546875 41.5 34.03125 44.421875 
Q 38.53125 47.359375 38.53125 53.46875 
Q 38.53125 58.296875 35.25 61.46875 
Q 31.984375 64.65625 26.8125 64.65625 
Q 21.6875 64.65625 18.265625 61.421875 
Q 14.84375 58.203125 13.875 51.765625 
L 5.078125 53.328125 
Q 6.6875 62.15625 12.390625 67.015625 
Q 18.109375 71.875 26.609375 71.875 
Q 32.46875 71.875 37.390625 69.359375 
Q 42.328125 66.84375 44.9375 62.5 
Q 47.5625 58.15625 47.5625 53.265625 
Q 47.5625 48.640625 45.0625 44.828125 
Q 42.578125 41.015625 37.703125 38.765625 
Q 44.046875 37.3125 47.5625 32.6875 
Q 51.078125 28.078125 51.078125 21.140625 
Q 51.078125 11.765625 44.234375 5.25 
Q 37.40625 -1.265625 26.953125 -1.265625 
Q 17.53125 -1.265625 11.296875 4.34375 
Q 5.078125 9.96875 4.203125 18.890625 
" id="ArialMT-33"/>
      </defs>
      <g style="fill:#262626;" transform="translate(327.594926471 267.589375)scale(0.12 -0.12)">
       <use xlink:href="#ArialMT-33"/>
       <use x="55.615234375" xlink:href="#ArialMT-30"/>
       <use x="111.23046875" xlink:href="#ArialMT-30"/>
       <use x="166.845703125" xlink:href="#ArialMT-30"/>
      </g>
     </g>
    </g>
    <g id="xtick_8">
     <g id="line2d_22">
      <path clip-path="url(#p6ee3ed3d56)" d="M 373.764706 252 
L 373.764706 28.8 
" style="fill:none;stroke:#cccccc;stroke-linecap:round;"/>
     </g>
     <g id="line2d_23"/>
     <g id="line2d_24"/>
     <g id="text_8">
      <!-- 3500 -->
      <g style="fill:#262626;" transform="translate(360.418455882 267.589375)scale(0.12 -0.12)">
       <use xlink:href="#ArialMT-33"/>
       <use x="55.615234375" xlink:href="#ArialMT-35"/>
       <use x="111.23046875" xlink:href="#ArialMT-30"/>
       <use x="166.845703125" xlink:href="#ArialMT-30"/>
      </g>
     </g>
    </g>
    <g id="xtick_9">
     <g id="line2d_25">
      <path clip-path="url(#p6ee3ed3d56)" d="M 406.588235 252 
L 406.588235 28.8 
" style="fill:none;stroke:#cccccc;stroke-linecap:round;"/>
     </g>
     <g id="line2d_26"/>
     <g id="line2d_27"/>
     <g id="text_9">
      <!-- 4000 -->
      <defs>
       <path d="M 32.328125 0 
L 32.328125 17.140625 
L 1.265625 17.140625 
L 1.265625 25.203125 
L 33.9375 71.578125 
L 41.109375 71.578125 
L 41.109375 25.203125 
L 50.78125 25.203125 
L 50.78125 17.140625 
L 41.109375 17.140625 
L 41.109375 0 
z
M 32.328125 25.203125 
L 32.328125 57.46875 
L 9.90625 25.203125 
z
" id="ArialMT-34"/>
      </defs>
      <g style="fill:#262626;" transform="translate(393.241985294 267.589375)scale(0.12 -0.12)">
       <use xlink:href="#ArialMT-34"/>
       <use x="55.615234375" xlink:href="#ArialMT-30"/>
       <use x="111.23046875" xlink:href="#ArialMT-30"/>
       <use x="166.845703125" xlink:href="#ArialMT-30"/>
      </g>
     </g>
    </g>
    <g id="text_10">
     <!-- Temperature (K) -->
     <defs>
      <path d="M 40.4375 6.390625 
Q 35.546875 2.25 31.03125 0.53125 
Q 26.515625 -1.171875 21.34375 -1.171875 
Q 12.796875 -1.171875 8.203125 3 
Q 3.609375 7.171875 3.609375 13.671875 
Q 3.609375 17.484375 5.34375 20.625 
Q 7.078125 23.78125 9.890625 25.6875 
Q 12.703125 27.59375 16.21875 28.5625 
Q 18.796875 29.25 24.03125 29.890625 
Q 34.671875 31.15625 39.703125 32.90625 
Q 39.75 34.71875 39.75 35.203125 
Q 39.75 40.578125 37.25 42.78125 
Q 33.890625 45.75 27.25 45.75 
Q 21.046875 45.75 18.09375 43.578125 
Q 15.140625 41.40625 13.71875 35.890625 
L 5.125 37.0625 
Q 6.296875 42.578125 8.984375 45.96875 
Q 11.671875 49.359375 16.75 51.1875 
Q 21.828125 53.03125 28.515625 53.03125 
Q 35.15625 53.03125 39.296875 51.46875 
Q 43.453125 49.90625 45.40625 47.53125 
Q 47.359375 45.171875 48.140625 41.546875 
Q 48.578125 39.3125 48.578125 33.453125 
L 48.578125 21.734375 
Q 48.578125 9.46875 49.140625 6.21875 
Q 49.703125 2.984375 51.375 0 
L 42.1875 0 
Q 40.828125 2.734375 40.4375 6.390625 
M 39.703125 26.03125 
Q 34.90625 24.078125 25.34375 22.703125 
Q 19.921875 21.921875 17.671875 20.9375 
Q 15.4375 19.96875 14.203125 18.09375 
Q 12.984375 16.21875 12.984375 13.921875 
Q 12.984375 10.40625 15.640625 8.0625 
Q 18.3125 5.71875 23.4375 5.71875 
Q 28.515625 5.71875 32.46875 7.9375 
Q 36.421875 10.15625 38.28125 14.015625 
Q 39.703125 17 39.703125 22.796875 
z
" id="ArialMT-61"/>
      <path d="M 42.09375 16.703125 
L 51.171875 15.578125 
Q 49.03125 7.625 43.21875 3.21875 
Q 37.40625 -1.171875 28.375 -1.171875 
Q 17 -1.171875 10.328125 5.828125 
Q 3.65625 12.84375 3.65625 25.484375 
Q 3.65625 38.578125 10.390625 45.796875 
Q 17.140625 53.03125 27.875 53.03125 
Q 38.28125 53.03125 44.875 45.953125 
Q 51.46875 38.875 51.46875 26.03125 
Q 51.46875 25.25 51.421875 23.6875 
L 12.75 23.6875 
Q 13.234375 15.140625 17.578125 10.59375 
Q 21.921875 6.0625 28.421875 6.0625 
Q 33.25 6.0625 36.671875 8.59375 
Q 40.09375 11.140625 42.09375 16.703125 
M 13.234375 30.90625 
L 42.1875 30.90625 
Q 41.609375 37.453125 38.875 40.71875 
Q 34.671875 45.796875 27.984375 45.796875 
Q 21.921875 45.796875 17.796875 41.75 
Q 13.671875 37.703125 13.234375 30.90625 
" id="ArialMT-65"/>
      <path d="M 25.78125 7.859375 
L 27.046875 0.09375 
Q 23.34375 -0.6875 20.40625 -0.6875 
Q 15.625 -0.6875 12.984375 0.828125 
Q 10.359375 2.34375 9.28125 4.8125 
Q 8.203125 7.28125 8.203125 15.1875 
L 8.203125 45.015625 
L 1.765625 45.015625 
L 1.765625 51.859375 
L 8.203125 51.859375 
L 8.203125 64.703125 
L 16.9375 69.96875 
L 16.9375 51.859375 
L 25.78125 51.859375 
L 25.78125 45.015625 
L 16.9375 45.015625 
L 16.9375 14.703125 
Q 16.9375 10.9375 17.40625 9.859375 
Q 17.875 8.796875 18.921875 8.15625 
Q 19.96875 7.515625 21.921875 7.515625 
Q 23.390625 7.515625 25.78125 7.859375 
" id="ArialMT-74"/>
      <path d="M 40.578125 0 
L 40.578125 7.625 
Q 34.515625 -1.171875 24.125 -1.171875 
Q 19.53125 -1.171875 15.546875 0.578125 
Q 11.578125 2.34375 9.640625 5 
Q 7.71875 7.671875 6.9375 11.53125 
Q 6.390625 14.109375 6.390625 19.734375 
L 6.390625 51.859375 
L 15.1875 51.859375 
L 15.1875 23.09375 
Q 15.1875 16.21875 15.71875 13.8125 
Q 16.546875 10.359375 19.234375 8.375 
Q 21.921875 6.390625 25.875 6.390625 
Q 29.828125 6.390625 33.296875 8.421875 
Q 36.765625 10.453125 38.203125 13.9375 
Q 39.65625 17.4375 39.65625 24.078125 
L 39.65625 51.859375 
L 48.4375 51.859375 
L 48.4375 0 
z
" id="ArialMT-75"/>
      <path d="M 23.390625 -21.046875 
Q 16.109375 -11.859375 11.078125 0.4375 
Q 6.0625 12.75 6.0625 25.921875 
Q 6.0625 37.546875 9.8125 48.1875 
Q 14.203125 60.546875 23.390625 72.796875 
L 29.6875 72.796875 
Q 23.78125 62.640625 21.875 58.296875 
Q 18.890625 51.5625 17.1875 44.234375 
Q 15.09375 35.109375 15.09375 25.875 
Q 15.09375 2.390625 29.6875 -21.046875 
z
" id="ArialMT-28"/>
      <path d="M 6.59375 -19.875 
L 6.59375 51.859375 
L 14.59375 51.859375 
L 14.59375 45.125 
Q 17.4375 49.078125 21 51.046875 
Q 24.5625 53.03125 29.640625 53.03125 
Q 36.28125 53.03125 41.359375 49.609375 
Q 46.4375 46.1875 49.015625 39.953125 
Q 51.609375 33.734375 51.609375 26.3125 
Q 51.609375 18.359375 48.75 11.984375 
Q 45.90625 5.609375 40.453125 2.21875 
Q 35.015625 -1.171875 29 -1.171875 
Q 24.609375 -1.171875 21.109375 0.6875 
Q 17.625 2.546875 15.375 5.375 
L 15.375 -19.875 
z
M 14.546875 25.640625 
Q 14.546875 15.625 18.59375 10.84375 
Q 22.65625 6.0625 28.421875 6.0625 
Q 34.28125 6.0625 38.453125 11.015625 
Q 42.625 15.96875 42.625 26.375 
Q 42.625 36.28125 38.546875 41.203125 
Q 34.46875 46.140625 28.8125 46.140625 
Q 23.1875 46.140625 18.859375 40.890625 
Q 14.546875 35.640625 14.546875 25.640625 
" id="ArialMT-70"/>
      <path d="M 6.5 0 
L 6.5 51.859375 
L 14.40625 51.859375 
L 14.40625 44 
Q 17.4375 49.515625 20 51.265625 
Q 22.5625 53.03125 25.640625 53.03125 
Q 30.078125 53.03125 34.671875 50.203125 
L 31.640625 42.046875 
Q 28.421875 43.953125 25.203125 43.953125 
Q 22.3125 43.953125 20.015625 42.21875 
Q 17.71875 40.484375 16.75 37.40625 
Q 15.28125 32.71875 15.28125 27.15625 
L 15.28125 0 
z
" id="ArialMT-72"/>
      <path d="M 25.921875 0 
L 25.921875 63.140625 
L 2.34375 63.140625 
L 2.34375 71.578125 
L 59.078125 71.578125 
L 59.078125 63.140625 
L 35.40625 63.140625 
L 35.40625 0 
z
" id="ArialMT-54"/>
      <path d="M 12.359375 -21.046875 
L 6.0625 -21.046875 
Q 20.65625 2.390625 20.65625 25.875 
Q 20.65625 35.0625 18.5625 44.09375 
Q 16.890625 51.421875 13.921875 58.15625 
Q 12.015625 62.546875 6.0625 72.796875 
L 12.359375 72.796875 
Q 21.53125 60.546875 25.921875 48.1875 
Q 29.6875 37.546875 29.6875 25.921875 
Q 29.6875 12.75 24.625 0.4375 
Q 19.578125 -11.859375 12.359375 -21.046875 
" id="ArialMT-29"/>
      <path d="M 6.59375 0 
L 6.59375 51.859375 
L 14.453125 51.859375 
L 14.453125 44.578125 
Q 16.890625 48.390625 20.9375 50.703125 
Q 25 53.03125 30.171875 53.03125 
Q 35.9375 53.03125 39.625 50.640625 
Q 43.3125 48.25 44.828125 43.953125 
Q 50.984375 53.03125 60.84375 53.03125 
Q 68.5625 53.03125 72.703125 48.75 
Q 76.859375 44.484375 76.859375 35.59375 
L 76.859375 0 
L 68.109375 0 
L 68.109375 32.671875 
Q 68.109375 37.9375 67.25 40.25 
Q 66.40625 42.578125 64.15625 43.984375 
Q 61.921875 45.40625 58.890625 45.40625 
Q 53.421875 45.40625 49.796875 41.765625 
Q 46.1875 38.140625 46.1875 30.125 
L 46.1875 0 
L 37.40625 0 
L 37.40625 33.6875 
Q 37.40625 39.546875 35.25 42.46875 
Q 33.109375 45.40625 28.21875 45.40625 
Q 24.515625 45.40625 21.359375 43.453125 
Q 18.21875 41.5 16.796875 37.734375 
Q 15.375 33.984375 15.375 26.90625 
L 15.375 0 
z
" id="ArialMT-6d"/>
      <path d="M 7.328125 0 
L 7.328125 71.578125 
L 16.796875 71.578125 
L 16.796875 36.078125 
L 52.34375 71.578125 
L 65.1875 71.578125 
L 35.15625 42.578125 
L 66.5 0 
L 54 0 
L 28.515625 36.234375 
L 16.796875 24.8125 
L 16.796875 0 
z
" id="ArialMT-4b"/>
      <path id="ArialMT-20"/>
     </defs>
     <g style="fill:#262626;" transform="translate(226.895492647 284.5835625)scale(0.132 -0.132)">
      <use xlink:href="#ArialMT-54"/>
      <use x="60.912109375" xlink:href="#ArialMT-65"/>
      <use x="116.52734375" xlink:href="#ArialMT-6d"/>
      <use x="199.828125" xlink:href="#ArialMT-70"/>
      <use x="255.443359375" xlink:href="#ArialMT-65"/>
      <use x="311.05859375" xlink:href="#ArialMT-72"/>
      <use x="344.359375" xlink:href="#ArialMT-61"/>
      <use x="399.974609375" xlink:href="#ArialMT-74"/>
      <use x="427.7578125" xlink:href="#ArialMT-75"/>
      <use x="483.373046875" xlink:href="#ArialMT-72"/>
      <use x="516.673828125" xlink:href="#ArialMT-65"/>
      <use x="572.2890625" xlink:href="#ArialMT-20"/>
      <use x="600.072265625" xlink:href="#ArialMT-28"/>
      <use x="633.373046875" xlink:href="#ArialMT-4b"/>
      <use x="700.072265625" xlink:href="#ArialMT-29"/>
     </g>
    </g>
   </g>
   <g id="matplotlib.axis_2">
    <g id="ytick_1">
     <g id="line2d_28">
      <path clip-path="url(#p6ee3ed3d56)" d="M 144 28.8 
L 406.588235 28.8 
" style="fill:none;stroke:#cccccc;stroke-linecap:round;"/>
     </g>
     <g id="line2d_29"/>
     <g id="line2d_30"/>
     <g id="text_11">
      <!-- $\mathdefault{10^{-2}}$ -->
      <defs>
       <path d="M 3.171875 21.484375 
L 3.171875 30.328125 
L 30.171875 30.328125 
L 30.171875 21.484375 
z
" id="ArialMT-2d"/>
      </defs>
      <g style="fill:#262626;" transform="translate(114.56 32.295)scale(0.12 -0.12)">
       <use transform="translate(0.0 0.884375)" xlink:href="#ArialMT-31"/>
       <use transform="translate(55.615234375 0.884375)" xlink:href="#ArialMT-30"/>
       <use transform="translate(116.4575 45.6875)scale(0.7)" xlink:href="#ArialMT-2d"/>
       <use transform="translate(139.768046875 45.6875)scale(0.7)" xlink:href="#ArialMT-32"/>
      </g>
     </g>
    </g>
    <g id="ytick_2">
     <g id="line2d_31">
      <path clip-path="url(#p6ee3ed3d56)" d="M 144 103.2 
L 406.588235 103.2 
" style="fill:none;stroke:#cccccc;stroke-linecap:round;"/>
     </g>
     <g id="line2d_32"/>
     <g id="line2d_33"/>
     <g id="text_12">
      <!-- $\mathdefault{10^{-1}}$ -->
      <g style="fill:#262626;" transform="translate(114.56 106.695)scale(0.12 -0.12)">
       <use transform="translate(0.0 0.884375)" xlink:href="#ArialMT-31"/>
       <use transform="translate(55.615234375 0.884375)" xlink:href="#ArialMT-30"/>
       <use transform="translate(116.4575 45.6875)scale(0.7)" xlink:href="#ArialMT-2d"/>
       <use transform="translate(139.768046875 45.6875)scale(0.7)" xlink:href="#ArialMT-31"/>
      </g>
     </g>
    </g>
    <g id="ytick_3">
     <g id="line2d_34">
      <path clip-path="url(#p6ee3ed3d56)" d="M 144 177.6 
L 406.588235 177.6 
" style="fill:none;stroke:#cccccc;stroke-linecap:round;"/>
     </g>
     <g id="line2d_35"/>
     <g id="line2d_36"/>
     <g id="text_13">
      <!-- $\mathdefault{10^{0}}$ -->
      <g style="fill:#262626;" transform="translate(117.44 181.095)scale(0.12 -0.12)">
       <use transform="translate(0.0 0.884375)" xlink:href="#ArialMT-31"/>
       <use transform="translate(55.615234375 0.884375)" xlink:href="#ArialMT-30"/>
       <use transform="translate(116.4575 45.6875)scale(0.7)" xlink:href="#ArialMT-30"/>
      </g>
     </g>
    </g>
    <g id="ytick_4">
     <g id="line2d_37">
      <path clip-path="url(#p6ee3ed3d56)" d="M 144 252 
L 406.588235 252 
" style="fill:none;stroke:#cccccc;stroke-linecap:round;"/>
     </g>
     <g id="line2d_38"/>
     <g id="line2d_39"/>
     <g id="text_14">
      <!-- $\mathdefault{10^{1}}$ -->
      <g style="fill:#262626;" transform="translate(117.44 255.495)scale(0.12 -0.12)">
       <use transform="translate(0.0 0.884375)" xlink:href="#ArialMT-31"/>
       <use transform="translate(55.615234375 0.884375)" xlink:href="#ArialMT-30"/>
       <use transform="translate(116.4575 45.6875)scale(0.7)" xlink:href="#ArialMT-31"/>
      </g>
     </g>
    </g>
    <g id="ytick_5">
     <g id="line2d_40"/>
     <g id="line2d_41"/>
    </g>
    <g id="ytick_6">
     <g id="line2d_42"/>
     <g id="line2d_43"/>
    </g>
    <g id="ytick_7">
     <g id="line2d_44"/>
     <g id="line2d_45"/>
    </g>
    <g id="ytick_8">
     <g id="line2d_46"/>
     <g id="line2d_47"/>
    </g>
    <g id="ytick_9">
     <g id="line2d_48"/>
     <g id="line2d_49"/>
    </g>
    <g id="ytick_10">
     <g id="line2d_50"/>
     <g id="line2d_51"/>
    </g>
    <g id="ytick_11">
     <g id="line2d_52"/>
     <g id="line2d_53"/>
    </g>
    <g id="ytick_12">
     <g id="line2d_54"/>
     <g id="line2d_55"/>
    </g>
    <g id="ytick_13">
     <g id="line2d_56"/>
     <g id="line2d_57"/>
    </g>
    <g id="ytick_14">
     <g id="line2d_58"/>
     <g id="line2d_59"/>
    </g>
    <g id="ytick_15">
     <g id="line2d_60"/>
     <g id="line2d_61"/>
    </g>
    <g id="ytick_16">
     <g id="line2d_62"/>
     <g id="line2d_63"/>
    </g>
    <g id="ytick_17">
     <g id="line2d_64"/>
     <g id="line2d_65"/>
    </g>
    <g id="ytick_18">
     <g id="line2d_66"/>
     <g id="line2d_67"/>
    </g>
    <g id="ytick_19">
     <g id="line2d_68"/>
     <g id="line2d_69"/>
    </g>
    <g id="ytick_20">
     <g id="line2d_70"/>
     <g id="line2d_71"/>
    </g>
    <g id="ytick_21">
     <g id="line2d_72"/>
     <g id="line2d_73"/>
    </g>
    <g id="ytick_22">
     <g id="line2d_74"/>
     <g id="line2d_75"/>
    </g>
    <g id="ytick_23">
     <g id="line2d_76"/>
     <g id="line2d_77"/>
    </g>
    <g id="ytick_24">
     <g id="line2d_78"/>
     <g id="line2d_79"/>
    </g>
    <g id="ytick_25">
     <g id="line2d_80"/>
     <g id="line2d_81"/>
    </g>
    <g id="ytick_26">
     <g id="line2d_82"/>
     <g id="line2d_83"/>
    </g>
    <g id="ytick_27">
     <g id="line2d_84"/>
     <g id="line2d_85"/>
    </g>
    <g id="ytick_28">
     <g id="line2d_86"/>
     <g id="line2d_87"/>
    </g>
    <g id="text_15">
     <!-- Pressure (bar) -->
     <defs>
      <path d="M 14.703125 0 
L 6.546875 0 
L 6.546875 71.578125 
L 15.328125 71.578125 
L 15.328125 46.046875 
Q 20.90625 53.03125 29.546875 53.03125 
Q 34.328125 53.03125 38.59375 51.09375 
Q 42.875 49.171875 45.625 45.671875 
Q 48.390625 42.1875 49.953125 37.25 
Q 51.515625 32.328125 51.515625 26.703125 
Q 51.515625 13.375 44.921875 6.09375 
Q 38.328125 -1.171875 29.109375 -1.171875 
Q 19.921875 -1.171875 14.703125 6.5 
z
M 14.59375 26.3125 
Q 14.59375 17 17.140625 12.84375 
Q 21.296875 6.0625 28.375 6.0625 
Q 34.125 6.0625 38.328125 11.0625 
Q 42.53125 16.0625 42.53125 25.984375 
Q 42.53125 36.140625 38.5 40.96875 
Q 34.46875 45.796875 28.765625 45.796875 
Q 23 45.796875 18.796875 40.796875 
Q 14.59375 35.796875 14.59375 26.3125 
" id="ArialMT-62"/>
      <path d="M 7.71875 0 
L 7.71875 71.578125 
L 34.71875 71.578125 
Q 41.84375 71.578125 45.609375 70.90625 
Q 50.875 70.015625 54.4375 67.546875 
Q 58.015625 65.09375 60.1875 60.640625 
Q 62.359375 56.203125 62.359375 50.875 
Q 62.359375 41.75 56.546875 35.421875 
Q 50.734375 29.109375 35.546875 29.109375 
L 17.1875 29.109375 
L 17.1875 0 
z
M 17.1875 37.546875 
L 35.6875 37.546875 
Q 44.875 37.546875 48.734375 40.96875 
Q 52.59375 44.390625 52.59375 50.59375 
Q 52.59375 55.078125 50.3125 58.265625 
Q 48.046875 61.46875 44.34375 62.5 
Q 41.9375 63.140625 35.5 63.140625 
L 17.1875 63.140625 
z
" id="ArialMT-50"/>
      <path d="M 3.078125 15.484375 
L 11.765625 16.84375 
Q 12.5 11.625 15.84375 8.84375 
Q 19.1875 6.0625 25.203125 6.0625 
Q 31.25 6.0625 34.171875 8.515625 
Q 37.109375 10.984375 37.109375 14.3125 
Q 37.109375 17.28125 34.515625 19 
Q 32.71875 20.171875 25.53125 21.96875 
Q 15.875 24.421875 12.140625 26.203125 
Q 8.40625 27.984375 6.46875 31.125 
Q 4.546875 34.28125 4.546875 38.09375 
Q 4.546875 41.546875 6.125 44.5 
Q 7.71875 47.46875 10.453125 49.421875 
Q 12.5 50.921875 16.03125 51.96875 
Q 19.578125 53.03125 23.640625 53.03125 
Q 29.734375 53.03125 34.34375 51.265625 
Q 38.96875 49.515625 41.15625 46.5 
Q 43.359375 43.5 44.1875 38.484375 
L 35.59375 37.3125 
Q 35.015625 41.3125 32.203125 43.546875 
Q 29.390625 45.796875 24.265625 45.796875 
Q 18.21875 45.796875 15.625 43.796875 
Q 13.03125 41.796875 13.03125 39.109375 
Q 13.03125 37.40625 14.109375 36.03125 
Q 15.1875 34.625 17.484375 33.6875 
Q 18.796875 33.203125 25.25 31.453125 
Q 34.578125 28.953125 38.25 27.359375 
Q 41.9375 25.78125 44.03125 22.75 
Q 46.140625 19.734375 46.140625 15.234375 
Q 46.140625 10.84375 43.578125 6.953125 
Q 41.015625 3.078125 36.171875 0.953125 
Q 31.34375 -1.171875 25.25 -1.171875 
Q 15.140625 -1.171875 9.84375 3.03125 
Q 4.546875 7.234375 3.078125 15.484375 
" id="ArialMT-73"/>
     </defs>
     <g style="fill:#262626;" transform="translate(106.7818125 182.57503125)rotate(-90.0)scale(0.132 -0.132)">
      <use xlink:href="#ArialMT-50"/>
      <use x="66.69921875" xlink:href="#ArialMT-72"/>
      <use x="100.0" xlink:href="#ArialMT-65"/>
      <use x="155.615234375" xlink:href="#ArialMT-73"/>
      <use x="205.615234375" xlink:href="#ArialMT-73"/>
      <use x="255.615234375" xlink:href="#ArialMT-75"/>
      <use x="311.23046875" xlink:href="#ArialMT-72"/>
      <use x="344.53125" xlink:href="#ArialMT-65"/>
      <use x="400.146484375" xlink:href="#ArialMT-20"/>
      <use x="427.9296875" xlink:href="#ArialMT-28"/>
      <use x="461.23046875" xlink:href="#ArialMT-62"/>
      <use x="516.845703125" xlink:href="#ArialMT-61"/>
      <use x="572.4609375" xlink:href="#ArialMT-72"/>
      <use x="605.76171875" xlink:href="#ArialMT-29"/>
     </g>
    </g>
   </g>
   <g id="line2d_88">
    <path clip-path="url(#p6ee3ed3d56)" d="M 168.279859 11.312062 
L 169.356935 16.220755 
L 170.48179 21.129448 
L 171.656545 26.038142 
L 172.883414 30.946835 
L 174.164707 35.855529 
L 175.502839 40.764222 
L 176.900333 45.672915 
L 178.35982 50.581609 
L 179.884051 55.490302 
L 181.475899 60.398995 
L 183.138362 65.307689 
L 184.874573 70.216382 
L 186.687805 75.125076 
L 188.581473 80.033769 
L 190.559145 84.942462 
L 192.624549 89.851156 
L 194.781576 94.759849 
L 197.034291 99.668542 
L 199.386938 104.577236 
L 201.84395 109.485929 
L 204.409958 114.394623 
L 207.089796 119.303316 
L 209.888514 124.212009 
L 212.811385 129.120703 
L 215.863918 134.029396 
L 219.051863 138.93809 
L 222.381229 143.846783 
L 225.858288 148.755476 
L 229.489592 153.66417 
L 233.281985 158.572863 
L 237.242611 163.481556 
L 241.378933 168.39025 
L 245.698747 173.298943 
L 250.210191 178.207637 
L 254.921767 183.11633 
L 259.842353 188.025023 
L 264.98122 192.933717 
L 270.348051 197.84241 
L 275.95296 202.751103 
L 281.806507 207.659797 
L 287.919723 212.56849 
L 294.304126 217.477184 
L 300.971747 222.385877 
L 307.93515 227.29457 
L 315.207455 232.203264 
L 322.802365 237.111957 
L 330.734193 242.02065 
L 339.017883 246.929344 
L 347.669045 251.838037 
" style="fill:none;stroke:#cccccc;stroke-linecap:round;stroke-width:1.2;"/>
   </g>
   <g id="line2d_89">
    <path clip-path="url(#p6ee3ed3d56)" d="M 147.130375 11.312062 
L 147.269241 16.220755 
L 147.414268 21.129448 
L 147.565728 26.038142 
L 147.723906 30.946835 
L 147.889102 35.855529 
L 148.061626 40.764222 
L 148.241803 45.672915 
L 148.429973 50.581609 
L 148.626491 55.490302 
L 148.831726 60.398995 
L 149.046065 65.307689 
L 149.269913 70.216382 
L 149.503691 75.125076 
L 149.74784 80.033769 
L 150.002819 84.942462 
L 150.269109 89.851156 
L 150.547212 94.759849 
L 150.837652 99.668542 
L 151.140976 104.577236 
L 151.457756 109.485929 
L 151.788589 114.394623 
L 152.134097 119.303316 
L 152.494933 124.212009 
L 152.871775 129.120703 
L 153.265335 134.029396 
L 153.676353 138.93809 
L 154.105605 143.846783 
L 154.553898 148.755476 
L 155.022078 153.66417 
L 155.511027 158.572863 
L 156.021666 163.481556 
L 156.554958 168.39025 
L 157.111906 173.298943 
L 157.693562 178.207637 
L 158.30102 183.11633 
L 158.935426 188.025023 
L 159.597974 192.933717 
L 160.289914 197.84241 
L 161.012548 202.751103 
L 161.76724 207.659797 
L 162.55541 212.56849 
L 163.378544 217.477184 
L 164.238193 222.385877 
L 165.135977 227.29457 
L 166.073587 232.203264 
L 167.05279 237.111957 
L 168.075432 242.02065 
L 169.143439 246.929344 
L 170.258824 251.838037 
" style="fill:none;stroke:#cccccc;stroke-linecap:round;stroke-width:1.2;"/>
   </g>
   <g id="line2d_90">
    <path clip-path="url(#p6ee3ed3d56)" d="M 153.391126 11.312062 
L 153.807724 16.220755 
L 154.242803 21.129448 
L 154.697183 26.038142 
L 155.171719 30.946835 
L 155.667306 35.855529 
L 156.184878 40.764222 
L 156.72541 45.672915 
L 157.28992 50.581609 
L 157.879472 55.490302 
L 158.495178 60.398995 
L 159.138196 65.307689 
L 159.80974 70.216382 
L 160.511074 75.125076 
L 161.243519 80.033769 
L 162.008457 84.942462 
L 162.807327 89.851156 
L 163.641637 94.759849 
L 164.512957 99.668542 
L 165.422929 104.577236 
L 166.373269 109.485929 
L 167.365766 114.394623 
L 168.402292 119.303316 
L 169.484799 124.212009 
L 170.615326 129.120703 
L 171.796005 134.029396 
L 173.02906 138.93809 
L 174.316814 143.846783 
L 175.661694 148.755476 
L 177.066234 153.66417 
L 178.533081 158.572863 
L 180.064998 163.481556 
L 181.664873 168.39025 
L 183.335719 173.298943 
L 185.080686 178.207637 
L 186.90306 183.11633 
L 188.806277 188.025023 
L 190.793922 192.933717 
L 192.869741 197.84241 
L 195.037645 202.751103 
L 197.301719 207.659797 
L 199.66623 212.56849 
L 202.135632 217.477184 
L 204.714579 222.385877 
L 207.40793 227.29457 
L 210.22076 232.203264 
L 213.158371 237.111957 
L 216.226296 242.02065 
L 219.430317 246.929344 
L 222.776471 251.838037 
" style="fill:none;stroke:#cccccc;stroke-linecap:round;stroke-width:1.2;"/>
   </g>
   <g id="line2d_91">
    <path clip-path="url(#p6ee3ed3d56)" d="M 159.651876 11.312062 
L 160.346207 16.220755 
L 161.071339 21.129448 
L 161.828638 26.038142 
L 162.619532 30.946835 
L 163.445511 35.855529 
L 164.30813 40.764222 
L 165.209017 45.672915 
L 166.149867 50.581609 
L 167.132454 55.490302 
L 168.15863 60.398995 
L 169.230327 65.307689 
L 170.349567 70.216382 
L 171.518456 75.125076 
L 172.739199 80.033769 
L 174.014094 84.942462 
L 175.345545 89.851156 
L 176.736061 94.759849 
L 178.188261 99.668542 
L 179.704882 104.577236 
L 181.288781 109.485929 
L 182.942944 114.394623 
L 184.670486 119.303316 
L 186.474664 124.212009 
L 188.358877 129.120703 
L 190.326675 134.029396 
L 192.381767 138.93809 
L 194.528024 143.846783 
L 196.76949 148.755476 
L 199.110391 153.66417 
L 201.555135 158.572863 
L 204.108331 163.481556 
L 206.774788 168.39025 
L 209.559532 173.298943 
L 212.46781 178.207637 
L 215.505101 183.11633 
L 218.677129 188.025023 
L 221.989871 192.933717 
L 225.449569 197.84241 
L 229.062742 202.751103 
L 232.836199 207.659797 
L 236.777049 212.56849 
L 240.89272 217.477184 
L 245.190964 222.385877 
L 249.679883 227.29457 
L 254.367934 232.203264 
L 259.263951 237.111957 
L 264.377159 242.02065 
L 269.717194 246.929344 
L 275.294118 251.838037 
" style="fill:none;stroke:#cccccc;stroke-linecap:round;stroke-width:1.2;"/>
   </g>
   <g id="line2d_92">
    <path clip-path="url(#p6ee3ed3d56)" d="M 165.912627 11.312062 
L 166.88469 16.220755 
L 167.899875 21.129448 
L 168.960094 26.038142 
L 170.067345 30.946835 
L 171.223715 35.855529 
L 172.431382 40.764222 
L 173.692623 45.672915 
L 175.009814 50.581609 
L 176.385436 55.490302 
L 177.822082 60.398995 
L 179.322458 65.307689 
L 180.889393 70.216382 
L 182.525839 75.125076 
L 184.234878 80.033769 
L 186.019732 84.942462 
L 187.883764 89.851156 
L 189.830485 94.759849 
L 191.863565 99.668542 
L 193.986834 104.577236 
L 196.204294 109.485929 
L 198.520121 114.394623 
L 200.938681 119.303316 
L 203.46453 124.212009 
L 206.102428 129.120703 
L 208.857345 134.029396 
L 211.734473 138.93809 
L 214.739233 143.846783 
L 217.877286 148.755476 
L 221.154547 153.66417 
L 224.577189 158.572863 
L 228.151663 163.481556 
L 231.884703 168.39025 
L 235.783345 173.298943 
L 239.854933 178.207637 
L 244.107141 183.11633 
L 248.54798 188.025023 
L 253.185819 192.933717 
L 258.029396 197.84241 
L 263.087839 202.751103 
L 268.370678 207.659797 
L 273.887869 212.56849 
L 279.649807 217.477184 
L 285.66735 222.385877 
L 291.951836 227.29457 
L 298.515108 232.203264 
L 305.369531 237.111957 
L 312.528023 242.02065 
L 320.004072 246.929344 
L 327.811765 251.838037 
" style="fill:none;stroke:#cccccc;stroke-linecap:round;stroke-width:1.2;"/>
   </g>
   <g id="line2d_93">
    <path clip-path="url(#p6ee3ed3d56)" d="M 172.173377 11.312062 
L 173.423173 16.220755 
L 174.72841 21.129448 
L 176.091549 26.038142 
L 177.515158 30.946835 
L 179.001919 35.855529 
L 180.554635 40.764222 
L 182.17623 45.672915 
L 183.86976 50.581609 
L 185.638417 55.490302 
L 187.485534 60.398995 
L 189.414589 65.307689 
L 191.42922 70.216382 
L 193.533221 75.125076 
L 195.730557 80.033769 
L 198.02537 84.942462 
L 200.421982 89.851156 
L 202.92491 94.759849 
L 205.53887 99.668542 
L 208.268787 104.577236 
L 211.119806 109.485929 
L 214.097299 114.394623 
L 217.206875 119.303316 
L 220.454396 124.212009 
L 223.845979 129.120703 
L 227.388015 134.029396 
L 231.08718 138.93809 
L 234.950442 143.846783 
L 238.985083 148.755476 
L 243.198703 153.66417 
L 247.599243 158.572863 
L 252.194995 163.481556 
L 256.994619 168.39025 
L 262.007158 173.298943 
L 267.242057 178.207637 
L 272.709181 183.11633 
L 278.418832 188.025023 
L 284.381767 192.933717 
L 290.609224 197.84241 
L 297.112936 202.751103 
L 303.905158 207.659797 
L 310.998689 212.56849 
L 318.406895 217.477184 
L 326.143736 222.385877 
L 334.223789 227.29457 
L 342.662281 232.203264 
L 351.475112 237.111957 
L 360.678887 242.02065 
L 370.29095 246.929344 
L 380.329412 251.838037 
" style="fill:none;stroke:#cccccc;stroke-linecap:round;stroke-width:1.2;"/>
   </g>
   <g id="line2d_94">
    <path clip-path="url(#p6ee3ed3d56)" d="M 178.434128 11.312062 
L 179.961656 16.220755 
L 181.556946 21.129448 
L 183.223004 26.038142 
L 184.962971 30.946835 
L 186.780123 35.855529 
L 188.677887 40.764222 
L 190.659836 45.672915 
L 192.729707 50.581609 
L 194.891399 55.490302 
L 197.148985 60.398995 
L 199.50672 65.307689 
L 201.969046 70.216382 
L 204.540603 75.125076 
L 207.226237 80.033769 
L 210.031007 84.942462 
L 212.9602 89.851156 
L 216.019334 94.759849 
L 219.214174 99.668542 
L 222.55074 104.577236 
L 226.035318 109.485929 
L 229.674476 114.394623 
L 233.47507 119.303316 
L 237.444261 124.212009 
L 241.58953 129.120703 
L 245.918685 134.029396 
L 250.439886 138.93809 
L 255.161652 143.846783 
L 260.092879 148.755476 
L 265.242859 153.66417 
L 270.621297 158.572863 
L 276.238327 163.481556 
L 282.104534 168.39025 
L 288.23097 173.298943 
L 294.629181 178.207637 
L 301.311222 183.11633 
L 308.289683 188.025023 
L 315.577716 192.933717 
L 323.189051 197.84241 
L 331.138033 202.751103 
L 339.439638 207.659797 
L 348.109509 212.56849 
L 357.163983 217.477184 
L 366.620122 222.385877 
L 376.495743 227.29457 
L 386.809455 232.203264 
L 397.580692 237.111957 
L 408.829751 242.02065 
L 420.577827 246.929344 
L 432.847059 251.838037 
" style="fill:none;stroke:#cccccc;stroke-linecap:round;stroke-width:1.2;"/>
   </g>
   <g id="line2d_95">
    <path clip-path="url(#p6ee3ed3d56)" d="M 184.694878 11.312062 
L 186.500138 16.220755 
L 188.385481 21.129448 
L 190.35446 26.038142 
L 192.410783 30.946835 
L 194.558328 35.855529 
L 196.801139 40.764222 
L 199.143443 45.672915 
L 201.589654 50.581609 
L 204.144381 55.490302 
L 206.812437 60.398995 
L 209.598851 65.307689 
L 212.508873 70.216382 
L 215.547986 75.125076 
L 218.721916 80.033769 
L 222.036645 84.942462 
L 225.498418 89.851156 
L 229.113758 94.759849 
L 232.889478 99.668542 
L 236.832692 104.577236 
L 240.950831 109.485929 
L 245.251654 114.394623 
L 249.743264 119.303316 
L 254.434127 124.212009 
L 259.33308 129.120703 
L 264.449356 134.029396 
L 269.792593 138.93809 
L 275.372861 143.846783 
L 281.200675 148.755476 
L 287.287015 153.66417 
L 293.643351 158.572863 
L 300.28166 163.481556 
L 307.214449 168.39025 
L 314.454783 173.298943 
L 322.016305 178.207637 
L 329.913262 183.11633 
L 338.160535 188.025023 
L 346.773664 192.933717 
L 355.768879 197.84241 
L 365.16313 202.751103 
L 374.974117 207.659797 
L 385.220329 212.56849 
L 395.921071 217.477184 
L 407.096507 222.385877 
L 418.767696 227.29457 
L 430.956628 232.203264 
L 443.686272 237.111957 
L 456.980614 242.02065 
L 470.864705 246.929344 
L 485.364706 251.838037 
" style="fill:none;stroke:#cccccc;stroke-linecap:round;stroke-width:1.2;"/>
   </g>
   <g id="line2d_96">
    <path clip-path="url(#p6ee3ed3d56)" d="M 190.955629 11.312062 
L 193.038621 16.220755 
L 195.214017 21.129448 
L 197.485915 26.038142 
L 199.858596 30.946835 
L 202.336532 35.855529 
L 204.924391 40.764222 
L 207.62705 45.672915 
L 210.449601 50.581609 
L 213.397362 55.490302 
L 216.475889 60.398995 
L 219.690982 65.307689 
L 223.0487 70.216382 
L 226.555368 75.125076 
L 230.217596 80.033769 
L 234.042283 84.942462 
L 238.036636 89.851156 
L 242.208183 94.759849 
L 246.564783 99.668542 
L 251.114645 104.577236 
L 255.866343 109.485929 
L 260.828831 114.394623 
L 266.011459 119.303316 
L 271.423993 124.212009 
L 277.076631 129.120703 
L 282.980026 134.029396 
L 289.1453 138.93809 
L 295.584071 143.846783 
L 302.308471 148.755476 
L 309.331172 153.66417 
L 316.665405 158.572863 
L 324.324992 163.481556 
L 332.324364 168.39025 
L 340.678596 173.298943 
L 349.403429 178.207637 
L 358.515302 183.11633 
L 368.031386 188.025023 
L 377.969612 192.933717 
L 388.348707 197.84241 
L 399.188226 202.751103 
L 410.508597 207.659797 
L 422.331148 212.56849 
L 434.678159 217.477184 
L 447.572893 222.385877 
L 461.039649 227.29457 
L 475.103802 232.203264 
L 489.791853 237.111957 
L 505.131478 242.02065 
L 521.151583 246.929344 
L 537.882353 251.838037 
" style="fill:none;stroke:#cccccc;stroke-linecap:round;stroke-width:1.2;"/>
   </g>
   <g id="line2d_97">
    <path clip-path="url(#p6ee3ed3d56)" d="M 197.216379 11.312062 
L 199.577104 16.220755 
L 202.042552 21.129448 
L 204.61737 26.038142 
L 207.306409 30.946835 
L 210.114736 35.855529 
L 213.047643 40.764222 
L 216.110656 45.672915 
L 219.309547 50.581609 
L 222.650344 55.490302 
L 226.139341 60.398995 
L 229.783113 65.307689 
L 233.588526 70.216382 
L 237.562751 75.125076 
L 241.713275 80.033769 
L 246.047921 84.942462 
L 250.574855 89.851156 
L 255.302607 94.759849 
L 260.240087 99.668542 
L 265.396598 104.577236 
L 270.781856 109.485929 
L 276.406009 114.394623 
L 282.279654 119.303316 
L 288.413858 124.212009 
L 294.820182 129.120703 
L 301.510696 134.029396 
L 308.498006 138.93809 
L 315.79528 143.846783 
L 323.416267 148.755476 
L 331.375328 153.66417 
L 339.687459 158.572863 
L 348.368324 163.481556 
L 357.43428 168.39025 
L 366.902409 173.298943 
L 376.790552 178.207637 
L 387.117342 183.11633 
L 397.902238 188.025023 
L 409.165561 192.933717 
L 420.928534 197.84241 
L 433.213323 202.751103 
L 446.043076 207.659797 
L 459.441968 212.56849 
L 473.435247 217.477184 
L 488.049279 222.385877 
L 503.311602 227.29457 
L 519.250975 232.203264 
L 535.897433 237.111957 
L 553.282342 242.02065 
L 571.43846 246.929344 
L 590.4 251.838037 
" style="fill:none;stroke:#cccccc;stroke-linecap:round;stroke-width:1.2;"/>
   </g>
   <g id="line2d_98">
    <path clip-path="url(#p6ee3ed3d56)" d="M 203.47713 11.312062 
L 206.115587 16.220755 
L 208.871088 21.129448 
L 211.748826 26.038142 
L 214.754222 30.946835 
L 217.89294 35.855529 
L 221.170895 40.764222 
L 224.594263 45.672915 
L 228.169494 50.581609 
L 231.903325 55.490302 
L 235.802793 60.398995 
L 239.875244 65.307689 
L 244.128353 70.216382 
L 248.570133 75.125076 
L 253.208955 80.033769 
L 258.053558 84.942462 
L 263.113073 89.851156 
L 268.397032 94.759849 
L 273.915391 99.668542 
L 279.678551 104.577236 
L 285.697368 109.485929 
L 291.983186 114.394623 
L 298.547848 119.303316 
L 305.403724 124.212009 
L 312.563733 129.120703 
L 320.041366 134.029396 
L 327.850713 138.93809 
L 336.006489 143.846783 
L 344.524063 148.755476 
L 353.419484 153.66417 
L 362.709513 158.572863 
L 372.411656 163.481556 
L 382.544195 168.39025 
L 393.126222 173.298943 
L 404.177676 178.207637 
L 415.719383 183.11633 
L 427.773089 188.025023 
L 440.361509 192.933717 
L 453.508362 197.84241 
L 467.23842 202.751103 
L 481.577556 207.659797 
L 496.552788 212.56849 
L 512.192334 217.477184 
L 528.525665 222.385877 
L 545.583555 227.29457 
L 563.398149 232.203264 
L 582.003013 237.111957 
L 601.433206 242.02065 
L 621.725338 246.929344 
L 642.917647 251.838037 
" style="fill:none;stroke:#cccccc;stroke-linecap:round;stroke-width:1.2;"/>
   </g>
   <g id="line2d_99">
    <path clip-path="url(#p6ee3ed3d56)" d="M 266.949392 11.312062 
L 266.949392 16.220755 
L 266.97032 21.129448 
L 266.995068 26.038142 
L 267.024059 30.946835 
L 267.057565 35.855529 
L 267.095855 40.764222 
L 267.139795 45.672915 
L 267.190615 50.581609 
L 267.249472 55.490302 
L 267.317562 60.398995 
L 267.395872 65.307689 
L 267.483687 70.216382 
L 267.580045 75.125076 
L 267.686555 80.033769 
L 267.804822 84.942462 
L 267.934948 89.851156 
L 268.076667 94.759849 
L 268.229189 99.668542 
L 268.391134 104.577236 
L 268.560538 109.485929 
L 268.734982 114.394623 
L 268.911928 119.303316 
L 269.089305 124.212009 
L 269.266367 129.120703 
L 269.444703 134.029396 
L 269.630401 138.93809 
L 269.826265 143.846783 
L 270.079443 148.755476 
L 270.272203 153.66417 
L 270.921869 158.572863 
L 270.743285 163.481556 
L 272.467577 168.39025 
L 271.801486 173.298943 
L 274.493635 178.207637 
L 274.460108 183.11633 
L 277.341754 188.025023 
L 279.223329 192.933717 
L 282.150529 197.84241 
L 286.766973 202.751103 
L 292.03057 207.659797 
L 297.502349 212.56849 
L 303.157903 217.477184 
L 308.997552 222.385877 
L 315.019626 227.29457 
L 321.21746 232.203264 
L 327.586685 237.111957 
L 334.121604 242.02065 
L 340.816811 246.929344 
L 347.669045 251.838037 
" style="fill:none;stroke:#1a1a1a;stroke-linecap:round;stroke-width:1.2;"/>
   </g>
   <g id="patch_3">
    <path d="M 144 28.8 
L 406.588235 28.8 
" style="fill:none;stroke:#cccccc;stroke-linecap:square;stroke-linejoin:miter;"/>
   </g>
   <g id="patch_4">
    <path d="M 406.588235 252 
L 406.588235 28.8 
" style="fill:none;stroke:#cccccc;stroke-linecap:square;stroke-linejoin:miter;"/>
   </g>
   <g id="patch_5">
    <path d="M 144 252 
L 406.588235 252 
" style="fill:none;stroke:#cccccc;stroke-linecap:square;stroke-linejoin:miter;"/>
   </g>
   <g id="patch_6">
    <path d="M 144 252 
L 144 28.8 
" style="fill:none;stroke:#cccccc;stroke-linecap:square;stroke-linejoin:miter;"/>
   </g>
   <g id="text_16">
    <!-- Semilog Temperature Profile -->
    <defs>
     <path d="M 4.984375 -4.296875 
L 13.53125 -5.5625 
Q 14.0625 -9.515625 16.5 -11.328125 
Q 19.78125 -13.765625 25.4375 -13.765625 
Q 31.546875 -13.765625 34.859375 -11.328125 
Q 38.1875 -8.890625 39.359375 -4.5 
Q 40.046875 -1.8125 39.984375 6.78125 
Q 34.234375 0 25.640625 0 
Q 14.9375 0 9.078125 7.71875 
Q 3.21875 15.4375 3.21875 26.21875 
Q 3.21875 33.640625 5.90625 39.90625 
Q 8.59375 46.1875 13.6875 49.609375 
Q 18.796875 53.03125 25.6875 53.03125 
Q 34.859375 53.03125 40.828125 45.609375 
L 40.828125 51.859375 
L 48.921875 51.859375 
L 48.921875 7.03125 
Q 48.921875 -5.078125 46.453125 -10.125 
Q 44 -15.1875 38.640625 -18.109375 
Q 33.296875 -21.046875 25.484375 -21.046875 
Q 16.21875 -21.046875 10.5 -16.875 
Q 4.78125 -12.703125 4.984375 -4.296875 
M 12.25 26.859375 
Q 12.25 16.65625 16.296875 11.96875 
Q 20.359375 7.28125 26.46875 7.28125 
Q 32.515625 7.28125 36.609375 11.9375 
Q 40.71875 16.609375 40.71875 26.5625 
Q 40.71875 36.078125 36.5 40.90625 
Q 32.28125 45.75 26.3125 45.75 
Q 20.453125 45.75 16.34375 40.984375 
Q 12.25 36.234375 12.25 26.859375 
" id="ArialMT-67"/>
     <path d="M 8.6875 0 
L 8.6875 45.015625 
L 0.921875 45.015625 
L 0.921875 51.859375 
L 8.6875 51.859375 
L 8.6875 57.375 
Q 8.6875 62.59375 9.625 65.140625 
Q 10.890625 68.5625 14.078125 70.671875 
Q 17.28125 72.796875 23.046875 72.796875 
Q 26.765625 72.796875 31.25 71.921875 
L 29.9375 64.265625 
Q 27.203125 64.75 24.75 64.75 
Q 20.75 64.75 19.09375 63.03125 
Q 17.4375 61.328125 17.4375 56.640625 
L 17.4375 51.859375 
L 27.546875 51.859375 
L 27.546875 45.015625 
L 17.4375 45.015625 
L 17.4375 0 
z
" id="ArialMT-66"/>
     <path d="M 4.5 23 
L 13.421875 23.78125 
Q 14.0625 18.40625 16.375 14.96875 
Q 18.703125 11.53125 23.578125 9.40625 
Q 28.46875 7.28125 34.578125 7.28125 
Q 39.984375 7.28125 44.140625 8.890625 
Q 48.296875 10.5 50.3125 13.296875 
Q 52.34375 16.109375 52.34375 19.4375 
Q 52.34375 22.796875 50.390625 25.3125 
Q 48.4375 27.828125 43.953125 29.546875 
Q 41.0625 30.671875 31.203125 33.03125 
Q 21.34375 35.40625 17.390625 37.5 
Q 12.25 40.1875 9.734375 44.15625 
Q 7.234375 48.140625 7.234375 53.078125 
Q 7.234375 58.5 10.296875 63.203125 
Q 13.375 67.921875 19.28125 70.359375 
Q 25.203125 72.796875 32.421875 72.796875 
Q 40.375 72.796875 46.453125 70.234375 
Q 52.546875 67.671875 55.8125 62.6875 
Q 59.078125 57.71875 59.328125 51.421875 
L 50.25 50.734375 
Q 49.515625 57.515625 45.28125 60.984375 
Q 41.0625 64.453125 32.8125 64.453125 
Q 24.21875 64.453125 20.28125 61.296875 
Q 16.359375 58.15625 16.359375 53.71875 
Q 16.359375 49.859375 19.140625 47.359375 
Q 21.875 44.875 33.421875 42.265625 
Q 44.96875 39.65625 49.265625 37.703125 
Q 55.515625 34.8125 58.484375 30.390625 
Q 61.46875 25.984375 61.46875 20.21875 
Q 61.46875 14.5 58.203125 9.4375 
Q 54.9375 4.390625 48.796875 1.578125 
Q 42.671875 -1.21875 35.015625 -1.21875 
Q 25.296875 -1.21875 18.71875 1.609375 
Q 12.15625 4.4375 8.421875 10.125 
Q 4.6875 15.828125 4.5 23 
" id="ArialMT-53"/>
     <path d="M 6.640625 61.46875 
L 6.640625 71.578125 
L 15.4375 71.578125 
L 15.4375 61.46875 
z
M 6.640625 0 
L 6.640625 51.859375 
L 15.4375 51.859375 
L 15.4375 0 
z
" id="ArialMT-69"/>
     <path d="M 6.390625 0 
L 6.390625 71.578125 
L 15.1875 71.578125 
L 15.1875 0 
z
" id="ArialMT-6c"/>
     <path d="M 3.328125 25.921875 
Q 3.328125 40.328125 11.328125 47.265625 
Q 18.015625 53.03125 27.640625 53.03125 
Q 38.328125 53.03125 45.109375 46.015625 
Q 51.90625 39.015625 51.90625 26.65625 
Q 51.90625 16.65625 48.90625 10.90625 
Q 45.90625 5.171875 40.15625 2 
Q 34.421875 -1.171875 27.640625 -1.171875 
Q 16.75 -1.171875 10.03125 5.8125 
Q 3.328125 12.796875 3.328125 25.921875 
M 12.359375 25.921875 
Q 12.359375 15.96875 16.703125 11.015625 
Q 21.046875 6.0625 27.640625 6.0625 
Q 34.1875 6.0625 38.53125 11.03125 
Q 42.875 16.015625 42.875 26.21875 
Q 42.875 35.84375 38.5 40.796875 
Q 34.125 45.75 27.640625 45.75 
Q 21.046875 45.75 16.703125 40.8125 
Q 12.359375 35.890625 12.359375 25.921875 
" id="ArialMT-6f"/>
    </defs>
    <g style="fill:#262626;" transform="translate(148.045680147 14.872)scale(0.2 -0.2)">
     <use xlink:href="#ArialMT-53"/>
     <use x="66.69921875" xlink:href="#ArialMT-65"/>
     <use x="122.314453125" xlink:href="#ArialMT-6d"/>
     <use x="205.615234375" xlink:href="#ArialMT-69"/>
     <use x="227.83203125" xlink:href="#ArialMT-6c"/>
     <use x="250.048828125" xlink:href="#ArialMT-6f"/>
     <use x="305.6640625" xlink:href="#ArialMT-67"/>
     <use x="361.279296875" xlink:href="#ArialMT-20"/>
     <use x="389.046875" xlink:href="#ArialMT-54"/>
     <use x="449.958984375" xlink:href="#ArialMT-65"/>
     <use x="505.57421875" xlink:href="#ArialMT-6d"/>
     <use x="588.875" xlink:href="#ArialMT-70"/>
     <use x="644.490234375" xlink:href="#ArialMT-65"/>
     <use x="700.10546875" xlink:href="#ArialMT-72"/>
     <use x="733.40625" xlink:href="#ArialMT-61"/>
     <use x="789.021484375" xlink:href="#ArialMT-74"/>
     <use x="816.8046875" xlink:href="#ArialMT-75"/>
     <use x="872.419921875" xlink:href="#ArialMT-72"/>
     <use x="905.720703125" xlink:href="#ArialMT-65"/>
     <use x="961.3359375" xlink:href="#ArialMT-20"/>
     <use x="989.119140625" xlink:href="#ArialMT-50"/>
     <use x="1055.81835938" xlink:href="#ArialMT-72"/>
     <use x="1089.11914062" xlink:href="#ArialMT-6f"/>
     <use x="1144.734375" xlink:href="#ArialMT-66"/>
     <use x="1172.51757812" xlink:href="#ArialMT-69"/>
     <use x="1194.734375" xlink:href="#ArialMT-6c"/>
     <use x="1216.95117188" xlink:href="#ArialMT-65"/>
    </g>
   </g>
  </g>
  <g id="axes_2">
   <g id="patch_7">
    <path d="M 459.105882 252 
L 721.694118 252 
L 721.694118 28.8 
L 459.105882 28.8 
z
" style="fill:#ffffff;"/>
   </g>
   <g id="matplotlib.axis_3">
    <g id="xtick_10">
     <g id="line2d_100">
      <path clip-path="url(#p0084119735)" d="M 459.105882 252 
L 459.105882 28.8 
" style="fill:none;stroke:#cccccc;stroke-linecap:round;"/>
     </g>
     <g id="line2d_101"/>
     <g id="line2d_102"/>
     <g id="text_17">
      <!-- 0 -->
      <g style="fill:#262626;" transform="translate(455.769319853 267.589375)scale(0.12 -0.12)">
       <use xlink:href="#ArialMT-30"/>
      </g>
     </g>
    </g>
    <g id="xtick_11">
     <g id="line2d_103">
      <path clip-path="url(#p0084119735)" d="M 524.752941 252 
L 524.752941 28.8 
" style="fill:none;stroke:#cccccc;stroke-linecap:round;"/>
     </g>
     <g id="line2d_104"/>
     <g id="line2d_105"/>
     <g id="text_18">
      <!-- 5000 -->
      <g style="fill:#262626;" transform="translate(511.406691176 267.589375)scale(0.12 -0.12)">
       <use xlink:href="#ArialMT-35"/>
       <use x="55.615234375" xlink:href="#ArialMT-30"/>
       <use x="111.23046875" xlink:href="#ArialMT-30"/>
       <use x="166.845703125" xlink:href="#ArialMT-30"/>
      </g>
     </g>
    </g>
    <g id="xtick_12">
     <g id="line2d_106">
      <path clip-path="url(#p0084119735)" d="M 590.4 252 
L 590.4 28.8 
" style="fill:none;stroke:#cccccc;stroke-linecap:round;"/>
     </g>
     <g id="line2d_107"/>
     <g id="line2d_108"/>
     <g id="text_19">
      <!-- 10000 -->
      <g style="fill:#262626;" transform="translate(573.7171875 267.589375)scale(0.12 -0.12)">
       <use xlink:href="#ArialMT-31"/>
       <use x="55.615234375" xlink:href="#ArialMT-30"/>
       <use x="111.23046875" xlink:href="#ArialMT-30"/>
       <use x="166.845703125" xlink:href="#ArialMT-30"/>
       <use x="222.4609375" xlink:href="#ArialMT-30"/>
      </g>
     </g>
    </g>
    <g id="xtick_13">
     <g id="line2d_109">
      <path clip-path="url(#p0084119735)" d="M 656.047059 252 
L 656.047059 28.8 
" style="fill:none;stroke:#cccccc;stroke-linecap:round;"/>
     </g>
     <g id="line2d_110"/>
     <g id="line2d_111"/>
     <g id="text_20">
      <!-- 15000 -->
      <g style="fill:#262626;" transform="translate(639.364246324 267.589375)scale(0.12 -0.12)">
       <use xlink:href="#ArialMT-31"/>
       <use x="55.615234375" xlink:href="#ArialMT-35"/>
       <use x="111.23046875" xlink:href="#ArialMT-30"/>
       <use x="166.845703125" xlink:href="#ArialMT-30"/>
       <use x="222.4609375" xlink:href="#ArialMT-30"/>
      </g>
     </g>
    </g>
    <g id="xtick_14">
     <g id="line2d_112">
      <path clip-path="url(#p0084119735)" d="M 721.694118 252 
L 721.694118 28.8 
" style="fill:none;stroke:#cccccc;stroke-linecap:round;"/>
     </g>
     <g id="line2d_113"/>
     <g id="line2d_114"/>
     <g id="text_21">
      <!-- 20000 -->
      <g style="fill:#262626;" transform="translate(705.011305147 267.589375)scale(0.12 -0.12)">
       <use xlink:href="#ArialMT-32"/>
       <use x="55.615234375" xlink:href="#ArialMT-30"/>
       <use x="111.23046875" xlink:href="#ArialMT-30"/>
       <use x="166.845703125" xlink:href="#ArialMT-30"/>
       <use x="222.4609375" xlink:href="#ArialMT-30"/>
      </g>
     </g>
    </g>
    <g id="text_22">
     <!-- Wavenumber/cm$^{-1}$ -->
     <defs>
      <path d="M 40.4375 19 
L 49.078125 17.875 
Q 47.65625 8.9375 41.8125 3.875 
Q 35.984375 -1.171875 27.484375 -1.171875 
Q 16.84375 -1.171875 10.375 5.78125 
Q 3.90625 12.75 3.90625 25.734375 
Q 3.90625 34.125 6.6875 40.421875 
Q 9.46875 46.734375 15.15625 49.875 
Q 20.84375 53.03125 27.546875 53.03125 
Q 35.984375 53.03125 41.359375 48.75 
Q 46.734375 44.484375 48.25 36.625 
L 39.703125 35.296875 
Q 38.484375 40.53125 35.375 43.15625 
Q 32.28125 45.796875 27.875 45.796875 
Q 21.234375 45.796875 17.078125 41.03125 
Q 12.9375 36.28125 12.9375 25.984375 
Q 12.9375 15.53125 16.9375 10.796875 
Q 20.953125 6.0625 27.390625 6.0625 
Q 32.5625 6.0625 36.03125 9.234375 
Q 39.5 12.40625 40.4375 19 
" id="ArialMT-63"/>
      <path d="M 9.28125 0 
L 9.28125 3.515625 
Q 21.78125 3.515625 21.78125 6.6875 
L 21.78125 59.1875 
Q 16.609375 56.6875 8.6875 56.6875 
L 8.6875 60.203125 
Q 20.953125 60.203125 27.203125 66.609375 
L 28.609375 66.609375 
Q 28.953125 66.609375 29.265625 66.328125 
Q 29.59375 66.0625 29.59375 65.71875 
L 29.59375 6.6875 
Q 29.59375 3.515625 42.09375 3.515625 
L 42.09375 0 
z
" id="Cmr10-31"/>
      <path d="M 10.203125 23 
Q 9.375 23 8.828125 23.625 
Q 8.296875 24.265625 8.296875 25 
Q 8.296875 25.734375 8.828125 26.359375 
Q 9.375 27 10.203125 27 
L 67.578125 27 
Q 68.359375 27 68.875 26.359375 
Q 69.390625 25.734375 69.390625 25 
Q 69.390625 24.265625 68.875 23.625 
Q 68.359375 23 67.578125 23 
z
" id="Cmsy10-a1"/>
      <path d="M 0 -1.21875 
L 20.75 72.796875 
L 27.78125 72.796875 
L 7.078125 -1.21875 
z
" id="ArialMT-2f"/>
      <path d="M 21 0 
L 1.265625 51.859375 
L 10.546875 51.859375 
L 21.6875 20.796875 
Q 23.484375 15.765625 25 10.359375 
Q 26.171875 14.453125 28.265625 20.21875 
L 39.796875 51.859375 
L 48.828125 51.859375 
L 29.203125 0 
z
" id="ArialMT-76"/>
      <path d="M 20.21875 0 
L 1.21875 71.578125 
L 10.9375 71.578125 
L 21.828125 24.65625 
Q 23.578125 17.28125 24.859375 10.015625 
Q 27.59375 21.484375 28.078125 23.25 
L 41.703125 71.578125 
L 53.125 71.578125 
L 63.375 35.359375 
Q 67.234375 21.875 68.953125 10.015625 
Q 70.3125 16.796875 72.515625 25.59375 
L 83.734375 71.578125 
L 93.265625 71.578125 
L 73.640625 0 
L 64.5 0 
L 49.421875 54.546875 
Q 47.515625 61.375 47.171875 62.9375 
Q 46.046875 58.015625 45.0625 54.546875 
L 29.890625 0 
z
" id="ArialMT-57"/>
      <path d="M 6.59375 0 
L 6.59375 51.859375 
L 14.5 51.859375 
L 14.5 44.484375 
Q 20.21875 53.03125 31 53.03125 
Q 35.6875 53.03125 39.625 51.34375 
Q 43.5625 49.65625 45.515625 46.921875 
Q 47.46875 44.1875 48.25 40.4375 
Q 48.734375 37.984375 48.734375 31.890625 
L 48.734375 0 
L 39.9375 0 
L 39.9375 31.546875 
Q 39.9375 36.921875 38.90625 39.578125 
Q 37.890625 42.234375 35.28125 43.8125 
Q 32.671875 45.40625 29.15625 45.40625 
Q 23.53125 45.40625 19.453125 41.84375 
Q 15.375 38.28125 15.375 28.328125 
L 15.375 0 
z
" id="ArialMT-6e"/>
     </defs>
     <g style="fill:#262626;" transform="translate(533.904 284.4226875)scale(0.132 -0.132)">
      <use transform="translate(0.0 0.109375)" xlink:href="#ArialMT-57"/>
      <use transform="translate(94.384765625 0.109375)" xlink:href="#ArialMT-61"/>
      <use transform="translate(150.0 0.109375)" xlink:href="#ArialMT-76"/>
      <use transform="translate(200.0 0.109375)" xlink:href="#ArialMT-65"/>
      <use transform="translate(255.615234375 0.109375)" xlink:href="#ArialMT-6e"/>
      <use transform="translate(311.23046875 0.109375)" xlink:href="#ArialMT-75"/>
      <use transform="translate(366.845703125 0.109375)" xlink:href="#ArialMT-6d"/>
      <use transform="translate(450.146484375 0.109375)" xlink:href="#ArialMT-62"/>
      <use transform="translate(505.76171875 0.109375)" xlink:href="#ArialMT-65"/>
      <use transform="translate(561.376953125 0.109375)" xlink:href="#ArialMT-72"/>
      <use transform="translate(594.677734375 0.109375)" xlink:href="#ArialMT-2f"/>
      <use transform="translate(622.4609375 0.109375)" xlink:href="#ArialMT-63"/>
      <use transform="translate(672.4609375 0.109375)" xlink:href="#ArialMT-6d"/>
      <use transform="translate(760.225859375 38.3734375)scale(0.7)" xlink:href="#Cmsy10-a1"/>
      <use transform="translate(814.605742188 38.3734375)scale(0.7)" xlink:href="#Cmr10-31"/>
     </g>
    </g>
   </g>
   <g id="matplotlib.axis_4">
    <g id="ytick_29">
     <g id="line2d_115">
      <path clip-path="url(#p0084119735)" d="M 459.105882 252 
L 721.694118 252 
" style="fill:none;stroke:#cccccc;stroke-linecap:round;"/>
     </g>
     <g id="line2d_116"/>
     <g id="line2d_117"/>
     <g id="text_23">
      <!-- 0 -->
      <g style="fill:#262626;" transform="translate(445.432757353 255.1021875)scale(0.12 -0.12)">
       <use xlink:href="#ArialMT-30"/>
      </g>
     </g>
    </g>
    <g id="ytick_30">
     <g id="line2d_118">
      <path clip-path="url(#p0084119735)" d="M 459.105882 224.1 
L 721.694118 224.1 
" style="fill:none;stroke:#cccccc;stroke-linecap:round;"/>
     </g>
     <g id="line2d_119"/>
     <g id="line2d_120"/>
     <g id="text_24">
      <!-- 500 -->
      <g style="fill:#262626;" transform="translate(432.086507353 227.2021875)scale(0.12 -0.12)">
       <use xlink:href="#ArialMT-35"/>
       <use x="55.615234375" xlink:href="#ArialMT-30"/>
       <use x="111.23046875" xlink:href="#ArialMT-30"/>
      </g>
     </g>
    </g>
    <g id="ytick_31">
     <g id="line2d_121">
      <path clip-path="url(#p0084119735)" d="M 459.105882 196.2 
L 721.694118 196.2 
" style="fill:none;stroke:#cccccc;stroke-linecap:round;"/>
     </g>
     <g id="line2d_122"/>
     <g id="line2d_123"/>
     <g id="text_25">
      <!-- 1000 -->
      <g style="fill:#262626;" transform="translate(425.413382353 199.3021875)scale(0.12 -0.12)">
       <use xlink:href="#ArialMT-31"/>
       <use x="55.615234375" xlink:href="#ArialMT-30"/>
       <use x="111.23046875" xlink:href="#ArialMT-30"/>
       <use x="166.845703125" xlink:href="#ArialMT-30"/>
      </g>
     </g>
    </g>
    <g id="ytick_32">
     <g id="line2d_124">
      <path clip-path="url(#p0084119735)" d="M 459.105882 168.3 
L 721.694118 168.3 
" style="fill:none;stroke:#cccccc;stroke-linecap:round;"/>
     </g>
     <g id="line2d_125"/>
     <g id="line2d_126"/>
     <g id="text_26">
      <!-- 1500 -->
      <g style="fill:#262626;" transform="translate(425.413382353 171.4021875)scale(0.12 -0.12)">
       <use xlink:href="#ArialMT-31"/>
       <use x="55.615234375" xlink:href="#ArialMT-35"/>
       <use x="111.23046875" xlink:href="#ArialMT-30"/>
       <use x="166.845703125" xlink:href="#ArialMT-30"/>
      </g>
     </g>
    </g>
    <g id="ytick_33">
     <g id="line2d_127">
      <path clip-path="url(#p0084119735)" d="M 459.105882 140.4 
L 721.694118 140.4 
" style="fill:none;stroke:#cccccc;stroke-linecap:round;"/>
     </g>
     <g id="line2d_128"/>
     <g id="line2d_129"/>
     <g id="text_27">
      <!-- 2000 -->
      <g style="fill:#262626;" transform="translate(425.413382353 143.5021875)scale(0.12 -0.12)">
       <use xlink:href="#ArialMT-32"/>
       <use x="55.615234375" xlink:href="#ArialMT-30"/>
       <use x="111.23046875" xlink:href="#ArialMT-30"/>
       <use x="166.845703125" xlink:href="#ArialMT-30"/>
      </g>
     </g>
    </g>
    <g id="ytick_34">
     <g id="line2d_130">
      <path clip-path="url(#p0084119735)" d="M 459.105882 112.5 
L 721.694118 112.5 
" style="fill:none;stroke:#cccccc;stroke-linecap:round;"/>
     </g>
     <g id="line2d_131"/>
     <g id="line2d_132"/>
     <g id="text_28">
      <!-- 2500 -->
      <g style="fill:#262626;" transform="translate(425.413382353 115.6021875)scale(0.12 -0.12)">
       <use xlink:href="#ArialMT-32"/>
       <use x="55.615234375" xlink:href="#ArialMT-35"/>
       <use x="111.23046875" xlink:href="#ArialMT-30"/>
       <use x="166.845703125" xlink:href="#ArialMT-30"/>
      </g>
     </g>
    </g>
    <g id="ytick_35">
     <g id="line2d_133">
      <path clip-path="url(#p0084119735)" d="M 459.105882 84.6 
L 721.694118 84.6 
" style="fill:none;stroke:#cccccc;stroke-linecap:round;"/>
     </g>
     <g id="line2d_134"/>
     <g id="line2d_135"/>
     <g id="text_29">
      <!-- 3000 -->
      <g style="fill:#262626;" transform="translate(425.413382353 87.7021875)scale(0.12 -0.12)">
       <use xlink:href="#ArialMT-33"/>
       <use x="55.615234375" xlink:href="#ArialMT-30"/>
       <use x="111.23046875" xlink:href="#ArialMT-30"/>
       <use x="166.845703125" xlink:href="#ArialMT-30"/>
      </g>
     </g>
    </g>
    <g id="ytick_36">
     <g id="line2d_136">
      <path clip-path="url(#p0084119735)" d="M 459.105882 56.7 
L 721.694118 56.7 
" style="fill:none;stroke:#cccccc;stroke-linecap:round;"/>
     </g>
     <g id="line2d_137"/>
     <g id="line2d_138"/>
     <g id="text_30">
      <!-- 3500 -->
      <g style="fill:#262626;" transform="translate(425.413382353 59.8021875)scale(0.12 -0.12)">
       <use xlink:href="#ArialMT-33"/>
       <use x="55.615234375" xlink:href="#ArialMT-35"/>
       <use x="111.23046875" xlink:href="#ArialMT-30"/>
       <use x="166.845703125" xlink:href="#ArialMT-30"/>
      </g>
     </g>
    </g>
    <g id="ytick_37">
     <g id="line2d_139">
      <path clip-path="url(#p0084119735)" d="M 459.105882 28.8 
L 721.694118 28.8 
" style="fill:none;stroke:#cccccc;stroke-linecap:round;"/>
     </g>
     <g id="line2d_140"/>
     <g id="line2d_141"/>
     <g id="text_31">
      <!-- 4000 -->
      <g style="fill:#262626;" transform="translate(425.413382353 31.9021875)scale(0.12 -0.12)">
       <use xlink:href="#ArialMT-34"/>
       <use x="55.615234375" xlink:href="#ArialMT-30"/>
       <use x="111.23046875" xlink:href="#ArialMT-30"/>
       <use x="166.845703125" xlink:href="#ArialMT-30"/>
      </g>
     </g>
    </g>
    <g id="text_32">
     <!-- Temperature/K -->
     <g style="fill:#262626;" transform="translate(417.789882353 184.4034375)rotate(-90.0)scale(0.132 -0.132)">
      <use xlink:href="#ArialMT-54"/>
      <use x="60.912109375" xlink:href="#ArialMT-65"/>
      <use x="116.52734375" xlink:href="#ArialMT-6d"/>
      <use x="199.828125" xlink:href="#ArialMT-70"/>
      <use x="255.443359375" xlink:href="#ArialMT-65"/>
      <use x="311.05859375" xlink:href="#ArialMT-72"/>
      <use x="344.359375" xlink:href="#ArialMT-61"/>
      <use x="399.974609375" xlink:href="#ArialMT-74"/>
      <use x="427.7578125" xlink:href="#ArialMT-75"/>
      <use x="483.373046875" xlink:href="#ArialMT-72"/>
      <use x="516.673828125" xlink:href="#ArialMT-65"/>
      <use x="572.2890625" xlink:href="#ArialMT-2f"/>
      <use x="600.072265625" xlink:href="#ArialMT-4b"/>
     </g>
    </g>
   </g>
   <g id="line2d_142">
    <path clip-path="url(#p0084119735)" d="M 462.923257 -1 
L 464.488941 64.565575 
L 467.114824 98.463167 
L 469.740706 114.714839 
L 472.366588 123.64998 
L 474.992471 128.72975 
L 477.618353 131.8038 
L 480.244235 133.432196 
L 482.870118 134.109545 
L 485.496 133.9346 
L 488.121882 133.065976 
L 490.747765 131.745034 
L 493.373647 130.464828 
L 495.999529 130.028105 
L 498.625412 131.135153 
L 501.251294 133.623589 
L 503.877176 136.747558 
L 506.503059 139.445907 
L 509.128941 141.237833 
L 511.754824 142.068183 
L 514.380706 142.010274 
L 517.006588 141.302517 
L 519.632471 140.135113 
L 522.258353 138.589209 
L 524.884235 136.789465 
L 527.510118 134.666994 
L 530.136 132.146191 
L 532.761882 129.011528 
L 535.387765 125.119437 
L 538.013647 120.52538 
L 540.639529 115.173495 
L 543.265412 109.192074 
L 545.891294 102.673932 
L 548.517176 96.036781 
L 551.143059 90.054171 
L 553.768941 85.346293 
L 556.394824 82.085869 
L 559.020706 80.098596 
L 561.646588 79.031923 
L 564.272471 78.279245 
L 566.898353 77.378777 
L 569.524235 76.676448 
L 572.150118 76.431006 
L 574.776 76.422913 
L 577.401882 76.206368 
L 580.027765 75.603157 
L 582.653647 74.240634 
L 585.279529 72.411203 
L 587.905412 70.823297 
L 590.531294 69.677291 
L 593.157176 68.919163 
L 595.783059 68.446862 
L 598.408941 68.166217 
L 601.034824 68.009079 
L 603.660706 67.941887 
L 606.286588 67.92747 
L 608.912471 67.943582 
L 611.538353 67.959597 
L 614.164235 67.950341 
L 616.790118 67.941563 
L 619.416 67.951853 
L 622.041882 67.97467 
L 624.667765 67.995842 
L 627.293647 67.971071 
L 629.919529 67.903485 
L 632.545412 67.828176 
L 635.171294 67.748866 
L 637.797176 67.66821 
L 640.423059 67.595294 
L 643.048941 67.536531 
L 645.674824 67.493099 
L 648.300706 67.462883 
L 650.926588 67.442622 
L 653.552471 67.429175 
L 656.178353 67.419215 
L 658.804235 67.412553 
L 661.430118 67.407699 
L 664.056 67.403891 
L 666.681882 67.400678 
L 669.307765 67.397802 
L 671.933647 67.395126 
L 674.559529 67.392562 
L 677.185412 67.390022 
L 679.811294 67.387482 
L 682.437176 67.384924 
L 685.063059 67.38234 
L 687.688941 67.379725 
L 690.314824 67.37708 
L 692.940706 67.374404 
L 695.566588 67.371699 
L 698.192471 67.368967 
L 700.818353 67.36621 
L 703.444235 67.363431 
L 706.070118 67.360632 
L 708.696 67.357816 
L 711.321882 67.354985 
L 713.947765 67.352142 
L 716.573647 67.349288 
L 719.199529 67.346426 
" style="fill:none;stroke:#1a1a1a;stroke-linecap:round;stroke-width:1.2;"/>
   </g>
   <g id="line2d_143">
    <path clip-path="url(#p0084119735)" d="M 462.923257 -1 
L 464.488941 64.565575 
L 467.114824 98.463167 
L 469.740706 114.714839 
L 472.366588 123.64998 
L 474.992471 128.72975 
L 477.618353 131.8038 
L 480.244235 133.432196 
L 482.870118 134.109545 
L 485.496 133.9346 
L 488.121882 133.065976 
L 490.747765 131.745034 
L 493.373647 130.464828 
L 495.999529 130.028105 
L 498.625412 131.135153 
L 501.251294 133.623589 
L 503.877176 136.747558 
L 506.503059 139.445907 
L 509.128941 141.237833 
L 511.754824 142.068183 
L 514.380706 142.010274 
L 517.006588 141.302517 
L 519.632471 140.135113 
L 522.258353 138.589209 
L 524.884235 136.789465 
L 527.510118 134.666994 
L 530.136 132.146191 
L 532.761882 129.011528 
L 535.387765 125.119437 
L 538.013647 120.52538 
L 540.639529 115.173495 
L 543.265412 109.192074 
L 545.891294 102.673932 
L 548.517176 96.036781 
L 551.143059 90.054171 
L 553.768941 85.346293 
L 556.394824 82.085869 
L 559.020706 80.098596 
L 561.646588 79.031923 
L 564.272471 78.279245 
L 566.898353 77.378777 
L 569.524235 76.676448 
L 572.150118 76.431006 
L 574.776 76.422913 
L 577.401882 76.206368 
L 580.027765 75.603157 
L 582.653647 74.240634 
L 585.279529 72.411203 
L 587.905412 70.823297 
L 590.531294 69.677291 
L 593.157176 68.919163 
L 595.783059 68.446862 
L 598.408941 68.166217 
L 601.034824 68.009079 
L 603.660706 67.941887 
L 606.286588 67.92747 
L 608.912471 67.943582 
L 611.538353 67.959597 
L 614.164235 67.950341 
L 616.790118 67.941563 
L 619.416 67.951853 
L 622.041882 67.97467 
L 624.667765 67.995842 
L 627.293647 67.971071 
L 629.919529 67.903485 
L 632.545412 67.828176 
L 635.171294 67.748866 
L 637.797176 67.66821 
L 640.423059 67.595294 
L 643.048941 67.536531 
L 645.674824 67.493099 
L 648.300706 67.462883 
L 650.926588 67.442622 
L 653.552471 67.429175 
L 656.178353 67.419215 
L 658.804235 67.412553 
L 661.430118 67.407699 
L 664.056 67.403891 
L 666.681882 67.400678 
L 669.307765 67.397802 
L 671.933647 67.395126 
L 674.559529 67.392562 
L 677.185412 67.390022 
L 679.811294 67.387482 
L 682.437176 67.384924 
L 685.063059 67.38234 
L 687.688941 67.379725 
L 690.314824 67.37708 
L 692.940706 67.374404 
L 695.566588 67.371699 
L 698.192471 67.368967 
L 700.818353 67.36621 
L 703.444235 67.363431 
L 706.070118 67.360632 
L 708.696 67.357816 
L 711.321882 67.354985 
L 713.947765 67.352142 
L 716.573647 67.349288 
L 719.199529 67.346426 
" style="fill:none;stroke:#1a1a1a;stroke-linecap:round;stroke-width:1.2;"/>
   </g>
   <g id="patch_8">
    <path d="M 459.105882 28.8 
L 721.694118 28.8 
" style="fill:none;stroke:#cccccc;stroke-linecap:square;stroke-linejoin:miter;"/>
   </g>
   <g id="patch_9">
    <path d="M 721.694118 252 
L 721.694118 28.8 
" style="fill:none;stroke:#cccccc;stroke-linecap:square;stroke-linejoin:miter;"/>
   </g>
   <g id="patch_10">
    <path d="M 459.105882 252 
L 721.694118 252 
" style="fill:none;stroke:#cccccc;stroke-linecap:square;stroke-linejoin:miter;"/>
   </g>
   <g id="patch_11">
    <path d="M 459.105882 252 
L 459.105882 28.8 
" style="fill:none;stroke:#cccccc;stroke-linecap:square;stroke-linejoin:miter;"/>
   </g>
   <g id="text_33">
    <!-- Brightness Temperature -->
    <defs>
     <path d="M 7.328125 0 
L 7.328125 71.578125 
L 34.1875 71.578125 
Q 42.390625 71.578125 47.34375 69.40625 
Q 52.296875 67.234375 55.09375 62.71875 
Q 57.90625 58.203125 57.90625 53.265625 
Q 57.90625 48.6875 55.421875 44.625 
Q 52.9375 40.578125 47.90625 38.09375 
Q 54.390625 36.1875 57.875 31.59375 
Q 61.375 27 61.375 20.75 
Q 61.375 15.71875 59.25 11.390625 
Q 57.125 7.078125 54 4.734375 
Q 50.875 2.390625 46.15625 1.1875 
Q 41.453125 0 34.625 0 
z
M 16.796875 41.5 
L 32.28125 41.5 
Q 38.578125 41.5 41.3125 42.328125 
Q 44.921875 43.40625 46.75 45.890625 
Q 48.578125 48.390625 48.578125 52.15625 
Q 48.578125 55.71875 46.875 58.421875 
Q 45.171875 61.140625 41.984375 62.140625 
Q 38.8125 63.140625 31.109375 63.140625 
L 16.796875 63.140625 
z
M 16.796875 8.453125 
L 34.625 8.453125 
Q 39.203125 8.453125 41.0625 8.796875 
Q 44.34375 9.375 46.53125 10.734375 
Q 48.734375 12.109375 50.140625 14.71875 
Q 51.5625 17.328125 51.5625 20.75 
Q 51.5625 24.75 49.515625 27.703125 
Q 47.46875 30.671875 43.828125 31.859375 
Q 40.1875 33.0625 33.34375 33.0625 
L 16.796875 33.0625 
z
" id="ArialMT-42"/>
     <path d="M 6.59375 0 
L 6.59375 71.578125 
L 15.375 71.578125 
L 15.375 45.90625 
Q 21.53125 53.03125 30.90625 53.03125 
Q 36.671875 53.03125 40.921875 50.75 
Q 45.171875 48.484375 47 44.484375 
Q 48.828125 40.484375 48.828125 32.859375 
L 48.828125 0 
L 40.046875 0 
L 40.046875 32.859375 
Q 40.046875 39.453125 37.1875 42.453125 
Q 34.328125 45.453125 29.109375 45.453125 
Q 25.203125 45.453125 21.75 43.421875 
Q 18.3125 41.40625 16.84375 37.9375 
Q 15.375 34.46875 15.375 28.375 
L 15.375 0 
z
" id="ArialMT-68"/>
    </defs>
    <g style="fill:#262626;" transform="translate(483.15625 14.872)scale(0.2 -0.2)">
     <use xlink:href="#ArialMT-42"/>
     <use x="66.69921875" xlink:href="#ArialMT-72"/>
     <use x="100.0" xlink:href="#ArialMT-69"/>
     <use x="122.216796875" xlink:href="#ArialMT-67"/>
     <use x="177.83203125" xlink:href="#ArialMT-68"/>
     <use x="233.447265625" xlink:href="#ArialMT-74"/>
     <use x="261.23046875" xlink:href="#ArialMT-6e"/>
     <use x="316.845703125" xlink:href="#ArialMT-65"/>
     <use x="372.4609375" xlink:href="#ArialMT-73"/>
     <use x="422.4609375" xlink:href="#ArialMT-73"/>
     <use x="472.4609375" xlink:href="#ArialMT-20"/>
     <use x="500.228515625" xlink:href="#ArialMT-54"/>
     <use x="561.140625" xlink:href="#ArialMT-65"/>
     <use x="616.755859375" xlink:href="#ArialMT-6d"/>
     <use x="700.056640625" xlink:href="#ArialMT-70"/>
     <use x="755.671875" xlink:href="#ArialMT-65"/>
     <use x="811.287109375" xlink:href="#ArialMT-72"/>
     <use x="844.587890625" xlink:href="#ArialMT-61"/>
     <use x="900.203125" xlink:href="#ArialMT-74"/>
     <use x="927.986328125" xlink:href="#ArialMT-75"/>
     <use x="983.6015625" xlink:href="#ArialMT-72"/>
     <use x="1016.90234375" xlink:href="#ArialMT-65"/>
    </g>
   </g>
  </g>
  <g id="axes_3">
   <g id="patch_12">
    <path d="M 774.211765 252 
L 1036.8 252 
L 1036.8 28.8 
L 774.211765 28.8 
z
" style="fill:#ffffff;"/>
   </g>
   <g id="matplotlib.axis_5">
    <g id="xtick_15">
     <g id="line2d_144">
      <path clip-path="url(#p03ae18e74e)" d="M 774.211765 252 
L 774.211765 28.8 
" style="fill:none;stroke:#cccccc;stroke-linecap:round;"/>
     </g>
     <g id="line2d_145"/>
     <g id="line2d_146"/>
     <g id="text_34">
      <!-- 0 -->
      <g style="fill:#262626;" transform="translate(770.875202206 267.589375)scale(0.12 -0.12)">
       <use xlink:href="#ArialMT-30"/>
      </g>
     </g>
    </g>
    <g id="xtick_16">
     <g id="line2d_147">
      <path clip-path="url(#p03ae18e74e)" d="M 839.858824 252 
L 839.858824 28.8 
" style="fill:none;stroke:#cccccc;stroke-linecap:round;"/>
     </g>
     <g id="line2d_148"/>
     <g id="line2d_149"/>
     <g id="text_35">
      <!-- 5000 -->
      <g style="fill:#262626;" transform="translate(826.512573529 267.589375)scale(0.12 -0.12)">
       <use xlink:href="#ArialMT-35"/>
       <use x="55.615234375" xlink:href="#ArialMT-30"/>
       <use x="111.23046875" xlink:href="#ArialMT-30"/>
       <use x="166.845703125" xlink:href="#ArialMT-30"/>
      </g>
     </g>
    </g>
    <g id="xtick_17">
     <g id="line2d_150">
      <path clip-path="url(#p03ae18e74e)" d="M 905.505882 252 
L 905.505882 28.8 
" style="fill:none;stroke:#cccccc;stroke-linecap:round;"/>
     </g>
     <g id="line2d_151"/>
     <g id="line2d_152"/>
     <g id="text_36">
      <!-- 10000 -->
      <g style="fill:#262626;" transform="translate(888.823069853 267.589375)scale(0.12 -0.12)">
       <use xlink:href="#ArialMT-31"/>
       <use x="55.615234375" xlink:href="#ArialMT-30"/>
       <use x="111.23046875" xlink:href="#ArialMT-30"/>
       <use x="166.845703125" xlink:href="#ArialMT-30"/>
       <use x="222.4609375" xlink:href="#ArialMT-30"/>
      </g>
     </g>
    </g>
    <g id="xtick_18">
     <g id="line2d_153">
      <path clip-path="url(#p03ae18e74e)" d="M 971.152941 252 
L 971.152941 28.8 
" style="fill:none;stroke:#cccccc;stroke-linecap:round;"/>
     </g>
     <g id="line2d_154"/>
     <g id="line2d_155"/>
     <g id="text_37">
      <!-- 15000 -->
      <g style="fill:#262626;" transform="translate(954.470128676 267.589375)scale(0.12 -0.12)">
       <use xlink:href="#ArialMT-31"/>
       <use x="55.615234375" xlink:href="#ArialMT-35"/>
       <use x="111.23046875" xlink:href="#ArialMT-30"/>
       <use x="166.845703125" xlink:href="#ArialMT-30"/>
       <use x="222.4609375" xlink:href="#ArialMT-30"/>
      </g>
     </g>
    </g>
    <g id="xtick_19">
     <g id="line2d_156">
      <path clip-path="url(#p03ae18e74e)" d="M 1036.8 252 
L 1036.8 28.8 
" style="fill:none;stroke:#cccccc;stroke-linecap:round;"/>
     </g>
     <g id="line2d_157"/>
     <g id="line2d_158"/>
     <g id="text_38">
      <!-- 20000 -->
      <g style="fill:#262626;" transform="translate(1020.1171875 267.589375)scale(0.12 -0.12)">
       <use xlink:href="#ArialMT-32"/>
       <use x="55.615234375" xlink:href="#ArialMT-30"/>
       <use x="111.23046875" xlink:href="#ArialMT-30"/>
       <use x="166.845703125" xlink:href="#ArialMT-30"/>
       <use x="222.4609375" xlink:href="#ArialMT-30"/>
      </g>
     </g>
    </g>
    <g id="text_39">
     <!-- Wavenumber/cm$^{-1}$ -->
     <g style="fill:#262626;" transform="translate(849.009882353 284.4226875)scale(0.132 -0.132)">
      <use transform="translate(0.0 0.109375)" xlink:href="#ArialMT-57"/>
      <use transform="translate(94.384765625 0.109375)" xlink:href="#ArialMT-61"/>
      <use transform="translate(150.0 0.109375)" xlink:href="#ArialMT-76"/>
      <use transform="translate(200.0 0.109375)" xlink:href="#ArialMT-65"/>
      <use transform="translate(255.615234375 0.109375)" xlink:href="#ArialMT-6e"/>
      <use transform="translate(311.23046875 0.109375)" xlink:href="#ArialMT-75"/>
      <use transform="translate(366.845703125 0.109375)" xlink:href="#ArialMT-6d"/>
      <use transform="translate(450.146484375 0.109375)" xlink:href="#ArialMT-62"/>
      <use transform="translate(505.76171875 0.109375)" xlink:href="#ArialMT-65"/>
      <use transform="translate(561.376953125 0.109375)" xlink:href="#ArialMT-72"/>
      <use transform="translate(594.677734375 0.109375)" xlink:href="#ArialMT-2f"/>
      <use transform="translate(622.4609375 0.109375)" xlink:href="#ArialMT-63"/>
      <use transform="translate(672.4609375 0.109375)" xlink:href="#ArialMT-6d"/>
      <use transform="translate(760.225859375 38.3734375)scale(0.7)" xlink:href="#Cmsy10-a1"/>
      <use transform="translate(814.605742188 38.3734375)scale(0.7)" xlink:href="#Cmr10-31"/>
     </g>
    </g>
   </g>
   <g id="matplotlib.axis_6">
    <g id="ytick_38">
     <g id="line2d_159">
      <path clip-path="url(#p03ae18e74e)" d="M 774.211765 28.8 
L 1036.8 28.8 
" style="fill:none;stroke:#cccccc;stroke-linecap:round;"/>
     </g>
     <g id="line2d_160"/>
     <g id="line2d_161"/>
     <g id="text_40">
      <!-- $\mathdefault{10^{-2}}$ -->
      <g style="fill:#262626;" transform="translate(744.771764706 32.295)scale(0.12 -0.12)">
       <use transform="translate(0.0 0.884375)" xlink:href="#ArialMT-31"/>
       <use transform="translate(55.615234375 0.884375)" xlink:href="#ArialMT-30"/>
       <use transform="translate(116.4575 45.6875)scale(0.7)" xlink:href="#ArialMT-2d"/>
       <use transform="translate(139.768046875 45.6875)scale(0.7)" xlink:href="#ArialMT-32"/>
      </g>
     </g>
    </g>
    <g id="ytick_39">
     <g id="line2d_162">
      <path clip-path="url(#p03ae18e74e)" d="M 774.211765 103.2 
L 1036.8 103.2 
" style="fill:none;stroke:#cccccc;stroke-linecap:round;"/>
     </g>
     <g id="line2d_163"/>
     <g id="line2d_164"/>
     <g id="text_41">
      <!-- $\mathdefault{10^{-1}}$ -->
      <g style="fill:#262626;" transform="translate(744.771764706 106.695)scale(0.12 -0.12)">
       <use transform="translate(0.0 0.884375)" xlink:href="#ArialMT-31"/>
       <use transform="translate(55.615234375 0.884375)" xlink:href="#ArialMT-30"/>
       <use transform="translate(116.4575 45.6875)scale(0.7)" xlink:href="#ArialMT-2d"/>
       <use transform="translate(139.768046875 45.6875)scale(0.7)" xlink:href="#ArialMT-31"/>
      </g>
     </g>
    </g>
    <g id="ytick_40">
     <g id="line2d_165">
      <path clip-path="url(#p03ae18e74e)" d="M 774.211765 177.6 
L 1036.8 177.6 
" style="fill:none;stroke:#cccccc;stroke-linecap:round;"/>
     </g>
     <g id="line2d_166"/>
     <g id="line2d_167"/>
     <g id="text_42">
      <!-- $\mathdefault{10^{0}}$ -->
      <g style="fill:#262626;" transform="translate(747.651764706 181.095)scale(0.12 -0.12)">
       <use transform="translate(0.0 0.884375)" xlink:href="#ArialMT-31"/>
       <use transform="translate(55.615234375 0.884375)" xlink:href="#ArialMT-30"/>
       <use transform="translate(116.4575 45.6875)scale(0.7)" xlink:href="#ArialMT-30"/>
      </g>
     </g>
    </g>
    <g id="ytick_41">
     <g id="line2d_168">
      <path clip-path="url(#p03ae18e74e)" d="M 774.211765 252 
L 1036.8 252 
" style="fill:none;stroke:#cccccc;stroke-linecap:round;"/>
     </g>
     <g id="line2d_169"/>
     <g id="line2d_170"/>
     <g id="text_43">
      <!-- $\mathdefault{10^{1}}$ -->
      <g style="fill:#262626;" transform="translate(747.651764706 255.495)scale(0.12 -0.12)">
       <use transform="translate(0.0 0.884375)" xlink:href="#ArialMT-31"/>
       <use transform="translate(55.615234375 0.884375)" xlink:href="#ArialMT-30"/>
       <use transform="translate(116.4575 45.6875)scale(0.7)" xlink:href="#ArialMT-31"/>
      </g>
     </g>
    </g>
    <g id="ytick_42">
     <g id="line2d_171"/>
     <g id="line2d_172"/>
    </g>
    <g id="ytick_43">
     <g id="line2d_173"/>
     <g id="line2d_174"/>
    </g>
    <g id="ytick_44">
     <g id="line2d_175"/>
     <g id="line2d_176"/>
    </g>
    <g id="ytick_45">
     <g id="line2d_177"/>
     <g id="line2d_178"/>
    </g>
    <g id="ytick_46">
     <g id="line2d_179"/>
     <g id="line2d_180"/>
    </g>
    <g id="ytick_47">
     <g id="line2d_181"/>
     <g id="line2d_182"/>
    </g>
    <g id="ytick_48">
     <g id="line2d_183"/>
     <g id="line2d_184"/>
    </g>
    <g id="ytick_49">
     <g id="line2d_185"/>
     <g id="line2d_186"/>
    </g>
    <g id="ytick_50">
     <g id="line2d_187"/>
     <g id="line2d_188"/>
    </g>
    <g id="ytick_51">
     <g id="line2d_189"/>
     <g id="line2d_190"/>
    </g>
    <g id="ytick_52">
     <g id="line2d_191"/>
     <g id="line2d_192"/>
    </g>
    <g id="ytick_53">
     <g id="line2d_193"/>
     <g id="line2d_194"/>
    </g>
    <g id="ytick_54">
     <g id="line2d_195"/>
     <g id="line2d_196"/>
    </g>
    <g id="ytick_55">
     <g id="line2d_197"/>
     <g id="line2d_198"/>
    </g>
    <g id="ytick_56">
     <g id="line2d_199"/>
     <g id="line2d_200"/>
    </g>
    <g id="ytick_57">
     <g id="line2d_201"/>
     <g id="line2d_202"/>
    </g>
    <g id="ytick_58">
     <g id="line2d_203"/>
     <g id="line2d_204"/>
    </g>
    <g id="ytick_59">
     <g id="line2d_205"/>
     <g id="line2d_206"/>
    </g>
    <g id="ytick_60">
     <g id="line2d_207"/>
     <g id="line2d_208"/>
    </g>
    <g id="ytick_61">
     <g id="line2d_209"/>
     <g id="line2d_210"/>
    </g>
    <g id="ytick_62">
     <g id="line2d_211"/>
     <g id="line2d_212"/>
    </g>
    <g id="ytick_63">
     <g id="line2d_213"/>
     <g id="line2d_214"/>
    </g>
    <g id="ytick_64">
     <g id="line2d_215"/>
     <g id="line2d_216"/>
    </g>
    <g id="ytick_65">
     <g id="line2d_217"/>
     <g id="line2d_218"/>
    </g>
    <g id="text_44">
     <!-- Level/bar -->
     <defs>
      <path d="M 7.328125 0 
L 7.328125 71.578125 
L 16.796875 71.578125 
L 16.796875 8.453125 
L 52.046875 8.453125 
L 52.046875 0 
z
" id="ArialMT-4c"/>
     </defs>
     <g style="fill:#262626;" transform="translate(737.148264706 167.5486875)rotate(-90.0)scale(0.132 -0.132)">
      <use xlink:href="#ArialMT-4c"/>
      <use x="55.615234375" xlink:href="#ArialMT-65"/>
      <use x="111.23046875" xlink:href="#ArialMT-76"/>
      <use x="161.23046875" xlink:href="#ArialMT-65"/>
      <use x="216.845703125" xlink:href="#ArialMT-6c"/>
      <use x="239.0625" xlink:href="#ArialMT-2f"/>
      <use x="266.845703125" xlink:href="#ArialMT-62"/>
      <use x="322.4609375" xlink:href="#ArialMT-61"/>
      <use x="378.076171875" xlink:href="#ArialMT-72"/>
     </g>
    </g>
   </g>
   <g id="line2d_219">
    <path clip-path="url(#p03ae18e74e)" d="M 774.343059 251.838037 
L 776.968941 251.838037 
L 779.594824 251.838037 
L 782.220706 237.111957 
L 784.846588 217.477184 
L 787.472471 212.56849 
L 790.098353 202.751103 
L 792.724235 202.751103 
L 795.350118 197.84241 
L 797.976 197.84241 
L 800.601882 197.84241 
L 803.227765 197.84241 
L 805.853647 202.751103 
L 808.479529 202.751103 
L 811.105412 202.751103 
L 813.731294 202.751103 
L 816.357176 197.84241 
L 818.983059 192.933717 
L 821.608941 188.025023 
L 824.234824 183.11633 
L 826.860706 168.39025 
L 829.486588 168.39025 
L 832.112471 183.11633 
L 834.738353 178.207637 
L 837.364235 188.025023 
L 839.990118 192.933717 
L 842.616 197.84241 
L 845.241882 202.751103 
L 847.867765 202.751103 
L 850.493647 207.659797 
L 853.119529 212.56849 
L 855.745412 217.477184 
L 858.371294 227.29457 
L 860.997176 232.203264 
L 863.623059 237.111957 
L 866.248941 242.02065 
L 868.874824 246.929344 
L 871.500706 246.929344 
L 874.126588 251.838037 
L 876.752471 251.838037 
L 879.378353 251.838037 
L 882.004235 251.838037 
L 884.630118 251.838037 
L 887.256 251.838037 
L 889.881882 251.838037 
L 892.507765 251.838037 
L 895.133647 251.838037 
L 897.759529 251.838037 
L 900.385412 251.838037 
L 903.011294 251.838037 
L 905.637176 251.838037 
L 908.263059 251.838037 
L 910.888941 251.838037 
L 913.514824 251.838037 
L 916.140706 251.838037 
L 918.766588 251.838037 
L 921.392471 251.838037 
L 924.018353 251.838037 
L 926.644235 251.838037 
L 929.270118 251.838037 
L 931.896 251.838037 
L 934.521882 251.838037 
L 937.147765 251.838037 
L 939.773647 251.838037 
L 942.399529 251.838037 
L 945.025412 251.838037 
L 947.651294 251.838037 
L 950.277176 251.838037 
L 952.903059 251.838037 
L 955.528941 251.838037 
L 958.154824 251.838037 
L 960.780706 251.838037 
L 963.406588 251.838037 
L 966.032471 251.838037 
L 968.658353 251.838037 
L 971.284235 251.838037 
L 973.910118 251.838037 
L 976.536 251.838037 
L 979.161882 251.838037 
L 981.787765 251.838037 
L 984.413647 251.838037 
L 987.039529 251.838037 
L 989.665412 251.838037 
L 992.291294 251.838037 
L 994.917176 251.838037 
L 997.543059 251.838037 
L 1000.168941 251.838037 
L 1002.794824 251.838037 
L 1005.420706 251.838037 
L 1008.046588 251.838037 
L 1010.672471 251.838037 
L 1013.298353 251.838037 
L 1015.924235 251.838037 
L 1018.550118 251.838037 
L 1021.176 251.838037 
L 1023.801882 251.838037 
L 1026.427765 251.838037 
L 1029.053647 251.838037 
L 1031.679529 251.838037 
L 1034.305412 251.838037 
" style="fill:none;stroke:#1a1a1a;stroke-linecap:round;stroke-width:1.2;"/>
   </g>
   <g id="patch_13">
    <path d="M 774.211765 28.8 
L 1036.8 28.8 
" style="fill:none;stroke:#cccccc;stroke-linecap:square;stroke-linejoin:miter;"/>
   </g>
   <g id="patch_14">
    <path d="M 1036.8 252 
L 1036.8 28.8 
" style="fill:none;stroke:#cccccc;stroke-linecap:square;stroke-linejoin:miter;"/>
   </g>
   <g id="patch_15">
    <path d="M 774.211765 252 
L 1036.8 252 
" style="fill:none;stroke:#cccccc;stroke-linecap:square;stroke-linejoin:miter;"/>
   </g>
   <g id="patch_16">
    <path d="M 774.211765 252 
L 774.211765 28.8 
" style="fill:none;stroke:#cccccc;stroke-linecap:square;stroke-linejoin:miter;"/>
   </g>
   <g id="text_45">
    <!-- Radiating Level -->
    <defs>
     <path d="M 7.859375 0 
L 7.859375 71.578125 
L 39.59375 71.578125 
Q 49.171875 71.578125 54.140625 69.640625 
Q 59.125 67.71875 62.109375 62.828125 
Q 65.09375 57.953125 65.09375 52.046875 
Q 65.09375 44.4375 60.15625 39.203125 
Q 55.21875 33.984375 44.921875 32.5625 
Q 48.6875 30.765625 50.640625 29 
Q 54.78125 25.203125 58.5 19.484375 
L 70.953125 0 
L 59.03125 0 
L 49.5625 14.890625 
Q 45.40625 21.34375 42.71875 24.75 
Q 40.046875 28.171875 37.921875 29.53125 
Q 35.796875 30.90625 33.59375 31.453125 
Q 31.984375 31.78125 28.328125 31.78125 
L 17.328125 31.78125 
L 17.328125 0 
z
M 17.328125 39.984375 
L 37.703125 39.984375 
Q 44.1875 39.984375 47.84375 41.328125 
Q 51.515625 42.671875 53.421875 45.625 
Q 55.328125 48.578125 55.328125 52.046875 
Q 55.328125 57.125 51.640625 60.390625 
Q 47.953125 63.671875 39.984375 63.671875 
L 17.328125 63.671875 
z
" id="ArialMT-52"/>
     <path d="M 40.234375 0 
L 40.234375 6.546875 
Q 35.296875 -1.171875 25.734375 -1.171875 
Q 19.53125 -1.171875 14.328125 2.25 
Q 9.125 5.671875 6.265625 11.796875 
Q 3.421875 17.921875 3.421875 25.875 
Q 3.421875 33.640625 6 39.96875 
Q 8.59375 46.296875 13.765625 49.65625 
Q 18.953125 53.03125 25.34375 53.03125 
Q 30.03125 53.03125 33.6875 51.046875 
Q 37.359375 49.078125 39.65625 45.90625 
L 39.65625 71.578125 
L 48.390625 71.578125 
L 48.390625 0 
z
M 12.453125 25.875 
Q 12.453125 15.921875 16.640625 10.984375 
Q 20.84375 6.0625 26.5625 6.0625 
Q 32.328125 6.0625 36.34375 10.765625 
Q 40.375 15.484375 40.375 25.140625 
Q 40.375 35.796875 36.265625 40.765625 
Q 32.171875 45.75 26.171875 45.75 
Q 20.3125 45.75 16.375 40.96875 
Q 12.453125 36.1875 12.453125 25.875 
" id="ArialMT-64"/>
    </defs>
    <g style="fill:#262626;" transform="translate(836.574632353 14.872)scale(0.2 -0.2)">
     <use xlink:href="#ArialMT-52"/>
     <use x="72.216796875" xlink:href="#ArialMT-61"/>
     <use x="127.83203125" xlink:href="#ArialMT-64"/>
     <use x="183.447265625" xlink:href="#ArialMT-69"/>
     <use x="205.6640625" xlink:href="#ArialMT-61"/>
     <use x="261.279296875" xlink:href="#ArialMT-74"/>
     <use x="289.0625" xlink:href="#ArialMT-69"/>
     <use x="311.279296875" xlink:href="#ArialMT-6e"/>
     <use x="366.89453125" xlink:href="#ArialMT-67"/>
     <use x="422.509765625" xlink:href="#ArialMT-20"/>
     <use x="450.29296875" xlink:href="#ArialMT-4c"/>
     <use x="505.908203125" xlink:href="#ArialMT-65"/>
     <use x="561.5234375" xlink:href="#ArialMT-76"/>
     <use x="611.5234375" xlink:href="#ArialMT-65"/>
     <use x="667.138671875" xlink:href="#ArialMT-6c"/>
    </g>
   </g>
  </g>
 </g>
 <defs>
  <clipPath id="p6ee3ed3d56">
   <rect height="223.2" width="262.588235294" x="144.0" y="28.8"/>
  </clipPath>
  <clipPath id="p03ae18e74e">
   <rect height="223.2" width="262.588235294" x="774.211764706" y="28.8"/>
  </clipPath>
  <clipPath id="p0084119735">
   <rect height="223.2" width="262.588235294" x="459.105882353" y="28.8"/>
  </clipPath>
 </defs>
</svg>
