<?xml version="1.0" encoding="utf-8" standalone="no"?>
<!DOCTYPE svg PUBLIC "-//W3C//DTD SVG 1.1//EN"
  "http://www.w3.org/Graphics/SVG/1.1/DTD/svg11.dtd">
<!-- Created with matplotlib (http://matplotlib.org/) -->
<svg height="288pt" version="1.1" viewBox="0 0 1152 288" width="1152pt" xmlns="http://www.w3.org/2000/svg" xmlns:xlink="http://www.w3.org/1999/xlink">
 <defs>
  <style type="text/css">
*{stroke-linecap:butt;stroke-linejoin:round;stroke-miterlimit:100000;}
  </style>
 </defs>
 <g id="figure_1">
  <g id="patch_1">
   <path d="M 0 288 
L 1152 288 
L 1152 0 
L 0 0 
z
" style="fill:#ffffff;"/>
  </g>
  <g id="axes_1">
   <g id="patch_2">
    <path d="M 144 252 
L 406.588235 252 
L 406.588235 28.8 
L 144 28.8 
z
" style="fill:#ffffff;"/>
   </g>
   <g id="matplotlib.axis_1">
    <g id="xtick_1">
     <g id="line2d_1">
      <path clip-path="url(#pa6fb1b75e6)" d="M 144 252 
L 144 28.8 
" style="fill:none;stroke:#cccccc;stroke-linecap:round;"/>
     </g>
     <g id="line2d_2"/>
     <g id="line2d_3"/>
     <g id="text_1">
      <!-- 3.6 -->
      <defs>
       <path d="M 9.078125 0 
L 9.078125 10.015625 
L 19.09375 10.015625 
L 19.09375 0 
z
" id="ArialMT-2e"/>
       <path d="M 4.203125 18.890625 
L 12.984375 20.0625 
Q 14.5 12.59375 18.140625 9.296875 
Q 21.78125 6 27 6 
Q 33.203125 6 37.46875 10.296875 
Q 41.75 14.59375 41.75 20.953125 
Q 41.75 27 37.796875 30.921875 
Q 33.84375 34.859375 27.734375 34.859375 
Q 25.25 34.859375 21.53125 33.890625 
L 22.515625 41.609375 
Q 23.390625 41.5 23.921875 41.5 
Q 29.546875 41.5 34.03125 44.421875 
Q 38.53125 47.359375 38.53125 53.46875 
Q 38.53125 58.296875 35.25 61.46875 
Q 31.984375 64.65625 26.8125 64.65625 
Q 21.6875 64.65625 18.265625 61.421875 
Q 14.84375 58.203125 13.875 51.765625 
L 5.078125 53.328125 
Q 6.6875 62.15625 12.390625 67.015625 
Q 18.109375 71.875 26.609375 71.875 
Q 32.46875 71.875 37.390625 69.359375 
Q 42.328125 66.84375 44.9375 62.5 
Q 47.5625 58.15625 47.5625 53.265625 
Q 47.5625 48.640625 45.0625 44.828125 
Q 42.578125 41.015625 37.703125 38.765625 
Q 44.046875 37.3125 47.5625 32.6875 
Q 51.078125 28.078125 51.078125 21.140625 
Q 51.078125 11.765625 44.234375 5.25 
Q 37.40625 -1.265625 26.953125 -1.265625 
Q 17.53125 -1.265625 11.296875 4.34375 
Q 5.078125 9.96875 4.203125 18.890625 
" id="ArialMT-33"/>
       <path d="M 49.75 54.046875 
L 41.015625 53.375 
Q 39.84375 58.546875 37.703125 60.890625 
Q 34.125 64.65625 28.90625 64.65625 
Q 24.703125 64.65625 21.53125 62.3125 
Q 17.390625 59.28125 14.984375 53.46875 
Q 12.59375 47.65625 12.5 36.921875 
Q 15.671875 41.75 20.265625 44.09375 
Q 24.859375 46.4375 29.890625 46.4375 
Q 38.671875 46.4375 44.84375 39.96875 
Q 51.03125 33.5 51.03125 23.25 
Q 51.03125 16.5 48.125 10.71875 
Q 45.21875 4.9375 40.140625 1.859375 
Q 35.0625 -1.21875 28.609375 -1.21875 
Q 17.625 -1.21875 10.6875 6.859375 
Q 3.765625 14.9375 3.765625 33.5 
Q 3.765625 54.25 11.421875 63.671875 
Q 18.109375 71.875 29.4375 71.875 
Q 37.890625 71.875 43.28125 67.140625 
Q 48.6875 62.40625 49.75 54.046875 
M 13.875 23.1875 
Q 13.875 18.65625 15.796875 14.5 
Q 17.71875 10.359375 21.1875 8.171875 
Q 24.65625 6 28.46875 6 
Q 34.03125 6 38.03125 10.484375 
Q 42.046875 14.984375 42.046875 22.703125 
Q 42.046875 30.125 38.078125 34.390625 
Q 34.125 38.671875 28.125 38.671875 
Q 22.171875 38.671875 18.015625 34.390625 
Q 13.875 30.125 13.875 23.1875 
" id="ArialMT-36"/>
      </defs>
      <g style="fill:#262626;" transform="translate(135.66 267.589375)scale(0.12 -0.12)">
       <use xlink:href="#ArialMT-33"/>
       <use x="55.615234375" xlink:href="#ArialMT-2e"/>
       <use x="83.3984375" xlink:href="#ArialMT-36"/>
      </g>
     </g>
    </g>
    <g id="xtick_2">
     <g id="line2d_4">
      <path clip-path="url(#pa6fb1b75e6)" d="M 202.352941 252 
L 202.352941 28.8 
" style="fill:none;stroke:#cccccc;stroke-linecap:round;"/>
     </g>
     <g id="line2d_5"/>
     <g id="line2d_6"/>
     <g id="text_2">
      <!-- 3.8 -->
      <defs>
       <path d="M 17.671875 38.8125 
Q 12.203125 40.828125 9.5625 44.53125 
Q 6.9375 48.25 6.9375 53.421875 
Q 6.9375 61.234375 12.546875 66.546875 
Q 18.171875 71.875 27.484375 71.875 
Q 36.859375 71.875 42.578125 66.421875 
Q 48.296875 60.984375 48.296875 53.171875 
Q 48.296875 48.1875 45.671875 44.5 
Q 43.0625 40.828125 37.75 38.8125 
Q 44.34375 36.671875 47.78125 31.875 
Q 51.21875 27.09375 51.21875 20.453125 
Q 51.21875 11.28125 44.71875 5.03125 
Q 38.234375 -1.21875 27.640625 -1.21875 
Q 17.046875 -1.21875 10.546875 5.046875 
Q 4.046875 11.328125 4.046875 20.703125 
Q 4.046875 27.6875 7.59375 32.390625 
Q 11.140625 37.109375 17.671875 38.8125 
M 15.921875 53.71875 
Q 15.921875 48.640625 19.1875 45.40625 
Q 22.46875 42.1875 27.6875 42.1875 
Q 32.765625 42.1875 36.015625 45.375 
Q 39.265625 48.578125 39.265625 53.21875 
Q 39.265625 58.0625 35.90625 61.359375 
Q 32.5625 64.65625 27.59375 64.65625 
Q 22.5625 64.65625 19.234375 61.421875 
Q 15.921875 58.203125 15.921875 53.71875 
M 13.09375 20.65625 
Q 13.09375 16.890625 14.875 13.375 
Q 16.65625 9.859375 20.171875 7.921875 
Q 23.6875 6 27.734375 6 
Q 34.03125 6 38.125 10.046875 
Q 42.234375 14.109375 42.234375 20.359375 
Q 42.234375 26.703125 38.015625 30.859375 
Q 33.796875 35.015625 27.4375 35.015625 
Q 21.234375 35.015625 17.15625 30.90625 
Q 13.09375 26.8125 13.09375 20.65625 
" id="ArialMT-38"/>
      </defs>
      <g style="fill:#262626;" transform="translate(194.012941176 267.589375)scale(0.12 -0.12)">
       <use xlink:href="#ArialMT-33"/>
       <use x="55.615234375" xlink:href="#ArialMT-2e"/>
       <use x="83.3984375" xlink:href="#ArialMT-38"/>
      </g>
     </g>
    </g>
    <g id="xtick_3">
     <g id="line2d_7">
      <path clip-path="url(#pa6fb1b75e6)" d="M 260.705882 252 
L 260.705882 28.8 
" style="fill:none;stroke:#cccccc;stroke-linecap:round;"/>
     </g>
     <g id="line2d_8"/>
     <g id="line2d_9"/>
     <g id="text_3">
      <!-- 4.0 -->
      <defs>
       <path d="M 4.15625 35.296875 
Q 4.15625 48 6.765625 55.734375 
Q 9.375 63.484375 14.515625 67.671875 
Q 19.671875 71.875 27.484375 71.875 
Q 33.25 71.875 37.59375 69.546875 
Q 41.9375 67.234375 44.765625 62.859375 
Q 47.609375 58.5 49.21875 52.21875 
Q 50.828125 45.953125 50.828125 35.296875 
Q 50.828125 22.703125 48.234375 14.96875 
Q 45.65625 7.234375 40.5 3 
Q 35.359375 -1.21875 27.484375 -1.21875 
Q 17.140625 -1.21875 11.234375 6.203125 
Q 4.15625 15.140625 4.15625 35.296875 
M 13.1875 35.296875 
Q 13.1875 17.671875 17.3125 11.828125 
Q 21.4375 6 27.484375 6 
Q 33.546875 6 37.671875 11.859375 
Q 41.796875 17.71875 41.796875 35.296875 
Q 41.796875 52.984375 37.671875 58.78125 
Q 33.546875 64.59375 27.390625 64.59375 
Q 21.34375 64.59375 17.71875 59.46875 
Q 13.1875 52.9375 13.1875 35.296875 
" id="ArialMT-30"/>
       <path d="M 32.328125 0 
L 32.328125 17.140625 
L 1.265625 17.140625 
L 1.265625 25.203125 
L 33.9375 71.578125 
L 41.109375 71.578125 
L 41.109375 25.203125 
L 50.78125 25.203125 
L 50.78125 17.140625 
L 41.109375 17.140625 
L 41.109375 0 
z
M 32.328125 25.203125 
L 32.328125 57.46875 
L 9.90625 25.203125 
z
" id="ArialMT-34"/>
      </defs>
      <g style="fill:#262626;" transform="translate(252.365882353 267.589375)scale(0.12 -0.12)">
       <use xlink:href="#ArialMT-34"/>
       <use x="55.615234375" xlink:href="#ArialMT-2e"/>
       <use x="83.3984375" xlink:href="#ArialMT-30"/>
      </g>
     </g>
    </g>
    <g id="xtick_4">
     <g id="line2d_10">
      <path clip-path="url(#pa6fb1b75e6)" d="M 319.058824 252 
L 319.058824 28.8 
" style="fill:none;stroke:#cccccc;stroke-linecap:round;"/>
     </g>
     <g id="line2d_11"/>
     <g id="line2d_12"/>
     <g id="text_4">
      <!-- 4.2 -->
      <defs>
       <path d="M 50.34375 8.453125 
L 50.34375 0 
L 3.03125 0 
Q 2.9375 3.171875 4.046875 6.109375 
Q 5.859375 10.9375 9.828125 15.625 
Q 13.8125 20.3125 21.34375 26.46875 
Q 33.015625 36.03125 37.109375 41.625 
Q 41.21875 47.21875 41.21875 52.203125 
Q 41.21875 57.421875 37.46875 61 
Q 33.734375 64.59375 27.734375 64.59375 
Q 21.390625 64.59375 17.578125 60.78125 
Q 13.765625 56.984375 13.71875 50.25 
L 4.6875 51.171875 
Q 5.609375 61.28125 11.65625 66.578125 
Q 17.71875 71.875 27.9375 71.875 
Q 38.234375 71.875 44.234375 66.15625 
Q 50.25 60.453125 50.25 52 
Q 50.25 47.703125 48.484375 43.546875 
Q 46.734375 39.40625 42.65625 34.8125 
Q 38.578125 30.21875 29.109375 22.21875 
Q 21.1875 15.578125 18.9375 13.203125 
Q 16.703125 10.84375 15.234375 8.453125 
z
" id="ArialMT-32"/>
      </defs>
      <g style="fill:#262626;" transform="translate(310.718823529 267.589375)scale(0.12 -0.12)">
       <use xlink:href="#ArialMT-34"/>
       <use x="55.615234375" xlink:href="#ArialMT-2e"/>
       <use x="83.3984375" xlink:href="#ArialMT-32"/>
      </g>
     </g>
    </g>
    <g id="xtick_5">
     <g id="line2d_13">
      <path clip-path="url(#pa6fb1b75e6)" d="M 377.411765 252 
L 377.411765 28.8 
" style="fill:none;stroke:#cccccc;stroke-linecap:round;"/>
     </g>
     <g id="line2d_14"/>
     <g id="line2d_15"/>
     <g id="text_5">
      <!-- 4.4 -->
      <g style="fill:#262626;" transform="translate(369.071764706 267.589375)scale(0.12 -0.12)">
       <use xlink:href="#ArialMT-34"/>
       <use x="55.615234375" xlink:href="#ArialMT-2e"/>
       <use x="83.3984375" xlink:href="#ArialMT-34"/>
      </g>
     </g>
    </g>
    <g id="text_6">
     <!-- Flux -->
     <defs>
      <path d="M 6.390625 0 
L 6.390625 71.578125 
L 15.1875 71.578125 
L 15.1875 0 
z
" id="ArialMT-6c"/>
      <path d="M 40.578125 0 
L 40.578125 7.625 
Q 34.515625 -1.171875 24.125 -1.171875 
Q 19.53125 -1.171875 15.546875 0.578125 
Q 11.578125 2.34375 9.640625 5 
Q 7.71875 7.671875 6.9375 11.53125 
Q 6.390625 14.109375 6.390625 19.734375 
L 6.390625 51.859375 
L 15.1875 51.859375 
L 15.1875 23.09375 
Q 15.1875 16.21875 15.71875 13.8125 
Q 16.546875 10.359375 19.234375 8.375 
Q 21.921875 6.390625 25.875 6.390625 
Q 29.828125 6.390625 33.296875 8.421875 
Q 36.765625 10.453125 38.203125 13.9375 
Q 39.65625 17.4375 39.65625 24.078125 
L 39.65625 51.859375 
L 48.4375 51.859375 
L 48.4375 0 
z
" id="ArialMT-75"/>
      <path d="M 0.734375 0 
L 19.671875 26.953125 
L 2.15625 51.859375 
L 13.140625 51.859375 
L 21.09375 39.703125 
Q 23.34375 36.234375 24.703125 33.890625 
Q 26.859375 37.109375 28.65625 39.59375 
L 37.40625 51.859375 
L 47.90625 51.859375 
L 29.984375 27.4375 
L 49.265625 0 
L 38.484375 0 
L 27.828125 16.109375 
L 25 20.453125 
L 11.375 0 
z
" id="ArialMT-78"/>
      <path d="M 8.203125 0 
L 8.203125 71.578125 
L 56.5 71.578125 
L 56.5 63.140625 
L 17.671875 63.140625 
L 17.671875 40.96875 
L 51.265625 40.96875 
L 51.265625 32.515625 
L 17.671875 32.515625 
L 17.671875 0 
z
" id="ArialMT-46"/>
     </defs>
     <g style="fill:#262626;" transform="translate(262.826305147 284.4226875)scale(0.132 -0.132)">
      <use xlink:href="#ArialMT-46"/>
      <use x="61.083984375" xlink:href="#ArialMT-6c"/>
      <use x="83.30078125" xlink:href="#ArialMT-75"/>
      <use x="138.916015625" xlink:href="#ArialMT-78"/>
     </g>
    </g>
   </g>
   <g id="matplotlib.axis_2">
    <g id="ytick_1">
     <g id="line2d_16">
      <path clip-path="url(#pa6fb1b75e6)" d="M 144 28.8 
L 406.588235 28.8 
" style="fill:none;stroke:#cccccc;stroke-linecap:round;"/>
     </g>
     <g id="line2d_17"/>
     <g id="line2d_18"/>
     <g id="text_7">
      <!-- $\mathdefault{10^{-2}}$ -->
      <defs>
       <path d="M 37.25 0 
L 28.46875 0 
L 28.46875 56 
Q 25.296875 52.984375 20.140625 49.953125 
Q 14.984375 46.921875 10.890625 45.40625 
L 10.890625 53.90625 
Q 18.265625 57.375 23.78125 62.296875 
Q 29.296875 67.234375 31.59375 71.875 
L 37.25 71.875 
z
" id="ArialMT-31"/>
       <path d="M 3.171875 21.484375 
L 3.171875 30.328125 
L 30.171875 30.328125 
L 30.171875 21.484375 
z
" id="ArialMT-2d"/>
      </defs>
      <g style="fill:#262626;" transform="translate(114.56 32.295)scale(0.12 -0.12)">
       <use transform="translate(0.0 0.884375)" xlink:href="#ArialMT-31"/>
       <use transform="translate(55.615234375 0.884375)" xlink:href="#ArialMT-30"/>
       <use transform="translate(116.4575 45.6875)scale(0.7)" xlink:href="#ArialMT-2d"/>
       <use transform="translate(139.768046875 45.6875)scale(0.7)" xlink:href="#ArialMT-32"/>
      </g>
     </g>
    </g>
    <g id="ytick_2">
     <g id="line2d_19">
      <path clip-path="url(#pa6fb1b75e6)" d="M 144 103.2 
L 406.588235 103.2 
" style="fill:none;stroke:#cccccc;stroke-linecap:round;"/>
     </g>
     <g id="line2d_20"/>
     <g id="line2d_21"/>
     <g id="text_8">
      <!-- $\mathdefault{10^{-1}}$ -->
      <g style="fill:#262626;" transform="translate(114.56 106.695)scale(0.12 -0.12)">
       <use transform="translate(0.0 0.884375)" xlink:href="#ArialMT-31"/>
       <use transform="translate(55.615234375 0.884375)" xlink:href="#ArialMT-30"/>
       <use transform="translate(116.4575 45.6875)scale(0.7)" xlink:href="#ArialMT-2d"/>
       <use transform="translate(139.768046875 45.6875)scale(0.7)" xlink:href="#ArialMT-31"/>
      </g>
     </g>
    </g>
    <g id="ytick_3">
     <g id="line2d_22">
      <path clip-path="url(#pa6fb1b75e6)" d="M 144 177.6 
L 406.588235 177.6 
" style="fill:none;stroke:#cccccc;stroke-linecap:round;"/>
     </g>
     <g id="line2d_23"/>
     <g id="line2d_24"/>
     <g id="text_9">
      <!-- $\mathdefault{10^{0}}$ -->
      <g style="fill:#262626;" transform="translate(117.44 181.095)scale(0.12 -0.12)">
       <use transform="translate(0.0 0.884375)" xlink:href="#ArialMT-31"/>
       <use transform="translate(55.615234375 0.884375)" xlink:href="#ArialMT-30"/>
       <use transform="translate(116.4575 45.6875)scale(0.7)" xlink:href="#ArialMT-30"/>
      </g>
     </g>
    </g>
    <g id="ytick_4">
     <g id="line2d_25">
      <path clip-path="url(#pa6fb1b75e6)" d="M 144 252 
L 406.588235 252 
" style="fill:none;stroke:#cccccc;stroke-linecap:round;"/>
     </g>
     <g id="line2d_26"/>
     <g id="line2d_27"/>
     <g id="text_10">
      <!-- $\mathdefault{10^{1}}$ -->
      <g style="fill:#262626;" transform="translate(117.44 255.495)scale(0.12 -0.12)">
       <use transform="translate(0.0 0.884375)" xlink:href="#ArialMT-31"/>
       <use transform="translate(55.615234375 0.884375)" xlink:href="#ArialMT-30"/>
       <use transform="translate(116.4575 45.6875)scale(0.7)" xlink:href="#ArialMT-31"/>
      </g>
     </g>
    </g>
    <g id="ytick_5">
     <g id="line2d_28"/>
     <g id="line2d_29"/>
    </g>
    <g id="ytick_6">
     <g id="line2d_30"/>
     <g id="line2d_31"/>
    </g>
    <g id="ytick_7">
     <g id="line2d_32"/>
     <g id="line2d_33"/>
    </g>
    <g id="ytick_8">
     <g id="line2d_34"/>
     <g id="line2d_35"/>
    </g>
    <g id="ytick_9">
     <g id="line2d_36"/>
     <g id="line2d_37"/>
    </g>
    <g id="ytick_10">
     <g id="line2d_38"/>
     <g id="line2d_39"/>
    </g>
    <g id="ytick_11">
     <g id="line2d_40"/>
     <g id="line2d_41"/>
    </g>
    <g id="ytick_12">
     <g id="line2d_42"/>
     <g id="line2d_43"/>
    </g>
    <g id="ytick_13">
     <g id="line2d_44"/>
     <g id="line2d_45"/>
    </g>
    <g id="ytick_14">
     <g id="line2d_46"/>
     <g id="line2d_47"/>
    </g>
    <g id="ytick_15">
     <g id="line2d_48"/>
     <g id="line2d_49"/>
    </g>
    <g id="ytick_16">
     <g id="line2d_50"/>
     <g id="line2d_51"/>
    </g>
    <g id="ytick_17">
     <g id="line2d_52"/>
     <g id="line2d_53"/>
    </g>
    <g id="ytick_18">
     <g id="line2d_54"/>
     <g id="line2d_55"/>
    </g>
    <g id="ytick_19">
     <g id="line2d_56"/>
     <g id="line2d_57"/>
    </g>
    <g id="ytick_20">
     <g id="line2d_58"/>
     <g id="line2d_59"/>
    </g>
    <g id="ytick_21">
     <g id="line2d_60"/>
     <g id="line2d_61"/>
    </g>
    <g id="ytick_22">
     <g id="line2d_62"/>
     <g id="line2d_63"/>
    </g>
    <g id="ytick_23">
     <g id="line2d_64"/>
     <g id="line2d_65"/>
    </g>
    <g id="ytick_24">
     <g id="line2d_66"/>
     <g id="line2d_67"/>
    </g>
    <g id="ytick_25">
     <g id="line2d_68"/>
     <g id="line2d_69"/>
    </g>
    <g id="ytick_26">
     <g id="line2d_70"/>
     <g id="line2d_71"/>
    </g>
    <g id="ytick_27">
     <g id="line2d_72"/>
     <g id="line2d_73"/>
    </g>
    <g id="ytick_28">
     <g id="line2d_74"/>
     <g id="line2d_75"/>
    </g>
    <g id="text_11">
     <!-- Pressure (bar) -->
     <defs>
      <path d="M 14.703125 0 
L 6.546875 0 
L 6.546875 71.578125 
L 15.328125 71.578125 
L 15.328125 46.046875 
Q 20.90625 53.03125 29.546875 53.03125 
Q 34.328125 53.03125 38.59375 51.09375 
Q 42.875 49.171875 45.625 45.671875 
Q 48.390625 42.1875 49.953125 37.25 
Q 51.515625 32.328125 51.515625 26.703125 
Q 51.515625 13.375 44.921875 6.09375 
Q 38.328125 -1.171875 29.109375 -1.171875 
Q 19.921875 -1.171875 14.703125 6.5 
z
M 14.59375 26.3125 
Q 14.59375 17 17.140625 12.84375 
Q 21.296875 6.0625 28.375 6.0625 
Q 34.125 6.0625 38.328125 11.0625 
Q 42.53125 16.0625 42.53125 25.984375 
Q 42.53125 36.140625 38.5 40.96875 
Q 34.46875 45.796875 28.765625 45.796875 
Q 23 45.796875 18.796875 40.796875 
Q 14.59375 35.796875 14.59375 26.3125 
" id="ArialMT-62"/>
      <path d="M 40.4375 6.390625 
Q 35.546875 2.25 31.03125 0.53125 
Q 26.515625 -1.171875 21.34375 -1.171875 
Q 12.796875 -1.171875 8.203125 3 
Q 3.609375 7.171875 3.609375 13.671875 
Q 3.609375 17.484375 5.34375 20.625 
Q 7.078125 23.78125 9.890625 25.6875 
Q 12.703125 27.59375 16.21875 28.5625 
Q 18.796875 29.25 24.03125 29.890625 
Q 34.671875 31.15625 39.703125 32.90625 
Q 39.75 34.71875 39.75 35.203125 
Q 39.75 40.578125 37.25 42.78125 
Q 33.890625 45.75 27.25 45.75 
Q 21.046875 45.75 18.09375 43.578125 
Q 15.140625 41.40625 13.71875 35.890625 
L 5.125 37.0625 
Q 6.296875 42.578125 8.984375 45.96875 
Q 11.671875 49.359375 16.75 51.1875 
Q 21.828125 53.03125 28.515625 53.03125 
Q 35.15625 53.03125 39.296875 51.46875 
Q 43.453125 49.90625 45.40625 47.53125 
Q 47.359375 45.171875 48.140625 41.546875 
Q 48.578125 39.3125 48.578125 33.453125 
L 48.578125 21.734375 
Q 48.578125 9.46875 49.140625 6.21875 
Q 49.703125 2.984375 51.375 0 
L 42.1875 0 
Q 40.828125 2.734375 40.4375 6.390625 
M 39.703125 26.03125 
Q 34.90625 24.078125 25.34375 22.703125 
Q 19.921875 21.921875 17.671875 20.9375 
Q 15.4375 19.96875 14.203125 18.09375 
Q 12.984375 16.21875 12.984375 13.921875 
Q 12.984375 10.40625 15.640625 8.0625 
Q 18.3125 5.71875 23.4375 5.71875 
Q 28.515625 5.71875 32.46875 7.9375 
Q 36.421875 10.15625 38.28125 14.015625 
Q 39.703125 17 39.703125 22.796875 
z
" id="ArialMT-61"/>
      <path d="M 42.09375 16.703125 
L 51.171875 15.578125 
Q 49.03125 7.625 43.21875 3.21875 
Q 37.40625 -1.171875 28.375 -1.171875 
Q 17 -1.171875 10.328125 5.828125 
Q 3.65625 12.84375 3.65625 25.484375 
Q 3.65625 38.578125 10.390625 45.796875 
Q 17.140625 53.03125 27.875 53.03125 
Q 38.28125 53.03125 44.875 45.953125 
Q 51.46875 38.875 51.46875 26.03125 
Q 51.46875 25.25 51.421875 23.6875 
L 12.75 23.6875 
Q 13.234375 15.140625 17.578125 10.59375 
Q 21.921875 6.0625 28.421875 6.0625 
Q 33.25 6.0625 36.671875 8.59375 
Q 40.09375 11.140625 42.09375 16.703125 
M 13.234375 30.90625 
L 42.1875 30.90625 
Q 41.609375 37.453125 38.875 40.71875 
Q 34.671875 45.796875 27.984375 45.796875 
Q 21.921875 45.796875 17.796875 41.75 
Q 13.671875 37.703125 13.234375 30.90625 
" id="ArialMT-65"/>
      <path d="M 7.71875 0 
L 7.71875 71.578125 
L 34.71875 71.578125 
Q 41.84375 71.578125 45.609375 70.90625 
Q 50.875 70.015625 54.4375 67.546875 
Q 58.015625 65.09375 60.1875 60.640625 
Q 62.359375 56.203125 62.359375 50.875 
Q 62.359375 41.75 56.546875 35.421875 
Q 50.734375 29.109375 35.546875 29.109375 
L 17.1875 29.109375 
L 17.1875 0 
z
M 17.1875 37.546875 
L 35.6875 37.546875 
Q 44.875 37.546875 48.734375 40.96875 
Q 52.59375 44.390625 52.59375 50.59375 
Q 52.59375 55.078125 50.3125 58.265625 
Q 48.046875 61.46875 44.34375 62.5 
Q 41.9375 63.140625 35.5 63.140625 
L 17.1875 63.140625 
z
" id="ArialMT-50"/>
      <path d="M 6.5 0 
L 6.5 51.859375 
L 14.40625 51.859375 
L 14.40625 44 
Q 17.4375 49.515625 20 51.265625 
Q 22.5625 53.03125 25.640625 53.03125 
Q 30.078125 53.03125 34.671875 50.203125 
L 31.640625 42.046875 
Q 28.421875 43.953125 25.203125 43.953125 
Q 22.3125 43.953125 20.015625 42.21875 
Q 17.71875 40.484375 16.75 37.40625 
Q 15.28125 32.71875 15.28125 27.15625 
L 15.28125 0 
z
" id="ArialMT-72"/>
      <path d="M 3.078125 15.484375 
L 11.765625 16.84375 
Q 12.5 11.625 15.84375 8.84375 
Q 19.1875 6.0625 25.203125 6.0625 
Q 31.25 6.0625 34.171875 8.515625 
Q 37.109375 10.984375 37.109375 14.3125 
Q 37.109375 17.28125 34.515625 19 
Q 32.71875 20.171875 25.53125 21.96875 
Q 15.875 24.421875 12.140625 26.203125 
Q 8.40625 27.984375 6.46875 31.125 
Q 4.546875 34.28125 4.546875 38.09375 
Q 4.546875 41.546875 6.125 44.5 
Q 7.71875 47.46875 10.453125 49.421875 
Q 12.5 50.921875 16.03125 51.96875 
Q 19.578125 53.03125 23.640625 53.03125 
Q 29.734375 53.03125 34.34375 51.265625 
Q 38.96875 49.515625 41.15625 46.5 
Q 43.359375 43.5 44.1875 38.484375 
L 35.59375 37.3125 
Q 35.015625 41.3125 32.203125 43.546875 
Q 29.390625 45.796875 24.265625 45.796875 
Q 18.21875 45.796875 15.625 43.796875 
Q 13.03125 41.796875 13.03125 39.109375 
Q 13.03125 37.40625 14.109375 36.03125 
Q 15.1875 34.625 17.484375 33.6875 
Q 18.796875 33.203125 25.25 31.453125 
Q 34.578125 28.953125 38.25 27.359375 
Q 41.9375 25.78125 44.03125 22.75 
Q 46.140625 19.734375 46.140625 15.234375 
Q 46.140625 10.84375 43.578125 6.953125 
Q 41.015625 3.078125 36.171875 0.953125 
Q 31.34375 -1.171875 25.25 -1.171875 
Q 15.140625 -1.171875 9.84375 3.03125 
Q 4.546875 7.234375 3.078125 15.484375 
" id="ArialMT-73"/>
      <path d="M 12.359375 -21.046875 
L 6.0625 -21.046875 
Q 20.65625 2.390625 20.65625 25.875 
Q 20.65625 35.0625 18.5625 44.09375 
Q 16.890625 51.421875 13.921875 58.15625 
Q 12.015625 62.546875 6.0625 72.796875 
L 12.359375 72.796875 
Q 21.53125 60.546875 25.921875 48.1875 
Q 29.6875 37.546875 29.6875 25.921875 
Q 29.6875 12.75 24.625 0.4375 
Q 19.578125 -11.859375 12.359375 -21.046875 
" id="ArialMT-29"/>
      <path d="M 23.390625 -21.046875 
Q 16.109375 -11.859375 11.078125 0.4375 
Q 6.0625 12.75 6.0625 25.921875 
Q 6.0625 37.546875 9.8125 48.1875 
Q 14.203125 60.546875 23.390625 72.796875 
L 29.6875 72.796875 
Q 23.78125 62.640625 21.875 58.296875 
Q 18.890625 51.5625 17.1875 44.234375 
Q 15.09375 35.109375 15.09375 25.875 
Q 15.09375 2.390625 29.6875 -21.046875 
z
" id="ArialMT-28"/>
      <path id="ArialMT-20"/>
     </defs>
     <g style="fill:#262626;" transform="translate(106.7818125 182.57503125)rotate(-90.0)scale(0.132 -0.132)">
      <use xlink:href="#ArialMT-50"/>
      <use x="66.69921875" xlink:href="#ArialMT-72"/>
      <use x="100.0" xlink:href="#ArialMT-65"/>
      <use x="155.615234375" xlink:href="#ArialMT-73"/>
      <use x="205.615234375" xlink:href="#ArialMT-73"/>
      <use x="255.615234375" xlink:href="#ArialMT-75"/>
      <use x="311.23046875" xlink:href="#ArialMT-72"/>
      <use x="344.53125" xlink:href="#ArialMT-65"/>
      <use x="400.146484375" xlink:href="#ArialMT-20"/>
      <use x="427.9296875" xlink:href="#ArialMT-28"/>
      <use x="461.23046875" xlink:href="#ArialMT-62"/>
      <use x="516.845703125" xlink:href="#ArialMT-61"/>
      <use x="572.4609375" xlink:href="#ArialMT-72"/>
      <use x="605.76171875" xlink:href="#ArialMT-29"/>
     </g>
    </g>
   </g>
   <g id="line2d_76">
    <path clip-path="url(#pa6fb1b75e6)" d="M 398.618148 18.675102 
L 398.614852 30.946835 
L 398.607812 43.218569 
L 398.592778 55.490302 
L 398.560689 67.762036 
L 398.492209 80.033769 
L 398.346334 92.305502 
L 398.033905 104.577236 
L 397.375578 116.848969 
L 395.964941 129.120703 
L 393.073074 141.392436 
L 387.077577 153.66417 
L 375.813157 165.935903 
L 355.78451 178.207637 
L 328.073835 190.47937 
L 290.809692 202.751103 
L 247.827609 215.022837 
L 212.380552 227.29457 
L 171.310635 239.566304 
L 225.443624 251.838037 
" style="fill:none;stroke:#1a1a1a;stroke-linecap:round;stroke-width:1.2;"/>
   </g>
   <g id="patch_3">
    <path d="M 144 28.8 
L 406.588235 28.8 
" style="fill:none;stroke:#cccccc;stroke-linecap:square;stroke-linejoin:miter;"/>
   </g>
   <g id="patch_4">
    <path d="M 406.588235 252 
L 406.588235 28.8 
" style="fill:none;stroke:#cccccc;stroke-linecap:square;stroke-linejoin:miter;"/>
   </g>
   <g id="patch_5">
    <path d="M 144 252 
L 406.588235 252 
" style="fill:none;stroke:#cccccc;stroke-linecap:square;stroke-linejoin:miter;"/>
   </g>
   <g id="patch_6">
    <path d="M 144 252 
L 144 28.8 
" style="fill:none;stroke:#cccccc;stroke-linecap:square;stroke-linejoin:miter;"/>
   </g>
   <g id="text_12">
    <!-- Semilog Flux Profile -->
    <defs>
     <path d="M 4.984375 -4.296875 
L 13.53125 -5.5625 
Q 14.0625 -9.515625 16.5 -11.328125 
Q 19.78125 -13.765625 25.4375 -13.765625 
Q 31.546875 -13.765625 34.859375 -11.328125 
Q 38.1875 -8.890625 39.359375 -4.5 
Q 40.046875 -1.8125 39.984375 6.78125 
Q 34.234375 0 25.640625 0 
Q 14.9375 0 9.078125 7.71875 
Q 3.21875 15.4375 3.21875 26.21875 
Q 3.21875 33.640625 5.90625 39.90625 
Q 8.59375 46.1875 13.6875 49.609375 
Q 18.796875 53.03125 25.6875 53.03125 
Q 34.859375 53.03125 40.828125 45.609375 
L 40.828125 51.859375 
L 48.921875 51.859375 
L 48.921875 7.03125 
Q 48.921875 -5.078125 46.453125 -10.125 
Q 44 -15.1875 38.640625 -18.109375 
Q 33.296875 -21.046875 25.484375 -21.046875 
Q 16.21875 -21.046875 10.5 -16.875 
Q 4.78125 -12.703125 4.984375 -4.296875 
M 12.25 26.859375 
Q 12.25 16.65625 16.296875 11.96875 
Q 20.359375 7.28125 26.46875 7.28125 
Q 32.515625 7.28125 36.609375 11.9375 
Q 40.71875 16.609375 40.71875 26.5625 
Q 40.71875 36.078125 36.5 40.90625 
Q 32.28125 45.75 26.3125 45.75 
Q 20.453125 45.75 16.34375 40.984375 
Q 12.25 36.234375 12.25 26.859375 
" id="ArialMT-67"/>
     <path d="M 8.6875 0 
L 8.6875 45.015625 
L 0.921875 45.015625 
L 0.921875 51.859375 
L 8.6875 51.859375 
L 8.6875 57.375 
Q 8.6875 62.59375 9.625 65.140625 
Q 10.890625 68.5625 14.078125 70.671875 
Q 17.28125 72.796875 23.046875 72.796875 
Q 26.765625 72.796875 31.25 71.921875 
L 29.9375 64.265625 
Q 27.203125 64.75 24.75 64.75 
Q 20.75 64.75 19.09375 63.03125 
Q 17.4375 61.328125 17.4375 56.640625 
L 17.4375 51.859375 
L 27.546875 51.859375 
L 27.546875 45.015625 
L 17.4375 45.015625 
L 17.4375 0 
z
" id="ArialMT-66"/>
     <path d="M 4.5 23 
L 13.421875 23.78125 
Q 14.0625 18.40625 16.375 14.96875 
Q 18.703125 11.53125 23.578125 9.40625 
Q 28.46875 7.28125 34.578125 7.28125 
Q 39.984375 7.28125 44.140625 8.890625 
Q 48.296875 10.5 50.3125 13.296875 
Q 52.34375 16.109375 52.34375 19.4375 
Q 52.34375 22.796875 50.390625 25.3125 
Q 48.4375 27.828125 43.953125 29.546875 
Q 41.0625 30.671875 31.203125 33.03125 
Q 21.34375 35.40625 17.390625 37.5 
Q 12.25 40.1875 9.734375 44.15625 
Q 7.234375 48.140625 7.234375 53.078125 
Q 7.234375 58.5 10.296875 63.203125 
Q 13.375 67.921875 19.28125 70.359375 
Q 25.203125 72.796875 32.421875 72.796875 
Q 40.375 72.796875 46.453125 70.234375 
Q 52.546875 67.671875 55.8125 62.6875 
Q 59.078125 57.71875 59.328125 51.421875 
L 50.25 50.734375 
Q 49.515625 57.515625 45.28125 60.984375 
Q 41.0625 64.453125 32.8125 64.453125 
Q 24.21875 64.453125 20.28125 61.296875 
Q 16.359375 58.15625 16.359375 53.71875 
Q 16.359375 49.859375 19.140625 47.359375 
Q 21.875 44.875 33.421875 42.265625 
Q 44.96875 39.65625 49.265625 37.703125 
Q 55.515625 34.8125 58.484375 30.390625 
Q 61.46875 25.984375 61.46875 20.21875 
Q 61.46875 14.5 58.203125 9.4375 
Q 54.9375 4.390625 48.796875 1.578125 
Q 42.671875 -1.21875 35.015625 -1.21875 
Q 25.296875 -1.21875 18.71875 1.609375 
Q 12.15625 4.4375 8.421875 10.125 
Q 4.6875 15.828125 4.5 23 
" id="ArialMT-53"/>
     <path d="M 6.640625 61.46875 
L 6.640625 71.578125 
L 15.4375 71.578125 
L 15.4375 61.46875 
z
M 6.640625 0 
L 6.640625 51.859375 
L 15.4375 51.859375 
L 15.4375 0 
z
" id="ArialMT-69"/>
     <path d="M 3.328125 25.921875 
Q 3.328125 40.328125 11.328125 47.265625 
Q 18.015625 53.03125 27.640625 53.03125 
Q 38.328125 53.03125 45.109375 46.015625 
Q 51.90625 39.015625 51.90625 26.65625 
Q 51.90625 16.65625 48.90625 10.90625 
Q 45.90625 5.171875 40.15625 2 
Q 34.421875 -1.171875 27.640625 -1.171875 
Q 16.75 -1.171875 10.03125 5.8125 
Q 3.328125 12.796875 3.328125 25.921875 
M 12.359375 25.921875 
Q 12.359375 15.96875 16.703125 11.015625 
Q 21.046875 6.0625 27.640625 6.0625 
Q 34.1875 6.0625 38.53125 11.03125 
Q 42.875 16.015625 42.875 26.21875 
Q 42.875 35.84375 38.5 40.796875 
Q 34.125 45.75 27.640625 45.75 
Q 21.046875 45.75 16.703125 40.8125 
Q 12.359375 35.890625 12.359375 25.921875 
" id="ArialMT-6f"/>
     <path d="M 6.59375 0 
L 6.59375 51.859375 
L 14.453125 51.859375 
L 14.453125 44.578125 
Q 16.890625 48.390625 20.9375 50.703125 
Q 25 53.03125 30.171875 53.03125 
Q 35.9375 53.03125 39.625 50.640625 
Q 43.3125 48.25 44.828125 43.953125 
Q 50.984375 53.03125 60.84375 53.03125 
Q 68.5625 53.03125 72.703125 48.75 
Q 76.859375 44.484375 76.859375 35.59375 
L 76.859375 0 
L 68.109375 0 
L 68.109375 32.671875 
Q 68.109375 37.9375 67.25 40.25 
Q 66.40625 42.578125 64.15625 43.984375 
Q 61.921875 45.40625 58.890625 45.40625 
Q 53.421875 45.40625 49.796875 41.765625 
Q 46.1875 38.140625 46.1875 30.125 
L 46.1875 0 
L 37.40625 0 
L 37.40625 33.6875 
Q 37.40625 39.546875 35.25 42.46875 
Q 33.109375 45.40625 28.21875 45.40625 
Q 24.515625 45.40625 21.359375 43.453125 
Q 18.21875 41.5 16.796875 37.734375 
Q 15.375 33.984375 15.375 26.90625 
L 15.375 0 
z
" id="ArialMT-6d"/>
    </defs>
    <g style="fill:#262626;" transform="translate(186.376930147 14.872)scale(0.2 -0.2)">
     <use xlink:href="#ArialMT-53"/>
     <use x="66.69921875" xlink:href="#ArialMT-65"/>
     <use x="122.314453125" xlink:href="#ArialMT-6d"/>
     <use x="205.615234375" xlink:href="#ArialMT-69"/>
     <use x="227.83203125" xlink:href="#ArialMT-6c"/>
     <use x="250.048828125" xlink:href="#ArialMT-6f"/>
     <use x="305.6640625" xlink:href="#ArialMT-67"/>
     <use x="361.279296875" xlink:href="#ArialMT-20"/>
     <use x="389.0625" xlink:href="#ArialMT-46"/>
     <use x="450.146484375" xlink:href="#ArialMT-6c"/>
     <use x="472.36328125" xlink:href="#ArialMT-75"/>
     <use x="527.978515625" xlink:href="#ArialMT-78"/>
     <use x="577.978515625" xlink:href="#ArialMT-20"/>
     <use x="605.76171875" xlink:href="#ArialMT-50"/>
     <use x="672.4609375" xlink:href="#ArialMT-72"/>
     <use x="705.76171875" xlink:href="#ArialMT-6f"/>
     <use x="761.376953125" xlink:href="#ArialMT-66"/>
     <use x="789.16015625" xlink:href="#ArialMT-69"/>
     <use x="811.376953125" xlink:href="#ArialMT-6c"/>
     <use x="833.59375" xlink:href="#ArialMT-65"/>
    </g>
   </g>
  </g>
  <g id="axes_2">
   <g id="patch_7">
    <path d="M 459.105882 252 
L 721.694118 252 
L 721.694118 28.8 
L 459.105882 28.8 
z
" style="fill:#ffffff;"/>
   </g>
   <g id="matplotlib.axis_3">
    <g id="xtick_6">
     <g id="line2d_77">
      <path clip-path="url(#p6ad3ef77ff)" d="M 459.105882 252 
L 459.105882 28.8 
" style="fill:none;stroke:#cccccc;stroke-linecap:round;"/>
     </g>
     <g id="line2d_78"/>
     <g id="line2d_79"/>
     <g id="text_13">
      <!-- 0 -->
      <g style="fill:#262626;" transform="translate(455.769319853 267.589375)scale(0.12 -0.12)">
       <use xlink:href="#ArialMT-30"/>
      </g>
     </g>
    </g>
    <g id="xtick_7">
     <g id="line2d_80">
      <path clip-path="url(#p6ad3ef77ff)" d="M 491.929412 252 
L 491.929412 28.8 
" style="fill:none;stroke:#cccccc;stroke-linecap:round;"/>
     </g>
     <g id="line2d_81"/>
     <g id="line2d_82"/>
     <g id="text_14">
      <!-- 500 -->
      <defs>
       <path d="M 4.15625 18.75 
L 13.375 19.53125 
Q 14.40625 12.796875 18.140625 9.390625 
Q 21.875 6 27.15625 6 
Q 33.5 6 37.890625 10.78125 
Q 42.28125 15.578125 42.28125 23.484375 
Q 42.28125 31 38.0625 35.34375 
Q 33.84375 39.703125 27 39.703125 
Q 22.75 39.703125 19.328125 37.765625 
Q 15.921875 35.84375 13.96875 32.765625 
L 5.71875 33.84375 
L 12.640625 70.609375 
L 48.25 70.609375 
L 48.25 62.203125 
L 19.671875 62.203125 
L 15.828125 42.96875 
Q 22.265625 47.46875 29.34375 47.46875 
Q 38.71875 47.46875 45.15625 40.96875 
Q 51.609375 34.46875 51.609375 24.265625 
Q 51.609375 14.546875 45.953125 7.46875 
Q 39.0625 -1.21875 27.15625 -1.21875 
Q 17.390625 -1.21875 11.203125 4.25 
Q 5.03125 9.71875 4.15625 18.75 
" id="ArialMT-35"/>
      </defs>
      <g style="fill:#262626;" transform="translate(481.919724265 267.589375)scale(0.12 -0.12)">
       <use xlink:href="#ArialMT-35"/>
       <use x="55.615234375" xlink:href="#ArialMT-30"/>
       <use x="111.23046875" xlink:href="#ArialMT-30"/>
      </g>
     </g>
    </g>
    <g id="xtick_8">
     <g id="line2d_83">
      <path clip-path="url(#p6ad3ef77ff)" d="M 524.752941 252 
L 524.752941 28.8 
" style="fill:none;stroke:#cccccc;stroke-linecap:round;"/>
     </g>
     <g id="line2d_84"/>
     <g id="line2d_85"/>
     <g id="text_15">
      <!-- 1000 -->
      <g style="fill:#262626;" transform="translate(511.406691176 267.589375)scale(0.12 -0.12)">
       <use xlink:href="#ArialMT-31"/>
       <use x="55.615234375" xlink:href="#ArialMT-30"/>
       <use x="111.23046875" xlink:href="#ArialMT-30"/>
       <use x="166.845703125" xlink:href="#ArialMT-30"/>
      </g>
     </g>
    </g>
    <g id="xtick_9">
     <g id="line2d_86">
      <path clip-path="url(#p6ad3ef77ff)" d="M 557.576471 252 
L 557.576471 28.8 
" style="fill:none;stroke:#cccccc;stroke-linecap:round;"/>
     </g>
     <g id="line2d_87"/>
     <g id="line2d_88"/>
     <g id="text_16">
      <!-- 1500 -->
      <g style="fill:#262626;" transform="translate(544.230220588 267.589375)scale(0.12 -0.12)">
       <use xlink:href="#ArialMT-31"/>
       <use x="55.615234375" xlink:href="#ArialMT-35"/>
       <use x="111.23046875" xlink:href="#ArialMT-30"/>
       <use x="166.845703125" xlink:href="#ArialMT-30"/>
      </g>
     </g>
    </g>
    <g id="xtick_10">
     <g id="line2d_89">
      <path clip-path="url(#p6ad3ef77ff)" d="M 590.4 252 
L 590.4 28.8 
" style="fill:none;stroke:#cccccc;stroke-linecap:round;"/>
     </g>
     <g id="line2d_90"/>
     <g id="line2d_91"/>
     <g id="text_17">
      <!-- 2000 -->
      <g style="fill:#262626;" transform="translate(577.05375 267.589375)scale(0.12 -0.12)">
       <use xlink:href="#ArialMT-32"/>
       <use x="55.615234375" xlink:href="#ArialMT-30"/>
       <use x="111.23046875" xlink:href="#ArialMT-30"/>
       <use x="166.845703125" xlink:href="#ArialMT-30"/>
      </g>
     </g>
    </g>
    <g id="xtick_11">
     <g id="line2d_92">
      <path clip-path="url(#p6ad3ef77ff)" d="M 623.223529 252 
L 623.223529 28.8 
" style="fill:none;stroke:#cccccc;stroke-linecap:round;"/>
     </g>
     <g id="line2d_93"/>
     <g id="line2d_94"/>
     <g id="text_18">
      <!-- 2500 -->
      <g style="fill:#262626;" transform="translate(609.877279412 267.589375)scale(0.12 -0.12)">
       <use xlink:href="#ArialMT-32"/>
       <use x="55.615234375" xlink:href="#ArialMT-35"/>
       <use x="111.23046875" xlink:href="#ArialMT-30"/>
       <use x="166.845703125" xlink:href="#ArialMT-30"/>
      </g>
     </g>
    </g>
    <g id="xtick_12">
     <g id="line2d_95">
      <path clip-path="url(#p6ad3ef77ff)" d="M 656.047059 252 
L 656.047059 28.8 
" style="fill:none;stroke:#cccccc;stroke-linecap:round;"/>
     </g>
     <g id="line2d_96"/>
     <g id="line2d_97"/>
     <g id="text_19">
      <!-- 3000 -->
      <g style="fill:#262626;" transform="translate(642.700808824 267.589375)scale(0.12 -0.12)">
       <use xlink:href="#ArialMT-33"/>
       <use x="55.615234375" xlink:href="#ArialMT-30"/>
       <use x="111.23046875" xlink:href="#ArialMT-30"/>
       <use x="166.845703125" xlink:href="#ArialMT-30"/>
      </g>
     </g>
    </g>
    <g id="xtick_13">
     <g id="line2d_98">
      <path clip-path="url(#p6ad3ef77ff)" d="M 688.870588 252 
L 688.870588 28.8 
" style="fill:none;stroke:#cccccc;stroke-linecap:round;"/>
     </g>
     <g id="line2d_99"/>
     <g id="line2d_100"/>
     <g id="text_20">
      <!-- 3500 -->
      <g style="fill:#262626;" transform="translate(675.524338235 267.589375)scale(0.12 -0.12)">
       <use xlink:href="#ArialMT-33"/>
       <use x="55.615234375" xlink:href="#ArialMT-35"/>
       <use x="111.23046875" xlink:href="#ArialMT-30"/>
       <use x="166.845703125" xlink:href="#ArialMT-30"/>
      </g>
     </g>
    </g>
    <g id="xtick_14">
     <g id="line2d_101">
      <path clip-path="url(#p6ad3ef77ff)" d="M 721.694118 252 
L 721.694118 28.8 
" style="fill:none;stroke:#cccccc;stroke-linecap:round;"/>
     </g>
     <g id="line2d_102"/>
     <g id="line2d_103"/>
     <g id="text_21">
      <!-- 4000 -->
      <g style="fill:#262626;" transform="translate(708.347867647 267.589375)scale(0.12 -0.12)">
       <use xlink:href="#ArialMT-34"/>
       <use x="55.615234375" xlink:href="#ArialMT-30"/>
       <use x="111.23046875" xlink:href="#ArialMT-30"/>
       <use x="166.845703125" xlink:href="#ArialMT-30"/>
      </g>
     </g>
    </g>
    <g id="text_22">
     <!-- Temperature (K) -->
     <defs>
      <path d="M 25.78125 7.859375 
L 27.046875 0.09375 
Q 23.34375 -0.6875 20.40625 -0.6875 
Q 15.625 -0.6875 12.984375 0.828125 
Q 10.359375 2.34375 9.28125 4.8125 
Q 8.203125 7.28125 8.203125 15.1875 
L 8.203125 45.015625 
L 1.765625 45.015625 
L 1.765625 51.859375 
L 8.203125 51.859375 
L 8.203125 64.703125 
L 16.9375 69.96875 
L 16.9375 51.859375 
L 25.78125 51.859375 
L 25.78125 45.015625 
L 16.9375 45.015625 
L 16.9375 14.703125 
Q 16.9375 10.9375 17.40625 9.859375 
Q 17.875 8.796875 18.921875 8.15625 
Q 19.96875 7.515625 21.921875 7.515625 
Q 23.390625 7.515625 25.78125 7.859375 
" id="ArialMT-74"/>
      <path d="M 7.328125 0 
L 7.328125 71.578125 
L 16.796875 71.578125 
L 16.796875 36.078125 
L 52.34375 71.578125 
L 65.1875 71.578125 
L 35.15625 42.578125 
L 66.5 0 
L 54 0 
L 28.515625 36.234375 
L 16.796875 24.8125 
L 16.796875 0 
z
" id="ArialMT-4b"/>
      <path d="M 6.59375 -19.875 
L 6.59375 51.859375 
L 14.59375 51.859375 
L 14.59375 45.125 
Q 17.4375 49.078125 21 51.046875 
Q 24.5625 53.03125 29.640625 53.03125 
Q 36.28125 53.03125 41.359375 49.609375 
Q 46.4375 46.1875 49.015625 39.953125 
Q 51.609375 33.734375 51.609375 26.3125 
Q 51.609375 18.359375 48.75 11.984375 
Q 45.90625 5.609375 40.453125 2.21875 
Q 35.015625 -1.171875 29 -1.171875 
Q 24.609375 -1.171875 21.109375 0.6875 
Q 17.625 2.546875 15.375 5.375 
L 15.375 -19.875 
z
M 14.546875 25.640625 
Q 14.546875 15.625 18.59375 10.84375 
Q 22.65625 6.0625 28.421875 6.0625 
Q 34.28125 6.0625 38.453125 11.015625 
Q 42.625 15.96875 42.625 26.375 
Q 42.625 36.28125 38.546875 41.203125 
Q 34.46875 46.140625 28.8125 46.140625 
Q 23.1875 46.140625 18.859375 40.890625 
Q 14.546875 35.640625 14.546875 25.640625 
" id="ArialMT-70"/>
      <path d="M 25.921875 0 
L 25.921875 63.140625 
L 2.34375 63.140625 
L 2.34375 71.578125 
L 59.078125 71.578125 
L 59.078125 63.140625 
L 35.40625 63.140625 
L 35.40625 0 
z
" id="ArialMT-54"/>
     </defs>
     <g style="fill:#262626;" transform="translate(542.001375 284.5835625)scale(0.132 -0.132)">
      <use xlink:href="#ArialMT-54"/>
      <use x="60.912109375" xlink:href="#ArialMT-65"/>
      <use x="116.52734375" xlink:href="#ArialMT-6d"/>
      <use x="199.828125" xlink:href="#ArialMT-70"/>
      <use x="255.443359375" xlink:href="#ArialMT-65"/>
      <use x="311.05859375" xlink:href="#ArialMT-72"/>
      <use x="344.359375" xlink:href="#ArialMT-61"/>
      <use x="399.974609375" xlink:href="#ArialMT-74"/>
      <use x="427.7578125" xlink:href="#ArialMT-75"/>
      <use x="483.373046875" xlink:href="#ArialMT-72"/>
      <use x="516.673828125" xlink:href="#ArialMT-65"/>
      <use x="572.2890625" xlink:href="#ArialMT-20"/>
      <use x="600.072265625" xlink:href="#ArialMT-28"/>
      <use x="633.373046875" xlink:href="#ArialMT-4b"/>
      <use x="700.072265625" xlink:href="#ArialMT-29"/>
     </g>
    </g>
   </g>
   <g id="matplotlib.axis_4">
    <g id="ytick_29">
     <g id="line2d_104">
      <path clip-path="url(#p6ad3ef77ff)" d="M 459.105882 28.8 
L 721.694118 28.8 
" style="fill:none;stroke:#cccccc;stroke-linecap:round;"/>
     </g>
     <g id="line2d_105"/>
     <g id="line2d_106"/>
     <g id="text_23">
      <!-- $\mathdefault{10^{-2}}$ -->
      <g style="fill:#262626;" transform="translate(429.665882353 32.295)scale(0.12 -0.12)">
       <use transform="translate(0.0 0.884375)" xlink:href="#ArialMT-31"/>
       <use transform="translate(55.615234375 0.884375)" xlink:href="#ArialMT-30"/>
       <use transform="translate(116.4575 45.6875)scale(0.7)" xlink:href="#ArialMT-2d"/>
       <use transform="translate(139.768046875 45.6875)scale(0.7)" xlink:href="#ArialMT-32"/>
      </g>
     </g>
    </g>
    <g id="ytick_30">
     <g id="line2d_107">
      <path clip-path="url(#p6ad3ef77ff)" d="M 459.105882 103.2 
L 721.694118 103.2 
" style="fill:none;stroke:#cccccc;stroke-linecap:round;"/>
     </g>
     <g id="line2d_108"/>
     <g id="line2d_109"/>
     <g id="text_24">
      <!-- $\mathdefault{10^{-1}}$ -->
      <g style="fill:#262626;" transform="translate(429.665882353 106.695)scale(0.12 -0.12)">
       <use transform="translate(0.0 0.884375)" xlink:href="#ArialMT-31"/>
       <use transform="translate(55.615234375 0.884375)" xlink:href="#ArialMT-30"/>
       <use transform="translate(116.4575 45.6875)scale(0.7)" xlink:href="#ArialMT-2d"/>
       <use transform="translate(139.768046875 45.6875)scale(0.7)" xlink:href="#ArialMT-31"/>
      </g>
     </g>
    </g>
    <g id="ytick_31">
     <g id="line2d_110">
      <path clip-path="url(#p6ad3ef77ff)" d="M 459.105882 177.6 
L 721.694118 177.6 
" style="fill:none;stroke:#cccccc;stroke-linecap:round;"/>
     </g>
     <g id="line2d_111"/>
     <g id="line2d_112"/>
     <g id="text_25">
      <!-- $\mathdefault{10^{0}}$ -->
      <g style="fill:#262626;" transform="translate(432.545882353 181.095)scale(0.12 -0.12)">
       <use transform="translate(0.0 0.884375)" xlink:href="#ArialMT-31"/>
       <use transform="translate(55.615234375 0.884375)" xlink:href="#ArialMT-30"/>
       <use transform="translate(116.4575 45.6875)scale(0.7)" xlink:href="#ArialMT-30"/>
      </g>
     </g>
    </g>
    <g id="ytick_32">
     <g id="line2d_113">
      <path clip-path="url(#p6ad3ef77ff)" d="M 459.105882 252 
L 721.694118 252 
" style="fill:none;stroke:#cccccc;stroke-linecap:round;"/>
     </g>
     <g id="line2d_114"/>
     <g id="line2d_115"/>
     <g id="text_26">
      <!-- $\mathdefault{10^{1}}$ -->
      <g style="fill:#262626;" transform="translate(432.545882353 255.495)scale(0.12 -0.12)">
       <use transform="translate(0.0 0.884375)" xlink:href="#ArialMT-31"/>
       <use transform="translate(55.615234375 0.884375)" xlink:href="#ArialMT-30"/>
       <use transform="translate(116.4575 45.6875)scale(0.7)" xlink:href="#ArialMT-31"/>
      </g>
     </g>
    </g>
    <g id="ytick_33">
     <g id="line2d_116"/>
     <g id="line2d_117"/>
    </g>
    <g id="ytick_34">
     <g id="line2d_118"/>
     <g id="line2d_119"/>
    </g>
    <g id="ytick_35">
     <g id="line2d_120"/>
     <g id="line2d_121"/>
    </g>
    <g id="ytick_36">
     <g id="line2d_122"/>
     <g id="line2d_123"/>
    </g>
    <g id="ytick_37">
     <g id="line2d_124"/>
     <g id="line2d_125"/>
    </g>
    <g id="ytick_38">
     <g id="line2d_126"/>
     <g id="line2d_127"/>
    </g>
    <g id="ytick_39">
     <g id="line2d_128"/>
     <g id="line2d_129"/>
    </g>
    <g id="ytick_40">
     <g id="line2d_130"/>
     <g id="line2d_131"/>
    </g>
    <g id="ytick_41">
     <g id="line2d_132"/>
     <g id="line2d_133"/>
    </g>
    <g id="ytick_42">
     <g id="line2d_134"/>
     <g id="line2d_135"/>
    </g>
    <g id="ytick_43">
     <g id="line2d_136"/>
     <g id="line2d_137"/>
    </g>
    <g id="ytick_44">
     <g id="line2d_138"/>
     <g id="line2d_139"/>
    </g>
    <g id="ytick_45">
     <g id="line2d_140"/>
     <g id="line2d_141"/>
    </g>
    <g id="ytick_46">
     <g id="line2d_142"/>
     <g id="line2d_143"/>
    </g>
    <g id="ytick_47">
     <g id="line2d_144"/>
     <g id="line2d_145"/>
    </g>
    <g id="ytick_48">
     <g id="line2d_146"/>
     <g id="line2d_147"/>
    </g>
    <g id="ytick_49">
     <g id="line2d_148"/>
     <g id="line2d_149"/>
    </g>
    <g id="ytick_50">
     <g id="line2d_150"/>
     <g id="line2d_151"/>
    </g>
    <g id="ytick_51">
     <g id="line2d_152"/>
     <g id="line2d_153"/>
    </g>
    <g id="ytick_52">
     <g id="line2d_154"/>
     <g id="line2d_155"/>
    </g>
    <g id="ytick_53">
     <g id="line2d_156"/>
     <g id="line2d_157"/>
    </g>
    <g id="ytick_54">
     <g id="line2d_158"/>
     <g id="line2d_159"/>
    </g>
    <g id="ytick_55">
     <g id="line2d_160"/>
     <g id="line2d_161"/>
    </g>
    <g id="ytick_56">
     <g id="line2d_162"/>
     <g id="line2d_163"/>
    </g>
    <g id="text_27">
     <!-- Pressure (bar) -->
     <g style="fill:#262626;" transform="translate(421.887694853 182.57503125)rotate(-90.0)scale(0.132 -0.132)">
      <use xlink:href="#ArialMT-50"/>
      <use x="66.69921875" xlink:href="#ArialMT-72"/>
      <use x="100.0" xlink:href="#ArialMT-65"/>
      <use x="155.615234375" xlink:href="#ArialMT-73"/>
      <use x="205.615234375" xlink:href="#ArialMT-73"/>
      <use x="255.615234375" xlink:href="#ArialMT-75"/>
      <use x="311.23046875" xlink:href="#ArialMT-72"/>
      <use x="344.53125" xlink:href="#ArialMT-65"/>
      <use x="400.146484375" xlink:href="#ArialMT-20"/>
      <use x="427.9296875" xlink:href="#ArialMT-28"/>
      <use x="461.23046875" xlink:href="#ArialMT-62"/>
      <use x="516.845703125" xlink:href="#ArialMT-61"/>
      <use x="572.4609375" xlink:href="#ArialMT-72"/>
      <use x="605.76171875" xlink:href="#ArialMT-29"/>
     </g>
    </g>
   </g>
   <g id="line2d_164">
    <path clip-path="url(#p6ad3ef77ff)" d="M 484.806783 18.675102 
L 487.752596 30.946835 
L 491.036056 43.218569 
L 494.695863 55.490302 
L 498.775154 67.762036 
L 503.322009 80.033769 
L 508.390021 92.305502 
L 514.038923 104.577236 
L 520.335298 116.848969 
L 527.353357 129.120703 
L 535.17582 141.392436 
L 543.894886 153.66417 
L 553.613324 165.935903 
L 564.445679 178.207637 
L 576.51963 190.47937 
L 589.977485 202.751103 
L 604.977868 215.022837 
L 621.697581 227.29457 
L 640.333691 239.566304 
L 661.105856 251.838037 
" style="fill:none;stroke:#cccccc;stroke-linecap:round;stroke-width:1.2;"/>
   </g>
   <g id="line2d_165">
    <path clip-path="url(#p6ad3ef77ff)" d="M 462.44685 18.675102 
L 462.829789 30.946835 
L 463.256619 43.218569 
L 463.732373 55.490302 
L 464.262657 67.762036 
L 464.853722 80.033769 
L 465.512534 92.305502 
L 466.246859 104.577236 
L 467.065351 116.848969 
L 467.977658 129.120703 
L 468.994532 141.392436 
L 470.12796 153.66417 
L 471.391301 165.935903 
L 472.799444 178.207637 
L 474.368988 190.47937 
L 476.118431 202.751103 
L 478.068393 215.022837 
L 480.241859 227.29457 
L 482.664445 239.566304 
L 485.364706 251.838037 
" style="fill:none;stroke:#cccccc;stroke-linecap:round;stroke-width:1.2;"/>
   </g>
   <g id="line2d_166">
    <path clip-path="url(#p6ad3ef77ff)" d="M 469.128786 18.675102 
L 470.277602 30.946835 
L 471.558094 43.218569 
L 472.985355 55.490302 
L 474.576207 67.762036 
L 476.349402 80.033769 
L 478.325838 92.305502 
L 480.528811 104.577236 
L 482.984288 116.848969 
L 485.721209 129.120703 
L 488.771833 141.392436 
L 492.172117 153.66417 
L 495.962138 165.935903 
L 500.186568 178.207637 
L 504.895198 190.47937 
L 510.143528 202.751103 
L 515.993416 215.022837 
L 522.513812 227.29457 
L 529.781571 239.566304 
L 537.882353 251.838037 
" style="fill:none;stroke:#cccccc;stroke-linecap:round;stroke-width:1.2;"/>
   </g>
   <g id="line2d_167">
    <path clip-path="url(#p6ad3ef77ff)" d="M 475.810721 18.675102 
L 477.725414 30.946835 
L 479.859568 43.218569 
L 482.238336 55.490302 
L 484.889757 67.762036 
L 487.845081 80.033769 
L 491.139141 92.305502 
L 494.810764 104.577236 
L 498.903225 116.848969 
L 503.464759 129.120703 
L 508.549133 141.392436 
L 514.216273 153.66417 
L 520.532975 165.935903 
L 527.573692 178.207637 
L 535.421409 190.47937 
L 544.168624 202.751103 
L 553.918438 215.022837 
L 564.785765 227.29457 
L 576.898696 239.566304 
L 590.4 251.838037 
" style="fill:none;stroke:#cccccc;stroke-linecap:round;stroke-width:1.2;"/>
   </g>
   <g id="line2d_168">
    <path clip-path="url(#p6ad3ef77ff)" d="M 482.492657 18.675102 
L 485.173227 30.946835 
L 488.161042 43.218569 
L 491.491318 55.490302 
L 495.203307 67.762036 
L 499.34076 80.033769 
L 503.952445 92.305502 
L 509.092717 104.577236 
L 514.822162 116.848969 
L 521.20831 129.120703 
L 528.326433 141.392436 
L 536.260429 153.66417 
L 545.103812 165.935903 
L 554.960816 178.207637 
L 565.94762 190.47937 
L 578.193721 202.751103 
L 591.84346 215.022837 
L 607.057719 227.29457 
L 624.015822 239.566304 
L 642.917647 251.838037 
" style="fill:none;stroke:#cccccc;stroke-linecap:round;stroke-width:1.2;"/>
   </g>
   <g id="line2d_169">
    <path clip-path="url(#p6ad3ef77ff)" d="M 489.174592 18.675102 
L 492.62104 30.946835 
L 496.462517 43.218569 
L 500.7443 55.490302 
L 505.516857 67.762036 
L 510.83644 80.033769 
L 516.765749 92.305502 
L 523.374669 104.577236 
L 530.741099 116.848969 
L 538.951861 129.120703 
L 548.103734 141.392436 
L 558.304585 153.66417 
L 569.674649 165.935903 
L 582.347939 178.207637 
L 596.473831 190.47937 
L 612.218818 202.751103 
L 629.768482 215.022837 
L 649.329672 227.29457 
L 671.132947 239.566304 
L 695.435294 251.838037 
" style="fill:none;stroke:#cccccc;stroke-linecap:round;stroke-width:1.2;"/>
   </g>
   <g id="line2d_170">
    <path clip-path="url(#p6ad3ef77ff)" d="M 495.856528 18.675102 
L 500.068853 30.946835 
L 504.763991 43.218569 
L 509.997281 55.490302 
L 515.830407 67.762036 
L 522.332119 80.033769 
L 529.579052 92.305502 
L 537.656622 104.577236 
L 546.660036 116.848969 
L 556.695412 129.120703 
L 567.881034 141.392436 
L 580.348742 153.66417 
L 594.245486 165.935903 
L 609.735063 178.207637 
L 627.000041 190.47937 
L 646.243915 202.751103 
L 667.693504 215.022837 
L 691.601625 227.29457 
L 718.250073 239.566304 
L 747.952941 251.838037 
" style="fill:none;stroke:#cccccc;stroke-linecap:round;stroke-width:1.2;"/>
   </g>
   <g id="line2d_171">
    <path clip-path="url(#p6ad3ef77ff)" d="M 502.538463 18.675102 
L 507.516666 30.946835 
L 513.065465 43.218569 
L 519.250263 55.490302 
L 526.143956 67.762036 
L 533.827799 80.033769 
L 542.392356 92.305502 
L 551.938575 104.577236 
L 562.578972 116.848969 
L 574.438963 129.120703 
L 587.658334 141.392436 
L 602.392898 153.66417 
L 618.816323 165.935903 
L 637.122187 178.207637 
L 657.526252 190.47937 
L 680.269012 202.751103 
L 705.618526 215.022837 
L 733.873578 227.29457 
L 765.367198 239.566304 
L 800.470588 251.838037 
" style="fill:none;stroke:#cccccc;stroke-linecap:round;stroke-width:1.2;"/>
   </g>
   <g id="line2d_172">
    <path clip-path="url(#p6ad3ef77ff)" d="M 509.220399 18.675102 
L 514.964479 30.946835 
L 521.36694 43.218569 
L 528.503245 55.490302 
L 536.457506 67.762036 
L 545.323478 80.033769 
L 555.20566 92.305502 
L 566.220527 104.577236 
L 578.497909 116.848969 
L 592.182514 129.120703 
L 607.435634 141.392436 
L 624.437054 153.66417 
L 643.387161 165.935903 
L 664.509311 178.207637 
L 688.052463 190.47937 
L 714.294109 202.751103 
L 743.543548 215.022837 
L 776.145531 227.29457 
L 812.484324 239.566304 
L 852.988235 251.838037 
" style="fill:none;stroke:#cccccc;stroke-linecap:round;stroke-width:1.2;"/>
   </g>
   <g id="line2d_173">
    <path clip-path="url(#p6ad3ef77ff)" d="M 515.902335 18.675102 
L 522.412292 30.946835 
L 529.668414 43.218569 
L 537.756226 55.490302 
L 546.771056 67.762036 
L 556.819158 80.033769 
L 568.018963 92.305502 
L 580.50248 104.577236 
L 594.416846 116.848969 
L 609.926064 129.120703 
L 627.212935 141.392436 
L 646.48121 153.66417 
L 667.957998 165.935903 
L 691.896435 178.207637 
L 718.578673 190.47937 
L 748.319206 202.751103 
L 781.46857 215.022837 
L 818.417485 227.29457 
L 859.601449 239.566304 
L 905.505882 251.838037 
" style="fill:none;stroke:#cccccc;stroke-linecap:round;stroke-width:1.2;"/>
   </g>
   <g id="line2d_174">
    <path clip-path="url(#p6ad3ef77ff)" d="M 522.58427 18.675102 
L 529.860104 30.946835 
L 537.969888 43.218569 
L 547.009208 55.490302 
L 557.084606 67.762036 
L 568.314837 80.033769 
L 580.832267 92.305502 
L 594.784433 104.577236 
L 610.335783 116.848969 
L 627.669615 129.120703 
L 646.990235 141.392436 
L 668.525366 153.66417 
L 692.528835 165.935903 
L 719.283559 178.207637 
L 749.104884 190.47937 
L 782.344302 202.751103 
L 819.393592 215.022837 
L 860.689438 227.29457 
L 906.718575 239.566304 
L 958.023529 251.838037 
" style="fill:none;stroke:#cccccc;stroke-linecap:round;stroke-width:1.2;"/>
   </g>
   <g id="line2d_175">
    <path clip-path="url(#p6ad3ef77ff)" d="M 581.986846 18.675102 
L 581.986846 30.946835 
L 581.987493 43.218569 
L 581.991351 55.490302 
L 582.001396 67.762036 
L 582.034522 80.033769 
L 582.005055 92.305502 
L 582.2044 104.577236 
L 581.853602 116.848969 
L 582.620558 129.120703 
L 581.843733 141.392436 
L 583.471728 153.66417 
L 582.909693 165.935903 
L 586.405179 178.207637 
L 588.482799 190.47937 
L 600.999744 202.751103 
L 614.460298 215.022837 
L 628.92288 227.29457 
L 644.450546 239.566304 
L 661.105856 251.838037 
" style="fill:none;stroke:#1a1a1a;stroke-linecap:round;stroke-width:1.2;"/>
   </g>
   <g id="patch_8">
    <path d="M 459.105882 28.8 
L 721.694118 28.8 
" style="fill:none;stroke:#cccccc;stroke-linecap:square;stroke-linejoin:miter;"/>
   </g>
   <g id="patch_9">
    <path d="M 721.694118 252 
L 721.694118 28.8 
" style="fill:none;stroke:#cccccc;stroke-linecap:square;stroke-linejoin:miter;"/>
   </g>
   <g id="patch_10">
    <path d="M 459.105882 252 
L 721.694118 252 
" style="fill:none;stroke:#cccccc;stroke-linecap:square;stroke-linejoin:miter;"/>
   </g>
   <g id="patch_11">
    <path d="M 459.105882 252 
L 459.105882 28.8 
" style="fill:none;stroke:#cccccc;stroke-linecap:square;stroke-linejoin:miter;"/>
   </g>
   <g id="text_28">
    <!-- Semilog Temperature Profile -->
    <g style="fill:#262626;" transform="translate(463.1515625 14.872)scale(0.2 -0.2)">
     <use xlink:href="#ArialMT-53"/>
     <use x="66.69921875" xlink:href="#ArialMT-65"/>
     <use x="122.314453125" xlink:href="#ArialMT-6d"/>
     <use x="205.615234375" xlink:href="#ArialMT-69"/>
     <use x="227.83203125" xlink:href="#ArialMT-6c"/>
     <use x="250.048828125" xlink:href="#ArialMT-6f"/>
     <use x="305.6640625" xlink:href="#ArialMT-67"/>
     <use x="361.279296875" xlink:href="#ArialMT-20"/>
     <use x="389.046875" xlink:href="#ArialMT-54"/>
     <use x="449.958984375" xlink:href="#ArialMT-65"/>
     <use x="505.57421875" xlink:href="#ArialMT-6d"/>
     <use x="588.875" xlink:href="#ArialMT-70"/>
     <use x="644.490234375" xlink:href="#ArialMT-65"/>
     <use x="700.10546875" xlink:href="#ArialMT-72"/>
     <use x="733.40625" xlink:href="#ArialMT-61"/>
     <use x="789.021484375" xlink:href="#ArialMT-74"/>
     <use x="816.8046875" xlink:href="#ArialMT-75"/>
     <use x="872.419921875" xlink:href="#ArialMT-72"/>
     <use x="905.720703125" xlink:href="#ArialMT-65"/>
     <use x="961.3359375" xlink:href="#ArialMT-20"/>
     <use x="989.119140625" xlink:href="#ArialMT-50"/>
     <use x="1055.81835938" xlink:href="#ArialMT-72"/>
     <use x="1089.11914062" xlink:href="#ArialMT-6f"/>
     <use x="1144.734375" xlink:href="#ArialMT-66"/>
     <use x="1172.51757812" xlink:href="#ArialMT-69"/>
     <use x="1194.734375" xlink:href="#ArialMT-6c"/>
     <use x="1216.95117188" xlink:href="#ArialMT-65"/>
    </g>
   </g>
  </g>
  <g id="axes_3">
   <g id="patch_12">
    <path d="M 774.211765 252 
L 1036.8 252 
L 1036.8 28.8 
L 774.211765 28.8 
z
" style="fill:#ffffff;"/>
   </g>
   <g id="matplotlib.axis_5">
    <g id="xtick_15">
     <g id="line2d_176">
      <path clip-path="url(#pff5f5c908f)" d="M 774.211765 252 
L 774.211765 28.8 
" style="fill:none;stroke:#cccccc;stroke-linecap:round;"/>
     </g>
     <g id="line2d_177"/>
     <g id="line2d_178"/>
     <g id="text_29">
      <!-- 0 -->
      <g style="fill:#262626;" transform="translate(770.875202206 267.589375)scale(0.12 -0.12)">
       <use xlink:href="#ArialMT-30"/>
      </g>
     </g>
    </g>
    <g id="xtick_16">
     <g id="line2d_179">
      <path clip-path="url(#pff5f5c908f)" d="M 839.858824 252 
L 839.858824 28.8 
" style="fill:none;stroke:#cccccc;stroke-linecap:round;"/>
     </g>
     <g id="line2d_180"/>
     <g id="line2d_181"/>
     <g id="text_30">
      <!-- 5000 -->
      <g style="fill:#262626;" transform="translate(826.512573529 267.589375)scale(0.12 -0.12)">
       <use xlink:href="#ArialMT-35"/>
       <use x="55.615234375" xlink:href="#ArialMT-30"/>
       <use x="111.23046875" xlink:href="#ArialMT-30"/>
       <use x="166.845703125" xlink:href="#ArialMT-30"/>
      </g>
     </g>
    </g>
    <g id="xtick_17">
     <g id="line2d_182">
      <path clip-path="url(#pff5f5c908f)" d="M 905.505882 252 
L 905.505882 28.8 
" style="fill:none;stroke:#cccccc;stroke-linecap:round;"/>
     </g>
     <g id="line2d_183"/>
     <g id="line2d_184"/>
     <g id="text_31">
      <!-- 10000 -->
      <g style="fill:#262626;" transform="translate(888.823069853 267.589375)scale(0.12 -0.12)">
       <use xlink:href="#ArialMT-31"/>
       <use x="55.615234375" xlink:href="#ArialMT-30"/>
       <use x="111.23046875" xlink:href="#ArialMT-30"/>
       <use x="166.845703125" xlink:href="#ArialMT-30"/>
       <use x="222.4609375" xlink:href="#ArialMT-30"/>
      </g>
     </g>
    </g>
    <g id="xtick_18">
     <g id="line2d_185">
      <path clip-path="url(#pff5f5c908f)" d="M 971.152941 252 
L 971.152941 28.8 
" style="fill:none;stroke:#cccccc;stroke-linecap:round;"/>
     </g>
     <g id="line2d_186"/>
     <g id="line2d_187"/>
     <g id="text_32">
      <!-- 15000 -->
      <g style="fill:#262626;" transform="translate(954.470128676 267.589375)scale(0.12 -0.12)">
       <use xlink:href="#ArialMT-31"/>
       <use x="55.615234375" xlink:href="#ArialMT-35"/>
       <use x="111.23046875" xlink:href="#ArialMT-30"/>
       <use x="166.845703125" xlink:href="#ArialMT-30"/>
       <use x="222.4609375" xlink:href="#ArialMT-30"/>
      </g>
     </g>
    </g>
    <g id="xtick_19">
     <g id="line2d_188">
      <path clip-path="url(#pff5f5c908f)" d="M 1036.8 252 
L 1036.8 28.8 
" style="fill:none;stroke:#cccccc;stroke-linecap:round;"/>
     </g>
     <g id="line2d_189"/>
     <g id="line2d_190"/>
     <g id="text_33">
      <!-- 20000 -->
      <g style="fill:#262626;" transform="translate(1020.1171875 267.589375)scale(0.12 -0.12)">
       <use xlink:href="#ArialMT-32"/>
       <use x="55.615234375" xlink:href="#ArialMT-30"/>
       <use x="111.23046875" xlink:href="#ArialMT-30"/>
       <use x="166.845703125" xlink:href="#ArialMT-30"/>
       <use x="222.4609375" xlink:href="#ArialMT-30"/>
      </g>
     </g>
    </g>
   </g>
   <g id="matplotlib.axis_6">
    <g id="ytick_57">
     <g id="line2d_191">
      <path clip-path="url(#pff5f5c908f)" d="M 774.211765 252 
L 1036.8 252 
" style="fill:none;stroke:#cccccc;stroke-linecap:round;"/>
     </g>
     <g id="line2d_192"/>
     <g id="line2d_193"/>
     <g id="text_34">
      <!-- 0 -->
      <g style="fill:#262626;" transform="translate(760.538639706 255.1021875)scale(0.12 -0.12)">
       <use xlink:href="#ArialMT-30"/>
      </g>
     </g>
    </g>
    <g id="ytick_58">
     <g id="line2d_194">
      <path clip-path="url(#pff5f5c908f)" d="M 774.211765 196.2 
L 1036.8 196.2 
" style="fill:none;stroke:#cccccc;stroke-linecap:round;"/>
     </g>
     <g id="line2d_195"/>
     <g id="line2d_196"/>
     <g id="text_35">
      <!-- 50000 -->
      <g style="fill:#262626;" transform="translate(733.846139706 199.3021875)scale(0.12 -0.12)">
       <use xlink:href="#ArialMT-35"/>
       <use x="55.615234375" xlink:href="#ArialMT-30"/>
       <use x="111.23046875" xlink:href="#ArialMT-30"/>
       <use x="166.845703125" xlink:href="#ArialMT-30"/>
       <use x="222.4609375" xlink:href="#ArialMT-30"/>
      </g>
     </g>
    </g>
    <g id="ytick_59">
     <g id="line2d_197">
      <path clip-path="url(#pff5f5c908f)" d="M 774.211765 140.4 
L 1036.8 140.4 
" style="fill:none;stroke:#cccccc;stroke-linecap:round;"/>
     </g>
     <g id="line2d_198"/>
     <g id="line2d_199"/>
     <g id="text_36">
      <!-- 100000 -->
      <g style="fill:#262626;" transform="translate(727.173014706 143.5021875)scale(0.12 -0.12)">
       <use xlink:href="#ArialMT-31"/>
       <use x="55.615234375" xlink:href="#ArialMT-30"/>
       <use x="111.23046875" xlink:href="#ArialMT-30"/>
       <use x="166.845703125" xlink:href="#ArialMT-30"/>
       <use x="222.4609375" xlink:href="#ArialMT-30"/>
       <use x="278.076171875" xlink:href="#ArialMT-30"/>
      </g>
     </g>
    </g>
    <g id="ytick_60">
     <g id="line2d_200">
      <path clip-path="url(#pff5f5c908f)" d="M 774.211765 84.6 
L 1036.8 84.6 
" style="fill:none;stroke:#cccccc;stroke-linecap:round;"/>
     </g>
     <g id="line2d_201"/>
     <g id="line2d_202"/>
     <g id="text_37">
      <!-- 150000 -->
      <g style="fill:#262626;" transform="translate(727.173014706 87.7021875)scale(0.12 -0.12)">
       <use xlink:href="#ArialMT-31"/>
       <use x="55.615234375" xlink:href="#ArialMT-35"/>
       <use x="111.23046875" xlink:href="#ArialMT-30"/>
       <use x="166.845703125" xlink:href="#ArialMT-30"/>
       <use x="222.4609375" xlink:href="#ArialMT-30"/>
       <use x="278.076171875" xlink:href="#ArialMT-30"/>
      </g>
     </g>
    </g>
    <g id="ytick_61">
     <g id="line2d_203">
      <path clip-path="url(#pff5f5c908f)" d="M 774.211765 28.8 
L 1036.8 28.8 
" style="fill:none;stroke:#cccccc;stroke-linecap:round;"/>
     </g>
     <g id="line2d_204"/>
     <g id="line2d_205"/>
     <g id="text_38">
      <!-- 200000 -->
      <g style="fill:#262626;" transform="translate(727.173014706 31.9021875)scale(0.12 -0.12)">
       <use xlink:href="#ArialMT-32"/>
       <use x="55.615234375" xlink:href="#ArialMT-30"/>
       <use x="111.23046875" xlink:href="#ArialMT-30"/>
       <use x="166.845703125" xlink:href="#ArialMT-30"/>
       <use x="222.4609375" xlink:href="#ArialMT-30"/>
       <use x="278.076171875" xlink:href="#ArialMT-30"/>
      </g>
     </g>
    </g>
   </g>
   <g id="line2d_206">
    <path clip-path="url(#pff5f5c908f)" d="M 774.343059 250.674405 
L 779.594824 244.287019 
L 784.846588 235.569221 
L 790.098353 225.817008 
L 795.350118 215.652362 
L 800.601882 204.873759 
L 805.853647 193.134623 
L 811.105412 184.750249 
L 816.357176 186.83594 
L 821.608941 193.184545 
L 826.860706 196.124768 
L 832.112471 195.873568 
L 837.364235 192.94236 
L 842.616 187.435837 
L 847.867765 176.920597 
L 853.119529 157.730898 
L 858.371294 125.633882 
L 863.623059 80.437855 
L 868.874824 45.213147 
L 874.126588 33.617239 
L 879.378353 34.383455 
L 884.630118 37.724834 
L 889.881882 46.921553 
L 895.133647 50.708733 
L 900.385412 45.253804 
L 905.637176 45.403329 
L 910.888941 52.769804 
L 916.140706 63.615577 
L 921.392471 75.807464 
L 926.644235 88.036485 
L 931.896 99.786646 
L 937.147765 111.326784 
L 942.399529 122.030162 
L 947.651294 131.860039 
L 952.903059 141.183125 
L 958.154824 150.146417 
L 963.406588 158.75951 
L 968.658353 166.922457 
L 973.910118 174.569495 
L 979.161882 181.684045 
L 984.413647 188.270388 
L 989.665412 194.345555 
L 994.917176 199.93174 
L 1000.168941 205.053993 
L 1005.420706 209.73877 
L 1010.672471 214.013136 
L 1015.924235 217.90423 
L 1021.176 221.438871 
L 1026.427765 224.643241 
L 1031.679529 227.542658 
" style="fill:none;stroke:#1a1a1a;stroke-linecap:round;stroke-width:1.2;"/>
   </g>
   <g id="patch_13">
    <path d="M 774.211765 28.8 
L 1036.8 28.8 
" style="fill:none;stroke:#cccccc;stroke-linecap:square;stroke-linejoin:miter;"/>
   </g>
   <g id="patch_14">
    <path d="M 1036.8 252 
L 1036.8 28.8 
" style="fill:none;stroke:#cccccc;stroke-linecap:square;stroke-linejoin:miter;"/>
   </g>
   <g id="patch_15">
    <path d="M 774.211765 252 
L 1036.8 252 
" style="fill:none;stroke:#cccccc;stroke-linecap:square;stroke-linejoin:miter;"/>
   </g>
   <g id="patch_16">
    <path d="M 774.211765 252 
L 774.211765 28.8 
" style="fill:none;stroke:#cccccc;stroke-linecap:square;stroke-linejoin:miter;"/>
   </g>
   <g id="text_39">
    <!-- Outgoing Radiation -->
    <defs>
     <path d="M 7.859375 0 
L 7.859375 71.578125 
L 39.59375 71.578125 
Q 49.171875 71.578125 54.140625 69.640625 
Q 59.125 67.71875 62.109375 62.828125 
Q 65.09375 57.953125 65.09375 52.046875 
Q 65.09375 44.4375 60.15625 39.203125 
Q 55.21875 33.984375 44.921875 32.5625 
Q 48.6875 30.765625 50.640625 29 
Q 54.78125 25.203125 58.5 19.484375 
L 70.953125 0 
L 59.03125 0 
L 49.5625 14.890625 
Q 45.40625 21.34375 42.71875 24.75 
Q 40.046875 28.171875 37.921875 29.53125 
Q 35.796875 30.90625 33.59375 31.453125 
Q 31.984375 31.78125 28.328125 31.78125 
L 17.328125 31.78125 
L 17.328125 0 
z
M 17.328125 39.984375 
L 37.703125 39.984375 
Q 44.1875 39.984375 47.84375 41.328125 
Q 51.515625 42.671875 53.421875 45.625 
Q 55.328125 48.578125 55.328125 52.046875 
Q 55.328125 57.125 51.640625 60.390625 
Q 47.953125 63.671875 39.984375 63.671875 
L 17.328125 63.671875 
z
" id="ArialMT-52"/>
     <path d="M 40.234375 0 
L 40.234375 6.546875 
Q 35.296875 -1.171875 25.734375 -1.171875 
Q 19.53125 -1.171875 14.328125 2.25 
Q 9.125 5.671875 6.265625 11.796875 
Q 3.421875 17.921875 3.421875 25.875 
Q 3.421875 33.640625 6 39.96875 
Q 8.59375 46.296875 13.765625 49.65625 
Q 18.953125 53.03125 25.34375 53.03125 
Q 30.03125 53.03125 33.6875 51.046875 
Q 37.359375 49.078125 39.65625 45.90625 
L 39.65625 71.578125 
L 48.390625 71.578125 
L 48.390625 0 
z
M 12.453125 25.875 
Q 12.453125 15.921875 16.640625 10.984375 
Q 20.84375 6.0625 26.5625 6.0625 
Q 32.328125 6.0625 36.34375 10.765625 
Q 40.375 15.484375 40.375 25.140625 
Q 40.375 35.796875 36.265625 40.765625 
Q 32.171875 45.75 26.171875 45.75 
Q 20.3125 45.75 16.375 40.96875 
Q 12.453125 36.1875 12.453125 25.875 
" id="ArialMT-64"/>
     <path d="M 6.59375 0 
L 6.59375 51.859375 
L 14.5 51.859375 
L 14.5 44.484375 
Q 20.21875 53.03125 31 53.03125 
Q 35.6875 53.03125 39.625 51.34375 
Q 43.5625 49.65625 45.515625 46.921875 
Q 47.46875 44.1875 48.25 40.4375 
Q 48.734375 37.984375 48.734375 31.890625 
L 48.734375 0 
L 39.9375 0 
L 39.9375 31.546875 
Q 39.9375 36.921875 38.90625 39.578125 
Q 37.890625 42.234375 35.28125 43.8125 
Q 32.671875 45.40625 29.15625 45.40625 
Q 23.53125 45.40625 19.453125 41.84375 
Q 15.375 38.28125 15.375 28.328125 
L 15.375 0 
z
" id="ArialMT-6e"/>
     <path d="M 4.828125 34.859375 
Q 4.828125 52.6875 14.390625 62.765625 
Q 23.96875 72.859375 39.109375 72.859375 
Q 49.03125 72.859375 56.984375 68.109375 
Q 64.9375 63.375 69.109375 54.90625 
Q 73.296875 46.4375 73.296875 35.6875 
Q 73.296875 24.8125 68.890625 16.21875 
Q 64.5 7.625 56.4375 3.203125 
Q 48.390625 -1.21875 39.0625 -1.21875 
Q 28.953125 -1.21875 20.984375 3.65625 
Q 13.03125 8.546875 8.921875 16.984375 
Q 4.828125 25.4375 4.828125 34.859375 
M 14.59375 34.71875 
Q 14.59375 21.78125 21.546875 14.328125 
Q 28.515625 6.890625 39.015625 6.890625 
Q 49.703125 6.890625 56.609375 14.40625 
Q 63.53125 21.921875 63.53125 35.75 
Q 63.53125 44.484375 60.578125 51 
Q 57.625 57.515625 51.921875 61.109375 
Q 46.234375 64.703125 39.15625 64.703125 
Q 29.109375 64.703125 21.84375 57.78125 
Q 14.59375 50.875 14.59375 34.71875 
" id="ArialMT-4f"/>
    </defs>
    <g style="fill:#262626;" transform="translate(819.896507353 14.872)scale(0.2 -0.2)">
     <use xlink:href="#ArialMT-4f"/>
     <use x="77.783203125" xlink:href="#ArialMT-75"/>
     <use x="133.3984375" xlink:href="#ArialMT-74"/>
     <use x="161.181640625" xlink:href="#ArialMT-67"/>
     <use x="216.796875" xlink:href="#ArialMT-6f"/>
     <use x="272.412109375" xlink:href="#ArialMT-69"/>
     <use x="294.62890625" xlink:href="#ArialMT-6e"/>
     <use x="350.244140625" xlink:href="#ArialMT-67"/>
     <use x="405.859375" xlink:href="#ArialMT-20"/>
     <use x="433.642578125" xlink:href="#ArialMT-52"/>
     <use x="505.859375" xlink:href="#ArialMT-61"/>
     <use x="561.474609375" xlink:href="#ArialMT-64"/>
     <use x="617.08984375" xlink:href="#ArialMT-69"/>
     <use x="639.306640625" xlink:href="#ArialMT-61"/>
     <use x="694.921875" xlink:href="#ArialMT-74"/>
     <use x="722.705078125" xlink:href="#ArialMT-69"/>
     <use x="744.921875" xlink:href="#ArialMT-6f"/>
     <use x="800.537109375" xlink:href="#ArialMT-6e"/>
    </g>
   </g>
  </g>
 </g>
 <defs>
  <clipPath id="pa6fb1b75e6">
   <rect height="223.2" width="262.588235294" x="144.0" y="28.8"/>
  </clipPath>
  <clipPath id="pff5f5c908f">
   <rect height="223.2" width="262.588235294" x="774.211764706" y="28.8"/>
  </clipPath>
  <clipPath id="p6ad3ef77ff">
   <rect height="223.2" width="262.588235294" x="459.105882353" y="28.8"/>
  </clipPath>
 </defs>
</svg>
