<?xml version="1.0" encoding="utf-8" standalone="no"?>
<!DOCTYPE svg PUBLIC "-//W3C//DTD SVG 1.1//EN"
  "http://www.w3.org/Graphics/SVG/1.1/DTD/svg11.dtd">
<!-- Created with matplotlib (http://matplotlib.org/) -->
<svg height="396pt" version="1.1" viewBox="0 0 576 396" width="576pt" xmlns="http://www.w3.org/2000/svg" xmlns:xlink="http://www.w3.org/1999/xlink">
 <defs>
  <style type="text/css">
*{stroke-linecap:butt;stroke-linejoin:round;}
  </style>
 </defs>
 <g id="figure_1">
  <g id="patch_1">
   <path d="M 0 396 
L 576 396 
L 576 0 
L 0 0 
z
" style="fill:#ffffff;"/>
  </g>
  <g id="axes_1">
   <g id="patch_2">
    <path d="M 86.4 336.6 
L 547.2 336.6 
L 547.2 19.8 
L 86.4 19.8 
z
" style="fill:#ffffff;"/>
   </g>
   <g id="matplotlib.axis_1">
    <g id="xtick_1">
     <g id="line2d_1">
      <path clip-path="url(#p43712b495a)" d="M 86.4 336.6 
L 86.4 19.8 
" style="fill:none;stroke:#cccccc;stroke-linecap:round;"/>
     </g>
     <g id="line2d_2"/>
     <g id="text_1">
      <!-- -180 -->
      <defs>
       <path d="M 3.171875 21.484375 
L 3.171875 30.328125 
L 30.171875 30.328125 
L 30.171875 21.484375 
z
" id="ArialMT-2d"/>
       <path d="M 37.25 0 
L 28.46875 0 
L 28.46875 56 
Q 25.296875 52.984375 20.140625 49.953125 
Q 14.984375 46.921875 10.890625 45.40625 
L 10.890625 53.90625 
Q 18.265625 57.375 23.78125 62.296875 
Q 29.296875 67.234375 31.59375 71.875 
L 37.25 71.875 
z
" id="ArialMT-31"/>
       <path d="M 17.671875 38.8125 
Q 12.203125 40.828125 9.5625 44.53125 
Q 6.9375 48.25 6.9375 53.421875 
Q 6.9375 61.234375 12.546875 66.546875 
Q 18.171875 71.875 27.484375 71.875 
Q 36.859375 71.875 42.578125 66.421875 
Q 48.296875 60.984375 48.296875 53.171875 
Q 48.296875 48.1875 45.671875 44.5 
Q 43.0625 40.828125 37.75 38.8125 
Q 44.34375 36.671875 47.78125 31.875 
Q 51.21875 27.09375 51.21875 20.453125 
Q 51.21875 11.28125 44.71875 5.03125 
Q 38.234375 -1.21875 27.640625 -1.21875 
Q 17.046875 -1.21875 10.546875 5.046875 
Q 4.046875 11.328125 4.046875 20.703125 
Q 4.046875 27.6875 7.59375 32.390625 
Q 11.140625 37.109375 17.671875 38.8125 
M 15.921875 53.71875 
Q 15.921875 48.640625 19.1875 45.40625 
Q 22.46875 42.1875 27.6875 42.1875 
Q 32.765625 42.1875 36.015625 45.375 
Q 39.265625 48.578125 39.265625 53.21875 
Q 39.265625 58.0625 35.90625 61.359375 
Q 32.5625 64.65625 27.59375 64.65625 
Q 22.5625 64.65625 19.234375 61.421875 
Q 15.921875 58.203125 15.921875 53.71875 
M 13.09375 20.65625 
Q 13.09375 16.890625 14.875 13.375 
Q 16.65625 9.859375 20.171875 7.921875 
Q 23.6875 6 27.734375 6 
Q 34.03125 6 38.125 10.046875 
Q 42.234375 14.109375 42.234375 20.359375 
Q 42.234375 26.703125 38.015625 30.859375 
Q 33.796875 35.015625 27.4375 35.015625 
Q 21.234375 35.015625 17.15625 30.90625 
Q 13.09375 26.8125 13.09375 20.65625 
" id="ArialMT-38"/>
       <path d="M 4.15625 35.296875 
Q 4.15625 48 6.765625 55.734375 
Q 9.375 63.484375 14.515625 67.671875 
Q 19.671875 71.875 27.484375 71.875 
Q 33.25 71.875 37.59375 69.546875 
Q 41.9375 67.234375 44.765625 62.859375 
Q 47.609375 58.5 49.21875 52.21875 
Q 50.828125 45.953125 50.828125 35.296875 
Q 50.828125 22.703125 48.234375 14.96875 
Q 45.65625 7.234375 40.5 3 
Q 35.359375 -1.21875 27.484375 -1.21875 
Q 17.140625 -1.21875 11.234375 6.203125 
Q 4.15625 15.140625 4.15625 35.296875 
M 13.1875 35.296875 
Q 13.1875 17.671875 17.3125 11.828125 
Q 21.4375 6 27.484375 6 
Q 33.546875 6 37.671875 11.859375 
Q 41.796875 17.71875 41.796875 35.296875 
Q 41.796875 52.984375 37.671875 58.78125 
Q 33.546875 64.59375 27.390625 64.59375 
Q 21.34375 64.59375 17.71875 59.46875 
Q 13.1875 52.9375 13.1875 35.296875 
" id="ArialMT-30"/>
      </defs>
      <g style="fill:#262626;" transform="translate(71.390625 354.336719)scale(0.15 -0.15)">
       <use xlink:href="#ArialMT-2d"/>
       <use x="33.300781" xlink:href="#ArialMT-31"/>
       <use x="88.916016" xlink:href="#ArialMT-38"/>
       <use x="144.53125" xlink:href="#ArialMT-30"/>
      </g>
     </g>
    </g>
    <g id="xtick_2">
     <g id="line2d_3">
      <path clip-path="url(#p43712b495a)" d="M 201.6 336.6 
L 201.6 19.8 
" style="fill:none;stroke:#cccccc;stroke-linecap:round;"/>
     </g>
     <g id="line2d_4"/>
     <g id="text_2">
      <!-- 90 -->
      <defs>
       <path d="M 5.46875 16.546875 
L 13.921875 17.328125 
Q 14.984375 11.375 18.015625 8.6875 
Q 21.046875 6 25.78125 6 
Q 29.828125 6 32.875 7.859375 
Q 35.9375 9.71875 37.890625 12.8125 
Q 39.84375 15.921875 41.15625 21.1875 
Q 42.484375 26.46875 42.484375 31.9375 
Q 42.484375 32.515625 42.4375 33.6875 
Q 39.796875 29.5 35.234375 26.875 
Q 30.671875 24.265625 25.34375 24.265625 
Q 16.453125 24.265625 10.296875 30.703125 
Q 4.15625 37.15625 4.15625 47.703125 
Q 4.15625 58.59375 10.578125 65.234375 
Q 17 71.875 26.65625 71.875 
Q 33.640625 71.875 39.421875 68.109375 
Q 45.21875 64.359375 48.21875 57.390625 
Q 51.21875 50.4375 51.21875 37.25 
Q 51.21875 23.53125 48.234375 15.40625 
Q 45.265625 7.28125 39.375 3.03125 
Q 33.5 -1.21875 25.59375 -1.21875 
Q 17.1875 -1.21875 11.859375 3.4375 
Q 6.546875 8.109375 5.46875 16.546875 
M 41.453125 48.140625 
Q 41.453125 55.71875 37.421875 60.15625 
Q 33.40625 64.59375 27.734375 64.59375 
Q 21.875 64.59375 17.53125 59.8125 
Q 13.1875 55.03125 13.1875 47.40625 
Q 13.1875 40.578125 17.3125 36.296875 
Q 21.4375 32.03125 27.484375 32.03125 
Q 33.59375 32.03125 37.515625 36.296875 
Q 41.453125 40.578125 41.453125 48.140625 
" id="ArialMT-39"/>
      </defs>
      <g style="fill:#262626;" transform="translate(193.258594 354.336719)scale(0.15 -0.15)">
       <use xlink:href="#ArialMT-39"/>
       <use x="55.615234" xlink:href="#ArialMT-30"/>
      </g>
     </g>
    </g>
    <g id="xtick_3">
     <g id="line2d_5">
      <path clip-path="url(#p43712b495a)" d="M 316.8 336.6 
L 316.8 19.8 
" style="fill:none;stroke:#cccccc;stroke-linecap:round;"/>
     </g>
     <g id="line2d_6"/>
     <g id="text_3">
      <!-- 0 -->
      <g style="fill:#262626;" transform="translate(312.629297 354.336719)scale(0.15 -0.15)">
       <use xlink:href="#ArialMT-30"/>
      </g>
     </g>
    </g>
    <g id="xtick_4">
     <g id="line2d_7">
      <path clip-path="url(#p43712b495a)" d="M 432 336.6 
L 432 19.8 
" style="fill:none;stroke:#cccccc;stroke-linecap:round;"/>
     </g>
     <g id="line2d_8"/>
     <g id="text_4">
      <!-- 90 -->
      <g style="fill:#262626;" transform="translate(423.658594 354.336719)scale(0.15 -0.15)">
       <use xlink:href="#ArialMT-39"/>
       <use x="55.615234" xlink:href="#ArialMT-30"/>
      </g>
     </g>
    </g>
    <g id="xtick_5">
     <g id="line2d_9">
      <path clip-path="url(#p43712b495a)" d="M 547.2 336.6 
L 547.2 19.8 
" style="fill:none;stroke:#cccccc;stroke-linecap:round;"/>
     </g>
     <g id="line2d_10"/>
     <g id="text_5">
      <!-- 180 -->
      <g style="fill:#262626;" transform="translate(534.687891 354.336719)scale(0.15 -0.15)">
       <use xlink:href="#ArialMT-31"/>
       <use x="55.615234" xlink:href="#ArialMT-38"/>
       <use x="111.230469" xlink:href="#ArialMT-30"/>
      </g>
     </g>
    </g>
    <g id="text_6">
     <!-- Phase -->
     <defs>
      <path d="M 7.71875 0 
L 7.71875 71.578125 
L 34.71875 71.578125 
Q 41.84375 71.578125 45.609375 70.90625 
Q 50.875 70.015625 54.4375 67.546875 
Q 58.015625 65.09375 60.1875 60.640625 
Q 62.359375 56.203125 62.359375 50.875 
Q 62.359375 41.75 56.546875 35.421875 
Q 50.734375 29.109375 35.546875 29.109375 
L 17.1875 29.109375 
L 17.1875 0 
z
M 17.1875 37.546875 
L 35.6875 37.546875 
Q 44.875 37.546875 48.734375 40.96875 
Q 52.59375 44.390625 52.59375 50.59375 
Q 52.59375 55.078125 50.3125 58.265625 
Q 48.046875 61.46875 44.34375 62.5 
Q 41.9375 63.140625 35.5 63.140625 
L 17.1875 63.140625 
z
" id="ArialMT-50"/>
      <path d="M 6.59375 0 
L 6.59375 71.578125 
L 15.375 71.578125 
L 15.375 45.90625 
Q 21.53125 53.03125 30.90625 53.03125 
Q 36.671875 53.03125 40.921875 50.75 
Q 45.171875 48.484375 47 44.484375 
Q 48.828125 40.484375 48.828125 32.859375 
L 48.828125 0 
L 40.046875 0 
L 40.046875 32.859375 
Q 40.046875 39.453125 37.1875 42.453125 
Q 34.328125 45.453125 29.109375 45.453125 
Q 25.203125 45.453125 21.75 43.421875 
Q 18.3125 41.40625 16.84375 37.9375 
Q 15.375 34.46875 15.375 28.375 
L 15.375 0 
z
" id="ArialMT-68"/>
      <path d="M 40.4375 6.390625 
Q 35.546875 2.25 31.03125 0.53125 
Q 26.515625 -1.171875 21.34375 -1.171875 
Q 12.796875 -1.171875 8.203125 3 
Q 3.609375 7.171875 3.609375 13.671875 
Q 3.609375 17.484375 5.34375 20.625 
Q 7.078125 23.78125 9.890625 25.6875 
Q 12.703125 27.59375 16.21875 28.5625 
Q 18.796875 29.25 24.03125 29.890625 
Q 34.671875 31.15625 39.703125 32.90625 
Q 39.75 34.71875 39.75 35.203125 
Q 39.75 40.578125 37.25 42.78125 
Q 33.890625 45.75 27.25 45.75 
Q 21.046875 45.75 18.09375 43.578125 
Q 15.140625 41.40625 13.71875 35.890625 
L 5.125 37.0625 
Q 6.296875 42.578125 8.984375 45.96875 
Q 11.671875 49.359375 16.75 51.1875 
Q 21.828125 53.03125 28.515625 53.03125 
Q 35.15625 53.03125 39.296875 51.46875 
Q 43.453125 49.90625 45.40625 47.53125 
Q 47.359375 45.171875 48.140625 41.546875 
Q 48.578125 39.3125 48.578125 33.453125 
L 48.578125 21.734375 
Q 48.578125 9.46875 49.140625 6.21875 
Q 49.703125 2.984375 51.375 0 
L 42.1875 0 
Q 40.828125 2.734375 40.4375 6.390625 
M 39.703125 26.03125 
Q 34.90625 24.078125 25.34375 22.703125 
Q 19.921875 21.921875 17.671875 20.9375 
Q 15.4375 19.96875 14.203125 18.09375 
Q 12.984375 16.21875 12.984375 13.921875 
Q 12.984375 10.40625 15.640625 8.0625 
Q 18.3125 5.71875 23.4375 5.71875 
Q 28.515625 5.71875 32.46875 7.9375 
Q 36.421875 10.15625 38.28125 14.015625 
Q 39.703125 17 39.703125 22.796875 
z
" id="ArialMT-61"/>
      <path d="M 3.078125 15.484375 
L 11.765625 16.84375 
Q 12.5 11.625 15.84375 8.84375 
Q 19.1875 6.0625 25.203125 6.0625 
Q 31.25 6.0625 34.171875 8.515625 
Q 37.109375 10.984375 37.109375 14.3125 
Q 37.109375 17.28125 34.515625 19 
Q 32.71875 20.171875 25.53125 21.96875 
Q 15.875 24.421875 12.140625 26.203125 
Q 8.40625 27.984375 6.46875 31.125 
Q 4.546875 34.28125 4.546875 38.09375 
Q 4.546875 41.546875 6.125 44.5 
Q 7.71875 47.46875 10.453125 49.421875 
Q 12.5 50.921875 16.03125 51.96875 
Q 19.578125 53.03125 23.640625 53.03125 
Q 29.734375 53.03125 34.34375 51.265625 
Q 38.96875 49.515625 41.15625 46.5 
Q 43.359375 43.5 44.1875 38.484375 
L 35.59375 37.3125 
Q 35.015625 41.3125 32.203125 43.546875 
Q 29.390625 45.796875 24.265625 45.796875 
Q 18.21875 45.796875 15.625 43.796875 
Q 13.03125 41.796875 13.03125 39.109375 
Q 13.03125 37.40625 14.109375 36.03125 
Q 15.1875 34.625 17.484375 33.6875 
Q 18.796875 33.203125 25.25 31.453125 
Q 34.578125 28.953125 38.25 27.359375 
Q 41.9375 25.78125 44.03125 22.75 
Q 46.140625 19.734375 46.140625 15.234375 
Q 46.140625 10.84375 43.578125 6.953125 
Q 41.015625 3.078125 36.171875 0.953125 
Q 31.34375 -1.171875 25.25 -1.171875 
Q 15.140625 -1.171875 9.84375 3.03125 
Q 4.546875 7.234375 3.078125 15.484375 
" id="ArialMT-73"/>
      <path d="M 42.09375 16.703125 
L 51.171875 15.578125 
Q 49.03125 7.625 43.21875 3.21875 
Q 37.40625 -1.171875 28.375 -1.171875 
Q 17 -1.171875 10.328125 5.828125 
Q 3.65625 12.84375 3.65625 25.484375 
Q 3.65625 38.578125 10.390625 45.796875 
Q 17.140625 53.03125 27.875 53.03125 
Q 38.28125 53.03125 44.875 45.953125 
Q 51.46875 38.875 51.46875 26.03125 
Q 51.46875 25.25 51.421875 23.6875 
L 12.75 23.6875 
Q 13.234375 15.140625 17.578125 10.59375 
Q 21.921875 6.0625 28.421875 6.0625 
Q 33.25 6.0625 36.671875 8.59375 
Q 40.09375 11.140625 42.09375 16.703125 
M 13.234375 30.90625 
L 42.1875 30.90625 
Q 41.609375 37.453125 38.875 40.71875 
Q 34.671875 45.796875 27.984375 45.796875 
Q 21.921875 45.796875 17.796875 41.75 
Q 13.671875 37.703125 13.234375 30.90625 
" id="ArialMT-65"/>
     </defs>
     <g style="fill:#262626;" transform="translate(293.408672 373.128359)scale(0.165 -0.165)">
      <use xlink:href="#ArialMT-50"/>
      <use x="66.699219" xlink:href="#ArialMT-68"/>
      <use x="122.314453" xlink:href="#ArialMT-61"/>
      <use x="177.929688" xlink:href="#ArialMT-73"/>
      <use x="227.929688" xlink:href="#ArialMT-65"/>
     </g>
    </g>
   </g>
   <g id="matplotlib.axis_2">
    <g id="ytick_1">
     <g id="line2d_11">
      <path clip-path="url(#p43712b495a)" d="M 86.4 315.513163 
L 547.2 315.513163 
" style="fill:none;stroke:#cccccc;stroke-linecap:round;"/>
     </g>
     <g id="line2d_12"/>
     <g id="text_7">
      <!-- 10000 -->
      <g style="fill:#262626;" transform="translate(37.692969 320.881522)scale(0.15 -0.15)">
       <use xlink:href="#ArialMT-31"/>
       <use x="55.615234" xlink:href="#ArialMT-30"/>
       <use x="111.230469" xlink:href="#ArialMT-30"/>
       <use x="166.845703" xlink:href="#ArialMT-30"/>
       <use x="222.460938" xlink:href="#ArialMT-30"/>
      </g>
     </g>
    </g>
    <g id="ytick_2">
     <g id="line2d_13">
      <path clip-path="url(#p43712b495a)" d="M 86.4 265.778167 
L 547.2 265.778167 
" style="fill:none;stroke:#cccccc;stroke-linecap:round;"/>
     </g>
     <g id="line2d_14"/>
     <g id="text_8">
      <!-- 15000 -->
      <defs>
       <path d="M 4.15625 18.75 
L 13.375 19.53125 
Q 14.40625 12.796875 18.140625 9.390625 
Q 21.875 6 27.15625 6 
Q 33.5 6 37.890625 10.78125 
Q 42.28125 15.578125 42.28125 23.484375 
Q 42.28125 31 38.0625 35.34375 
Q 33.84375 39.703125 27 39.703125 
Q 22.75 39.703125 19.328125 37.765625 
Q 15.921875 35.84375 13.96875 32.765625 
L 5.71875 33.84375 
L 12.640625 70.609375 
L 48.25 70.609375 
L 48.25 62.203125 
L 19.671875 62.203125 
L 15.828125 42.96875 
Q 22.265625 47.46875 29.34375 47.46875 
Q 38.71875 47.46875 45.15625 40.96875 
Q 51.609375 34.46875 51.609375 24.265625 
Q 51.609375 14.546875 45.953125 7.46875 
Q 39.0625 -1.21875 27.15625 -1.21875 
Q 17.390625 -1.21875 11.203125 4.25 
Q 5.03125 9.71875 4.15625 18.75 
" id="ArialMT-35"/>
      </defs>
      <g style="fill:#262626;" transform="translate(37.692969 271.146526)scale(0.15 -0.15)">
       <use xlink:href="#ArialMT-31"/>
       <use x="55.615234" xlink:href="#ArialMT-35"/>
       <use x="111.230469" xlink:href="#ArialMT-30"/>
       <use x="166.845703" xlink:href="#ArialMT-30"/>
       <use x="222.460938" xlink:href="#ArialMT-30"/>
      </g>
     </g>
    </g>
    <g id="ytick_3">
     <g id="line2d_15">
      <path clip-path="url(#p43712b495a)" d="M 86.4 216.04317 
L 547.2 216.04317 
" style="fill:none;stroke:#cccccc;stroke-linecap:round;"/>
     </g>
     <g id="line2d_16"/>
     <g id="text_9">
      <!-- 20000 -->
      <defs>
       <path d="M 50.34375 8.453125 
L 50.34375 0 
L 3.03125 0 
Q 2.9375 3.171875 4.046875 6.109375 
Q 5.859375 10.9375 9.828125 15.625 
Q 13.8125 20.3125 21.34375 26.46875 
Q 33.015625 36.03125 37.109375 41.625 
Q 41.21875 47.21875 41.21875 52.203125 
Q 41.21875 57.421875 37.46875 61 
Q 33.734375 64.59375 27.734375 64.59375 
Q 21.390625 64.59375 17.578125 60.78125 
Q 13.765625 56.984375 13.71875 50.25 
L 4.6875 51.171875 
Q 5.609375 61.28125 11.65625 66.578125 
Q 17.71875 71.875 27.9375 71.875 
Q 38.234375 71.875 44.234375 66.15625 
Q 50.25 60.453125 50.25 52 
Q 50.25 47.703125 48.484375 43.546875 
Q 46.734375 39.40625 42.65625 34.8125 
Q 38.578125 30.21875 29.109375 22.21875 
Q 21.1875 15.578125 18.9375 13.203125 
Q 16.703125 10.84375 15.234375 8.453125 
z
" id="ArialMT-32"/>
      </defs>
      <g style="fill:#262626;" transform="translate(37.692969 221.41153)scale(0.15 -0.15)">
       <use xlink:href="#ArialMT-32"/>
       <use x="55.615234" xlink:href="#ArialMT-30"/>
       <use x="111.230469" xlink:href="#ArialMT-30"/>
       <use x="166.845703" xlink:href="#ArialMT-30"/>
       <use x="222.460938" xlink:href="#ArialMT-30"/>
      </g>
     </g>
    </g>
    <g id="ytick_4">
     <g id="line2d_17">
      <path clip-path="url(#p43712b495a)" d="M 86.4 166.308174 
L 547.2 166.308174 
" style="fill:none;stroke:#cccccc;stroke-linecap:round;"/>
     </g>
     <g id="line2d_18"/>
     <g id="text_10">
      <!-- 25000 -->
      <g style="fill:#262626;" transform="translate(37.692969 171.676534)scale(0.15 -0.15)">
       <use xlink:href="#ArialMT-32"/>
       <use x="55.615234" xlink:href="#ArialMT-35"/>
       <use x="111.230469" xlink:href="#ArialMT-30"/>
       <use x="166.845703" xlink:href="#ArialMT-30"/>
       <use x="222.460938" xlink:href="#ArialMT-30"/>
      </g>
     </g>
    </g>
    <g id="ytick_5">
     <g id="line2d_19">
      <path clip-path="url(#p43712b495a)" d="M 86.4 116.573178 
L 547.2 116.573178 
" style="fill:none;stroke:#cccccc;stroke-linecap:round;"/>
     </g>
     <g id="line2d_20"/>
     <g id="text_11">
      <!-- 30000 -->
      <defs>
       <path d="M 4.203125 18.890625 
L 12.984375 20.0625 
Q 14.5 12.59375 18.140625 9.296875 
Q 21.78125 6 27 6 
Q 33.203125 6 37.46875 10.296875 
Q 41.75 14.59375 41.75 20.953125 
Q 41.75 27 37.796875 30.921875 
Q 33.84375 34.859375 27.734375 34.859375 
Q 25.25 34.859375 21.53125 33.890625 
L 22.515625 41.609375 
Q 23.390625 41.5 23.921875 41.5 
Q 29.546875 41.5 34.03125 44.421875 
Q 38.53125 47.359375 38.53125 53.46875 
Q 38.53125 58.296875 35.25 61.46875 
Q 31.984375 64.65625 26.8125 64.65625 
Q 21.6875 64.65625 18.265625 61.421875 
Q 14.84375 58.203125 13.875 51.765625 
L 5.078125 53.328125 
Q 6.6875 62.15625 12.390625 67.015625 
Q 18.109375 71.875 26.609375 71.875 
Q 32.46875 71.875 37.390625 69.359375 
Q 42.328125 66.84375 44.9375 62.5 
Q 47.5625 58.15625 47.5625 53.265625 
Q 47.5625 48.640625 45.0625 44.828125 
Q 42.578125 41.015625 37.703125 38.765625 
Q 44.046875 37.3125 47.5625 32.6875 
Q 51.078125 28.078125 51.078125 21.140625 
Q 51.078125 11.765625 44.234375 5.25 
Q 37.40625 -1.265625 26.953125 -1.265625 
Q 17.53125 -1.265625 11.296875 4.34375 
Q 5.078125 9.96875 4.203125 18.890625 
" id="ArialMT-33"/>
      </defs>
      <g style="fill:#262626;" transform="translate(37.692969 121.941537)scale(0.15 -0.15)">
       <use xlink:href="#ArialMT-33"/>
       <use x="55.615234" xlink:href="#ArialMT-30"/>
       <use x="111.230469" xlink:href="#ArialMT-30"/>
       <use x="166.845703" xlink:href="#ArialMT-30"/>
       <use x="222.460938" xlink:href="#ArialMT-30"/>
      </g>
     </g>
    </g>
    <g id="ytick_6">
     <g id="line2d_21">
      <path clip-path="url(#p43712b495a)" d="M 86.4 66.838182 
L 547.2 66.838182 
" style="fill:none;stroke:#cccccc;stroke-linecap:round;"/>
     </g>
     <g id="line2d_22"/>
     <g id="text_12">
      <!-- 35000 -->
      <g style="fill:#262626;" transform="translate(37.692969 72.206541)scale(0.15 -0.15)">
       <use xlink:href="#ArialMT-33"/>
       <use x="55.615234" xlink:href="#ArialMT-35"/>
       <use x="111.230469" xlink:href="#ArialMT-30"/>
       <use x="166.845703" xlink:href="#ArialMT-30"/>
       <use x="222.460938" xlink:href="#ArialMT-30"/>
      </g>
     </g>
    </g>
    <g id="text_13">
     <!-- Flux -->
     <defs>
      <path d="M 8.203125 0 
L 8.203125 71.578125 
L 56.5 71.578125 
L 56.5 63.140625 
L 17.671875 63.140625 
L 17.671875 40.96875 
L 51.265625 40.96875 
L 51.265625 32.515625 
L 17.671875 32.515625 
L 17.671875 0 
z
" id="ArialMT-46"/>
      <path d="M 6.390625 0 
L 6.390625 71.578125 
L 15.1875 71.578125 
L 15.1875 0 
z
" id="ArialMT-6c"/>
      <path d="M 40.578125 0 
L 40.578125 7.625 
Q 34.515625 -1.171875 24.125 -1.171875 
Q 19.53125 -1.171875 15.546875 0.578125 
Q 11.578125 2.34375 9.640625 5 
Q 7.71875 7.671875 6.9375 11.53125 
Q 6.390625 14.109375 6.390625 19.734375 
L 6.390625 51.859375 
L 15.1875 51.859375 
L 15.1875 23.09375 
Q 15.1875 16.21875 15.71875 13.8125 
Q 16.546875 10.359375 19.234375 8.375 
Q 21.921875 6.390625 25.875 6.390625 
Q 29.828125 6.390625 33.296875 8.421875 
Q 36.765625 10.453125 38.203125 13.9375 
Q 39.65625 17.4375 39.65625 24.078125 
L 39.65625 51.859375 
L 48.4375 51.859375 
L 48.4375 0 
z
" id="ArialMT-75"/>
      <path d="M 0.734375 0 
L 19.671875 26.953125 
L 2.15625 51.859375 
L 13.140625 51.859375 
L 21.09375 39.703125 
Q 23.34375 36.234375 24.703125 33.890625 
Q 26.859375 37.109375 28.65625 39.59375 
L 37.40625 51.859375 
L 47.90625 51.859375 
L 29.984375 27.4375 
L 49.265625 0 
L 38.484375 0 
L 27.828125 16.109375 
L 25 20.453125 
L 11.375 0 
z
" id="ArialMT-78"/>
     </defs>
     <g style="fill:#262626;" transform="translate(30.413594 193.784766)rotate(-90)scale(0.165 -0.165)">
      <use xlink:href="#ArialMT-46"/>
      <use x="61.083984" xlink:href="#ArialMT-6c"/>
      <use x="83.300781" xlink:href="#ArialMT-75"/>
      <use x="138.916016" xlink:href="#ArialMT-78"/>
     </g>
    </g>
   </g>
   <g id="line2d_23">
    <path clip-path="url(#p43712b495a)" d="M 86.4 304.266397 
L 102.4 305.181311 
L 118.4 305.937085 
L 134.4 306.434537 
L 147.2 306.654453 
L 163.2 306.67037 
L 179.2 306.43026 
L 204.8 305.781013 
L 291.2 303.357311 
L 332.8 302.241365 
L 374.4 300.896374 
L 409.6 299.727688 
L 425.6 299.41419 
L 438.4 299.313447 
L 454.4 299.45157 
L 467.2 299.744583 
L 486.4 300.495994 
L 502.4 301.374013 
L 524.8 302.804406 
L 544 304.055485 
L 544 304.055485 
" style="fill:none;stroke:#4c72b0;stroke-linecap:round;stroke-width:1.5;"/>
   </g>
   <g id="line2d_24">
    <path clip-path="url(#p43712b495a)" d="M 86.4 317.187259 
L 150.4 316.718278 
L 185.6 316.57536 
L 208 316.767344 
L 224 317.149231 
L 240 317.737681 
L 262.4 318.832859 
L 297.6 320.677872 
L 320 321.573835 
L 336 321.978953 
L 352 322.188752 
L 368 322.1648 
L 380.8 321.954836 
L 396.8 321.487906 
L 419.2 320.528934 
L 460.8 318.716489 
L 480 318.147147 
L 499.2 317.767454 
L 534.4 317.310087 
L 544 317.211917 
L 544 317.211917 
" style="fill:none;stroke:#55a868;stroke-linecap:round;stroke-width:1.5;"/>
   </g>
   <g id="line2d_25">
    <path clip-path="url(#p43712b495a)" d="M 86.4 245.857923 
L 89.6 246.712213 
L 92.8 247.502675 
L 99.2 248.869997 
L 105.6 249.918264 
L 112 250.606808 
L 118.4 250.895203 
L 121.6 250.877449 
L 124.8 250.745943 
L 128 250.496651 
L 131.2 250.125868 
L 134.4 249.629679 
L 137.6 249.004335 
L 140.8 248.246218 
L 144 247.35224 
L 147.2 246.319531 
L 150.4 245.145691 
L 153.6 243.828061 
L 156.8 242.364442 
L 160 240.753213 
L 163.2 238.993213 
L 166.4 237.083516 
L 169.6 235.023507 
L 172.8 232.812023 
L 176 230.448143 
L 179.2 227.93181 
L 182.4 225.263081 
L 185.6 222.442385 
L 192 216.349468 
L 198.4 209.666475 
L 204.8 202.415139 
L 211.2 194.626317 
L 217.6 186.33433 
L 224 177.575889 
L 230.4 168.403798 
L 236.8 158.891695 
L 246.4 144.193405 
L 262.4 119.55064 
L 268.8 110.041414 
L 275.2 100.943398 
L 281.6 92.395149 
L 284.8 88.369056 
L 288 84.529753 
L 291.2 80.892711 
L 294.4 77.472726 
L 297.6 74.283914 
L 300.8 71.339481 
L 304 68.651776 
L 307.2 66.231982 
L 310.4 64.09026 
L 313.6 62.23519 
L 316.8 60.673872 
L 320 59.408029 
L 323.2 58.434902 
L 326.4 57.752202 
L 329.6 57.357421 
L 332.8 57.247414 
L 336 57.418412 
L 339.2 57.86591 
L 342.4 58.584721 
L 345.6 59.568918 
L 348.8 60.812284 
L 352 62.307961 
L 355.2 64.048838 
L 358.4 66.027318 
L 361.6 68.235455 
L 364.8 70.664424 
L 368 73.304909 
L 371.2 76.147075 
L 374.4 79.180981 
L 377.6 82.396278 
L 384 89.328254 
L 390.4 96.852688 
L 396.8 104.877443 
L 403.2 113.30657 
L 412.8 126.481767 
L 438.4 162.279883 
L 444.8 170.851924 
L 451.2 179.08766 
L 457.6 186.903003 
L 464 194.233631 
L 470.4 201.035543 
L 476.8 207.285515 
L 483.2 212.980227 
L 489.6 218.133775 
L 496 222.77246 
L 502.4 226.929628 
L 508.8 230.643175 
L 515.2 233.953632 
L 521.6 236.902797 
L 528 239.532178 
L 534.4 241.880579 
L 540.8 243.981226 
L 544 244.9466 
L 544 244.9466 
" style="fill:none;stroke:#c44e52;stroke-linecap:round;stroke-width:1.5;"/>
   </g>
   <g id="line2d_26">
    <path clip-path="url(#p43712b495a)" d="M 86.4 246.829037 
L 89.6 247.71118 
L 92.8 248.527311 
L 99.2 249.938776 
L 105.6 251.020519 
L 112 251.730467 
L 118.4 252.026644 
L 121.6 252.007177 
L 124.8 251.869964 
L 128 251.610783 
L 131.2 251.225749 
L 134.4 250.710751 
L 137.6 250.061846 
L 140.8 249.27522 
L 144 248.347609 
L 147.2 247.275968 
L 150.4 246.057742 
L 153.6 244.690093 
L 156.8 243.170661 
L 160 241.497685 
L 163.2 239.669883 
L 166.4 237.686213 
L 169.6 235.545955 
L 172.8 233.247803 
L 176 230.790697 
L 179.2 228.174483 
L 182.4 225.399115 
L 185.6 222.464936 
L 188.8 219.372868 
L 195.2 212.721046 
L 201.6 205.461048 
L 208 197.619769 
L 214.4 189.231738 
L 220.8 180.331757 
L 227.2 170.964715 
L 233.6 161.196624 
L 243.2 145.987773 
L 265.6 110.026989 
L 272 100.271397 
L 278.4 91.017756 
L 284.8 82.408909 
L 288 78.389084 
L 291.2 74.580785 
L 294.4 70.999515 
L 297.6 67.660066 
L 300.8 64.576265 
L 304 61.761039 
L 307.2 59.226089 
L 310.4 56.982045 
L 313.6 55.037885 
L 316.8 53.401034 
L 320 52.073356 
L 323.2 51.052074 
L 326.4 50.334878 
L 329.6 49.919213 
L 332.8 49.801849 
L 336 49.978898 
L 339.2 50.44569 
L 342.4 51.196836 
L 345.6 52.226164 
L 348.8 53.527185 
L 352 55.092736 
L 355.2 56.915378 
L 358.4 58.987159 
L 361.6 61.299759 
L 364.8 63.843928 
L 368 66.609902 
L 371.2 69.587367 
L 374.4 72.765892 
L 377.6 76.134618 
L 380.8 79.682535 
L 387.2 87.268179 
L 393.6 95.426639 
L 400 104.059727 
L 406.4 113.062174 
L 416 127.018335 
L 435.2 155.218455 
L 441.6 164.326751 
L 448 173.127639 
L 454.4 181.526004 
L 460.8 189.443097 
L 467.2 196.822592 
L 473.6 203.629519 
L 480 209.850616 
L 486.4 215.492964 
L 492.8 220.579315 
L 499.2 225.142256 
L 505.6 229.22018 
L 512 232.855066 
L 518.4 236.09081 
L 524.8 238.971733 
L 531.2 241.540605 
L 537.6 243.835745 
L 544 245.887866 
L 544 245.887866 
" style="fill:none;stroke:#8172b2;stroke-linecap:round;stroke-width:1.5;"/>
   </g>
   <g id="line2d_27">
    <path clip-path="url(#p43712b495a)" d="M 86.4 248.558335 
L 89.6 249.464276 
L 92.8 250.302315 
L 99.2 251.751398 
L 105.6 252.861584 
L 112 253.589584 
L 115.2 253.796604 
L 118.4 253.892045 
L 121.6 253.870858 
L 124.8 253.728448 
L 128 253.460418 
L 131.2 253.062717 
L 134.4 252.531049 
L 137.6 251.861288 
L 140.8 251.049435 
L 144 250.092057 
L 147.2 248.985942 
L 150.4 247.72838 
L 153.6 246.316363 
L 156.8 244.747367 
L 160 243.019495 
L 163.2 241.131338 
L 166.4 239.081736 
L 169.6 236.869857 
L 172.8 234.494248 
L 176 231.953704 
L 179.2 229.247962 
L 182.4 226.376865 
L 185.6 223.340656 
L 188.8 220.14018 
L 195.2 213.252187 
L 201.6 205.730064 
L 208 197.600937 
L 214.4 188.89996 
L 220.8 179.662568 
L 227.2 169.934804 
L 233.6 159.784983 
L 243.2 143.972008 
L 265.6 106.548187 
L 272 96.389977 
L 278.4 86.752842 
L 284.8 77.785973 
L 288 73.598564 
L 291.2 69.63124 
L 294.4 65.900168 
L 297.6 62.420762 
L 300.8 59.207428 
L 304 56.273626 
L 307.2 53.631542 
L 310.4 51.292233 
L 313.6 49.265046 
L 316.8 47.55771 
L 320 46.172226 
L 323.2 45.105819 
L 326.4 44.356173 
L 329.6 43.920701 
L 332.8 43.796109 
L 336 43.978403 
L 339.2 44.462774 
L 342.4 45.243647 
L 345.6 46.314631 
L 348.8 47.668989 
L 352 49.299278 
L 355.2 51.197756 
L 358.4 53.356143 
L 361.6 55.765769 
L 364.8 58.416995 
L 368 61.299634 
L 371.2 64.402926 
L 374.4 67.715986 
L 377.6 71.227471 
L 380.8 74.925884 
L 387.2 82.833576 
L 393.6 91.338515 
L 400 100.338016 
L 406.4 109.721934 
L 416 124.267256 
L 435.2 153.642936 
L 441.6 163.124338 
L 448 172.281392 
L 454.4 181.014572 
L 460.8 189.24161 
L 467.2 196.903895 
L 473.6 203.965337 
L 480 210.412718 
L 486.4 216.254231 
L 492.8 221.514516 
L 499.2 226.228462 
L 505.6 230.436934 
L 512 234.18443 
L 518.4 237.517319 
L 524.8 240.482273 
L 531.2 243.124207 
L 537.6 245.483278 
L 544 247.591631 
L 544 247.591631 
" style="fill:none;stroke:#ccb974;stroke-linecap:round;stroke-width:1.5;"/>
   </g>
   <g id="line2d_28">
    <path clip-path="url(#p43712b495a)" d="M 86.4 250.969597 
L 89.6 251.895265 
L 92.8 252.75144 
L 99.2 254.231601 
L 105.6 255.365197 
L 112 256.107915 
L 115.2 256.318662 
L 118.4 256.415199 
L 121.6 256.392316 
L 124.8 256.245256 
L 128 255.969463 
L 131.2 255.560734 
L 134.4 255.014602 
L 137.6 254.32677 
L 140.8 253.493065 
L 144 252.509894 
L 147.2 251.373884 
L 150.4 250.082179 
L 153.6 248.631601 
L 156.8 247.01947 
L 160 245.24375 
L 163.2 243.302907 
L 166.4 241.195657 
L 169.6 238.921053 
L 172.8 236.477489 
L 176 233.863613 
L 179.2 231.079043 
L 182.4 228.123503 
L 185.6 224.997125 
L 188.8 221.700663 
L 192 218.235357 
L 198.4 210.80598 
L 204.8 202.730681 
L 211.2 194.041719 
L 217.6 184.775401 
L 224 174.970754 
L 230.4 164.68564 
L 236.8 154.002393 
L 246.4 137.465549 
L 262.4 109.680476 
L 268.8 98.944217 
L 275.2 88.666595 
L 281.6 79.005656 
L 284.8 74.454126 
L 288 70.112928 
L 291.2 65.999627 
L 294.4 62.130998 
L 297.6 58.523029 
L 300.8 55.190656 
L 304 52.14783 
L 307.2 49.407174 
L 310.4 46.98014 
L 313.6 44.87641 
L 316.8 43.103989 
L 320 41.665015 
L 323.2 40.556734 
L 326.4 39.776839 
L 329.6 39.322727 
L 332.8 39.191053 
L 336 39.377741 
L 339.2 39.877858 
L 342.4 40.685672 
L 345.6 41.794593 
L 348.8 43.197663 
L 352 44.887184 
L 355.2 46.855141 
L 358.4 49.092951 
L 361.6 51.591625 
L 364.8 54.341164 
L 368 57.330995 
L 371.2 60.549947 
L 374.4 63.98671 
L 377.6 67.6295 
L 380.8 71.466361 
L 387.2 79.670393 
L 393.6 88.494197 
L 400 97.830899 
L 406.4 107.565796 
L 416 122.652863 
L 435.2 153.107129 
L 441.6 162.929774 
L 448 172.411843 
L 454.4 181.449677 
L 460.8 189.957735 
L 467.2 197.875324 
L 473.6 205.165386 
L 480 211.814842 
L 483.2 214.901563 
L 486.4 217.833055 
L 492.8 223.246561 
L 499.2 228.092528 
L 505.6 232.414234 
L 512 236.258617 
L 518.4 239.674422 
L 524.8 242.710558 
L 531.2 245.413963 
L 537.6 247.826514 
L 544 249.981693 
L 544 249.981693 
" style="fill:none;stroke:#64b5cd;stroke-linecap:round;stroke-width:1.5;"/>
   </g>
   <g id="line2d_29">
    <path clip-path="url(#p43712b495a)" d="M 86.4 253.986533 
L 89.6 254.927987 
L 92.8 255.79865 
L 99.2 257.303584 
L 105.6 258.455779 
L 112 259.21009 
L 115.2 259.423693 
L 118.4 259.520947 
L 121.6 259.496496 
L 124.8 259.345443 
L 128 259.063089 
L 131.2 258.645093 
L 134.4 258.086833 
L 137.6 257.383856 
L 140.8 256.531825 
L 144 255.526998 
L 147.2 254.365853 
L 150.4 253.045392 
L 153.6 251.562276 
L 156.8 249.913676 
L 160 248.097418 
L 163.2 246.111843 
L 166.4 243.95554 
L 169.6 241.627445 
L 172.8 239.1258 
L 176 236.4491 
L 179.2 233.596842 
L 182.4 230.568622 
L 185.6 227.364452 
L 188.8 223.984986 
L 192 220.43137 
L 198.4 212.809186 
L 204.8 204.519276 
L 211.2 195.594015 
L 217.6 186.06999 
L 224 175.98658 
L 230.4 165.402854 
L 236.8 154.403465 
L 246.4 137.367038 
L 262.4 108.721416 
L 268.8 97.647544 
L 275.2 87.044735 
L 281.6 77.076567 
L 284.8 72.3798 
L 288 67.899773 
L 291.2 63.654635 
L 294.4 59.661714 
L 297.6 55.937515 
L 300.8 52.497452 
L 304 49.355915 
L 307.2 46.525923 
L 310.4 44.019278 
L 313.6 41.845965 
L 316.8 40.014235 
L 320 38.526362 
L 323.2 37.379631 
L 326.4 36.57176 
L 329.6 36.100145 
L 332.8 35.96141 
L 336 36.151412 
L 339.2 36.665119 
L 342.4 37.496665 
L 345.6 38.639289 
L 348.8 40.085838 
L 352 41.82839 
L 355.2 43.858683 
L 358.4 46.167867 
L 361.6 48.746666 
L 364.8 51.584756 
L 368 54.671216 
L 371.2 57.994498 
L 374.4 61.542912 
L 377.6 65.304266 
L 380.8 69.266194 
L 387.2 77.738038 
L 393.6 86.850125 
L 400 96.491725 
L 406.4 106.543949 
L 416 122.120578 
L 435.2 153.547441 
L 441.6 163.676788 
L 448 173.45028 
L 454.4 182.76043 
L 460.8 191.518712 
L 467.2 199.662573 
L 473.6 207.154135 
L 476.8 210.650337 
L 480 213.980534 
L 483.2 217.146863 
L 486.4 220.152331 
L 489.6 223.001145 
L 492.8 225.697942 
L 499.2 230.656743 
L 505.6 235.074325 
L 512 238.999954 
L 518.4 242.484622 
L 524.8 245.57933 
L 531.2 248.332889 
L 537.6 250.788755 
L 544 252.981628 
L 544 252.981628 
" style="fill:none;stroke:#4c72b0;stroke-linecap:round;stroke-width:1.5;"/>
   </g>
   <g id="line2d_30">
    <path clip-path="url(#p43712b495a)" d="M 86.4 257.52666 
L 89.6 258.480625 
L 92.8 259.362776 
L 99.2 260.887426 
L 105.6 262.05461 
L 112 262.818575 
L 115.2 263.03476 
L 118.4 263.132955 
L 121.6 263.107685 
L 124.8 262.953936 
L 128 262.666891 
L 131.2 262.242089 
L 134.4 261.67478 
L 137.6 260.960371 
L 140.8 260.094381 
L 144 259.072932 
L 147.2 257.892369 
L 150.4 256.549567 
L 153.6 255.041041 
L 156.8 253.363821 
L 160 251.515608 
L 163.2 249.494625 
L 166.4 247.299327 
L 169.6 244.928536 
L 172.8 242.380348 
L 176 239.653113 
L 179.2 236.746205 
L 182.4 233.659094 
L 185.6 230.391672 
L 188.8 226.944488 
L 192 223.31857 
L 195.2 219.515512 
L 201.6 211.387908 
L 208 202.58855 
L 214.4 193.153413 
L 220.8 183.118594 
L 227.2 172.532271 
L 233.6 161.468045 
L 243.2 144.197833 
L 265.6 103.208905 
L 272 92.063567 
L 278.4 81.48435 
L 284.8 71.636409 
L 288 67.036034 
L 291.2 62.676461 
L 294.4 58.57549 
L 297.6 54.750075 
L 300.8 51.216039 
L 304 47.988149 
L 307.2 45.079759 
L 310.4 42.502974 
L 313.6 40.268035 
L 316.8 38.383408 
L 320 36.851503 
L 323.2 35.669667 
L 326.4 34.835661 
L 329.6 34.346901 
L 332.8 34.2 
L 336 34.390778 
L 339.2 34.914133 
L 342.4 35.764096 
L 345.6 36.93377 
L 348.8 38.41585 
L 352 40.202227 
L 355.2 42.284439 
L 358.4 44.653411 
L 361.6 47.299627 
L 364.8 50.212491 
L 368 53.380786 
L 371.2 56.792639 
L 374.4 60.43603 
L 377.6 64.298424 
L 380.8 68.367095 
L 387.2 77.067962 
L 393.6 86.427095 
L 400 96.330379 
L 406.4 106.65525 
L 416 122.65288 
L 435.2 154.916057 
L 441.6 165.30875 
L 448 175.332131 
L 454.4 184.875283 
L 460.8 193.847079 
L 467.2 202.183386 
L 473.6 209.845653 
L 476.8 213.419075 
L 480 216.821215 
L 483.2 220.054383 
L 486.4 223.121787 
L 489.6 226.027872 
L 492.8 228.777524 
L 496 231.376261 
L 502.4 236.144391 
L 508.8 240.382099 
L 515.2 244.141777 
L 521.6 247.476576 
L 528 250.438497 
L 534.4 253.075571 
L 540.8 255.428558 
L 544 256.508266 
L 544 256.508266 
" style="fill:none;stroke:#55a868;stroke-linecap:round;stroke-width:1.5;"/>
   </g>
   <g id="line2d_31">
    <path clip-path="url(#p43712b495a)" d="M 86.4 261.474848 
L 89.6 262.441482 
L 92.8 263.335581 
L 99.2 264.882007 
L 105.6 266.068137 
L 112 266.848102 
L 115.2 267.071065 
L 118.4 267.175148 
L 121.6 267.154828 
L 124.8 267.005042 
L 128 266.720924 
L 131.2 266.297969 
L 134.4 265.731372 
L 137.6 265.016486 
L 140.8 264.148606 
L 144 263.123788 
L 147.2 261.938305 
L 150.4 260.588963 
L 153.6 259.072197 
L 156.8 257.384961 
L 160 255.524886 
L 163.2 253.490132 
L 166.4 251.278833 
L 169.6 248.889739 
L 172.8 246.320856 
L 176 243.570442 
L 179.2 240.637799 
L 182.4 237.522321 
L 185.6 234.223829 
L 188.8 230.74281 
L 192 227.079872 
L 195.2 223.236554 
L 201.6 215.018597 
L 208 206.115756 
L 214.4 196.564229 
L 220.8 186.398926 
L 227.2 175.668035 
L 233.6 164.446324 
L 240 152.834135 
L 252.8 128.956771 
L 262.4 111.100122 
L 268.8 99.545856 
L 275.2 88.476524 
L 281.6 78.063908 
L 284.8 73.155598 
L 288 68.472343 
L 291.2 64.033121 
L 294.4 59.855966 
L 297.6 55.958123 
L 300.8 52.355679 
L 304 49.063634 
L 307.2 46.095549 
L 310.4 43.463711 
L 313.6 41.178518 
L 316.8 39.248574 
L 320 37.676471 
L 323.2 36.459684 
L 326.4 35.596078 
L 329.6 35.083151 
L 332.8 34.91758 
L 336 35.095228 
L 339.2 35.611018 
L 342.4 36.458985 
L 345.6 37.632168 
L 348.8 39.123222 
L 352 40.923983 
L 355.2 43.025921 
L 358.4 45.419883 
L 361.6 48.096268 
L 364.8 51.044371 
L 368 54.252853 
L 371.2 57.709542 
L 374.4 61.402261 
L 377.6 65.318303 
L 380.8 69.444764 
L 387.2 78.272814 
L 393.6 87.773188 
L 400 97.829203 
L 406.4 108.315978 
L 416 124.568775 
L 435.2 157.353037 
L 441.6 167.91342 
L 448 178.097821 
L 454.4 187.792029 
L 460.8 196.903518 
L 467.2 205.367449 
L 473.6 213.144721 
L 476.8 216.770563 
L 480 220.221889 
L 483.2 223.501162 
L 486.4 226.611755 
L 489.6 229.558294 
L 492.8 232.345847 
L 496 234.980117 
L 499.2 237.466767 
L 505.6 242.02296 
L 512 246.067287 
L 518.4 249.654058 
L 524.8 252.837115 
L 531.2 255.667558 
L 537.6 258.190833 
L 544 260.443033 
L 544 260.443033 
" style="fill:none;stroke:#c44e52;stroke-linecap:round;stroke-width:1.5;"/>
   </g>
   <g id="line2d_32">
    <path clip-path="url(#p43712b495a)" d="M 86.4 266.170974 
L 89.6 267.160568 
L 92.8 268.078229 
L 99.2 269.675155 
L 105.6 270.918846 
L 112 271.76673 
L 115.2 272.027441 
L 118.4 272.171919 
L 121.6 272.195035 
L 124.8 272.09213 
L 128 271.858769 
L 131.2 271.4909 
L 134.4 270.984212 
L 137.6 270.33457 
L 140.8 269.535705 
L 144 268.584054 
L 147.2 267.476275 
L 150.4 266.209558 
L 153.6 264.78074 
L 156.8 263.187187 
L 160 261.426948 
L 163.2 259.498602 
L 166.4 257.397828 
L 169.6 255.123683 
L 172.8 252.674507 
L 176 250.048916 
L 179.2 247.24657 
L 182.4 244.267257 
L 185.6 241.111208 
L 188.8 237.779307 
L 192 234.268858 
L 195.2 230.581674 
L 201.6 222.68797 
L 208 214.127226 
L 214.4 204.938072 
L 220.8 195.145008 
L 227.2 184.79359 
L 233.6 173.959671 
L 240 162.743896 
L 249.6 145.454796 
L 262.4 122.331017 
L 268.8 111.117212 
L 275.2 100.355892 
L 281.6 90.215396 
L 284.8 85.428529 
L 288 80.856318 
L 291.2 76.517202 
L 294.4 72.427451 
L 297.6 68.603884 
L 300.8 65.062166 
L 304 61.816878 
L 307.2 58.881192 
L 310.4 56.267034 
L 313.6 53.984516 
L 316.8 52.042044 
L 320 50.442127 
L 323.2 49.182813 
L 326.4 48.262489 
L 329.6 47.67918 
L 332.8 47.430137 
L 336 47.511835 
L 339.2 47.919855 
L 342.4 48.648945 
L 345.6 49.691686 
L 348.8 51.041422 
L 352 52.69073 
L 355.2 54.631857 
L 358.4 56.856476 
L 361.6 59.355855 
L 364.8 62.120227 
L 368 65.139229 
L 371.2 68.399609 
L 374.4 71.890077 
L 377.6 75.598835 
L 380.8 79.513906 
L 387.2 87.910725 
L 393.6 96.975291 
L 400 106.590423 
L 406.4 116.636135 
L 416 132.244831 
L 435.2 163.851505 
L 441.6 174.067607 
L 448 183.940475 
L 454.4 193.350327 
L 460.8 202.21101 
L 467.2 210.463255 
L 473.6 218.068195 
L 476.8 221.619022 
L 480 225.003184 
L 483.2 228.223334 
L 486.4 231.282968 
L 489.6 234.186752 
L 496 239.54754 
L 502.4 244.342594 
L 508.8 248.619718 
L 515.2 252.431467 
L 521.6 255.830169 
L 528 258.862201 
L 534.4 261.572564 
L 540.8 263.999828 
L 544 265.116329 
L 544 265.116329 
" style="fill:none;stroke:#8172b2;stroke-linecap:round;stroke-width:1.5;"/>
   </g>
   <g id="patch_3">
    <path d="M 86.4 336.6 
L 86.4 19.8 
" style="fill:none;stroke:#cccccc;stroke-linecap:square;stroke-linejoin:miter;"/>
   </g>
   <g id="patch_4">
    <path d="M 547.2 336.6 
L 547.2 19.8 
" style="fill:none;stroke:#cccccc;stroke-linecap:square;stroke-linejoin:miter;"/>
   </g>
   <g id="patch_5">
    <path d="M 86.4 336.6 
L 547.2 336.6 
" style="fill:none;stroke:#cccccc;stroke-linecap:square;stroke-linejoin:miter;"/>
   </g>
   <g id="patch_6">
    <path d="M 86.4 19.8 
L 547.2 19.8 
" style="fill:none;stroke:#cccccc;stroke-linecap:square;stroke-linejoin:miter;"/>
   </g>
  </g>
 </g>
 <defs>
  <clipPath id="p43712b495a">
   <rect height="316.8" width="460.8" x="86.4" y="19.8"/>
  </clipPath>
 </defs>
</svg>
