<?xml version="1.0" encoding="utf-8" standalone="no"?>
<!DOCTYPE svg PUBLIC "-//W3C//DTD SVG 1.1//EN"
  "http://www.w3.org/Graphics/SVG/1.1/DTD/svg11.dtd">
<!-- Created with matplotlib (http://matplotlib.org/) -->
<svg height="288pt" version="1.1" viewBox="0 0 504 288" width="504pt" xmlns="http://www.w3.org/2000/svg" xmlns:xlink="http://www.w3.org/1999/xlink">
 <defs>
  <style type="text/css">
*{stroke-linecap:butt;stroke-linejoin:round;}
  </style>
 </defs>
 <g id="figure_1">
  <g id="patch_1">
   <path d="M 0 288 
L 504 288 
L 504 0 
L 0 0 
z
" style="fill:#ffffff;"/>
  </g>
  <g id="axes_1">
   <g id="patch_2">
    <path d="M 85.68 244.8 
L 488.88 244.8 
L 488.88 14.4 
L 85.68 14.4 
z
" style="fill:#ffffff;"/>
   </g>
   <g id="matplotlib.axis_1">
    <g id="xtick_1">
     <g id="line2d_1">
      <path clip-path="url(#pcb0e052eab)" d="M 85.68 244.8 
L 85.68 14.4 
" style="fill:none;stroke:#cccccc;stroke-linecap:round;"/>
     </g>
     <g id="line2d_2"/>
     <g id="text_1">
      <!-- -180 -->
      <defs>
       <path d="M 3.171875 21.484375 
L 3.171875 30.328125 
L 30.171875 30.328125 
L 30.171875 21.484375 
z
" id="ArialMT-2d"/>
       <path d="M 37.25 0 
L 28.46875 0 
L 28.46875 56 
Q 25.296875 52.984375 20.140625 49.953125 
Q 14.984375 46.921875 10.890625 45.40625 
L 10.890625 53.90625 
Q 18.265625 57.375 23.78125 62.296875 
Q 29.296875 67.234375 31.59375 71.875 
L 37.25 71.875 
z
" id="ArialMT-31"/>
       <path d="M 17.671875 38.8125 
Q 12.203125 40.828125 9.5625 44.53125 
Q 6.9375 48.25 6.9375 53.421875 
Q 6.9375 61.234375 12.546875 66.546875 
Q 18.171875 71.875 27.484375 71.875 
Q 36.859375 71.875 42.578125 66.421875 
Q 48.296875 60.984375 48.296875 53.171875 
Q 48.296875 48.1875 45.671875 44.5 
Q 43.0625 40.828125 37.75 38.8125 
Q 44.34375 36.671875 47.78125 31.875 
Q 51.21875 27.09375 51.21875 20.453125 
Q 51.21875 11.28125 44.71875 5.03125 
Q 38.234375 -1.21875 27.640625 -1.21875 
Q 17.046875 -1.21875 10.546875 5.046875 
Q 4.046875 11.328125 4.046875 20.703125 
Q 4.046875 27.6875 7.59375 32.390625 
Q 11.140625 37.109375 17.671875 38.8125 
M 15.921875 53.71875 
Q 15.921875 48.640625 19.1875 45.40625 
Q 22.46875 42.1875 27.6875 42.1875 
Q 32.765625 42.1875 36.015625 45.375 
Q 39.265625 48.578125 39.265625 53.21875 
Q 39.265625 58.0625 35.90625 61.359375 
Q 32.5625 64.65625 27.59375 64.65625 
Q 22.5625 64.65625 19.234375 61.421875 
Q 15.921875 58.203125 15.921875 53.71875 
M 13.09375 20.65625 
Q 13.09375 16.890625 14.875 13.375 
Q 16.65625 9.859375 20.171875 7.921875 
Q 23.6875 6 27.734375 6 
Q 34.03125 6 38.125 10.046875 
Q 42.234375 14.109375 42.234375 20.359375 
Q 42.234375 26.703125 38.015625 30.859375 
Q 33.796875 35.015625 27.4375 35.015625 
Q 21.234375 35.015625 17.15625 30.90625 
Q 13.09375 26.8125 13.09375 20.65625 
" id="ArialMT-38"/>
       <path d="M 4.15625 35.296875 
Q 4.15625 48 6.765625 55.734375 
Q 9.375 63.484375 14.515625 67.671875 
Q 19.671875 71.875 27.484375 71.875 
Q 33.25 71.875 37.59375 69.546875 
Q 41.9375 67.234375 44.765625 62.859375 
Q 47.609375 58.5 49.21875 52.21875 
Q 50.828125 45.953125 50.828125 35.296875 
Q 50.828125 22.703125 48.234375 14.96875 
Q 45.65625 7.234375 40.5 3 
Q 35.359375 -1.21875 27.484375 -1.21875 
Q 17.140625 -1.21875 11.234375 6.203125 
Q 4.15625 15.140625 4.15625 35.296875 
M 13.1875 35.296875 
Q 13.1875 17.671875 17.3125 11.828125 
Q 21.4375 6 27.484375 6 
Q 33.546875 6 37.671875 11.859375 
Q 41.796875 17.71875 41.796875 35.296875 
Q 41.796875 52.984375 37.671875 58.78125 
Q 33.546875 64.59375 27.390625 64.59375 
Q 21.34375 64.59375 17.71875 59.46875 
Q 13.1875 52.9375 13.1875 35.296875 
" id="ArialMT-30"/>
      </defs>
      <g style="fill:#262626;" transform="translate(70.670625 262.536719)scale(0.15 -0.15)">
       <use xlink:href="#ArialMT-2d"/>
       <use x="33.300781" xlink:href="#ArialMT-31"/>
       <use x="88.916016" xlink:href="#ArialMT-38"/>
       <use x="144.53125" xlink:href="#ArialMT-30"/>
      </g>
     </g>
    </g>
    <g id="xtick_2">
     <g id="line2d_3">
      <path clip-path="url(#pcb0e052eab)" d="M 186.48 244.8 
L 186.48 14.4 
" style="fill:none;stroke:#cccccc;stroke-linecap:round;"/>
     </g>
     <g id="line2d_4"/>
     <g id="text_2">
      <!-- 90 -->
      <defs>
       <path d="M 5.46875 16.546875 
L 13.921875 17.328125 
Q 14.984375 11.375 18.015625 8.6875 
Q 21.046875 6 25.78125 6 
Q 29.828125 6 32.875 7.859375 
Q 35.9375 9.71875 37.890625 12.8125 
Q 39.84375 15.921875 41.15625 21.1875 
Q 42.484375 26.46875 42.484375 31.9375 
Q 42.484375 32.515625 42.4375 33.6875 
Q 39.796875 29.5 35.234375 26.875 
Q 30.671875 24.265625 25.34375 24.265625 
Q 16.453125 24.265625 10.296875 30.703125 
Q 4.15625 37.15625 4.15625 47.703125 
Q 4.15625 58.59375 10.578125 65.234375 
Q 17 71.875 26.65625 71.875 
Q 33.640625 71.875 39.421875 68.109375 
Q 45.21875 64.359375 48.21875 57.390625 
Q 51.21875 50.4375 51.21875 37.25 
Q 51.21875 23.53125 48.234375 15.40625 
Q 45.265625 7.28125 39.375 3.03125 
Q 33.5 -1.21875 25.59375 -1.21875 
Q 17.1875 -1.21875 11.859375 3.4375 
Q 6.546875 8.109375 5.46875 16.546875 
M 41.453125 48.140625 
Q 41.453125 55.71875 37.421875 60.15625 
Q 33.40625 64.59375 27.734375 64.59375 
Q 21.875 64.59375 17.53125 59.8125 
Q 13.1875 55.03125 13.1875 47.40625 
Q 13.1875 40.578125 17.3125 36.296875 
Q 21.4375 32.03125 27.484375 32.03125 
Q 33.59375 32.03125 37.515625 36.296875 
Q 41.453125 40.578125 41.453125 48.140625 
" id="ArialMT-39"/>
      </defs>
      <g style="fill:#262626;" transform="translate(178.138594 262.536719)scale(0.15 -0.15)">
       <use xlink:href="#ArialMT-39"/>
       <use x="55.615234" xlink:href="#ArialMT-30"/>
      </g>
     </g>
    </g>
    <g id="xtick_3">
     <g id="line2d_5">
      <path clip-path="url(#pcb0e052eab)" d="M 287.28 244.8 
L 287.28 14.4 
" style="fill:none;stroke:#cccccc;stroke-linecap:round;"/>
     </g>
     <g id="line2d_6"/>
     <g id="text_3">
      <!-- 0 -->
      <g style="fill:#262626;" transform="translate(283.109297 262.536719)scale(0.15 -0.15)">
       <use xlink:href="#ArialMT-30"/>
      </g>
     </g>
    </g>
    <g id="xtick_4">
     <g id="line2d_7">
      <path clip-path="url(#pcb0e052eab)" d="M 388.08 244.8 
L 388.08 14.4 
" style="fill:none;stroke:#cccccc;stroke-linecap:round;"/>
     </g>
     <g id="line2d_8"/>
     <g id="text_4">
      <!-- 90 -->
      <g style="fill:#262626;" transform="translate(379.738594 262.536719)scale(0.15 -0.15)">
       <use xlink:href="#ArialMT-39"/>
       <use x="55.615234" xlink:href="#ArialMT-30"/>
      </g>
     </g>
    </g>
    <g id="xtick_5">
     <g id="line2d_9">
      <path clip-path="url(#pcb0e052eab)" d="M 488.88 244.8 
L 488.88 14.4 
" style="fill:none;stroke:#cccccc;stroke-linecap:round;"/>
     </g>
     <g id="line2d_10"/>
     <g id="text_5">
      <!-- 180 -->
      <g style="fill:#262626;" transform="translate(476.367891 262.536719)scale(0.15 -0.15)">
       <use xlink:href="#ArialMT-31"/>
       <use x="55.615234" xlink:href="#ArialMT-38"/>
       <use x="111.230469" xlink:href="#ArialMT-30"/>
      </g>
     </g>
    </g>
    <g id="text_6">
     <!-- Phase -->
     <defs>
      <path d="M 7.71875 0 
L 7.71875 71.578125 
L 34.71875 71.578125 
Q 41.84375 71.578125 45.609375 70.90625 
Q 50.875 70.015625 54.4375 67.546875 
Q 58.015625 65.09375 60.1875 60.640625 
Q 62.359375 56.203125 62.359375 50.875 
Q 62.359375 41.75 56.546875 35.421875 
Q 50.734375 29.109375 35.546875 29.109375 
L 17.1875 29.109375 
L 17.1875 0 
z
M 17.1875 37.546875 
L 35.6875 37.546875 
Q 44.875 37.546875 48.734375 40.96875 
Q 52.59375 44.390625 52.59375 50.59375 
Q 52.59375 55.078125 50.3125 58.265625 
Q 48.046875 61.46875 44.34375 62.5 
Q 41.9375 63.140625 35.5 63.140625 
L 17.1875 63.140625 
z
" id="ArialMT-50"/>
      <path d="M 6.59375 0 
L 6.59375 71.578125 
L 15.375 71.578125 
L 15.375 45.90625 
Q 21.53125 53.03125 30.90625 53.03125 
Q 36.671875 53.03125 40.921875 50.75 
Q 45.171875 48.484375 47 44.484375 
Q 48.828125 40.484375 48.828125 32.859375 
L 48.828125 0 
L 40.046875 0 
L 40.046875 32.859375 
Q 40.046875 39.453125 37.1875 42.453125 
Q 34.328125 45.453125 29.109375 45.453125 
Q 25.203125 45.453125 21.75 43.421875 
Q 18.3125 41.40625 16.84375 37.9375 
Q 15.375 34.46875 15.375 28.375 
L 15.375 0 
z
" id="ArialMT-68"/>
      <path d="M 40.4375 6.390625 
Q 35.546875 2.25 31.03125 0.53125 
Q 26.515625 -1.171875 21.34375 -1.171875 
Q 12.796875 -1.171875 8.203125 3 
Q 3.609375 7.171875 3.609375 13.671875 
Q 3.609375 17.484375 5.34375 20.625 
Q 7.078125 23.78125 9.890625 25.6875 
Q 12.703125 27.59375 16.21875 28.5625 
Q 18.796875 29.25 24.03125 29.890625 
Q 34.671875 31.15625 39.703125 32.90625 
Q 39.75 34.71875 39.75 35.203125 
Q 39.75 40.578125 37.25 42.78125 
Q 33.890625 45.75 27.25 45.75 
Q 21.046875 45.75 18.09375 43.578125 
Q 15.140625 41.40625 13.71875 35.890625 
L 5.125 37.0625 
Q 6.296875 42.578125 8.984375 45.96875 
Q 11.671875 49.359375 16.75 51.1875 
Q 21.828125 53.03125 28.515625 53.03125 
Q 35.15625 53.03125 39.296875 51.46875 
Q 43.453125 49.90625 45.40625 47.53125 
Q 47.359375 45.171875 48.140625 41.546875 
Q 48.578125 39.3125 48.578125 33.453125 
L 48.578125 21.734375 
Q 48.578125 9.46875 49.140625 6.21875 
Q 49.703125 2.984375 51.375 0 
L 42.1875 0 
Q 40.828125 2.734375 40.4375 6.390625 
M 39.703125 26.03125 
Q 34.90625 24.078125 25.34375 22.703125 
Q 19.921875 21.921875 17.671875 20.9375 
Q 15.4375 19.96875 14.203125 18.09375 
Q 12.984375 16.21875 12.984375 13.921875 
Q 12.984375 10.40625 15.640625 8.0625 
Q 18.3125 5.71875 23.4375 5.71875 
Q 28.515625 5.71875 32.46875 7.9375 
Q 36.421875 10.15625 38.28125 14.015625 
Q 39.703125 17 39.703125 22.796875 
z
" id="ArialMT-61"/>
      <path d="M 3.078125 15.484375 
L 11.765625 16.84375 
Q 12.5 11.625 15.84375 8.84375 
Q 19.1875 6.0625 25.203125 6.0625 
Q 31.25 6.0625 34.171875 8.515625 
Q 37.109375 10.984375 37.109375 14.3125 
Q 37.109375 17.28125 34.515625 19 
Q 32.71875 20.171875 25.53125 21.96875 
Q 15.875 24.421875 12.140625 26.203125 
Q 8.40625 27.984375 6.46875 31.125 
Q 4.546875 34.28125 4.546875 38.09375 
Q 4.546875 41.546875 6.125 44.5 
Q 7.71875 47.46875 10.453125 49.421875 
Q 12.5 50.921875 16.03125 51.96875 
Q 19.578125 53.03125 23.640625 53.03125 
Q 29.734375 53.03125 34.34375 51.265625 
Q 38.96875 49.515625 41.15625 46.5 
Q 43.359375 43.5 44.1875 38.484375 
L 35.59375 37.3125 
Q 35.015625 41.3125 32.203125 43.546875 
Q 29.390625 45.796875 24.265625 45.796875 
Q 18.21875 45.796875 15.625 43.796875 
Q 13.03125 41.796875 13.03125 39.109375 
Q 13.03125 37.40625 14.109375 36.03125 
Q 15.1875 34.625 17.484375 33.6875 
Q 18.796875 33.203125 25.25 31.453125 
Q 34.578125 28.953125 38.25 27.359375 
Q 41.9375 25.78125 44.03125 22.75 
Q 46.140625 19.734375 46.140625 15.234375 
Q 46.140625 10.84375 43.578125 6.953125 
Q 41.015625 3.078125 36.171875 0.953125 
Q 31.34375 -1.171875 25.25 -1.171875 
Q 15.140625 -1.171875 9.84375 3.03125 
Q 4.546875 7.234375 3.078125 15.484375 
" id="ArialMT-73"/>
      <path d="M 42.09375 16.703125 
L 51.171875 15.578125 
Q 49.03125 7.625 43.21875 3.21875 
Q 37.40625 -1.171875 28.375 -1.171875 
Q 17 -1.171875 10.328125 5.828125 
Q 3.65625 12.84375 3.65625 25.484375 
Q 3.65625 38.578125 10.390625 45.796875 
Q 17.140625 53.03125 27.875 53.03125 
Q 38.28125 53.03125 44.875 45.953125 
Q 51.46875 38.875 51.46875 26.03125 
Q 51.46875 25.25 51.421875 23.6875 
L 12.75 23.6875 
Q 13.234375 15.140625 17.578125 10.59375 
Q 21.921875 6.0625 28.421875 6.0625 
Q 33.25 6.0625 36.671875 8.59375 
Q 40.09375 11.140625 42.09375 16.703125 
M 13.234375 30.90625 
L 42.1875 30.90625 
Q 41.609375 37.453125 38.875 40.71875 
Q 34.671875 45.796875 27.984375 45.796875 
Q 21.921875 45.796875 17.796875 41.75 
Q 13.671875 37.703125 13.234375 30.90625 
" id="ArialMT-65"/>
     </defs>
     <g style="fill:#262626;" transform="translate(263.888672 281.328359)scale(0.165 -0.165)">
      <use xlink:href="#ArialMT-50"/>
      <use x="66.699219" xlink:href="#ArialMT-68"/>
      <use x="122.314453" xlink:href="#ArialMT-61"/>
      <use x="177.929688" xlink:href="#ArialMT-73"/>
      <use x="227.929688" xlink:href="#ArialMT-65"/>
     </g>
    </g>
   </g>
   <g id="matplotlib.axis_2">
    <g id="ytick_1">
     <g id="line2d_11">
      <path clip-path="url(#pcb0e052eab)" d="M 85.68 224.127289 
L 488.88 224.127289 
" style="fill:none;stroke:#cccccc;stroke-linecap:round;"/>
     </g>
     <g id="line2d_12"/>
     <g id="text_7">
      <!-- 5000 -->
      <defs>
       <path d="M 4.15625 18.75 
L 13.375 19.53125 
Q 14.40625 12.796875 18.140625 9.390625 
Q 21.875 6 27.15625 6 
Q 33.5 6 37.890625 10.78125 
Q 42.28125 15.578125 42.28125 23.484375 
Q 42.28125 31 38.0625 35.34375 
Q 33.84375 39.703125 27 39.703125 
Q 22.75 39.703125 19.328125 37.765625 
Q 15.921875 35.84375 13.96875 32.765625 
L 5.71875 33.84375 
L 12.640625 70.609375 
L 48.25 70.609375 
L 48.25 62.203125 
L 19.671875 62.203125 
L 15.828125 42.96875 
Q 22.265625 47.46875 29.34375 47.46875 
Q 38.71875 47.46875 45.15625 40.96875 
Q 51.609375 34.46875 51.609375 24.265625 
Q 51.609375 14.546875 45.953125 7.46875 
Q 39.0625 -1.21875 27.15625 -1.21875 
Q 17.390625 -1.21875 11.203125 4.25 
Q 5.03125 9.71875 4.15625 18.75 
" id="ArialMT-35"/>
      </defs>
      <g style="fill:#262626;" transform="translate(45.314375 229.495648)scale(0.15 -0.15)">
       <use xlink:href="#ArialMT-35"/>
       <use x="55.615234" xlink:href="#ArialMT-30"/>
       <use x="111.230469" xlink:href="#ArialMT-30"/>
       <use x="166.845703" xlink:href="#ArialMT-30"/>
      </g>
     </g>
    </g>
    <g id="ytick_2">
     <g id="line2d_13">
      <path clip-path="url(#pcb0e052eab)" d="M 85.68 175.93014 
L 488.88 175.93014 
" style="fill:none;stroke:#cccccc;stroke-linecap:round;"/>
     </g>
     <g id="line2d_14"/>
     <g id="text_8">
      <!-- 10000 -->
      <g style="fill:#262626;" transform="translate(36.972969 181.2985)scale(0.15 -0.15)">
       <use xlink:href="#ArialMT-31"/>
       <use x="55.615234" xlink:href="#ArialMT-30"/>
       <use x="111.230469" xlink:href="#ArialMT-30"/>
       <use x="166.845703" xlink:href="#ArialMT-30"/>
       <use x="222.460938" xlink:href="#ArialMT-30"/>
      </g>
     </g>
    </g>
    <g id="ytick_3">
     <g id="line2d_15">
      <path clip-path="url(#pcb0e052eab)" d="M 85.68 127.732991 
L 488.88 127.732991 
" style="fill:none;stroke:#cccccc;stroke-linecap:round;"/>
     </g>
     <g id="line2d_16"/>
     <g id="text_9">
      <!-- 15000 -->
      <g style="fill:#262626;" transform="translate(36.972969 133.101351)scale(0.15 -0.15)">
       <use xlink:href="#ArialMT-31"/>
       <use x="55.615234" xlink:href="#ArialMT-35"/>
       <use x="111.230469" xlink:href="#ArialMT-30"/>
       <use x="166.845703" xlink:href="#ArialMT-30"/>
       <use x="222.460938" xlink:href="#ArialMT-30"/>
      </g>
     </g>
    </g>
    <g id="ytick_4">
     <g id="line2d_17">
      <path clip-path="url(#pcb0e052eab)" d="M 85.68 79.535843 
L 488.88 79.535843 
" style="fill:none;stroke:#cccccc;stroke-linecap:round;"/>
     </g>
     <g id="line2d_18"/>
     <g id="text_10">
      <!-- 20000 -->
      <defs>
       <path d="M 50.34375 8.453125 
L 50.34375 0 
L 3.03125 0 
Q 2.9375 3.171875 4.046875 6.109375 
Q 5.859375 10.9375 9.828125 15.625 
Q 13.8125 20.3125 21.34375 26.46875 
Q 33.015625 36.03125 37.109375 41.625 
Q 41.21875 47.21875 41.21875 52.203125 
Q 41.21875 57.421875 37.46875 61 
Q 33.734375 64.59375 27.734375 64.59375 
Q 21.390625 64.59375 17.578125 60.78125 
Q 13.765625 56.984375 13.71875 50.25 
L 4.6875 51.171875 
Q 5.609375 61.28125 11.65625 66.578125 
Q 17.71875 71.875 27.9375 71.875 
Q 38.234375 71.875 44.234375 66.15625 
Q 50.25 60.453125 50.25 52 
Q 50.25 47.703125 48.484375 43.546875 
Q 46.734375 39.40625 42.65625 34.8125 
Q 38.578125 30.21875 29.109375 22.21875 
Q 21.1875 15.578125 18.9375 13.203125 
Q 16.703125 10.84375 15.234375 8.453125 
z
" id="ArialMT-32"/>
      </defs>
      <g style="fill:#262626;" transform="translate(36.972969 84.904202)scale(0.15 -0.15)">
       <use xlink:href="#ArialMT-32"/>
       <use x="55.615234" xlink:href="#ArialMT-30"/>
       <use x="111.230469" xlink:href="#ArialMT-30"/>
       <use x="166.845703" xlink:href="#ArialMT-30"/>
       <use x="222.460938" xlink:href="#ArialMT-30"/>
      </g>
     </g>
    </g>
    <g id="ytick_5">
     <g id="line2d_19">
      <path clip-path="url(#pcb0e052eab)" d="M 85.68 31.338694 
L 488.88 31.338694 
" style="fill:none;stroke:#cccccc;stroke-linecap:round;"/>
     </g>
     <g id="line2d_20"/>
     <g id="text_11">
      <!-- 25000 -->
      <g style="fill:#262626;" transform="translate(36.972969 36.707053)scale(0.15 -0.15)">
       <use xlink:href="#ArialMT-32"/>
       <use x="55.615234" xlink:href="#ArialMT-35"/>
       <use x="111.230469" xlink:href="#ArialMT-30"/>
       <use x="166.845703" xlink:href="#ArialMT-30"/>
       <use x="222.460938" xlink:href="#ArialMT-30"/>
      </g>
     </g>
    </g>
    <g id="text_12">
     <!-- Flux -->
     <defs>
      <path d="M 8.203125 0 
L 8.203125 71.578125 
L 56.5 71.578125 
L 56.5 63.140625 
L 17.671875 63.140625 
L 17.671875 40.96875 
L 51.265625 40.96875 
L 51.265625 32.515625 
L 17.671875 32.515625 
L 17.671875 0 
z
" id="ArialMT-46"/>
      <path d="M 6.390625 0 
L 6.390625 71.578125 
L 15.1875 71.578125 
L 15.1875 0 
z
" id="ArialMT-6c"/>
      <path d="M 40.578125 0 
L 40.578125 7.625 
Q 34.515625 -1.171875 24.125 -1.171875 
Q 19.53125 -1.171875 15.546875 0.578125 
Q 11.578125 2.34375 9.640625 5 
Q 7.71875 7.671875 6.9375 11.53125 
Q 6.390625 14.109375 6.390625 19.734375 
L 6.390625 51.859375 
L 15.1875 51.859375 
L 15.1875 23.09375 
Q 15.1875 16.21875 15.71875 13.8125 
Q 16.546875 10.359375 19.234375 8.375 
Q 21.921875 6.390625 25.875 6.390625 
Q 29.828125 6.390625 33.296875 8.421875 
Q 36.765625 10.453125 38.203125 13.9375 
Q 39.65625 17.4375 39.65625 24.078125 
L 39.65625 51.859375 
L 48.4375 51.859375 
L 48.4375 0 
z
" id="ArialMT-75"/>
      <path d="M 0.734375 0 
L 19.671875 26.953125 
L 2.15625 51.859375 
L 13.140625 51.859375 
L 21.09375 39.703125 
Q 23.34375 36.234375 24.703125 33.890625 
Q 26.859375 37.109375 28.65625 39.59375 
L 37.40625 51.859375 
L 47.90625 51.859375 
L 29.984375 27.4375 
L 49.265625 0 
L 38.484375 0 
L 27.828125 16.109375 
L 25 20.453125 
L 11.375 0 
z
" id="ArialMT-78"/>
     </defs>
     <g style="fill:#262626;" transform="translate(29.693594 145.184766)rotate(-90)scale(0.165 -0.165)">
      <use xlink:href="#ArialMT-46"/>
      <use x="61.083984" xlink:href="#ArialMT-6c"/>
      <use x="83.300781" xlink:href="#ArialMT-75"/>
      <use x="138.916016" xlink:href="#ArialMT-78"/>
     </g>
    </g>
   </g>
   <g id="line2d_21">
    <path clip-path="url(#pcb0e052eab)" d="M 85.68 233.817528 
L 102.48 234.226224 
L 116.48 234.326781 
L 127.68 234.210535 
L 138.88 233.896776 
L 150.08 233.371151 
L 161.28 232.627172 
L 172.48 231.665248 
L 183.68 230.493433 
L 197.68 228.76287 
L 211.68 226.789637 
L 256.48 220.170736 
L 267.68 218.887246 
L 276.08 218.131044 
L 284.48 217.583656 
L 292.88 217.263067 
L 301.28 217.167022 
L 309.68 217.286221 
L 318.08 217.607737 
L 326.48 218.115635 
L 337.68 219.049856 
L 348.88 220.229191 
L 362.88 221.958182 
L 385.28 225.01516 
L 404.88 227.628423 
L 418.88 229.277135 
L 432.88 230.662633 
L 446.88 231.774665 
L 460.88 232.641427 
L 477.68 233.420491 
L 486.08 233.726262 
L 486.08 233.726262 
" style="fill:none;stroke:#4c72b0;stroke-linecap:round;stroke-width:1.5;"/>
   </g>
   <g id="line2d_22">
    <path clip-path="url(#pcb0e052eab)" d="M 85.68 227.877082 
L 99.68 228.304919 
L 110.88 228.470789 
L 122.08 228.441131 
L 133.28 228.188045 
L 144.48 227.690382 
L 155.68 226.935485 
L 166.88 225.920192 
L 178.08 224.648766 
L 189.28 223.136815 
L 200.48 221.412618 
L 214.48 219.016405 
L 253.68 212.062603 
L 262.08 210.825644 
L 270.48 209.777523 
L 278.88 208.956503 
L 287.28 208.393313 
L 295.68 208.101671 
L 304.08 208.07409 
L 312.48 208.298244 
L 320.88 208.757387 
L 329.28 209.431523 
L 337.68 210.296966 
L 348.88 211.701588 
L 360.08 213.328194 
L 376.88 216.017483 
L 402.08 220.088789 
L 416.08 222.106925 
L 427.28 223.505087 
L 438.48 224.691931 
L 449.68 225.675911 
L 463.68 226.654411 
L 477.68 227.405098 
L 486.08 227.768593 
L 486.08 227.768593 
" style="fill:none;stroke:#55a868;stroke-linecap:round;stroke-width:1.5;"/>
   </g>
   <g id="line2d_23">
    <path clip-path="url(#pcb0e052eab)" d="M 85.68 221.796447 
L 99.68 222.297157 
L 110.88 222.491236 
L 122.08 222.45641 
L 133.28 222.159957 
L 144.48 221.577043 
L 152.88 220.942449 
L 161.28 220.136164 
L 169.68 219.158607 
L 180.88 217.596107 
L 192.08 215.758498 
L 203.28 213.681762 
L 217.28 210.822696 
L 250.88 203.783065 
L 259.28 202.26973 
L 267.68 200.96145 
L 276.08 199.905297 
L 284.48 199.140683 
L 292.88 198.692745 
L 301.28 198.558408 
L 309.68 198.72475 
L 318.08 199.173751 
L 326.48 199.88316 
L 334.88 200.826766 
L 343.28 201.974028 
L 354.48 203.762251 
L 368.48 206.291913 
L 407.68 213.655369 
L 418.88 215.469876 
L 430.08 217.046989 
L 441.28 218.376377 
L 452.48 219.473118 
L 463.68 220.365201 
L 477.68 221.24401 
L 486.08 221.669471 
L 486.08 221.669471 
" style="fill:none;stroke:#c44e52;stroke-linecap:round;stroke-width:1.5;"/>
   </g>
   <g id="line2d_24">
    <path clip-path="url(#pcb0e052eab)" d="M 85.68 215.622603 
L 99.68 216.201085 
L 110.88 216.425314 
L 122.08 216.38508 
L 130.48 216.15826 
L 138.88 215.748413 
L 147.28 215.146361 
L 155.68 214.346725 
L 164.08 213.348458 
L 172.48 212.152976 
L 180.88 210.766382 
L 189.28 209.200255 
L 200.48 206.86288 
L 211.68 204.286654 
L 228.48 200.14959 
L 245.28 196.054075 
L 256.48 193.592517 
L 264.88 191.992462 
L 273.28 190.666769 
L 278.88 189.960036 
L 284.48 189.409113 
L 290.08 189.022128 
L 295.68 188.798384 
L 301.28 188.734059 
L 306.88 188.824578 
L 315.28 189.237479 
L 323.68 189.96093 
L 332.08 190.966328 
L 340.48 192.21974 
L 348.88 193.68353 
L 360.08 195.891902 
L 374.08 198.918984 
L 402.08 205.06887 
L 413.28 207.289498 
L 424.48 209.255459 
L 435.68 210.935786 
L 446.88 212.335248 
L 458.08 213.480313 
L 469.28 214.407604 
L 483.28 215.320772 
L 486.08 215.4759 
L 486.08 215.4759 
" style="fill:none;stroke:#8172b2;stroke-linecap:round;stroke-width:1.5;"/>
   </g>
   <g id="line2d_25">
    <path clip-path="url(#pcb0e052eab)" d="M 85.68 209.353454 
L 96.88 209.915062 
L 108.08 210.243221 
L 116.48 210.301736 
L 124.88 210.176748 
L 133.28 209.851817 
L 141.68 209.313602 
L 150.08 208.552877 
L 158.48 207.565276 
L 166.88 206.350442 
L 175.28 204.911395 
L 183.68 203.257071 
L 192.08 201.40277 
L 203.28 198.655971 
L 214.48 195.652367 
L 250.88 185.540567 
L 259.28 183.531195 
L 267.68 181.79211 
L 273.28 180.814186 
L 278.88 180.000568 
L 284.48 179.364768 
L 290.08 178.916139 
L 295.68 178.654123 
L 301.28 178.574423 
L 306.88 178.671877 
L 312.48 178.939849 
L 318.08 179.37048 
L 326.48 180.301686 
L 334.88 181.54412 
L 343.28 183.057624 
L 351.68 184.797864 
L 362.88 187.389012 
L 376.88 190.892915 
L 399.28 196.548389 
L 410.48 199.156512 
L 421.68 201.490657 
L 430.08 203.0314 
L 438.48 204.387097 
L 446.88 205.565007 
L 458.08 206.883415 
L 469.28 207.952047 
L 480.48 208.816414 
L 486.08 209.184263 
L 486.08 209.184263 
" style="fill:none;stroke:#ccb974;stroke-linecap:round;stroke-width:1.5;"/>
   </g>
   <g id="line2d_26">
    <path clip-path="url(#pcb0e052eab)" d="M 85.68 202.11265 
L 96.88 202.841442 
L 108.08 203.311915 
L 116.48 203.461296 
L 124.88 203.415122 
L 133.28 203.16031 
L 141.68 202.683314 
L 150.08 201.979072 
L 158.48 201.045818 
L 166.88 199.88231 
L 175.28 198.500387 
L 183.68 196.907324 
L 192.08 195.12314 
L 203.28 192.496478 
L 214.48 189.635779 
L 250.88 180.07864 
L 259.28 178.157429 
L 267.68 176.474226 
L 276.08 175.082729 
L 281.68 174.340986 
L 287.28 173.761053 
L 292.88 173.348475 
L 298.48 173.100783 
L 304.08 173.014682 
L 309.68 173.085849 
L 318.08 173.474121 
L 326.48 174.179926 
L 334.88 175.177316 
L 343.28 176.431319 
L 351.68 177.907254 
L 362.88 180.151473 
L 376.88 183.256662 
L 413.28 191.53496 
L 424.48 193.796067 
L 435.68 195.810888 
L 446.88 197.573971 
L 458.08 199.083517 
L 469.28 200.362309 
L 480.48 201.433397 
L 486.08 201.897733 
L 486.08 201.897733 
" style="fill:none;stroke:#64b5cd;stroke-linecap:round;stroke-width:1.5;"/>
   </g>
   <g id="line2d_27">
    <path clip-path="url(#pcb0e052eab)" d="M 85.68 200.459158 
L 99.68 201.284616 
L 113.68 201.886584 
L 124.88 202.152743 
L 136.08 202.236949 
L 147.28 202.109223 
L 158.48 201.803935 
L 172.48 201.154268 
L 183.68 200.461835 
L 200.48 199.173168 
L 220.08 197.395654 
L 264.88 193.245377 
L 281.68 192.019014 
L 295.68 191.25839 
L 306.88 190.823771 
L 320.88 190.510591 
L 332.08 190.443179 
L 346.08 190.572577 
L 360.08 190.961422 
L 374.08 191.568864 
L 390.88 192.571833 
L 407.68 193.81254 
L 430.08 195.678532 
L 477.68 199.663957 
L 486.08 200.266093 
L 486.08 200.266093 
" style="fill:none;stroke:#4c72b0;stroke-linecap:round;stroke-width:1.5;"/>
   </g>
   <g id="line2d_28">
    <path clip-path="url(#pcb0e052eab)" d="M 85.68 198.844413 
L 105.28 199.490434 
L 122.08 199.861987 
L 141.68 200.048907 
L 161.28 199.988803 
L 183.68 199.672134 
L 206.08 199.10798 
L 231.28 198.215931 
L 301.28 195.511573 
L 323.68 194.921805 
L 343.28 194.608456 
L 360.08 194.543276 
L 376.88 194.696499 
L 396.48 195.134 
L 421.68 196.004939 
L 460.88 197.674606 
L 486.08 198.733871 
L 486.08 198.733871 
" style="fill:none;stroke:#55a868;stroke-linecap:round;stroke-width:1.5;"/>
   </g>
   <g id="line2d_29">
    <path clip-path="url(#pcb0e052eab)" d="M 85.68 199.800244 
L 108.08 200.364756 
L 127.68 200.66834 
L 147.28 200.77074 
L 166.88 200.665969 
L 194.88 200.263313 
L 228.48 199.585587 
L 284.48 198.421942 
L 343.28 197.505034 
L 371.28 197.313683 
L 393.68 197.389812 
L 416.08 197.715749 
L 441.28 198.322399 
L 486.08 199.714238 
L 486.08 199.714238 
" style="fill:none;stroke:#c44e52;stroke-linecap:round;stroke-width:1.5;"/>
   </g>
   <g id="line2d_30">
    <path clip-path="url(#pcb0e052eab)" d="M 85.68 198.880191 
L 113.68 199.318209 
L 138.88 199.497191 
L 164.08 199.43377 
L 200.48 199.032517 
L 332.08 197.465194 
L 374.08 197.216094 
L 399.28 197.27516 
L 424.48 197.578124 
L 458.08 198.232952 
L 486.08 198.823806 
L 486.08 198.823806 
" style="fill:none;stroke:#8172b2;stroke-linecap:round;stroke-width:1.5;"/>
   </g>
   <g id="line2d_31">
    <path clip-path="url(#pcb0e052eab)" d="M 85.68 201.180544 
L 116.48 200.574076 
L 138.88 200.358421 
L 161.28 200.350038 
L 189.28 200.579661 
L 214.48 200.980617 
L 250.88 201.847373 
L 287.28 202.60571 
L 320.88 203.070227 
L 351.68 203.288077 
L 376.88 203.249794 
L 402.08 202.966351 
L 446.88 202.164416 
L 486.08 201.244628 
L 486.08 201.244628 
" style="fill:none;stroke:#ccb974;stroke-linecap:round;stroke-width:1.5;"/>
   </g>
   <g id="line2d_32">
    <path clip-path="url(#pcb0e052eab)" d="M 85.68 197.662099 
L 119.28 197.116272 
L 144.48 196.943763 
L 172.48 196.996425 
L 208.88 197.323772 
L 236.88 197.807951 
L 281.68 198.604542 
L 318.08 199.030158 
L 357.28 199.280604 
L 382.48 199.236025 
L 413.28 198.916689 
L 460.88 198.202146 
L 486.08 197.714472 
L 486.08 197.714472 
" style="fill:none;stroke:#64b5cd;stroke-linecap:round;stroke-width:1.5;"/>
   </g>
   <g id="line2d_33">
    <path clip-path="url(#pcb0e052eab)" d="M 85.68 185.557154 
L 110.88 186.161825 
L 133.28 186.464888 
L 152.88 186.520585 
L 175.28 186.344759 
L 206.08 185.85853 
L 245.28 184.984713 
L 301.28 183.724365 
L 334.88 183.213416 
L 362.88 183.006906 
L 385.28 183.054718 
L 404.88 183.307829 
L 430.08 183.860291 
L 463.68 184.820654 
L 486.08 185.47697 
L 486.08 185.47697 
" style="fill:none;stroke:#4c72b0;stroke-linecap:round;stroke-width:1.5;"/>
   </g>
   <g id="line2d_34">
    <path clip-path="url(#pcb0e052eab)" d="M 85.68 158.932586 
L 94.08 159.848566 
L 102.48 160.532915 
L 110.88 160.942224 
L 116.48 161.039298 
L 122.08 160.983701 
L 127.68 160.767813 
L 133.28 160.383628 
L 138.88 159.821371 
L 144.48 159.077531 
L 150.08 158.149867 
L 155.68 157.036665 
L 161.28 155.733917 
L 166.88 154.24333 
L 172.48 152.568637 
L 178.08 150.713278 
L 183.68 148.67821 
L 189.28 146.47386 
L 197.68 142.878907 
L 206.08 138.964975 
L 214.48 134.786307 
L 225.68 128.949372 
L 242.48 120.143921 
L 250.88 116.003765 
L 256.48 113.431431 
L 262.08 111.055682 
L 267.68 108.91254 
L 273.28 107.033571 
L 278.88 105.449714 
L 284.48 104.186508 
L 290.08 103.261173 
L 295.68 102.67328 
L 301.28 102.417431 
L 306.88 102.48661 
L 312.48 102.870019 
L 318.08 103.552379 
L 323.68 104.51958 
L 329.28 105.756214 
L 334.88 107.243224 
L 340.48 108.956592 
L 346.08 110.875488 
L 351.68 112.977407 
L 360.08 116.4175 
L 368.48 120.117243 
L 382.48 126.610488 
L 399.28 134.390624 
L 407.68 138.067667 
L 416.08 141.495326 
L 424.48 144.628037 
L 432.88 147.430985 
L 441.28 149.908928 
L 449.68 152.078887 
L 458.08 153.961532 
L 466.48 155.59243 
L 474.88 157.001042 
L 483.28 158.217443 
L 486.08 158.584311 
L 486.08 158.584311 
" style="fill:none;stroke:#55a868;stroke-linecap:round;stroke-width:1.5;"/>
   </g>
   <g id="line2d_35">
    <path clip-path="url(#pcb0e052eab)" d="M 85.68 152.135651 
L 94.08 153.221874 
L 102.48 154.002708 
L 108.08 154.322427 
L 113.68 154.460731 
L 119.28 154.401683 
L 124.88 154.13161 
L 130.48 153.638236 
L 136.08 152.91027 
L 141.68 151.938889 
L 147.28 150.717112 
L 152.88 149.240297 
L 158.48 147.506804 
L 164.08 145.515868 
L 169.68 143.268331 
L 175.28 140.767891 
L 180.88 138.021289 
L 186.48 135.038554 
L 192.08 131.833259 
L 197.68 128.421678 
L 203.28 124.82019 
L 211.68 119.107577 
L 220.08 113.112756 
L 242.48 96.862497 
L 248.08 93.027274 
L 253.68 89.395157 
L 259.28 86.020717 
L 264.88 82.956176 
L 270.48 80.250533 
L 276.08 77.948297 
L 281.68 76.088025 
L 284.48 75.333591 
L 287.28 74.700389 
L 290.08 74.188921 
L 292.88 73.79767 
L 295.68 73.525405 
L 298.48 73.370856 
L 301.28 73.332518 
L 304.08 73.408662 
L 309.68 73.896123 
L 315.28 74.814261 
L 320.88 76.141205 
L 326.48 77.852733 
L 332.08 79.921489 
L 337.68 82.316681 
L 343.28 85.005718 
L 348.88 87.953762 
L 354.48 91.124434 
L 362.88 96.216259 
L 371.28 101.590695 
L 399.28 119.809315 
L 407.68 124.876978 
L 413.28 128.046655 
L 418.88 131.022154 
L 424.48 133.788664 
L 430.08 136.339031 
L 435.68 138.673338 
L 441.28 140.797381 
L 446.88 142.72076 
L 452.48 144.45555 
L 458.08 146.015535 
L 466.48 148.060561 
L 474.88 149.798091 
L 483.28 151.276409 
L 486.08 151.718115 
L 486.08 151.718115 
" style="fill:none;stroke:#c44e52;stroke-linecap:round;stroke-width:1.5;"/>
   </g>
   <g id="line2d_36">
    <path clip-path="url(#pcb0e052eab)" d="M 85.68 147.438903 
L 94.08 148.595866 
L 99.68 149.190615 
L 105.28 149.620637 
L 110.88 149.866628 
L 116.48 149.910502 
L 122.08 149.736402 
L 127.68 149.330689 
L 133.28 148.680542 
L 138.88 147.775065 
L 144.48 146.605977 
L 150.08 145.166649 
L 155.68 143.453832 
L 161.28 141.466522 
L 166.88 139.204119 
L 172.48 136.669091 
L 178.08 133.866822 
L 183.68 130.806145 
L 189.28 127.499499 
L 194.88 123.963059 
L 200.48 120.214375 
L 208.88 114.235629 
L 217.28 107.914313 
L 234.08 94.804231 
L 242.48 88.376156 
L 248.08 84.274273 
L 253.68 80.389395 
L 259.28 76.779947 
L 264.88 73.501828 
L 270.48 70.607477 
L 276.08 68.144519 
L 278.88 67.087985 
L 281.68 66.1542 
L 284.48 65.346939 
L 287.28 64.669327 
L 290.08 64.121911 
L 292.88 63.703083 
L 295.68 63.411541 
L 298.48 63.245935 
L 301.28 63.204665 
L 304.08 63.285889 
L 306.88 63.487468 
L 309.68 63.806995 
L 312.48 64.241766 
L 318.08 65.445602 
L 323.68 67.074295 
L 329.28 69.100482 
L 334.88 71.492837 
L 340.48 74.217305 
L 346.08 77.237982 
L 351.68 80.516352 
L 357.28 84.013259 
L 365.68 89.578491 
L 376.88 97.366466 
L 393.68 109.138659 
L 402.08 114.770997 
L 410.48 120.062239 
L 416.08 123.348605 
L 421.68 126.417691 
L 427.28 129.257887 
L 432.88 131.865587 
L 438.48 134.244273 
L 444.08 136.402564 
L 449.68 138.352259 
L 455.28 140.107394 
L 460.88 141.683468 
L 469.28 143.747898 
L 477.68 145.502087 
L 486.08 146.994138 
L 486.08 146.994138 
" style="fill:none;stroke:#8172b2;stroke-linecap:round;stroke-width:1.5;"/>
   </g>
   <g id="line2d_37">
    <path clip-path="url(#pcb0e052eab)" d="M 85.68 142.993236 
L 94.08 144.221013 
L 99.68 144.852093 
L 105.28 145.308307 
L 110.88 145.569141 
L 116.48 145.615353 
L 122.08 145.430054 
L 127.68 144.998695 
L 133.28 144.307588 
L 138.88 143.345077 
L 144.48 142.102283 
L 150.08 140.572068 
L 155.68 138.75089 
L 161.28 136.637589 
L 166.88 134.231416 
L 172.48 131.534883 
L 178.08 128.553605 
L 183.68 125.29687 
L 189.28 121.777807 
L 194.88 118.013545 
L 200.48 114.022682 
L 206.08 109.824876 
L 214.48 103.20072 
L 225.68 93.963933 
L 239.68 82.357963 
L 248.08 75.733859 
L 253.68 71.593243 
L 259.28 67.74599 
L 264.88 64.251728 
L 270.48 61.166381 
L 276.08 58.540729 
L 278.88 57.41433 
L 281.68 56.418737 
L 284.48 55.557976 
L 287.28 54.835376 
L 290.08 54.251531 
L 292.88 53.804746 
L 295.68 53.493645 
L 298.48 53.316802 
L 301.28 53.272521 
L 304.08 53.358848 
L 306.88 53.573508 
L 309.68 53.913941 
L 312.48 54.377272 
L 315.28 54.960521 
L 320.88 56.473683 
L 326.48 58.425808 
L 332.08 60.785677 
L 337.68 63.518132 
L 343.28 66.585944 
L 348.88 69.949299 
L 354.48 73.56661 
L 360.08 77.395561 
L 368.48 83.436447 
L 382.48 93.908422 
L 393.68 102.241566 
L 402.08 108.243194 
L 407.68 112.049067 
L 413.28 115.657626 
L 418.88 119.043485 
L 424.48 122.18984 
L 430.08 125.088683 
L 435.68 127.74031 
L 441.28 130.151568 
L 446.88 132.333645 
L 452.48 134.300539 
L 458.08 136.068179 
L 463.68 137.653751 
L 472.08 139.729783 
L 480.48 141.494276 
L 486.08 142.521208 
L 486.08 142.521208 
" style="fill:none;stroke:#ccb974;stroke-linecap:round;stroke-width:1.5;"/>
   </g>
   <g id="line2d_38">
    <path clip-path="url(#pcb0e052eab)" d="M 85.68 138.807273 
L 94.08 140.105706 
L 99.68 140.773025 
L 105.28 141.255353 
L 110.88 141.530966 
L 116.48 141.579459 
L 122.08 141.382904 
L 127.68 140.925834 
L 133.28 140.193682 
L 138.88 139.174018 
L 144.48 137.857351 
L 150.08 136.236023 
L 155.68 134.30618 
L 161.28 132.06649 
L 166.88 129.516039 
L 172.48 126.657368 
L 178.08 123.496301 
L 183.68 120.042565 
L 189.28 116.309969 
L 194.88 112.316586 
L 200.48 108.082053 
L 206.08 103.627142 
L 214.48 96.595739 
L 225.68 86.788406 
L 239.68 74.462189 
L 248.08 67.425794 
L 253.68 63.027115 
L 259.28 58.939866 
L 264.88 55.227446 
L 270.48 51.949299 
L 273.28 50.490197 
L 276.08 49.15939 
L 278.88 47.962444 
L 281.68 46.904432 
L 284.48 45.98963 
L 287.28 45.221576 
L 290.08 44.60091 
L 292.88 44.125853 
L 295.68 43.794958 
L 298.48 43.606722 
L 301.28 43.559356 
L 304.08 43.65079 
L 306.88 43.878617 
L 309.68 44.240123 
L 312.48 44.732258 
L 315.28 45.35186 
L 318.08 46.095477 
L 320.88 46.959561 
L 326.48 49.033881 
L 332.08 51.541639 
L 337.68 54.445456 
L 343.28 57.705741 
L 348.88 61.280143 
L 354.48 65.124419 
L 360.08 69.193547 
L 368.48 75.613092 
L 382.48 86.740137 
L 393.68 95.592591 
L 402.08 101.96663 
L 407.68 106.007719 
L 413.28 109.838441 
L 418.88 113.431832 
L 424.48 116.770088 
L 430.08 119.844785 
L 435.68 122.656353 
L 441.28 125.212198 
L 446.88 127.524344 
L 452.48 129.607794 
L 458.08 131.479588 
L 463.68 133.15809 
L 469.28 134.662358 
L 477.68 136.632838 
L 486.08 138.308036 
L 486.08 138.308036 
" style="fill:none;stroke:#64b5cd;stroke-linecap:round;stroke-width:1.5;"/>
   </g>
   <g id="line2d_39">
    <path clip-path="url(#pcb0e052eab)" d="M 85.68 134.887733 
L 88.48 135.381588 
L 91.28 135.838939 
L 96.88 136.631049 
L 102.48 137.239761 
L 108.08 137.641877 
L 113.68 137.814914 
L 119.28 137.738535 
L 124.88 137.3952 
L 130.48 136.769087 
L 136.08 135.845562 
L 141.68 134.613091 
L 147.28 133.062434 
L 152.88 131.187289 
L 158.48 128.985163 
L 164.08 126.454621 
L 169.68 123.596223 
L 175.28 120.414153 
L 180.88 116.916475 
L 186.48 113.115468 
L 192.08 109.027988 
L 197.68 104.674413 
L 203.28 100.075261 
L 208.88 95.255724 
L 217.28 87.691942 
L 231.28 74.609075 
L 239.68 66.819111 
L 248.08 59.367827 
L 253.68 54.709408 
L 259.28 50.380575 
L 264.88 46.448526 
L 270.48 42.976255 
L 273.28 41.430673 
L 276.08 40.020934 
L 278.88 38.752934 
L 281.68 37.632044 
L 284.48 36.662792 
L 287.28 35.848927 
L 290.08 35.191137 
L 292.88 34.687561 
L 295.68 34.336683 
L 298.48 34.136924 
L 301.28 34.0864 
L 304.08 34.18293 
L 306.88 34.423974 
L 309.68 34.806664 
L 312.48 35.327774 
L 315.28 35.983959 
L 318.08 36.771564 
L 320.88 37.686832 
L 323.68 38.725765 
L 329.28 41.157535 
L 334.88 44.029232 
L 340.48 47.299908 
L 346.08 50.926357 
L 351.68 54.862202 
L 357.28 59.06028 
L 365.68 65.740761 
L 376.88 75.087021 
L 393.68 89.205318 
L 402.08 95.953936 
L 407.68 100.231473 
L 413.28 104.285389 
L 418.88 108.087139 
L 424.48 111.617919 
L 430.08 114.868897 
L 435.68 117.840655 
L 441.28 120.541185 
L 446.88 122.983373 
L 452.48 125.183251 
L 458.08 127.158997 
L 463.68 128.930175 
L 469.28 130.517062 
L 477.68 132.595177 
L 486.08 134.361428 
L 486.08 134.361428 
" style="fill:none;stroke:#4c72b0;stroke-linecap:round;stroke-width:1.5;"/>
   </g>
   <g id="line2d_40">
    <path clip-path="url(#pcb0e052eab)" d="M 85.68 131.239607 
L 88.48 131.758624 
L 91.28 132.239255 
L 96.88 133.07163 
L 102.48 133.711203 
L 108.08 134.133577 
L 113.68 134.315075 
L 119.28 134.234251 
L 124.88 133.872583 
L 130.48 133.213344 
L 136.08 132.241035 
L 141.68 130.943418 
L 147.28 129.310652 
L 152.88 127.335984 
L 158.48 125.016671 
L 164.08 122.351065 
L 169.68 119.339611 
L 175.28 115.986564 
L 180.88 112.300274 
L 186.48 108.293536 
L 192.08 103.983995 
L 197.68 99.393024 
L 203.28 94.542148 
L 208.88 89.457849 
L 217.28 81.476729 
L 231.28 67.667699 
L 239.68 59.443385 
L 245.28 54.142525 
L 250.88 49.077129 
L 256.48 44.322712 
L 262.08 39.952066 
L 267.68 36.03415 
L 270.48 34.265143 
L 273.28 32.63269 
L 276.08 31.143655 
L 278.88 29.804263 
L 281.68 28.620186 
L 284.48 27.596205 
L 287.28 26.736279 
L 290.08 26.04115 
L 292.88 25.508873 
L 295.68 25.137865 
L 298.48 24.926476 
L 301.28 24.872727 
L 304.08 24.974328 
L 306.88 25.228603 
L 309.68 25.632533 
L 312.48 26.182716 
L 315.28 26.875621 
L 318.08 27.707395 
L 320.88 28.674066 
L 323.68 29.771415 
L 326.48 30.995044 
L 332.08 33.801411 
L 337.68 37.051293 
L 343.28 40.700319 
L 348.88 44.701 
L 354.48 49.003709 
L 360.08 53.557929 
L 368.48 60.742159 
L 382.48 73.19151 
L 393.68 83.091362 
L 402.08 90.215802 
L 407.68 94.730423 
L 413.28 99.008001 
L 418.88 103.018402 
L 424.48 106.741824 
L 430.08 110.169041 
L 435.68 113.300807 
L 441.28 116.145722 
L 446.88 118.717559 
L 452.48 121.033405 
L 458.08 123.1126 
L 463.68 124.975927 
L 469.28 126.644901 
L 474.88 128.140729 
L 483.28 130.101126 
L 486.08 130.686459 
L 486.08 130.686459 
" style="fill:none;stroke:#55a868;stroke-linecap:round;stroke-width:1.5;"/>
   </g>
   <g id="patch_3">
    <path d="M 85.68 244.8 
L 85.68 14.4 
" style="fill:none;stroke:#cccccc;stroke-linecap:square;stroke-linejoin:miter;"/>
   </g>
   <g id="patch_4">
    <path d="M 488.88 244.8 
L 488.88 14.4 
" style="fill:none;stroke:#cccccc;stroke-linecap:square;stroke-linejoin:miter;"/>
   </g>
   <g id="patch_5">
    <path d="M 85.68 244.8 
L 488.88 244.8 
" style="fill:none;stroke:#cccccc;stroke-linecap:square;stroke-linejoin:miter;"/>
   </g>
   <g id="patch_6">
    <path d="M 85.68 14.4 
L 488.88 14.4 
" style="fill:none;stroke:#cccccc;stroke-linecap:square;stroke-linejoin:miter;"/>
   </g>
  </g>
 </g>
 <defs>
  <clipPath id="pcb0e052eab">
   <rect height="230.4" width="403.2" x="85.68" y="14.4"/>
  </clipPath>
 </defs>
</svg>
